var midifile = [
    {
     "TimeMs": 0,
     "Key": 82,
     "DurationMs": 360,
     "Vel": 80
    },
    {
     "TimeMs": 1,
     "Key": 77,
     "DurationMs": 360,
     "Vel": 80
    },
    {
     "TimeMs": 3,
     "Key": 75,
     "DurationMs": 360,
     "Vel": 80
    },
    {
     "TimeMs": 5,
     "Key": 73,
     "DurationMs": 360,
     "Vel": 80
    },
    {
     "TimeMs": 6,
     "Key": 54,
     "DurationMs": 1433,
     "Vel": 80
    },
    {
     "TimeMs": 8,
     "Key": 61,
     "DurationMs": 1433,
     "Vel": 80
    },
    {
     "TimeMs": 10,
     "Key": 65,
     "DurationMs": 1433,
     "Vel": 80
    },
    {
     "TimeMs": 400,
     "Key": 80,
     "DurationMs": 360,
     "Vel": 80
    },
    {
     "TimeMs": 800,
     "Key": 77,
     "DurationMs": 360,
     "Vel": 80
    },
    {
     "TimeMs": 1200,
     "Key": 75,
     "DurationMs": 360,
     "Vel": 80
    },
    {
     "TimeMs": 1600,
     "Key": 77,
     "DurationMs": 720,
     "Vel": 80
    },
    {
     "TimeMs": 1601,
     "Key": 73,
     "DurationMs": 720,
     "Vel": 80
    },
    {
     "TimeMs": 1603,
     "Key": 72,
     "DurationMs": 720,
     "Vel": 80
    },
    {
     "TimeMs": 1605,
     "Key": 70,
     "DurationMs": 720,
     "Vel": 80
    },
    {
     "TimeMs": 1606,
     "Key": 56,
     "DurationMs": 1433,
     "Vel": 80
    },
    {
     "TimeMs": 1608,
     "Key": 63,
     "DurationMs": 1433,
     "Vel": 80
    },
    {
     "TimeMs": 1610,
     "Key": 66,
     "DurationMs": 1433,
     "Vel": 80
    },
    {
     "TimeMs": 2400,
     "Key": 75,
     "DurationMs": 720,
     "Vel": 80
    },
    {
     "TimeMs": 3200,
     "Key": 77,
     "DurationMs": 1440,
     "Vel": 80
    },
    {
     "TimeMs": 3201,
     "Key": 73,
     "DurationMs": 1440,
     "Vel": 80
    },
    {
     "TimeMs": 3203,
     "Key": 72,
     "DurationMs": 1440,
     "Vel": 80
    },
    {
     "TimeMs": 3205,
     "Key": 58,
     "DurationMs": 2875,
     "Vel": 80
    },
    {
     "TimeMs": 3206,
     "Key": 65,
     "DurationMs": 2875,
     "Vel": 80
    },
    {
     "TimeMs": 3208,
     "Key": 68,
     "DurationMs": 2875,
     "Vel": 80
    },
    {
     "TimeMs": 4800,
     "Key": 80,
     "DurationMs": 360,
     "Vel": 80
    },
    {
     "TimeMs": 5200,
     "Key": 77,
     "DurationMs": 360,
     "Vel": 80
    },
    {
     "TimeMs": 5600,
     "Key": 73,
     "DurationMs": 720,
     "Vel": 80
    },
    {
     "TimeMs": 6400,
     "Key": 82,
     "DurationMs": 360,
     "Vel": 80
    },
    {
     "TimeMs": 6401,
     "Key": 77,
     "DurationMs": 360,
     "Vel": 80
    },
    {
     "TimeMs": 6403,
     "Key": 75,
     "DurationMs": 360,
     "Vel": 80
    },
    {
     "TimeMs": 6405,
     "Key": 73,
     "DurationMs": 360,
     "Vel": 80
    },
    {
     "TimeMs": 6406,
     "Key": 54,
     "DurationMs": 1433,
     "Vel": 80
    },
    {
     "TimeMs": 6408,
     "Key": 61,
     "DurationMs": 1433,
     "Vel": 80
    },
    {
     "TimeMs": 6410,
     "Key": 65,
     "DurationMs": 1433,
     "Vel": 80
    },
    {
     "TimeMs": 6800,
     "Key": 80,
     "DurationMs": 360,
     "Vel": 80
    },
    {
     "TimeMs": 7200,
     "Key": 82,
     "DurationMs": 360,
     "Vel": 80
    },
    {
     "TimeMs": 7600,
     "Key": 84,
     "DurationMs": 360,
     "Vel": 80
    },
    {
     "TimeMs": 8000,
     "Key": 85,
     "DurationMs": 720,
     "Vel": 80
    },
    {
     "TimeMs": 8001,
     "Key": 80,
     "DurationMs": 720,
     "Vel": 80
    },
    {
     "TimeMs": 8003,
     "Key": 78,
     "DurationMs": 720,
     "Vel": 80
    },
    {
     "TimeMs": 8005,
     "Key": 77,
     "DurationMs": 720,
     "Vel": 80
    },
    {
     "TimeMs": 8006,
     "Key": 56,
     "DurationMs": 1433,
     "Vel": 80
    },
    {
     "TimeMs": 8008,
     "Key": 63,
     "DurationMs": 1433,
     "Vel": 80
    },
    {
     "TimeMs": 8010,
     "Key": 66,
     "DurationMs": 1433,
     "Vel": 80
    },
    {
     "TimeMs": 8800,
     "Key": 84,
     "DurationMs": 720,
     "Vel": 80
    },
    {
     "TimeMs": 9600,
     "Key": 82,
     "DurationMs": 2880,
     "Vel": 80
    },
    {
     "TimeMs": 9601,
     "Key": 77,
     "DurationMs": 2880,
     "Vel": 80
    },
    {
     "TimeMs": 9603,
     "Key": 75,
     "DurationMs": 2880,
     "Vel": 80
    },
    {
     "TimeMs": 9605,
     "Key": 58,
     "DurationMs": 715,
     "Vel": 80
    },
    {
     "TimeMs": 9606,
     "Key": 65,
     "DurationMs": 715,
     "Vel": 80
    },
    {
     "TimeMs": 9608,
     "Key": 68,
     "DurationMs": 715,
     "Vel": 80
    },
    {
     "TimeMs": 10400,
     "Key": 73,
     "DurationMs": 360,
     "Vel": 80
    },
    {
     "TimeMs": 10800,
     "Key": 72,
     "DurationMs": 360,
     "Vel": 80
    },
    {
     "TimeMs": 11200,
     "Key": 70,
     "DurationMs": 1440,
     "Vel": 80
    },
    {
     "TimeMs": 12800,
     "Key": 82,
     "DurationMs": 360,
     "Vel": 80
    },
    {
     "TimeMs": 12801,
     "Key": 77,
     "DurationMs": 360,
     "Vel": 80
    },
    {
     "TimeMs": 12803,
     "Key": 75,
     "DurationMs": 360,
     "Vel": 80
    },
    {
     "TimeMs": 12805,
     "Key": 73,
     "DurationMs": 360,
     "Vel": 80
    },
    {
     "TimeMs": 12806,
     "Key": 54,
     "DurationMs": 1433,
     "Vel": 80
    },
    {
     "TimeMs": 12808,
     "Key": 61,
     "DurationMs": 1433,
     "Vel": 80
    },
    {
     "TimeMs": 12810,
     "Key": 65,
     "DurationMs": 1433,
     "Vel": 80
    },
    {
     "TimeMs": 13200,
     "Key": 80,
     "DurationMs": 360,
     "Vel": 80
    },
    {
     "TimeMs": 13600,
     "Key": 77,
     "DurationMs": 360,
     "Vel": 80
    },
    {
     "TimeMs": 14000,
     "Key": 75,
     "DurationMs": 360,
     "Vel": 80
    },
    {
     "TimeMs": 14400,
     "Key": 77,
     "DurationMs": 720,
     "Vel": 80
    },
    {
     "TimeMs": 14401,
     "Key": 73,
     "DurationMs": 720,
     "Vel": 80
    },
    {
     "TimeMs": 14403,
     "Key": 72,
     "DurationMs": 720,
     "Vel": 80
    },
    {
     "TimeMs": 14405,
     "Key": 70,
     "DurationMs": 720,
     "Vel": 80
    },
    {
     "TimeMs": 14406,
     "Key": 56,
     "DurationMs": 1433,
     "Vel": 80
    },
    {
     "TimeMs": 14408,
     "Key": 63,
     "DurationMs": 1433,
     "Vel": 80
    },
    {
     "TimeMs": 14410,
     "Key": 66,
     "DurationMs": 1433,
     "Vel": 80
    },
    {
     "TimeMs": 15200,
     "Key": 75,
     "DurationMs": 720,
     "Vel": 80
    },
    {
     "TimeMs": 16000,
     "Key": 77,
     "DurationMs": 1440,
     "Vel": 80
    },
    {
     "TimeMs": 16001,
     "Key": 73,
     "DurationMs": 1440,
     "Vel": 80
    },
    {
     "TimeMs": 16003,
     "Key": 72,
     "DurationMs": 1440,
     "Vel": 80
    },
    {
     "TimeMs": 16005,
     "Key": 58,
     "DurationMs": 2875,
     "Vel": 80
    },
    {
     "TimeMs": 16006,
     "Key": 65,
     "DurationMs": 2875,
     "Vel": 80
    },
    {
     "TimeMs": 16008,
     "Key": 68,
     "DurationMs": 2875,
     "Vel": 80
    },
    {
     "TimeMs": 17600,
     "Key": 80,
     "DurationMs": 360,
     "Vel": 80
    },
    {
     "TimeMs": 18000,
     "Key": 77,
     "DurationMs": 360,
     "Vel": 80
    },
    {
     "TimeMs": 18400,
     "Key": 73,
     "DurationMs": 720,
     "Vel": 80
    },
    {
     "TimeMs": 19200,
     "Key": 82,
     "DurationMs": 360,
     "Vel": 80
    },
    {
     "TimeMs": 19201,
     "Key": 77,
     "DurationMs": 360,
     "Vel": 80
    },
    {
     "TimeMs": 19203,
     "Key": 75,
     "DurationMs": 360,
     "Vel": 80
    },
    {
     "TimeMs": 19205,
     "Key": 73,
     "DurationMs": 360,
     "Vel": 80
    },
    {
     "TimeMs": 19206,
     "Key": 54,
     "DurationMs": 1433,
     "Vel": 80
    },
    {
     "TimeMs": 19208,
     "Key": 61,
     "DurationMs": 1433,
     "Vel": 80
    },
    {
     "TimeMs": 19210,
     "Key": 65,
     "DurationMs": 1433,
     "Vel": 80
    },
    {
     "TimeMs": 19600,
     "Key": 80,
     "DurationMs": 360,
     "Vel": 80
    },
    {
     "TimeMs": 20000,
     "Key": 82,
     "DurationMs": 360,
     "Vel": 80
    },
    {
     "TimeMs": 20400,
     "Key": 84,
     "DurationMs": 360,
     "Vel": 80
    },
    {
     "TimeMs": 20800,
     "Key": 85,
     "DurationMs": 720,
     "Vel": 80
    },
    {
     "TimeMs": 20801,
     "Key": 80,
     "DurationMs": 720,
     "Vel": 80
    },
    {
     "TimeMs": 20803,
     "Key": 78,
     "DurationMs": 720,
     "Vel": 80
    },
    {
     "TimeMs": 20805,
     "Key": 77,
     "DurationMs": 720,
     "Vel": 80
    },
    {
     "TimeMs": 20806,
     "Key": 56,
     "DurationMs": 1433,
     "Vel": 80
    },
    {
     "TimeMs": 20808,
     "Key": 63,
     "DurationMs": 1433,
     "Vel": 80
    },
    {
     "TimeMs": 20810,
     "Key": 66,
     "DurationMs": 1433,
     "Vel": 80
    },
    {
     "TimeMs": 21600,
     "Key": 84,
     "DurationMs": 720,
     "Vel": 80
    },
    {
     "TimeMs": 22400,
     "Key": 82,
     "DurationMs": 2880,
     "Vel": 80
    },
    {
     "TimeMs": 22401,
     "Key": 77,
     "DurationMs": 2880,
     "Vel": 80
    },
    {
     "TimeMs": 22403,
     "Key": 75,
     "DurationMs": 2756,
     "Vel": 80
    },
    {
     "TimeMs": 22405,
     "Key": 58,
     "DurationMs": 355,
     "Vel": 80
    },
    {
     "TimeMs": 22800,
     "Key": 65,
     "DurationMs": 360,
     "Vel": 80
    },
    {
     "TimeMs": 23200,
     "Key": 68,
     "DurationMs": 360,
     "Vel": 80
    },
    {
     "TimeMs": 23600,
     "Key": 70,
     "DurationMs": 360,
     "Vel": 80
    },
    {
     "TimeMs": 24000,
     "Key": 72,
     "DurationMs": 360,
     "Vel": 80
    },
    {
     "TimeMs": 24400,
     "Key": 73,
     "DurationMs": 360,
     "Vel": 80
    },
    {
     "TimeMs": 24800,
     "Key": 75,
     "DurationMs": 360,
     "Vel": 80
    },
    {
     "TimeMs": 25200,
     "Key": 77,
     "DurationMs": 81,
     "Vel": 80
    },
    {
     "TimeMs": 25600,
     "Key": 82,
     "DurationMs": 2880,
     "Vel": 80
    },
    {
     "TimeMs": 25601,
     "Key": 77,
     "DurationMs": 2880,
     "Vel": 80
    },
    {
     "TimeMs": 25603,
     "Key": 74,
     "DurationMs": 2880,
     "Vel": 80
    },
    {
     "TimeMs": 25605,
     "Key": 46,
     "DurationMs": 355,
     "Vel": 80
    },
    {
     "TimeMs": 25606,
     "Key": 58,
     "DurationMs": 355,
     "Vel": 80
    },
    {
     "TimeMs": 26000,
     "Key": 65,
     "DurationMs": 360,
     "Vel": 80
    },
    {
     "TimeMs": 26400,
     "Key": 70,
     "DurationMs": 360,
     "Vel": 80
    },
    {
     "TimeMs": 26800,
     "Key": 72,
     "DurationMs": 360,
     "Vel": 80
    },
    {
     "TimeMs": 27200,
     "Key": 74,
     "DurationMs": 1283,
     "Vel": 80
    },
    {
     "TimeMs": 28800,
     "Key": 77,
     "DurationMs": 180,
     "Vel": 80
    },
    {
     "TimeMs": 28801,
     "Key": 75,
     "DurationMs": 180,
     "Vel": 80
    },
    {
     "TimeMs": 28803,
     "Key": 54,
     "DurationMs": 356,
     "Vel": 80
    },
    {
     "TimeMs": 29000,
     "Key": 75,
     "DurationMs": 180,
     "Vel": 80
    },
    {
     "TimeMs": 29200,
     "Key": 77,
     "DurationMs": 180,
     "Vel": 80
    },
    {
     "TimeMs": 29201,
     "Key": 61,
     "DurationMs": 358,
     "Vel": 80
    },
    {
     "TimeMs": 29400,
     "Key": 82,
     "DurationMs": 360,
     "Vel": 80
    },
    {
     "TimeMs": 29600,
     "Key": 66,
     "DurationMs": 360,
     "Vel": 80
    },
    {
     "TimeMs": 29800,
     "Key": 77,
     "DurationMs": 180,
     "Vel": 80
    },
    {
     "TimeMs": 30000,
     "Key": 75,
     "DurationMs": 360,
     "Vel": 80
    },
    {
     "TimeMs": 30001,
     "Key": 68,
     "DurationMs": 360,
     "Vel": 80
    },
    {
     "TimeMs": 30400,
     "Key": 77,
     "DurationMs": 720,
     "Vel": 80
    },
    {
     "TimeMs": 30401,
     "Key": 56,
     "DurationMs": 358,
     "Vel": 80
    },
    {
     "TimeMs": 30800,
     "Key": 63,
     "DurationMs": 360,
     "Vel": 80
    },
    {
     "TimeMs": 31200,
     "Key": 75,
     "DurationMs": 720,
     "Vel": 80
    },
    {
     "TimeMs": 31201,
     "Key": 68,
     "DurationMs": 358,
     "Vel": 80
    },
    {
     "TimeMs": 31600,
     "Key": 70,
     "DurationMs": 360,
     "Vel": 80
    },
    {
     "TimeMs": 32000,
     "Key": 77,
     "DurationMs": 180,
     "Vel": 80
    },
    {
     "TimeMs": 32001,
     "Key": 75,
     "DurationMs": 180,
     "Vel": 80
    },
    {
     "TimeMs": 32003,
     "Key": 58,
     "DurationMs": 356,
     "Vel": 80
    },
    {
     "TimeMs": 32200,
     "Key": 75,
     "DurationMs": 180,
     "Vel": 80
    },
    {
     "TimeMs": 32400,
     "Key": 77,
     "DurationMs": 180,
     "Vel": 80
    },
    {
     "TimeMs": 32401,
     "Key": 65,
     "DurationMs": 358,
     "Vel": 80
    },
    {
     "TimeMs": 32600,
     "Key": 82,
     "DurationMs": 360,
     "Vel": 80
    },
    {
     "TimeMs": 32800,
     "Key": 70,
     "DurationMs": 360,
     "Vel": 80
    },
    {
     "TimeMs": 33000,
     "Key": 77,
     "DurationMs": 180,
     "Vel": 80
    },
    {
     "TimeMs": 33200,
     "Key": 75,
     "DurationMs": 360,
     "Vel": 80
    },
    {
     "TimeMs": 33201,
     "Key": 72,
     "DurationMs": 360,
     "Vel": 80
    },
    {
     "TimeMs": 33600,
     "Key": 77,
     "DurationMs": 1440,
     "Vel": 80
    },
    {
     "TimeMs": 33601,
     "Key": 73,
     "DurationMs": 1440,
     "Vel": 80
    },
    {
     "TimeMs": 35200,
     "Key": 77,
     "DurationMs": 180,
     "Vel": 80
    },
    {
     "TimeMs": 35201,
     "Key": 75,
     "DurationMs": 180,
     "Vel": 80
    },
    {
     "TimeMs": 35203,
     "Key": 54,
     "DurationMs": 356,
     "Vel": 80
    },
    {
     "TimeMs": 35400,
     "Key": 75,
     "DurationMs": 180,
     "Vel": 80
    },
    {
     "TimeMs": 35600,
     "Key": 77,
     "DurationMs": 180,
     "Vel": 80
    },
    {
     "TimeMs": 35601,
     "Key": 61,
     "DurationMs": 358,
     "Vel": 80
    },
    {
     "TimeMs": 35800,
     "Key": 82,
     "DurationMs": 360,
     "Vel": 80
    },
    {
     "TimeMs": 36000,
     "Key": 66,
     "DurationMs": 360,
     "Vel": 80
    },
    {
     "TimeMs": 36200,
     "Key": 77,
     "DurationMs": 180,
     "Vel": 80
    },
    {
     "TimeMs": 36400,
     "Key": 75,
     "DurationMs": 360,
     "Vel": 80
    },
    {
     "TimeMs": 36401,
     "Key": 68,
     "DurationMs": 360,
     "Vel": 80
    },
    {
     "TimeMs": 36800,
     "Key": 77,
     "DurationMs": 180,
     "Vel": 80
    },
    {
     "TimeMs": 36801,
     "Key": 56,
     "DurationMs": 358,
     "Vel": 80
    },
    {
     "TimeMs": 37000,
     "Key": 75,
     "DurationMs": 180,
     "Vel": 80
    },
    {
     "TimeMs": 37200,
     "Key": 77,
     "DurationMs": 180,
     "Vel": 80
    },
    {
     "TimeMs": 37201,
     "Key": 63,
     "DurationMs": 358,
     "Vel": 80
    },
    {
     "TimeMs": 37400,
     "Key": 80,
     "DurationMs": 360,
     "Vel": 80
    },
    {
     "TimeMs": 37600,
     "Key": 68,
     "DurationMs": 360,
     "Vel": 80
    },
    {
     "TimeMs": 37800,
     "Key": 77,
     "DurationMs": 180,
     "Vel": 80
    },
    {
     "TimeMs": 38000,
     "Key": 75,
     "DurationMs": 360,
     "Vel": 80
    },
    {
     "TimeMs": 38001,
     "Key": 70,
     "DurationMs": 360,
     "Vel": 80
    },
    {
     "TimeMs": 38400,
     "Key": 77,
     "DurationMs": 360,
     "Vel": 80
    },
    {
     "TimeMs": 38401,
     "Key": 75,
     "DurationMs": 360,
     "Vel": 80
    },
    {
     "TimeMs": 38403,
     "Key": 58,
     "DurationMs": 360,
     "Vel": 80
    },
    {
     "TimeMs": 38800,
     "Key": 75,
     "DurationMs": 360,
     "Vel": 80
    },
    {
     "TimeMs": 38801,
     "Key": 65,
     "DurationMs": 360,
     "Vel": 80
    },
    {
     "TimeMs": 39200,
     "Key": 77,
     "DurationMs": 360,
     "Vel": 80
    },
    {
     "TimeMs": 39201,
     "Key": 70,
     "DurationMs": 360,
     "Vel": 80
    },
    {
     "TimeMs": 39600,
     "Key": 80,
     "DurationMs": 360,
     "Vel": 80
    },
    {
     "TimeMs": 39601,
     "Key": 72,
     "DurationMs": 360,
     "Vel": 80
    },
    {
     "TimeMs": 40000,
     "Key": 82,
     "DurationMs": 1440,
     "Vel": 80
    },
    {
     "TimeMs": 40001,
     "Key": 73,
     "DurationMs": 1440,
     "Vel": 80
    },
    {
     "TimeMs": 41600,
     "Key": 77,
     "DurationMs": 180,
     "Vel": 80
    },
    {
     "TimeMs": 41601,
     "Key": 75,
     "DurationMs": 180,
     "Vel": 80
    },
    {
     "TimeMs": 41603,
     "Key": 54,
     "DurationMs": 356,
     "Vel": 80
    },
    {
     "TimeMs": 41800,
     "Key": 75,
     "DurationMs": 180,
     "Vel": 80
    },
    {
     "TimeMs": 42000,
     "Key": 77,
     "DurationMs": 180,
     "Vel": 80
    },
    {
     "TimeMs": 42001,
     "Key": 61,
     "DurationMs": 358,
     "Vel": 80
    },
    {
     "TimeMs": 42200,
     "Key": 82,
     "DurationMs": 360,
     "Vel": 80
    },
    {
     "TimeMs": 42400,
     "Key": 66,
     "DurationMs": 360,
     "Vel": 80
    },
    {
     "TimeMs": 42600,
     "Key": 77,
     "DurationMs": 180,
     "Vel": 80
    },
    {
     "TimeMs": 42800,
     "Key": 75,
     "DurationMs": 360,
     "Vel": 80
    },
    {
     "TimeMs": 42801,
     "Key": 68,
     "DurationMs": 360,
     "Vel": 80
    },
    {
     "TimeMs": 43200,
     "Key": 77,
     "DurationMs": 720,
     "Vel": 80
    },
    {
     "TimeMs": 43201,
     "Key": 56,
     "DurationMs": 358,
     "Vel": 80
    },
    {
     "TimeMs": 43600,
     "Key": 63,
     "DurationMs": 360,
     "Vel": 80
    },
    {
     "TimeMs": 44000,
     "Key": 75,
     "DurationMs": 720,
     "Vel": 80
    },
    {
     "TimeMs": 44001,
     "Key": 68,
     "DurationMs": 358,
     "Vel": 80
    },
    {
     "TimeMs": 44400,
     "Key": 70,
     "DurationMs": 360,
     "Vel": 80
    },
    {
     "TimeMs": 44800,
     "Key": 77,
     "DurationMs": 180,
     "Vel": 80
    },
    {
     "TimeMs": 44801,
     "Key": 75,
     "DurationMs": 180,
     "Vel": 80
    },
    {
     "TimeMs": 44803,
     "Key": 58,
     "DurationMs": 356,
     "Vel": 80
    },
    {
     "TimeMs": 45000,
     "Key": 75,
     "DurationMs": 180,
     "Vel": 80
    },
    {
     "TimeMs": 45200,
     "Key": 77,
     "DurationMs": 180,
     "Vel": 80
    },
    {
     "TimeMs": 45201,
     "Key": 65,
     "DurationMs": 358,
     "Vel": 80
    },
    {
     "TimeMs": 45400,
     "Key": 82,
     "DurationMs": 360,
     "Vel": 80
    },
    {
     "TimeMs": 45600,
     "Key": 70,
     "DurationMs": 360,
     "Vel": 80
    },
    {
     "TimeMs": 45800,
     "Key": 77,
     "DurationMs": 180,
     "Vel": 80
    },
    {
     "TimeMs": 46000,
     "Key": 75,
     "DurationMs": 360,
     "Vel": 80
    },
    {
     "TimeMs": 46001,
     "Key": 72,
     "DurationMs": 360,
     "Vel": 80
    },
    {
     "TimeMs": 46400,
     "Key": 77,
     "DurationMs": 1440,
     "Vel": 80
    },
    {
     "TimeMs": 46401,
     "Key": 73,
     "DurationMs": 1440,
     "Vel": 80
    },
    {
     "TimeMs": 48000,
     "Key": 77,
     "DurationMs": 180,
     "Vel": 80
    },
    {
     "TimeMs": 48001,
     "Key": 75,
     "DurationMs": 180,
     "Vel": 80
    },
    {
     "TimeMs": 48003,
     "Key": 54,
     "DurationMs": 356,
     "Vel": 80
    },
    {
     "TimeMs": 48200,
     "Key": 75,
     "DurationMs": 180,
     "Vel": 80
    },
    {
     "TimeMs": 48400,
     "Key": 77,
     "DurationMs": 180,
     "Vel": 80
    },
    {
     "TimeMs": 48401,
     "Key": 61,
     "DurationMs": 358,
     "Vel": 80
    },
    {
     "TimeMs": 48600,
     "Key": 82,
     "DurationMs": 360,
     "Vel": 80
    },
    {
     "TimeMs": 48800,
     "Key": 66,
     "DurationMs": 360,
     "Vel": 80
    },
    {
     "TimeMs": 49000,
     "Key": 77,
     "DurationMs": 180,
     "Vel": 80
    },
    {
     "TimeMs": 49200,
     "Key": 75,
     "DurationMs": 360,
     "Vel": 80
    },
    {
     "TimeMs": 49201,
     "Key": 68,
     "DurationMs": 360,
     "Vel": 80
    },
    {
     "TimeMs": 49600,
     "Key": 84,
     "DurationMs": 180,
     "Vel": 80
    },
    {
     "TimeMs": 49601,
     "Key": 82,
     "DurationMs": 180,
     "Vel": 80
    },
    {
     "TimeMs": 49603,
     "Key": 56,
     "DurationMs": 356,
     "Vel": 80
    },
    {
     "TimeMs": 49800,
     "Key": 82,
     "DurationMs": 180,
     "Vel": 80
    },
    {
     "TimeMs": 50000,
     "Key": 84,
     "DurationMs": 180,
     "Vel": 80
    },
    {
     "TimeMs": 50001,
     "Key": 63,
     "DurationMs": 358,
     "Vel": 80
    },
    {
     "TimeMs": 50200,
     "Key": 87,
     "DurationMs": 360,
     "Vel": 80
    },
    {
     "TimeMs": 50400,
     "Key": 68,
     "DurationMs": 360,
     "Vel": 80
    },
    {
     "TimeMs": 50600,
     "Key": 85,
     "DurationMs": 180,
     "Vel": 80
    },
    {
     "TimeMs": 50800,
     "Key": 84,
     "DurationMs": 360,
     "Vel": 80
    },
    {
     "TimeMs": 50801,
     "Key": 70,
     "DurationMs": 360,
     "Vel": 80
    },
    {
     "TimeMs": 51200,
     "Key": 84,
     "DurationMs": 720,
     "Vel": 80
    },
    {
     "TimeMs": 51201,
     "Key": 77,
     "DurationMs": 720,
     "Vel": 80
    },
    {
     "TimeMs": 51203,
     "Key": 58,
     "DurationMs": 356,
     "Vel": 80
    },
    {
     "TimeMs": 51600,
     "Key": 65,
     "DurationMs": 360,
     "Vel": 80
    },
    {
     "TimeMs": 52000,
     "Key": 84,
     "DurationMs": 360,
     "Vel": 80
    },
    {
     "TimeMs": 52001,
     "Key": 77,
     "DurationMs": 360,
     "Vel": 80
    },
    {
     "TimeMs": 52003,
     "Key": 70,
     "DurationMs": 360,
     "Vel": 80
    },
    {
     "TimeMs": 52400,
     "Key": 85,
     "DurationMs": 1440,
     "Vel": 80
    },
    {
     "TimeMs": 52401,
     "Key": 77,
     "DurationMs": 1440,
     "Vel": 80
    },
    {
     "TimeMs": 52403,
     "Key": 72,
     "DurationMs": 356,
     "Vel": 80
    },
    {
     "TimeMs": 52800,
     "Key": 73,
     "DurationMs": 1440,
     "Vel": 80
    },
    {
     "TimeMs": 54400,
     "Key": 77,
     "DurationMs": 180,
     "Vel": 80
    },
    {
     "TimeMs": 54401,
     "Key": 75,
     "DurationMs": 180,
     "Vel": 80
    },
    {
     "TimeMs": 54403,
     "Key": 42,
     "DurationMs": 356,
     "Vel": 80
    },
    {
     "TimeMs": 54600,
     "Key": 75,
     "DurationMs": 180,
     "Vel": 80
    },
    {
     "TimeMs": 54800,
     "Key": 77,
     "DurationMs": 180,
     "Vel": 80
    },
    {
     "TimeMs": 54801,
     "Key": 49,
     "DurationMs": 358,
     "Vel": 80
    },
    {
     "TimeMs": 55000,
     "Key": 82,
     "DurationMs": 360,
     "Vel": 80
    },
    {
     "TimeMs": 55200,
     "Key": 54,
     "DurationMs": 360,
     "Vel": 80
    },
    {
     "TimeMs": 55400,
     "Key": 77,
     "DurationMs": 180,
     "Vel": 80
    },
    {
     "TimeMs": 55600,
     "Key": 75,
     "DurationMs": 360,
     "Vel": 80
    },
    {
     "TimeMs": 55601,
     "Key": 58,
     "DurationMs": 360,
     "Vel": 80
    },
    {
     "TimeMs": 56000,
     "Key": 77,
     "DurationMs": 720,
     "Vel": 80
    },
    {
     "TimeMs": 56001,
     "Key": 44,
     "DurationMs": 358,
     "Vel": 80
    },
    {
     "TimeMs": 56400,
     "Key": 51,
     "DurationMs": 360,
     "Vel": 80
    },
    {
     "TimeMs": 56800,
     "Key": 75,
     "DurationMs": 720,
     "Vel": 80
    },
    {
     "TimeMs": 56801,
     "Key": 56,
     "DurationMs": 358,
     "Vel": 80
    },
    {
     "TimeMs": 57200,
     "Key": 58,
     "DurationMs": 360,
     "Vel": 80
    },
    {
     "TimeMs": 57600,
     "Key": 77,
     "DurationMs": 180,
     "Vel": 80
    },
    {
     "TimeMs": 57601,
     "Key": 75,
     "DurationMs": 180,
     "Vel": 80
    },
    {
     "TimeMs": 57603,
     "Key": 46,
     "DurationMs": 356,
     "Vel": 80
    },
    {
     "TimeMs": 57800,
     "Key": 75,
     "DurationMs": 180,
     "Vel": 80
    },
    {
     "TimeMs": 58000,
     "Key": 77,
     "DurationMs": 180,
     "Vel": 80
    },
    {
     "TimeMs": 58001,
     "Key": 53,
     "DurationMs": 358,
     "Vel": 80
    },
    {
     "TimeMs": 58200,
     "Key": 82,
     "DurationMs": 360,
     "Vel": 80
    },
    {
     "TimeMs": 58400,
     "Key": 58,
     "DurationMs": 360,
     "Vel": 80
    },
    {
     "TimeMs": 58600,
     "Key": 77,
     "DurationMs": 180,
     "Vel": 80
    },
    {
     "TimeMs": 58800,
     "Key": 75,
     "DurationMs": 360,
     "Vel": 80
    },
    {
     "TimeMs": 58801,
     "Key": 60,
     "DurationMs": 360,
     "Vel": 80
    },
    {
     "TimeMs": 59200,
     "Key": 77,
     "DurationMs": 1440,
     "Vel": 80
    },
    {
     "TimeMs": 59201,
     "Key": 61,
     "DurationMs": 358,
     "Vel": 80
    },
    {
     "TimeMs": 59600,
     "Key": 53,
     "DurationMs": 360,
     "Vel": 80
    },
    {
     "TimeMs": 60000,
     "Key": 58,
     "DurationMs": 360,
     "Vel": 80
    },
    {
     "TimeMs": 60400,
     "Key": 53,
     "DurationMs": 360,
     "Vel": 80
    },
    {
     "TimeMs": 60800,
     "Key": 77,
     "DurationMs": 180,
     "Vel": 80
    },
    {
     "TimeMs": 60801,
     "Key": 75,
     "DurationMs": 180,
     "Vel": 80
    },
    {
     "TimeMs": 60803,
     "Key": 42,
     "DurationMs": 356,
     "Vel": 80
    },
    {
     "TimeMs": 61000,
     "Key": 75,
     "DurationMs": 180,
     "Vel": 80
    },
    {
     "TimeMs": 61200,
     "Key": 77,
     "DurationMs": 180,
     "Vel": 80
    },
    {
     "TimeMs": 61201,
     "Key": 49,
     "DurationMs": 358,
     "Vel": 80
    },
    {
     "TimeMs": 61400,
     "Key": 82,
     "DurationMs": 360,
     "Vel": 80
    },
    {
     "TimeMs": 61600,
     "Key": 54,
     "DurationMs": 360,
     "Vel": 80
    },
    {
     "TimeMs": 61800,
     "Key": 77,
     "DurationMs": 180,
     "Vel": 80
    },
    {
     "TimeMs": 62000,
     "Key": 75,
     "DurationMs": 360,
     "Vel": 80
    },
    {
     "TimeMs": 62001,
     "Key": 58,
     "DurationMs": 360,
     "Vel": 80
    },
    {
     "TimeMs": 62400,
     "Key": 77,
     "DurationMs": 180,
     "Vel": 80
    },
    {
     "TimeMs": 62401,
     "Key": 44,
     "DurationMs": 358,
     "Vel": 80
    },
    {
     "TimeMs": 62600,
     "Key": 75,
     "DurationMs": 180,
     "Vel": 80
    },
    {
     "TimeMs": 62800,
     "Key": 77,
     "DurationMs": 180,
     "Vel": 80
    },
    {
     "TimeMs": 62801,
     "Key": 51,
     "DurationMs": 358,
     "Vel": 80
    },
    {
     "TimeMs": 63000,
     "Key": 80,
     "DurationMs": 360,
     "Vel": 80
    },
    {
     "TimeMs": 63200,
     "Key": 56,
     "DurationMs": 360,
     "Vel": 80
    },
    {
     "TimeMs": 63400,
     "Key": 77,
     "DurationMs": 180,
     "Vel": 80
    },
    {
     "TimeMs": 63600,
     "Key": 75,
     "DurationMs": 360,
     "Vel": 80
    },
    {
     "TimeMs": 63601,
     "Key": 58,
     "DurationMs": 360,
     "Vel": 80
    },
    {
     "TimeMs": 64000,
     "Key": 77,
     "DurationMs": 360,
     "Vel": 80
    },
    {
     "TimeMs": 64001,
     "Key": 75,
     "DurationMs": 360,
     "Vel": 80
    },
    {
     "TimeMs": 64003,
     "Key": 46,
     "DurationMs": 360,
     "Vel": 80
    },
    {
     "TimeMs": 64400,
     "Key": 75,
     "DurationMs": 360,
     "Vel": 80
    },
    {
     "TimeMs": 64401,
     "Key": 53,
     "DurationMs": 360,
     "Vel": 80
    },
    {
     "TimeMs": 64800,
     "Key": 77,
     "DurationMs": 360,
     "Vel": 80
    },
    {
     "TimeMs": 64801,
     "Key": 58,
     "DurationMs": 360,
     "Vel": 80
    },
    {
     "TimeMs": 65200,
     "Key": 80,
     "DurationMs": 360,
     "Vel": 80
    },
    {
     "TimeMs": 65201,
     "Key": 60,
     "DurationMs": 360,
     "Vel": 80
    },
    {
     "TimeMs": 65600,
     "Key": 82,
     "DurationMs": 1440,
     "Vel": 80
    },
    {
     "TimeMs": 65601,
     "Key": 61,
     "DurationMs": 358,
     "Vel": 80
    },
    {
     "TimeMs": 66000,
     "Key": 60,
     "DurationMs": 360,
     "Vel": 80
    },
    {
     "TimeMs": 66400,
     "Key": 58,
     "DurationMs": 360,
     "Vel": 80
    },
    {
     "TimeMs": 66800,
     "Key": 53,
     "DurationMs": 360,
     "Vel": 80
    },
    {
     "TimeMs": 67200,
     "Key": 77,
     "DurationMs": 180,
     "Vel": 80
    },
    {
     "TimeMs": 67201,
     "Key": 75,
     "DurationMs": 180,
     "Vel": 80
    },
    {
     "TimeMs": 67203,
     "Key": 42,
     "DurationMs": 356,
     "Vel": 80
    },
    {
     "TimeMs": 67400,
     "Key": 75,
     "DurationMs": 180,
     "Vel": 80
    },
    {
     "TimeMs": 67600,
     "Key": 77,
     "DurationMs": 180,
     "Vel": 80
    },
    {
     "TimeMs": 67601,
     "Key": 49,
     "DurationMs": 358,
     "Vel": 80
    },
    {
     "TimeMs": 67800,
     "Key": 82,
     "DurationMs": 360,
     "Vel": 80
    },
    {
     "TimeMs": 68000,
     "Key": 54,
     "DurationMs": 360,
     "Vel": 80
    },
    {
     "TimeMs": 68200,
     "Key": 77,
     "DurationMs": 180,
     "Vel": 80
    },
    {
     "TimeMs": 68400,
     "Key": 75,
     "DurationMs": 360,
     "Vel": 80
    },
    {
     "TimeMs": 68401,
     "Key": 58,
     "DurationMs": 360,
     "Vel": 80
    },
    {
     "TimeMs": 68800,
     "Key": 77,
     "DurationMs": 720,
     "Vel": 80
    },
    {
     "TimeMs": 68801,
     "Key": 44,
     "DurationMs": 358,
     "Vel": 80
    },
    {
     "TimeMs": 69200,
     "Key": 51,
     "DurationMs": 360,
     "Vel": 80
    },
    {
     "TimeMs": 69600,
     "Key": 75,
     "DurationMs": 720,
     "Vel": 80
    },
    {
     "TimeMs": 69601,
     "Key": 56,
     "DurationMs": 358,
     "Vel": 80
    },
    {
     "TimeMs": 70000,
     "Key": 58,
     "DurationMs": 360,
     "Vel": 80
    },
    {
     "TimeMs": 70400,
     "Key": 77,
     "DurationMs": 180,
     "Vel": 80
    },
    {
     "TimeMs": 70401,
     "Key": 75,
     "DurationMs": 180,
     "Vel": 80
    },
    {
     "TimeMs": 70403,
     "Key": 46,
     "DurationMs": 356,
     "Vel": 80
    },
    {
     "TimeMs": 70600,
     "Key": 75,
     "DurationMs": 180,
     "Vel": 80
    },
    {
     "TimeMs": 70800,
     "Key": 77,
     "DurationMs": 180,
     "Vel": 80
    },
    {
     "TimeMs": 70801,
     "Key": 53,
     "DurationMs": 358,
     "Vel": 80
    },
    {
     "TimeMs": 71000,
     "Key": 82,
     "DurationMs": 360,
     "Vel": 80
    },
    {
     "TimeMs": 71200,
     "Key": 58,
     "DurationMs": 360,
     "Vel": 80
    },
    {
     "TimeMs": 71400,
     "Key": 77,
     "DurationMs": 180,
     "Vel": 80
    },
    {
     "TimeMs": 71600,
     "Key": 75,
     "DurationMs": 360,
     "Vel": 80
    },
    {
     "TimeMs": 71601,
     "Key": 60,
     "DurationMs": 360,
     "Vel": 80
    },
    {
     "TimeMs": 72000,
     "Key": 77,
     "DurationMs": 1440,
     "Vel": 80
    },
    {
     "TimeMs": 72001,
     "Key": 61,
     "DurationMs": 358,
     "Vel": 80
    },
    {
     "TimeMs": 72400,
     "Key": 53,
     "DurationMs": 360,
     "Vel": 80
    },
    {
     "TimeMs": 72800,
     "Key": 58,
     "DurationMs": 360,
     "Vel": 80
    },
    {
     "TimeMs": 73200,
     "Key": 53,
     "DurationMs": 360,
     "Vel": 80
    },
    {
     "TimeMs": 73600,
     "Key": 77,
     "DurationMs": 180,
     "Vel": 80
    },
    {
     "TimeMs": 73601,
     "Key": 75,
     "DurationMs": 180,
     "Vel": 80
    },
    {
     "TimeMs": 73603,
     "Key": 42,
     "DurationMs": 356,
     "Vel": 80
    },
    {
     "TimeMs": 73800,
     "Key": 75,
     "DurationMs": 180,
     "Vel": 80
    },
    {
     "TimeMs": 74000,
     "Key": 77,
     "DurationMs": 180,
     "Vel": 80
    },
    {
     "TimeMs": 74001,
     "Key": 49,
     "DurationMs": 358,
     "Vel": 80
    },
    {
     "TimeMs": 74200,
     "Key": 82,
     "DurationMs": 360,
     "Vel": 80
    },
    {
     "TimeMs": 74400,
     "Key": 54,
     "DurationMs": 360,
     "Vel": 80
    },
    {
     "TimeMs": 74600,
     "Key": 77,
     "DurationMs": 180,
     "Vel": 80
    },
    {
     "TimeMs": 74800,
     "Key": 75,
     "DurationMs": 360,
     "Vel": 80
    },
    {
     "TimeMs": 74801,
     "Key": 58,
     "DurationMs": 360,
     "Vel": 80
    },
    {
     "TimeMs": 75200,
     "Key": 84,
     "DurationMs": 180,
     "Vel": 80
    },
    {
     "TimeMs": 75201,
     "Key": 82,
     "DurationMs": 180,
     "Vel": 80
    },
    {
     "TimeMs": 75203,
     "Key": 44,
     "DurationMs": 356,
     "Vel": 80
    },
    {
     "TimeMs": 75400,
     "Key": 82,
     "DurationMs": 180,
     "Vel": 80
    },
    {
     "TimeMs": 75600,
     "Key": 84,
     "DurationMs": 180,
     "Vel": 80
    },
    {
     "TimeMs": 75601,
     "Key": 51,
     "DurationMs": 358,
     "Vel": 80
    },
    {
     "TimeMs": 75800,
     "Key": 87,
     "DurationMs": 360,
     "Vel": 80
    },
    {
     "TimeMs": 76000,
     "Key": 56,
     "DurationMs": 360,
     "Vel": 80
    },
    {
     "TimeMs": 76200,
     "Key": 85,
     "DurationMs": 180,
     "Vel": 80
    },
    {
     "TimeMs": 76400,
     "Key": 84,
     "DurationMs": 360,
     "Vel": 80
    },
    {
     "TimeMs": 76401,
     "Key": 58,
     "DurationMs": 360,
     "Vel": 80
    },
    {
     "TimeMs": 76800,
     "Key": 84,
     "DurationMs": 720,
     "Vel": 80
    },
    {
     "TimeMs": 76801,
     "Key": 77,
     "DurationMs": 720,
     "Vel": 80
    },
    {
     "TimeMs": 76803,
     "Key": 46,
     "DurationMs": 356,
     "Vel": 80
    },
    {
     "TimeMs": 77200,
     "Key": 53,
     "DurationMs": 360,
     "Vel": 80
    },
    {
     "TimeMs": 77600,
     "Key": 84,
     "DurationMs": 360,
     "Vel": 80
    },
    {
     "TimeMs": 77601,
     "Key": 77,
     "DurationMs": 360,
     "Vel": 80
    },
    {
     "TimeMs": 77603,
     "Key": 58,
     "DurationMs": 360,
     "Vel": 80
    },
    {
     "TimeMs": 78000,
     "Key": 85,
     "DurationMs": 360,
     "Vel": 80
    },
    {
     "TimeMs": 78001,
     "Key": 77,
     "DurationMs": 360,
     "Vel": 80
    },
    {
     "TimeMs": 78003,
     "Key": 60,
     "DurationMs": 360,
     "Vel": 80
    },
    {
     "TimeMs": 78400,
     "Key": 101,
     "DurationMs": 180,
     "Vel": 80
    },
    {
     "TimeMs": 78401,
     "Key": 61,
     "DurationMs": 718,
     "Vel": 80
    },
    {
     "TimeMs": 78600,
     "Key": 97,
     "DurationMs": 180,
     "Vel": 80
    },
    {
     "TimeMs": 78800,
     "Key": 96,
     "DurationMs": 180,
     "Vel": 80
    },
    {
     "TimeMs": 79000,
     "Key": 94,
     "DurationMs": 180,
     "Vel": 80
    },
    {
     "TimeMs": 79200,
     "Key": 89,
     "DurationMs": 180,
     "Vel": 80
    },
    {
     "TimeMs": 79201,
     "Key": 53,
     "DurationMs": 718,
     "Vel": 80
    },
    {
     "TimeMs": 79400,
     "Key": 85,
     "DurationMs": 180,
     "Vel": 80
    },
    {
     "TimeMs": 79600,
     "Key": 84,
     "DurationMs": 180,
     "Vel": 80
    },
    {
     "TimeMs": 79800,
     "Key": 82,
     "DurationMs": 180,
     "Vel": 80
    },
    {
     "TimeMs": 80000,
     "Key": 82,
     "DurationMs": 360,
     "Vel": 80
    },
    {
     "TimeMs": 80001,
     "Key": 77,
     "DurationMs": 360,
     "Vel": 80
    },
    {
     "TimeMs": 80003,
     "Key": 75,
     "DurationMs": 360,
     "Vel": 80
    },
    {
     "TimeMs": 80005,
     "Key": 42,
     "DurationMs": 360,
     "Vel": 80
    },
    {
     "TimeMs": 80400,
     "Key": 77,
     "DurationMs": 360,
     "Vel": 80
    },
    {
     "TimeMs": 80401,
     "Key": 49,
     "DurationMs": 360,
     "Vel": 80
    },
    {
     "TimeMs": 80800,
     "Key": 75,
     "DurationMs": 360,
     "Vel": 80
    },
    {
     "TimeMs": 80801,
     "Key": 54,
     "DurationMs": 360,
     "Vel": 80
    },
    {
     "TimeMs": 81200,
     "Key": 77,
     "DurationMs": 360,
     "Vel": 80
    },
    {
     "TimeMs": 81201,
     "Key": 56,
     "DurationMs": 360,
     "Vel": 80
    },
    {
     "TimeMs": 81600,
     "Key": 80,
     "DurationMs": 360,
     "Vel": 80
    },
    {
     "TimeMs": 81601,
     "Key": 75,
     "DurationMs": 360,
     "Vel": 80
    },
    {
     "TimeMs": 81603,
     "Key": 44,
     "DurationMs": 360,
     "Vel": 80
    },
    {
     "TimeMs": 82000,
     "Key": 77,
     "DurationMs": 360,
     "Vel": 80
    },
    {
     "TimeMs": 82001,
     "Key": 51,
     "DurationMs": 360,
     "Vel": 80
    },
    {
     "TimeMs": 82400,
     "Key": 75,
     "DurationMs": 360,
     "Vel": 80
    },
    {
     "TimeMs": 82401,
     "Key": 56,
     "DurationMs": 360,
     "Vel": 80
    },
    {
     "TimeMs": 82800,
     "Key": 77,
     "DurationMs": 360,
     "Vel": 80
    },
    {
     "TimeMs": 82801,
     "Key": 58,
     "DurationMs": 360,
     "Vel": 80
    },
    {
     "TimeMs": 83200,
     "Key": 80,
     "DurationMs": 360,
     "Vel": 80
    },
    {
     "TimeMs": 83201,
     "Key": 77,
     "DurationMs": 360,
     "Vel": 80
    },
    {
     "TimeMs": 83203,
     "Key": 75,
     "DurationMs": 360,
     "Vel": 80
    },
    {
     "TimeMs": 83205,
     "Key": 46,
     "DurationMs": 360,
     "Vel": 80
    },
    {
     "TimeMs": 83600,
     "Key": 75,
     "DurationMs": 360,
     "Vel": 80
    },
    {
     "TimeMs": 83601,
     "Key": 53,
     "DurationMs": 360,
     "Vel": 80
    },
    {
     "TimeMs": 84000,
     "Key": 77,
     "DurationMs": 360,
     "Vel": 80
    },
    {
     "TimeMs": 84001,
     "Key": 58,
     "DurationMs": 360,
     "Vel": 80
    },
    {
     "TimeMs": 84400,
     "Key": 80,
     "DurationMs": 360,
     "Vel": 80
    },
    {
     "TimeMs": 84401,
     "Key": 75,
     "DurationMs": 360,
     "Vel": 80
    },
    {
     "TimeMs": 84403,
     "Key": 60,
     "DurationMs": 360,
     "Vel": 80
    },
    {
     "TimeMs": 84800,
     "Key": 82,
     "DurationMs": 1440,
     "Vel": 80
    },
    {
     "TimeMs": 84801,
     "Key": 77,
     "DurationMs": 1440,
     "Vel": 80
    },
    {
     "TimeMs": 84803,
     "Key": 61,
     "DurationMs": 356,
     "Vel": 80
    },
    {
     "TimeMs": 85200,
     "Key": 60,
     "DurationMs": 360,
     "Vel": 80
    },
    {
     "TimeMs": 85600,
     "Key": 58,
     "DurationMs": 360,
     "Vel": 80
    },
    {
     "TimeMs": 86000,
     "Key": 53,
     "DurationMs": 360,
     "Vel": 80
    },
    {
     "TimeMs": 86400,
     "Key": 87,
     "DurationMs": 360,
     "Vel": 80
    },
    {
     "TimeMs": 86401,
     "Key": 84,
     "DurationMs": 360,
     "Vel": 80
    },
    {
     "TimeMs": 86403,
     "Key": 82,
     "DurationMs": 360,
     "Vel": 80
    },
    {
     "TimeMs": 86405,
     "Key": 42,
     "DurationMs": 360,
     "Vel": 80
    },
    {
     "TimeMs": 86800,
     "Key": 84,
     "DurationMs": 360,
     "Vel": 80
    },
    {
     "TimeMs": 86801,
     "Key": 80,
     "DurationMs": 360,
     "Vel": 80
    },
    {
     "TimeMs": 86803,
     "Key": 49,
     "DurationMs": 360,
     "Vel": 80
    },
    {
     "TimeMs": 87200,
     "Key": 82,
     "DurationMs": 360,
     "Vel": 80
    },
    {
     "TimeMs": 87201,
     "Key": 78,
     "DurationMs": 360,
     "Vel": 80
    },
    {
     "TimeMs": 87203,
     "Key": 54,
     "DurationMs": 360,
     "Vel": 80
    },
    {
     "TimeMs": 87600,
     "Key": 80,
     "DurationMs": 360,
     "Vel": 80
    },
    {
     "TimeMs": 87601,
     "Key": 75,
     "DurationMs": 360,
     "Vel": 80
    },
    {
     "TimeMs": 87603,
     "Key": 56,
     "DurationMs": 360,
     "Vel": 80
    },
    {
     "TimeMs": 88000,
     "Key": 82,
     "DurationMs": 360,
     "Vel": 80
    },
    {
     "TimeMs": 88001,
     "Key": 77,
     "DurationMs": 360,
     "Vel": 80
    },
    {
     "TimeMs": 88003,
     "Key": 44,
     "DurationMs": 360,
     "Vel": 80
    },
    {
     "TimeMs": 88400,
     "Key": 80,
     "DurationMs": 180,
     "Vel": 80
    },
    {
     "TimeMs": 88401,
     "Key": 51,
     "DurationMs": 358,
     "Vel": 80
    },
    {
     "TimeMs": 88600,
     "Key": 77,
     "DurationMs": 180,
     "Vel": 80
    },
    {
     "TimeMs": 88800,
     "Key": 75,
     "DurationMs": 180,
     "Vel": 80
    },
    {
     "TimeMs": 88801,
     "Key": 56,
     "DurationMs": 358,
     "Vel": 80
    },
    {
     "TimeMs": 89000,
     "Key": 77,
     "DurationMs": 180,
     "Vel": 80
    },
    {
     "TimeMs": 89200,
     "Key": 80,
     "DurationMs": 180,
     "Vel": 80
    },
    {
     "TimeMs": 89201,
     "Key": 58,
     "DurationMs": 358,
     "Vel": 80
    },
    {
     "TimeMs": 89400,
     "Key": 75,
     "DurationMs": 180,
     "Vel": 80
    },
    {
     "TimeMs": 89600,
     "Key": 77,
     "DurationMs": 360,
     "Vel": 80
    },
    {
     "TimeMs": 89601,
     "Key": 75,
     "DurationMs": 360,
     "Vel": 80
    },
    {
     "TimeMs": 89603,
     "Key": 46,
     "DurationMs": 360,
     "Vel": 80
    },
    {
     "TimeMs": 90000,
     "Key": 82,
     "DurationMs": 360,
     "Vel": 80
    },
    {
     "TimeMs": 90001,
     "Key": 77,
     "DurationMs": 360,
     "Vel": 80
    },
    {
     "TimeMs": 90003,
     "Key": 53,
     "DurationMs": 360,
     "Vel": 80
    },
    {
     "TimeMs": 90400,
     "Key": 80,
     "DurationMs": 360,
     "Vel": 80
    },
    {
     "TimeMs": 90401,
     "Key": 75,
     "DurationMs": 360,
     "Vel": 80
    },
    {
     "TimeMs": 90403,
     "Key": 58,
     "DurationMs": 360,
     "Vel": 80
    },
    {
     "TimeMs": 90800,
     "Key": 75,
     "DurationMs": 360,
     "Vel": 80
    },
    {
     "TimeMs": 90801,
     "Key": 72,
     "DurationMs": 360,
     "Vel": 80
    },
    {
     "TimeMs": 90803,
     "Key": 60,
     "DurationMs": 360,
     "Vel": 80
    },
    {
     "TimeMs": 91200,
     "Key": 77,
     "DurationMs": 360,
     "Vel": 80
    },
    {
     "TimeMs": 91201,
     "Key": 73,
     "DurationMs": 360,
     "Vel": 80
    },
    {
     "TimeMs": 91203,
     "Key": 61,
     "DurationMs": 360,
     "Vel": 80
    },
    {
     "TimeMs": 91600,
     "Key": 82,
     "DurationMs": 180,
     "Vel": 80
    },
    {
     "TimeMs": 91601,
     "Key": 60,
     "DurationMs": 358,
     "Vel": 80
    },
    {
     "TimeMs": 91800,
     "Key": 77,
     "DurationMs": 360,
     "Vel": 80
    },
    {
     "TimeMs": 92000,
     "Key": 58,
     "DurationMs": 360,
     "Vel": 80
    },
    {
     "TimeMs": 92200,
     "Key": 75,
     "DurationMs": 180,
     "Vel": 80
    },
    {
     "TimeMs": 92400,
     "Key": 77,
     "DurationMs": 360,
     "Vel": 80
    },
    {
     "TimeMs": 92401,
     "Key": 53,
     "DurationMs": 360,
     "Vel": 80
    },
    {
     "TimeMs": 92800,
     "Key": 77,
     "DurationMs": 360,
     "Vel": 80
    },
    {
     "TimeMs": 92801,
     "Key": 75,
     "DurationMs": 360,
     "Vel": 80
    },
    {
     "TimeMs": 92803,
     "Key": 42,
     "DurationMs": 360,
     "Vel": 80
    },
    {
     "TimeMs": 93200,
     "Key": 75,
     "DurationMs": 180,
     "Vel": 80
    },
    {
     "TimeMs": 93201,
     "Key": 49,
     "DurationMs": 358,
     "Vel": 80
    },
    {
     "TimeMs": 93400,
     "Key": 77,
     "DurationMs": 360,
     "Vel": 80
    },
    {
     "TimeMs": 93600,
     "Key": 54,
     "DurationMs": 360,
     "Vel": 80
    },
    {
     "TimeMs": 93800,
     "Key": 82,
     "DurationMs": 180,
     "Vel": 80
    },
    {
     "TimeMs": 94000,
     "Key": 77,
     "DurationMs": 360,
     "Vel": 80
    },
    {
     "TimeMs": 94001,
     "Key": 56,
     "DurationMs": 360,
     "Vel": 80
    },
    {
     "TimeMs": 94400,
     "Key": 80,
     "DurationMs": 360,
     "Vel": 80
    },
    {
     "TimeMs": 94401,
     "Key": 75,
     "DurationMs": 360,
     "Vel": 80
    },
    {
     "TimeMs": 94403,
     "Key": 44,
     "DurationMs": 360,
     "Vel": 80
    },
    {
     "TimeMs": 94800,
     "Key": 77,
     "DurationMs": 360,
     "Vel": 80
    },
    {
     "TimeMs": 94801,
     "Key": 51,
     "DurationMs": 360,
     "Vel": 80
    },
    {
     "TimeMs": 95200,
     "Key": 75,
     "DurationMs": 360,
     "Vel": 80
    },
    {
     "TimeMs": 95201,
     "Key": 56,
     "DurationMs": 360,
     "Vel": 80
    },
    {
     "TimeMs": 95600,
     "Key": 77,
     "DurationMs": 360,
     "Vel": 80
    },
    {
     "TimeMs": 95601,
     "Key": 58,
     "DurationMs": 360,
     "Vel": 80
    },
    {
     "TimeMs": 96000,
     "Key": 77,
     "DurationMs": 360,
     "Vel": 80
    },
    {
     "TimeMs": 96001,
     "Key": 75,
     "DurationMs": 360,
     "Vel": 80
    },
    {
     "TimeMs": 96003,
     "Key": 46,
     "DurationMs": 360,
     "Vel": 80
    },
    {
     "TimeMs": 96400,
     "Key": 75,
     "DurationMs": 180,
     "Vel": 80
    },
    {
     "TimeMs": 96401,
     "Key": 53,
     "DurationMs": 358,
     "Vel": 80
    },
    {
     "TimeMs": 96600,
     "Key": 77,
     "DurationMs": 360,
     "Vel": 80
    },
    {
     "TimeMs": 96800,
     "Key": 58,
     "DurationMs": 360,
     "Vel": 80
    },
    {
     "TimeMs": 97000,
     "Key": 82,
     "DurationMs": 180,
     "Vel": 80
    },
    {
     "TimeMs": 97200,
     "Key": 77,
     "DurationMs": 180,
     "Vel": 80
    },
    {
     "TimeMs": 97201,
     "Key": 60,
     "DurationMs": 358,
     "Vel": 80
    },
    {
     "TimeMs": 97400,
     "Key": 75,
     "DurationMs": 180,
     "Vel": 80
    },
    {
     "TimeMs": 97600,
     "Key": 77,
     "DurationMs": 720,
     "Vel": 80
    },
    {
     "TimeMs": 97601,
     "Key": 61,
     "DurationMs": 358,
     "Vel": 80
    },
    {
     "TimeMs": 98000,
     "Key": 60,
     "DurationMs": 360,
     "Vel": 80
    },
    {
     "TimeMs": 98400,
     "Key": 75,
     "DurationMs": 360,
     "Vel": 80
    },
    {
     "TimeMs": 98401,
     "Key": 58,
     "DurationMs": 360,
     "Vel": 80
    },
    {
     "TimeMs": 98800,
     "Key": 77,
     "DurationMs": 360,
     "Vel": 80
    },
    {
     "TimeMs": 98801,
     "Key": 53,
     "DurationMs": 360,
     "Vel": 80
    },
    {
     "TimeMs": 99200,
     "Key": 77,
     "DurationMs": 180,
     "Vel": 80
    },
    {
     "TimeMs": 99201,
     "Key": 42,
     "DurationMs": 358,
     "Vel": 80
    },
    {
     "TimeMs": 99400,
     "Key": 75,
     "DurationMs": 180,
     "Vel": 80
    },
    {
     "TimeMs": 99600,
     "Key": 77,
     "DurationMs": 180,
     "Vel": 80
    },
    {
     "TimeMs": 99601,
     "Key": 49,
     "DurationMs": 358,
     "Vel": 80
    },
    {
     "TimeMs": 99800,
     "Key": 82,
     "DurationMs": 180,
     "Vel": 80
    },
    {
     "TimeMs": 100000,
     "Key": 77,
     "DurationMs": 180,
     "Vel": 80
    },
    {
     "TimeMs": 100001,
     "Key": 54,
     "DurationMs": 358,
     "Vel": 80
    },
    {
     "TimeMs": 100200,
     "Key": 75,
     "DurationMs": 180,
     "Vel": 80
    },
    {
     "TimeMs": 100400,
     "Key": 77,
     "DurationMs": 180,
     "Vel": 80
    },
    {
     "TimeMs": 100401,
     "Key": 49,
     "DurationMs": 358,
     "Vel": 80
    },
    {
     "TimeMs": 100600,
     "Key": 82,
     "DurationMs": 180,
     "Vel": 80
    },
    {
     "TimeMs": 100800,
     "Key": 84,
     "DurationMs": 180,
     "Vel": 80
    },
    {
     "TimeMs": 100801,
     "Key": 44,
     "DurationMs": 358,
     "Vel": 80
    },
    {
     "TimeMs": 101000,
     "Key": 82,
     "DurationMs": 180,
     "Vel": 80
    },
    {
     "TimeMs": 101200,
     "Key": 77,
     "DurationMs": 180,
     "Vel": 80
    },
    {
     "TimeMs": 101201,
     "Key": 51,
     "DurationMs": 358,
     "Vel": 80
    },
    {
     "TimeMs": 101400,
     "Key": 82,
     "DurationMs": 180,
     "Vel": 80
    },
    {
     "TimeMs": 101600,
     "Key": 84,
     "DurationMs": 180,
     "Vel": 80
    },
    {
     "TimeMs": 101601,
     "Key": 56,
     "DurationMs": 358,
     "Vel": 80
    },
    {
     "TimeMs": 101800,
     "Key": 82,
     "DurationMs": 180,
     "Vel": 80
    },
    {
     "TimeMs": 102000,
     "Key": 77,
     "DurationMs": 180,
     "Vel": 80
    },
    {
     "TimeMs": 102001,
     "Key": 51,
     "DurationMs": 358,
     "Vel": 80
    },
    {
     "TimeMs": 102200,
     "Key": 82,
     "DurationMs": 180,
     "Vel": 80
    },
    {
     "TimeMs": 102400,
     "Key": 85,
     "DurationMs": 180,
     "Vel": 80
    },
    {
     "TimeMs": 102401,
     "Key": 46,
     "DurationMs": 358,
     "Vel": 80
    },
    {
     "TimeMs": 102600,
     "Key": 84,
     "DurationMs": 180,
     "Vel": 80
    },
    {
     "TimeMs": 102800,
     "Key": 77,
     "DurationMs": 180,
     "Vel": 80
    },
    {
     "TimeMs": 102801,
     "Key": 53,
     "DurationMs": 358,
     "Vel": 80
    },
    {
     "TimeMs": 103000,
     "Key": 84,
     "DurationMs": 180,
     "Vel": 80
    },
    {
     "TimeMs": 103200,
     "Key": 85,
     "DurationMs": 180,
     "Vel": 80
    },
    {
     "TimeMs": 103201,
     "Key": 58,
     "DurationMs": 358,
     "Vel": 80
    },
    {
     "TimeMs": 103400,
     "Key": 84,
     "DurationMs": 180,
     "Vel": 80
    },
    {
     "TimeMs": 103600,
     "Key": 77,
     "DurationMs": 180,
     "Vel": 80
    },
    {
     "TimeMs": 103601,
     "Key": 53,
     "DurationMs": 358,
     "Vel": 80
    },
    {
     "TimeMs": 103800,
     "Key": 84,
     "DurationMs": 180,
     "Vel": 80
    },
    {
     "TimeMs": 104000,
     "Key": 85,
     "DurationMs": 180,
     "Vel": 80
    },
    {
     "TimeMs": 104001,
     "Key": 46,
     "DurationMs": 358,
     "Vel": 80
    },
    {
     "TimeMs": 104200,
     "Key": 84,
     "DurationMs": 180,
     "Vel": 80
    },
    {
     "TimeMs": 104400,
     "Key": 77,
     "DurationMs": 180,
     "Vel": 80
    },
    {
     "TimeMs": 104401,
     "Key": 53,
     "DurationMs": 358,
     "Vel": 80
    },
    {
     "TimeMs": 104600,
     "Key": 84,
     "DurationMs": 180,
     "Vel": 80
    },
    {
     "TimeMs": 104800,
     "Key": 85,
     "DurationMs": 180,
     "Vel": 80
    },
    {
     "TimeMs": 104801,
     "Key": 58,
     "DurationMs": 358,
     "Vel": 80
    },
    {
     "TimeMs": 105000,
     "Key": 84,
     "DurationMs": 180,
     "Vel": 80
    },
    {
     "TimeMs": 105200,
     "Key": 77,
     "DurationMs": 180,
     "Vel": 80
    },
    {
     "TimeMs": 105201,
     "Key": 53,
     "DurationMs": 358,
     "Vel": 80
    },
    {
     "TimeMs": 105400,
     "Key": 84,
     "DurationMs": 180,
     "Vel": 80
    },
    {
     "TimeMs": 105600,
     "Key": 97,
     "DurationMs": 180,
     "Vel": 80
    },
    {
     "TimeMs": 105601,
     "Key": 85,
     "DurationMs": 180,
     "Vel": 80
    },
    {
     "TimeMs": 105603,
     "Key": 46,
     "DurationMs": 356,
     "Vel": 80
    },
    {
     "TimeMs": 105800,
     "Key": 96,
     "DurationMs": 180,
     "Vel": 80
    },
    {
     "TimeMs": 105801,
     "Key": 84,
     "DurationMs": 180,
     "Vel": 80
    },
    {
     "TimeMs": 106000,
     "Key": 89,
     "DurationMs": 180,
     "Vel": 80
    },
    {
     "TimeMs": 106001,
     "Key": 77,
     "DurationMs": 180,
     "Vel": 80
    },
    {
     "TimeMs": 106003,
     "Key": 53,
     "DurationMs": 356,
     "Vel": 80
    },
    {
     "TimeMs": 106200,
     "Key": 96,
     "DurationMs": 180,
     "Vel": 80
    },
    {
     "TimeMs": 106201,
     "Key": 84,
     "DurationMs": 180,
     "Vel": 80
    },
    {
     "TimeMs": 106400,
     "Key": 97,
     "DurationMs": 180,
     "Vel": 80
    },
    {
     "TimeMs": 106401,
     "Key": 85,
     "DurationMs": 180,
     "Vel": 80
    },
    {
     "TimeMs": 106403,
     "Key": 58,
     "DurationMs": 356,
     "Vel": 80
    },
    {
     "TimeMs": 106600,
     "Key": 96,
     "DurationMs": 180,
     "Vel": 80
    },
    {
     "TimeMs": 106601,
     "Key": 84,
     "DurationMs": 180,
     "Vel": 80
    },
    {
     "TimeMs": 106800,
     "Key": 89,
     "DurationMs": 180,
     "Vel": 80
    },
    {
     "TimeMs": 106801,
     "Key": 77,
     "DurationMs": 180,
     "Vel": 80
    },
    {
     "TimeMs": 106803,
     "Key": 53,
     "DurationMs": 356,
     "Vel": 80
    },
    {
     "TimeMs": 107000,
     "Key": 96,
     "DurationMs": 180,
     "Vel": 80
    },
    {
     "TimeMs": 107001,
     "Key": 84,
     "DurationMs": 180,
     "Vel": 80
    },
    {
     "TimeMs": 107200,
     "Key": 97,
     "DurationMs": 180,
     "Vel": 80
    },
    {
     "TimeMs": 107201,
     "Key": 85,
     "DurationMs": 180,
     "Vel": 80
    },
    {
     "TimeMs": 107203,
     "Key": 58,
     "DurationMs": 356,
     "Vel": 80
    },
    {
     "TimeMs": 107400,
     "Key": 96,
     "DurationMs": 180,
     "Vel": 80
    },
    {
     "TimeMs": 107401,
     "Key": 84,
     "DurationMs": 180,
     "Vel": 80
    },
    {
     "TimeMs": 107600,
     "Key": 89,
     "DurationMs": 180,
     "Vel": 80
    },
    {
     "TimeMs": 107601,
     "Key": 77,
     "DurationMs": 180,
     "Vel": 80
    },
    {
     "TimeMs": 107603,
     "Key": 53,
     "DurationMs": 356,
     "Vel": 80
    },
    {
     "TimeMs": 107800,
     "Key": 96,
     "DurationMs": 180,
     "Vel": 80
    },
    {
     "TimeMs": 107801,
     "Key": 84,
     "DurationMs": 180,
     "Vel": 80
    },
    {
     "TimeMs": 108000,
     "Key": 97,
     "DurationMs": 180,
     "Vel": 80
    },
    {
     "TimeMs": 108001,
     "Key": 85,
     "DurationMs": 180,
     "Vel": 80
    },
    {
     "TimeMs": 108003,
     "Key": 58,
     "DurationMs": 356,
     "Vel": 80
    },
    {
     "TimeMs": 108200,
     "Key": 96,
     "DurationMs": 180,
     "Vel": 80
    },
    {
     "TimeMs": 108201,
     "Key": 84,
     "DurationMs": 180,
     "Vel": 80
    },
    {
     "TimeMs": 108400,
     "Key": 89,
     "DurationMs": 180,
     "Vel": 80
    },
    {
     "TimeMs": 108401,
     "Key": 77,
     "DurationMs": 180,
     "Vel": 80
    },
    {
     "TimeMs": 108403,
     "Key": 53,
     "DurationMs": 356,
     "Vel": 80
    },
    {
     "TimeMs": 108600,
     "Key": 96,
     "DurationMs": 180,
     "Vel": 80
    },
    {
     "TimeMs": 108601,
     "Key": 84,
     "DurationMs": 180,
     "Vel": 80
    },
    {
     "TimeMs": 108800,
     "Key": 54,
     "DurationMs": 360,
     "Vel": 80
    },
    {
     "TimeMs": 109200,
     "Key": 75,
     "DurationMs": 180,
     "Vel": 80
    },
    {
     "TimeMs": 109201,
     "Key": 66,
     "DurationMs": 180,
     "Vel": 80
    },
    {
     "TimeMs": 109203,
     "Key": 61,
     "DurationMs": 356,
     "Vel": 80
    },
    {
     "TimeMs": 109400,
     "Key": 73,
     "DurationMs": 180,
     "Vel": 80
    },
    {
     "TimeMs": 109600,
     "Key": 75,
     "DurationMs": 720,
     "Vel": 80
    },
    {
     "TimeMs": 109601,
     "Key": 66,
     "DurationMs": 358,
     "Vel": 80
    },
    {
     "TimeMs": 110000,
     "Key": 61,
     "DurationMs": 360,
     "Vel": 80
    },
    {
     "TimeMs": 110400,
     "Key": 80,
     "DurationMs": 360,
     "Vel": 80
    },
    {
     "TimeMs": 110401,
     "Key": 73,
     "DurationMs": 360,
     "Vel": 80
    },
    {
     "TimeMs": 110403,
     "Key": 54,
     "DurationMs": 360,
     "Vel": 80
    },
    {
     "TimeMs": 110800,
     "Key": 77,
     "DurationMs": 360,
     "Vel": 80
    },
    {
     "TimeMs": 110801,
     "Key": 61,
     "DurationMs": 360,
     "Vel": 80
    },
    {
     "TimeMs": 111200,
     "Key": 75,
     "DurationMs": 720,
     "Vel": 80
    },
    {
     "TimeMs": 111201,
     "Key": 66,
     "DurationMs": 358,
     "Vel": 80
    },
    {
     "TimeMs": 111600,
     "Key": 61,
     "DurationMs": 360,
     "Vel": 80
    },
    {
     "TimeMs": 112000,
     "Key": 56,
     "DurationMs": 360,
     "Vel": 80
    },
    {
     "TimeMs": 112400,
     "Key": 75,
     "DurationMs": 180,
     "Vel": 80
    },
    {
     "TimeMs": 112401,
     "Key": 66,
     "DurationMs": 180,
     "Vel": 80
    },
    {
     "TimeMs": 112403,
     "Key": 63,
     "DurationMs": 356,
     "Vel": 80
    },
    {
     "TimeMs": 112600,
     "Key": 73,
     "DurationMs": 180,
     "Vel": 80
    },
    {
     "TimeMs": 112800,
     "Key": 75,
     "DurationMs": 720,
     "Vel": 80
    },
    {
     "TimeMs": 112801,
     "Key": 68,
     "DurationMs": 358,
     "Vel": 80
    },
    {
     "TimeMs": 113200,
     "Key": 63,
     "DurationMs": 360,
     "Vel": 80
    },
    {
     "TimeMs": 113600,
     "Key": 80,
     "DurationMs": 360,
     "Vel": 80
    },
    {
     "TimeMs": 113601,
     "Key": 73,
     "DurationMs": 360,
     "Vel": 80
    },
    {
     "TimeMs": 113603,
     "Key": 56,
     "DurationMs": 360,
     "Vel": 80
    },
    {
     "TimeMs": 114000,
     "Key": 77,
     "DurationMs": 360,
     "Vel": 80
    },
    {
     "TimeMs": 114001,
     "Key": 63,
     "DurationMs": 360,
     "Vel": 80
    },
    {
     "TimeMs": 114400,
     "Key": 75,
     "DurationMs": 720,
     "Vel": 80
    },
    {
     "TimeMs": 114401,
     "Key": 68,
     "DurationMs": 358,
     "Vel": 80
    },
    {
     "TimeMs": 114800,
     "Key": 63,
     "DurationMs": 360,
     "Vel": 80
    },
    {
     "TimeMs": 115200,
     "Key": 58,
     "DurationMs": 360,
     "Vel": 80
    },
    {
     "TimeMs": 115400,
     "Key": 75,
     "DurationMs": 180,
     "Vel": 80
    },
    {
     "TimeMs": 115401,
     "Key": 70,
     "DurationMs": 180,
     "Vel": 80
    },
    {
     "TimeMs": 115403,
     "Key": 66,
     "DurationMs": 180,
     "Vel": 80
    },
    {
     "TimeMs": 115600,
     "Key": 73,
     "DurationMs": 180,
     "Vel": 80
    },
    {
     "TimeMs": 115601,
     "Key": 65,
     "DurationMs": 358,
     "Vel": 80
    },
    {
     "TimeMs": 115800,
     "Key": 75,
     "DurationMs": 980,
     "Vel": 80
    },
    {
     "TimeMs": 116000,
     "Key": 70,
     "DurationMs": 360,
     "Vel": 80
    },
    {
     "TimeMs": 116400,
     "Key": 65,
     "DurationMs": 360,
     "Vel": 80
    },
    {
     "TimeMs": 116800,
     "Key": 80,
     "DurationMs": 360,
     "Vel": 80
    },
    {
     "TimeMs": 116801,
     "Key": 73,
     "DurationMs": 360,
     "Vel": 80
    },
    {
     "TimeMs": 116803,
     "Key": 58,
     "DurationMs": 360,
     "Vel": 80
    },
    {
     "TimeMs": 117200,
     "Key": 77,
     "DurationMs": 360,
     "Vel": 80
    },
    {
     "TimeMs": 117201,
     "Key": 65,
     "DurationMs": 360,
     "Vel": 80
    },
    {
     "TimeMs": 117600,
     "Key": 75,
     "DurationMs": 720,
     "Vel": 80
    },
    {
     "TimeMs": 117601,
     "Key": 70,
     "DurationMs": 358,
     "Vel": 80
    },
    {
     "TimeMs": 118000,
     "Key": 65,
     "DurationMs": 360,
     "Vel": 80
    },
    {
     "TimeMs": 118400,
     "Key": 58,
     "DurationMs": 360,
     "Vel": 80
    },
    {
     "TimeMs": 118600,
     "Key": 75,
     "DurationMs": 180,
     "Vel": 80
    },
    {
     "TimeMs": 118800,
     "Key": 77,
     "DurationMs": 180,
     "Vel": 80
    },
    {
     "TimeMs": 118801,
     "Key": 65,
     "DurationMs": 358,
     "Vel": 80
    },
    {
     "TimeMs": 119000,
     "Key": 75,
     "DurationMs": 180,
     "Vel": 80
    },
    {
     "TimeMs": 119200,
     "Key": 72,
     "DurationMs": 180,
     "Vel": 80
    },
    {
     "TimeMs": 119201,
     "Key": 70,
     "DurationMs": 358,
     "Vel": 80
    },
    {
     "TimeMs": 119400,
     "Key": 70,
     "DurationMs": 160,
     "Vel": 80
    },
    {
     "TimeMs": 119600,
     "Key": 72,
     "DurationMs": 180,
     "Vel": 80
    },
    {
     "TimeMs": 119601,
     "Key": 65,
     "DurationMs": 358,
     "Vel": 80
    },
    {
     "TimeMs": 119800,
     "Key": 70,
     "DurationMs": 180,
     "Vel": 80
    },
    {
     "TimeMs": 120000,
     "Key": 58,
     "DurationMs": 720,
     "Vel": 80
    },
    {
     "TimeMs": 120200,
     "Key": 65,
     "DurationMs": 180,
     "Vel": 80
    },
    {
     "TimeMs": 120400,
     "Key": 68,
     "DurationMs": 180,
     "Vel": 80
    },
    {
     "TimeMs": 120600,
     "Key": 65,
     "DurationMs": 180,
     "Vel": 80
    },
    {
     "TimeMs": 120800,
     "Key": 63,
     "DurationMs": 360,
     "Vel": 80
    },
    {
     "TimeMs": 120801,
     "Key": 58,
     "DurationMs": 718,
     "Vel": 80
    },
    {
     "TimeMs": 121200,
     "Key": 65,
     "DurationMs": 360,
     "Vel": 80
    },
    {
     "TimeMs": 121600,
     "Key": 54,
     "DurationMs": 360,
     "Vel": 80
    },
    {
     "TimeMs": 122000,
     "Key": 61,
     "DurationMs": 360,
     "Vel": 80
    },
    {
     "TimeMs": 122400,
     "Key": 75,
     "DurationMs": 360,
     "Vel": 80
    },
    {
     "TimeMs": 122401,
     "Key": 70,
     "DurationMs": 360,
     "Vel": 80
    },
    {
     "TimeMs": 122403,
     "Key": 66,
     "DurationMs": 360,
     "Vel": 80
    },
    {
     "TimeMs": 122800,
     "Key": 73,
     "DurationMs": 360,
     "Vel": 80
    },
    {
     "TimeMs": 122801,
     "Key": 61,
     "DurationMs": 360,
     "Vel": 80
    },
    {
     "TimeMs": 123200,
     "Key": 75,
     "DurationMs": 360,
     "Vel": 80
    },
    {
     "TimeMs": 123201,
     "Key": 54,
     "DurationMs": 360,
     "Vel": 80
    },
    {
     "TimeMs": 123600,
     "Key": 80,
     "DurationMs": 360,
     "Vel": 80
    },
    {
     "TimeMs": 123601,
     "Key": 77,
     "DurationMs": 360,
     "Vel": 80
    },
    {
     "TimeMs": 123603,
     "Key": 61,
     "DurationMs": 360,
     "Vel": 80
    },
    {
     "TimeMs": 124000,
     "Key": 77,
     "DurationMs": 360,
     "Vel": 80
    },
    {
     "TimeMs": 124001,
     "Key": 66,
     "DurationMs": 360,
     "Vel": 80
    },
    {
     "TimeMs": 124400,
     "Key": 75,
     "DurationMs": 360,
     "Vel": 80
    },
    {
     "TimeMs": 124401,
     "Key": 61,
     "DurationMs": 360,
     "Vel": 80
    },
    {
     "TimeMs": 124800,
     "Key": 56,
     "DurationMs": 360,
     "Vel": 80
    },
    {
     "TimeMs": 125200,
     "Key": 63,
     "DurationMs": 360,
     "Vel": 80
    },
    {
     "TimeMs": 125600,
     "Key": 75,
     "DurationMs": 360,
     "Vel": 80
    },
    {
     "TimeMs": 125601,
     "Key": 70,
     "DurationMs": 360,
     "Vel": 80
    },
    {
     "TimeMs": 125603,
     "Key": 66,
     "DurationMs": 360,
     "Vel": 80
    },
    {
     "TimeMs": 125605,
     "Key": 68,
     "DurationMs": 360,
     "Vel": 80
    },
    {
     "TimeMs": 126000,
     "Key": 73,
     "DurationMs": 360,
     "Vel": 80
    },
    {
     "TimeMs": 126001,
     "Key": 63,
     "DurationMs": 360,
     "Vel": 80
    },
    {
     "TimeMs": 126400,
     "Key": 75,
     "DurationMs": 360,
     "Vel": 80
    },
    {
     "TimeMs": 126401,
     "Key": 56,
     "DurationMs": 360,
     "Vel": 80
    },
    {
     "TimeMs": 126800,
     "Key": 80,
     "DurationMs": 360,
     "Vel": 80
    },
    {
     "TimeMs": 126801,
     "Key": 77,
     "DurationMs": 360,
     "Vel": 80
    },
    {
     "TimeMs": 126803,
     "Key": 63,
     "DurationMs": 360,
     "Vel": 80
    },
    {
     "TimeMs": 127200,
     "Key": 77,
     "DurationMs": 360,
     "Vel": 80
    },
    {
     "TimeMs": 127201,
     "Key": 68,
     "DurationMs": 360,
     "Vel": 80
    },
    {
     "TimeMs": 127600,
     "Key": 75,
     "DurationMs": 360,
     "Vel": 80
    },
    {
     "TimeMs": 127601,
     "Key": 63,
     "DurationMs": 360,
     "Vel": 80
    },
    {
     "TimeMs": 128000,
     "Key": 58,
     "DurationMs": 360,
     "Vel": 80
    },
    {
     "TimeMs": 128400,
     "Key": 77,
     "DurationMs": 360,
     "Vel": 80
    },
    {
     "TimeMs": 128401,
     "Key": 65,
     "DurationMs": 360,
     "Vel": 80
    },
    {
     "TimeMs": 128800,
     "Key": 73,
     "DurationMs": 360,
     "Vel": 80
    },
    {
     "TimeMs": 128801,
     "Key": 70,
     "DurationMs": 360,
     "Vel": 80
    },
    {
     "TimeMs": 129200,
     "Key": 72,
     "DurationMs": 360,
     "Vel": 80
    },
    {
     "TimeMs": 129201,
     "Key": 65,
     "DurationMs": 360,
     "Vel": 80
    },
    {
     "TimeMs": 129600,
     "Key": 73,
     "DurationMs": 360,
     "Vel": 80
    },
    {
     "TimeMs": 129601,
     "Key": 58,
     "DurationMs": 360,
     "Vel": 80
    },
    {
     "TimeMs": 130000,
     "Key": 72,
     "DurationMs": 180,
     "Vel": 80
    },
    {
     "TimeMs": 130001,
     "Key": 65,
     "DurationMs": 358,
     "Vel": 80
    },
    {
     "TimeMs": 130200,
     "Key": 70,
     "DurationMs": 360,
     "Vel": 80
    },
    {
     "TimeMs": 130400,
     "Key": 70,
     "DurationMs": 160,
     "Vel": 80
    },
    {
     "TimeMs": 130800,
     "Key": 65,
     "DurationMs": 180,
     "Vel": 80
    },
    {
     "TimeMs": 130801,
     "Key": 65,
     "DurationMs": 178,
     "Vel": 80
    },
    {
     "TimeMs": 131000,
     "Key": 68,
     "DurationMs": 180,
     "Vel": 80
    },
    {
     "TimeMs": 131200,
     "Key": 65,
     "DurationMs": 360,
     "Vel": 80
    },
    {
     "TimeMs": 131201,
     "Key": 58,
     "DurationMs": 718,
     "Vel": 80
    },
    {
     "TimeMs": 131600,
     "Key": 63,
     "DurationMs": 360,
     "Vel": 80
    },
    {
     "TimeMs": 132000,
     "Key": 65,
     "DurationMs": 360,
     "Vel": 80
    },
    {
     "TimeMs": 132001,
     "Key": 58,
     "DurationMs": 718,
     "Vel": 80
    },
    {
     "TimeMs": 132400,
     "Key": 63,
     "DurationMs": 360,
     "Vel": 80
    },
    {
     "TimeMs": 132401,
     "Key": 68,
     "DurationMs": 360,
     "Vel": 80
    },
    {
     "TimeMs": 132800,
     "Key": 65,
     "DurationMs": 360,
     "Vel": 80
    },
    {
     "TimeMs": 132801,
     "Key": 58,
     "DurationMs": 718,
     "Vel": 80
    },
    {
     "TimeMs": 133200,
     "Key": 65,
     "DurationMs": 180,
     "Vel": 80
    },
    {
     "TimeMs": 133201,
     "Key": 70,
     "DurationMs": 180,
     "Vel": 80
    },
    {
     "TimeMs": 133400,
     "Key": 65,
     "DurationMs": 380,
     "Vel": 80
    },
    {
     "TimeMs": 133600,
     "Key": 58,
     "DurationMs": 720,
     "Vel": 80
    },
    {
     "TimeMs": 133800,
     "Key": 70,
     "DurationMs": 180,
     "Vel": 80
    },
    {
     "TimeMs": 134000,
     "Key": 63,
     "DurationMs": 180,
     "Vel": 80
    },
    {
     "TimeMs": 134200,
     "Key": 65,
     "DurationMs": 180,
     "Vel": 80
    },
    {
     "TimeMs": 134400,
     "Key": 54,
     "DurationMs": 360,
     "Vel": 80
    },
    {
     "TimeMs": 134800,
     "Key": 75,
     "DurationMs": 180,
     "Vel": 80
    },
    {
     "TimeMs": 134801,
     "Key": 70,
     "DurationMs": 180,
     "Vel": 80
    },
    {
     "TimeMs": 134803,
     "Key": 66,
     "DurationMs": 180,
     "Vel": 80
    },
    {
     "TimeMs": 134805,
     "Key": 61,
     "DurationMs": 355,
     "Vel": 80
    },
    {
     "TimeMs": 135000,
     "Key": 73,
     "DurationMs": 180,
     "Vel": 80
    },
    {
     "TimeMs": 135200,
     "Key": 75,
     "DurationMs": 720,
     "Vel": 80
    },
    {
     "TimeMs": 135201,
     "Key": 66,
     "DurationMs": 358,
     "Vel": 80
    },
    {
     "TimeMs": 135600,
     "Key": 61,
     "DurationMs": 360,
     "Vel": 80
    },
    {
     "TimeMs": 136000,
     "Key": 80,
     "DurationMs": 360,
     "Vel": 80
    },
    {
     "TimeMs": 136001,
     "Key": 73,
     "DurationMs": 360,
     "Vel": 80
    },
    {
     "TimeMs": 136003,
     "Key": 54,
     "DurationMs": 360,
     "Vel": 80
    },
    {
     "TimeMs": 136400,
     "Key": 77,
     "DurationMs": 360,
     "Vel": 80
    },
    {
     "TimeMs": 136401,
     "Key": 61,
     "DurationMs": 360,
     "Vel": 80
    },
    {
     "TimeMs": 136800,
     "Key": 75,
     "DurationMs": 720,
     "Vel": 80
    },
    {
     "TimeMs": 136801,
     "Key": 66,
     "DurationMs": 358,
     "Vel": 80
    },
    {
     "TimeMs": 137200,
     "Key": 61,
     "DurationMs": 360,
     "Vel": 80
    },
    {
     "TimeMs": 137600,
     "Key": 56,
     "DurationMs": 360,
     "Vel": 80
    },
    {
     "TimeMs": 138000,
     "Key": 75,
     "DurationMs": 180,
     "Vel": 80
    },
    {
     "TimeMs": 138001,
     "Key": 70,
     "DurationMs": 180,
     "Vel": 80
    },
    {
     "TimeMs": 138003,
     "Key": 66,
     "DurationMs": 180,
     "Vel": 80
    },
    {
     "TimeMs": 138005,
     "Key": 63,
     "DurationMs": 355,
     "Vel": 80
    },
    {
     "TimeMs": 138200,
     "Key": 73,
     "DurationMs": 180,
     "Vel": 80
    },
    {
     "TimeMs": 138400,
     "Key": 75,
     "DurationMs": 1080,
     "Vel": 80
    },
    {
     "TimeMs": 138401,
     "Key": 68,
     "DurationMs": 358,
     "Vel": 80
    },
    {
     "TimeMs": 138800,
     "Key": 63,
     "DurationMs": 360,
     "Vel": 80
    },
    {
     "TimeMs": 139200,
     "Key": 56,
     "DurationMs": 360,
     "Vel": 80
    },
    {
     "TimeMs": 139600,
     "Key": 80,
     "DurationMs": 180,
     "Vel": 80
    },
    {
     "TimeMs": 139601,
     "Key": 73,
     "DurationMs": 180,
     "Vel": 80
    },
    {
     "TimeMs": 139603,
     "Key": 63,
     "DurationMs": 356,
     "Vel": 80
    },
    {
     "TimeMs": 139800,
     "Key": 77,
     "DurationMs": 180,
     "Vel": 80
    },
    {
     "TimeMs": 140000,
     "Key": 75,
     "DurationMs": 720,
     "Vel": 80
    },
    {
     "TimeMs": 140001,
     "Key": 68,
     "DurationMs": 358,
     "Vel": 80
    },
    {
     "TimeMs": 140400,
     "Key": 63,
     "DurationMs": 360,
     "Vel": 80
    },
    {
     "TimeMs": 140800,
     "Key": 58,
     "DurationMs": 360,
     "Vel": 80
    },
    {
     "TimeMs": 141200,
     "Key": 75,
     "DurationMs": 180,
     "Vel": 80
    },
    {
     "TimeMs": 141201,
     "Key": 70,
     "DurationMs": 180,
     "Vel": 80
    },
    {
     "TimeMs": 141203,
     "Key": 66,
     "DurationMs": 180,
     "Vel": 80
    },
    {
     "TimeMs": 141205,
     "Key": 65,
     "DurationMs": 355,
     "Vel": 80
    },
    {
     "TimeMs": 141400,
     "Key": 73,
     "DurationMs": 180,
     "Vel": 80
    },
    {
     "TimeMs": 141600,
     "Key": 75,
     "DurationMs": 1080,
     "Vel": 80
    },
    {
     "TimeMs": 141601,
     "Key": 70,
     "DurationMs": 358,
     "Vel": 80
    },
    {
     "TimeMs": 142000,
     "Key": 65,
     "DurationMs": 360,
     "Vel": 80
    },
    {
     "TimeMs": 142400,
     "Key": 58,
     "DurationMs": 360,
     "Vel": 80
    },
    {
     "TimeMs": 142800,
     "Key": 80,
     "DurationMs": 180,
     "Vel": 80
    },
    {
     "TimeMs": 142801,
     "Key": 73,
     "DurationMs": 180,
     "Vel": 80
    },
    {
     "TimeMs": 142803,
     "Key": 65,
     "DurationMs": 356,
     "Vel": 80
    },
    {
     "TimeMs": 143000,
     "Key": 77,
     "DurationMs": 180,
     "Vel": 80
    },
    {
     "TimeMs": 143200,
     "Key": 75,
     "DurationMs": 720,
     "Vel": 80
    },
    {
     "TimeMs": 143201,
     "Key": 70,
     "DurationMs": 358,
     "Vel": 80
    },
    {
     "TimeMs": 143600,
     "Key": 65,
     "DurationMs": 360,
     "Vel": 80
    },
    {
     "TimeMs": 144000,
     "Key": 58,
     "DurationMs": 360,
     "Vel": 80
    },
    {
     "TimeMs": 144400,
     "Key": 73,
     "DurationMs": 180,
     "Vel": 80
    },
    {
     "TimeMs": 144401,
     "Key": 65,
     "DurationMs": 358,
     "Vel": 80
    },
    {
     "TimeMs": 144600,
     "Key": 72,
     "DurationMs": 180,
     "Vel": 80
    },
    {
     "TimeMs": 144800,
     "Key": 73,
     "DurationMs": 360,
     "Vel": 80
    },
    {
     "TimeMs": 144801,
     "Key": 70,
     "DurationMs": 360,
     "Vel": 80
    },
    {
     "TimeMs": 145200,
     "Key": 72,
     "DurationMs": 360,
     "Vel": 80
    },
    {
     "TimeMs": 145201,
     "Key": 65,
     "DurationMs": 360,
     "Vel": 80
    },
    {
     "TimeMs": 145600,
     "Key": 73,
     "DurationMs": 360,
     "Vel": 80
    },
    {
     "TimeMs": 145601,
     "Key": 58,
     "DurationMs": 718,
     "Vel": 80
    },
    {
     "TimeMs": 146000,
     "Key": 72,
     "DurationMs": 360,
     "Vel": 80
    },
    {
     "TimeMs": 146400,
     "Key": 73,
     "DurationMs": 360,
     "Vel": 80
    },
    {
     "TimeMs": 146401,
     "Key": 56,
     "DurationMs": 718,
     "Vel": 80
    },
    {
     "TimeMs": 146800,
     "Key": 65,
     "DurationMs": 360,
     "Vel": 80
    },
    {
     "TimeMs": 146801,
     "Key": 72,
     "DurationMs": 360,
     "Vel": 80
    },
    {
     "TimeMs": 147200,
     "Key": 54,
     "DurationMs": 360,
     "Vel": 80
    },
    {
     "TimeMs": 147400,
     "Key": 75,
     "DurationMs": 180,
     "Vel": 80
    },
    {
     "TimeMs": 147401,
     "Key": 66,
     "DurationMs": 180,
     "Vel": 80
    },
    {
     "TimeMs": 147600,
     "Key": 70,
     "DurationMs": 180,
     "Vel": 80
    },
    {
     "TimeMs": 147601,
     "Key": 61,
     "DurationMs": 358,
     "Vel": 80
    },
    {
     "TimeMs": 147800,
     "Key": 73,
     "DurationMs": 580,
     "Vel": 80
    },
    {
     "TimeMs": 148000,
     "Key": 66,
     "DurationMs": 360,
     "Vel": 80
    },
    {
     "TimeMs": 148400,
     "Key": 75,
     "DurationMs": 720,
     "Vel": 80
    },
    {
     "TimeMs": 148401,
     "Key": 61,
     "DurationMs": 358,
     "Vel": 80
    },
    {
     "TimeMs": 148800,
     "Key": 54,
     "DurationMs": 360,
     "Vel": 80
    },
    {
     "TimeMs": 149200,
     "Key": 80,
     "DurationMs": 180,
     "Vel": 80
    },
    {
     "TimeMs": 149201,
     "Key": 73,
     "DurationMs": 180,
     "Vel": 80
    },
    {
     "TimeMs": 149203,
     "Key": 61,
     "DurationMs": 356,
     "Vel": 80
    },
    {
     "TimeMs": 149400,
     "Key": 77,
     "DurationMs": 180,
     "Vel": 80
    },
    {
     "TimeMs": 149600,
     "Key": 75,
     "DurationMs": 360,
     "Vel": 80
    },
    {
     "TimeMs": 149601,
     "Key": 66,
     "DurationMs": 360,
     "Vel": 80
    },
    {
     "TimeMs": 150000,
     "Key": 73,
     "DurationMs": 360,
     "Vel": 80
    },
    {
     "TimeMs": 150001,
     "Key": 61,
     "DurationMs": 360,
     "Vel": 80
    },
    {
     "TimeMs": 150400,
     "Key": 56,
     "DurationMs": 360,
     "Vel": 80
    },
    {
     "TimeMs": 150600,
     "Key": 75,
     "DurationMs": 180,
     "Vel": 80
    },
    {
     "TimeMs": 150601,
     "Key": 66,
     "DurationMs": 180,
     "Vel": 80
    },
    {
     "TimeMs": 150800,
     "Key": 73,
     "DurationMs": 180,
     "Vel": 80
    },
    {
     "TimeMs": 150801,
     "Key": 63,
     "DurationMs": 358,
     "Vel": 80
    },
    {
     "TimeMs": 151000,
     "Key": 70,
     "DurationMs": 580,
     "Vel": 80
    },
    {
     "TimeMs": 151200,
     "Key": 68,
     "DurationMs": 360,
     "Vel": 80
    },
    {
     "TimeMs": 151600,
     "Key": 73,
     "DurationMs": 720,
     "Vel": 80
    },
    {
     "TimeMs": 151601,
     "Key": 63,
     "DurationMs": 358,
     "Vel": 80
    },
    {
     "TimeMs": 152000,
     "Key": 56,
     "DurationMs": 360,
     "Vel": 80
    },
    {
     "TimeMs": 152400,
     "Key": 80,
     "DurationMs": 180,
     "Vel": 80
    },
    {
     "TimeMs": 152401,
     "Key": 73,
     "DurationMs": 180,
     "Vel": 80
    },
    {
     "TimeMs": 152403,
     "Key": 63,
     "DurationMs": 356,
     "Vel": 80
    },
    {
     "TimeMs": 152600,
     "Key": 77,
     "DurationMs": 180,
     "Vel": 80
    },
    {
     "TimeMs": 152800,
     "Key": 75,
     "DurationMs": 360,
     "Vel": 80
    },
    {
     "TimeMs": 152801,
     "Key": 68,
     "DurationMs": 360,
     "Vel": 80
    },
    {
     "TimeMs": 153200,
     "Key": 73,
     "DurationMs": 360,
     "Vel": 80
    },
    {
     "TimeMs": 153201,
     "Key": 63,
     "DurationMs": 360,
     "Vel": 80
    },
    {
     "TimeMs": 153600,
     "Key": 58,
     "DurationMs": 360,
     "Vel": 80
    },
    {
     "TimeMs": 154000,
     "Key": 70,
     "DurationMs": 180,
     "Vel": 80
    },
    {
     "TimeMs": 154001,
     "Key": 65,
     "DurationMs": 358,
     "Vel": 80
    },
    {
     "TimeMs": 154200,
     "Key": 75,
     "DurationMs": 180,
     "Vel": 80
    },
    {
     "TimeMs": 154400,
     "Key": 73,
     "DurationMs": 720,
     "Vel": 80
    },
    {
     "TimeMs": 154401,
     "Key": 70,
     "DurationMs": 358,
     "Vel": 80
    },
    {
     "TimeMs": 154800,
     "Key": 65,
     "DurationMs": 360,
     "Vel": 80
    },
    {
     "TimeMs": 155200,
     "Key": 72,
     "DurationMs": 180,
     "Vel": 80
    },
    {
     "TimeMs": 155201,
     "Key": 65,
     "DurationMs": 180,
     "Vel": 80
    },
    {
     "TimeMs": 155203,
     "Key": 58,
     "DurationMs": 356,
     "Vel": 80
    },
    {
     "TimeMs": 155400,
     "Key": 73,
     "DurationMs": 180,
     "Vel": 80
    },
    {
     "TimeMs": 155600,
     "Key": 72,
     "DurationMs": 360,
     "Vel": 80
    },
    {
     "TimeMs": 155601,
     "Key": 65,
     "DurationMs": 360,
     "Vel": 80
    },
    {
     "TimeMs": 156000,
     "Key": 70,
     "DurationMs": 360,
     "Vel": 80
    },
    {
     "TimeMs": 156001,
     "Key": 70,
     "DurationMs": 358,
     "Vel": 80
    },
    {
     "TimeMs": 156400,
     "Key": 65,
     "DurationMs": 360,
     "Vel": 80
    },
    {
     "TimeMs": 156800,
     "Key": 70,
     "DurationMs": 180,
     "Vel": 80
    },
    {
     "TimeMs": 156801,
     "Key": 58,
     "DurationMs": 1438,
     "Vel": 80
    },
    {
     "TimeMs": 157000,
     "Key": 68,
     "DurationMs": 180,
     "Vel": 80
    },
    {
     "TimeMs": 157200,
     "Key": 65,
     "DurationMs": 360,
     "Vel": 80
    },
    {
     "TimeMs": 157600,
     "Key": 63,
     "DurationMs": 180,
     "Vel": 80
    },
    {
     "TimeMs": 157800,
     "Key": 65,
     "DurationMs": 360,
     "Vel": 80
    },
    {
     "TimeMs": 158200,
     "Key": 68,
     "DurationMs": 180,
     "Vel": 80
    },
    {
     "TimeMs": 158400,
     "Key": 70,
     "DurationMs": 720,
     "Vel": 80
    },
    {
     "TimeMs": 158401,
     "Key": 58,
     "DurationMs": 358,
     "Vel": 80
    },
    {
     "TimeMs": 158403,
     "Key": 63,
     "DurationMs": 358,
     "Vel": 80
    },
    {
     "TimeMs": 158800,
     "Key": 65,
     "DurationMs": 360,
     "Vel": 80
    },
    {
     "TimeMs": 159200,
     "Key": 70,
     "DurationMs": 720,
     "Vel": 80
    },
    {
     "TimeMs": 159201,
     "Key": 58,
     "DurationMs": 358,
     "Vel": 80
    },
    {
     "TimeMs": 159203,
     "Key": 63,
     "DurationMs": 358,
     "Vel": 80
    },
    {
     "TimeMs": 159600,
     "Key": 65,
     "DurationMs": 360,
     "Vel": 80
    },
    {
     "TimeMs": 160000,
     "Key": 89,
     "DurationMs": 180,
     "Vel": 80
    },
    {
     "TimeMs": 160001,
     "Key": 54,
     "DurationMs": 718,
     "Vel": 80
    },
    {
     "TimeMs": 160200,
     "Key": 84,
     "DurationMs": 180,
     "Vel": 80
    },
    {
     "TimeMs": 160400,
     "Key": 85,
     "DurationMs": 180,
     "Vel": 80
    },
    {
     "TimeMs": 160600,
     "Key": 77,
     "DurationMs": 180,
     "Vel": 80
    },
    {
     "TimeMs": 160800,
     "Key": 65,
     "DurationMs": 180,
     "Vel": 80
    },
    {
     "TimeMs": 161000,
     "Key": 60,
     "DurationMs": 180,
     "Vel": 80
    },
    {
     "TimeMs": 161200,
     "Key": 61,
     "DurationMs": 180,
     "Vel": 80
    },
    {
     "TimeMs": 161400,
     "Key": 60,
     "DurationMs": 180,
     "Vel": 80
    },
    {
     "TimeMs": 161600,
     "Key": 89,
     "DurationMs": 180,
     "Vel": 80
    },
    {
     "TimeMs": 161601,
     "Key": 54,
     "DurationMs": 718,
     "Vel": 80
    },
    {
     "TimeMs": 161800,
     "Key": 84,
     "DurationMs": 180,
     "Vel": 80
    },
    {
     "TimeMs": 162000,
     "Key": 85,
     "DurationMs": 180,
     "Vel": 80
    },
    {
     "TimeMs": 162200,
     "Key": 77,
     "DurationMs": 180,
     "Vel": 80
    },
    {
     "TimeMs": 162400,
     "Key": 65,
     "DurationMs": 180,
     "Vel": 80
    },
    {
     "TimeMs": 162600,
     "Key": 60,
     "DurationMs": 180,
     "Vel": 80
    },
    {
     "TimeMs": 162800,
     "Key": 61,
     "DurationMs": 180,
     "Vel": 80
    },
    {
     "TimeMs": 163000,
     "Key": 60,
     "DurationMs": 180,
     "Vel": 80
    },
    {
     "TimeMs": 163200,
     "Key": 89,
     "DurationMs": 180,
     "Vel": 80
    },
    {
     "TimeMs": 163201,
     "Key": 56,
     "DurationMs": 718,
     "Vel": 80
    },
    {
     "TimeMs": 163400,
     "Key": 84,
     "DurationMs": 180,
     "Vel": 80
    },
    {
     "TimeMs": 163600,
     "Key": 85,
     "DurationMs": 180,
     "Vel": 80
    },
    {
     "TimeMs": 163800,
     "Key": 77,
     "DurationMs": 180,
     "Vel": 80
    },
    {
     "TimeMs": 164000,
     "Key": 65,
     "DurationMs": 180,
     "Vel": 80
    },
    {
     "TimeMs": 164200,
     "Key": 60,
     "DurationMs": 180,
     "Vel": 80
    },
    {
     "TimeMs": 164400,
     "Key": 61,
     "DurationMs": 180,
     "Vel": 80
    },
    {
     "TimeMs": 164600,
     "Key": 60,
     "DurationMs": 180,
     "Vel": 80
    },
    {
     "TimeMs": 164800,
     "Key": 89,
     "DurationMs": 180,
     "Vel": 80
    },
    {
     "TimeMs": 164801,
     "Key": 56,
     "DurationMs": 718,
     "Vel": 80
    },
    {
     "TimeMs": 165000,
     "Key": 84,
     "DurationMs": 180,
     "Vel": 80
    },
    {
     "TimeMs": 165200,
     "Key": 85,
     "DurationMs": 180,
     "Vel": 80
    },
    {
     "TimeMs": 165400,
     "Key": 77,
     "DurationMs": 180,
     "Vel": 80
    },
    {
     "TimeMs": 165600,
     "Key": 65,
     "DurationMs": 180,
     "Vel": 80
    },
    {
     "TimeMs": 165800,
     "Key": 60,
     "DurationMs": 180,
     "Vel": 80
    },
    {
     "TimeMs": 166000,
     "Key": 61,
     "DurationMs": 180,
     "Vel": 80
    },
    {
     "TimeMs": 166200,
     "Key": 60,
     "DurationMs": 180,
     "Vel": 80
    },
    {
     "TimeMs": 166400,
     "Key": 89,
     "DurationMs": 180,
     "Vel": 80
    },
    {
     "TimeMs": 166401,
     "Key": 58,
     "DurationMs": 718,
     "Vel": 80
    },
    {
     "TimeMs": 166600,
     "Key": 84,
     "DurationMs": 180,
     "Vel": 80
    },
    {
     "TimeMs": 166800,
     "Key": 85,
     "DurationMs": 180,
     "Vel": 80
    },
    {
     "TimeMs": 167000,
     "Key": 77,
     "DurationMs": 180,
     "Vel": 80
    },
    {
     "TimeMs": 167200,
     "Key": 65,
     "DurationMs": 180,
     "Vel": 80
    },
    {
     "TimeMs": 167400,
     "Key": 60,
     "DurationMs": 180,
     "Vel": 80
    },
    {
     "TimeMs": 167600,
     "Key": 61,
     "DurationMs": 180,
     "Vel": 80
    },
    {
     "TimeMs": 167800,
     "Key": 60,
     "DurationMs": 180,
     "Vel": 80
    },
    {
     "TimeMs": 168000,
     "Key": 89,
     "DurationMs": 180,
     "Vel": 80
    },
    {
     "TimeMs": 168001,
     "Key": 58,
     "DurationMs": 718,
     "Vel": 80
    },
    {
     "TimeMs": 168200,
     "Key": 84,
     "DurationMs": 180,
     "Vel": 80
    },
    {
     "TimeMs": 168400,
     "Key": 85,
     "DurationMs": 180,
     "Vel": 80
    },
    {
     "TimeMs": 168600,
     "Key": 77,
     "DurationMs": 180,
     "Vel": 80
    },
    {
     "TimeMs": 168800,
     "Key": 65,
     "DurationMs": 180,
     "Vel": 80
    },
    {
     "TimeMs": 169000,
     "Key": 60,
     "DurationMs": 180,
     "Vel": 80
    },
    {
     "TimeMs": 169200,
     "Key": 61,
     "DurationMs": 180,
     "Vel": 80
    },
    {
     "TimeMs": 169400,
     "Key": 60,
     "DurationMs": 180,
     "Vel": 80
    },
    {
     "TimeMs": 169600,
     "Key": 89,
     "DurationMs": 180,
     "Vel": 80
    },
    {
     "TimeMs": 169601,
     "Key": 58,
     "DurationMs": 718,
     "Vel": 80
    },
    {
     "TimeMs": 169800,
     "Key": 84,
     "DurationMs": 180,
     "Vel": 80
    },
    {
     "TimeMs": 170000,
     "Key": 85,
     "DurationMs": 180,
     "Vel": 80
    },
    {
     "TimeMs": 170200,
     "Key": 77,
     "DurationMs": 180,
     "Vel": 80
    },
    {
     "TimeMs": 170400,
     "Key": 65,
     "DurationMs": 180,
     "Vel": 80
    },
    {
     "TimeMs": 170600,
     "Key": 60,
     "DurationMs": 180,
     "Vel": 80
    },
    {
     "TimeMs": 170800,
     "Key": 61,
     "DurationMs": 180,
     "Vel": 80
    },
    {
     "TimeMs": 171000,
     "Key": 60,
     "DurationMs": 180,
     "Vel": 80
    },
    {
     "TimeMs": 171200,
     "Key": 89,
     "DurationMs": 180,
     "Vel": 80
    },
    {
     "TimeMs": 171201,
     "Key": 58,
     "DurationMs": 718,
     "Vel": 80
    },
    {
     "TimeMs": 171400,
     "Key": 84,
     "DurationMs": 180,
     "Vel": 80
    },
    {
     "TimeMs": 171600,
     "Key": 85,
     "DurationMs": 180,
     "Vel": 80
    },
    {
     "TimeMs": 171800,
     "Key": 77,
     "DurationMs": 180,
     "Vel": 80
    },
    {
     "TimeMs": 172000,
     "Key": 65,
     "DurationMs": 180,
     "Vel": 80
    },
    {
     "TimeMs": 172200,
     "Key": 60,
     "DurationMs": 180,
     "Vel": 80
    },
    {
     "TimeMs": 172400,
     "Key": 61,
     "DurationMs": 180,
     "Vel": 80
    },
    {
     "TimeMs": 172600,
     "Key": 60,
     "DurationMs": 180,
     "Vel": 80
    },
    {
     "TimeMs": 172800,
     "Key": 89,
     "DurationMs": 180,
     "Vel": 80
    },
    {
     "TimeMs": 172801,
     "Key": 42,
     "DurationMs": 718,
     "Vel": 80
    },
    {
     "TimeMs": 173000,
     "Key": 84,
     "DurationMs": 180,
     "Vel": 80
    },
    {
     "TimeMs": 173200,
     "Key": 85,
     "DurationMs": 180,
     "Vel": 80
    },
    {
     "TimeMs": 173400,
     "Key": 77,
     "DurationMs": 180,
     "Vel": 80
    },
    {
     "TimeMs": 173600,
     "Key": 53,
     "DurationMs": 180,
     "Vel": 80
    },
    {
     "TimeMs": 173800,
     "Key": 48,
     "DurationMs": 180,
     "Vel": 80
    },
    {
     "TimeMs": 174000,
     "Key": 49,
     "DurationMs": 180,
     "Vel": 80
    },
    {
     "TimeMs": 174200,
     "Key": 48,
     "DurationMs": 180,
     "Vel": 80
    },
    {
     "TimeMs": 174400,
     "Key": 89,
     "DurationMs": 180,
     "Vel": 80
    },
    {
     "TimeMs": 174401,
     "Key": 42,
     "DurationMs": 718,
     "Vel": 80
    },
    {
     "TimeMs": 174600,
     "Key": 84,
     "DurationMs": 180,
     "Vel": 80
    },
    {
     "TimeMs": 174800,
     "Key": 85,
     "DurationMs": 180,
     "Vel": 80
    },
    {
     "TimeMs": 175000,
     "Key": 77,
     "DurationMs": 180,
     "Vel": 80
    },
    {
     "TimeMs": 175200,
     "Key": 53,
     "DurationMs": 180,
     "Vel": 80
    },
    {
     "TimeMs": 175400,
     "Key": 48,
     "DurationMs": 180,
     "Vel": 80
    },
    {
     "TimeMs": 175600,
     "Key": 49,
     "DurationMs": 180,
     "Vel": 80
    },
    {
     "TimeMs": 175800,
     "Key": 48,
     "DurationMs": 180,
     "Vel": 80
    },
    {
     "TimeMs": 176000,
     "Key": 89,
     "DurationMs": 180,
     "Vel": 80
    },
    {
     "TimeMs": 176001,
     "Key": 44,
     "DurationMs": 718,
     "Vel": 80
    },
    {
     "TimeMs": 176200,
     "Key": 84,
     "DurationMs": 180,
     "Vel": 80
    },
    {
     "TimeMs": 176400,
     "Key": 85,
     "DurationMs": 180,
     "Vel": 80
    },
    {
     "TimeMs": 176600,
     "Key": 77,
     "DurationMs": 180,
     "Vel": 80
    },
    {
     "TimeMs": 176800,
     "Key": 53,
     "DurationMs": 180,
     "Vel": 80
    },
    {
     "TimeMs": 177000,
     "Key": 48,
     "DurationMs": 180,
     "Vel": 80
    },
    {
     "TimeMs": 177200,
     "Key": 49,
     "DurationMs": 180,
     "Vel": 80
    },
    {
     "TimeMs": 177400,
     "Key": 48,
     "DurationMs": 180,
     "Vel": 80
    },
    {
     "TimeMs": 177600,
     "Key": 89,
     "DurationMs": 180,
     "Vel": 80
    },
    {
     "TimeMs": 177601,
     "Key": 44,
     "DurationMs": 718,
     "Vel": 80
    },
    {
     "TimeMs": 177800,
     "Key": 84,
     "DurationMs": 180,
     "Vel": 80
    },
    {
     "TimeMs": 178000,
     "Key": 85,
     "DurationMs": 180,
     "Vel": 80
    },
    {
     "TimeMs": 178200,
     "Key": 77,
     "DurationMs": 180,
     "Vel": 80
    },
    {
     "TimeMs": 178400,
     "Key": 53,
     "DurationMs": 180,
     "Vel": 80
    },
    {
     "TimeMs": 178600,
     "Key": 48,
     "DurationMs": 180,
     "Vel": 80
    },
    {
     "TimeMs": 178800,
     "Key": 49,
     "DurationMs": 180,
     "Vel": 80
    },
    {
     "TimeMs": 179000,
     "Key": 48,
     "DurationMs": 180,
     "Vel": 80
    },
    {
     "TimeMs": 179200,
     "Key": 89,
     "DurationMs": 180,
     "Vel": 80
    },
    {
     "TimeMs": 179201,
     "Key": 46,
     "DurationMs": 718,
     "Vel": 80
    },
    {
     "TimeMs": 179400,
     "Key": 84,
     "DurationMs": 180,
     "Vel": 80
    },
    {
     "TimeMs": 179600,
     "Key": 85,
     "DurationMs": 180,
     "Vel": 80
    },
    {
     "TimeMs": 179800,
     "Key": 77,
     "DurationMs": 180,
     "Vel": 80
    },
    {
     "TimeMs": 180000,
     "Key": 53,
     "DurationMs": 180,
     "Vel": 80
    },
    {
     "TimeMs": 180200,
     "Key": 48,
     "DurationMs": 180,
     "Vel": 80
    },
    {
     "TimeMs": 180400,
     "Key": 49,
     "DurationMs": 180,
     "Vel": 80
    },
    {
     "TimeMs": 180600,
     "Key": 48,
     "DurationMs": 180,
     "Vel": 80
    },
    {
     "TimeMs": 180800,
     "Key": 89,
     "DurationMs": 180,
     "Vel": 80
    },
    {
     "TimeMs": 180801,
     "Key": 46,
     "DurationMs": 718,
     "Vel": 80
    },
    {
     "TimeMs": 181000,
     "Key": 84,
     "DurationMs": 180,
     "Vel": 80
    },
    {
     "TimeMs": 181200,
     "Key": 85,
     "DurationMs": 180,
     "Vel": 80
    },
    {
     "TimeMs": 181400,
     "Key": 77,
     "DurationMs": 180,
     "Vel": 80
    },
    {
     "TimeMs": 181600,
     "Key": 53,
     "DurationMs": 180,
     "Vel": 80
    },
    {
     "TimeMs": 181800,
     "Key": 48,
     "DurationMs": 180,
     "Vel": 80
    },
    {
     "TimeMs": 182000,
     "Key": 49,
     "DurationMs": 180,
     "Vel": 80
    },
    {
     "TimeMs": 182200,
     "Key": 48,
     "DurationMs": 180,
     "Vel": 80
    },
    {
     "TimeMs": 182400,
     "Key": 89,
     "DurationMs": 180,
     "Vel": 80
    },
    {
     "TimeMs": 182401,
     "Key": 46,
     "DurationMs": 180,
     "Vel": 80
    },
    {
     "TimeMs": 182403,
     "Key": 53,
     "DurationMs": 180,
     "Vel": 80
    },
    {
     "TimeMs": 182600,
     "Key": 84,
     "DurationMs": 180,
     "Vel": 80
    },
    {
     "TimeMs": 182601,
     "Key": 48,
     "DurationMs": 180,
     "Vel": 80
    },
    {
     "TimeMs": 182800,
     "Key": 85,
     "DurationMs": 180,
     "Vel": 80
    },
    {
     "TimeMs": 182801,
     "Key": 49,
     "DurationMs": 180,
     "Vel": 80
    },
    {
     "TimeMs": 183000,
     "Key": 77,
     "DurationMs": 180,
     "Vel": 80
    },
    {
     "TimeMs": 183001,
     "Key": 48,
     "DurationMs": 180,
     "Vel": 80
    },
    {
     "TimeMs": 183200,
     "Key": 89,
     "DurationMs": 180,
     "Vel": 80
    },
    {
     "TimeMs": 183201,
     "Key": 46,
     "DurationMs": 180,
     "Vel": 80
    },
    {
     "TimeMs": 183203,
     "Key": 53,
     "DurationMs": 180,
     "Vel": 80
    },
    {
     "TimeMs": 183400,
     "Key": 84,
     "DurationMs": 180,
     "Vel": 80
    },
    {
     "TimeMs": 183401,
     "Key": 48,
     "DurationMs": 180,
     "Vel": 80
    },
    {
     "TimeMs": 183600,
     "Key": 85,
     "DurationMs": 180,
     "Vel": 80
    },
    {
     "TimeMs": 183601,
     "Key": 49,
     "DurationMs": 180,
     "Vel": 80
    },
    {
     "TimeMs": 183800,
     "Key": 77,
     "DurationMs": 180,
     "Vel": 80
    },
    {
     "TimeMs": 183801,
     "Key": 48,
     "DurationMs": 180,
     "Vel": 80
    },
    {
     "TimeMs": 184000,
     "Key": 89,
     "DurationMs": 180,
     "Vel": 80
    },
    {
     "TimeMs": 184001,
     "Key": 46,
     "DurationMs": 180,
     "Vel": 80
    },
    {
     "TimeMs": 184003,
     "Key": 53,
     "DurationMs": 180,
     "Vel": 80
    },
    {
     "TimeMs": 184200,
     "Key": 84,
     "DurationMs": 180,
     "Vel": 80
    },
    {
     "TimeMs": 184201,
     "Key": 48,
     "DurationMs": 180,
     "Vel": 80
    },
    {
     "TimeMs": 184400,
     "Key": 85,
     "DurationMs": 180,
     "Vel": 80
    },
    {
     "TimeMs": 184401,
     "Key": 49,
     "DurationMs": 180,
     "Vel": 80
    },
    {
     "TimeMs": 184600,
     "Key": 77,
     "DurationMs": 180,
     "Vel": 80
    },
    {
     "TimeMs": 184601,
     "Key": 48,
     "DurationMs": 180,
     "Vel": 80
    },
    {
     "TimeMs": 184800,
     "Key": 89,
     "DurationMs": 180,
     "Vel": 80
    },
    {
     "TimeMs": 184801,
     "Key": 46,
     "DurationMs": 180,
     "Vel": 80
    },
    {
     "TimeMs": 184803,
     "Key": 53,
     "DurationMs": 180,
     "Vel": 80
    },
    {
     "TimeMs": 185000,
     "Key": 84,
     "DurationMs": 180,
     "Vel": 80
    },
    {
     "TimeMs": 185001,
     "Key": 48,
     "DurationMs": 180,
     "Vel": 80
    },
    {
     "TimeMs": 185200,
     "Key": 85,
     "DurationMs": 180,
     "Vel": 80
    },
    {
     "TimeMs": 185201,
     "Key": 49,
     "DurationMs": 180,
     "Vel": 80
    },
    {
     "TimeMs": 185400,
     "Key": 77,
     "DurationMs": 180,
     "Vel": 80
    },
    {
     "TimeMs": 185401,
     "Key": 48,
     "DurationMs": 180,
     "Vel": 80
    },
    {
     "TimeMs": 185600,
     "Key": 77,
     "DurationMs": 180,
     "Vel": 80
    },
    {
     "TimeMs": 185601,
     "Key": 70,
     "DurationMs": 180,
     "Vel": 80
    },
    {
     "TimeMs": 185603,
     "Key": 42,
     "DurationMs": 180,
     "Vel": 80
    },
    {
     "TimeMs": 185800,
     "Key": 75,
     "DurationMs": 180,
     "Vel": 80
    },
    {
     "TimeMs": 185801,
     "Key": 49,
     "DurationMs": 180,
     "Vel": 80
    },
    {
     "TimeMs": 186000,
     "Key": 77,
     "DurationMs": 180,
     "Vel": 80
    },
    {
     "TimeMs": 186001,
     "Key": 54,
     "DurationMs": 180,
     "Vel": 80
    },
    {
     "TimeMs": 186200,
     "Key": 82,
     "DurationMs": 360,
     "Vel": 80
    },
    {
     "TimeMs": 186201,
     "Key": 56,
     "DurationMs": 178,
     "Vel": 80
    },
    {
     "TimeMs": 186400,
     "Key": 58,
     "DurationMs": 720,
     "Vel": 80
    },
    {
     "TimeMs": 186600,
     "Key": 77,
     "DurationMs": 180,
     "Vel": 80
    },
    {
     "TimeMs": 186800,
     "Key": 75,
     "DurationMs": 360,
     "Vel": 80
    },
    {
     "TimeMs": 187200,
     "Key": 77,
     "DurationMs": 720,
     "Vel": 80
    },
    {
     "TimeMs": 187201,
     "Key": 70,
     "DurationMs": 720,
     "Vel": 80
    },
    {
     "TimeMs": 187203,
     "Key": 44,
     "DurationMs": 176,
     "Vel": 80
    },
    {
     "TimeMs": 187400,
     "Key": 51,
     "DurationMs": 180,
     "Vel": 80
    },
    {
     "TimeMs": 187600,
     "Key": 56,
     "DurationMs": 180,
     "Vel": 80
    },
    {
     "TimeMs": 187800,
     "Key": 58,
     "DurationMs": 180,
     "Vel": 80
    },
    {
     "TimeMs": 188000,
     "Key": 75,
     "DurationMs": 720,
     "Vel": 80
    },
    {
     "TimeMs": 188001,
     "Key": 70,
     "DurationMs": 720,
     "Vel": 80
    },
    {
     "TimeMs": 188003,
     "Key": 60,
     "DurationMs": 720,
     "Vel": 80
    },
    {
     "TimeMs": 188800,
     "Key": 77,
     "DurationMs": 180,
     "Vel": 80
    },
    {
     "TimeMs": 188801,
     "Key": 70,
     "DurationMs": 180,
     "Vel": 80
    },
    {
     "TimeMs": 188803,
     "Key": 46,
     "DurationMs": 180,
     "Vel": 80
    },
    {
     "TimeMs": 189000,
     "Key": 75,
     "DurationMs": 180,
     "Vel": 80
    },
    {
     "TimeMs": 189001,
     "Key": 53,
     "DurationMs": 180,
     "Vel": 80
    },
    {
     "TimeMs": 189200,
     "Key": 77,
     "DurationMs": 180,
     "Vel": 80
    },
    {
     "TimeMs": 189201,
     "Key": 58,
     "DurationMs": 180,
     "Vel": 80
    },
    {
     "TimeMs": 189400,
     "Key": 82,
     "DurationMs": 360,
     "Vel": 80
    },
    {
     "TimeMs": 189401,
     "Key": 60,
     "DurationMs": 178,
     "Vel": 80
    },
    {
     "TimeMs": 189600,
     "Key": 61,
     "DurationMs": 720,
     "Vel": 80
    },
    {
     "TimeMs": 189800,
     "Key": 77,
     "DurationMs": 180,
     "Vel": 80
    },
    {
     "TimeMs": 190000,
     "Key": 75,
     "DurationMs": 360,
     "Vel": 80
    },
    {
     "TimeMs": 190400,
     "Key": 70,
     "DurationMs": 1440,
     "Vel": 80
    },
    {
     "TimeMs": 190401,
     "Key": 77,
     "DurationMs": 1440,
     "Vel": 80
    },
    {
     "TimeMs": 190403,
     "Key": 46,
     "DurationMs": 176,
     "Vel": 80
    },
    {
     "TimeMs": 190600,
     "Key": 53,
     "DurationMs": 180,
     "Vel": 80
    },
    {
     "TimeMs": 190800,
     "Key": 58,
     "DurationMs": 180,
     "Vel": 80
    },
    {
     "TimeMs": 191000,
     "Key": 60,
     "DurationMs": 180,
     "Vel": 80
    },
    {
     "TimeMs": 191200,
     "Key": 61,
     "DurationMs": 180,
     "Vel": 80
    },
    {
     "TimeMs": 191400,
     "Key": 60,
     "DurationMs": 180,
     "Vel": 80
    },
    {
     "TimeMs": 191600,
     "Key": 58,
     "DurationMs": 360,
     "Vel": 80
    },
    {
     "TimeMs": 192000,
     "Key": 77,
     "DurationMs": 180,
     "Vel": 80
    },
    {
     "TimeMs": 192001,
     "Key": 70,
     "DurationMs": 180,
     "Vel": 80
    },
    {
     "TimeMs": 192003,
     "Key": 42,
     "DurationMs": 180,
     "Vel": 80
    },
    {
     "TimeMs": 192200,
     "Key": 75,
     "DurationMs": 180,
     "Vel": 80
    },
    {
     "TimeMs": 192201,
     "Key": 49,
     "DurationMs": 180,
     "Vel": 80
    },
    {
     "TimeMs": 192400,
     "Key": 77,
     "DurationMs": 180,
     "Vel": 80
    },
    {
     "TimeMs": 192401,
     "Key": 54,
     "DurationMs": 180,
     "Vel": 80
    },
    {
     "TimeMs": 192600,
     "Key": 82,
     "DurationMs": 360,
     "Vel": 80
    },
    {
     "TimeMs": 192601,
     "Key": 70,
     "DurationMs": 360,
     "Vel": 80
    },
    {
     "TimeMs": 192603,
     "Key": 56,
     "DurationMs": 176,
     "Vel": 80
    },
    {
     "TimeMs": 192800,
     "Key": 58,
     "DurationMs": 720,
     "Vel": 80
    },
    {
     "TimeMs": 193000,
     "Key": 77,
     "DurationMs": 180,
     "Vel": 80
    },
    {
     "TimeMs": 193200,
     "Key": 75,
     "DurationMs": 360,
     "Vel": 80
    },
    {
     "TimeMs": 193600,
     "Key": 84,
     "DurationMs": 180,
     "Vel": 80
    },
    {
     "TimeMs": 193601,
     "Key": 77,
     "DurationMs": 180,
     "Vel": 80
    },
    {
     "TimeMs": 193603,
     "Key": 44,
     "DurationMs": 180,
     "Vel": 80
    },
    {
     "TimeMs": 193800,
     "Key": 82,
     "DurationMs": 180,
     "Vel": 80
    },
    {
     "TimeMs": 193801,
     "Key": 51,
     "DurationMs": 180,
     "Vel": 80
    },
    {
     "TimeMs": 194000,
     "Key": 84,
     "DurationMs": 180,
     "Vel": 80
    },
    {
     "TimeMs": 194001,
     "Key": 56,
     "DurationMs": 180,
     "Vel": 80
    },
    {
     "TimeMs": 194200,
     "Key": 87,
     "DurationMs": 360,
     "Vel": 80
    },
    {
     "TimeMs": 194201,
     "Key": 77,
     "DurationMs": 360,
     "Vel": 80
    },
    {
     "TimeMs": 194203,
     "Key": 58,
     "DurationMs": 176,
     "Vel": 80
    },
    {
     "TimeMs": 194400,
     "Key": 60,
     "DurationMs": 720,
     "Vel": 80
    },
    {
     "TimeMs": 194600,
     "Key": 85,
     "DurationMs": 180,
     "Vel": 80
    },
    {
     "TimeMs": 194800,
     "Key": 84,
     "DurationMs": 360,
     "Vel": 80
    },
    {
     "TimeMs": 195200,
     "Key": 84,
     "DurationMs": 720,
     "Vel": 80
    },
    {
     "TimeMs": 195201,
     "Key": 77,
     "DurationMs": 720,
     "Vel": 80
    },
    {
     "TimeMs": 195203,
     "Key": 46,
     "DurationMs": 176,
     "Vel": 80
    },
    {
     "TimeMs": 195400,
     "Key": 53,
     "DurationMs": 180,
     "Vel": 80
    },
    {
     "TimeMs": 195600,
     "Key": 58,
     "DurationMs": 180,
     "Vel": 80
    },
    {
     "TimeMs": 195800,
     "Key": 60,
     "DurationMs": 180,
     "Vel": 80
    },
    {
     "TimeMs": 196000,
     "Key": 84,
     "DurationMs": 360,
     "Vel": 80
    },
    {
     "TimeMs": 196001,
     "Key": 77,
     "DurationMs": 360,
     "Vel": 80
    },
    {
     "TimeMs": 196003,
     "Key": 61,
     "DurationMs": 716,
     "Vel": 80
    },
    {
     "TimeMs": 196400,
     "Key": 85,
     "DurationMs": 360,
     "Vel": 80
    },
    {
     "TimeMs": 196800,
     "Key": 101,
     "DurationMs": 180,
     "Vel": 80
    },
    {
     "TimeMs": 196801,
     "Key": 46,
     "DurationMs": 180,
     "Vel": 80
    },
    {
     "TimeMs": 197000,
     "Key": 97,
     "DurationMs": 180,
     "Vel": 80
    },
    {
     "TimeMs": 197001,
     "Key": 53,
     "DurationMs": 180,
     "Vel": 80
    },
    {
     "TimeMs": 197200,
     "Key": 94,
     "DurationMs": 180,
     "Vel": 80
    },
    {
     "TimeMs": 197201,
     "Key": 58,
     "DurationMs": 180,
     "Vel": 80
    },
    {
     "TimeMs": 197400,
     "Key": 89,
     "DurationMs": 180,
     "Vel": 80
    },
    {
     "TimeMs": 197401,
     "Key": 60,
     "DurationMs": 180,
     "Vel": 80
    },
    {
     "TimeMs": 197600,
     "Key": 89,
     "DurationMs": 180,
     "Vel": 80
    },
    {
     "TimeMs": 197601,
     "Key": 84,
     "DurationMs": 180,
     "Vel": 80
    },
    {
     "TimeMs": 197603,
     "Key": 61,
     "DurationMs": 716,
     "Vel": 80
    },
    {
     "TimeMs": 197800,
     "Key": 85,
     "DurationMs": 180,
     "Vel": 80
    },
    {
     "TimeMs": 198000,
     "Key": 82,
     "DurationMs": 180,
     "Vel": 80
    },
    {
     "TimeMs": 198200,
     "Key": 77,
     "DurationMs": 180,
     "Vel": 80
    },
    {
     "TimeMs": 198400,
     "Key": 77,
     "DurationMs": 180,
     "Vel": 80
    },
    {
     "TimeMs": 198401,
     "Key": 70,
     "DurationMs": 180,
     "Vel": 80
    },
    {
     "TimeMs": 198403,
     "Key": 42,
     "DurationMs": 180,
     "Vel": 80
    },
    {
     "TimeMs": 198600,
     "Key": 75,
     "DurationMs": 180,
     "Vel": 80
    },
    {
     "TimeMs": 198601,
     "Key": 49,
     "DurationMs": 180,
     "Vel": 80
    },
    {
     "TimeMs": 198800,
     "Key": 77,
     "DurationMs": 180,
     "Vel": 80
    },
    {
     "TimeMs": 198801,
     "Key": 54,
     "DurationMs": 180,
     "Vel": 80
    },
    {
     "TimeMs": 199000,
     "Key": 82,
     "DurationMs": 360,
     "Vel": 80
    },
    {
     "TimeMs": 199001,
     "Key": 56,
     "DurationMs": 178,
     "Vel": 80
    },
    {
     "TimeMs": 199200,
     "Key": 58,
     "DurationMs": 720,
     "Vel": 80
    },
    {
     "TimeMs": 199400,
     "Key": 77,
     "DurationMs": 180,
     "Vel": 80
    },
    {
     "TimeMs": 199600,
     "Key": 75,
     "DurationMs": 360,
     "Vel": 80
    },
    {
     "TimeMs": 200000,
     "Key": 96,
     "DurationMs": 180,
     "Vel": 80
    },
    {
     "TimeMs": 200001,
     "Key": 77,
     "DurationMs": 718,
     "Vel": 80
    },
    {
     "TimeMs": 200003,
     "Key": 70,
     "DurationMs": 718,
     "Vel": 80
    },
    {
     "TimeMs": 200005,
     "Key": 44,
     "DurationMs": 176,
     "Vel": 80
    },
    {
     "TimeMs": 200200,
     "Key": 97,
     "DurationMs": 180,
     "Vel": 80
    },
    {
     "TimeMs": 200201,
     "Key": 51,
     "DurationMs": 180,
     "Vel": 80
    },
    {
     "TimeMs": 200400,
     "Key": 94,
     "DurationMs": 180,
     "Vel": 80
    },
    {
     "TimeMs": 200401,
     "Key": 56,
     "DurationMs": 180,
     "Vel": 80
    },
    {
     "TimeMs": 200600,
     "Key": 89,
     "DurationMs": 180,
     "Vel": 80
    },
    {
     "TimeMs": 200601,
     "Key": 58,
     "DurationMs": 180,
     "Vel": 80
    },
    {
     "TimeMs": 200800,
     "Key": 84,
     "DurationMs": 180,
     "Vel": 80
    },
    {
     "TimeMs": 200801,
     "Key": 75,
     "DurationMs": 718,
     "Vel": 80
    },
    {
     "TimeMs": 200803,
     "Key": 70,
     "DurationMs": 718,
     "Vel": 80
    },
    {
     "TimeMs": 200805,
     "Key": 60,
     "DurationMs": 718,
     "Vel": 80
    },
    {
     "TimeMs": 201000,
     "Key": 85,
     "DurationMs": 180,
     "Vel": 80
    },
    {
     "TimeMs": 201200,
     "Key": 82,
     "DurationMs": 180,
     "Vel": 80
    },
    {
     "TimeMs": 201400,
     "Key": 77,
     "DurationMs": 180,
     "Vel": 80
    },
    {
     "TimeMs": 201600,
     "Key": 77,
     "DurationMs": 180,
     "Vel": 80
    },
    {
     "TimeMs": 201601,
     "Key": 70,
     "DurationMs": 180,
     "Vel": 80
    },
    {
     "TimeMs": 201603,
     "Key": 46,
     "DurationMs": 180,
     "Vel": 80
    },
    {
     "TimeMs": 201800,
     "Key": 75,
     "DurationMs": 180,
     "Vel": 80
    },
    {
     "TimeMs": 201801,
     "Key": 53,
     "DurationMs": 180,
     "Vel": 80
    },
    {
     "TimeMs": 202000,
     "Key": 77,
     "DurationMs": 180,
     "Vel": 80
    },
    {
     "TimeMs": 202001,
     "Key": 58,
     "DurationMs": 180,
     "Vel": 80
    },
    {
     "TimeMs": 202200,
     "Key": 82,
     "DurationMs": 360,
     "Vel": 80
    },
    {
     "TimeMs": 202201,
     "Key": 60,
     "DurationMs": 178,
     "Vel": 80
    },
    {
     "TimeMs": 202400,
     "Key": 61,
     "DurationMs": 720,
     "Vel": 80
    },
    {
     "TimeMs": 202600,
     "Key": 77,
     "DurationMs": 180,
     "Vel": 80
    },
    {
     "TimeMs": 202800,
     "Key": 75,
     "DurationMs": 360,
     "Vel": 80
    },
    {
     "TimeMs": 203200,
     "Key": 84,
     "DurationMs": 180,
     "Vel": 80
    },
    {
     "TimeMs": 203201,
     "Key": 77,
     "DurationMs": 778,
     "Vel": 80
    },
    {
     "TimeMs": 203203,
     "Key": 70,
     "DurationMs": 1376,
     "Vel": 80
    },
    {
     "TimeMs": 203205,
     "Key": 46,
     "DurationMs": 176,
     "Vel": 80
    },
    {
     "TimeMs": 203400,
     "Key": 85,
     "DurationMs": 180,
     "Vel": 80
    },
    {
     "TimeMs": 203401,
     "Key": 53,
     "DurationMs": 180,
     "Vel": 80
    },
    {
     "TimeMs": 203600,
     "Key": 82,
     "DurationMs": 180,
     "Vel": 80
    },
    {
     "TimeMs": 203601,
     "Key": 58,
     "DurationMs": 180,
     "Vel": 80
    },
    {
     "TimeMs": 203800,
     "Key": 77,
     "DurationMs": 180,
     "Vel": 80
    },
    {
     "TimeMs": 203801,
     "Key": 60,
     "DurationMs": 180,
     "Vel": 80
    },
    {
     "TimeMs": 204000,
     "Key": 72,
     "DurationMs": 180,
     "Vel": 80
    },
    {
     "TimeMs": 204001,
     "Key": 61,
     "DurationMs": 180,
     "Vel": 80
    },
    {
     "TimeMs": 204200,
     "Key": 73,
     "DurationMs": 180,
     "Vel": 80
    },
    {
     "TimeMs": 204201,
     "Key": 60,
     "DurationMs": 180,
     "Vel": 80
    },
    {
     "TimeMs": 204400,
     "Key": 70,
     "DurationMs": 180,
     "Vel": 80
    },
    {
     "TimeMs": 204401,
     "Key": 58,
     "DurationMs": 358,
     "Vel": 80
    },
    {
     "TimeMs": 204600,
     "Key": 65,
     "DurationMs": 180,
     "Vel": 80
    },
    {
     "TimeMs": 204800,
     "Key": 77,
     "DurationMs": 180,
     "Vel": 80
    },
    {
     "TimeMs": 204801,
     "Key": 70,
     "DurationMs": 180,
     "Vel": 80
    },
    {
     "TimeMs": 204803,
     "Key": 42,
     "DurationMs": 180,
     "Vel": 80
    },
    {
     "TimeMs": 205000,
     "Key": 75,
     "DurationMs": 180,
     "Vel": 80
    },
    {
     "TimeMs": 205001,
     "Key": 49,
     "DurationMs": 180,
     "Vel": 80
    },
    {
     "TimeMs": 205200,
     "Key": 77,
     "DurationMs": 180,
     "Vel": 80
    },
    {
     "TimeMs": 205201,
     "Key": 54,
     "DurationMs": 180,
     "Vel": 80
    },
    {
     "TimeMs": 205400,
     "Key": 82,
     "DurationMs": 360,
     "Vel": 80
    },
    {
     "TimeMs": 205401,
     "Key": 56,
     "DurationMs": 178,
     "Vel": 80
    },
    {
     "TimeMs": 205600,
     "Key": 58,
     "DurationMs": 720,
     "Vel": 80
    },
    {
     "TimeMs": 205800,
     "Key": 77,
     "DurationMs": 180,
     "Vel": 80
    },
    {
     "TimeMs": 206000,
     "Key": 75,
     "DurationMs": 360,
     "Vel": 80
    },
    {
     "TimeMs": 206400,
     "Key": 84,
     "DurationMs": 180,
     "Vel": 80
    },
    {
     "TimeMs": 206401,
     "Key": 77,
     "DurationMs": 180,
     "Vel": 80
    },
    {
     "TimeMs": 206403,
     "Key": 44,
     "DurationMs": 180,
     "Vel": 80
    },
    {
     "TimeMs": 206600,
     "Key": 82,
     "DurationMs": 180,
     "Vel": 80
    },
    {
     "TimeMs": 206601,
     "Key": 51,
     "DurationMs": 180,
     "Vel": 80
    },
    {
     "TimeMs": 206800,
     "Key": 84,
     "DurationMs": 180,
     "Vel": 80
    },
    {
     "TimeMs": 206801,
     "Key": 56,
     "DurationMs": 180,
     "Vel": 80
    },
    {
     "TimeMs": 207000,
     "Key": 87,
     "DurationMs": 360,
     "Vel": 80
    },
    {
     "TimeMs": 207001,
     "Key": 58,
     "DurationMs": 178,
     "Vel": 80
    },
    {
     "TimeMs": 207200,
     "Key": 60,
     "DurationMs": 720,
     "Vel": 80
    },
    {
     "TimeMs": 207400,
     "Key": 85,
     "DurationMs": 180,
     "Vel": 80
    },
    {
     "TimeMs": 207600,
     "Key": 84,
     "DurationMs": 360,
     "Vel": 80
    },
    {
     "TimeMs": 208000,
     "Key": 84,
     "DurationMs": 720,
     "Vel": 80
    },
    {
     "TimeMs": 208001,
     "Key": 77,
     "DurationMs": 720,
     "Vel": 80
    },
    {
     "TimeMs": 208003,
     "Key": 46,
     "DurationMs": 176,
     "Vel": 80
    },
    {
     "TimeMs": 208200,
     "Key": 53,
     "DurationMs": 180,
     "Vel": 80
    },
    {
     "TimeMs": 208400,
     "Key": 58,
     "DurationMs": 180,
     "Vel": 80
    },
    {
     "TimeMs": 208600,
     "Key": 60,
     "DurationMs": 180,
     "Vel": 80
    },
    {
     "TimeMs": 208800,
     "Key": 84,
     "DurationMs": 360,
     "Vel": 80
    },
    {
     "TimeMs": 208801,
     "Key": 77,
     "DurationMs": 360,
     "Vel": 80
    },
    {
     "TimeMs": 208803,
     "Key": 61,
     "DurationMs": 716,
     "Vel": 80
    },
    {
     "TimeMs": 209200,
     "Key": 85,
     "DurationMs": 360,
     "Vel": 80
    },
    {
     "TimeMs": 209201,
     "Key": 77,
     "DurationMs": 360,
     "Vel": 80
    },
    {
     "TimeMs": 209600,
     "Key": 101,
     "DurationMs": 180,
     "Vel": 80
    },
    {
     "TimeMs": 209601,
     "Key": 46,
     "DurationMs": 180,
     "Vel": 80
    },
    {
     "TimeMs": 209800,
     "Key": 97,
     "DurationMs": 180,
     "Vel": 80
    },
    {
     "TimeMs": 209801,
     "Key": 53,
     "DurationMs": 180,
     "Vel": 80
    },
    {
     "TimeMs": 210000,
     "Key": 96,
     "DurationMs": 180,
     "Vel": 80
    },
    {
     "TimeMs": 210001,
     "Key": 58,
     "DurationMs": 180,
     "Vel": 80
    },
    {
     "TimeMs": 210200,
     "Key": 94,
     "DurationMs": 180,
     "Vel": 80
    },
    {
     "TimeMs": 210201,
     "Key": 60,
     "DurationMs": 180,
     "Vel": 80
    },
    {
     "TimeMs": 210400,
     "Key": 89,
     "DurationMs": 180,
     "Vel": 80
    },
    {
     "TimeMs": 210401,
     "Key": 61,
     "DurationMs": 718,
     "Vel": 80
    },
    {
     "TimeMs": 210600,
     "Key": 85,
     "DurationMs": 180,
     "Vel": 80
    },
    {
     "TimeMs": 210800,
     "Key": 84,
     "DurationMs": 180,
     "Vel": 80
    },
    {
     "TimeMs": 211000,
     "Key": 82,
     "DurationMs": 180,
     "Vel": 80
    },
    {
     "TimeMs": 211200,
     "Key": 101,
     "DurationMs": 180,
     "Vel": 80
    },
    {
     "TimeMs": 211201,
     "Key": 96,
     "DurationMs": 180,
     "Vel": 80
    },
    {
     "TimeMs": 211203,
     "Key": 42,
     "DurationMs": 180,
     "Vel": 80
    },
    {
     "TimeMs": 211400,
     "Key": 97,
     "DurationMs": 180,
     "Vel": 80
    },
    {
     "TimeMs": 211401,
     "Key": 49,
     "DurationMs": 180,
     "Vel": 80
    },
    {
     "TimeMs": 211600,
     "Key": 94,
     "DurationMs": 180,
     "Vel": 80
    },
    {
     "TimeMs": 211601,
     "Key": 54,
     "DurationMs": 180,
     "Vel": 80
    },
    {
     "TimeMs": 211800,
     "Key": 89,
     "DurationMs": 180,
     "Vel": 80
    },
    {
     "TimeMs": 211801,
     "Key": 58,
     "DurationMs": 918,
     "Vel": 80
    },
    {
     "TimeMs": 212000,
     "Key": 84,
     "DurationMs": 180,
     "Vel": 80
    },
    {
     "TimeMs": 212200,
     "Key": 85,
     "DurationMs": 180,
     "Vel": 80
    },
    {
     "TimeMs": 212400,
     "Key": 82,
     "DurationMs": 180,
     "Vel": 80
    },
    {
     "TimeMs": 212600,
     "Key": 77,
     "DurationMs": 180,
     "Vel": 80
    },
    {
     "TimeMs": 212800,
     "Key": 72,
     "DurationMs": 180,
     "Vel": 80
    },
    {
     "TimeMs": 212801,
     "Key": 44,
     "DurationMs": 180,
     "Vel": 80
    },
    {
     "TimeMs": 213000,
     "Key": 73,
     "DurationMs": 180,
     "Vel": 80
    },
    {
     "TimeMs": 213001,
     "Key": 51,
     "DurationMs": 180,
     "Vel": 80
    },
    {
     "TimeMs": 213200,
     "Key": 70,
     "DurationMs": 180,
     "Vel": 80
    },
    {
     "TimeMs": 213201,
     "Key": 56,
     "DurationMs": 180,
     "Vel": 80
    },
    {
     "TimeMs": 213400,
     "Key": 65,
     "DurationMs": 180,
     "Vel": 80
    },
    {
     "TimeMs": 213401,
     "Key": 58,
     "DurationMs": 778,
     "Vel": 80
    },
    {
     "TimeMs": 213600,
     "Key": 60,
     "DurationMs": 180,
     "Vel": 80
    },
    {
     "TimeMs": 213800,
     "Key": 61,
     "DurationMs": 180,
     "Vel": 80
    },
    {
     "TimeMs": 214000,
     "Key": 58,
     "DurationMs": 180,
     "Vel": 80
    },
    {
     "TimeMs": 214200,
     "Key": 53,
     "DurationMs": 180,
     "Vel": 80
    },
    {
     "TimeMs": 214400,
     "Key": 53,
     "DurationMs": 180,
     "Vel": 80
    },
    {
     "TimeMs": 214401,
     "Key": 46,
     "DurationMs": 1438,
     "Vel": 80
    },
    {
     "TimeMs": 214600,
     "Key": 58,
     "DurationMs": 180,
     "Vel": 80
    },
    {
     "TimeMs": 214800,
     "Key": 60,
     "DurationMs": 180,
     "Vel": 80
    },
    {
     "TimeMs": 215000,
     "Key": 61,
     "DurationMs": 180,
     "Vel": 80
    },
    {
     "TimeMs": 215200,
     "Key": 65,
     "DurationMs": 180,
     "Vel": 80
    },
    {
     "TimeMs": 215400,
     "Key": 70,
     "DurationMs": 180,
     "Vel": 80
    },
    {
     "TimeMs": 215600,
     "Key": 72,
     "DurationMs": 180,
     "Vel": 80
    },
    {
     "TimeMs": 215800,
     "Key": 73,
     "DurationMs": 180,
     "Vel": 80
    },
    {
     "TimeMs": 216000,
     "Key": 77,
     "DurationMs": 180,
     "Vel": 80
    },
    {
     "TimeMs": 216001,
     "Key": 46,
     "DurationMs": 358,
     "Vel": 80
    },
    {
     "TimeMs": 216200,
     "Key": 82,
     "DurationMs": 180,
     "Vel": 80
    },
    {
     "TimeMs": 216400,
     "Key": 84,
     "DurationMs": 180,
     "Vel": 80
    },
    {
     "TimeMs": 216401,
     "Key": 53,
     "DurationMs": 358,
     "Vel": 80
    },
    {
     "TimeMs": 216600,
     "Key": 85,
     "DurationMs": 180,
     "Vel": 80
    },
    {
     "TimeMs": 216800,
     "Key": 89,
     "DurationMs": 180,
     "Vel": 80
    },
    {
     "TimeMs": 216801,
     "Key": 61,
     "DurationMs": 718,
     "Vel": 80
    },
    {
     "TimeMs": 217000,
     "Key": 94,
     "DurationMs": 180,
     "Vel": 80
    },
    {
     "TimeMs": 217200,
     "Key": 96,
     "DurationMs": 180,
     "Vel": 80
    },
    {
     "TimeMs": 217400,
     "Key": 97,
     "DurationMs": 180,
     "Vel": 80
    },
    {
     "TimeMs": 217600,
     "Key": 101,
     "DurationMs": 180,
     "Vel": 80
    },
    {
     "TimeMs": 217601,
     "Key": 96,
     "DurationMs": 180,
     "Vel": 80
    },
    {
     "TimeMs": 217603,
     "Key": 42,
     "DurationMs": 180,
     "Vel": 80
    },
    {
     "TimeMs": 217800,
     "Key": 97,
     "DurationMs": 180,
     "Vel": 80
    },
    {
     "TimeMs": 217801,
     "Key": 49,
     "DurationMs": 180,
     "Vel": 80
    },
    {
     "TimeMs": 218000,
     "Key": 94,
     "DurationMs": 180,
     "Vel": 80
    },
    {
     "TimeMs": 218001,
     "Key": 54,
     "DurationMs": 180,
     "Vel": 80
    },
    {
     "TimeMs": 218200,
     "Key": 89,
     "DurationMs": 180,
     "Vel": 80
    },
    {
     "TimeMs": 218201,
     "Key": 58,
     "DurationMs": 918,
     "Vel": 80
    },
    {
     "TimeMs": 218400,
     "Key": 84,
     "DurationMs": 180,
     "Vel": 80
    },
    {
     "TimeMs": 218600,
     "Key": 85,
     "DurationMs": 180,
     "Vel": 80
    },
    {
     "TimeMs": 218800,
     "Key": 82,
     "DurationMs": 180,
     "Vel": 80
    },
    {
     "TimeMs": 219000,
     "Key": 77,
     "DurationMs": 180,
     "Vel": 80
    },
    {
     "TimeMs": 219200,
     "Key": 72,
     "DurationMs": 180,
     "Vel": 80
    },
    {
     "TimeMs": 219201,
     "Key": 44,
     "DurationMs": 180,
     "Vel": 80
    },
    {
     "TimeMs": 219400,
     "Key": 73,
     "DurationMs": 180,
     "Vel": 80
    },
    {
     "TimeMs": 219401,
     "Key": 51,
     "DurationMs": 180,
     "Vel": 80
    },
    {
     "TimeMs": 219600,
     "Key": 70,
     "DurationMs": 180,
     "Vel": 80
    },
    {
     "TimeMs": 219601,
     "Key": 56,
     "DurationMs": 180,
     "Vel": 80
    },
    {
     "TimeMs": 219800,
     "Key": 65,
     "DurationMs": 180,
     "Vel": 80
    },
    {
     "TimeMs": 219801,
     "Key": 58,
     "DurationMs": 778,
     "Vel": 80
    },
    {
     "TimeMs": 220000,
     "Key": 60,
     "DurationMs": 180,
     "Vel": 80
    },
    {
     "TimeMs": 220200,
     "Key": 61,
     "DurationMs": 180,
     "Vel": 80
    },
    {
     "TimeMs": 220400,
     "Key": 58,
     "DurationMs": 180,
     "Vel": 80
    },
    {
     "TimeMs": 220600,
     "Key": 53,
     "DurationMs": 180,
     "Vel": 80
    },
    {
     "TimeMs": 220800,
     "Key": 53,
     "DurationMs": 180,
     "Vel": 80
    },
    {
     "TimeMs": 220801,
     "Key": 46,
     "DurationMs": 1438,
     "Vel": 80
    },
    {
     "TimeMs": 221000,
     "Key": 58,
     "DurationMs": 180,
     "Vel": 80
    },
    {
     "TimeMs": 221200,
     "Key": 60,
     "DurationMs": 180,
     "Vel": 80
    },
    {
     "TimeMs": 221400,
     "Key": 61,
     "DurationMs": 180,
     "Vel": 80
    },
    {
     "TimeMs": 221600,
     "Key": 65,
     "DurationMs": 180,
     "Vel": 80
    },
    {
     "TimeMs": 221800,
     "Key": 70,
     "DurationMs": 180,
     "Vel": 80
    },
    {
     "TimeMs": 222000,
     "Key": 72,
     "DurationMs": 180,
     "Vel": 80
    },
    {
     "TimeMs": 222200,
     "Key": 73,
     "DurationMs": 180,
     "Vel": 80
    },
    {
     "TimeMs": 222400,
     "Key": 77,
     "DurationMs": 180,
     "Vel": 80
    },
    {
     "TimeMs": 222401,
     "Key": 46,
     "DurationMs": 358,
     "Vel": 80
    },
    {
     "TimeMs": 222600,
     "Key": 82,
     "DurationMs": 180,
     "Vel": 80
    },
    {
     "TimeMs": 222800,
     "Key": 84,
     "DurationMs": 180,
     "Vel": 80
    },
    {
     "TimeMs": 222801,
     "Key": 53,
     "DurationMs": 358,
     "Vel": 80
    },
    {
     "TimeMs": 223000,
     "Key": 85,
     "DurationMs": 180,
     "Vel": 80
    },
    {
     "TimeMs": 223200,
     "Key": 89,
     "DurationMs": 180,
     "Vel": 80
    },
    {
     "TimeMs": 223201,
     "Key": 61,
     "DurationMs": 718,
     "Vel": 80
    },
    {
     "TimeMs": 223400,
     "Key": 94,
     "DurationMs": 180,
     "Vel": 80
    },
    {
     "TimeMs": 223600,
     "Key": 96,
     "DurationMs": 180,
     "Vel": 80
    },
    {
     "TimeMs": 223800,
     "Key": 97,
     "DurationMs": 180,
     "Vel": 80
    },
    {
     "TimeMs": 224000,
     "Key": 77,
     "DurationMs": 180,
     "Vel": 80
    },
    {
     "TimeMs": 224001,
     "Key": 42,
     "DurationMs": 358,
     "Vel": 80
    },
    {
     "TimeMs": 224200,
     "Key": 75,
     "DurationMs": 180,
     "Vel": 80
    },
    {
     "TimeMs": 224400,
     "Key": 77,
     "DurationMs": 180,
     "Vel": 80
    },
    {
     "TimeMs": 224401,
     "Key": 49,
     "DurationMs": 358,
     "Vel": 80
    },
    {
     "TimeMs": 224600,
     "Key": 82,
     "DurationMs": 360,
     "Vel": 80
    },
    {
     "TimeMs": 224601,
     "Key": 70,
     "DurationMs": 360,
     "Vel": 80
    },
    {
     "TimeMs": 224800,
     "Key": 54,
     "DurationMs": 360,
     "Vel": 80
    },
    {
     "TimeMs": 225000,
     "Key": 77,
     "DurationMs": 180,
     "Vel": 80
    },
    {
     "TimeMs": 225001,
     "Key": 65,
     "DurationMs": 180,
     "Vel": 80
    },
    {
     "TimeMs": 225200,
     "Key": 75,
     "DurationMs": 360,
     "Vel": 80
    },
    {
     "TimeMs": 225201,
     "Key": 63,
     "DurationMs": 360,
     "Vel": 80
    },
    {
     "TimeMs": 225203,
     "Key": 49,
     "DurationMs": 360,
     "Vel": 80
    },
    {
     "TimeMs": 225600,
     "Key": 77,
     "DurationMs": 720,
     "Vel": 80
    },
    {
     "TimeMs": 225601,
     "Key": 65,
     "DurationMs": 720,
     "Vel": 80
    },
    {
     "TimeMs": 225603,
     "Key": 44,
     "DurationMs": 356,
     "Vel": 80
    },
    {
     "TimeMs": 226000,
     "Key": 51,
     "DurationMs": 360,
     "Vel": 80
    },
    {
     "TimeMs": 226400,
     "Key": 75,
     "DurationMs": 720,
     "Vel": 80
    },
    {
     "TimeMs": 226401,
     "Key": 63,
     "DurationMs": 720,
     "Vel": 80
    },
    {
     "TimeMs": 226403,
     "Key": 60,
     "DurationMs": 356,
     "Vel": 80
    },
    {
     "TimeMs": 226800,
     "Key": 51,
     "DurationMs": 360,
     "Vel": 80
    },
    {
     "TimeMs": 227200,
     "Key": 65,
     "DurationMs": 180,
     "Vel": 80
    },
    {
     "TimeMs": 227201,
     "Key": 77,
     "DurationMs": 180,
     "Vel": 80
    },
    {
     "TimeMs": 227203,
     "Key": 46,
     "DurationMs": 356,
     "Vel": 80
    },
    {
     "TimeMs": 227400,
     "Key": 75,
     "DurationMs": 180,
     "Vel": 80
    },
    {
     "TimeMs": 227600,
     "Key": 77,
     "DurationMs": 180,
     "Vel": 80
    },
    {
     "TimeMs": 227601,
     "Key": 53,
     "DurationMs": 358,
     "Vel": 80
    },
    {
     "TimeMs": 227800,
     "Key": 70,
     "DurationMs": 360,
     "Vel": 80
    },
    {
     "TimeMs": 227801,
     "Key": 82,
     "DurationMs": 360,
     "Vel": 80
    },
    {
     "TimeMs": 228000,
     "Key": 61,
     "DurationMs": 360,
     "Vel": 80
    },
    {
     "TimeMs": 228200,
     "Key": 77,
     "DurationMs": 180,
     "Vel": 80
    },
    {
     "TimeMs": 228201,
     "Key": 65,
     "DurationMs": 180,
     "Vel": 80
    },
    {
     "TimeMs": 228400,
     "Key": 75,
     "DurationMs": 360,
     "Vel": 80
    },
    {
     "TimeMs": 228401,
     "Key": 63,
     "DurationMs": 360,
     "Vel": 80
    },
    {
     "TimeMs": 228403,
     "Key": 53,
     "DurationMs": 360,
     "Vel": 80
    },
    {
     "TimeMs": 228800,
     "Key": 77,
     "DurationMs": 1440,
     "Vel": 80
    },
    {
     "TimeMs": 228801,
     "Key": 65,
     "DurationMs": 1440,
     "Vel": 80
    },
    {
     "TimeMs": 228803,
     "Key": 46,
     "DurationMs": 356,
     "Vel": 80
    },
    {
     "TimeMs": 229200,
     "Key": 53,
     "DurationMs": 360,
     "Vel": 80
    },
    {
     "TimeMs": 229600,
     "Key": 61,
     "DurationMs": 360,
     "Vel": 80
    },
    {
     "TimeMs": 230000,
     "Key": 53,
     "DurationMs": 360,
     "Vel": 80
    },
    {
     "TimeMs": 230400,
     "Key": 77,
     "DurationMs": 180,
     "Vel": 80
    },
    {
     "TimeMs": 230401,
     "Key": 65,
     "DurationMs": 180,
     "Vel": 80
    },
    {
     "TimeMs": 230403,
     "Key": 42,
     "DurationMs": 356,
     "Vel": 80
    },
    {
     "TimeMs": 230600,
     "Key": 75,
     "DurationMs": 180,
     "Vel": 80
    },
    {
     "TimeMs": 230800,
     "Key": 77,
     "DurationMs": 180,
     "Vel": 80
    },
    {
     "TimeMs": 230801,
     "Key": 49,
     "DurationMs": 358,
     "Vel": 80
    },
    {
     "TimeMs": 231000,
     "Key": 82,
     "DurationMs": 360,
     "Vel": 80
    },
    {
     "TimeMs": 231001,
     "Key": 70,
     "DurationMs": 360,
     "Vel": 80
    },
    {
     "TimeMs": 231200,
     "Key": 54,
     "DurationMs": 360,
     "Vel": 80
    },
    {
     "TimeMs": 231400,
     "Key": 77,
     "DurationMs": 180,
     "Vel": 80
    },
    {
     "TimeMs": 231401,
     "Key": 65,
     "DurationMs": 180,
     "Vel": 80
    },
    {
     "TimeMs": 231600,
     "Key": 75,
     "DurationMs": 360,
     "Vel": 80
    },
    {
     "TimeMs": 231601,
     "Key": 63,
     "DurationMs": 360,
     "Vel": 80
    },
    {
     "TimeMs": 231603,
     "Key": 49,
     "DurationMs": 360,
     "Vel": 80
    },
    {
     "TimeMs": 232000,
     "Key": 84,
     "DurationMs": 180,
     "Vel": 80
    },
    {
     "TimeMs": 232001,
     "Key": 72,
     "DurationMs": 180,
     "Vel": 80
    },
    {
     "TimeMs": 232003,
     "Key": 44,
     "DurationMs": 356,
     "Vel": 80
    },
    {
     "TimeMs": 232200,
     "Key": 82,
     "DurationMs": 180,
     "Vel": 80
    },
    {
     "TimeMs": 232400,
     "Key": 84,
     "DurationMs": 180,
     "Vel": 80
    },
    {
     "TimeMs": 232401,
     "Key": 51,
     "DurationMs": 358,
     "Vel": 80
    },
    {
     "TimeMs": 232600,
     "Key": 87,
     "DurationMs": 360,
     "Vel": 80
    },
    {
     "TimeMs": 232601,
     "Key": 75,
     "DurationMs": 360,
     "Vel": 80
    },
    {
     "TimeMs": 232800,
     "Key": 60,
     "DurationMs": 360,
     "Vel": 80
    },
    {
     "TimeMs": 233000,
     "Key": 85,
     "DurationMs": 180,
     "Vel": 80
    },
    {
     "TimeMs": 233001,
     "Key": 73,
     "DurationMs": 180,
     "Vel": 80
    },
    {
     "TimeMs": 233200,
     "Key": 84,
     "DurationMs": 360,
     "Vel": 80
    },
    {
     "TimeMs": 233201,
     "Key": 72,
     "DurationMs": 360,
     "Vel": 80
    },
    {
     "TimeMs": 233203,
     "Key": 51,
     "DurationMs": 360,
     "Vel": 80
    },
    {
     "TimeMs": 233600,
     "Key": 84,
     "DurationMs": 720,
     "Vel": 80
    },
    {
     "TimeMs": 233601,
     "Key": 72,
     "DurationMs": 720,
     "Vel": 80
    },
    {
     "TimeMs": 233603,
     "Key": 46,
     "DurationMs": 356,
     "Vel": 80
    },
    {
     "TimeMs": 234000,
     "Key": 53,
     "DurationMs": 360,
     "Vel": 80
    },
    {
     "TimeMs": 234400,
     "Key": 84,
     "DurationMs": 360,
     "Vel": 80
    },
    {
     "TimeMs": 234401,
     "Key": 72,
     "DurationMs": 360,
     "Vel": 80
    },
    {
     "TimeMs": 234403,
     "Key": 61,
     "DurationMs": 360,
     "Vel": 80
    },
    {
     "TimeMs": 234800,
     "Key": 85,
     "DurationMs": 360,
     "Vel": 80
    },
    {
     "TimeMs": 234801,
     "Key": 73,
     "DurationMs": 360,
     "Vel": 80
    },
    {
     "TimeMs": 234803,
     "Key": 53,
     "DurationMs": 360,
     "Vel": 80
    },
    {
     "TimeMs": 235200,
     "Key": 101,
     "DurationMs": 180,
     "Vel": 80
    },
    {
     "TimeMs": 235201,
     "Key": 46,
     "DurationMs": 358,
     "Vel": 80
    },
    {
     "TimeMs": 235400,
     "Key": 97,
     "DurationMs": 180,
     "Vel": 80
    },
    {
     "TimeMs": 235600,
     "Key": 96,
     "DurationMs": 180,
     "Vel": 80
    },
    {
     "TimeMs": 235601,
     "Key": 53,
     "DurationMs": 358,
     "Vel": 80
    },
    {
     "TimeMs": 235800,
     "Key": 94,
     "DurationMs": 180,
     "Vel": 80
    },
    {
     "TimeMs": 236000,
     "Key": 89,
     "DurationMs": 180,
     "Vel": 80
    },
    {
     "TimeMs": 236001,
     "Key": 61,
     "DurationMs": 358,
     "Vel": 80
    },
    {
     "TimeMs": 236200,
     "Key": 85,
     "DurationMs": 180,
     "Vel": 80
    },
    {
     "TimeMs": 236400,
     "Key": 84,
     "DurationMs": 180,
     "Vel": 80
    },
    {
     "TimeMs": 236401,
     "Key": 53,
     "DurationMs": 358,
     "Vel": 80
    },
    {
     "TimeMs": 236600,
     "Key": 82,
     "DurationMs": 180,
     "Vel": 80
    },
    {
     "TimeMs": 236800,
     "Key": 77,
     "DurationMs": 180,
     "Vel": 80
    },
    {
     "TimeMs": 236801,
     "Key": 42,
     "DurationMs": 358,
     "Vel": 80
    },
    {
     "TimeMs": 237000,
     "Key": 75,
     "DurationMs": 180,
     "Vel": 80
    },
    {
     "TimeMs": 237200,
     "Key": 77,
     "DurationMs": 180,
     "Vel": 80
    },
    {
     "TimeMs": 237201,
     "Key": 49,
     "DurationMs": 358,
     "Vel": 80
    },
    {
     "TimeMs": 237400,
     "Key": 82,
     "DurationMs": 360,
     "Vel": 80
    },
    {
     "TimeMs": 237401,
     "Key": 70,
     "DurationMs": 360,
     "Vel": 80
    },
    {
     "TimeMs": 237600,
     "Key": 54,
     "DurationMs": 360,
     "Vel": 80
    },
    {
     "TimeMs": 237800,
     "Key": 77,
     "DurationMs": 180,
     "Vel": 80
    },
    {
     "TimeMs": 237801,
     "Key": 65,
     "DurationMs": 180,
     "Vel": 80
    },
    {
     "TimeMs": 238000,
     "Key": 75,
     "DurationMs": 360,
     "Vel": 80
    },
    {
     "TimeMs": 238001,
     "Key": 63,
     "DurationMs": 360,
     "Vel": 80
    },
    {
     "TimeMs": 238003,
     "Key": 49,
     "DurationMs": 360,
     "Vel": 80
    },
    {
     "TimeMs": 238400,
     "Key": 77,
     "DurationMs": 720,
     "Vel": 80
    },
    {
     "TimeMs": 238401,
     "Key": 65,
     "DurationMs": 720,
     "Vel": 80
    },
    {
     "TimeMs": 238403,
     "Key": 44,
     "DurationMs": 356,
     "Vel": 80
    },
    {
     "TimeMs": 238800,
     "Key": 51,
     "DurationMs": 360,
     "Vel": 80
    },
    {
     "TimeMs": 239200,
     "Key": 75,
     "DurationMs": 720,
     "Vel": 80
    },
    {
     "TimeMs": 239201,
     "Key": 63,
     "DurationMs": 720,
     "Vel": 80
    },
    {
     "TimeMs": 239203,
     "Key": 60,
     "DurationMs": 356,
     "Vel": 80
    },
    {
     "TimeMs": 239600,
     "Key": 51,
     "DurationMs": 360,
     "Vel": 80
    },
    {
     "TimeMs": 240000,
     "Key": 65,
     "DurationMs": 180,
     "Vel": 80
    },
    {
     "TimeMs": 240001,
     "Key": 77,
     "DurationMs": 180,
     "Vel": 80
    },
    {
     "TimeMs": 240003,
     "Key": 46,
     "DurationMs": 356,
     "Vel": 80
    },
    {
     "TimeMs": 240200,
     "Key": 75,
     "DurationMs": 180,
     "Vel": 80
    },
    {
     "TimeMs": 240400,
     "Key": 77,
     "DurationMs": 180,
     "Vel": 80
    },
    {
     "TimeMs": 240401,
     "Key": 53,
     "DurationMs": 358,
     "Vel": 80
    },
    {
     "TimeMs": 240600,
     "Key": 70,
     "DurationMs": 360,
     "Vel": 80
    },
    {
     "TimeMs": 240601,
     "Key": 82,
     "DurationMs": 360,
     "Vel": 80
    },
    {
     "TimeMs": 240800,
     "Key": 61,
     "DurationMs": 360,
     "Vel": 80
    },
    {
     "TimeMs": 241000,
     "Key": 77,
     "DurationMs": 180,
     "Vel": 80
    },
    {
     "TimeMs": 241001,
     "Key": 65,
     "DurationMs": 180,
     "Vel": 80
    },
    {
     "TimeMs": 241200,
     "Key": 75,
     "DurationMs": 360,
     "Vel": 80
    },
    {
     "TimeMs": 241201,
     "Key": 63,
     "DurationMs": 360,
     "Vel": 80
    },
    {
     "TimeMs": 241203,
     "Key": 53,
     "DurationMs": 360,
     "Vel": 80
    },
    {
     "TimeMs": 241600,
     "Key": 77,
     "DurationMs": 1440,
     "Vel": 80
    },
    {
     "TimeMs": 241601,
     "Key": 65,
     "DurationMs": 1440,
     "Vel": 80
    },
    {
     "TimeMs": 241603,
     "Key": 46,
     "DurationMs": 356,
     "Vel": 80
    },
    {
     "TimeMs": 242000,
     "Key": 53,
     "DurationMs": 360,
     "Vel": 80
    },
    {
     "TimeMs": 242400,
     "Key": 61,
     "DurationMs": 360,
     "Vel": 80
    },
    {
     "TimeMs": 242800,
     "Key": 53,
     "DurationMs": 360,
     "Vel": 80
    },
    {
     "TimeMs": 243200,
     "Key": 77,
     "DurationMs": 180,
     "Vel": 80
    },
    {
     "TimeMs": 243201,
     "Key": 65,
     "DurationMs": 180,
     "Vel": 80
    },
    {
     "TimeMs": 243203,
     "Key": 42,
     "DurationMs": 356,
     "Vel": 80
    },
    {
     "TimeMs": 243400,
     "Key": 75,
     "DurationMs": 180,
     "Vel": 80
    },
    {
     "TimeMs": 243600,
     "Key": 77,
     "DurationMs": 180,
     "Vel": 80
    },
    {
     "TimeMs": 243601,
     "Key": 49,
     "DurationMs": 358,
     "Vel": 80
    },
    {
     "TimeMs": 243800,
     "Key": 82,
     "DurationMs": 360,
     "Vel": 80
    },
    {
     "TimeMs": 243801,
     "Key": 70,
     "DurationMs": 360,
     "Vel": 80
    },
    {
     "TimeMs": 244000,
     "Key": 54,
     "DurationMs": 360,
     "Vel": 80
    },
    {
     "TimeMs": 244200,
     "Key": 77,
     "DurationMs": 180,
     "Vel": 80
    },
    {
     "TimeMs": 244201,
     "Key": 65,
     "DurationMs": 180,
     "Vel": 80
    },
    {
     "TimeMs": 244400,
     "Key": 75,
     "DurationMs": 360,
     "Vel": 80
    },
    {
     "TimeMs": 244401,
     "Key": 63,
     "DurationMs": 360,
     "Vel": 80
    },
    {
     "TimeMs": 244403,
     "Key": 49,
     "DurationMs": 360,
     "Vel": 80
    },
    {
     "TimeMs": 244800,
     "Key": 84,
     "DurationMs": 180,
     "Vel": 80
    },
    {
     "TimeMs": 244801,
     "Key": 72,
     "DurationMs": 180,
     "Vel": 80
    },
    {
     "TimeMs": 244803,
     "Key": 44,
     "DurationMs": 356,
     "Vel": 80
    },
    {
     "TimeMs": 245000,
     "Key": 82,
     "DurationMs": 180,
     "Vel": 80
    },
    {
     "TimeMs": 245001,
     "Key": 70,
     "DurationMs": 180,
     "Vel": 80
    },
    {
     "TimeMs": 245200,
     "Key": 84,
     "DurationMs": 180,
     "Vel": 80
    },
    {
     "TimeMs": 245201,
     "Key": 72,
     "DurationMs": 180,
     "Vel": 80
    },
    {
     "TimeMs": 245203,
     "Key": 51,
     "DurationMs": 356,
     "Vel": 80
    },
    {
     "TimeMs": 245400,
     "Key": 87,
     "DurationMs": 360,
     "Vel": 80
    },
    {
     "TimeMs": 245401,
     "Key": 75,
     "DurationMs": 360,
     "Vel": 80
    },
    {
     "TimeMs": 245600,
     "Key": 60,
     "DurationMs": 360,
     "Vel": 80
    },
    {
     "TimeMs": 245800,
     "Key": 85,
     "DurationMs": 180,
     "Vel": 80
    },
    {
     "TimeMs": 245801,
     "Key": 73,
     "DurationMs": 180,
     "Vel": 80
    },
    {
     "TimeMs": 246000,
     "Key": 84,
     "DurationMs": 360,
     "Vel": 80
    },
    {
     "TimeMs": 246001,
     "Key": 72,
     "DurationMs": 360,
     "Vel": 80
    },
    {
     "TimeMs": 246003,
     "Key": 51,
     "DurationMs": 360,
     "Vel": 80
    },
    {
     "TimeMs": 246400,
     "Key": 84,
     "DurationMs": 720,
     "Vel": 80
    },
    {
     "TimeMs": 246401,
     "Key": 72,
     "DurationMs": 720,
     "Vel": 80
    },
    {
     "TimeMs": 246403,
     "Key": 46,
     "DurationMs": 356,
     "Vel": 80
    },
    {
     "TimeMs": 246800,
     "Key": 53,
     "DurationMs": 360,
     "Vel": 80
    },
    {
     "TimeMs": 247200,
     "Key": 84,
     "DurationMs": 360,
     "Vel": 80
    },
    {
     "TimeMs": 247201,
     "Key": 72,
     "DurationMs": 360,
     "Vel": 80
    },
    {
     "TimeMs": 247203,
     "Key": 61,
     "DurationMs": 360,
     "Vel": 80
    },
    {
     "TimeMs": 247600,
     "Key": 85,
     "DurationMs": 360,
     "Vel": 80
    },
    {
     "TimeMs": 247601,
     "Key": 73,
     "DurationMs": 360,
     "Vel": 80
    },
    {
     "TimeMs": 247603,
     "Key": 53,
     "DurationMs": 360,
     "Vel": 80
    },
    {
     "TimeMs": 248000,
     "Key": 89,
     "DurationMs": 180,
     "Vel": 80
    },
    {
     "TimeMs": 248001,
     "Key": 46,
     "DurationMs": 358,
     "Vel": 80
    },
    {
     "TimeMs": 248200,
     "Key": 85,
     "DurationMs": 180,
     "Vel": 80
    },
    {
     "TimeMs": 248400,
     "Key": 84,
     "DurationMs": 180,
     "Vel": 80
    },
    {
     "TimeMs": 248401,
     "Key": 53,
     "DurationMs": 358,
     "Vel": 80
    },
    {
     "TimeMs": 248600,
     "Key": 82,
     "DurationMs": 180,
     "Vel": 80
    },
    {
     "TimeMs": 248800,
     "Key": 77,
     "DurationMs": 180,
     "Vel": 80
    },
    {
     "TimeMs": 248801,
     "Key": 61,
     "DurationMs": 358,
     "Vel": 80
    },
    {
     "TimeMs": 249000,
     "Key": 73,
     "DurationMs": 180,
     "Vel": 80
    },
    {
     "TimeMs": 249200,
     "Key": 72,
     "DurationMs": 180,
     "Vel": 80
    },
    {
     "TimeMs": 249201,
     "Key": 53,
     "DurationMs": 358,
     "Vel": 80
    },
    {
     "TimeMs": 249400,
     "Key": 70,
     "DurationMs": 180,
     "Vel": 80
    },
    {
     "TimeMs": 249600,
     "Key": 77,
     "DurationMs": 180,
     "Vel": 80
    },
    {
     "TimeMs": 249601,
     "Key": 42,
     "DurationMs": 358,
     "Vel": 80
    },
    {
     "TimeMs": 249800,
     "Key": 75,
     "DurationMs": 180,
     "Vel": 80
    },
    {
     "TimeMs": 250000,
     "Key": 77,
     "DurationMs": 180,
     "Vel": 80
    },
    {
     "TimeMs": 250001,
     "Key": 49,
     "DurationMs": 358,
     "Vel": 80
    },
    {
     "TimeMs": 250200,
     "Key": 82,
     "DurationMs": 360,
     "Vel": 80
    },
    {
     "TimeMs": 250201,
     "Key": 70,
     "DurationMs": 360,
     "Vel": 80
    },
    {
     "TimeMs": 250400,
     "Key": 54,
     "DurationMs": 360,
     "Vel": 80
    },
    {
     "TimeMs": 250600,
     "Key": 77,
     "DurationMs": 180,
     "Vel": 80
    },
    {
     "TimeMs": 250601,
     "Key": 65,
     "DurationMs": 180,
     "Vel": 80
    },
    {
     "TimeMs": 250800,
     "Key": 75,
     "DurationMs": 360,
     "Vel": 80
    },
    {
     "TimeMs": 250801,
     "Key": 63,
     "DurationMs": 360,
     "Vel": 80
    },
    {
     "TimeMs": 250803,
     "Key": 49,
     "DurationMs": 360,
     "Vel": 80
    },
    {
     "TimeMs": 251200,
     "Key": 77,
     "DurationMs": 720,
     "Vel": 80
    },
    {
     "TimeMs": 251201,
     "Key": 65,
     "DurationMs": 720,
     "Vel": 80
    },
    {
     "TimeMs": 251203,
     "Key": 44,
     "DurationMs": 356,
     "Vel": 80
    },
    {
     "TimeMs": 251600,
     "Key": 51,
     "DurationMs": 360,
     "Vel": 80
    },
    {
     "TimeMs": 252000,
     "Key": 75,
     "DurationMs": 720,
     "Vel": 80
    },
    {
     "TimeMs": 252001,
     "Key": 63,
     "DurationMs": 720,
     "Vel": 80
    },
    {
     "TimeMs": 252003,
     "Key": 60,
     "DurationMs": 356,
     "Vel": 80
    },
    {
     "TimeMs": 252400,
     "Key": 51,
     "DurationMs": 360,
     "Vel": 80
    },
    {
     "TimeMs": 252800,
     "Key": 77,
     "DurationMs": 180,
     "Vel": 80
    },
    {
     "TimeMs": 252801,
     "Key": 65,
     "DurationMs": 180,
     "Vel": 80
    },
    {
     "TimeMs": 252803,
     "Key": 46,
     "DurationMs": 356,
     "Vel": 80
    },
    {
     "TimeMs": 253000,
     "Key": 75,
     "DurationMs": 180,
     "Vel": 80
    },
    {
     "TimeMs": 253200,
     "Key": 77,
     "DurationMs": 180,
     "Vel": 80
    },
    {
     "TimeMs": 253201,
     "Key": 53,
     "DurationMs": 358,
     "Vel": 80
    },
    {
     "TimeMs": 253400,
     "Key": 82,
     "DurationMs": 360,
     "Vel": 80
    },
    {
     "TimeMs": 253401,
     "Key": 70,
     "DurationMs": 360,
     "Vel": 80
    },
    {
     "TimeMs": 253600,
     "Key": 61,
     "DurationMs": 360,
     "Vel": 80
    },
    {
     "TimeMs": 253800,
     "Key": 77,
     "DurationMs": 180,
     "Vel": 80
    },
    {
     "TimeMs": 253801,
     "Key": 65,
     "DurationMs": 180,
     "Vel": 80
    },
    {
     "TimeMs": 254000,
     "Key": 75,
     "DurationMs": 360,
     "Vel": 80
    },
    {
     "TimeMs": 254001,
     "Key": 63,
     "DurationMs": 360,
     "Vel": 80
    },
    {
     "TimeMs": 254003,
     "Key": 53,
     "DurationMs": 360,
     "Vel": 80
    },
    {
     "TimeMs": 254400,
     "Key": 77,
     "DurationMs": 1440,
     "Vel": 80
    },
    {
     "TimeMs": 254401,
     "Key": 65,
     "DurationMs": 1440,
     "Vel": 80
    },
    {
     "TimeMs": 254403,
     "Key": 46,
     "DurationMs": 356,
     "Vel": 80
    },
    {
     "TimeMs": 254800,
     "Key": 53,
     "DurationMs": 360,
     "Vel": 80
    },
    {
     "TimeMs": 255200,
     "Key": 61,
     "DurationMs": 360,
     "Vel": 80
    },
    {
     "TimeMs": 255600,
     "Key": 53,
     "DurationMs": 360,
     "Vel": 80
    },
    {
     "TimeMs": 256000,
     "Key": 77,
     "DurationMs": 180,
     "Vel": 80
    },
    {
     "TimeMs": 256001,
     "Key": 65,
     "DurationMs": 180,
     "Vel": 80
    },
    {
     "TimeMs": 256003,
     "Key": 42,
     "DurationMs": 356,
     "Vel": 80
    },
    {
     "TimeMs": 256200,
     "Key": 75,
     "DurationMs": 180,
     "Vel": 80
    },
    {
     "TimeMs": 256400,
     "Key": 77,
     "DurationMs": 180,
     "Vel": 80
    },
    {
     "TimeMs": 256401,
     "Key": 49,
     "DurationMs": 358,
     "Vel": 80
    },
    {
     "TimeMs": 256600,
     "Key": 82,
     "DurationMs": 360,
     "Vel": 80
    },
    {
     "TimeMs": 256601,
     "Key": 70,
     "DurationMs": 360,
     "Vel": 80
    },
    {
     "TimeMs": 256800,
     "Key": 54,
     "DurationMs": 360,
     "Vel": 80
    },
    {
     "TimeMs": 257000,
     "Key": 77,
     "DurationMs": 180,
     "Vel": 80
    },
    {
     "TimeMs": 257001,
     "Key": 65,
     "DurationMs": 180,
     "Vel": 80
    },
    {
     "TimeMs": 257200,
     "Key": 75,
     "DurationMs": 360,
     "Vel": 80
    },
    {
     "TimeMs": 257201,
     "Key": 63,
     "DurationMs": 360,
     "Vel": 80
    },
    {
     "TimeMs": 257203,
     "Key": 49,
     "DurationMs": 360,
     "Vel": 80
    },
    {
     "TimeMs": 257600,
     "Key": 84,
     "DurationMs": 180,
     "Vel": 80
    },
    {
     "TimeMs": 257601,
     "Key": 72,
     "DurationMs": 180,
     "Vel": 80
    },
    {
     "TimeMs": 257603,
     "Key": 44,
     "DurationMs": 356,
     "Vel": 80
    },
    {
     "TimeMs": 257800,
     "Key": 82,
     "DurationMs": 180,
     "Vel": 80
    },
    {
     "TimeMs": 257801,
     "Key": 70,
     "DurationMs": 180,
     "Vel": 80
    },
    {
     "TimeMs": 258000,
     "Key": 84,
     "DurationMs": 180,
     "Vel": 80
    },
    {
     "TimeMs": 258001,
     "Key": 72,
     "DurationMs": 180,
     "Vel": 80
    },
    {
     "TimeMs": 258003,
     "Key": 51,
     "DurationMs": 356,
     "Vel": 80
    },
    {
     "TimeMs": 258200,
     "Key": 87,
     "DurationMs": 360,
     "Vel": 80
    },
    {
     "TimeMs": 258201,
     "Key": 75,
     "DurationMs": 360,
     "Vel": 80
    },
    {
     "TimeMs": 258400,
     "Key": 60,
     "DurationMs": 360,
     "Vel": 80
    },
    {
     "TimeMs": 258600,
     "Key": 85,
     "DurationMs": 180,
     "Vel": 80
    },
    {
     "TimeMs": 258601,
     "Key": 73,
     "DurationMs": 180,
     "Vel": 80
    },
    {
     "TimeMs": 258800,
     "Key": 84,
     "DurationMs": 360,
     "Vel": 80
    },
    {
     "TimeMs": 258801,
     "Key": 72,
     "DurationMs": 360,
     "Vel": 80
    },
    {
     "TimeMs": 258803,
     "Key": 51,
     "DurationMs": 360,
     "Vel": 80
    },
    {
     "TimeMs": 259200,
     "Key": 84,
     "DurationMs": 720,
     "Vel": 80
    },
    {
     "TimeMs": 259201,
     "Key": 72,
     "DurationMs": 720,
     "Vel": 80
    },
    {
     "TimeMs": 259203,
     "Key": 46,
     "DurationMs": 356,
     "Vel": 80
    },
    {
     "TimeMs": 259600,
     "Key": 53,
     "DurationMs": 360,
     "Vel": 80
    },
    {
     "TimeMs": 260000,
     "Key": 84,
     "DurationMs": 360,
     "Vel": 80
    },
    {
     "TimeMs": 260001,
     "Key": 72,
     "DurationMs": 360,
     "Vel": 80
    },
    {
     "TimeMs": 260003,
     "Key": 58,
     "DurationMs": 360,
     "Vel": 80
    },
    {
     "TimeMs": 260400,
     "Key": 85,
     "DurationMs": 360,
     "Vel": 80
    },
    {
     "TimeMs": 260401,
     "Key": 73,
     "DurationMs": 360,
     "Vel": 80
    },
    {
     "TimeMs": 260403,
     "Key": 53,
     "DurationMs": 360,
     "Vel": 80
    },
    {
     "TimeMs": 260800,
     "Key": 89,
     "DurationMs": 180,
     "Vel": 80
    },
    {
     "TimeMs": 260801,
     "Key": 77,
     "DurationMs": 180,
     "Vel": 80
    },
    {
     "TimeMs": 260803,
     "Key": 46,
     "DurationMs": 356,
     "Vel": 80
    },
    {
     "TimeMs": 261000,
     "Key": 85,
     "DurationMs": 180,
     "Vel": 80
    },
    {
     "TimeMs": 261001,
     "Key": 73,
     "DurationMs": 180,
     "Vel": 80
    },
    {
     "TimeMs": 261200,
     "Key": 84,
     "DurationMs": 180,
     "Vel": 80
    },
    {
     "TimeMs": 261201,
     "Key": 72,
     "DurationMs": 180,
     "Vel": 80
    },
    {
     "TimeMs": 261203,
     "Key": 53,
     "DurationMs": 356,
     "Vel": 80
    },
    {
     "TimeMs": 261400,
     "Key": 82,
     "DurationMs": 180,
     "Vel": 80
    },
    {
     "TimeMs": 261401,
     "Key": 70,
     "DurationMs": 180,
     "Vel": 80
    },
    {
     "TimeMs": 261600,
     "Key": 65,
     "DurationMs": 180,
     "Vel": 80
    },
    {
     "TimeMs": 261601,
     "Key": 77,
     "DurationMs": 180,
     "Vel": 80
    },
    {
     "TimeMs": 261603,
     "Key": 58,
     "DurationMs": 716,
     "Vel": 80
    },
    {
     "TimeMs": 261800,
     "Key": 61,
     "DurationMs": 180,
     "Vel": 80
    },
    {
     "TimeMs": 261801,
     "Key": 73,
     "DurationMs": 180,
     "Vel": 80
    },
    {
     "TimeMs": 262000,
     "Key": 60,
     "DurationMs": 180,
     "Vel": 80
    },
    {
     "TimeMs": 262001,
     "Key": 72,
     "DurationMs": 180,
     "Vel": 80
    },
    {
     "TimeMs": 262200,
     "Key": 58,
     "DurationMs": 120,
     "Vel": 80
    },
    {
     "TimeMs": 262201,
     "Key": 70,
     "DurationMs": 180,
     "Vel": 80
    },
    {
     "TimeMs": 262400,
     "Key": 101,
     "DurationMs": 180,
     "Vel": 80
    },
    {
     "TimeMs": 262401,
     "Key": 87,
     "DurationMs": 358,
     "Vel": 80
    },
    {
     "TimeMs": 262403,
     "Key": 78,
     "DurationMs": 358,
     "Vel": 80
    },
    {
     "TimeMs": 262600,
     "Key": 96,
     "DurationMs": 180,
     "Vel": 80
    },
    {
     "TimeMs": 262800,
     "Key": 97,
     "DurationMs": 180,
     "Vel": 80
    },
    {
     "TimeMs": 262801,
     "Key": 85,
     "DurationMs": 358,
     "Vel": 80
    },
    {
     "TimeMs": 263000,
     "Key": 94,
     "DurationMs": 180,
     "Vel": 80
    },
    {
     "TimeMs": 263200,
     "Key": 101,
     "DurationMs": 180,
     "Vel": 80
    },
    {
     "TimeMs": 263201,
     "Key": 84,
     "DurationMs": 358,
     "Vel": 80
    },
    {
     "TimeMs": 263400,
     "Key": 96,
     "DurationMs": 180,
     "Vel": 80
    },
    {
     "TimeMs": 263600,
     "Key": 97,
     "DurationMs": 180,
     "Vel": 80
    },
    {
     "TimeMs": 263601,
     "Key": 82,
     "DurationMs": 358,
     "Vel": 80
    },
    {
     "TimeMs": 263800,
     "Key": 94,
     "DurationMs": 180,
     "Vel": 80
    },
    {
     "TimeMs": 264000,
     "Key": 101,
     "DurationMs": 180,
     "Vel": 80
    },
    {
     "TimeMs": 264001,
     "Key": 80,
     "DurationMs": 358,
     "Vel": 80
    },
    {
     "TimeMs": 264200,
     "Key": 96,
     "DurationMs": 180,
     "Vel": 80
    },
    {
     "TimeMs": 264400,
     "Key": 97,
     "DurationMs": 180,
     "Vel": 80
    },
    {
     "TimeMs": 264401,
     "Key": 78,
     "DurationMs": 358,
     "Vel": 80
    },
    {
     "TimeMs": 264600,
     "Key": 94,
     "DurationMs": 180,
     "Vel": 80
    },
    {
     "TimeMs": 264800,
     "Key": 101,
     "DurationMs": 180,
     "Vel": 80
    },
    {
     "TimeMs": 264801,
     "Key": 77,
     "DurationMs": 358,
     "Vel": 80
    },
    {
     "TimeMs": 265000,
     "Key": 96,
     "DurationMs": 180,
     "Vel": 80
    },
    {
     "TimeMs": 265200,
     "Key": 97,
     "DurationMs": 180,
     "Vel": 80
    },
    {
     "TimeMs": 265201,
     "Key": 75,
     "DurationMs": 358,
     "Vel": 80
    },
    {
     "TimeMs": 265400,
     "Key": 94,
     "DurationMs": 180,
     "Vel": 80
    },
    {
     "TimeMs": 265600,
     "Key": 101,
     "DurationMs": 180,
     "Vel": 80
    },
    {
     "TimeMs": 265601,
     "Key": 77,
     "DurationMs": 358,
     "Vel": 80
    },
    {
     "TimeMs": 265603,
     "Key": 68,
     "DurationMs": 358,
     "Vel": 80
    },
    {
     "TimeMs": 265800,
     "Key": 96,
     "DurationMs": 180,
     "Vel": 80
    },
    {
     "TimeMs": 266000,
     "Key": 97,
     "DurationMs": 180,
     "Vel": 80
    },
    {
     "TimeMs": 266001,
     "Key": 75,
     "DurationMs": 358,
     "Vel": 80
    },
    {
     "TimeMs": 266200,
     "Key": 94,
     "DurationMs": 180,
     "Vel": 80
    },
    {
     "TimeMs": 266400,
     "Key": 101,
     "DurationMs": 180,
     "Vel": 80
    },
    {
     "TimeMs": 266401,
     "Key": 73,
     "DurationMs": 358,
     "Vel": 80
    },
    {
     "TimeMs": 266600,
     "Key": 96,
     "DurationMs": 180,
     "Vel": 80
    },
    {
     "TimeMs": 266800,
     "Key": 97,
     "DurationMs": 180,
     "Vel": 80
    },
    {
     "TimeMs": 266801,
     "Key": 72,
     "DurationMs": 358,
     "Vel": 80
    },
    {
     "TimeMs": 267000,
     "Key": 94,
     "DurationMs": 180,
     "Vel": 80
    },
    {
     "TimeMs": 267200,
     "Key": 101,
     "DurationMs": 180,
     "Vel": 80
    },
    {
     "TimeMs": 267201,
     "Key": 70,
     "DurationMs": 358,
     "Vel": 80
    },
    {
     "TimeMs": 267400,
     "Key": 96,
     "DurationMs": 180,
     "Vel": 80
    },
    {
     "TimeMs": 267600,
     "Key": 97,
     "DurationMs": 180,
     "Vel": 80
    },
    {
     "TimeMs": 267601,
     "Key": 68,
     "DurationMs": 358,
     "Vel": 80
    },
    {
     "TimeMs": 267800,
     "Key": 94,
     "DurationMs": 180,
     "Vel": 80
    },
    {
     "TimeMs": 268000,
     "Key": 101,
     "DurationMs": 180,
     "Vel": 80
    },
    {
     "TimeMs": 268001,
     "Key": 66,
     "DurationMs": 358,
     "Vel": 80
    },
    {
     "TimeMs": 268200,
     "Key": 96,
     "DurationMs": 180,
     "Vel": 80
    },
    {
     "TimeMs": 268400,
     "Key": 97,
     "DurationMs": 180,
     "Vel": 80
    },
    {
     "TimeMs": 268401,
     "Key": 65,
     "DurationMs": 358,
     "Vel": 80
    },
    {
     "TimeMs": 268600,
     "Key": 94,
     "DurationMs": 180,
     "Vel": 80
    },
    {
     "TimeMs": 268800,
     "Key": 89,
     "DurationMs": 180,
     "Vel": 80
    },
    {
     "TimeMs": 268801,
     "Key": 77,
     "DurationMs": 358,
     "Vel": 80
    },
    {
     "TimeMs": 268803,
     "Key": 70,
     "DurationMs": 358,
     "Vel": 80
    },
    {
     "TimeMs": 269000,
     "Key": 84,
     "DurationMs": 180,
     "Vel": 80
    },
    {
     "TimeMs": 269200,
     "Key": 85,
     "DurationMs": 180,
     "Vel": 80
    },
    {
     "TimeMs": 269201,
     "Key": 75,
     "DurationMs": 358,
     "Vel": 80
    },
    {
     "TimeMs": 269400,
     "Key": 82,
     "DurationMs": 180,
     "Vel": 80
    },
    {
     "TimeMs": 269600,
     "Key": 89,
     "DurationMs": 180,
     "Vel": 80
    },
    {
     "TimeMs": 269601,
     "Key": 73,
     "DurationMs": 358,
     "Vel": 80
    },
    {
     "TimeMs": 269800,
     "Key": 84,
     "DurationMs": 180,
     "Vel": 80
    },
    {
     "TimeMs": 270000,
     "Key": 85,
     "DurationMs": 180,
     "Vel": 80
    },
    {
     "TimeMs": 270001,
     "Key": 72,
     "DurationMs": 358,
     "Vel": 80
    },
    {
     "TimeMs": 270200,
     "Key": 82,
     "DurationMs": 180,
     "Vel": 80
    },
    {
     "TimeMs": 270400,
     "Key": 89,
     "DurationMs": 180,
     "Vel": 80
    },
    {
     "TimeMs": 270401,
     "Key": 70,
     "DurationMs": 358,
     "Vel": 80
    },
    {
     "TimeMs": 270600,
     "Key": 84,
     "DurationMs": 180,
     "Vel": 80
    },
    {
     "TimeMs": 270800,
     "Key": 85,
     "DurationMs": 180,
     "Vel": 80
    },
    {
     "TimeMs": 270801,
     "Key": 68,
     "DurationMs": 358,
     "Vel": 80
    },
    {
     "TimeMs": 271000,
     "Key": 82,
     "DurationMs": 180,
     "Vel": 80
    },
    {
     "TimeMs": 271200,
     "Key": 89,
     "DurationMs": 180,
     "Vel": 80
    },
    {
     "TimeMs": 271201,
     "Key": 66,
     "DurationMs": 358,
     "Vel": 80
    },
    {
     "TimeMs": 271400,
     "Key": 84,
     "DurationMs": 180,
     "Vel": 80
    },
    {
     "TimeMs": 271600,
     "Key": 85,
     "DurationMs": 180,
     "Vel": 80
    },
    {
     "TimeMs": 271601,
     "Key": 65,
     "DurationMs": 358,
     "Vel": 80
    },
    {
     "TimeMs": 271800,
     "Key": 82,
     "DurationMs": 180,
     "Vel": 80
    },
    {
     "TimeMs": 272000,
     "Key": 89,
     "DurationMs": 180,
     "Vel": 80
    },
    {
     "TimeMs": 272001,
     "Key": 58,
     "DurationMs": 358,
     "Vel": 80
    },
    {
     "TimeMs": 272003,
     "Key": 65,
     "DurationMs": 358,
     "Vel": 80
    },
    {
     "TimeMs": 272200,
     "Key": 84,
     "DurationMs": 180,
     "Vel": 80
    },
    {
     "TimeMs": 272400,
     "Key": 85,
     "DurationMs": 180,
     "Vel": 80
    },
    {
     "TimeMs": 272401,
     "Key": 61,
     "DurationMs": 358,
     "Vel": 80
    },
    {
     "TimeMs": 272600,
     "Key": 82,
     "DurationMs": 180,
     "Vel": 80
    },
    {
     "TimeMs": 272800,
     "Key": 89,
     "DurationMs": 180,
     "Vel": 80
    },
    {
     "TimeMs": 272801,
     "Key": 60,
     "DurationMs": 358,
     "Vel": 80
    },
    {
     "TimeMs": 273000,
     "Key": 84,
     "DurationMs": 180,
     "Vel": 80
    },
    {
     "TimeMs": 273200,
     "Key": 85,
     "DurationMs": 180,
     "Vel": 80
    },
    {
     "TimeMs": 273201,
     "Key": 58,
     "DurationMs": 358,
     "Vel": 80
    },
    {
     "TimeMs": 273400,
     "Key": 82,
     "DurationMs": 180,
     "Vel": 80
    },
    {
     "TimeMs": 273600,
     "Key": 89,
     "DurationMs": 180,
     "Vel": 80
    },
    {
     "TimeMs": 273601,
     "Key": 53,
     "DurationMs": 358,
     "Vel": 80
    },
    {
     "TimeMs": 273800,
     "Key": 84,
     "DurationMs": 180,
     "Vel": 80
    },
    {
     "TimeMs": 274000,
     "Key": 85,
     "DurationMs": 180,
     "Vel": 80
    },
    {
     "TimeMs": 274001,
     "Key": 49,
     "DurationMs": 358,
     "Vel": 80
    },
    {
     "TimeMs": 274200,
     "Key": 82,
     "DurationMs": 180,
     "Vel": 80
    },
    {
     "TimeMs": 274400,
     "Key": 89,
     "DurationMs": 180,
     "Vel": 80
    },
    {
     "TimeMs": 274401,
     "Key": 48,
     "DurationMs": 358,
     "Vel": 80
    },
    {
     "TimeMs": 274600,
     "Key": 84,
     "DurationMs": 180,
     "Vel": 80
    },
    {
     "TimeMs": 274800,
     "Key": 85,
     "DurationMs": 180,
     "Vel": 80
    },
    {
     "TimeMs": 274801,
     "Key": 46,
     "DurationMs": 358,
     "Vel": 80
    },
    {
     "TimeMs": 275000,
     "Key": 82,
     "DurationMs": 180,
     "Vel": 80
    },
    {
     "TimeMs": 275200,
     "Key": 101,
     "DurationMs": 180,
     "Vel": 80
    },
    {
     "TimeMs": 275201,
     "Key": 87,
     "DurationMs": 358,
     "Vel": 80
    },
    {
     "TimeMs": 275203,
     "Key": 78,
     "DurationMs": 358,
     "Vel": 80
    },
    {
     "TimeMs": 275400,
     "Key": 96,
     "DurationMs": 180,
     "Vel": 80
    },
    {
     "TimeMs": 275600,
     "Key": 97,
     "DurationMs": 180,
     "Vel": 80
    },
    {
     "TimeMs": 275601,
     "Key": 85,
     "DurationMs": 358,
     "Vel": 80
    },
    {
     "TimeMs": 275800,
     "Key": 94,
     "DurationMs": 180,
     "Vel": 80
    },
    {
     "TimeMs": 276000,
     "Key": 101,
     "DurationMs": 180,
     "Vel": 80
    },
    {
     "TimeMs": 276001,
     "Key": 84,
     "DurationMs": 358,
     "Vel": 80
    },
    {
     "TimeMs": 276200,
     "Key": 96,
     "DurationMs": 180,
     "Vel": 80
    },
    {
     "TimeMs": 276400,
     "Key": 97,
     "DurationMs": 180,
     "Vel": 80
    },
    {
     "TimeMs": 276401,
     "Key": 82,
     "DurationMs": 358,
     "Vel": 80
    },
    {
     "TimeMs": 276600,
     "Key": 94,
     "DurationMs": 180,
     "Vel": 80
    },
    {
     "TimeMs": 276800,
     "Key": 101,
     "DurationMs": 180,
     "Vel": 80
    },
    {
     "TimeMs": 276801,
     "Key": 80,
     "DurationMs": 358,
     "Vel": 80
    },
    {
     "TimeMs": 277000,
     "Key": 96,
     "DurationMs": 180,
     "Vel": 80
    },
    {
     "TimeMs": 277200,
     "Key": 97,
     "DurationMs": 180,
     "Vel": 80
    },
    {
     "TimeMs": 277201,
     "Key": 78,
     "DurationMs": 358,
     "Vel": 80
    },
    {
     "TimeMs": 277400,
     "Key": 94,
     "DurationMs": 180,
     "Vel": 80
    },
    {
     "TimeMs": 277600,
     "Key": 101,
     "DurationMs": 180,
     "Vel": 80
    },
    {
     "TimeMs": 277601,
     "Key": 77,
     "DurationMs": 358,
     "Vel": 80
    },
    {
     "TimeMs": 277800,
     "Key": 96,
     "DurationMs": 180,
     "Vel": 80
    },
    {
     "TimeMs": 278000,
     "Key": 97,
     "DurationMs": 180,
     "Vel": 80
    },
    {
     "TimeMs": 278001,
     "Key": 75,
     "DurationMs": 358,
     "Vel": 80
    },
    {
     "TimeMs": 278200,
     "Key": 94,
     "DurationMs": 180,
     "Vel": 80
    },
    {
     "TimeMs": 278400,
     "Key": 101,
     "DurationMs": 180,
     "Vel": 80
    },
    {
     "TimeMs": 278401,
     "Key": 77,
     "DurationMs": 358,
     "Vel": 80
    },
    {
     "TimeMs": 278403,
     "Key": 68,
     "DurationMs": 358,
     "Vel": 80
    },
    {
     "TimeMs": 278600,
     "Key": 96,
     "DurationMs": 180,
     "Vel": 80
    },
    {
     "TimeMs": 278800,
     "Key": 97,
     "DurationMs": 180,
     "Vel": 80
    },
    {
     "TimeMs": 278801,
     "Key": 75,
     "DurationMs": 358,
     "Vel": 80
    },
    {
     "TimeMs": 279000,
     "Key": 94,
     "DurationMs": 180,
     "Vel": 80
    },
    {
     "TimeMs": 279200,
     "Key": 101,
     "DurationMs": 180,
     "Vel": 80
    },
    {
     "TimeMs": 279201,
     "Key": 73,
     "DurationMs": 358,
     "Vel": 80
    },
    {
     "TimeMs": 279400,
     "Key": 96,
     "DurationMs": 180,
     "Vel": 80
    },
    {
     "TimeMs": 279600,
     "Key": 97,
     "DurationMs": 180,
     "Vel": 80
    },
    {
     "TimeMs": 279601,
     "Key": 72,
     "DurationMs": 358,
     "Vel": 80
    },
    {
     "TimeMs": 279800,
     "Key": 94,
     "DurationMs": 180,
     "Vel": 80
    },
    {
     "TimeMs": 280000,
     "Key": 101,
     "DurationMs": 180,
     "Vel": 80
    },
    {
     "TimeMs": 280001,
     "Key": 70,
     "DurationMs": 358,
     "Vel": 80
    },
    {
     "TimeMs": 280200,
     "Key": 96,
     "DurationMs": 180,
     "Vel": 80
    },
    {
     "TimeMs": 280400,
     "Key": 97,
     "DurationMs": 180,
     "Vel": 80
    },
    {
     "TimeMs": 280401,
     "Key": 68,
     "DurationMs": 358,
     "Vel": 80
    },
    {
     "TimeMs": 280600,
     "Key": 94,
     "DurationMs": 180,
     "Vel": 80
    },
    {
     "TimeMs": 280800,
     "Key": 101,
     "DurationMs": 180,
     "Vel": 80
    },
    {
     "TimeMs": 280801,
     "Key": 66,
     "DurationMs": 358,
     "Vel": 80
    },
    {
     "TimeMs": 281000,
     "Key": 96,
     "DurationMs": 180,
     "Vel": 80
    },
    {
     "TimeMs": 281200,
     "Key": 97,
     "DurationMs": 180,
     "Vel": 80
    },
    {
     "TimeMs": 281201,
     "Key": 65,
     "DurationMs": 358,
     "Vel": 80
    },
    {
     "TimeMs": 281400,
     "Key": 94,
     "DurationMs": 180,
     "Vel": 80
    },
    {
     "TimeMs": 281600,
     "Key": 89,
     "DurationMs": 180,
     "Vel": 80
    },
    {
     "TimeMs": 281601,
     "Key": 77,
     "DurationMs": 358,
     "Vel": 80
    },
    {
     "TimeMs": 281603,
     "Key": 70,
     "DurationMs": 358,
     "Vel": 80
    },
    {
     "TimeMs": 281800,
     "Key": 84,
     "DurationMs": 180,
     "Vel": 80
    },
    {
     "TimeMs": 282000,
     "Key": 85,
     "DurationMs": 180,
     "Vel": 80
    },
    {
     "TimeMs": 282001,
     "Key": 75,
     "DurationMs": 358,
     "Vel": 80
    },
    {
     "TimeMs": 282200,
     "Key": 82,
     "DurationMs": 180,
     "Vel": 80
    },
    {
     "TimeMs": 282400,
     "Key": 89,
     "DurationMs": 180,
     "Vel": 80
    },
    {
     "TimeMs": 282401,
     "Key": 73,
     "DurationMs": 358,
     "Vel": 80
    },
    {
     "TimeMs": 282600,
     "Key": 84,
     "DurationMs": 180,
     "Vel": 80
    },
    {
     "TimeMs": 282800,
     "Key": 85,
     "DurationMs": 180,
     "Vel": 80
    },
    {
     "TimeMs": 282801,
     "Key": 72,
     "DurationMs": 358,
     "Vel": 80
    },
    {
     "TimeMs": 283000,
     "Key": 82,
     "DurationMs": 180,
     "Vel": 80
    },
    {
     "TimeMs": 283200,
     "Key": 89,
     "DurationMs": 180,
     "Vel": 80
    },
    {
     "TimeMs": 283201,
     "Key": 70,
     "DurationMs": 358,
     "Vel": 80
    },
    {
     "TimeMs": 283400,
     "Key": 84,
     "DurationMs": 180,
     "Vel": 80
    },
    {
     "TimeMs": 283600,
     "Key": 85,
     "DurationMs": 180,
     "Vel": 80
    },
    {
     "TimeMs": 283601,
     "Key": 68,
     "DurationMs": 358,
     "Vel": 80
    },
    {
     "TimeMs": 283800,
     "Key": 82,
     "DurationMs": 180,
     "Vel": 80
    },
    {
     "TimeMs": 284000,
     "Key": 89,
     "DurationMs": 180,
     "Vel": 80
    },
    {
     "TimeMs": 284001,
     "Key": 66,
     "DurationMs": 358,
     "Vel": 80
    },
    {
     "TimeMs": 284200,
     "Key": 84,
     "DurationMs": 180,
     "Vel": 80
    },
    {
     "TimeMs": 284400,
     "Key": 85,
     "DurationMs": 180,
     "Vel": 80
    },
    {
     "TimeMs": 284401,
     "Key": 65,
     "DurationMs": 358,
     "Vel": 80
    },
    {
     "TimeMs": 284600,
     "Key": 82,
     "DurationMs": 180,
     "Vel": 80
    },
    {
     "TimeMs": 284800,
     "Key": 89,
     "DurationMs": 180,
     "Vel": 80
    },
    {
     "TimeMs": 284801,
     "Key": 58,
     "DurationMs": 358,
     "Vel": 80
    },
    {
     "TimeMs": 284803,
     "Key": 65,
     "DurationMs": 358,
     "Vel": 80
    },
    {
     "TimeMs": 285000,
     "Key": 84,
     "DurationMs": 180,
     "Vel": 80
    },
    {
     "TimeMs": 285200,
     "Key": 85,
     "DurationMs": 180,
     "Vel": 80
    },
    {
     "TimeMs": 285201,
     "Key": 61,
     "DurationMs": 358,
     "Vel": 80
    },
    {
     "TimeMs": 285400,
     "Key": 82,
     "DurationMs": 180,
     "Vel": 80
    },
    {
     "TimeMs": 285600,
     "Key": 89,
     "DurationMs": 180,
     "Vel": 80
    },
    {
     "TimeMs": 285601,
     "Key": 60,
     "DurationMs": 358,
     "Vel": 80
    },
    {
     "TimeMs": 285800,
     "Key": 84,
     "DurationMs": 180,
     "Vel": 80
    },
    {
     "TimeMs": 286000,
     "Key": 85,
     "DurationMs": 180,
     "Vel": 80
    },
    {
     "TimeMs": 286001,
     "Key": 58,
     "DurationMs": 358,
     "Vel": 80
    },
    {
     "TimeMs": 286200,
     "Key": 82,
     "DurationMs": 180,
     "Vel": 80
    },
    {
     "TimeMs": 286400,
     "Key": 89,
     "DurationMs": 180,
     "Vel": 80
    },
    {
     "TimeMs": 286401,
     "Key": 53,
     "DurationMs": 358,
     "Vel": 80
    },
    {
     "TimeMs": 286600,
     "Key": 84,
     "DurationMs": 180,
     "Vel": 80
    },
    {
     "TimeMs": 286800,
     "Key": 85,
     "DurationMs": 180,
     "Vel": 80
    },
    {
     "TimeMs": 286801,
     "Key": 49,
     "DurationMs": 358,
     "Vel": 80
    },
    {
     "TimeMs": 287000,
     "Key": 82,
     "DurationMs": 180,
     "Vel": 80
    },
    {
     "TimeMs": 287200,
     "Key": 89,
     "DurationMs": 180,
     "Vel": 80
    },
    {
     "TimeMs": 287201,
     "Key": 48,
     "DurationMs": 718,
     "Vel": 80
    },
    {
     "TimeMs": 287400,
     "Key": 84,
     "DurationMs": 180,
     "Vel": 80
    },
    {
     "TimeMs": 287600,
     "Key": 85,
     "DurationMs": 180,
     "Vel": 80
    },
    {
     "TimeMs": 287800,
     "Key": 82,
     "DurationMs": 180,
     "Vel": 80
    },
    {
     "TimeMs": 288000,
     "Key": 82,
     "DurationMs": 360,
     "Vel": 80
    },
    {
     "TimeMs": 288001,
     "Key": 77,
     "DurationMs": 360,
     "Vel": 80
    },
    {
     "TimeMs": 288003,
     "Key": 75,
     "DurationMs": 360,
     "Vel": 80
    },
    {
     "TimeMs": 288005,
     "Key": 73,
     "DurationMs": 360,
     "Vel": 80
    },
    {
     "TimeMs": 288006,
     "Key": 54,
     "DurationMs": 1433,
     "Vel": 80
    },
    {
     "TimeMs": 288008,
     "Key": 61,
     "DurationMs": 1433,
     "Vel": 80
    },
    {
     "TimeMs": 288010,
     "Key": 65,
     "DurationMs": 1433,
     "Vel": 80
    },
    {
     "TimeMs": 288400,
     "Key": 80,
     "DurationMs": 360,
     "Vel": 80
    },
    {
     "TimeMs": 288800,
     "Key": 77,
     "DurationMs": 360,
     "Vel": 80
    },
    {
     "TimeMs": 289200,
     "Key": 75,
     "DurationMs": 360,
     "Vel": 80
    },
    {
     "TimeMs": 289600,
     "Key": 77,
     "DurationMs": 720,
     "Vel": 80
    },
    {
     "TimeMs": 289601,
     "Key": 73,
     "DurationMs": 720,
     "Vel": 80
    },
    {
     "TimeMs": 289603,
     "Key": 72,
     "DurationMs": 720,
     "Vel": 80
    },
    {
     "TimeMs": 289605,
     "Key": 70,
     "DurationMs": 720,
     "Vel": 80
    },
    {
     "TimeMs": 289606,
     "Key": 56,
     "DurationMs": 1433,
     "Vel": 80
    },
    {
     "TimeMs": 289608,
     "Key": 63,
     "DurationMs": 1433,
     "Vel": 80
    },
    {
     "TimeMs": 289610,
     "Key": 66,
     "DurationMs": 1433,
     "Vel": 80
    },
    {
     "TimeMs": 290400,
     "Key": 75,
     "DurationMs": 720,
     "Vel": 80
    },
    {
     "TimeMs": 291200,
     "Key": 77,
     "DurationMs": 1440,
     "Vel": 80
    },
    {
     "TimeMs": 291201,
     "Key": 73,
     "DurationMs": 1440,
     "Vel": 80
    },
    {
     "TimeMs": 291203,
     "Key": 72,
     "DurationMs": 1440,
     "Vel": 80
    },
    {
     "TimeMs": 291205,
     "Key": 58,
     "DurationMs": 2875,
     "Vel": 80
    },
    {
     "TimeMs": 291206,
     "Key": 65,
     "DurationMs": 2875,
     "Vel": 80
    },
    {
     "TimeMs": 291208,
     "Key": 68,
     "DurationMs": 2875,
     "Vel": 80
    },
    {
     "TimeMs": 292800,
     "Key": 80,
     "DurationMs": 360,
     "Vel": 80
    },
    {
     "TimeMs": 293200,
     "Key": 77,
     "DurationMs": 360,
     "Vel": 80
    },
    {
     "TimeMs": 293600,
     "Key": 73,
     "DurationMs": 720,
     "Vel": 80
    },
    {
     "TimeMs": 294400,
     "Key": 82,
     "DurationMs": 360,
     "Vel": 80
    },
    {
     "TimeMs": 294401,
     "Key": 77,
     "DurationMs": 360,
     "Vel": 80
    },
    {
     "TimeMs": 294403,
     "Key": 75,
     "DurationMs": 360,
     "Vel": 80
    },
    {
     "TimeMs": 294405,
     "Key": 73,
     "DurationMs": 360,
     "Vel": 80
    },
    {
     "TimeMs": 294406,
     "Key": 54,
     "DurationMs": 1433,
     "Vel": 80
    },
    {
     "TimeMs": 294408,
     "Key": 61,
     "DurationMs": 1433,
     "Vel": 80
    },
    {
     "TimeMs": 294410,
     "Key": 65,
     "DurationMs": 1433,
     "Vel": 80
    },
    {
     "TimeMs": 294800,
     "Key": 80,
     "DurationMs": 360,
     "Vel": 80
    },
    {
     "TimeMs": 295200,
     "Key": 82,
     "DurationMs": 360,
     "Vel": 80
    },
    {
     "TimeMs": 295600,
     "Key": 84,
     "DurationMs": 360,
     "Vel": 80
    },
    {
     "TimeMs": 296000,
     "Key": 85,
     "DurationMs": 720,
     "Vel": 80
    },
    {
     "TimeMs": 296001,
     "Key": 80,
     "DurationMs": 720,
     "Vel": 80
    },
    {
     "TimeMs": 296003,
     "Key": 78,
     "DurationMs": 720,
     "Vel": 80
    },
    {
     "TimeMs": 296005,
     "Key": 77,
     "DurationMs": 720,
     "Vel": 80
    },
    {
     "TimeMs": 296006,
     "Key": 56,
     "DurationMs": 1433,
     "Vel": 80
    },
    {
     "TimeMs": 296008,
     "Key": 63,
     "DurationMs": 1433,
     "Vel": 80
    },
    {
     "TimeMs": 296010,
     "Key": 66,
     "DurationMs": 1433,
     "Vel": 80
    },
    {
     "TimeMs": 296800,
     "Key": 84,
     "DurationMs": 720,
     "Vel": 80
    },
    {
     "TimeMs": 297600,
     "Key": 82,
     "DurationMs": 2880,
     "Vel": 80
    },
    {
     "TimeMs": 297601,
     "Key": 77,
     "DurationMs": 2880,
     "Vel": 80
    },
    {
     "TimeMs": 297603,
     "Key": 75,
     "DurationMs": 2880,
     "Vel": 80
    },
    {
     "TimeMs": 297605,
     "Key": 58,
     "DurationMs": 715,
     "Vel": 80
    },
    {
     "TimeMs": 297606,
     "Key": 65,
     "DurationMs": 715,
     "Vel": 80
    },
    {
     "TimeMs": 297608,
     "Key": 68,
     "DurationMs": 715,
     "Vel": 80
    },
    {
     "TimeMs": 298400,
     "Key": 73,
     "DurationMs": 360,
     "Vel": 80
    },
    {
     "TimeMs": 298800,
     "Key": 72,
     "DurationMs": 360,
     "Vel": 80
    },
    {
     "TimeMs": 299200,
     "Key": 70,
     "DurationMs": 1440,
     "Vel": 80
    },
    {
     "TimeMs": 300800,
     "Key": 82,
     "DurationMs": 360,
     "Vel": 80
    },
    {
     "TimeMs": 300801,
     "Key": 77,
     "DurationMs": 360,
     "Vel": 80
    },
    {
     "TimeMs": 300803,
     "Key": 75,
     "DurationMs": 360,
     "Vel": 80
    },
    {
     "TimeMs": 300805,
     "Key": 73,
     "DurationMs": 360,
     "Vel": 80
    },
    {
     "TimeMs": 300806,
     "Key": 54,
     "DurationMs": 1433,
     "Vel": 80
    },
    {
     "TimeMs": 300808,
     "Key": 61,
     "DurationMs": 1433,
     "Vel": 80
    },
    {
     "TimeMs": 300810,
     "Key": 65,
     "DurationMs": 1433,
     "Vel": 80
    },
    {
     "TimeMs": 301200,
     "Key": 80,
     "DurationMs": 360,
     "Vel": 80
    },
    {
     "TimeMs": 301600,
     "Key": 77,
     "DurationMs": 360,
     "Vel": 80
    },
    {
     "TimeMs": 302000,
     "Key": 75,
     "DurationMs": 360,
     "Vel": 80
    },
    {
     "TimeMs": 302400,
     "Key": 77,
     "DurationMs": 720,
     "Vel": 80
    },
    {
     "TimeMs": 302401,
     "Key": 73,
     "DurationMs": 720,
     "Vel": 80
    },
    {
     "TimeMs": 302403,
     "Key": 72,
     "DurationMs": 720,
     "Vel": 80
    },
    {
     "TimeMs": 302405,
     "Key": 70,
     "DurationMs": 720,
     "Vel": 80
    },
    {
     "TimeMs": 302406,
     "Key": 56,
     "DurationMs": 1433,
     "Vel": 80
    },
    {
     "TimeMs": 302408,
     "Key": 63,
     "DurationMs": 1433,
     "Vel": 80
    },
    {
     "TimeMs": 302410,
     "Key": 66,
     "DurationMs": 1433,
     "Vel": 80
    },
    {
     "TimeMs": 303200,
     "Key": 75,
     "DurationMs": 720,
     "Vel": 80
    },
    {
     "TimeMs": 304000,
     "Key": 77,
     "DurationMs": 1440,
     "Vel": 80
    },
    {
     "TimeMs": 304001,
     "Key": 73,
     "DurationMs": 1440,
     "Vel": 80
    },
    {
     "TimeMs": 304003,
     "Key": 72,
     "DurationMs": 1440,
     "Vel": 80
    },
    {
     "TimeMs": 304005,
     "Key": 58,
     "DurationMs": 2875,
     "Vel": 80
    },
    {
     "TimeMs": 304006,
     "Key": 65,
     "DurationMs": 2875,
     "Vel": 80
    },
    {
     "TimeMs": 304008,
     "Key": 68,
     "DurationMs": 2875,
     "Vel": 80
    },
    {
     "TimeMs": 305600,
     "Key": 80,
     "DurationMs": 360,
     "Vel": 80
    },
    {
     "TimeMs": 306000,
     "Key": 77,
     "DurationMs": 360,
     "Vel": 80
    },
    {
     "TimeMs": 306400,
     "Key": 73,
     "DurationMs": 720,
     "Vel": 80
    },
    {
     "TimeMs": 307200,
     "Key": 82,
     "DurationMs": 360,
     "Vel": 80
    },
    {
     "TimeMs": 307201,
     "Key": 77,
     "DurationMs": 360,
     "Vel": 80
    },
    {
     "TimeMs": 307203,
     "Key": 75,
     "DurationMs": 360,
     "Vel": 80
    },
    {
     "TimeMs": 307205,
     "Key": 73,
     "DurationMs": 360,
     "Vel": 80
    },
    {
     "TimeMs": 307206,
     "Key": 54,
     "DurationMs": 1433,
     "Vel": 80
    },
    {
     "TimeMs": 307208,
     "Key": 61,
     "DurationMs": 1433,
     "Vel": 80
    },
    {
     "TimeMs": 307210,
     "Key": 65,
     "DurationMs": 1433,
     "Vel": 80
    },
    {
     "TimeMs": 307600,
     "Key": 80,
     "DurationMs": 360,
     "Vel": 80
    },
    {
     "TimeMs": 308000,
     "Key": 82,
     "DurationMs": 360,
     "Vel": 80
    },
    {
     "TimeMs": 308400,
     "Key": 84,
     "DurationMs": 360,
     "Vel": 80
    },
    {
     "TimeMs": 308800,
     "Key": 85,
     "DurationMs": 720,
     "Vel": 80
    },
    {
     "TimeMs": 308801,
     "Key": 80,
     "DurationMs": 720,
     "Vel": 80
    },
    {
     "TimeMs": 308803,
     "Key": 78,
     "DurationMs": 720,
     "Vel": 80
    },
    {
     "TimeMs": 308805,
     "Key": 77,
     "DurationMs": 720,
     "Vel": 80
    },
    {
     "TimeMs": 308806,
     "Key": 56,
     "DurationMs": 1433,
     "Vel": 80
    },
    {
     "TimeMs": 308808,
     "Key": 63,
     "DurationMs": 1433,
     "Vel": 80
    },
    {
     "TimeMs": 308810,
     "Key": 66,
     "DurationMs": 1433,
     "Vel": 80
    },
    {
     "TimeMs": 309600,
     "Key": 84,
     "DurationMs": 720,
     "Vel": 80
    },
    {
     "TimeMs": 310400,
     "Key": 84,
     "DurationMs": 360,
     "Vel": 80
    },
    {
     "TimeMs": 310401,
     "Key": 77,
     "DurationMs": 360,
     "Vel": 80
    },
    {
     "TimeMs": 310403,
     "Key": 75,
     "DurationMs": 360,
     "Vel": 80
    },
    {
     "TimeMs": 310405,
     "Key": 58,
     "DurationMs": 2875,
     "Vel": 80
    },
    {
     "TimeMs": 310406,
     "Key": 63,
     "DurationMs": 2875,
     "Vel": 80
    },
    {
     "TimeMs": 310408,
     "Key": 68,
     "DurationMs": 1951,
     "Vel": 80
    },
    {
     "TimeMs": 310800,
     "Key": 80,
     "DurationMs": 360,
     "Vel": 80
    },
    {
     "TimeMs": 311200,
     "Key": 77,
     "DurationMs": 360,
     "Vel": 80
    },
    {
     "TimeMs": 311600,
     "Key": 72,
     "DurationMs": 360,
     "Vel": 80
    },
    {
     "TimeMs": 312000,
     "Key": 68,
     "DurationMs": 360,
     "Vel": 80
    },
    {
     "TimeMs": 312400,
     "Key": 65,
     "DurationMs": 360,
     "Vel": 80
    },
    {
     "TimeMs": 312800,
     "Key": 60,
     "DurationMs": 360,
     "Vel": 80
    },
    {
     "TimeMs": 313200,
     "Key": 56,
     "DurationMs": 360,
     "Vel": 80
    },
    {
     "TimeMs": 313600,
     "Key": 58,
     "DurationMs": 2880,
     "Vel": 80
    },
    {
     "TimeMs": 313601,
     "Key": 53,
     "DurationMs": 1438,
     "Vel": 80
    },
    {
     "TimeMs": 313603,
     "Key": 50,
     "DurationMs": 1438,
     "Vel": 80
    },
    {
     "TimeMs": 313605,
     "Key": 46,
     "DurationMs": 1438,
     "Vel": 80
    },
    {
     "TimeMs": 315200,
     "Key": 34,
     "DurationMs": 1440,
     "Vel": 80
    }
   ]