var midifile = [
    {
     "TimeMs": 0,
     "Key": 63,
     "DurationMs": 779,
     "Vel": 64
    },
    {
     "TimeMs": 0,
     "Key": 73,
     "DurationMs": 779,
     "Vel": 64
    },
    {
     "TimeMs": 1,
     "Key": 44,
     "DurationMs": 5463,
     "Vel": 64
    },
    {
     "TimeMs": 2,
     "Key": 32,
     "DurationMs": 289,
     "Vel": 64
    },
    {
     "TimeMs": 308,
     "Key": 32,
     "DurationMs": 291,
     "Vel": 64
    },
    {
     "TimeMs": 616,
     "Key": 32,
     "DurationMs": 194,
     "Vel": 64
    },
    {
     "TimeMs": 821,
     "Key": 64,
     "DurationMs": 779,
     "Vel": 64
    },
    {
     "TimeMs": 822,
     "Key": 72,
     "DurationMs": 779,
     "Vel": 64
    },
    {
     "TimeMs": 823,
     "Key": 32,
     "DurationMs": 290,
     "Vel": 64
    },
    {
     "TimeMs": 1130,
     "Key": 32,
     "DurationMs": 291,
     "Vel": 64
    },
    {
     "TimeMs": 1438,
     "Key": 32,
     "DurationMs": 194,
     "Vel": 64
    },
    {
     "TimeMs": 1643,
     "Key": 63,
     "DurationMs": 779,
     "Vel": 64
    },
    {
     "TimeMs": 1644,
     "Key": 73,
     "DurationMs": 779,
     "Vel": 64
    },
    {
     "TimeMs": 1645,
     "Key": 32,
     "DurationMs": 290,
     "Vel": 64
    },
    {
     "TimeMs": 1952,
     "Key": 32,
     "DurationMs": 291,
     "Vel": 64
    },
    {
     "TimeMs": 2260,
     "Key": 32,
     "DurationMs": 194,
     "Vel": 64
    },
    {
     "TimeMs": 2465,
     "Key": 72,
     "DurationMs": 389,
     "Vel": 64
    },
    {
     "TimeMs": 2466,
     "Key": 76,
     "DurationMs": 389,
     "Vel": 64
    },
    {
     "TimeMs": 2467,
     "Key": 32,
     "DurationMs": 290,
     "Vel": 64
    },
    {
     "TimeMs": 2773,
     "Key": 32,
     "DurationMs": 291,
     "Vel": 64
    },
    {
     "TimeMs": 2876,
     "Key": 80,
     "DurationMs": 389,
     "Vel": 64
    },
    {
     "TimeMs": 3082,
     "Key": 32,
     "DurationMs": 194,
     "Vel": 64
    },
    {
     "TimeMs": 3287,
     "Key": 63,
     "DurationMs": 779,
     "Vel": 64
    },
    {
     "TimeMs": 3288,
     "Key": 73,
     "DurationMs": 779,
     "Vel": 64
    },
    {
     "TimeMs": 3289,
     "Key": 32,
     "DurationMs": 290,
     "Vel": 64
    },
    {
     "TimeMs": 3595,
     "Key": 32,
     "DurationMs": 291,
     "Vel": 64
    },
    {
     "TimeMs": 3904,
     "Key": 32,
     "DurationMs": 194,
     "Vel": 64
    },
    {
     "TimeMs": 4109,
     "Key": 64,
     "DurationMs": 779,
     "Vel": 64
    },
    {
     "TimeMs": 4110,
     "Key": 72,
     "DurationMs": 779,
     "Vel": 64
    },
    {
     "TimeMs": 4111,
     "Key": 32,
     "DurationMs": 290,
     "Vel": 64
    },
    {
     "TimeMs": 4417,
     "Key": 32,
     "DurationMs": 291,
     "Vel": 64
    },
    {
     "TimeMs": 4726,
     "Key": 32,
     "DurationMs": 194,
     "Vel": 64
    },
    {
     "TimeMs": 4931,
     "Key": 63,
     "DurationMs": 779,
     "Vel": 64
    },
    {
     "TimeMs": 4932,
     "Key": 73,
     "DurationMs": 779,
     "Vel": 64
    },
    {
     "TimeMs": 4933,
     "Key": 32,
     "DurationMs": 290,
     "Vel": 64
    },
    {
     "TimeMs": 5239,
     "Key": 32,
     "DurationMs": 291,
     "Vel": 64
    },
    {
     "TimeMs": 5547,
     "Key": 32,
     "DurationMs": 194,
     "Vel": 64
    },
    {
     "TimeMs": 5753,
     "Key": 85,
     "DurationMs": 96,
     "Vel": 64
    },
    {
     "TimeMs": 5754,
     "Key": 37,
     "DurationMs": 101,
     "Vel": 64
    },
    {
     "TimeMs": 5755,
     "Key": 49,
     "DurationMs": 101,
     "Vel": 64
    },
    {
     "TimeMs": 5856,
     "Key": 73,
     "DurationMs": 96,
     "Vel": 67
    },
    {
     "TimeMs": 5958,
     "Key": 83,
     "DurationMs": 96,
     "Vel": 71
    },
    {
     "TimeMs": 5959,
     "Key": 35,
     "DurationMs": 101,
     "Vel": 71
    },
    {
     "TimeMs": 5960,
     "Key": 47,
     "DurationMs": 101,
     "Vel": 71
    },
    {
     "TimeMs": 6061,
     "Key": 71,
     "DurationMs": 96,
     "Vel": 75
    },
    {
     "TimeMs": 6164,
     "Key": 81,
     "DurationMs": 96,
     "Vel": 79
    },
    {
     "TimeMs": 6165,
     "Key": 33,
     "DurationMs": 101,
     "Vel": 79
    },
    {
     "TimeMs": 6166,
     "Key": 45,
     "DurationMs": 101,
     "Vel": 79
    },
    {
     "TimeMs": 6267,
     "Key": 69,
     "DurationMs": 96,
     "Vel": 82
    },
    {
     "TimeMs": 6369,
     "Key": 80,
     "DurationMs": 96,
     "Vel": 86
    },
    {
     "TimeMs": 6370,
     "Key": 32,
     "DurationMs": 101,
     "Vel": 86
    },
    {
     "TimeMs": 6371,
     "Key": 44,
     "DurationMs": 101,
     "Vel": 86
    },
    {
     "TimeMs": 6472,
     "Key": 68,
     "DurationMs": 96,
     "Vel": 90
    },
    {
     "TimeMs": 6575,
     "Key": 61,
     "DurationMs": 410,
     "Vel": 96
    },
    {
     "TimeMs": 6576,
     "Key": 64,
     "DurationMs": 779,
     "Vel": 96
    },
    {
     "TimeMs": 6577,
     "Key": 68,
     "DurationMs": 779,
     "Vel": 96
    },
    {
     "TimeMs": 6577,
     "Key": 73,
     "DurationMs": 779,
     "Vel": 96
    },
    {
     "TimeMs": 6578,
     "Key": 25,
     "DurationMs": 190,
     "Vel": 96
    },
    {
     "TimeMs": 6579,
     "Key": 37,
     "DurationMs": 190,
     "Vel": 96
    },
    {
     "TimeMs": 6780,
     "Key": 49,
     "DurationMs": 194,
     "Vel": 96
    },
    {
     "TimeMs": 6987,
     "Key": 52,
     "DurationMs": 193,
     "Vel": 96
    },
    {
     "TimeMs": 6988,
     "Key": 56,
     "DurationMs": 193,
     "Vel": 96
    },
    {
     "TimeMs": 6988,
     "Key": 61,
     "DurationMs": 369,
     "Vel": 96
    },
    {
     "TimeMs": 7191,
     "Key": 49,
     "DurationMs": 194,
     "Vel": 96
    },
    {
     "TimeMs": 7397,
     "Key": 64,
     "DurationMs": 194,
     "Vel": 96
    },
    {
     "TimeMs": 7398,
     "Key": 68,
     "DurationMs": 194,
     "Vel": 96
    },
    {
     "TimeMs": 7398,
     "Key": 72,
     "DurationMs": 194,
     "Vel": 96
    },
    {
     "TimeMs": 7399,
     "Key": 76,
     "DurationMs": 194,
     "Vel": 96
    },
    {
     "TimeMs": 7400,
     "Key": 32,
     "DurationMs": 194,
     "Vel": 96
    },
    {
     "TimeMs": 7401,
     "Key": 44,
     "DurationMs": 194,
     "Vel": 96
    },
    {
     "TimeMs": 7602,
     "Key": 61,
     "DurationMs": 389,
     "Vel": 96
    },
    {
     "TimeMs": 7603,
     "Key": 73,
     "DurationMs": 389,
     "Vel": 96
    },
    {
     "TimeMs": 7604,
     "Key": 52,
     "DurationMs": 192,
     "Vel": 96
    },
    {
     "TimeMs": 7808,
     "Key": 56,
     "DurationMs": 194,
     "Vel": 96
    },
    {
     "TimeMs": 7809,
     "Key": 60,
     "DurationMs": 194,
     "Vel": 96
    },
    {
     "TimeMs": 8013,
     "Key": 61,
     "DurationMs": 194,
     "Vel": 96
    },
    {
     "TimeMs": 8014,
     "Key": 73,
     "DurationMs": 194,
     "Vel": 96
    },
    {
     "TimeMs": 8015,
     "Key": 52,
     "DurationMs": 194,
     "Vel": 96
    },
    {
     "TimeMs": 8219,
     "Key": 61,
     "DurationMs": 194,
     "Vel": 96
    },
    {
     "TimeMs": 8220,
     "Key": 64,
     "DurationMs": 194,
     "Vel": 96
    },
    {
     "TimeMs": 8220,
     "Key": 68,
     "DurationMs": 194,
     "Vel": 96
    },
    {
     "TimeMs": 8221,
     "Key": 73,
     "DurationMs": 194,
     "Vel": 96
    },
    {
     "TimeMs": 8222,
     "Key": 25,
     "DurationMs": 194,
     "Vel": 96
    },
    {
     "TimeMs": 8223,
     "Key": 37,
     "DurationMs": 194,
     "Vel": 96
    },
    {
     "TimeMs": 8424,
     "Key": 68,
     "DurationMs": 194,
     "Vel": 96
    },
    {
     "TimeMs": 8425,
     "Key": 80,
     "DurationMs": 194,
     "Vel": 96
    },
    {
     "TimeMs": 8426,
     "Key": 49,
     "DurationMs": 194,
     "Vel": 96
    },
    {
     "TimeMs": 8630,
     "Key": 68,
     "DurationMs": 194,
     "Vel": 96
    },
    {
     "TimeMs": 8630,
     "Key": 80,
     "DurationMs": 194,
     "Vel": 96
    },
    {
     "TimeMs": 8631,
     "Key": 52,
     "DurationMs": 194,
     "Vel": 96
    },
    {
     "TimeMs": 8632,
     "Key": 56,
     "DurationMs": 194,
     "Vel": 96
    },
    {
     "TimeMs": 8633,
     "Key": 61,
     "DurationMs": 194,
     "Vel": 96
    },
    {
     "TimeMs": 8835,
     "Key": 68,
     "DurationMs": 194,
     "Vel": 96
    },
    {
     "TimeMs": 8836,
     "Key": 73,
     "DurationMs": 194,
     "Vel": 96
    },
    {
     "TimeMs": 8837,
     "Key": 76,
     "DurationMs": 194,
     "Vel": 96
    },
    {
     "TimeMs": 8838,
     "Key": 80,
     "DurationMs": 194,
     "Vel": 96
    },
    {
     "TimeMs": 8839,
     "Key": 49,
     "DurationMs": 194,
     "Vel": 96
    },
    {
     "TimeMs": 9041,
     "Key": 68,
     "DurationMs": 389,
     "Vel": 96
    },
    {
     "TimeMs": 9041,
     "Key": 73,
     "DurationMs": 389,
     "Vel": 96
    },
    {
     "TimeMs": 9042,
     "Key": 76,
     "DurationMs": 389,
     "Vel": 96
    },
    {
     "TimeMs": 9043,
     "Key": 80,
     "DurationMs": 389,
     "Vel": 96
    },
    {
     "TimeMs": 9044,
     "Key": 32,
     "DurationMs": 190,
     "Vel": 96
    },
    {
     "TimeMs": 9045,
     "Key": 44,
     "DurationMs": 190,
     "Vel": 96
    },
    {
     "TimeMs": 9246,
     "Key": 52,
     "DurationMs": 194,
     "Vel": 96
    },
    {
     "TimeMs": 9452,
     "Key": 64,
     "DurationMs": 194,
     "Vel": 96
    },
    {
     "TimeMs": 9452,
     "Key": 76,
     "DurationMs": 194,
     "Vel": 96
    },
    {
     "TimeMs": 9453,
     "Key": 56,
     "DurationMs": 194,
     "Vel": 96
    },
    {
     "TimeMs": 9454,
     "Key": 60,
     "DurationMs": 194,
     "Vel": 96
    },
    {
     "TimeMs": 9657,
     "Key": 63,
     "DurationMs": 194,
     "Vel": 96
    },
    {
     "TimeMs": 9658,
     "Key": 75,
     "DurationMs": 194,
     "Vel": 96
    },
    {
     "TimeMs": 9659,
     "Key": 52,
     "DurationMs": 194,
     "Vel": 96
    },
    {
     "TimeMs": 9863,
     "Key": 61,
     "DurationMs": 779,
     "Vel": 96
    },
    {
     "TimeMs": 9863,
     "Key": 64,
     "DurationMs": 779,
     "Vel": 96
    },
    {
     "TimeMs": 9864,
     "Key": 68,
     "DurationMs": 779,
     "Vel": 96
    },
    {
     "TimeMs": 9865,
     "Key": 73,
     "DurationMs": 779,
     "Vel": 96
    },
    {
     "TimeMs": 9866,
     "Key": 25,
     "DurationMs": 190,
     "Vel": 96
    },
    {
     "TimeMs": 9867,
     "Key": 37,
     "DurationMs": 190,
     "Vel": 96
    },
    {
     "TimeMs": 10068,
     "Key": 49,
     "DurationMs": 194,
     "Vel": 96
    },
    {
     "TimeMs": 10273,
     "Key": 52,
     "DurationMs": 194,
     "Vel": 96
    },
    {
     "TimeMs": 10274,
     "Key": 56,
     "DurationMs": 194,
     "Vel": 96
    },
    {
     "TimeMs": 10479,
     "Key": 49,
     "DurationMs": 194,
     "Vel": 96
    },
    {
     "TimeMs": 10684,
     "Key": 64,
     "DurationMs": 194,
     "Vel": 96
    },
    {
     "TimeMs": 10685,
     "Key": 68,
     "DurationMs": 194,
     "Vel": 96
    },
    {
     "TimeMs": 10686,
     "Key": 73,
     "DurationMs": 194,
     "Vel": 96
    },
    {
     "TimeMs": 10687,
     "Key": 76,
     "DurationMs": 194,
     "Vel": 96
    },
    {
     "TimeMs": 10688,
     "Key": 32,
     "DurationMs": 194,
     "Vel": 96
    },
    {
     "TimeMs": 10689,
     "Key": 44,
     "DurationMs": 194,
     "Vel": 96
    },
    {
     "TimeMs": 10890,
     "Key": 61,
     "DurationMs": 389,
     "Vel": 96
    },
    {
     "TimeMs": 10891,
     "Key": 73,
     "DurationMs": 389,
     "Vel": 96
    },
    {
     "TimeMs": 10892,
     "Key": 52,
     "DurationMs": 192,
     "Vel": 96
    },
    {
     "TimeMs": 11095,
     "Key": 56,
     "DurationMs": 194,
     "Vel": 96
    },
    {
     "TimeMs": 11096,
     "Key": 60,
     "DurationMs": 194,
     "Vel": 96
    },
    {
     "TimeMs": 11301,
     "Key": 61,
     "DurationMs": 194,
     "Vel": 96
    },
    {
     "TimeMs": 11302,
     "Key": 73,
     "DurationMs": 194,
     "Vel": 96
    },
    {
     "TimeMs": 11303,
     "Key": 52,
     "DurationMs": 194,
     "Vel": 96
    },
    {
     "TimeMs": 11506,
     "Key": 61,
     "DurationMs": 194,
     "Vel": 96
    },
    {
     "TimeMs": 11507,
     "Key": 64,
     "DurationMs": 194,
     "Vel": 96
    },
    {
     "TimeMs": 11508,
     "Key": 68,
     "DurationMs": 194,
     "Vel": 96
    },
    {
     "TimeMs": 11509,
     "Key": 73,
     "DurationMs": 194,
     "Vel": 96
    },
    {
     "TimeMs": 11510,
     "Key": 33,
     "DurationMs": 194,
     "Vel": 96
    },
    {
     "TimeMs": 11511,
     "Key": 45,
     "DurationMs": 194,
     "Vel": 96
    },
    {
     "TimeMs": 11712,
     "Key": 68,
     "DurationMs": 194,
     "Vel": 96
    },
    {
     "TimeMs": 11713,
     "Key": 80,
     "DurationMs": 194,
     "Vel": 96
    },
    {
     "TimeMs": 11714,
     "Key": 45,
     "DurationMs": 194,
     "Vel": 96
    },
    {
     "TimeMs": 11917,
     "Key": 68,
     "DurationMs": 194,
     "Vel": 96
    },
    {
     "TimeMs": 11918,
     "Key": 73,
     "DurationMs": 194,
     "Vel": 96
    },
    {
     "TimeMs": 11919,
     "Key": 76,
     "DurationMs": 194,
     "Vel": 96
    },
    {
     "TimeMs": 11920,
     "Key": 80,
     "DurationMs": 194,
     "Vel": 96
    },
    {
     "TimeMs": 11921,
     "Key": 49,
     "DurationMs": 194,
     "Vel": 96
    },
    {
     "TimeMs": 11922,
     "Key": 52,
     "DurationMs": 194,
     "Vel": 96
    },
    {
     "TimeMs": 11922,
     "Key": 57,
     "DurationMs": 194,
     "Vel": 96
    },
    {
     "TimeMs": 12123,
     "Key": 68,
     "DurationMs": 194,
     "Vel": 96
    },
    {
     "TimeMs": 12124,
     "Key": 73,
     "DurationMs": 194,
     "Vel": 96
    },
    {
     "TimeMs": 12125,
     "Key": 76,
     "DurationMs": 194,
     "Vel": 96
    },
    {
     "TimeMs": 12125,
     "Key": 80,
     "DurationMs": 194,
     "Vel": 96
    },
    {
     "TimeMs": 12126,
     "Key": 45,
     "DurationMs": 194,
     "Vel": 96
    },
    {
     "TimeMs": 12328,
     "Key": 73,
     "DurationMs": 194,
     "Vel": 96
    },
    {
     "TimeMs": 12329,
     "Key": 85,
     "DurationMs": 194,
     "Vel": 96
    },
    {
     "TimeMs": 12330,
     "Key": 35,
     "DurationMs": 194,
     "Vel": 96
    },
    {
     "TimeMs": 12331,
     "Key": 47,
     "DurationMs": 194,
     "Vel": 96
    },
    {
     "TimeMs": 12534,
     "Key": 71,
     "DurationMs": 194,
     "Vel": 96
    },
    {
     "TimeMs": 12535,
     "Key": 83,
     "DurationMs": 194,
     "Vel": 96
    },
    {
     "TimeMs": 12535,
     "Key": 59,
     "DurationMs": 95,
     "Vel": 96
    },
    {
     "TimeMs": 12636,
     "Key": 54,
     "DurationMs": 96,
     "Vel": 96
    },
    {
     "TimeMs": 12739,
     "Key": 69,
     "DurationMs": 194,
     "Vel": 96
    },
    {
     "TimeMs": 12740,
     "Key": 81,
     "DurationMs": 194,
     "Vel": 96
    },
    {
     "TimeMs": 12741,
     "Key": 51,
     "DurationMs": 95,
     "Vel": 96
    },
    {
     "TimeMs": 12842,
     "Key": 47,
     "DurationMs": 96,
     "Vel": 96
    },
    {
     "TimeMs": 12945,
     "Key": 68,
     "DurationMs": 194,
     "Vel": 96
    },
    {
     "TimeMs": 12946,
     "Key": 80,
     "DurationMs": 194,
     "Vel": 96
    },
    {
     "TimeMs": 12946,
     "Key": 42,
     "DurationMs": 95,
     "Vel": 96
    },
    {
     "TimeMs": 13047,
     "Key": 39,
     "DurationMs": 96,
     "Vel": 96
    },
    {
     "TimeMs": 13150,
     "Key": 61,
     "DurationMs": 410,
     "Vel": 96
    },
    {
     "TimeMs": 13151,
     "Key": 64,
     "DurationMs": 779,
     "Vel": 96
    },
    {
     "TimeMs": 13152,
     "Key": 68,
     "DurationMs": 779,
     "Vel": 96
    },
    {
     "TimeMs": 13153,
     "Key": 25,
     "DurationMs": 191,
     "Vel": 96
    },
    {
     "TimeMs": 13154,
     "Key": 37,
     "DurationMs": 191,
     "Vel": 96
    },
    {
     "TimeMs": 13356,
     "Key": 49,
     "DurationMs": 194,
     "Vel": 96
    },
    {
     "TimeMs": 13562,
     "Key": 52,
     "DurationMs": 193,
     "Vel": 96
    },
    {
     "TimeMs": 13563,
     "Key": 56,
     "DurationMs": 193,
     "Vel": 96
    },
    {
     "TimeMs": 13564,
     "Key": 61,
     "DurationMs": 368,
     "Vel": 96
    },
    {
     "TimeMs": 13767,
     "Key": 49,
     "DurationMs": 194,
     "Vel": 96
    },
    {
     "TimeMs": 13972,
     "Key": 64,
     "DurationMs": 194,
     "Vel": 96
    },
    {
     "TimeMs": 13973,
     "Key": 68,
     "DurationMs": 194,
     "Vel": 96
    },
    {
     "TimeMs": 13974,
     "Key": 72,
     "DurationMs": 194,
     "Vel": 96
    },
    {
     "TimeMs": 13975,
     "Key": 76,
     "DurationMs": 194,
     "Vel": 96
    },
    {
     "TimeMs": 13976,
     "Key": 32,
     "DurationMs": 194,
     "Vel": 96
    },
    {
     "TimeMs": 13976,
     "Key": 44,
     "DurationMs": 194,
     "Vel": 96
    },
    {
     "TimeMs": 14178,
     "Key": 61,
     "DurationMs": 389,
     "Vel": 96
    },
    {
     "TimeMs": 14178,
     "Key": 73,
     "DurationMs": 389,
     "Vel": 96
    },
    {
     "TimeMs": 14179,
     "Key": 52,
     "DurationMs": 192,
     "Vel": 96
    },
    {
     "TimeMs": 14383,
     "Key": 56,
     "DurationMs": 194,
     "Vel": 96
    },
    {
     "TimeMs": 14384,
     "Key": 60,
     "DurationMs": 194,
     "Vel": 96
    },
    {
     "TimeMs": 14589,
     "Key": 61,
     "DurationMs": 194,
     "Vel": 96
    },
    {
     "TimeMs": 14589,
     "Key": 64,
     "DurationMs": 194,
     "Vel": 96
    },
    {
     "TimeMs": 14590,
     "Key": 68,
     "DurationMs": 194,
     "Vel": 96
    },
    {
     "TimeMs": 14591,
     "Key": 73,
     "DurationMs": 194,
     "Vel": 96
    },
    {
     "TimeMs": 14592,
     "Key": 52,
     "DurationMs": 194,
     "Vel": 96
    },
    {
     "TimeMs": 14794,
     "Key": 61,
     "DurationMs": 194,
     "Vel": 96
    },
    {
     "TimeMs": 14795,
     "Key": 64,
     "DurationMs": 194,
     "Vel": 96
    },
    {
     "TimeMs": 14796,
     "Key": 68,
     "DurationMs": 194,
     "Vel": 96
    },
    {
     "TimeMs": 14797,
     "Key": 73,
     "DurationMs": 194,
     "Vel": 96
    },
    {
     "TimeMs": 14797,
     "Key": 25,
     "DurationMs": 194,
     "Vel": 96
    },
    {
     "TimeMs": 14798,
     "Key": 37,
     "DurationMs": 194,
     "Vel": 96
    },
    {
     "TimeMs": 15000,
     "Key": 68,
     "DurationMs": 194,
     "Vel": 96
    },
    {
     "TimeMs": 15000,
     "Key": 80,
     "DurationMs": 194,
     "Vel": 96
    },
    {
     "TimeMs": 15001,
     "Key": 49,
     "DurationMs": 194,
     "Vel": 96
    },
    {
     "TimeMs": 15205,
     "Key": 68,
     "DurationMs": 194,
     "Vel": 96
    },
    {
     "TimeMs": 15206,
     "Key": 80,
     "DurationMs": 194,
     "Vel": 96
    },
    {
     "TimeMs": 15207,
     "Key": 52,
     "DurationMs": 194,
     "Vel": 96
    },
    {
     "TimeMs": 15208,
     "Key": 56,
     "DurationMs": 194,
     "Vel": 96
    },
    {
     "TimeMs": 15410,
     "Key": 68,
     "DurationMs": 194,
     "Vel": 96
    },
    {
     "TimeMs": 15411,
     "Key": 73,
     "DurationMs": 194,
     "Vel": 96
    },
    {
     "TimeMs": 15412,
     "Key": 76,
     "DurationMs": 194,
     "Vel": 96
    },
    {
     "TimeMs": 15413,
     "Key": 80,
     "DurationMs": 194,
     "Vel": 96
    },
    {
     "TimeMs": 15414,
     "Key": 49,
     "DurationMs": 194,
     "Vel": 96
    },
    {
     "TimeMs": 15616,
     "Key": 68,
     "DurationMs": 389,
     "Vel": 96
    },
    {
     "TimeMs": 15617,
     "Key": 73,
     "DurationMs": 389,
     "Vel": 96
    },
    {
     "TimeMs": 15618,
     "Key": 76,
     "DurationMs": 389,
     "Vel": 96
    },
    {
     "TimeMs": 15619,
     "Key": 80,
     "DurationMs": 389,
     "Vel": 96
    },
    {
     "TimeMs": 15619,
     "Key": 32,
     "DurationMs": 190,
     "Vel": 96
    },
    {
     "TimeMs": 15620,
     "Key": 44,
     "DurationMs": 190,
     "Vel": 96
    },
    {
     "TimeMs": 15821,
     "Key": 52,
     "DurationMs": 194,
     "Vel": 96
    },
    {
     "TimeMs": 16027,
     "Key": 64,
     "DurationMs": 194,
     "Vel": 96
    },
    {
     "TimeMs": 16028,
     "Key": 76,
     "DurationMs": 194,
     "Vel": 96
    },
    {
     "TimeMs": 16029,
     "Key": 56,
     "DurationMs": 194,
     "Vel": 96
    },
    {
     "TimeMs": 16029,
     "Key": 59,
     "DurationMs": 194,
     "Vel": 96
    },
    {
     "TimeMs": 16232,
     "Key": 63,
     "DurationMs": 194,
     "Vel": 96
    },
    {
     "TimeMs": 16233,
     "Key": 75,
     "DurationMs": 194,
     "Vel": 96
    },
    {
     "TimeMs": 16234,
     "Key": 52,
     "DurationMs": 194,
     "Vel": 96
    },
    {
     "TimeMs": 16438,
     "Key": 61,
     "DurationMs": 389,
     "Vel": 96
    },
    {
     "TimeMs": 16439,
     "Key": 64,
     "DurationMs": 389,
     "Vel": 96
    },
    {
     "TimeMs": 16440,
     "Key": 68,
     "DurationMs": 389,
     "Vel": 96
    },
    {
     "TimeMs": 16440,
     "Key": 73,
     "DurationMs": 389,
     "Vel": 96
    },
    {
     "TimeMs": 16441,
     "Key": 33,
     "DurationMs": 190,
     "Vel": 96
    },
    {
     "TimeMs": 16442,
     "Key": 45,
     "DurationMs": 190,
     "Vel": 96
    },
    {
     "TimeMs": 16643,
     "Key": 45,
     "DurationMs": 194,
     "Vel": 96
    },
    {
     "TimeMs": 16849,
     "Key": 73,
     "DurationMs": 410,
     "Vel": 127
    },
    {
     "TimeMs": 16850,
     "Key": 85,
     "DurationMs": 410,
     "Vel": 127
    },
    {
     "TimeMs": 16851,
     "Key": 49,
     "DurationMs": 192,
     "Vel": 96
    },
    {
     "TimeMs": 16851,
     "Key": 52,
     "DurationMs": 192,
     "Vel": 96
    },
    {
     "TimeMs": 16852,
     "Key": 57,
     "DurationMs": 192,
     "Vel": 96
    },
    {
     "TimeMs": 17054,
     "Key": 45,
     "DurationMs": 194,
     "Vel": 96
    },
    {
     "TimeMs": 17261,
     "Key": 61,
     "DurationMs": 388,
     "Vel": 96
    },
    {
     "TimeMs": 17261,
     "Key": 66,
     "DurationMs": 388,
     "Vel": 96
    },
    {
     "TimeMs": 17262,
     "Key": 73,
     "DurationMs": 388,
     "Vel": 96
    },
    {
     "TimeMs": 17263,
     "Key": 35,
     "DurationMs": 190,
     "Vel": 96
    },
    {
     "TimeMs": 17264,
     "Key": 47,
     "DurationMs": 190,
     "Vel": 96
    },
    {
     "TimeMs": 17465,
     "Key": 47,
     "DurationMs": 194,
     "Vel": 96
    },
    {
     "TimeMs": 17671,
     "Key": 73,
     "DurationMs": 410,
     "Vel": 127
    },
    {
     "TimeMs": 17672,
     "Key": 78,
     "DurationMs": 410,
     "Vel": 127
    },
    {
     "TimeMs": 17672,
     "Key": 85,
     "DurationMs": 410,
     "Vel": 127
    },
    {
     "TimeMs": 17673,
     "Key": 51,
     "DurationMs": 191,
     "Vel": 96
    },
    {
     "TimeMs": 17674,
     "Key": 54,
     "DurationMs": 191,
     "Vel": 96
    },
    {
     "TimeMs": 17675,
     "Key": 59,
     "DurationMs": 191,
     "Vel": 96
    },
    {
     "TimeMs": 17876,
     "Key": 47,
     "DurationMs": 194,
     "Vel": 96
    },
    {
     "TimeMs": 18083,
     "Key": 61,
     "DurationMs": 192,
     "Vel": 96
    },
    {
     "TimeMs": 18084,
     "Key": 64,
     "DurationMs": 192,
     "Vel": 96
    },
    {
     "TimeMs": 18085,
     "Key": 68,
     "DurationMs": 192,
     "Vel": 96
    },
    {
     "TimeMs": 18086,
     "Key": 73,
     "DurationMs": 192,
     "Vel": 96
    },
    {
     "TimeMs": 18087,
     "Key": 37,
     "DurationMs": 192,
     "Vel": 96
    },
    {
     "TimeMs": 18088,
     "Key": 52,
     "DurationMs": 192,
     "Vel": 96
    },
    {
     "TimeMs": 18287,
     "Key": 73,
     "DurationMs": 194,
     "Vel": 96
    },
    {
     "TimeMs": 18288,
     "Key": 85,
     "DurationMs": 194,
     "Vel": 96
    },
    {
     "TimeMs": 18289,
     "Key": 49,
     "DurationMs": 95,
     "Vel": 96
    },
    {
     "TimeMs": 18390,
     "Key": 44,
     "DurationMs": 96,
     "Vel": 96
    },
    {
     "TimeMs": 18493,
     "Key": 73,
     "DurationMs": 194,
     "Vel": 96
    },
    {
     "TimeMs": 18494,
     "Key": 85,
     "DurationMs": 194,
     "Vel": 96
    },
    {
     "TimeMs": 18494,
     "Key": 40,
     "DurationMs": 95,
     "Vel": 96
    },
    {
     "TimeMs": 18595,
     "Key": 37,
     "DurationMs": 96,
     "Vel": 96
    },
    {
     "TimeMs": 18698,
     "Key": 73,
     "DurationMs": 194,
     "Vel": 96
    },
    {
     "TimeMs": 18699,
     "Key": 85,
     "DurationMs": 194,
     "Vel": 96
    },
    {
     "TimeMs": 18700,
     "Key": 32,
     "DurationMs": 194,
     "Vel": 96
    },
    {
     "TimeMs": 18904,
     "Key": 73,
     "DurationMs": 194,
     "Vel": 96
    },
    {
     "TimeMs": 18904,
     "Key": 76,
     "DurationMs": 194,
     "Vel": 96
    },
    {
     "TimeMs": 18905,
     "Key": 80,
     "DurationMs": 194,
     "Vel": 96
    },
    {
     "TimeMs": 18906,
     "Key": 85,
     "DurationMs": 194,
     "Vel": 96
    },
    {
     "TimeMs": 18907,
     "Key": 37,
     "DurationMs": 194,
     "Vel": 96
    },
    {
     "TimeMs": 18908,
     "Key": 49,
     "DurationMs": 194,
     "Vel": 96
    },
    {
     "TimeMs": 19109,
     "Key": 71,
     "DurationMs": 194,
     "Vel": 96
    },
    {
     "TimeMs": 19110,
     "Key": 83,
     "DurationMs": 194,
     "Vel": 96
    },
    {
     "TimeMs": 19111,
     "Key": 35,
     "DurationMs": 194,
     "Vel": 96
    },
    {
     "TimeMs": 19112,
     "Key": 47,
     "DurationMs": 194,
     "Vel": 96
    },
    {
     "TimeMs": 19315,
     "Key": 69,
     "DurationMs": 194,
     "Vel": 96
    },
    {
     "TimeMs": 19315,
     "Key": 81,
     "DurationMs": 194,
     "Vel": 96
    },
    {
     "TimeMs": 19316,
     "Key": 33,
     "DurationMs": 194,
     "Vel": 96
    },
    {
     "TimeMs": 19317,
     "Key": 45,
     "DurationMs": 194,
     "Vel": 96
    },
    {
     "TimeMs": 19520,
     "Key": 73,
     "DurationMs": 96,
     "Vel": 96
    },
    {
     "TimeMs": 19521,
     "Key": 85,
     "DurationMs": 96,
     "Vel": 96
    },
    {
     "TimeMs": 19522,
     "Key": 32,
     "DurationMs": 192,
     "Vel": 96
    },
    {
     "TimeMs": 19523,
     "Key": 44,
     "DurationMs": 192,
     "Vel": 96
    },
    {
     "TimeMs": 19623,
     "Key": 75,
     "DurationMs": 96,
     "Vel": 96
    },
    {
     "TimeMs": 19624,
     "Key": 87,
     "DurationMs": 96,
     "Vel": 96
    },
    {
     "TimeMs": 19726,
     "Key": 76,
     "DurationMs": 194,
     "Vel": 96
    },
    {
     "TimeMs": 19726,
     "Key": 88,
     "DurationMs": 194,
     "Vel": 96
    },
    {
     "TimeMs": 19727,
     "Key": 25,
     "DurationMs": 194,
     "Vel": 96
    },
    {
     "TimeMs": 19728,
     "Key": 37,
     "DurationMs": 194,
     "Vel": 96
    },
    {
     "TimeMs": 19931,
     "Key": 75,
     "DurationMs": 194,
     "Vel": 96
    },
    {
     "TimeMs": 19932,
     "Key": 87,
     "DurationMs": 194,
     "Vel": 96
    },
    {
     "TimeMs": 19933,
     "Key": 49,
     "DurationMs": 194,
     "Vel": 96
    },
    {
     "TimeMs": 20136,
     "Key": 78,
     "DurationMs": 194,
     "Vel": 96
    },
    {
     "TimeMs": 20137,
     "Key": 90,
     "DurationMs": 194,
     "Vel": 96
    },
    {
     "TimeMs": 20138,
     "Key": 52,
     "DurationMs": 194,
     "Vel": 96
    },
    {
     "TimeMs": 20139,
     "Key": 56,
     "DurationMs": 194,
     "Vel": 96
    },
    {
     "TimeMs": 20140,
     "Key": 61,
     "DurationMs": 194,
     "Vel": 96
    },
    {
     "TimeMs": 20342,
     "Key": 76,
     "DurationMs": 194,
     "Vel": 96
    },
    {
     "TimeMs": 20343,
     "Key": 88,
     "DurationMs": 194,
     "Vel": 96
    },
    {
     "TimeMs": 20344,
     "Key": 49,
     "DurationMs": 194,
     "Vel": 96
    },
    {
     "TimeMs": 20547,
     "Key": 80,
     "DurationMs": 194,
     "Vel": 96
    },
    {
     "TimeMs": 20548,
     "Key": 92,
     "DurationMs": 194,
     "Vel": 96
    },
    {
     "TimeMs": 20549,
     "Key": 32,
     "DurationMs": 194,
     "Vel": 96
    },
    {
     "TimeMs": 20550,
     "Key": 44,
     "DurationMs": 194,
     "Vel": 96
    },
    {
     "TimeMs": 20753,
     "Key": 78,
     "DurationMs": 194,
     "Vel": 96
    },
    {
     "TimeMs": 20754,
     "Key": 90,
     "DurationMs": 194,
     "Vel": 96
    },
    {
     "TimeMs": 20755,
     "Key": 52,
     "DurationMs": 194,
     "Vel": 96
    },
    {
     "TimeMs": 20958,
     "Key": 81,
     "DurationMs": 194,
     "Vel": 96
    },
    {
     "TimeMs": 20959,
     "Key": 93,
     "DurationMs": 194,
     "Vel": 96
    },
    {
     "TimeMs": 20960,
     "Key": 56,
     "DurationMs": 194,
     "Vel": 96
    },
    {
     "TimeMs": 20961,
     "Key": 60,
     "DurationMs": 194,
     "Vel": 96
    },
    {
     "TimeMs": 21164,
     "Key": 80,
     "DurationMs": 194,
     "Vel": 96
    },
    {
     "TimeMs": 21165,
     "Key": 92,
     "DurationMs": 194,
     "Vel": 96
    },
    {
     "TimeMs": 21166,
     "Key": 52,
     "DurationMs": 194,
     "Vel": 96
    },
    {
     "TimeMs": 21369,
     "Key": 78,
     "DurationMs": 194,
     "Vel": 96
    },
    {
     "TimeMs": 21370,
     "Key": 90,
     "DurationMs": 194,
     "Vel": 96
    },
    {
     "TimeMs": 21371,
     "Key": 25,
     "DurationMs": 194,
     "Vel": 96
    },
    {
     "TimeMs": 21372,
     "Key": 37,
     "DurationMs": 194,
     "Vel": 96
    },
    {
     "TimeMs": 21575,
     "Key": 80,
     "DurationMs": 194,
     "Vel": 96
    },
    {
     "TimeMs": 21576,
     "Key": 92,
     "DurationMs": 194,
     "Vel": 96
    },
    {
     "TimeMs": 21577,
     "Key": 49,
     "DurationMs": 194,
     "Vel": 96
    },
    {
     "TimeMs": 21780,
     "Key": 76,
     "DurationMs": 194,
     "Vel": 96
    },
    {
     "TimeMs": 21781,
     "Key": 88,
     "DurationMs": 194,
     "Vel": 96
    },
    {
     "TimeMs": 21782,
     "Key": 52,
     "DurationMs": 194,
     "Vel": 96
    },
    {
     "TimeMs": 21783,
     "Key": 56,
     "DurationMs": 194,
     "Vel": 96
    },
    {
     "TimeMs": 21784,
     "Key": 61,
     "DurationMs": 194,
     "Vel": 96
    },
    {
     "TimeMs": 21986,
     "Key": 75,
     "DurationMs": 194,
     "Vel": 96
    },
    {
     "TimeMs": 21987,
     "Key": 87,
     "DurationMs": 194,
     "Vel": 96
    },
    {
     "TimeMs": 21988,
     "Key": 49,
     "DurationMs": 194,
     "Vel": 96
    },
    {
     "TimeMs": 22191,
     "Key": 76,
     "DurationMs": 194,
     "Vel": 96
    },
    {
     "TimeMs": 22192,
     "Key": 88,
     "DurationMs": 194,
     "Vel": 96
    },
    {
     "TimeMs": 22193,
     "Key": 32,
     "DurationMs": 194,
     "Vel": 96
    },
    {
     "TimeMs": 22194,
     "Key": 44,
     "DurationMs": 194,
     "Vel": 96
    },
    {
     "TimeMs": 22397,
     "Key": 80,
     "DurationMs": 194,
     "Vel": 96
    },
    {
     "TimeMs": 22398,
     "Key": 92,
     "DurationMs": 194,
     "Vel": 96
    },
    {
     "TimeMs": 22398,
     "Key": 52,
     "DurationMs": 194,
     "Vel": 96
    },
    {
     "TimeMs": 22602,
     "Key": 75,
     "DurationMs": 194,
     "Vel": 96
    },
    {
     "TimeMs": 22603,
     "Key": 88,
     "DurationMs": 194,
     "Vel": 96
    },
    {
     "TimeMs": 22604,
     "Key": 56,
     "DurationMs": 194,
     "Vel": 96
    },
    {
     "TimeMs": 22605,
     "Key": 60,
     "DurationMs": 194,
     "Vel": 96
    },
    {
     "TimeMs": 22808,
     "Key": 80,
     "DurationMs": 194,
     "Vel": 96
    },
    {
     "TimeMs": 22809,
     "Key": 92,
     "DurationMs": 194,
     "Vel": 96
    },
    {
     "TimeMs": 22809,
     "Key": 52,
     "DurationMs": 194,
     "Vel": 96
    },
    {
     "TimeMs": 23013,
     "Key": 73,
     "DurationMs": 194,
     "Vel": 96
    },
    {
     "TimeMs": 23014,
     "Key": 85,
     "DurationMs": 194,
     "Vel": 96
    },
    {
     "TimeMs": 23015,
     "Key": 25,
     "DurationMs": 194,
     "Vel": 96
    },
    {
     "TimeMs": 23016,
     "Key": 37,
     "DurationMs": 194,
     "Vel": 96
    },
    {
     "TimeMs": 23219,
     "Key": 68,
     "DurationMs": 194,
     "Vel": 96
    },
    {
     "TimeMs": 23220,
     "Key": 80,
     "DurationMs": 194,
     "Vel": 96
    },
    {
     "TimeMs": 23220,
     "Key": 49,
     "DurationMs": 194,
     "Vel": 96
    },
    {
     "TimeMs": 23424,
     "Key": 73,
     "DurationMs": 194,
     "Vel": 96
    },
    {
     "TimeMs": 23425,
     "Key": 85,
     "DurationMs": 194,
     "Vel": 96
    },
    {
     "TimeMs": 23426,
     "Key": 52,
     "DurationMs": 194,
     "Vel": 96
    },
    {
     "TimeMs": 23427,
     "Key": 56,
     "DurationMs": 194,
     "Vel": 96
    },
    {
     "TimeMs": 23428,
     "Key": 61,
     "DurationMs": 194,
     "Vel": 96
    },
    {
     "TimeMs": 23630,
     "Key": 75,
     "DurationMs": 194,
     "Vel": 96
    },
    {
     "TimeMs": 23630,
     "Key": 87,
     "DurationMs": 194,
     "Vel": 96
    },
    {
     "TimeMs": 23631,
     "Key": 49,
     "DurationMs": 194,
     "Vel": 96
    },
    {
     "TimeMs": 23835,
     "Key": 76,
     "DurationMs": 194,
     "Vel": 96
    },
    {
     "TimeMs": 23836,
     "Key": 88,
     "DurationMs": 194,
     "Vel": 96
    },
    {
     "TimeMs": 23837,
     "Key": 32,
     "DurationMs": 194,
     "Vel": 96
    },
    {
     "TimeMs": 23838,
     "Key": 44,
     "DurationMs": 194,
     "Vel": 96
    },
    {
     "TimeMs": 24041,
     "Key": 68,
     "DurationMs": 194,
     "Vel": 96
    },
    {
     "TimeMs": 24041,
     "Key": 80,
     "DurationMs": 194,
     "Vel": 96
    },
    {
     "TimeMs": 24042,
     "Key": 52,
     "DurationMs": 194,
     "Vel": 96
    },
    {
     "TimeMs": 24246,
     "Key": 75,
     "DurationMs": 194,
     "Vel": 96
    },
    {
     "TimeMs": 24247,
     "Key": 87,
     "DurationMs": 194,
     "Vel": 96
    },
    {
     "TimeMs": 24248,
     "Key": 56,
     "DurationMs": 194,
     "Vel": 96
    },
    {
     "TimeMs": 24249,
     "Key": 60,
     "DurationMs": 194,
     "Vel": 96
    },
    {
     "TimeMs": 24452,
     "Key": 68,
     "DurationMs": 194,
     "Vel": 96
    },
    {
     "TimeMs": 24452,
     "Key": 80,
     "DurationMs": 194,
     "Vel": 96
    },
    {
     "TimeMs": 24453,
     "Key": 52,
     "DurationMs": 194,
     "Vel": 96
    },
    {
     "TimeMs": 24657,
     "Key": 73,
     "DurationMs": 194,
     "Vel": 96
    },
    {
     "TimeMs": 24658,
     "Key": 85,
     "DurationMs": 194,
     "Vel": 96
    },
    {
     "TimeMs": 24659,
     "Key": 37,
     "DurationMs": 194,
     "Vel": 96
    },
    {
     "TimeMs": 24660,
     "Key": 49,
     "DurationMs": 194,
     "Vel": 96
    },
    {
     "TimeMs": 24863,
     "Key": 68,
     "DurationMs": 194,
     "Vel": 96
    },
    {
     "TimeMs": 24863,
     "Key": 80,
     "DurationMs": 194,
     "Vel": 96
    },
    {
     "TimeMs": 24864,
     "Key": 49,
     "DurationMs": 194,
     "Vel": 96
    },
    {
     "TimeMs": 25068,
     "Key": 73,
     "DurationMs": 194,
     "Vel": 96
    },
    {
     "TimeMs": 25069,
     "Key": 85,
     "DurationMs": 194,
     "Vel": 96
    },
    {
     "TimeMs": 25070,
     "Key": 52,
     "DurationMs": 194,
     "Vel": 96
    },
    {
     "TimeMs": 25071,
     "Key": 56,
     "DurationMs": 194,
     "Vel": 96
    },
    {
     "TimeMs": 25071,
     "Key": 61,
     "DurationMs": 194,
     "Vel": 96
    },
    {
     "TimeMs": 25273,
     "Key": 68,
     "DurationMs": 194,
     "Vel": 96
    },
    {
     "TimeMs": 25274,
     "Key": 80,
     "DurationMs": 194,
     "Vel": 96
    },
    {
     "TimeMs": 25275,
     "Key": 49,
     "DurationMs": 194,
     "Vel": 96
    },
    {
     "TimeMs": 25479,
     "Key": 73,
     "DurationMs": 194,
     "Vel": 96
    },
    {
     "TimeMs": 25480,
     "Key": 85,
     "DurationMs": 194,
     "Vel": 96
    },
    {
     "TimeMs": 25481,
     "Key": 44,
     "DurationMs": 387,
     "Vel": 96
    },
    {
     "TimeMs": 25482,
     "Key": 56,
     "DurationMs": 387,
     "Vel": 96
    },
    {
     "TimeMs": 25684,
     "Key": 71,
     "DurationMs": 194,
     "Vel": 96
    },
    {
     "TimeMs": 25685,
     "Key": 83,
     "DurationMs": 194,
     "Vel": 96
    },
    {
     "TimeMs": 25890,
     "Key": 80,
     "DurationMs": 389,
     "Vel": 96
    },
    {
     "TimeMs": 25891,
     "Key": 57,
     "DurationMs": 193,
     "Vel": 96
    },
    {
     "TimeMs": 26095,
     "Key": 56,
     "DurationMs": 194,
     "Vel": 96
    },
    {
     "TimeMs": 26301,
     "Key": 88,
     "DurationMs": 389,
     "Vel": 64
    },
    {
     "TimeMs": 26302,
     "Key": 61,
     "DurationMs": 779,
     "Vel": 64
    },
    {
     "TimeMs": 26506,
     "Key": 68,
     "DurationMs": 194,
     "Vel": 64
    },
    {
     "TimeMs": 26712,
     "Key": 90,
     "DurationMs": 194,
     "Vel": 64
    },
    {
     "TimeMs": 26713,
     "Key": 64,
     "DurationMs": 194,
     "Vel": 64
    },
    {
     "TimeMs": 26917,
     "Key": 87,
     "DurationMs": 389,
     "Vel": 64
    },
    {
     "TimeMs": 26918,
     "Key": 68,
     "DurationMs": 193,
     "Vel": 64
    },
    {
     "TimeMs": 27123,
     "Key": 56,
     "DurationMs": 779,
     "Vel": 64
    },
    {
     "TimeMs": 27328,
     "Key": 88,
     "DurationMs": 389,
     "Vel": 64
    },
    {
     "TimeMs": 27329,
     "Key": 64,
     "DurationMs": 193,
     "Vel": 64
    },
    {
     "TimeMs": 27534,
     "Key": 60,
     "DurationMs": 194,
     "Vel": 64
    },
    {
     "TimeMs": 27739,
     "Key": 85,
     "DurationMs": 389,
     "Vel": 64
    },
    {
     "TimeMs": 27740,
     "Key": 64,
     "DurationMs": 193,
     "Vel": 64
    },
    {
     "TimeMs": 27945,
     "Key": 61,
     "DurationMs": 779,
     "Vel": 64
    },
    {
     "TimeMs": 28150,
     "Key": 87,
     "DurationMs": 389,
     "Vel": 64
    },
    {
     "TimeMs": 28151,
     "Key": 68,
     "DurationMs": 193,
     "Vel": 64
    },
    {
     "TimeMs": 28356,
     "Key": 64,
     "DurationMs": 194,
     "Vel": 64
    },
    {
     "TimeMs": 28561,
     "Key": 81,
     "DurationMs": 389,
     "Vel": 64
    },
    {
     "TimeMs": 28562,
     "Key": 68,
     "DurationMs": 193,
     "Vel": 64
    },
    {
     "TimeMs": 28767,
     "Key": 56,
     "DurationMs": 779,
     "Vel": 64
    },
    {
     "TimeMs": 28972,
     "Key": 80,
     "DurationMs": 389,
     "Vel": 64
    },
    {
     "TimeMs": 28973,
     "Key": 64,
     "DurationMs": 193,
     "Vel": 64
    },
    {
     "TimeMs": 29178,
     "Key": 60,
     "DurationMs": 194,
     "Vel": 64
    },
    {
     "TimeMs": 29383,
     "Key": 80,
     "DurationMs": 194,
     "Vel": 64
    },
    {
     "TimeMs": 29384,
     "Key": 64,
     "DurationMs": 194,
     "Vel": 64
    },
    {
     "TimeMs": 29589,
     "Key": 88,
     "DurationMs": 389,
     "Vel": 64
    },
    {
     "TimeMs": 29589,
     "Key": 61,
     "DurationMs": 779,
     "Vel": 64
    },
    {
     "TimeMs": 29794,
     "Key": 68,
     "DurationMs": 194,
     "Vel": 64
    },
    {
     "TimeMs": 30000,
     "Key": 90,
     "DurationMs": 194,
     "Vel": 64
    },
    {
     "TimeMs": 30000,
     "Key": 64,
     "DurationMs": 194,
     "Vel": 64
    },
    {
     "TimeMs": 30205,
     "Key": 87,
     "DurationMs": 389,
     "Vel": 64
    },
    {
     "TimeMs": 30206,
     "Key": 68,
     "DurationMs": 193,
     "Vel": 64
    },
    {
     "TimeMs": 30410,
     "Key": 56,
     "DurationMs": 779,
     "Vel": 64
    },
    {
     "TimeMs": 30616,
     "Key": 88,
     "DurationMs": 389,
     "Vel": 64
    },
    {
     "TimeMs": 30617,
     "Key": 64,
     "DurationMs": 193,
     "Vel": 64
    },
    {
     "TimeMs": 30821,
     "Key": 60,
     "DurationMs": 194,
     "Vel": 64
    },
    {
     "TimeMs": 31027,
     "Key": 85,
     "DurationMs": 389,
     "Vel": 64
    },
    {
     "TimeMs": 31028,
     "Key": 64,
     "DurationMs": 193,
     "Vel": 64
    },
    {
     "TimeMs": 31232,
     "Key": 57,
     "DurationMs": 779,
     "Vel": 64
    },
    {
     "TimeMs": 31438,
     "Key": 95,
     "DurationMs": 389,
     "Vel": 64
    },
    {
     "TimeMs": 31439,
     "Key": 64,
     "DurationMs": 193,
     "Vel": 64
    },
    {
     "TimeMs": 31643,
     "Key": 68,
     "DurationMs": 194,
     "Vel": 64
    },
    {
     "TimeMs": 31849,
     "Key": 97,
     "DurationMs": 584,
     "Vel": 64
    },
    {
     "TimeMs": 31850,
     "Key": 64,
     "DurationMs": 193,
     "Vel": 64
    },
    {
     "TimeMs": 32054,
     "Key": 59,
     "DurationMs": 779,
     "Vel": 64
    },
    {
     "TimeMs": 32260,
     "Key": 66,
     "DurationMs": 194,
     "Vel": 64
    },
    {
     "TimeMs": 32261,
     "Key": 71,
     "DurationMs": 194,
     "Vel": 64
    },
    {
     "TimeMs": 32465,
     "Key": 80,
     "DurationMs": 389,
     "Vel": 64
    },
    {
     "TimeMs": 32466,
     "Key": 63,
     "DurationMs": 193,
     "Vel": 64
    },
    {
     "TimeMs": 32467,
     "Key": 69,
     "DurationMs": 193,
     "Vel": 64
    },
    {
     "TimeMs": 32671,
     "Key": 68,
     "DurationMs": 194,
     "Vel": 64
    },
    {
     "TimeMs": 32876,
     "Key": 88,
     "DurationMs": 389,
     "Vel": 64
    },
    {
     "TimeMs": 32877,
     "Key": 61,
     "DurationMs": 779,
     "Vel": 64
    },
    {
     "TimeMs": 33082,
     "Key": 68,
     "DurationMs": 194,
     "Vel": 64
    },
    {
     "TimeMs": 33287,
     "Key": 90,
     "DurationMs": 194,
     "Vel": 64
    },
    {
     "TimeMs": 33288,
     "Key": 64,
     "DurationMs": 194,
     "Vel": 64
    },
    {
     "TimeMs": 33493,
     "Key": 87,
     "DurationMs": 389,
     "Vel": 64
    },
    {
     "TimeMs": 33494,
     "Key": 68,
     "DurationMs": 193,
     "Vel": 64
    },
    {
     "TimeMs": 33698,
     "Key": 56,
     "DurationMs": 779,
     "Vel": 64
    },
    {
     "TimeMs": 33904,
     "Key": 88,
     "DurationMs": 389,
     "Vel": 64
    },
    {
     "TimeMs": 33904,
     "Key": 64,
     "DurationMs": 193,
     "Vel": 64
    },
    {
     "TimeMs": 34109,
     "Key": 60,
     "DurationMs": 194,
     "Vel": 64
    },
    {
     "TimeMs": 34315,
     "Key": 85,
     "DurationMs": 389,
     "Vel": 64
    },
    {
     "TimeMs": 34315,
     "Key": 64,
     "DurationMs": 193,
     "Vel": 64
    },
    {
     "TimeMs": 34520,
     "Key": 61,
     "DurationMs": 779,
     "Vel": 64
    },
    {
     "TimeMs": 34726,
     "Key": 87,
     "DurationMs": 389,
     "Vel": 64
    },
    {
     "TimeMs": 34726,
     "Key": 68,
     "DurationMs": 193,
     "Vel": 64
    },
    {
     "TimeMs": 34931,
     "Key": 64,
     "DurationMs": 194,
     "Vel": 64
    },
    {
     "TimeMs": 35136,
     "Key": 81,
     "DurationMs": 389,
     "Vel": 64
    },
    {
     "TimeMs": 35137,
     "Key": 68,
     "DurationMs": 193,
     "Vel": 64
    },
    {
     "TimeMs": 35342,
     "Key": 56,
     "DurationMs": 779,
     "Vel": 64
    },
    {
     "TimeMs": 35547,
     "Key": 80,
     "DurationMs": 584,
     "Vel": 64
    },
    {
     "TimeMs": 35548,
     "Key": 64,
     "DurationMs": 193,
     "Vel": 64
    },
    {
     "TimeMs": 35753,
     "Key": 60,
     "DurationMs": 194,
     "Vel": 64
    },
    {
     "TimeMs": 35958,
     "Key": 64,
     "DurationMs": 194,
     "Vel": 64
    },
    {
     "TimeMs": 36164,
     "Key": 76,
     "DurationMs": 389,
     "Vel": 64
    },
    {
     "TimeMs": 36165,
     "Key": 61,
     "DurationMs": 193,
     "Vel": 64
    },
    {
     "TimeMs": 36166,
     "Key": 64,
     "DurationMs": 193,
     "Vel": 64
    },
    {
     "TimeMs": 36166,
     "Key": 68,
     "DurationMs": 193,
     "Vel": 64
    },
    {
     "TimeMs": 36369,
     "Key": 61,
     "DurationMs": 101,
     "Vel": 64
    },
    {
     "TimeMs": 36370,
     "Key": 64,
     "DurationMs": 101,
     "Vel": 64
    },
    {
     "TimeMs": 36371,
     "Key": 68,
     "DurationMs": 101,
     "Vel": 64
    },
    {
     "TimeMs": 36575,
     "Key": 80,
     "DurationMs": 194,
     "Vel": 64
    },
    {
     "TimeMs": 36780,
     "Key": 75,
     "DurationMs": 389,
     "Vel": 64
    },
    {
     "TimeMs": 36781,
     "Key": 56,
     "DurationMs": 193,
     "Vel": 64
    },
    {
     "TimeMs": 36782,
     "Key": 60,
     "DurationMs": 193,
     "Vel": 64
    },
    {
     "TimeMs": 36783,
     "Key": 64,
     "DurationMs": 193,
     "Vel": 64
    },
    {
     "TimeMs": 36986,
     "Key": 56,
     "DurationMs": 194,
     "Vel": 64
    },
    {
     "TimeMs": 36987,
     "Key": 60,
     "DurationMs": 194,
     "Vel": 64
    },
    {
     "TimeMs": 36988,
     "Key": 64,
     "DurationMs": 194,
     "Vel": 64
    },
    {
     "TimeMs": 37191,
     "Key": 80,
     "DurationMs": 389,
     "Vel": 64
    },
    {
     "TimeMs": 37192,
     "Key": 64,
     "DurationMs": 193,
     "Vel": 64
    },
    {
     "TimeMs": 37397,
     "Key": 56,
     "DurationMs": 194,
     "Vel": 64
    },
    {
     "TimeMs": 37602,
     "Key": 64,
     "DurationMs": 194,
     "Vel": 64
    },
    {
     "TimeMs": 37603,
     "Key": 68,
     "DurationMs": 194,
     "Vel": 64
    },
    {
     "TimeMs": 37604,
     "Key": 73,
     "DurationMs": 194,
     "Vel": 64
    },
    {
     "TimeMs": 37605,
     "Key": 49,
     "DurationMs": 194,
     "Vel": 64
    },
    {
     "TimeMs": 37606,
     "Key": 61,
     "DurationMs": 194,
     "Vel": 64
    },
    {
     "TimeMs": 38630,
     "Key": 86,
     "DurationMs": 96,
     "Vel": 64
    },
    {
     "TimeMs": 38631,
     "Key": 38,
     "DurationMs": 101,
     "Vel": 64
    },
    {
     "TimeMs": 38631,
     "Key": 50,
     "DurationMs": 101,
     "Vel": 64
    },
    {
     "TimeMs": 38732,
     "Key": 74,
     "DurationMs": 96,
     "Vel": 67
    },
    {
     "TimeMs": 38835,
     "Key": 84,
     "DurationMs": 96,
     "Vel": 71
    },
    {
     "TimeMs": 38836,
     "Key": 36,
     "DurationMs": 101,
     "Vel": 71
    },
    {
     "TimeMs": 38837,
     "Key": 48,
     "DurationMs": 101,
     "Vel": 71
    },
    {
     "TimeMs": 38938,
     "Key": 72,
     "DurationMs": 96,
     "Vel": 75
    },
    {
     "TimeMs": 39041,
     "Key": 82,
     "DurationMs": 96,
     "Vel": 79
    },
    {
     "TimeMs": 39041,
     "Key": 34,
     "DurationMs": 101,
     "Vel": 79
    },
    {
     "TimeMs": 39042,
     "Key": 46,
     "DurationMs": 101,
     "Vel": 79
    },
    {
     "TimeMs": 39143,
     "Key": 70,
     "DurationMs": 96,
     "Vel": 82
    },
    {
     "TimeMs": 39246,
     "Key": 81,
     "DurationMs": 96,
     "Vel": 86
    },
    {
     "TimeMs": 39247,
     "Key": 33,
     "DurationMs": 101,
     "Vel": 86
    },
    {
     "TimeMs": 39248,
     "Key": 45,
     "DurationMs": 101,
     "Vel": 86
    },
    {
     "TimeMs": 39349,
     "Key": 69,
     "DurationMs": 96,
     "Vel": 90
    },
    {
     "TimeMs": 39452,
     "Key": 62,
     "DurationMs": 779,
     "Vel": 96
    },
    {
     "TimeMs": 39452,
     "Key": 65,
     "DurationMs": 779,
     "Vel": 96
    },
    {
     "TimeMs": 39453,
     "Key": 74,
     "DurationMs": 779,
     "Vel": 96
    },
    {
     "TimeMs": 39454,
     "Key": 26,
     "DurationMs": 191,
     "Vel": 96
    },
    {
     "TimeMs": 39455,
     "Key": 38,
     "DurationMs": 191,
     "Vel": 96
    },
    {
     "TimeMs": 39657,
     "Key": 50,
     "DurationMs": 194,
     "Vel": 96
    },
    {
     "TimeMs": 39863,
     "Key": 53,
     "DurationMs": 194,
     "Vel": 96
    },
    {
     "TimeMs": 39863,
     "Key": 57,
     "DurationMs": 194,
     "Vel": 96
    },
    {
     "TimeMs": 40068,
     "Key": 50,
     "DurationMs": 194,
     "Vel": 96
    },
    {
     "TimeMs": 40273,
     "Key": 65,
     "DurationMs": 194,
     "Vel": 96
    },
    {
     "TimeMs": 40274,
     "Key": 69,
     "DurationMs": 194,
     "Vel": 96
    },
    {
     "TimeMs": 40275,
     "Key": 77,
     "DurationMs": 194,
     "Vel": 96
    },
    {
     "TimeMs": 40276,
     "Key": 24,
     "DurationMs": 194,
     "Vel": 96
    },
    {
     "TimeMs": 40277,
     "Key": 36,
     "DurationMs": 194,
     "Vel": 96
    },
    {
     "TimeMs": 40479,
     "Key": 62,
     "DurationMs": 389,
     "Vel": 96
    },
    {
     "TimeMs": 40480,
     "Key": 65,
     "DurationMs": 389,
     "Vel": 96
    },
    {
     "TimeMs": 40481,
     "Key": 74,
     "DurationMs": 389,
     "Vel": 96
    },
    {
     "TimeMs": 40482,
     "Key": 48,
     "DurationMs": 191,
     "Vel": 96
    },
    {
     "TimeMs": 40684,
     "Key": 52,
     "DurationMs": 194,
     "Vel": 96
    },
    {
     "TimeMs": 40685,
     "Key": 55,
     "DurationMs": 194,
     "Vel": 96
    },
    {
     "TimeMs": 40890,
     "Key": 62,
     "DurationMs": 194,
     "Vel": 96
    },
    {
     "TimeMs": 40891,
     "Key": 74,
     "DurationMs": 194,
     "Vel": 96
    },
    {
     "TimeMs": 40892,
     "Key": 48,
     "DurationMs": 194,
     "Vel": 96
    },
    {
     "TimeMs": 41095,
     "Key": 62,
     "DurationMs": 194,
     "Vel": 96
    },
    {
     "TimeMs": 41096,
     "Key": 65,
     "DurationMs": 194,
     "Vel": 96
    },
    {
     "TimeMs": 41097,
     "Key": 69,
     "DurationMs": 194,
     "Vel": 96
    },
    {
     "TimeMs": 41098,
     "Key": 74,
     "DurationMs": 194,
     "Vel": 96
    },
    {
     "TimeMs": 41099,
     "Key": 22,
     "DurationMs": 194,
     "Vel": 96
    },
    {
     "TimeMs": 41100,
     "Key": 34,
     "DurationMs": 194,
     "Vel": 96
    },
    {
     "TimeMs": 41301,
     "Key": 69,
     "DurationMs": 194,
     "Vel": 96
    },
    {
     "TimeMs": 41302,
     "Key": 74,
     "DurationMs": 194,
     "Vel": 96
    },
    {
     "TimeMs": 41303,
     "Key": 77,
     "DurationMs": 194,
     "Vel": 96
    },
    {
     "TimeMs": 41303,
     "Key": 81,
     "DurationMs": 194,
     "Vel": 96
    },
    {
     "TimeMs": 41304,
     "Key": 46,
     "DurationMs": 194,
     "Vel": 96
    },
    {
     "TimeMs": 41506,
     "Key": 69,
     "DurationMs": 194,
     "Vel": 96
    },
    {
     "TimeMs": 41507,
     "Key": 74,
     "DurationMs": 194,
     "Vel": 96
    },
    {
     "TimeMs": 41508,
     "Key": 77,
     "DurationMs": 194,
     "Vel": 96
    },
    {
     "TimeMs": 41509,
     "Key": 81,
     "DurationMs": 194,
     "Vel": 96
    },
    {
     "TimeMs": 41510,
     "Key": 53,
     "DurationMs": 194,
     "Vel": 96
    },
    {
     "TimeMs": 41511,
     "Key": 58,
     "DurationMs": 194,
     "Vel": 96
    },
    {
     "TimeMs": 41712,
     "Key": 69,
     "DurationMs": 194,
     "Vel": 96
    },
    {
     "TimeMs": 41713,
     "Key": 74,
     "DurationMs": 194,
     "Vel": 96
    },
    {
     "TimeMs": 41714,
     "Key": 77,
     "DurationMs": 194,
     "Vel": 96
    },
    {
     "TimeMs": 41714,
     "Key": 81,
     "DurationMs": 194,
     "Vel": 96
    },
    {
     "TimeMs": 41715,
     "Key": 46,
     "DurationMs": 194,
     "Vel": 96
    },
    {
     "TimeMs": 41917,
     "Key": 69,
     "DurationMs": 389,
     "Vel": 96
    },
    {
     "TimeMs": 41918,
     "Key": 72,
     "DurationMs": 389,
     "Vel": 96
    },
    {
     "TimeMs": 41919,
     "Key": 77,
     "DurationMs": 389,
     "Vel": 96
    },
    {
     "TimeMs": 41920,
     "Key": 81,
     "DurationMs": 389,
     "Vel": 96
    },
    {
     "TimeMs": 41921,
     "Key": 33,
     "DurationMs": 190,
     "Vel": 96
    },
    {
     "TimeMs": 41922,
     "Key": 45,
     "DurationMs": 190,
     "Vel": 96
    },
    {
     "TimeMs": 42123,
     "Key": 45,
     "DurationMs": 194,
     "Vel": 96
    },
    {
     "TimeMs": 42328,
     "Key": 65,
     "DurationMs": 194,
     "Vel": 96
    },
    {
     "TimeMs": 42329,
     "Key": 77,
     "DurationMs": 194,
     "Vel": 96
    },
    {
     "TimeMs": 42330,
     "Key": 53,
     "DurationMs": 194,
     "Vel": 96
    },
    {
     "TimeMs": 42331,
     "Key": 57,
     "DurationMs": 194,
     "Vel": 96
    },
    {
     "TimeMs": 42534,
     "Key": 64,
     "DurationMs": 194,
     "Vel": 96
    },
    {
     "TimeMs": 42535,
     "Key": 76,
     "DurationMs": 194,
     "Vel": 96
    },
    {
     "TimeMs": 42535,
     "Key": 45,
     "DurationMs": 194,
     "Vel": 96
    },
    {
     "TimeMs": 42739,
     "Key": 62,
     "DurationMs": 779,
     "Vel": 96
    },
    {
     "TimeMs": 42740,
     "Key": 65,
     "DurationMs": 779,
     "Vel": 96
    },
    {
     "TimeMs": 42741,
     "Key": 70,
     "DurationMs": 779,
     "Vel": 96
    },
    {
     "TimeMs": 42742,
     "Key": 74,
     "DurationMs": 779,
     "Vel": 96
    },
    {
     "TimeMs": 42743,
     "Key": 31,
     "DurationMs": 190,
     "Vel": 96
    },
    {
     "TimeMs": 42744,
     "Key": 43,
     "DurationMs": 190,
     "Vel": 96
    },
    {
     "TimeMs": 42945,
     "Key": 43,
     "DurationMs": 194,
     "Vel": 96
    },
    {
     "TimeMs": 43150,
     "Key": 50,
     "DurationMs": 194,
     "Vel": 96
    },
    {
     "TimeMs": 43151,
     "Key": 58,
     "DurationMs": 194,
     "Vel": 96
    },
    {
     "TimeMs": 43356,
     "Key": 43,
     "DurationMs": 194,
     "Vel": 96
    },
    {
     "TimeMs": 43561,
     "Key": 65,
     "DurationMs": 194,
     "Vel": 96
    },
    {
     "TimeMs": 43562,
     "Key": 69,
     "DurationMs": 194,
     "Vel": 96
    },
    {
     "TimeMs": 43563,
     "Key": 74,
     "DurationMs": 194,
     "Vel": 96
    },
    {
     "TimeMs": 43564,
     "Key": 77,
     "DurationMs": 194,
     "Vel": 96
    },
    {
     "TimeMs": 43565,
     "Key": 29,
     "DurationMs": 194,
     "Vel": 96
    },
    {
     "TimeMs": 43565,
     "Key": 41,
     "DurationMs": 194,
     "Vel": 96
    },
    {
     "TimeMs": 43767,
     "Key": 62,
     "DurationMs": 389,
     "Vel": 96
    },
    {
     "TimeMs": 43767,
     "Key": 65,
     "DurationMs": 389,
     "Vel": 96
    },
    {
     "TimeMs": 43768,
     "Key": 69,
     "DurationMs": 389,
     "Vel": 96
    },
    {
     "TimeMs": 43769,
     "Key": 74,
     "DurationMs": 389,
     "Vel": 96
    },
    {
     "TimeMs": 43770,
     "Key": 50,
     "DurationMs": 190,
     "Vel": 96
    },
    {
     "TimeMs": 43972,
     "Key": 53,
     "DurationMs": 194,
     "Vel": 96
    },
    {
     "TimeMs": 43973,
     "Key": 57,
     "DurationMs": 194,
     "Vel": 96
    },
    {
     "TimeMs": 44178,
     "Key": 62,
     "DurationMs": 194,
     "Vel": 96
    },
    {
     "TimeMs": 44178,
     "Key": 74,
     "DurationMs": 194,
     "Vel": 96
    },
    {
     "TimeMs": 44179,
     "Key": 50,
     "DurationMs": 194,
     "Vel": 96
    },
    {
     "TimeMs": 44383,
     "Key": 62,
     "DurationMs": 194,
     "Vel": 96
    },
    {
     "TimeMs": 44384,
     "Key": 67,
     "DurationMs": 194,
     "Vel": 96
    },
    {
     "TimeMs": 44385,
     "Key": 70,
     "DurationMs": 194,
     "Vel": 96
    },
    {
     "TimeMs": 44386,
     "Key": 74,
     "DurationMs": 194,
     "Vel": 96
    },
    {
     "TimeMs": 44386,
     "Key": 28,
     "DurationMs": 194,
     "Vel": 96
    },
    {
     "TimeMs": 44387,
     "Key": 40,
     "DurationMs": 194,
     "Vel": 96
    },
    {
     "TimeMs": 44589,
     "Key": 69,
     "DurationMs": 194,
     "Vel": 96
    },
    {
     "TimeMs": 44589,
     "Key": 74,
     "DurationMs": 194,
     "Vel": 96
    },
    {
     "TimeMs": 44590,
     "Key": 76,
     "DurationMs": 194,
     "Vel": 96
    },
    {
     "TimeMs": 44591,
     "Key": 81,
     "DurationMs": 194,
     "Vel": 96
    },
    {
     "TimeMs": 44592,
     "Key": 52,
     "DurationMs": 194,
     "Vel": 96
    },
    {
     "TimeMs": 44794,
     "Key": 69,
     "DurationMs": 194,
     "Vel": 96
    },
    {
     "TimeMs": 44795,
     "Key": 74,
     "DurationMs": 194,
     "Vel": 96
    },
    {
     "TimeMs": 44796,
     "Key": 76,
     "DurationMs": 194,
     "Vel": 96
    },
    {
     "TimeMs": 44797,
     "Key": 81,
     "DurationMs": 194,
     "Vel": 96
    },
    {
     "TimeMs": 44797,
     "Key": 55,
     "DurationMs": 194,
     "Vel": 96
    },
    {
     "TimeMs": 44798,
     "Key": 58,
     "DurationMs": 194,
     "Vel": 96
    },
    {
     "TimeMs": 44799,
     "Key": 62,
     "DurationMs": 194,
     "Vel": 96
    },
    {
     "TimeMs": 45000,
     "Key": 70,
     "DurationMs": 194,
     "Vel": 96
    },
    {
     "TimeMs": 45000,
     "Key": 76,
     "DurationMs": 194,
     "Vel": 96
    },
    {
     "TimeMs": 45001,
     "Key": 81,
     "DurationMs": 194,
     "Vel": 96
    },
    {
     "TimeMs": 45002,
     "Key": 52,
     "DurationMs": 194,
     "Vel": 96
    },
    {
     "TimeMs": 45205,
     "Key": 81,
     "DurationMs": 96,
     "Vel": 96
    },
    {
     "TimeMs": 45206,
     "Key": 33,
     "DurationMs": 193,
     "Vel": 96
    },
    {
     "TimeMs": 45207,
     "Key": 45,
     "DurationMs": 193,
     "Vel": 96
    },
    {
     "TimeMs": 45308,
     "Key": 82,
     "DurationMs": 96,
     "Vel": 96
    },
    {
     "TimeMs": 45410,
     "Key": 79,
     "DurationMs": 96,
     "Vel": 96
    },
    {
     "TimeMs": 45411,
     "Key": 45,
     "DurationMs": 193,
     "Vel": 96
    },
    {
     "TimeMs": 45513,
     "Key": 81,
     "DurationMs": 96,
     "Vel": 96
    },
    {
     "TimeMs": 45616,
     "Key": 77,
     "DurationMs": 96,
     "Vel": 96
    },
    {
     "TimeMs": 45617,
     "Key": 52,
     "DurationMs": 193,
     "Vel": 96
    },
    {
     "TimeMs": 45618,
     "Key": 57,
     "DurationMs": 193,
     "Vel": 96
    },
    {
     "TimeMs": 45719,
     "Key": 79,
     "DurationMs": 96,
     "Vel": 96
    },
    {
     "TimeMs": 45821,
     "Key": 76,
     "DurationMs": 96,
     "Vel": 96
    },
    {
     "TimeMs": 45822,
     "Key": 45,
     "DurationMs": 193,
     "Vel": 96
    },
    {
     "TimeMs": 45924,
     "Key": 77,
     "DurationMs": 96,
     "Vel": 96
    },
    {
     "TimeMs": 46027,
     "Key": 62,
     "DurationMs": 779,
     "Vel": 96
    },
    {
     "TimeMs": 46028,
     "Key": 65,
     "DurationMs": 779,
     "Vel": 96
    },
    {
     "TimeMs": 46029,
     "Key": 74,
     "DurationMs": 779,
     "Vel": 96
    },
    {
     "TimeMs": 46029,
     "Key": 26,
     "DurationMs": 191,
     "Vel": 96
    },
    {
     "TimeMs": 46030,
     "Key": 38,
     "DurationMs": 191,
     "Vel": 96
    },
    {
     "TimeMs": 46232,
     "Key": 50,
     "DurationMs": 194,
     "Vel": 96
    },
    {
     "TimeMs": 46438,
     "Key": 53,
     "DurationMs": 194,
     "Vel": 96
    },
    {
     "TimeMs": 46439,
     "Key": 57,
     "DurationMs": 194,
     "Vel": 96
    },
    {
     "TimeMs": 46643,
     "Key": 50,
     "DurationMs": 194,
     "Vel": 96
    },
    {
     "TimeMs": 46849,
     "Key": 65,
     "DurationMs": 194,
     "Vel": 96
    },
    {
     "TimeMs": 46850,
     "Key": 69,
     "DurationMs": 194,
     "Vel": 96
    },
    {
     "TimeMs": 46851,
     "Key": 74,
     "DurationMs": 194,
     "Vel": 96
    },
    {
     "TimeMs": 46851,
     "Key": 77,
     "DurationMs": 194,
     "Vel": 96
    },
    {
     "TimeMs": 46852,
     "Key": 24,
     "DurationMs": 194,
     "Vel": 96
    },
    {
     "TimeMs": 46853,
     "Key": 36,
     "DurationMs": 194,
     "Vel": 96
    },
    {
     "TimeMs": 47054,
     "Key": 62,
     "DurationMs": 389,
     "Vel": 96
    },
    {
     "TimeMs": 47055,
     "Key": 65,
     "DurationMs": 389,
     "Vel": 96
    },
    {
     "TimeMs": 47056,
     "Key": 74,
     "DurationMs": 389,
     "Vel": 96
    },
    {
     "TimeMs": 47057,
     "Key": 48,
     "DurationMs": 191,
     "Vel": 96
    },
    {
     "TimeMs": 47260,
     "Key": 52,
     "DurationMs": 194,
     "Vel": 96
    },
    {
     "TimeMs": 47261,
     "Key": 55,
     "DurationMs": 194,
     "Vel": 96
    },
    {
     "TimeMs": 47465,
     "Key": 62,
     "DurationMs": 194,
     "Vel": 96
    },
    {
     "TimeMs": 47466,
     "Key": 74,
     "DurationMs": 194,
     "Vel": 96
    },
    {
     "TimeMs": 47467,
     "Key": 48,
     "DurationMs": 194,
     "Vel": 96
    },
    {
     "TimeMs": 47671,
     "Key": 62,
     "DurationMs": 194,
     "Vel": 96
    },
    {
     "TimeMs": 47672,
     "Key": 65,
     "DurationMs": 194,
     "Vel": 96
    },
    {
     "TimeMs": 47672,
     "Key": 69,
     "DurationMs": 194,
     "Vel": 96
    },
    {
     "TimeMs": 47673,
     "Key": 74,
     "DurationMs": 194,
     "Vel": 96
    },
    {
     "TimeMs": 47674,
     "Key": 22,
     "DurationMs": 194,
     "Vel": 96
    },
    {
     "TimeMs": 47675,
     "Key": 34,
     "DurationMs": 194,
     "Vel": 96
    },
    {
     "TimeMs": 47876,
     "Key": 69,
     "DurationMs": 194,
     "Vel": 96
    },
    {
     "TimeMs": 47877,
     "Key": 74,
     "DurationMs": 194,
     "Vel": 96
    },
    {
     "TimeMs": 47878,
     "Key": 77,
     "DurationMs": 194,
     "Vel": 96
    },
    {
     "TimeMs": 47879,
     "Key": 81,
     "DurationMs": 194,
     "Vel": 96
    },
    {
     "TimeMs": 47880,
     "Key": 46,
     "DurationMs": 194,
     "Vel": 96
    },
    {
     "TimeMs": 48082,
     "Key": 69,
     "DurationMs": 194,
     "Vel": 96
    },
    {
     "TimeMs": 48083,
     "Key": 74,
     "DurationMs": 194,
     "Vel": 96
    },
    {
     "TimeMs": 48083,
     "Key": 77,
     "DurationMs": 194,
     "Vel": 96
    },
    {
     "TimeMs": 48084,
     "Key": 81,
     "DurationMs": 194,
     "Vel": 96
    },
    {
     "TimeMs": 48085,
     "Key": 53,
     "DurationMs": 194,
     "Vel": 96
    },
    {
     "TimeMs": 48086,
     "Key": 58,
     "DurationMs": 194,
     "Vel": 96
    },
    {
     "TimeMs": 48287,
     "Key": 69,
     "DurationMs": 194,
     "Vel": 96
    },
    {
     "TimeMs": 48288,
     "Key": 74,
     "DurationMs": 194,
     "Vel": 96
    },
    {
     "TimeMs": 48289,
     "Key": 77,
     "DurationMs": 194,
     "Vel": 96
    },
    {
     "TimeMs": 48290,
     "Key": 81,
     "DurationMs": 194,
     "Vel": 96
    },
    {
     "TimeMs": 48291,
     "Key": 46,
     "DurationMs": 194,
     "Vel": 96
    },
    {
     "TimeMs": 48493,
     "Key": 69,
     "DurationMs": 389,
     "Vel": 96
    },
    {
     "TimeMs": 48494,
     "Key": 72,
     "DurationMs": 389,
     "Vel": 96
    },
    {
     "TimeMs": 48494,
     "Key": 77,
     "DurationMs": 389,
     "Vel": 96
    },
    {
     "TimeMs": 48495,
     "Key": 81,
     "DurationMs": 389,
     "Vel": 96
    },
    {
     "TimeMs": 48496,
     "Key": 33,
     "DurationMs": 190,
     "Vel": 96
    },
    {
     "TimeMs": 48497,
     "Key": 45,
     "DurationMs": 190,
     "Vel": 96
    },
    {
     "TimeMs": 48698,
     "Key": 45,
     "DurationMs": 194,
     "Vel": 96
    },
    {
     "TimeMs": 48904,
     "Key": 65,
     "DurationMs": 194,
     "Vel": 96
    },
    {
     "TimeMs": 48904,
     "Key": 77,
     "DurationMs": 194,
     "Vel": 96
    },
    {
     "TimeMs": 48905,
     "Key": 53,
     "DurationMs": 194,
     "Vel": 96
    },
    {
     "TimeMs": 48906,
     "Key": 57,
     "DurationMs": 194,
     "Vel": 96
    },
    {
     "TimeMs": 49109,
     "Key": 64,
     "DurationMs": 194,
     "Vel": 96
    },
    {
     "TimeMs": 49110,
     "Key": 76,
     "DurationMs": 194,
     "Vel": 96
    },
    {
     "TimeMs": 49111,
     "Key": 45,
     "DurationMs": 194,
     "Vel": 96
    },
    {
     "TimeMs": 49315,
     "Key": 62,
     "DurationMs": 389,
     "Vel": 96
    },
    {
     "TimeMs": 49315,
     "Key": 65,
     "DurationMs": 389,
     "Vel": 96
    },
    {
     "TimeMs": 49316,
     "Key": 70,
     "DurationMs": 389,
     "Vel": 96
    },
    {
     "TimeMs": 49317,
     "Key": 74,
     "DurationMs": 389,
     "Vel": 96
    },
    {
     "TimeMs": 49318,
     "Key": 31,
     "DurationMs": 190,
     "Vel": 96
    },
    {
     "TimeMs": 49319,
     "Key": 43,
     "DurationMs": 190,
     "Vel": 96
    },
    {
     "TimeMs": 49520,
     "Key": 43,
     "DurationMs": 194,
     "Vel": 96
    },
    {
     "TimeMs": 49726,
     "Key": 74,
     "DurationMs": 410,
     "Vel": 127
    },
    {
     "TimeMs": 49726,
     "Key": 77,
     "DurationMs": 410,
     "Vel": 127
    },
    {
     "TimeMs": 49727,
     "Key": 82,
     "DurationMs": 410,
     "Vel": 127
    },
    {
     "TimeMs": 49728,
     "Key": 86,
     "DurationMs": 410,
     "Vel": 127
    },
    {
     "TimeMs": 49729,
     "Key": 50,
     "DurationMs": 190,
     "Vel": 96
    },
    {
     "TimeMs": 49730,
     "Key": 58,
     "DurationMs": 190,
     "Vel": 96
    },
    {
     "TimeMs": 49931,
     "Key": 43,
     "DurationMs": 194,
     "Vel": 96
    },
    {
     "TimeMs": 50139,
     "Key": 62,
     "DurationMs": 386,
     "Vel": 96
    },
    {
     "TimeMs": 50140,
     "Key": 67,
     "DurationMs": 386,
     "Vel": 96
    },
    {
     "TimeMs": 50141,
     "Key": 69,
     "DurationMs": 386,
     "Vel": 96
    },
    {
     "TimeMs": 50142,
     "Key": 74,
     "DurationMs": 386,
     "Vel": 96
    },
    {
     "TimeMs": 50142,
     "Key": 33,
     "DurationMs": 188,
     "Vel": 96
    },
    {
     "TimeMs": 50143,
     "Key": 45,
     "DurationMs": 188,
     "Vel": 96
    },
    {
     "TimeMs": 50342,
     "Key": 45,
     "DurationMs": 194,
     "Vel": 96
    },
    {
     "TimeMs": 50547,
     "Key": 74,
     "DurationMs": 410,
     "Vel": 127
    },
    {
     "TimeMs": 50548,
     "Key": 79,
     "DurationMs": 410,
     "Vel": 127
    },
    {
     "TimeMs": 50549,
     "Key": 81,
     "DurationMs": 410,
     "Vel": 127
    },
    {
     "TimeMs": 50550,
     "Key": 86,
     "DurationMs": 410,
     "Vel": 127
    },
    {
     "TimeMs": 50551,
     "Key": 52,
     "DurationMs": 190,
     "Vel": 96
    },
    {
     "TimeMs": 50552,
     "Key": 57,
     "DurationMs": 190,
     "Vel": 96
    },
    {
     "TimeMs": 50753,
     "Key": 45,
     "DurationMs": 194,
     "Vel": 96
    },
    {
     "TimeMs": 50961,
     "Key": 62,
     "DurationMs": 191,
     "Vel": 96
    },
    {
     "TimeMs": 50962,
     "Key": 65,
     "DurationMs": 191,
     "Vel": 96
    },
    {
     "TimeMs": 50963,
     "Key": 69,
     "DurationMs": 191,
     "Vel": 96
    },
    {
     "TimeMs": 50964,
     "Key": 74,
     "DurationMs": 191,
     "Vel": 96
    },
    {
     "TimeMs": 50964,
     "Key": 26,
     "DurationMs": 191,
     "Vel": 96
    },
    {
     "TimeMs": 50965,
     "Key": 38,
     "DurationMs": 191,
     "Vel": 96
    },
    {
     "TimeMs": 51164,
     "Key": 74,
     "DurationMs": 194,
     "Vel": 96
    },
    {
     "TimeMs": 51165,
     "Key": 77,
     "DurationMs": 194,
     "Vel": 96
    },
    {
     "TimeMs": 51166,
     "Key": 81,
     "DurationMs": 194,
     "Vel": 96
    },
    {
     "TimeMs": 51166,
     "Key": 86,
     "DurationMs": 194,
     "Vel": 96
    },
    {
     "TimeMs": 51167,
     "Key": 45,
     "DurationMs": 194,
     "Vel": 96
    },
    {
     "TimeMs": 51168,
     "Key": 57,
     "DurationMs": 194,
     "Vel": 96
    },
    {
     "TimeMs": 51369,
     "Key": 74,
     "DurationMs": 194,
     "Vel": 96
    },
    {
     "TimeMs": 51370,
     "Key": 77,
     "DurationMs": 194,
     "Vel": 96
    },
    {
     "TimeMs": 51371,
     "Key": 81,
     "DurationMs": 194,
     "Vel": 96
    },
    {
     "TimeMs": 51372,
     "Key": 86,
     "DurationMs": 194,
     "Vel": 96
    },
    {
     "TimeMs": 51373,
     "Key": 46,
     "DurationMs": 194,
     "Vel": 96
    },
    {
     "TimeMs": 51374,
     "Key": 58,
     "DurationMs": 194,
     "Vel": 96
    },
    {
     "TimeMs": 51575,
     "Key": 74,
     "DurationMs": 194,
     "Vel": 96
    },
    {
     "TimeMs": 51576,
     "Key": 77,
     "DurationMs": 194,
     "Vel": 96
    },
    {
     "TimeMs": 51577,
     "Key": 81,
     "DurationMs": 194,
     "Vel": 96
    },
    {
     "TimeMs": 51577,
     "Key": 86,
     "DurationMs": 194,
     "Vel": 96
    },
    {
     "TimeMs": 51578,
     "Key": 43,
     "DurationMs": 194,
     "Vel": 96
    },
    {
     "TimeMs": 51579,
     "Key": 55,
     "DurationMs": 194,
     "Vel": 96
    },
    {
     "TimeMs": 51780,
     "Key": 74,
     "DurationMs": 389,
     "Vel": 96
    },
    {
     "TimeMs": 51781,
     "Key": 77,
     "DurationMs": 389,
     "Vel": 96
    },
    {
     "TimeMs": 51782,
     "Key": 81,
     "DurationMs": 389,
     "Vel": 96
    },
    {
     "TimeMs": 51783,
     "Key": 86,
     "DurationMs": 389,
     "Vel": 96
    },
    {
     "TimeMs": 51784,
     "Key": 45,
     "DurationMs": 190,
     "Vel": 96
    },
    {
     "TimeMs": 51785,
     "Key": 57,
     "DurationMs": 190,
     "Vel": 96
    },
    {
     "TimeMs": 51986,
     "Key": 41,
     "DurationMs": 194,
     "Vel": 96
    },
    {
     "TimeMs": 51987,
     "Key": 53,
     "DurationMs": 194,
     "Vel": 96
    },
    {
     "TimeMs": 52191,
     "Key": 69,
     "DurationMs": 389,
     "Vel": 96
    },
    {
     "TimeMs": 52192,
     "Key": 74,
     "DurationMs": 389,
     "Vel": 96
    },
    {
     "TimeMs": 52193,
     "Key": 77,
     "DurationMs": 389,
     "Vel": 96
    },
    {
     "TimeMs": 52194,
     "Key": 81,
     "DurationMs": 389,
     "Vel": 96
    },
    {
     "TimeMs": 52195,
     "Key": 43,
     "DurationMs": 190,
     "Vel": 96
    },
    {
     "TimeMs": 52196,
     "Key": 55,
     "DurationMs": 190,
     "Vel": 96
    },
    {
     "TimeMs": 52397,
     "Key": 40,
     "DurationMs": 194,
     "Vel": 96
    },
    {
     "TimeMs": 52398,
     "Key": 52,
     "DurationMs": 194,
     "Vel": 96
    },
    {
     "TimeMs": 52602,
     "Key": 77,
     "DurationMs": 584,
     "Vel": 96
    },
    {
     "TimeMs": 52603,
     "Key": 81,
     "DurationMs": 584,
     "Vel": 96
    },
    {
     "TimeMs": 52604,
     "Key": 86,
     "DurationMs": 584,
     "Vel": 96
    },
    {
     "TimeMs": 52605,
     "Key": 89,
     "DurationMs": 584,
     "Vel": 96
    },
    {
     "TimeMs": 52606,
     "Key": 26,
     "DurationMs": 190,
     "Vel": 96
    },
    {
     "TimeMs": 52607,
     "Key": 38,
     "DurationMs": 190,
     "Vel": 96
    },
    {
     "TimeMs": 52808,
     "Key": 50,
     "DurationMs": 194,
     "Vel": 96
    },
    {
     "TimeMs": 53013,
     "Key": 53,
     "DurationMs": 194,
     "Vel": 96
    },
    {
     "TimeMs": 53014,
     "Key": 57,
     "DurationMs": 194,
     "Vel": 96
    },
    {
     "TimeMs": 53219,
     "Key": 76,
     "DurationMs": 96,
     "Vel": 96
    },
    {
     "TimeMs": 53220,
     "Key": 88,
     "DurationMs": 96,
     "Vel": 96
    },
    {
     "TimeMs": 53220,
     "Key": 50,
     "DurationMs": 192,
     "Vel": 96
    },
    {
     "TimeMs": 53321,
     "Key": 74,
     "DurationMs": 96,
     "Vel": 96
    },
    {
     "TimeMs": 53322,
     "Key": 86,
     "DurationMs": 96,
     "Vel": 96
    },
    {
     "TimeMs": 53424,
     "Key": 76,
     "DurationMs": 389,
     "Vel": 96
    },
    {
     "TimeMs": 53425,
     "Key": 79,
     "DurationMs": 389,
     "Vel": 96
    },
    {
     "TimeMs": 53426,
     "Key": 84,
     "DurationMs": 389,
     "Vel": 96
    },
    {
     "TimeMs": 53427,
     "Key": 88,
     "DurationMs": 389,
     "Vel": 96
    },
    {
     "TimeMs": 53428,
     "Key": 24,
     "DurationMs": 190,
     "Vel": 96
    },
    {
     "TimeMs": 53428,
     "Key": 36,
     "DurationMs": 190,
     "Vel": 96
    },
    {
     "TimeMs": 53630,
     "Key": 48,
     "DurationMs": 194,
     "Vel": 96
    },
    {
     "TimeMs": 53835,
     "Key": 72,
     "DurationMs": 389,
     "Vel": 96
    },
    {
     "TimeMs": 53836,
     "Key": 76,
     "DurationMs": 389,
     "Vel": 96
    },
    {
     "TimeMs": 53837,
     "Key": 79,
     "DurationMs": 389,
     "Vel": 96
    },
    {
     "TimeMs": 53838,
     "Key": 84,
     "DurationMs": 389,
     "Vel": 96
    },
    {
     "TimeMs": 53839,
     "Key": 52,
     "DurationMs": 190,
     "Vel": 96
    },
    {
     "TimeMs": 53839,
     "Key": 55,
     "DurationMs": 190,
     "Vel": 96
    },
    {
     "TimeMs": 54041,
     "Key": 48,
     "DurationMs": 194,
     "Vel": 96
    },
    {
     "TimeMs": 54246,
     "Key": 74,
     "DurationMs": 584,
     "Vel": 96
    },
    {
     "TimeMs": 54247,
     "Key": 77,
     "DurationMs": 584,
     "Vel": 96
    },
    {
     "TimeMs": 54248,
     "Key": 81,
     "DurationMs": 584,
     "Vel": 96
    },
    {
     "TimeMs": 54249,
     "Key": 86,
     "DurationMs": 584,
     "Vel": 96
    },
    {
     "TimeMs": 54250,
     "Key": 34,
     "DurationMs": 190,
     "Vel": 96
    },
    {
     "TimeMs": 54250,
     "Key": 46,
     "DurationMs": 190,
     "Vel": 96
    },
    {
     "TimeMs": 54452,
     "Key": 46,
     "DurationMs": 194,
     "Vel": 96
    },
    {
     "TimeMs": 54657,
     "Key": 53,
     "DurationMs": 194,
     "Vel": 96
    },
    {
     "TimeMs": 54658,
     "Key": 58,
     "DurationMs": 194,
     "Vel": 96
    },
    {
     "TimeMs": 54863,
     "Key": 72,
     "DurationMs": 96,
     "Vel": 96
    },
    {
     "TimeMs": 54863,
     "Key": 84,
     "DurationMs": 96,
     "Vel": 96
    },
    {
     "TimeMs": 54864,
     "Key": 46,
     "DurationMs": 192,
     "Vel": 96
    },
    {
     "TimeMs": 54965,
     "Key": 70,
     "DurationMs": 96,
     "Vel": 96
    },
    {
     "TimeMs": 54966,
     "Key": 82,
     "DurationMs": 96,
     "Vel": 96
    },
    {
     "TimeMs": 55068,
     "Key": 72,
     "DurationMs": 389,
     "Vel": 96
    },
    {
     "TimeMs": 55069,
     "Key": 84,
     "DurationMs": 389,
     "Vel": 96
    },
    {
     "TimeMs": 55070,
     "Key": 33,
     "DurationMs": 192,
     "Vel": 96
    },
    {
     "TimeMs": 55071,
     "Key": 45,
     "DurationMs": 192,
     "Vel": 96
    },
    {
     "TimeMs": 55273,
     "Key": 45,
     "DurationMs": 194,
     "Vel": 96
    },
    {
     "TimeMs": 55479,
     "Key": 69,
     "DurationMs": 389,
     "Vel": 96
    },
    {
     "TimeMs": 55480,
     "Key": 72,
     "DurationMs": 389,
     "Vel": 96
    },
    {
     "TimeMs": 55481,
     "Key": 77,
     "DurationMs": 389,
     "Vel": 96
    },
    {
     "TimeMs": 55482,
     "Key": 81,
     "DurationMs": 389,
     "Vel": 96
    },
    {
     "TimeMs": 55482,
     "Key": 53,
     "DurationMs": 190,
     "Vel": 96
    },
    {
     "TimeMs": 55483,
     "Key": 57,
     "DurationMs": 190,
     "Vel": 96
    },
    {
     "TimeMs": 55684,
     "Key": 45,
     "DurationMs": 194,
     "Vel": 96
    },
    {
     "TimeMs": 55890,
     "Key": 70,
     "DurationMs": 584,
     "Vel": 96
    },
    {
     "TimeMs": 55891,
     "Key": 74,
     "DurationMs": 584,
     "Vel": 96
    },
    {
     "TimeMs": 55892,
     "Key": 77,
     "DurationMs": 584,
     "Vel": 96
    },
    {
     "TimeMs": 55892,
     "Key": 82,
     "DurationMs": 584,
     "Vel": 96
    },
    {
     "TimeMs": 55893,
     "Key": 31,
     "DurationMs": 190,
     "Vel": 96
    },
    {
     "TimeMs": 55894,
     "Key": 43,
     "DurationMs": 190,
     "Vel": 96
    },
    {
     "TimeMs": 56095,
     "Key": 43,
     "DurationMs": 194,
     "Vel": 96
    },
    {
     "TimeMs": 56301,
     "Key": 50,
     "DurationMs": 194,
     "Vel": 96
    },
    {
     "TimeMs": 56302,
     "Key": 58,
     "DurationMs": 194,
     "Vel": 96
    },
    {
     "TimeMs": 56506,
     "Key": 69,
     "DurationMs": 96,
     "Vel": 96
    },
    {
     "TimeMs": 56507,
     "Key": 81,
     "DurationMs": 96,
     "Vel": 96
    },
    {
     "TimeMs": 56508,
     "Key": 43,
     "DurationMs": 192,
     "Vel": 96
    },
    {
     "TimeMs": 56609,
     "Key": 67,
     "DurationMs": 96,
     "Vel": 96
    },
    {
     "TimeMs": 56610,
     "Key": 79,
     "DurationMs": 96,
     "Vel": 96
    },
    {
     "TimeMs": 56712,
     "Key": 69,
     "DurationMs": 389,
     "Vel": 96
    },
    {
     "TimeMs": 56713,
     "Key": 81,
     "DurationMs": 389,
     "Vel": 96
    },
    {
     "TimeMs": 56714,
     "Key": 29,
     "DurationMs": 192,
     "Vel": 96
    },
    {
     "TimeMs": 56714,
     "Key": 41,
     "DurationMs": 192,
     "Vel": 96
    },
    {
     "TimeMs": 56917,
     "Key": 50,
     "DurationMs": 194,
     "Vel": 96
    },
    {
     "TimeMs": 57123,
     "Key": 65,
     "DurationMs": 389,
     "Vel": 96
    },
    {
     "TimeMs": 57124,
     "Key": 77,
     "DurationMs": 389,
     "Vel": 96
    },
    {
     "TimeMs": 57125,
     "Key": 53,
     "DurationMs": 192,
     "Vel": 96
    },
    {
     "TimeMs": 57125,
     "Key": 57,
     "DurationMs": 192,
     "Vel": 96
    },
    {
     "TimeMs": 57328,
     "Key": 50,
     "DurationMs": 194,
     "Vel": 96
    },
    {
     "TimeMs": 57534,
     "Key": 64,
     "DurationMs": 389,
     "Vel": 96
    },
    {
     "TimeMs": 57535,
     "Key": 67,
     "DurationMs": 389,
     "Vel": 96
    },
    {
     "TimeMs": 57535,
     "Key": 70,
     "DurationMs": 389,
     "Vel": 96
    },
    {
     "TimeMs": 57536,
     "Key": 76,
     "DurationMs": 389,
     "Vel": 96
    },
    {
     "TimeMs": 57537,
     "Key": 28,
     "DurationMs": 190,
     "Vel": 96
    },
    {
     "TimeMs": 57538,
     "Key": 40,
     "DurationMs": 190,
     "Vel": 96
    },
    {
     "TimeMs": 57739,
     "Key": 52,
     "DurationMs": 194,
     "Vel": 96
    },
    {
     "TimeMs": 57945,
     "Key": 69,
     "DurationMs": 389,
     "Vel": 96
    },
    {
     "TimeMs": 57946,
     "Key": 81,
     "DurationMs": 389,
     "Vel": 96
    },
    {
     "TimeMs": 57946,
     "Key": 55,
     "DurationMs": 192,
     "Vel": 96
    },
    {
     "TimeMs": 57947,
     "Key": 58,
     "DurationMs": 192,
     "Vel": 96
    },
    {
     "TimeMs": 57948,
     "Key": 62,
     "DurationMs": 192,
     "Vel": 96
    },
    {
     "TimeMs": 58150,
     "Key": 52,
     "DurationMs": 194,
     "Vel": 96
    },
    {
     "TimeMs": 58356,
     "Key": 67,
     "DurationMs": 194,
     "Vel": 96
    },
    {
     "TimeMs": 58357,
     "Key": 73,
     "DurationMs": 194,
     "Vel": 96
    },
    {
     "TimeMs": 58357,
     "Key": 76,
     "DurationMs": 194,
     "Vel": 96
    },
    {
     "TimeMs": 58358,
     "Key": 79,
     "DurationMs": 194,
     "Vel": 96
    },
    {
     "TimeMs": 58359,
     "Key": 33,
     "DurationMs": 194,
     "Vel": 96
    },
    {
     "TimeMs": 58561,
     "Key": 65,
     "DurationMs": 194,
     "Vel": 96
    },
    {
     "TimeMs": 58562,
     "Key": 77,
     "DurationMs": 194,
     "Vel": 96
    },
    {
     "TimeMs": 58563,
     "Key": 45,
     "DurationMs": 194,
     "Vel": 96
    },
    {
     "TimeMs": 58767,
     "Key": 64,
     "DurationMs": 194,
     "Vel": 96
    },
    {
     "TimeMs": 58767,
     "Key": 76,
     "DurationMs": 194,
     "Vel": 96
    },
    {
     "TimeMs": 58768,
     "Key": 28,
     "DurationMs": 194,
     "Vel": 96
    },
    {
     "TimeMs": 58769,
     "Key": 40,
     "DurationMs": 194,
     "Vel": 96
    },
    {
     "TimeMs": 58972,
     "Key": 65,
     "DurationMs": 194,
     "Vel": 96
    },
    {
     "TimeMs": 58973,
     "Key": 77,
     "DurationMs": 194,
     "Vel": 96
    },
    {
     "TimeMs": 58974,
     "Key": 25,
     "DurationMs": 194,
     "Vel": 96
    },
    {
     "TimeMs": 58975,
     "Key": 37,
     "DurationMs": 194,
     "Vel": 96
    },
    {
     "TimeMs": 59178,
     "Key": 62,
     "DurationMs": 204,
     "Vel": 127
    },
    {
     "TimeMs": 59178,
     "Key": 65,
     "DurationMs": 204,
     "Vel": 127
    },
    {
     "TimeMs": 59179,
     "Key": 69,
     "DurationMs": 204,
     "Vel": 127
    },
    {
     "TimeMs": 59180,
     "Key": 74,
     "DurationMs": 204,
     "Vel": 127
    },
    {
     "TimeMs": 59181,
     "Key": 26,
     "DurationMs": 190,
     "Vel": 96
    },
    {
     "TimeMs": 59182,
     "Key": 38,
     "DurationMs": 190,
     "Vel": 96
    },
    {
     "TimeMs": 59386,
     "Key": 74,
     "DurationMs": 94,
     "Vel": 96
    },
    {
     "TimeMs": 59387,
     "Key": 50,
     "DurationMs": 190,
     "Vel": 96
    },
    {
     "TimeMs": 59486,
     "Key": 69,
     "DurationMs": 96,
     "Vel": 96
    },
    {
     "TimeMs": 59589,
     "Key": 65,
     "DurationMs": 96,
     "Vel": 96
    },
    {
     "TimeMs": 59589,
     "Key": 53,
     "DurationMs": 193,
     "Vel": 96
    },
    {
     "TimeMs": 59590,
     "Key": 57,
     "DurationMs": 193,
     "Vel": 96
    },
    {
     "TimeMs": 59691,
     "Key": 62,
     "DurationMs": 96,
     "Vel": 96
    },
    {
     "TimeMs": 59794,
     "Key": 65,
     "DurationMs": 96,
     "Vel": 96
    },
    {
     "TimeMs": 59795,
     "Key": 50,
     "DurationMs": 193,
     "Vel": 96
    },
    {
     "TimeMs": 59897,
     "Key": 69,
     "DurationMs": 96,
     "Vel": 96
    },
    {
     "TimeMs": 60000,
     "Key": 64,
     "DurationMs": 101,
     "Vel": 127
    },
    {
     "TimeMs": 60000,
     "Key": 76,
     "DurationMs": 101,
     "Vel": 127
    },
    {
     "TimeMs": 60001,
     "Key": 24,
     "DurationMs": 192,
     "Vel": 96
    },
    {
     "TimeMs": 60002,
     "Key": 36,
     "DurationMs": 192,
     "Vel": 96
    },
    {
     "TimeMs": 60103,
     "Key": 72,
     "DurationMs": 95,
     "Vel": 96
    },
    {
     "TimeMs": 60205,
     "Key": 67,
     "DurationMs": 96,
     "Vel": 96
    },
    {
     "TimeMs": 60206,
     "Key": 48,
     "DurationMs": 193,
     "Vel": 96
    },
    {
     "TimeMs": 60308,
     "Key": 64,
     "DurationMs": 96,
     "Vel": 96
    },
    {
     "TimeMs": 60410,
     "Key": 69,
     "DurationMs": 101,
     "Vel": 127
    },
    {
     "TimeMs": 60411,
     "Key": 81,
     "DurationMs": 101,
     "Vel": 127
    },
    {
     "TimeMs": 60412,
     "Key": 52,
     "DurationMs": 192,
     "Vel": 96
    },
    {
     "TimeMs": 60413,
     "Key": 55,
     "DurationMs": 192,
     "Vel": 96
    },
    {
     "TimeMs": 60514,
     "Key": 76,
     "DurationMs": 95,
     "Vel": 96
    },
    {
     "TimeMs": 60616,
     "Key": 72,
     "DurationMs": 96,
     "Vel": 96
    },
    {
     "TimeMs": 60617,
     "Key": 48,
     "DurationMs": 193,
     "Vel": 96
    },
    {
     "TimeMs": 60719,
     "Key": 69,
     "DurationMs": 96,
     "Vel": 96
    },
    {
     "TimeMs": 60821,
     "Key": 67,
     "DurationMs": 101,
     "Vel": 127
    },
    {
     "TimeMs": 60822,
     "Key": 79,
     "DurationMs": 101,
     "Vel": 127
    },
    {
     "TimeMs": 60823,
     "Key": 34,
     "DurationMs": 387,
     "Vel": 96
    },
    {
     "TimeMs": 60824,
     "Key": 46,
     "DurationMs": 387,
     "Vel": 96
    },
    {
     "TimeMs": 60925,
     "Key": 74,
     "DurationMs": 95,
     "Vel": 96
    },
    {
     "TimeMs": 61027,
     "Key": 70,
     "DurationMs": 96,
     "Vel": 96
    },
    {
     "TimeMs": 61130,
     "Key": 67,
     "DurationMs": 96,
     "Vel": 96
    },
    {
     "TimeMs": 61232,
     "Key": 77,
     "DurationMs": 101,
     "Vel": 127
    },
    {
     "TimeMs": 61233,
     "Key": 89,
     "DurationMs": 101,
     "Vel": 127
    },
    {
     "TimeMs": 61234,
     "Key": 53,
     "DurationMs": 192,
     "Vel": 96
    },
    {
     "TimeMs": 61235,
     "Key": 58,
     "DurationMs": 192,
     "Vel": 96
    },
    {
     "TimeMs": 61336,
     "Key": 86,
     "DurationMs": 95,
     "Vel": 96
    },
    {
     "TimeMs": 61438,
     "Key": 81,
     "DurationMs": 96,
     "Vel": 96
    },
    {
     "TimeMs": 61439,
     "Key": 46,
     "DurationMs": 193,
     "Vel": 96
    },
    {
     "TimeMs": 61541,
     "Key": 77,
     "DurationMs": 96,
     "Vel": 96
    },
    {
     "TimeMs": 61643,
     "Key": 76,
     "DurationMs": 204,
     "Vel": 127
    },
    {
     "TimeMs": 61644,
     "Key": 79,
     "DurationMs": 204,
     "Vel": 127
    },
    {
     "TimeMs": 61645,
     "Key": 84,
     "DurationMs": 204,
     "Vel": 127
    },
    {
     "TimeMs": 61646,
     "Key": 88,
     "DurationMs": 204,
     "Vel": 127
    },
    {
     "TimeMs": 61647,
     "Key": 33,
     "DurationMs": 190,
     "Vel": 96
    },
    {
     "TimeMs": 61648,
     "Key": 45,
     "DurationMs": 190,
     "Vel": 96
    },
    {
     "TimeMs": 61851,
     "Key": 74,
     "DurationMs": 191,
     "Vel": 96
    },
    {
     "TimeMs": 61852,
     "Key": 86,
     "DurationMs": 191,
     "Vel": 96
    },
    {
     "TimeMs": 61853,
     "Key": 45,
     "DurationMs": 191,
     "Vel": 96
    },
    {
     "TimeMs": 62054,
     "Key": 72,
     "DurationMs": 194,
     "Vel": 96
    },
    {
     "TimeMs": 62055,
     "Key": 84,
     "DurationMs": 194,
     "Vel": 96
    },
    {
     "TimeMs": 62056,
     "Key": 52,
     "DurationMs": 194,
     "Vel": 96
    },
    {
     "TimeMs": 62057,
     "Key": 57,
     "DurationMs": 194,
     "Vel": 96
    },
    {
     "TimeMs": 62260,
     "Key": 69,
     "DurationMs": 194,
     "Vel": 96
    },
    {
     "TimeMs": 62261,
     "Key": 81,
     "DurationMs": 194,
     "Vel": 96
    },
    {
     "TimeMs": 62262,
     "Key": 45,
     "DurationMs": 194,
     "Vel": 96
    },
    {
     "TimeMs": 62465,
     "Key": 74,
     "DurationMs": 101,
     "Vel": 127
    },
    {
     "TimeMs": 62466,
     "Key": 86,
     "DurationMs": 101,
     "Vel": 127
    },
    {
     "TimeMs": 62467,
     "Key": 31,
     "DurationMs": 192,
     "Vel": 96
    },
    {
     "TimeMs": 62468,
     "Key": 43,
     "DurationMs": 192,
     "Vel": 96
    },
    {
     "TimeMs": 62569,
     "Key": 82,
     "DurationMs": 95,
     "Vel": 96
    },
    {
     "TimeMs": 62671,
     "Key": 77,
     "DurationMs": 96,
     "Vel": 96
    },
    {
     "TimeMs": 62672,
     "Key": 43,
     "DurationMs": 193,
     "Vel": 96
    },
    {
     "TimeMs": 62773,
     "Key": 74,
     "DurationMs": 96,
     "Vel": 96
    },
    {
     "TimeMs": 62876,
     "Key": 72,
     "DurationMs": 101,
     "Vel": 127
    },
    {
     "TimeMs": 62877,
     "Key": 84,
     "DurationMs": 101,
     "Vel": 127
    },
    {
     "TimeMs": 62878,
     "Key": 50,
     "DurationMs": 192,
     "Vel": 96
    },
    {
     "TimeMs": 62879,
     "Key": 58,
     "DurationMs": 192,
     "Vel": 96
    },
    {
     "TimeMs": 62980,
     "Key": 82,
     "DurationMs": 95,
     "Vel": 96
    },
    {
     "TimeMs": 63082,
     "Key": 77,
     "DurationMs": 96,
     "Vel": 96
    },
    {
     "TimeMs": 63083,
     "Key": 43,
     "DurationMs": 193,
     "Vel": 96
    },
    {
     "TimeMs": 63184,
     "Key": 72,
     "DurationMs": 96,
     "Vel": 96
    },
    {
     "TimeMs": 63287,
     "Key": 69,
     "DurationMs": 101,
     "Vel": 127
    },
    {
     "TimeMs": 63288,
     "Key": 81,
     "DurationMs": 101,
     "Vel": 127
    },
    {
     "TimeMs": 63289,
     "Key": 33,
     "DurationMs": 192,
     "Vel": 96
    },
    {
     "TimeMs": 63290,
     "Key": 45,
     "DurationMs": 192,
     "Vel": 96
    },
    {
     "TimeMs": 63391,
     "Key": 76,
     "DurationMs": 95,
     "Vel": 96
    },
    {
     "TimeMs": 63493,
     "Key": 72,
     "DurationMs": 96,
     "Vel": 96
    },
    {
     "TimeMs": 63494,
     "Key": 45,
     "DurationMs": 193,
     "Vel": 96
    },
    {
     "TimeMs": 63595,
     "Key": 69,
     "DurationMs": 96,
     "Vel": 96
    },
    {
     "TimeMs": 63698,
     "Key": 72,
     "DurationMs": 101,
     "Vel": 127
    },
    {
     "TimeMs": 63699,
     "Key": 84,
     "DurationMs": 101,
     "Vel": 127
    },
    {
     "TimeMs": 63700,
     "Key": 52,
     "DurationMs": 192,
     "Vel": 96
    },
    {
     "TimeMs": 63701,
     "Key": 57,
     "DurationMs": 192,
     "Vel": 96
    },
    {
     "TimeMs": 63802,
     "Key": 79,
     "DurationMs": 95,
     "Vel": 96
    },
    {
     "TimeMs": 63904,
     "Key": 76,
     "DurationMs": 96,
     "Vel": 96
    },
    {
     "TimeMs": 63904,
     "Key": 45,
     "DurationMs": 193,
     "Vel": 96
    },
    {
     "TimeMs": 64006,
     "Key": 72,
     "DurationMs": 96,
     "Vel": 96
    },
    {
     "TimeMs": 64109,
     "Key": 74,
     "DurationMs": 410,
     "Vel": 127
    },
    {
     "TimeMs": 64110,
     "Key": 77,
     "DurationMs": 410,
     "Vel": 127
    },
    {
     "TimeMs": 64111,
     "Key": 81,
     "DurationMs": 410,
     "Vel": 127
    },
    {
     "TimeMs": 64112,
     "Key": 86,
     "DurationMs": 410,
     "Vel": 127
    },
    {
     "TimeMs": 64113,
     "Key": 38,
     "DurationMs": 190,
     "Vel": 96
    },
    {
     "TimeMs": 64113,
     "Key": 50,
     "DurationMs": 190,
     "Vel": 96
    },
    {
     "TimeMs": 64315,
     "Key": 50,
     "DurationMs": 96,
     "Vel": 96
    },
    {
     "TimeMs": 64417,
     "Key": 53,
     "DurationMs": 96,
     "Vel": 96
    },
    {
     "TimeMs": 64523,
     "Key": 86,
     "DurationMs": 94,
     "Vel": 96
    },
    {
     "TimeMs": 64523,
     "Key": 57,
     "DurationMs": 94,
     "Vel": 96
    },
    {
     "TimeMs": 64623,
     "Key": 81,
     "DurationMs": 96,
     "Vel": 96
    },
    {
     "TimeMs": 64624,
     "Key": 50,
     "DurationMs": 96,
     "Vel": 96
    },
    {
     "TimeMs": 64726,
     "Key": 77,
     "DurationMs": 96,
     "Vel": 96
    },
    {
     "TimeMs": 64726,
     "Key": 53,
     "DurationMs": 96,
     "Vel": 96
    },
    {
     "TimeMs": 64828,
     "Key": 74,
     "DurationMs": 96,
     "Vel": 96
    },
    {
     "TimeMs": 64829,
     "Key": 57,
     "DurationMs": 96,
     "Vel": 96
    },
    {
     "TimeMs": 64931,
     "Key": 81,
     "DurationMs": 96,
     "Vel": 96
    },
    {
     "TimeMs": 64932,
     "Key": 62,
     "DurationMs": 96,
     "Vel": 96
    },
    {
     "TimeMs": 65034,
     "Key": 77,
     "DurationMs": 96,
     "Vel": 96
    },
    {
     "TimeMs": 65035,
     "Key": 57,
     "DurationMs": 96,
     "Vel": 96
    },
    {
     "TimeMs": 65137,
     "Key": 74,
     "DurationMs": 96,
     "Vel": 96
    },
    {
     "TimeMs": 65137,
     "Key": 53,
     "DurationMs": 96,
     "Vel": 96
    },
    {
     "TimeMs": 65239,
     "Key": 69,
     "DurationMs": 96,
     "Vel": 96
    },
    {
     "TimeMs": 65240,
     "Key": 50,
     "DurationMs": 96,
     "Vel": 96
    },
    {
     "TimeMs": 65342,
     "Key": 74,
     "DurationMs": 96,
     "Vel": 96
    },
    {
     "TimeMs": 65343,
     "Key": 45,
     "DurationMs": 96,
     "Vel": 96
    },
    {
     "TimeMs": 65445,
     "Key": 77,
     "DurationMs": 96,
     "Vel": 96
    },
    {
     "TimeMs": 65446,
     "Key": 41,
     "DurationMs": 96,
     "Vel": 96
    },
    {
     "TimeMs": 65547,
     "Key": 81,
     "DurationMs": 96,
     "Vel": 96
    },
    {
     "TimeMs": 65548,
     "Key": 38,
     "DurationMs": 193,
     "Vel": 96
    },
    {
     "TimeMs": 65650,
     "Key": 84,
     "DurationMs": 96,
     "Vel": 96
    },
    {
     "TimeMs": 65753,
     "Key": 74,
     "DurationMs": 389,
     "Vel": 96
    },
    {
     "TimeMs": 65754,
     "Key": 86,
     "DurationMs": 389,
     "Vel": 96
    },
    {
     "TimeMs": 65755,
     "Key": 34,
     "DurationMs": 192,
     "Vel": 96
    },
    {
     "TimeMs": 65756,
     "Key": 46,
     "DurationMs": 192,
     "Vel": 96
    },
    {
     "TimeMs": 65958,
     "Key": 46,
     "DurationMs": 194,
     "Vel": 96
    },
    {
     "TimeMs": 66164,
     "Key": 74,
     "DurationMs": 410,
     "Vel": 127
    },
    {
     "TimeMs": 66165,
     "Key": 77,
     "DurationMs": 410,
     "Vel": 127
    },
    {
     "TimeMs": 66166,
     "Key": 81,
     "DurationMs": 410,
     "Vel": 127
    },
    {
     "TimeMs": 66166,
     "Key": 86,
     "DurationMs": 410,
     "Vel": 127
    },
    {
     "TimeMs": 66167,
     "Key": 53,
     "DurationMs": 190,
     "Vel": 96
    },
    {
     "TimeMs": 66168,
     "Key": 58,
     "DurationMs": 190,
     "Vel": 96
    },
    {
     "TimeMs": 66369,
     "Key": 46,
     "DurationMs": 194,
     "Vel": 96
    },
    {
     "TimeMs": 66577,
     "Key": 69,
     "DurationMs": 191,
     "Vel": 96
    },
    {
     "TimeMs": 66578,
     "Key": 81,
     "DurationMs": 191,
     "Vel": 96
    },
    {
     "TimeMs": 66579,
     "Key": 36,
     "DurationMs": 191,
     "Vel": 96
    },
    {
     "TimeMs": 66580,
     "Key": 48,
     "DurationMs": 191,
     "Vel": 96
    },
    {
     "TimeMs": 66780,
     "Key": 67,
     "DurationMs": 194,
     "Vel": 96
    },
    {
     "TimeMs": 66781,
     "Key": 79,
     "DurationMs": 194,
     "Vel": 96
    },
    {
     "TimeMs": 66782,
     "Key": 48,
     "DurationMs": 194,
     "Vel": 96
    },
    {
     "TimeMs": 66986,
     "Key": 65,
     "DurationMs": 389,
     "Vel": 96
    },
    {
     "TimeMs": 66987,
     "Key": 77,
     "DurationMs": 389,
     "Vel": 96
    },
    {
     "TimeMs": 66988,
     "Key": 52,
     "DurationMs": 192,
     "Vel": 96
    },
    {
     "TimeMs": 66988,
     "Key": 55,
     "DurationMs": 192,
     "Vel": 96
    },
    {
     "TimeMs": 67191,
     "Key": 48,
     "DurationMs": 194,
     "Vel": 96
    },
    {
     "TimeMs": 67397,
     "Key": 64,
     "DurationMs": 101,
     "Vel": 127
    },
    {
     "TimeMs": 67398,
     "Key": 76,
     "DurationMs": 101,
     "Vel": 127
    },
    {
     "TimeMs": 67398,
     "Key": 38,
     "DurationMs": 192,
     "Vel": 96
    },
    {
     "TimeMs": 67399,
     "Key": 50,
     "DurationMs": 192,
     "Vel": 96
    },
    {
     "TimeMs": 67500,
     "Key": 72,
     "DurationMs": 95,
     "Vel": 96
    },
    {
     "TimeMs": 67602,
     "Key": 69,
     "DurationMs": 96,
     "Vel": 96
    },
    {
     "TimeMs": 67603,
     "Key": 50,
     "DurationMs": 193,
     "Vel": 96
    },
    {
     "TimeMs": 67705,
     "Key": 64,
     "DurationMs": 96,
     "Vel": 96
    },
    {
     "TimeMs": 67808,
     "Key": 69,
     "DurationMs": 96,
     "Vel": 96
    },
    {
     "TimeMs": 67809,
     "Key": 53,
     "DurationMs": 193,
     "Vel": 96
    },
    {
     "TimeMs": 67809,
     "Key": 57,
     "DurationMs": 193,
     "Vel": 96
    },
    {
     "TimeMs": 67910,
     "Key": 64,
     "DurationMs": 96,
     "Vel": 96
    },
    {
     "TimeMs": 68013,
     "Key": 69,
     "DurationMs": 96,
     "Vel": 96
    },
    {
     "TimeMs": 68014,
     "Key": 50,
     "DurationMs": 193,
     "Vel": 96
    },
    {
     "TimeMs": 68116,
     "Key": 72,
     "DurationMs": 96,
     "Vel": 96
    },
    {
     "TimeMs": 68219,
     "Key": 65,
     "DurationMs": 410,
     "Vel": 127
    },
    {
     "TimeMs": 68220,
     "Key": 69,
     "DurationMs": 410,
     "Vel": 127
    },
    {
     "TimeMs": 68220,
     "Key": 72,
     "DurationMs": 410,
     "Vel": 127
    },
    {
     "TimeMs": 68221,
     "Key": 77,
     "DurationMs": 410,
     "Vel": 127
    },
    {
     "TimeMs": 68222,
     "Key": 33,
     "DurationMs": 190,
     "Vel": 96
    },
    {
     "TimeMs": 68223,
     "Key": 45,
     "DurationMs": 190,
     "Vel": 96
    },
    {
     "TimeMs": 68424,
     "Key": 45,
     "DurationMs": 194,
     "Vel": 96
    },
    {
     "TimeMs": 68632,
     "Key": 64,
     "DurationMs": 191,
     "Vel": 96
    },
    {
     "TimeMs": 68633,
     "Key": 69,
     "DurationMs": 191,
     "Vel": 96
    },
    {
     "TimeMs": 68634,
     "Key": 72,
     "DurationMs": 191,
     "Vel": 96
    },
    {
     "TimeMs": 68635,
     "Key": 76,
     "DurationMs": 191,
     "Vel": 96
    },
    {
     "TimeMs": 68636,
     "Key": 52,
     "DurationMs": 191,
     "Vel": 96
    },
    {
     "TimeMs": 68637,
     "Key": 57,
     "DurationMs": 191,
     "Vel": 96
    },
    {
     "TimeMs": 68835,
     "Key": 81,
     "DurationMs": 96,
     "Vel": 96
    },
    {
     "TimeMs": 68836,
     "Key": 45,
     "DurationMs": 193,
     "Vel": 96
    },
    {
     "TimeMs": 68938,
     "Key": 84,
     "DurationMs": 96,
     "Vel": 96
    },
    {
     "TimeMs": 69041,
     "Key": 74,
     "DurationMs": 389,
     "Vel": 96
    },
    {
     "TimeMs": 69041,
     "Key": 86,
     "DurationMs": 389,
     "Vel": 96
    },
    {
     "TimeMs": 69042,
     "Key": 34,
     "DurationMs": 192,
     "Vel": 96
    },
    {
     "TimeMs": 69043,
     "Key": 46,
     "DurationMs": 192,
     "Vel": 96
    },
    {
     "TimeMs": 69246,
     "Key": 46,
     "DurationMs": 194,
     "Vel": 96
    },
    {
     "TimeMs": 69452,
     "Key": 86,
     "DurationMs": 410,
     "Vel": 127
    },
    {
     "TimeMs": 69452,
     "Key": 89,
     "DurationMs": 410,
     "Vel": 127
    },
    {
     "TimeMs": 69453,
     "Key": 93,
     "DurationMs": 410,
     "Vel": 127
    },
    {
     "TimeMs": 69454,
     "Key": 98,
     "DurationMs": 410,
     "Vel": 127
    },
    {
     "TimeMs": 69455,
     "Key": 53,
     "DurationMs": 190,
     "Vel": 96
    },
    {
     "TimeMs": 69456,
     "Key": 58,
     "DurationMs": 190,
     "Vel": 96
    },
    {
     "TimeMs": 69657,
     "Key": 46,
     "DurationMs": 194,
     "Vel": 96
    },
    {
     "TimeMs": 69865,
     "Key": 74,
     "DurationMs": 386,
     "Vel": 96
    },
    {
     "TimeMs": 69866,
     "Key": 77,
     "DurationMs": 386,
     "Vel": 96
    },
    {
     "TimeMs": 69867,
     "Key": 86,
     "DurationMs": 386,
     "Vel": 96
    },
    {
     "TimeMs": 69868,
     "Key": 36,
     "DurationMs": 189,
     "Vel": 96
    },
    {
     "TimeMs": 69869,
     "Key": 48,
     "DurationMs": 189,
     "Vel": 96
    },
    {
     "TimeMs": 70068,
     "Key": 48,
     "DurationMs": 194,
     "Vel": 96
    },
    {
     "TimeMs": 70273,
     "Key": 86,
     "DurationMs": 410,
     "Vel": 127
    },
    {
     "TimeMs": 70274,
     "Key": 91,
     "DurationMs": 410,
     "Vel": 127
    },
    {
     "TimeMs": 70275,
     "Key": 98,
     "DurationMs": 410,
     "Vel": 127
    },
    {
     "TimeMs": 70276,
     "Key": 55,
     "DurationMs": 191,
     "Vel": 96
    },
    {
     "TimeMs": 70277,
     "Key": 60,
     "DurationMs": 191,
     "Vel": 96
    },
    {
     "TimeMs": 70479,
     "Key": 48,
     "DurationMs": 194,
     "Vel": 96
    },
    {
     "TimeMs": 70686,
     "Key": 74,
     "DurationMs": 192,
     "Vel": 96
    },
    {
     "TimeMs": 70687,
     "Key": 77,
     "DurationMs": 192,
     "Vel": 96
    },
    {
     "TimeMs": 70688,
     "Key": 81,
     "DurationMs": 192,
     "Vel": 96
    },
    {
     "TimeMs": 70689,
     "Key": 86,
     "DurationMs": 192,
     "Vel": 96
    },
    {
     "TimeMs": 70690,
     "Key": 38,
     "DurationMs": 192,
     "Vel": 96
    },
    {
     "TimeMs": 70690,
     "Key": 50,
     "DurationMs": 192,
     "Vel": 96
    },
    {
     "TimeMs": 70890,
     "Key": 86,
     "DurationMs": 194,
     "Vel": 96
    },
    {
     "TimeMs": 70891,
     "Key": 89,
     "DurationMs": 194,
     "Vel": 96
    },
    {
     "TimeMs": 70892,
     "Key": 93,
     "DurationMs": 194,
     "Vel": 96
    },
    {
     "TimeMs": 70892,
     "Key": 98,
     "DurationMs": 194,
     "Vel": 96
    },
    {
     "TimeMs": 70893,
     "Key": 50,
     "DurationMs": 194,
     "Vel": 96
    },
    {
     "TimeMs": 71095,
     "Key": 86,
     "DurationMs": 194,
     "Vel": 96
    },
    {
     "TimeMs": 71096,
     "Key": 89,
     "DurationMs": 194,
     "Vel": 96
    },
    {
     "TimeMs": 71097,
     "Key": 93,
     "DurationMs": 194,
     "Vel": 96
    },
    {
     "TimeMs": 71098,
     "Key": 98,
     "DurationMs": 194,
     "Vel": 96
    },
    {
     "TimeMs": 71099,
     "Key": 62,
     "DurationMs": 93,
     "Vel": 96
    },
    {
     "TimeMs": 71198,
     "Key": 57,
     "DurationMs": 96,
     "Vel": 96
    },
    {
     "TimeMs": 71301,
     "Key": 86,
     "DurationMs": 194,
     "Vel": 96
    },
    {
     "TimeMs": 71302,
     "Key": 89,
     "DurationMs": 194,
     "Vel": 96
    },
    {
     "TimeMs": 71303,
     "Key": 93,
     "DurationMs": 194,
     "Vel": 96
    },
    {
     "TimeMs": 71303,
     "Key": 98,
     "DurationMs": 194,
     "Vel": 96
    },
    {
     "TimeMs": 71304,
     "Key": 53,
     "DurationMs": 93,
     "Vel": 96
    },
    {
     "TimeMs": 71404,
     "Key": 50,
     "DurationMs": 96,
     "Vel": 96
    },
    {
     "TimeMs": 71506,
     "Key": 86,
     "DurationMs": 779,
     "Vel": 96
    },
    {
     "TimeMs": 71507,
     "Key": 89,
     "DurationMs": 779,
     "Vel": 96
    },
    {
     "TimeMs": 71508,
     "Key": 93,
     "DurationMs": 779,
     "Vel": 96
    },
    {
     "TimeMs": 71509,
     "Key": 98,
     "DurationMs": 779,
     "Vel": 96
    },
    {
     "TimeMs": 71510,
     "Key": 45,
     "DurationMs": 93,
     "Vel": 96
    },
    {
     "TimeMs": 71609,
     "Key": 41,
     "DurationMs": 96,
     "Vel": 96
    },
    {
     "TimeMs": 71712,
     "Key": 38,
     "DurationMs": 96,
     "Vel": 96
    },
    {
     "TimeMs": 71815,
     "Key": 33,
     "DurationMs": 96,
     "Vel": 96
    },
    {
     "TimeMs": 71917,
     "Key": 29,
     "DurationMs": 96,
     "Vel": 96
    },
    {
     "TimeMs": 72020,
     "Key": 26,
     "DurationMs": 291,
     "Vel": 96
    },
    {
     "TimeMs": 72328,
     "Key": 63,
     "DurationMs": 101,
     "Vel": 80
    },
    {
     "TimeMs": 72329,
     "Key": 73,
     "DurationMs": 101,
     "Vel": 80
    },
    {
     "TimeMs": 72330,
     "Key": 27,
     "DurationMs": 202,
     "Vel": 120
    },
    {
     "TimeMs": 72331,
     "Key": 39,
     "DurationMs": 204,
     "Vel": 120
    },
    {
     "TimeMs": 72534,
     "Key": 63,
     "DurationMs": 101,
     "Vel": 80
    },
    {
     "TimeMs": 72535,
     "Key": 73,
     "DurationMs": 101,
     "Vel": 80
    },
    {
     "TimeMs": 72739,
     "Key": 64,
     "DurationMs": 101,
     "Vel": 80
    },
    {
     "TimeMs": 72740,
     "Key": 72,
     "DurationMs": 101,
     "Vel": 80
    },
    {
     "TimeMs": 72945,
     "Key": 64,
     "DurationMs": 101,
     "Vel": 80
    },
    {
     "TimeMs": 72946,
     "Key": 72,
     "DurationMs": 101,
     "Vel": 80
    },
    {
     "TimeMs": 73150,
     "Key": 63,
     "DurationMs": 101,
     "Vel": 80
    },
    {
     "TimeMs": 73151,
     "Key": 73,
     "DurationMs": 101,
     "Vel": 80
    },
    {
     "TimeMs": 73356,
     "Key": 63,
     "DurationMs": 101,
     "Vel": 80
    },
    {
     "TimeMs": 73357,
     "Key": 73,
     "DurationMs": 101,
     "Vel": 80
    },
    {
     "TimeMs": 73561,
     "Key": 64,
     "DurationMs": 101,
     "Vel": 80
    },
    {
     "TimeMs": 73562,
     "Key": 72,
     "DurationMs": 101,
     "Vel": 80
    },
    {
     "TimeMs": 73767,
     "Key": 64,
     "DurationMs": 101,
     "Vel": 80
    },
    {
     "TimeMs": 73767,
     "Key": 72,
     "DurationMs": 101,
     "Vel": 80
    },
    {
     "TimeMs": 73768,
     "Key": 27,
     "DurationMs": 192,
     "Vel": 80
    },
    {
     "TimeMs": 73769,
     "Key": 39,
     "DurationMs": 192,
     "Vel": 80
    },
    {
     "TimeMs": 73972,
     "Key": 63,
     "DurationMs": 101,
     "Vel": 80
    },
    {
     "TimeMs": 73973,
     "Key": 73,
     "DurationMs": 101,
     "Vel": 80
    },
    {
     "TimeMs": 73974,
     "Key": 27,
     "DurationMs": 202,
     "Vel": 120
    },
    {
     "TimeMs": 73975,
     "Key": 39,
     "DurationMs": 204,
     "Vel": 120
    },
    {
     "TimeMs": 74178,
     "Key": 63,
     "DurationMs": 101,
     "Vel": 80
    },
    {
     "TimeMs": 74178,
     "Key": 73,
     "DurationMs": 101,
     "Vel": 80
    },
    {
     "TimeMs": 74383,
     "Key": 64,
     "DurationMs": 101,
     "Vel": 80
    },
    {
     "TimeMs": 74384,
     "Key": 72,
     "DurationMs": 101,
     "Vel": 80
    },
    {
     "TimeMs": 74589,
     "Key": 64,
     "DurationMs": 101,
     "Vel": 80
    },
    {
     "TimeMs": 74589,
     "Key": 72,
     "DurationMs": 101,
     "Vel": 80
    },
    {
     "TimeMs": 74794,
     "Key": 75,
     "DurationMs": 821,
     "Vel": 120
    },
    {
     "TimeMs": 74795,
     "Key": 80,
     "DurationMs": 821,
     "Vel": 120
    },
    {
     "TimeMs": 74796,
     "Key": 63,
     "DurationMs": 100,
     "Vel": 80
    },
    {
     "TimeMs": 74797,
     "Key": 73,
     "DurationMs": 100,
     "Vel": 80
    },
    {
     "TimeMs": 75000,
     "Key": 63,
     "DurationMs": 101,
     "Vel": 80
    },
    {
     "TimeMs": 75000,
     "Key": 73,
     "DurationMs": 101,
     "Vel": 80
    },
    {
     "TimeMs": 75205,
     "Key": 64,
     "DurationMs": 101,
     "Vel": 80
    },
    {
     "TimeMs": 75206,
     "Key": 72,
     "DurationMs": 101,
     "Vel": 80
    },
    {
     "TimeMs": 75410,
     "Key": 64,
     "DurationMs": 101,
     "Vel": 80
    },
    {
     "TimeMs": 75411,
     "Key": 72,
     "DurationMs": 101,
     "Vel": 80
    },
    {
     "TimeMs": 75617,
     "Key": 63,
     "DurationMs": 101,
     "Vel": 80
    },
    {
     "TimeMs": 75618,
     "Key": 73,
     "DurationMs": 101,
     "Vel": 80
    },
    {
     "TimeMs": 75619,
     "Key": 27,
     "DurationMs": 202,
     "Vel": 120
    },
    {
     "TimeMs": 75619,
     "Key": 39,
     "DurationMs": 203,
     "Vel": 120
    },
    {
     "TimeMs": 75821,
     "Key": 63,
     "DurationMs": 101,
     "Vel": 80
    },
    {
     "TimeMs": 75822,
     "Key": 73,
     "DurationMs": 101,
     "Vel": 80
    },
    {
     "TimeMs": 76027,
     "Key": 64,
     "DurationMs": 101,
     "Vel": 80
    },
    {
     "TimeMs": 76028,
     "Key": 72,
     "DurationMs": 101,
     "Vel": 80
    },
    {
     "TimeMs": 76232,
     "Key": 64,
     "DurationMs": 101,
     "Vel": 80
    },
    {
     "TimeMs": 76233,
     "Key": 72,
     "DurationMs": 101,
     "Vel": 80
    },
    {
     "TimeMs": 76438,
     "Key": 63,
     "DurationMs": 101,
     "Vel": 80
    },
    {
     "TimeMs": 76439,
     "Key": 73,
     "DurationMs": 101,
     "Vel": 80
    },
    {
     "TimeMs": 76643,
     "Key": 63,
     "DurationMs": 101,
     "Vel": 80
    },
    {
     "TimeMs": 76644,
     "Key": 73,
     "DurationMs": 101,
     "Vel": 80
    },
    {
     "TimeMs": 76849,
     "Key": 64,
     "DurationMs": 101,
     "Vel": 80
    },
    {
     "TimeMs": 76850,
     "Key": 72,
     "DurationMs": 101,
     "Vel": 80
    },
    {
     "TimeMs": 77054,
     "Key": 64,
     "DurationMs": 101,
     "Vel": 80
    },
    {
     "TimeMs": 77055,
     "Key": 72,
     "DurationMs": 101,
     "Vel": 80
    },
    {
     "TimeMs": 77056,
     "Key": 27,
     "DurationMs": 192,
     "Vel": 80
    },
    {
     "TimeMs": 77057,
     "Key": 39,
     "DurationMs": 192,
     "Vel": 80
    },
    {
     "TimeMs": 77260,
     "Key": 63,
     "DurationMs": 101,
     "Vel": 80
    },
    {
     "TimeMs": 77261,
     "Key": 73,
     "DurationMs": 101,
     "Vel": 80
    },
    {
     "TimeMs": 77262,
     "Key": 27,
     "DurationMs": 202,
     "Vel": 120
    },
    {
     "TimeMs": 77262,
     "Key": 39,
     "DurationMs": 204,
     "Vel": 120
    },
    {
     "TimeMs": 77465,
     "Key": 63,
     "DurationMs": 101,
     "Vel": 80
    },
    {
     "TimeMs": 77466,
     "Key": 73,
     "DurationMs": 101,
     "Vel": 80
    },
    {
     "TimeMs": 77671,
     "Key": 64,
     "DurationMs": 101,
     "Vel": 80
    },
    {
     "TimeMs": 77672,
     "Key": 72,
     "DurationMs": 101,
     "Vel": 80
    },
    {
     "TimeMs": 77876,
     "Key": 64,
     "DurationMs": 101,
     "Vel": 80
    },
    {
     "TimeMs": 77877,
     "Key": 72,
     "DurationMs": 101,
     "Vel": 80
    },
    {
     "TimeMs": 78082,
     "Key": 75,
     "DurationMs": 821,
     "Vel": 120
    },
    {
     "TimeMs": 78083,
     "Key": 80,
     "DurationMs": 821,
     "Vel": 120
    },
    {
     "TimeMs": 78083,
     "Key": 63,
     "DurationMs": 100,
     "Vel": 80
    },
    {
     "TimeMs": 78084,
     "Key": 73,
     "DurationMs": 100,
     "Vel": 80
    },
    {
     "TimeMs": 78287,
     "Key": 63,
     "DurationMs": 101,
     "Vel": 80
    },
    {
     "TimeMs": 78288,
     "Key": 73,
     "DurationMs": 101,
     "Vel": 80
    },
    {
     "TimeMs": 78493,
     "Key": 64,
     "DurationMs": 101,
     "Vel": 80
    },
    {
     "TimeMs": 78494,
     "Key": 72,
     "DurationMs": 101,
     "Vel": 80
    },
    {
     "TimeMs": 78698,
     "Key": 64,
     "DurationMs": 101,
     "Vel": 80
    },
    {
     "TimeMs": 78699,
     "Key": 72,
     "DurationMs": 101,
     "Vel": 80
    },
    {
     "TimeMs": 78904,
     "Key": 63,
     "DurationMs": 101,
     "Vel": 80
    },
    {
     "TimeMs": 78905,
     "Key": 73,
     "DurationMs": 101,
     "Vel": 80
    },
    {
     "TimeMs": 78906,
     "Key": 27,
     "DurationMs": 202,
     "Vel": 120
    },
    {
     "TimeMs": 78907,
     "Key": 39,
     "DurationMs": 203,
     "Vel": 120
    },
    {
     "TimeMs": 79109,
     "Key": 63,
     "DurationMs": 101,
     "Vel": 80
    },
    {
     "TimeMs": 79110,
     "Key": 73,
     "DurationMs": 101,
     "Vel": 80
    },
    {
     "TimeMs": 79315,
     "Key": 64,
     "DurationMs": 101,
     "Vel": 80
    },
    {
     "TimeMs": 79315,
     "Key": 72,
     "DurationMs": 101,
     "Vel": 80
    },
    {
     "TimeMs": 79520,
     "Key": 64,
     "DurationMs": 101,
     "Vel": 80
    },
    {
     "TimeMs": 79521,
     "Key": 72,
     "DurationMs": 101,
     "Vel": 80
    },
    {
     "TimeMs": 79726,
     "Key": 63,
     "DurationMs": 101,
     "Vel": 80
    },
    {
     "TimeMs": 79726,
     "Key": 73,
     "DurationMs": 101,
     "Vel": 80
    },
    {
     "TimeMs": 79931,
     "Key": 63,
     "DurationMs": 101,
     "Vel": 80
    },
    {
     "TimeMs": 79932,
     "Key": 73,
     "DurationMs": 101,
     "Vel": 80
    },
    {
     "TimeMs": 80137,
     "Key": 64,
     "DurationMs": 101,
     "Vel": 80
    },
    {
     "TimeMs": 80137,
     "Key": 72,
     "DurationMs": 101,
     "Vel": 80
    },
    {
     "TimeMs": 80342,
     "Key": 64,
     "DurationMs": 101,
     "Vel": 80
    },
    {
     "TimeMs": 80343,
     "Key": 72,
     "DurationMs": 101,
     "Vel": 80
    },
    {
     "TimeMs": 80344,
     "Key": 27,
     "DurationMs": 192,
     "Vel": 80
    },
    {
     "TimeMs": 80345,
     "Key": 39,
     "DurationMs": 192,
     "Vel": 80
    },
    {
     "TimeMs": 80547,
     "Key": 63,
     "DurationMs": 101,
     "Vel": 80
    },
    {
     "TimeMs": 80548,
     "Key": 73,
     "DurationMs": 101,
     "Vel": 80
    },
    {
     "TimeMs": 80549,
     "Key": 27,
     "DurationMs": 202,
     "Vel": 120
    },
    {
     "TimeMs": 80550,
     "Key": 39,
     "DurationMs": 204,
     "Vel": 120
    },
    {
     "TimeMs": 80753,
     "Key": 63,
     "DurationMs": 101,
     "Vel": 80
    },
    {
     "TimeMs": 80754,
     "Key": 73,
     "DurationMs": 101,
     "Vel": 80
    },
    {
     "TimeMs": 80958,
     "Key": 64,
     "DurationMs": 101,
     "Vel": 80
    },
    {
     "TimeMs": 80959,
     "Key": 72,
     "DurationMs": 101,
     "Vel": 80
    },
    {
     "TimeMs": 81164,
     "Key": 64,
     "DurationMs": 101,
     "Vel": 80
    },
    {
     "TimeMs": 81165,
     "Key": 72,
     "DurationMs": 101,
     "Vel": 80
    },
    {
     "TimeMs": 81369,
     "Key": 75,
     "DurationMs": 821,
     "Vel": 120
    },
    {
     "TimeMs": 81370,
     "Key": 80,
     "DurationMs": 821,
     "Vel": 120
    },
    {
     "TimeMs": 81371,
     "Key": 63,
     "DurationMs": 100,
     "Vel": 80
    },
    {
     "TimeMs": 81372,
     "Key": 73,
     "DurationMs": 100,
     "Vel": 80
    },
    {
     "TimeMs": 81575,
     "Key": 63,
     "DurationMs": 101,
     "Vel": 80
    },
    {
     "TimeMs": 81576,
     "Key": 73,
     "DurationMs": 101,
     "Vel": 80
    },
    {
     "TimeMs": 81780,
     "Key": 64,
     "DurationMs": 101,
     "Vel": 80
    },
    {
     "TimeMs": 81781,
     "Key": 72,
     "DurationMs": 101,
     "Vel": 80
    },
    {
     "TimeMs": 81986,
     "Key": 64,
     "DurationMs": 101,
     "Vel": 80
    },
    {
     "TimeMs": 81987,
     "Key": 72,
     "DurationMs": 101,
     "Vel": 80
    },
    {
     "TimeMs": 82192,
     "Key": 69,
     "DurationMs": 101,
     "Vel": 80
    },
    {
     "TimeMs": 82193,
     "Key": 81,
     "DurationMs": 101,
     "Vel": 80
    },
    {
     "TimeMs": 82194,
     "Key": 45,
     "DurationMs": 101,
     "Vel": 80
    },
    {
     "TimeMs": 82195,
     "Key": 57,
     "DurationMs": 101,
     "Vel": 80
    },
    {
     "TimeMs": 82397,
     "Key": 68,
     "DurationMs": 101,
     "Vel": 80
    },
    {
     "TimeMs": 82398,
     "Key": 80,
     "DurationMs": 101,
     "Vel": 80
    },
    {
     "TimeMs": 82398,
     "Key": 44,
     "DurationMs": 101,
     "Vel": 80
    },
    {
     "TimeMs": 82399,
     "Key": 56,
     "DurationMs": 101,
     "Vel": 80
    },
    {
     "TimeMs": 82602,
     "Key": 66,
     "DurationMs": 101,
     "Vel": 81
    },
    {
     "TimeMs": 82603,
     "Key": 78,
     "DurationMs": 101,
     "Vel": 81
    },
    {
     "TimeMs": 82604,
     "Key": 42,
     "DurationMs": 101,
     "Vel": 81
    },
    {
     "TimeMs": 82605,
     "Key": 54,
     "DurationMs": 101,
     "Vel": 81
    },
    {
     "TimeMs": 82808,
     "Key": 68,
     "DurationMs": 101,
     "Vel": 82
    },
    {
     "TimeMs": 82809,
     "Key": 80,
     "DurationMs": 101,
     "Vel": 82
    },
    {
     "TimeMs": 82809,
     "Key": 44,
     "DurationMs": 101,
     "Vel": 82
    },
    {
     "TimeMs": 82810,
     "Key": 56,
     "DurationMs": 101,
     "Vel": 82
    },
    {
     "TimeMs": 83013,
     "Key": 66,
     "DurationMs": 101,
     "Vel": 83
    },
    {
     "TimeMs": 83014,
     "Key": 78,
     "DurationMs": 101,
     "Vel": 83
    },
    {
     "TimeMs": 83015,
     "Key": 42,
     "DurationMs": 101,
     "Vel": 83
    },
    {
     "TimeMs": 83016,
     "Key": 54,
     "DurationMs": 101,
     "Vel": 83
    },
    {
     "TimeMs": 83219,
     "Key": 64,
     "DurationMs": 101,
     "Vel": 84
    },
    {
     "TimeMs": 83220,
     "Key": 76,
     "DurationMs": 101,
     "Vel": 84
    },
    {
     "TimeMs": 83220,
     "Key": 40,
     "DurationMs": 101,
     "Vel": 84
    },
    {
     "TimeMs": 83221,
     "Key": 52,
     "DurationMs": 101,
     "Vel": 84
    },
    {
     "TimeMs": 83424,
     "Key": 66,
     "DurationMs": 101,
     "Vel": 85
    },
    {
     "TimeMs": 83425,
     "Key": 78,
     "DurationMs": 101,
     "Vel": 85
    },
    {
     "TimeMs": 83426,
     "Key": 42,
     "DurationMs": 101,
     "Vel": 85
    },
    {
     "TimeMs": 83427,
     "Key": 54,
     "DurationMs": 101,
     "Vel": 85
    },
    {
     "TimeMs": 83630,
     "Key": 64,
     "DurationMs": 101,
     "Vel": 86
    },
    {
     "TimeMs": 83631,
     "Key": 76,
     "DurationMs": 101,
     "Vel": 86
    },
    {
     "TimeMs": 83631,
     "Key": 40,
     "DurationMs": 101,
     "Vel": 86
    },
    {
     "TimeMs": 83632,
     "Key": 52,
     "DurationMs": 101,
     "Vel": 86
    },
    {
     "TimeMs": 83835,
     "Key": 63,
     "DurationMs": 101,
     "Vel": 87
    },
    {
     "TimeMs": 83836,
     "Key": 75,
     "DurationMs": 101,
     "Vel": 87
    },
    {
     "TimeMs": 83837,
     "Key": 39,
     "DurationMs": 101,
     "Vel": 87
    },
    {
     "TimeMs": 83838,
     "Key": 51,
     "DurationMs": 101,
     "Vel": 87
    },
    {
     "TimeMs": 84041,
     "Key": 64,
     "DurationMs": 101,
     "Vel": 88
    },
    {
     "TimeMs": 84041,
     "Key": 76,
     "DurationMs": 101,
     "Vel": 88
    },
    {
     "TimeMs": 84042,
     "Key": 40,
     "DurationMs": 101,
     "Vel": 88
    },
    {
     "TimeMs": 84043,
     "Key": 52,
     "DurationMs": 101,
     "Vel": 88
    },
    {
     "TimeMs": 84246,
     "Key": 63,
     "DurationMs": 101,
     "Vel": 89
    },
    {
     "TimeMs": 84247,
     "Key": 75,
     "DurationMs": 101,
     "Vel": 89
    },
    {
     "TimeMs": 84248,
     "Key": 39,
     "DurationMs": 101,
     "Vel": 89
    },
    {
     "TimeMs": 84249,
     "Key": 51,
     "DurationMs": 101,
     "Vel": 89
    },
    {
     "TimeMs": 84452,
     "Key": 61,
     "DurationMs": 101,
     "Vel": 90
    },
    {
     "TimeMs": 84452,
     "Key": 73,
     "DurationMs": 101,
     "Vel": 90
    },
    {
     "TimeMs": 84453,
     "Key": 37,
     "DurationMs": 101,
     "Vel": 90
    },
    {
     "TimeMs": 84454,
     "Key": 49,
     "DurationMs": 101,
     "Vel": 90
    },
    {
     "TimeMs": 84657,
     "Key": 63,
     "DurationMs": 101,
     "Vel": 91
    },
    {
     "TimeMs": 84658,
     "Key": 75,
     "DurationMs": 101,
     "Vel": 91
    },
    {
     "TimeMs": 84659,
     "Key": 39,
     "DurationMs": 101,
     "Vel": 91
    },
    {
     "TimeMs": 84660,
     "Key": 51,
     "DurationMs": 101,
     "Vel": 91
    },
    {
     "TimeMs": 84863,
     "Key": 60,
     "DurationMs": 101,
     "Vel": 92
    },
    {
     "TimeMs": 84863,
     "Key": 72,
     "DurationMs": 101,
     "Vel": 92
    },
    {
     "TimeMs": 84864,
     "Key": 36,
     "DurationMs": 101,
     "Vel": 92
    },
    {
     "TimeMs": 84865,
     "Key": 48,
     "DurationMs": 101,
     "Vel": 92
    },
    {
     "TimeMs": 85068,
     "Key": 61,
     "DurationMs": 101,
     "Vel": 93
    },
    {
     "TimeMs": 85069,
     "Key": 73,
     "DurationMs": 101,
     "Vel": 93
    },
    {
     "TimeMs": 85070,
     "Key": 37,
     "DurationMs": 101,
     "Vel": 93
    },
    {
     "TimeMs": 85071,
     "Key": 49,
     "DurationMs": 101,
     "Vel": 93
    },
    {
     "TimeMs": 85273,
     "Key": 32,
     "DurationMs": 194,
     "Vel": 94
    },
    {
     "TimeMs": 85479,
     "Key": 61,
     "DurationMs": 194,
     "Vel": 96
    },
    {
     "TimeMs": 85480,
     "Key": 25,
     "DurationMs": 409,
     "Vel": 127
    },
    {
     "TimeMs": 85481,
     "Key": 37,
     "DurationMs": 410,
     "Vel": 127
    },
    {
     "TimeMs": 85684,
     "Key": 61,
     "DurationMs": 194,
     "Vel": 96
    },
    {
     "TimeMs": 85890,
     "Key": 80,
     "DurationMs": 194,
     "Vel": 96
    },
    {
     "TimeMs": 85892,
     "Key": 64,
     "DurationMs": 193,
     "Vel": 96
    },
    {
     "TimeMs": 86095,
     "Key": 85,
     "DurationMs": 194,
     "Vel": 96
    },
    {
     "TimeMs": 86096,
     "Key": 63,
     "DurationMs": 388,
     "Vel": 96
    },
    {
     "TimeMs": 86301,
     "Key": 92,
     "DurationMs": 194,
     "Vel": 96
    },
    {
     "TimeMs": 86506,
     "Key": 85,
     "DurationMs": 194,
     "Vel": 96
    },
    {
     "TimeMs": 86507,
     "Key": 59,
     "DurationMs": 388,
     "Vel": 96
    },
    {
     "TimeMs": 86712,
     "Key": 80,
     "DurationMs": 194,
     "Vel": 96
    },
    {
     "TimeMs": 86917,
     "Key": 85,
     "DurationMs": 194,
     "Vel": 96
    },
    {
     "TimeMs": 86918,
     "Key": 61,
     "DurationMs": 1755,
     "Vel": 96
    },
    {
     "TimeMs": 87123,
     "Key": 92,
     "DurationMs": 194,
     "Vel": 96
    },
    {
     "TimeMs": 87328,
     "Key": 85,
     "DurationMs": 194,
     "Vel": 96
    },
    {
     "TimeMs": 87534,
     "Key": 80,
     "DurationMs": 194,
     "Vel": 96
    },
    {
     "TimeMs": 87739,
     "Key": 85,
     "DurationMs": 194,
     "Vel": 96
    },
    {
     "TimeMs": 87945,
     "Key": 92,
     "DurationMs": 194,
     "Vel": 96
    },
    {
     "TimeMs": 88150,
     "Key": 85,
     "DurationMs": 194,
     "Vel": 96
    },
    {
     "TimeMs": 88356,
     "Key": 80,
     "DurationMs": 194,
     "Vel": 96
    },
    {
     "TimeMs": 88561,
     "Key": 85,
     "DurationMs": 194,
     "Vel": 96
    },
    {
     "TimeMs": 88767,
     "Key": 61,
     "DurationMs": 194,
     "Vel": 96
    },
    {
     "TimeMs": 88768,
     "Key": 45,
     "DurationMs": 409,
     "Vel": 127
    },
    {
     "TimeMs": 88768,
     "Key": 57,
     "DurationMs": 410,
     "Vel": 127
    },
    {
     "TimeMs": 88972,
     "Key": 61,
     "DurationMs": 194,
     "Vel": 96
    },
    {
     "TimeMs": 89178,
     "Key": 80,
     "DurationMs": 194,
     "Vel": 96
    },
    {
     "TimeMs": 89179,
     "Key": 64,
     "DurationMs": 193,
     "Vel": 96
    },
    {
     "TimeMs": 89383,
     "Key": 85,
     "DurationMs": 194,
     "Vel": 96
    },
    {
     "TimeMs": 89384,
     "Key": 63,
     "DurationMs": 388,
     "Vel": 96
    },
    {
     "TimeMs": 89589,
     "Key": 92,
     "DurationMs": 194,
     "Vel": 96
    },
    {
     "TimeMs": 89794,
     "Key": 85,
     "DurationMs": 194,
     "Vel": 96
    },
    {
     "TimeMs": 89795,
     "Key": 59,
     "DurationMs": 388,
     "Vel": 96
    },
    {
     "TimeMs": 90000,
     "Key": 80,
     "DurationMs": 194,
     "Vel": 96
    },
    {
     "TimeMs": 90205,
     "Key": 85,
     "DurationMs": 194,
     "Vel": 96
    },
    {
     "TimeMs": 90206,
     "Key": 61,
     "DurationMs": 1755,
     "Vel": 96
    },
    {
     "TimeMs": 90410,
     "Key": 92,
     "DurationMs": 194,
     "Vel": 96
    },
    {
     "TimeMs": 90616,
     "Key": 85,
     "DurationMs": 194,
     "Vel": 96
    },
    {
     "TimeMs": 90821,
     "Key": 80,
     "DurationMs": 194,
     "Vel": 96
    },
    {
     "TimeMs": 91027,
     "Key": 85,
     "DurationMs": 194,
     "Vel": 96
    },
    {
     "TimeMs": 91232,
     "Key": 92,
     "DurationMs": 194,
     "Vel": 96
    },
    {
     "TimeMs": 91438,
     "Key": 85,
     "DurationMs": 194,
     "Vel": 96
    },
    {
     "TimeMs": 91643,
     "Key": 80,
     "DurationMs": 194,
     "Vel": 96
    },
    {
     "TimeMs": 91849,
     "Key": 85,
     "DurationMs": 194,
     "Vel": 96
    },
    {
     "TimeMs": 92054,
     "Key": 61,
     "DurationMs": 194,
     "Vel": 96
    },
    {
     "TimeMs": 92055,
     "Key": 42,
     "DurationMs": 409,
     "Vel": 127
    },
    {
     "TimeMs": 92056,
     "Key": 54,
     "DurationMs": 410,
     "Vel": 127
    },
    {
     "TimeMs": 92260,
     "Key": 61,
     "DurationMs": 194,
     "Vel": 96
    },
    {
     "TimeMs": 92465,
     "Key": 80,
     "DurationMs": 194,
     "Vel": 96
    },
    {
     "TimeMs": 92467,
     "Key": 64,
     "DurationMs": 193,
     "Vel": 96
    },
    {
     "TimeMs": 92671,
     "Key": 85,
     "DurationMs": 194,
     "Vel": 96
    },
    {
     "TimeMs": 92672,
     "Key": 63,
     "DurationMs": 388,
     "Vel": 96
    },
    {
     "TimeMs": 92876,
     "Key": 92,
     "DurationMs": 194,
     "Vel": 96
    },
    {
     "TimeMs": 93082,
     "Key": 85,
     "DurationMs": 194,
     "Vel": 96
    },
    {
     "TimeMs": 93083,
     "Key": 59,
     "DurationMs": 388,
     "Vel": 96
    },
    {
     "TimeMs": 93287,
     "Key": 80,
     "DurationMs": 194,
     "Vel": 96
    },
    {
     "TimeMs": 93493,
     "Key": 85,
     "DurationMs": 194,
     "Vel": 96
    },
    {
     "TimeMs": 93494,
     "Key": 61,
     "DurationMs": 1755,
     "Vel": 96
    },
    {
     "TimeMs": 93698,
     "Key": 92,
     "DurationMs": 194,
     "Vel": 96
    },
    {
     "TimeMs": 93904,
     "Key": 85,
     "DurationMs": 194,
     "Vel": 96
    },
    {
     "TimeMs": 94109,
     "Key": 80,
     "DurationMs": 194,
     "Vel": 96
    },
    {
     "TimeMs": 94315,
     "Key": 85,
     "DurationMs": 194,
     "Vel": 96
    },
    {
     "TimeMs": 94520,
     "Key": 92,
     "DurationMs": 194,
     "Vel": 96
    },
    {
     "TimeMs": 94726,
     "Key": 85,
     "DurationMs": 194,
     "Vel": 96
    },
    {
     "TimeMs": 94931,
     "Key": 80,
     "DurationMs": 194,
     "Vel": 96
    },
    {
     "TimeMs": 95137,
     "Key": 85,
     "DurationMs": 194,
     "Vel": 96
    },
    {
     "TimeMs": 95342,
     "Key": 61,
     "DurationMs": 194,
     "Vel": 96
    },
    {
     "TimeMs": 95343,
     "Key": 44,
     "DurationMs": 409,
     "Vel": 127
    },
    {
     "TimeMs": 95344,
     "Key": 56,
     "DurationMs": 410,
     "Vel": 127
    },
    {
     "TimeMs": 95547,
     "Key": 61,
     "DurationMs": 194,
     "Vel": 96
    },
    {
     "TimeMs": 95753,
     "Key": 80,
     "DurationMs": 194,
     "Vel": 96
    },
    {
     "TimeMs": 95755,
     "Key": 64,
     "DurationMs": 193,
     "Vel": 96
    },
    {
     "TimeMs": 95958,
     "Key": 85,
     "DurationMs": 194,
     "Vel": 96
    },
    {
     "TimeMs": 95959,
     "Key": 63,
     "DurationMs": 388,
     "Vel": 96
    },
    {
     "TimeMs": 96164,
     "Key": 92,
     "DurationMs": 194,
     "Vel": 96
    },
    {
     "TimeMs": 96369,
     "Key": 85,
     "DurationMs": 194,
     "Vel": 96
    },
    {
     "TimeMs": 96370,
     "Key": 61,
     "DurationMs": 388,
     "Vel": 96
    },
    {
     "TimeMs": 96575,
     "Key": 80,
     "DurationMs": 194,
     "Vel": 96
    },
    {
     "TimeMs": 96780,
     "Key": 85,
     "DurationMs": 194,
     "Vel": 96
    },
    {
     "TimeMs": 96781,
     "Key": 60,
     "DurationMs": 1364,
     "Vel": 96
    },
    {
     "TimeMs": 96986,
     "Key": 92,
     "DurationMs": 194,
     "Vel": 96
    },
    {
     "TimeMs": 97191,
     "Key": 85,
     "DurationMs": 194,
     "Vel": 96
    },
    {
     "TimeMs": 97397,
     "Key": 80,
     "DurationMs": 194,
     "Vel": 96
    },
    {
     "TimeMs": 97602,
     "Key": 85,
     "DurationMs": 194,
     "Vel": 96
    },
    {
     "TimeMs": 97808,
     "Key": 92,
     "DurationMs": 194,
     "Vel": 96
    },
    {
     "TimeMs": 98013,
     "Key": 85,
     "DurationMs": 194,
     "Vel": 96
    },
    {
     "TimeMs": 98219,
     "Key": 80,
     "DurationMs": 194,
     "Vel": 96
    },
    {
     "TimeMs": 98220,
     "Key": 44,
     "DurationMs": 388,
     "Vel": 96
    },
    {
     "TimeMs": 98424,
     "Key": 85,
     "DurationMs": 194,
     "Vel": 96
    },
    {
     "TimeMs": 98630,
     "Key": 61,
     "DurationMs": 194,
     "Vel": 96
    },
    {
     "TimeMs": 98631,
     "Key": 64,
     "DurationMs": 194,
     "Vel": 96
    },
    {
     "TimeMs": 98631,
     "Key": 68,
     "DurationMs": 194,
     "Vel": 96
    },
    {
     "TimeMs": 98632,
     "Key": 73,
     "DurationMs": 194,
     "Vel": 96
    },
    {
     "TimeMs": 98633,
     "Key": 37,
     "DurationMs": 406,
     "Vel": 127
    },
    {
     "TimeMs": 98634,
     "Key": 49,
     "DurationMs": 408,
     "Vel": 127
    },
    {
     "TimeMs": 98835,
     "Key": 61,
     "DurationMs": 194,
     "Vel": 96
    },
    {
     "TimeMs": 98836,
     "Key": 64,
     "DurationMs": 194,
     "Vel": 96
    },
    {
     "TimeMs": 98837,
     "Key": 68,
     "DurationMs": 194,
     "Vel": 96
    },
    {
     "TimeMs": 98838,
     "Key": 73,
     "DurationMs": 194,
     "Vel": 96
    },
    {
     "TimeMs": 99041,
     "Key": 64,
     "DurationMs": 194,
     "Vel": 96
    },
    {
     "TimeMs": 99041,
     "Key": 76,
     "DurationMs": 194,
     "Vel": 96
    },
    {
     "TimeMs": 99246,
     "Key": 63,
     "DurationMs": 389,
     "Vel": 96
    },
    {
     "TimeMs": 99247,
     "Key": 75,
     "DurationMs": 389,
     "Vel": 96
    },
    {
     "TimeMs": 99657,
     "Key": 59,
     "DurationMs": 389,
     "Vel": 96
    },
    {
     "TimeMs": 99658,
     "Key": 71,
     "DurationMs": 389,
     "Vel": 96
    },
    {
     "TimeMs": 100068,
     "Key": 61,
     "DurationMs": 1755,
     "Vel": 96
    },
    {
     "TimeMs": 100069,
     "Key": 64,
     "DurationMs": 1755,
     "Vel": 96
    },
    {
     "TimeMs": 100070,
     "Key": 68,
     "DurationMs": 1755,
     "Vel": 96
    },
    {
     "TimeMs": 100071,
     "Key": 73,
     "DurationMs": 1755,
     "Vel": 96
    },
    {
     "TimeMs": 100273,
     "Key": 40,
     "DurationMs": 101,
     "Vel": 96
    },
    {
     "TimeMs": 100274,
     "Key": 52,
     "DurationMs": 101,
     "Vel": 96
    },
    {
     "TimeMs": 100479,
     "Key": 42,
     "DurationMs": 101,
     "Vel": 96
    },
    {
     "TimeMs": 100480,
     "Key": 54,
     "DurationMs": 101,
     "Vel": 96
    },
    {
     "TimeMs": 100684,
     "Key": 40,
     "DurationMs": 101,
     "Vel": 96
    },
    {
     "TimeMs": 100685,
     "Key": 52,
     "DurationMs": 101,
     "Vel": 96
    },
    {
     "TimeMs": 100890,
     "Key": 39,
     "DurationMs": 101,
     "Vel": 96
    },
    {
     "TimeMs": 100891,
     "Key": 51,
     "DurationMs": 101,
     "Vel": 96
    },
    {
     "TimeMs": 101095,
     "Key": 37,
     "DurationMs": 101,
     "Vel": 96
    },
    {
     "TimeMs": 101096,
     "Key": 49,
     "DurationMs": 101,
     "Vel": 96
    },
    {
     "TimeMs": 101301,
     "Key": 39,
     "DurationMs": 101,
     "Vel": 96
    },
    {
     "TimeMs": 101302,
     "Key": 51,
     "DurationMs": 101,
     "Vel": 96
    },
    {
     "TimeMs": 101506,
     "Key": 37,
     "DurationMs": 101,
     "Vel": 96
    },
    {
     "TimeMs": 101507,
     "Key": 49,
     "DurationMs": 101,
     "Vel": 96
    },
    {
     "TimeMs": 101712,
     "Key": 35,
     "DurationMs": 101,
     "Vel": 96
    },
    {
     "TimeMs": 101713,
     "Key": 47,
     "DurationMs": 101,
     "Vel": 96
    },
    {
     "TimeMs": 101917,
     "Key": 61,
     "DurationMs": 194,
     "Vel": 96
    },
    {
     "TimeMs": 101918,
     "Key": 64,
     "DurationMs": 194,
     "Vel": 96
    },
    {
     "TimeMs": 101919,
     "Key": 68,
     "DurationMs": 194,
     "Vel": 96
    },
    {
     "TimeMs": 101920,
     "Key": 73,
     "DurationMs": 194,
     "Vel": 96
    },
    {
     "TimeMs": 101921,
     "Key": 33,
     "DurationMs": 386,
     "Vel": 96
    },
    {
     "TimeMs": 101922,
     "Key": 45,
     "DurationMs": 386,
     "Vel": 96
    },
    {
     "TimeMs": 102123,
     "Key": 61,
     "DurationMs": 194,
     "Vel": 96
    },
    {
     "TimeMs": 102124,
     "Key": 64,
     "DurationMs": 194,
     "Vel": 96
    },
    {
     "TimeMs": 102125,
     "Key": 68,
     "DurationMs": 194,
     "Vel": 96
    },
    {
     "TimeMs": 102125,
     "Key": 73,
     "DurationMs": 194,
     "Vel": 96
    },
    {
     "TimeMs": 102328,
     "Key": 64,
     "DurationMs": 194,
     "Vel": 96
    },
    {
     "TimeMs": 102329,
     "Key": 76,
     "DurationMs": 194,
     "Vel": 96
    },
    {
     "TimeMs": 102534,
     "Key": 63,
     "DurationMs": 389,
     "Vel": 96
    },
    {
     "TimeMs": 102535,
     "Key": 75,
     "DurationMs": 389,
     "Vel": 96
    },
    {
     "TimeMs": 102945,
     "Key": 59,
     "DurationMs": 389,
     "Vel": 96
    },
    {
     "TimeMs": 102946,
     "Key": 71,
     "DurationMs": 389,
     "Vel": 96
    },
    {
     "TimeMs": 103356,
     "Key": 61,
     "DurationMs": 1755,
     "Vel": 96
    },
    {
     "TimeMs": 103357,
     "Key": 64,
     "DurationMs": 1755,
     "Vel": 96
    },
    {
     "TimeMs": 103357,
     "Key": 68,
     "DurationMs": 1755,
     "Vel": 96
    },
    {
     "TimeMs": 103358,
     "Key": 73,
     "DurationMs": 1755,
     "Vel": 96
    },
    {
     "TimeMs": 103561,
     "Key": 37,
     "DurationMs": 101,
     "Vel": 96
    },
    {
     "TimeMs": 103562,
     "Key": 49,
     "DurationMs": 101,
     "Vel": 96
    },
    {
     "TimeMs": 103767,
     "Key": 39,
     "DurationMs": 101,
     "Vel": 96
    },
    {
     "TimeMs": 103768,
     "Key": 51,
     "DurationMs": 101,
     "Vel": 96
    },
    {
     "TimeMs": 103972,
     "Key": 37,
     "DurationMs": 101,
     "Vel": 96
    },
    {
     "TimeMs": 103973,
     "Key": 49,
     "DurationMs": 101,
     "Vel": 96
    },
    {
     "TimeMs": 104178,
     "Key": 35,
     "DurationMs": 101,
     "Vel": 96
    },
    {
     "TimeMs": 104178,
     "Key": 47,
     "DurationMs": 101,
     "Vel": 96
    },
    {
     "TimeMs": 104383,
     "Key": 33,
     "DurationMs": 101,
     "Vel": 96
    },
    {
     "TimeMs": 104384,
     "Key": 45,
     "DurationMs": 101,
     "Vel": 96
    },
    {
     "TimeMs": 104589,
     "Key": 35,
     "DurationMs": 101,
     "Vel": 96
    },
    {
     "TimeMs": 104589,
     "Key": 47,
     "DurationMs": 101,
     "Vel": 96
    },
    {
     "TimeMs": 104794,
     "Key": 33,
     "DurationMs": 101,
     "Vel": 96
    },
    {
     "TimeMs": 104795,
     "Key": 45,
     "DurationMs": 101,
     "Vel": 96
    },
    {
     "TimeMs": 105000,
     "Key": 32,
     "DurationMs": 101,
     "Vel": 96
    },
    {
     "TimeMs": 105000,
     "Key": 44,
     "DurationMs": 101,
     "Vel": 96
    },
    {
     "TimeMs": 105205,
     "Key": 61,
     "DurationMs": 194,
     "Vel": 96
    },
    {
     "TimeMs": 105206,
     "Key": 66,
     "DurationMs": 194,
     "Vel": 96
    },
    {
     "TimeMs": 105207,
     "Key": 69,
     "DurationMs": 194,
     "Vel": 96
    },
    {
     "TimeMs": 105208,
     "Key": 73,
     "DurationMs": 194,
     "Vel": 96
    },
    {
     "TimeMs": 105208,
     "Key": 30,
     "DurationMs": 386,
     "Vel": 96
    },
    {
     "TimeMs": 105209,
     "Key": 42,
     "DurationMs": 386,
     "Vel": 96
    },
    {
     "TimeMs": 105410,
     "Key": 61,
     "DurationMs": 194,
     "Vel": 96
    },
    {
     "TimeMs": 105411,
     "Key": 66,
     "DurationMs": 194,
     "Vel": 96
    },
    {
     "TimeMs": 105412,
     "Key": 69,
     "DurationMs": 194,
     "Vel": 96
    },
    {
     "TimeMs": 105413,
     "Key": 73,
     "DurationMs": 194,
     "Vel": 96
    },
    {
     "TimeMs": 105616,
     "Key": 64,
     "DurationMs": 194,
     "Vel": 96
    },
    {
     "TimeMs": 105617,
     "Key": 76,
     "DurationMs": 194,
     "Vel": 96
    },
    {
     "TimeMs": 105821,
     "Key": 63,
     "DurationMs": 389,
     "Vel": 96
    },
    {
     "TimeMs": 105822,
     "Key": 75,
     "DurationMs": 389,
     "Vel": 96
    },
    {
     "TimeMs": 106232,
     "Key": 59,
     "DurationMs": 389,
     "Vel": 96
    },
    {
     "TimeMs": 106233,
     "Key": 71,
     "DurationMs": 389,
     "Vel": 96
    },
    {
     "TimeMs": 106643,
     "Key": 61,
     "DurationMs": 1755,
     "Vel": 96
    },
    {
     "TimeMs": 106644,
     "Key": 66,
     "DurationMs": 1755,
     "Vel": 96
    },
    {
     "TimeMs": 106645,
     "Key": 69,
     "DurationMs": 1755,
     "Vel": 96
    },
    {
     "TimeMs": 106646,
     "Key": 73,
     "DurationMs": 1755,
     "Vel": 96
    },
    {
     "TimeMs": 106849,
     "Key": 45,
     "DurationMs": 101,
     "Vel": 96
    },
    {
     "TimeMs": 106850,
     "Key": 57,
     "DurationMs": 101,
     "Vel": 96
    },
    {
     "TimeMs": 107054,
     "Key": 47,
     "DurationMs": 101,
     "Vel": 96
    },
    {
     "TimeMs": 107055,
     "Key": 59,
     "DurationMs": 101,
     "Vel": 96
    },
    {
     "TimeMs": 107260,
     "Key": 45,
     "DurationMs": 101,
     "Vel": 96
    },
    {
     "TimeMs": 107261,
     "Key": 57,
     "DurationMs": 101,
     "Vel": 96
    },
    {
     "TimeMs": 107465,
     "Key": 44,
     "DurationMs": 101,
     "Vel": 96
    },
    {
     "TimeMs": 107466,
     "Key": 56,
     "DurationMs": 101,
     "Vel": 96
    },
    {
     "TimeMs": 107671,
     "Key": 42,
     "DurationMs": 101,
     "Vel": 96
    },
    {
     "TimeMs": 107672,
     "Key": 54,
     "DurationMs": 101,
     "Vel": 96
    },
    {
     "TimeMs": 107876,
     "Key": 44,
     "DurationMs": 101,
     "Vel": 96
    },
    {
     "TimeMs": 107877,
     "Key": 56,
     "DurationMs": 101,
     "Vel": 96
    },
    {
     "TimeMs": 108082,
     "Key": 42,
     "DurationMs": 101,
     "Vel": 96
    },
    {
     "TimeMs": 108083,
     "Key": 54,
     "DurationMs": 101,
     "Vel": 96
    },
    {
     "TimeMs": 108287,
     "Key": 40,
     "DurationMs": 101,
     "Vel": 96
    },
    {
     "TimeMs": 108288,
     "Key": 52,
     "DurationMs": 101,
     "Vel": 96
    },
    {
     "TimeMs": 108493,
     "Key": 60,
     "DurationMs": 194,
     "Vel": 96
    },
    {
     "TimeMs": 108494,
     "Key": 63,
     "DurationMs": 194,
     "Vel": 96
    },
    {
     "TimeMs": 108494,
     "Key": 68,
     "DurationMs": 194,
     "Vel": 96
    },
    {
     "TimeMs": 108495,
     "Key": 72,
     "DurationMs": 194,
     "Vel": 96
    },
    {
     "TimeMs": 108496,
     "Key": 32,
     "DurationMs": 1362,
     "Vel": 96
    },
    {
     "TimeMs": 108497,
     "Key": 44,
     "DurationMs": 1362,
     "Vel": 96
    },
    {
     "TimeMs": 108698,
     "Key": 60,
     "DurationMs": 194,
     "Vel": 96
    },
    {
     "TimeMs": 108699,
     "Key": 63,
     "DurationMs": 194,
     "Vel": 96
    },
    {
     "TimeMs": 108700,
     "Key": 68,
     "DurationMs": 194,
     "Vel": 96
    },
    {
     "TimeMs": 108701,
     "Key": 72,
     "DurationMs": 194,
     "Vel": 96
    },
    {
     "TimeMs": 108904,
     "Key": 63,
     "DurationMs": 194,
     "Vel": 96
    },
    {
     "TimeMs": 108904,
     "Key": 75,
     "DurationMs": 194,
     "Vel": 96
    },
    {
     "TimeMs": 109109,
     "Key": 61,
     "DurationMs": 389,
     "Vel": 96
    },
    {
     "TimeMs": 109110,
     "Key": 73,
     "DurationMs": 389,
     "Vel": 96
    },
    {
     "TimeMs": 109520,
     "Key": 60,
     "DurationMs": 389,
     "Vel": 96
    },
    {
     "TimeMs": 109521,
     "Key": 72,
     "DurationMs": 389,
     "Vel": 96
    },
    {
     "TimeMs": 109931,
     "Key": 68,
     "DurationMs": 389,
     "Vel": 96
    },
    {
     "TimeMs": 109932,
     "Key": 72,
     "DurationMs": 389,
     "Vel": 96
    },
    {
     "TimeMs": 109933,
     "Key": 75,
     "DurationMs": 389,
     "Vel": 96
    },
    {
     "TimeMs": 109934,
     "Key": 80,
     "DurationMs": 389,
     "Vel": 96
    },
    {
     "TimeMs": 109934,
     "Key": 39,
     "DurationMs": 190,
     "Vel": 96
    },
    {
     "TimeMs": 110137,
     "Key": 32,
     "DurationMs": 194,
     "Vel": 96
    },
    {
     "TimeMs": 110137,
     "Key": 44,
     "DurationMs": 194,
     "Vel": 96
    },
    {
     "TimeMs": 110958,
     "Key": 85,
     "DurationMs": 96,
     "Vel": 96
    },
    {
     "TimeMs": 110959,
     "Key": 37,
     "DurationMs": 101,
     "Vel": 96
    },
    {
     "TimeMs": 110960,
     "Key": 49,
     "DurationMs": 101,
     "Vel": 96
    },
    {
     "TimeMs": 111061,
     "Key": 73,
     "DurationMs": 96,
     "Vel": 96
    },
    {
     "TimeMs": 111164,
     "Key": 83,
     "DurationMs": 96,
     "Vel": 96
    },
    {
     "TimeMs": 111165,
     "Key": 35,
     "DurationMs": 101,
     "Vel": 96
    },
    {
     "TimeMs": 111166,
     "Key": 47,
     "DurationMs": 101,
     "Vel": 96
    },
    {
     "TimeMs": 111267,
     "Key": 71,
     "DurationMs": 96,
     "Vel": 96
    },
    {
     "TimeMs": 111369,
     "Key": 81,
     "DurationMs": 96,
     "Vel": 96
    },
    {
     "TimeMs": 111370,
     "Key": 33,
     "DurationMs": 101,
     "Vel": 96
    },
    {
     "TimeMs": 111371,
     "Key": 45,
     "DurationMs": 101,
     "Vel": 96
    },
    {
     "TimeMs": 111472,
     "Key": 69,
     "DurationMs": 96,
     "Vel": 96
    },
    {
     "TimeMs": 111575,
     "Key": 80,
     "DurationMs": 96,
     "Vel": 96
    },
    {
     "TimeMs": 111576,
     "Key": 32,
     "DurationMs": 101,
     "Vel": 96
    },
    {
     "TimeMs": 111577,
     "Key": 44,
     "DurationMs": 101,
     "Vel": 96
    },
    {
     "TimeMs": 111678,
     "Key": 68,
     "DurationMs": 96,
     "Vel": 96
    },
    {
     "TimeMs": 111780,
     "Key": 61,
     "DurationMs": 410,
     "Vel": 96
    },
    {
     "TimeMs": 111781,
     "Key": 64,
     "DurationMs": 779,
     "Vel": 96
    },
    {
     "TimeMs": 111782,
     "Key": 68,
     "DurationMs": 779,
     "Vel": 96
    },
    {
     "TimeMs": 111783,
     "Key": 73,
     "DurationMs": 779,
     "Vel": 96
    },
    {
     "TimeMs": 111784,
     "Key": 25,
     "DurationMs": 190,
     "Vel": 96
    },
    {
     "TimeMs": 111785,
     "Key": 37,
     "DurationMs": 190,
     "Vel": 96
    },
    {
     "TimeMs": 111986,
     "Key": 49,
     "DurationMs": 194,
     "Vel": 96
    },
    {
     "TimeMs": 112192,
     "Key": 52,
     "DurationMs": 193,
     "Vel": 96
    },
    {
     "TimeMs": 112193,
     "Key": 56,
     "DurationMs": 193,
     "Vel": 96
    },
    {
     "TimeMs": 112194,
     "Key": 61,
     "DurationMs": 369,
     "Vel": 96
    },
    {
     "TimeMs": 112397,
     "Key": 49,
     "DurationMs": 194,
     "Vel": 96
    },
    {
     "TimeMs": 112602,
     "Key": 64,
     "DurationMs": 194,
     "Vel": 96
    },
    {
     "TimeMs": 112603,
     "Key": 68,
     "DurationMs": 194,
     "Vel": 96
    },
    {
     "TimeMs": 112604,
     "Key": 72,
     "DurationMs": 194,
     "Vel": 96
    },
    {
     "TimeMs": 112605,
     "Key": 76,
     "DurationMs": 194,
     "Vel": 96
    },
    {
     "TimeMs": 112606,
     "Key": 32,
     "DurationMs": 194,
     "Vel": 96
    },
    {
     "TimeMs": 112607,
     "Key": 44,
     "DurationMs": 194,
     "Vel": 96
    },
    {
     "TimeMs": 112808,
     "Key": 61,
     "DurationMs": 389,
     "Vel": 96
    },
    {
     "TimeMs": 112809,
     "Key": 73,
     "DurationMs": 389,
     "Vel": 96
    },
    {
     "TimeMs": 112809,
     "Key": 52,
     "DurationMs": 192,
     "Vel": 96
    },
    {
     "TimeMs": 113013,
     "Key": 56,
     "DurationMs": 194,
     "Vel": 96
    },
    {
     "TimeMs": 113014,
     "Key": 60,
     "DurationMs": 194,
     "Vel": 96
    },
    {
     "TimeMs": 113219,
     "Key": 61,
     "DurationMs": 194,
     "Vel": 96
    },
    {
     "TimeMs": 113220,
     "Key": 73,
     "DurationMs": 194,
     "Vel": 96
    },
    {
     "TimeMs": 113220,
     "Key": 52,
     "DurationMs": 194,
     "Vel": 96
    },
    {
     "TimeMs": 113424,
     "Key": 61,
     "DurationMs": 194,
     "Vel": 96
    },
    {
     "TimeMs": 113425,
     "Key": 64,
     "DurationMs": 194,
     "Vel": 96
    },
    {
     "TimeMs": 113426,
     "Key": 68,
     "DurationMs": 194,
     "Vel": 96
    },
    {
     "TimeMs": 113427,
     "Key": 73,
     "DurationMs": 194,
     "Vel": 96
    },
    {
     "TimeMs": 113428,
     "Key": 25,
     "DurationMs": 194,
     "Vel": 96
    },
    {
     "TimeMs": 113428,
     "Key": 37,
     "DurationMs": 194,
     "Vel": 96
    },
    {
     "TimeMs": 113630,
     "Key": 68,
     "DurationMs": 194,
     "Vel": 96
    },
    {
     "TimeMs": 113631,
     "Key": 80,
     "DurationMs": 194,
     "Vel": 96
    },
    {
     "TimeMs": 113631,
     "Key": 49,
     "DurationMs": 194,
     "Vel": 96
    },
    {
     "TimeMs": 113835,
     "Key": 68,
     "DurationMs": 194,
     "Vel": 96
    },
    {
     "TimeMs": 113836,
     "Key": 80,
     "DurationMs": 194,
     "Vel": 96
    },
    {
     "TimeMs": 113837,
     "Key": 52,
     "DurationMs": 194,
     "Vel": 96
    },
    {
     "TimeMs": 113838,
     "Key": 56,
     "DurationMs": 194,
     "Vel": 96
    },
    {
     "TimeMs": 113839,
     "Key": 61,
     "DurationMs": 194,
     "Vel": 96
    },
    {
     "TimeMs": 114041,
     "Key": 68,
     "DurationMs": 194,
     "Vel": 96
    },
    {
     "TimeMs": 114041,
     "Key": 73,
     "DurationMs": 194,
     "Vel": 96
    },
    {
     "TimeMs": 114042,
     "Key": 76,
     "DurationMs": 194,
     "Vel": 96
    },
    {
     "TimeMs": 114043,
     "Key": 80,
     "DurationMs": 194,
     "Vel": 96
    },
    {
     "TimeMs": 114044,
     "Key": 49,
     "DurationMs": 194,
     "Vel": 96
    },
    {
     "TimeMs": 114246,
     "Key": 68,
     "DurationMs": 389,
     "Vel": 96
    },
    {
     "TimeMs": 114247,
     "Key": 73,
     "DurationMs": 389,
     "Vel": 96
    },
    {
     "TimeMs": 114248,
     "Key": 76,
     "DurationMs": 389,
     "Vel": 96
    },
    {
     "TimeMs": 114249,
     "Key": 80,
     "DurationMs": 389,
     "Vel": 96
    },
    {
     "TimeMs": 114250,
     "Key": 32,
     "DurationMs": 190,
     "Vel": 96
    },
    {
     "TimeMs": 114250,
     "Key": 44,
     "DurationMs": 190,
     "Vel": 96
    },
    {
     "TimeMs": 114452,
     "Key": 52,
     "DurationMs": 194,
     "Vel": 96
    },
    {
     "TimeMs": 114657,
     "Key": 64,
     "DurationMs": 194,
     "Vel": 96
    },
    {
     "TimeMs": 114658,
     "Key": 76,
     "DurationMs": 194,
     "Vel": 96
    },
    {
     "TimeMs": 114659,
     "Key": 56,
     "DurationMs": 194,
     "Vel": 96
    },
    {
     "TimeMs": 114660,
     "Key": 60,
     "DurationMs": 194,
     "Vel": 96
    },
    {
     "TimeMs": 114863,
     "Key": 63,
     "DurationMs": 194,
     "Vel": 96
    },
    {
     "TimeMs": 114863,
     "Key": 75,
     "DurationMs": 194,
     "Vel": 96
    },
    {
     "TimeMs": 114864,
     "Key": 52,
     "DurationMs": 194,
     "Vel": 96
    },
    {
     "TimeMs": 115068,
     "Key": 61,
     "DurationMs": 779,
     "Vel": 96
    },
    {
     "TimeMs": 115069,
     "Key": 64,
     "DurationMs": 779,
     "Vel": 96
    },
    {
     "TimeMs": 115070,
     "Key": 68,
     "DurationMs": 779,
     "Vel": 96
    },
    {
     "TimeMs": 115071,
     "Key": 73,
     "DurationMs": 779,
     "Vel": 96
    },
    {
     "TimeMs": 115071,
     "Key": 25,
     "DurationMs": 190,
     "Vel": 96
    },
    {
     "TimeMs": 115072,
     "Key": 37,
     "DurationMs": 190,
     "Vel": 96
    },
    {
     "TimeMs": 115273,
     "Key": 49,
     "DurationMs": 194,
     "Vel": 96
    },
    {
     "TimeMs": 115479,
     "Key": 52,
     "DurationMs": 194,
     "Vel": 96
    },
    {
     "TimeMs": 115480,
     "Key": 56,
     "DurationMs": 194,
     "Vel": 96
    },
    {
     "TimeMs": 115684,
     "Key": 49,
     "DurationMs": 194,
     "Vel": 96
    },
    {
     "TimeMs": 115890,
     "Key": 64,
     "DurationMs": 194,
     "Vel": 96
    },
    {
     "TimeMs": 115891,
     "Key": 68,
     "DurationMs": 194,
     "Vel": 96
    },
    {
     "TimeMs": 115892,
     "Key": 73,
     "DurationMs": 194,
     "Vel": 96
    },
    {
     "TimeMs": 115893,
     "Key": 76,
     "DurationMs": 194,
     "Vel": 96
    },
    {
     "TimeMs": 115893,
     "Key": 32,
     "DurationMs": 194,
     "Vel": 96
    },
    {
     "TimeMs": 115894,
     "Key": 44,
     "DurationMs": 194,
     "Vel": 96
    },
    {
     "TimeMs": 116095,
     "Key": 61,
     "DurationMs": 389,
     "Vel": 96
    },
    {
     "TimeMs": 116096,
     "Key": 73,
     "DurationMs": 389,
     "Vel": 96
    },
    {
     "TimeMs": 116097,
     "Key": 52,
     "DurationMs": 192,
     "Vel": 96
    },
    {
     "TimeMs": 116301,
     "Key": 56,
     "DurationMs": 194,
     "Vel": 96
    },
    {
     "TimeMs": 116302,
     "Key": 60,
     "DurationMs": 194,
     "Vel": 96
    },
    {
     "TimeMs": 116506,
     "Key": 61,
     "DurationMs": 194,
     "Vel": 96
    },
    {
     "TimeMs": 116507,
     "Key": 73,
     "DurationMs": 194,
     "Vel": 96
    },
    {
     "TimeMs": 116508,
     "Key": 52,
     "DurationMs": 194,
     "Vel": 96
    },
    {
     "TimeMs": 116712,
     "Key": 61,
     "DurationMs": 194,
     "Vel": 96
    },
    {
     "TimeMs": 116713,
     "Key": 64,
     "DurationMs": 194,
     "Vel": 96
    },
    {
     "TimeMs": 116714,
     "Key": 68,
     "DurationMs": 194,
     "Vel": 96
    },
    {
     "TimeMs": 116714,
     "Key": 73,
     "DurationMs": 194,
     "Vel": 96
    },
    {
     "TimeMs": 116715,
     "Key": 33,
     "DurationMs": 194,
     "Vel": 96
    },
    {
     "TimeMs": 116716,
     "Key": 45,
     "DurationMs": 194,
     "Vel": 96
    },
    {
     "TimeMs": 116917,
     "Key": 68,
     "DurationMs": 194,
     "Vel": 96
    },
    {
     "TimeMs": 116918,
     "Key": 80,
     "DurationMs": 194,
     "Vel": 96
    },
    {
     "TimeMs": 116919,
     "Key": 45,
     "DurationMs": 194,
     "Vel": 96
    },
    {
     "TimeMs": 117123,
     "Key": 68,
     "DurationMs": 194,
     "Vel": 96
    },
    {
     "TimeMs": 117124,
     "Key": 73,
     "DurationMs": 194,
     "Vel": 96
    },
    {
     "TimeMs": 117125,
     "Key": 76,
     "DurationMs": 194,
     "Vel": 96
    },
    {
     "TimeMs": 117125,
     "Key": 80,
     "DurationMs": 194,
     "Vel": 96
    },
    {
     "TimeMs": 117126,
     "Key": 49,
     "DurationMs": 194,
     "Vel": 96
    },
    {
     "TimeMs": 117127,
     "Key": 52,
     "DurationMs": 194,
     "Vel": 96
    },
    {
     "TimeMs": 117128,
     "Key": 57,
     "DurationMs": 194,
     "Vel": 96
    },
    {
     "TimeMs": 117328,
     "Key": 68,
     "DurationMs": 194,
     "Vel": 96
    },
    {
     "TimeMs": 117329,
     "Key": 73,
     "DurationMs": 194,
     "Vel": 96
    },
    {
     "TimeMs": 117330,
     "Key": 76,
     "DurationMs": 194,
     "Vel": 96
    },
    {
     "TimeMs": 117331,
     "Key": 80,
     "DurationMs": 194,
     "Vel": 96
    },
    {
     "TimeMs": 117332,
     "Key": 45,
     "DurationMs": 194,
     "Vel": 96
    },
    {
     "TimeMs": 117534,
     "Key": 73,
     "DurationMs": 194,
     "Vel": 96
    },
    {
     "TimeMs": 117535,
     "Key": 85,
     "DurationMs": 194,
     "Vel": 96
    },
    {
     "TimeMs": 117535,
     "Key": 35,
     "DurationMs": 194,
     "Vel": 96
    },
    {
     "TimeMs": 117536,
     "Key": 47,
     "DurationMs": 194,
     "Vel": 96
    },
    {
     "TimeMs": 117739,
     "Key": 71,
     "DurationMs": 194,
     "Vel": 96
    },
    {
     "TimeMs": 117740,
     "Key": 83,
     "DurationMs": 194,
     "Vel": 96
    },
    {
     "TimeMs": 117741,
     "Key": 59,
     "DurationMs": 95,
     "Vel": 96
    },
    {
     "TimeMs": 117842,
     "Key": 54,
     "DurationMs": 96,
     "Vel": 96
    },
    {
     "TimeMs": 117945,
     "Key": 69,
     "DurationMs": 194,
     "Vel": 96
    },
    {
     "TimeMs": 117946,
     "Key": 81,
     "DurationMs": 194,
     "Vel": 96
    },
    {
     "TimeMs": 117946,
     "Key": 51,
     "DurationMs": 95,
     "Vel": 96
    },
    {
     "TimeMs": 118047,
     "Key": 47,
     "DurationMs": 96,
     "Vel": 96
    },
    {
     "TimeMs": 118150,
     "Key": 68,
     "DurationMs": 194,
     "Vel": 96
    },
    {
     "TimeMs": 118151,
     "Key": 80,
     "DurationMs": 194,
     "Vel": 96
    },
    {
     "TimeMs": 118152,
     "Key": 42,
     "DurationMs": 95,
     "Vel": 96
    },
    {
     "TimeMs": 118253,
     "Key": 39,
     "DurationMs": 96,
     "Vel": 96
    },
    {
     "TimeMs": 118356,
     "Key": 61,
     "DurationMs": 410,
     "Vel": 96
    },
    {
     "TimeMs": 118357,
     "Key": 64,
     "DurationMs": 779,
     "Vel": 96
    },
    {
     "TimeMs": 118357,
     "Key": 68,
     "DurationMs": 779,
     "Vel": 96
    },
    {
     "TimeMs": 118358,
     "Key": 25,
     "DurationMs": 191,
     "Vel": 96
    },
    {
     "TimeMs": 118359,
     "Key": 37,
     "DurationMs": 191,
     "Vel": 96
    },
    {
     "TimeMs": 118561,
     "Key": 49,
     "DurationMs": 194,
     "Vel": 96
    },
    {
     "TimeMs": 118768,
     "Key": 52,
     "DurationMs": 193,
     "Vel": 96
    },
    {
     "TimeMs": 118768,
     "Key": 56,
     "DurationMs": 193,
     "Vel": 96
    },
    {
     "TimeMs": 118769,
     "Key": 61,
     "DurationMs": 368,
     "Vel": 96
    },
    {
     "TimeMs": 118972,
     "Key": 49,
     "DurationMs": 194,
     "Vel": 96
    },
    {
     "TimeMs": 119178,
     "Key": 64,
     "DurationMs": 194,
     "Vel": 96
    },
    {
     "TimeMs": 119178,
     "Key": 68,
     "DurationMs": 194,
     "Vel": 96
    },
    {
     "TimeMs": 119179,
     "Key": 72,
     "DurationMs": 194,
     "Vel": 96
    },
    {
     "TimeMs": 119180,
     "Key": 76,
     "DurationMs": 194,
     "Vel": 96
    },
    {
     "TimeMs": 119181,
     "Key": 32,
     "DurationMs": 194,
     "Vel": 96
    },
    {
     "TimeMs": 119182,
     "Key": 44,
     "DurationMs": 194,
     "Vel": 96
    },
    {
     "TimeMs": 119383,
     "Key": 61,
     "DurationMs": 389,
     "Vel": 96
    },
    {
     "TimeMs": 119384,
     "Key": 73,
     "DurationMs": 389,
     "Vel": 96
    },
    {
     "TimeMs": 119385,
     "Key": 52,
     "DurationMs": 192,
     "Vel": 96
    },
    {
     "TimeMs": 119589,
     "Key": 56,
     "DurationMs": 194,
     "Vel": 96
    },
    {
     "TimeMs": 119589,
     "Key": 60,
     "DurationMs": 194,
     "Vel": 96
    },
    {
     "TimeMs": 119794,
     "Key": 61,
     "DurationMs": 194,
     "Vel": 96
    },
    {
     "TimeMs": 119795,
     "Key": 64,
     "DurationMs": 194,
     "Vel": 96
    },
    {
     "TimeMs": 119796,
     "Key": 68,
     "DurationMs": 194,
     "Vel": 96
    },
    {
     "TimeMs": 119797,
     "Key": 73,
     "DurationMs": 194,
     "Vel": 96
    },
    {
     "TimeMs": 119797,
     "Key": 52,
     "DurationMs": 194,
     "Vel": 96
    },
    {
     "TimeMs": 120000,
     "Key": 61,
     "DurationMs": 194,
     "Vel": 96
    },
    {
     "TimeMs": 120000,
     "Key": 64,
     "DurationMs": 194,
     "Vel": 96
    },
    {
     "TimeMs": 120001,
     "Key": 68,
     "DurationMs": 194,
     "Vel": 96
    },
    {
     "TimeMs": 120002,
     "Key": 73,
     "DurationMs": 194,
     "Vel": 96
    },
    {
     "TimeMs": 120003,
     "Key": 25,
     "DurationMs": 194,
     "Vel": 96
    },
    {
     "TimeMs": 120004,
     "Key": 37,
     "DurationMs": 194,
     "Vel": 96
    },
    {
     "TimeMs": 120205,
     "Key": 68,
     "DurationMs": 194,
     "Vel": 96
    },
    {
     "TimeMs": 120206,
     "Key": 80,
     "DurationMs": 194,
     "Vel": 96
    },
    {
     "TimeMs": 120207,
     "Key": 49,
     "DurationMs": 194,
     "Vel": 96
    },
    {
     "TimeMs": 120410,
     "Key": 68,
     "DurationMs": 194,
     "Vel": 96
    },
    {
     "TimeMs": 120411,
     "Key": 80,
     "DurationMs": 194,
     "Vel": 96
    },
    {
     "TimeMs": 120412,
     "Key": 52,
     "DurationMs": 194,
     "Vel": 96
    },
    {
     "TimeMs": 120413,
     "Key": 56,
     "DurationMs": 194,
     "Vel": 96
    },
    {
     "TimeMs": 120616,
     "Key": 68,
     "DurationMs": 194,
     "Vel": 96
    },
    {
     "TimeMs": 120617,
     "Key": 73,
     "DurationMs": 194,
     "Vel": 96
    },
    {
     "TimeMs": 120618,
     "Key": 76,
     "DurationMs": 194,
     "Vel": 96
    },
    {
     "TimeMs": 120619,
     "Key": 80,
     "DurationMs": 194,
     "Vel": 96
    },
    {
     "TimeMs": 120619,
     "Key": 49,
     "DurationMs": 194,
     "Vel": 96
    },
    {
     "TimeMs": 120821,
     "Key": 68,
     "DurationMs": 389,
     "Vel": 96
    },
    {
     "TimeMs": 120822,
     "Key": 73,
     "DurationMs": 389,
     "Vel": 96
    },
    {
     "TimeMs": 120823,
     "Key": 76,
     "DurationMs": 389,
     "Vel": 96
    },
    {
     "TimeMs": 120824,
     "Key": 80,
     "DurationMs": 389,
     "Vel": 96
    },
    {
     "TimeMs": 120825,
     "Key": 32,
     "DurationMs": 190,
     "Vel": 96
    },
    {
     "TimeMs": 120826,
     "Key": 44,
     "DurationMs": 190,
     "Vel": 96
    },
    {
     "TimeMs": 121027,
     "Key": 52,
     "DurationMs": 194,
     "Vel": 96
    },
    {
     "TimeMs": 121232,
     "Key": 64,
     "DurationMs": 194,
     "Vel": 96
    },
    {
     "TimeMs": 121233,
     "Key": 76,
     "DurationMs": 194,
     "Vel": 96
    },
    {
     "TimeMs": 121234,
     "Key": 56,
     "DurationMs": 194,
     "Vel": 96
    },
    {
     "TimeMs": 121235,
     "Key": 59,
     "DurationMs": 194,
     "Vel": 96
    },
    {
     "TimeMs": 121438,
     "Key": 63,
     "DurationMs": 194,
     "Vel": 96
    },
    {
     "TimeMs": 121439,
     "Key": 75,
     "DurationMs": 194,
     "Vel": 96
    },
    {
     "TimeMs": 121440,
     "Key": 52,
     "DurationMs": 194,
     "Vel": 96
    },
    {
     "TimeMs": 121643,
     "Key": 61,
     "DurationMs": 389,
     "Vel": 96
    },
    {
     "TimeMs": 121644,
     "Key": 64,
     "DurationMs": 389,
     "Vel": 96
    },
    {
     "TimeMs": 121645,
     "Key": 68,
     "DurationMs": 389,
     "Vel": 96
    },
    {
     "TimeMs": 121646,
     "Key": 73,
     "DurationMs": 389,
     "Vel": 96
    },
    {
     "TimeMs": 121647,
     "Key": 33,
     "DurationMs": 190,
     "Vel": 96
    },
    {
     "TimeMs": 121648,
     "Key": 45,
     "DurationMs": 190,
     "Vel": 96
    },
    {
     "TimeMs": 121849,
     "Key": 45,
     "DurationMs": 194,
     "Vel": 96
    },
    {
     "TimeMs": 122054,
     "Key": 73,
     "DurationMs": 410,
     "Vel": 127
    },
    {
     "TimeMs": 122055,
     "Key": 85,
     "DurationMs": 410,
     "Vel": 127
    },
    {
     "TimeMs": 122056,
     "Key": 49,
     "DurationMs": 192,
     "Vel": 96
    },
    {
     "TimeMs": 122057,
     "Key": 52,
     "DurationMs": 192,
     "Vel": 96
    },
    {
     "TimeMs": 122058,
     "Key": 57,
     "DurationMs": 192,
     "Vel": 96
    },
    {
     "TimeMs": 122260,
     "Key": 45,
     "DurationMs": 194,
     "Vel": 96
    },
    {
     "TimeMs": 122466,
     "Key": 61,
     "DurationMs": 388,
     "Vel": 96
    },
    {
     "TimeMs": 122467,
     "Key": 66,
     "DurationMs": 388,
     "Vel": 96
    },
    {
     "TimeMs": 122468,
     "Key": 73,
     "DurationMs": 388,
     "Vel": 96
    },
    {
     "TimeMs": 122469,
     "Key": 35,
     "DurationMs": 190,
     "Vel": 96
    },
    {
     "TimeMs": 122470,
     "Key": 47,
     "DurationMs": 190,
     "Vel": 96
    },
    {
     "TimeMs": 122671,
     "Key": 47,
     "DurationMs": 194,
     "Vel": 96
    },
    {
     "TimeMs": 122876,
     "Key": 73,
     "DurationMs": 410,
     "Vel": 127
    },
    {
     "TimeMs": 122877,
     "Key": 78,
     "DurationMs": 410,
     "Vel": 127
    },
    {
     "TimeMs": 122878,
     "Key": 85,
     "DurationMs": 410,
     "Vel": 127
    },
    {
     "TimeMs": 122879,
     "Key": 51,
     "DurationMs": 191,
     "Vel": 96
    },
    {
     "TimeMs": 122880,
     "Key": 54,
     "DurationMs": 191,
     "Vel": 96
    },
    {
     "TimeMs": 122881,
     "Key": 59,
     "DurationMs": 191,
     "Vel": 96
    },
    {
     "TimeMs": 123082,
     "Key": 47,
     "DurationMs": 194,
     "Vel": 96
    },
    {
     "TimeMs": 123289,
     "Key": 61,
     "DurationMs": 192,
     "Vel": 96
    },
    {
     "TimeMs": 123290,
     "Key": 64,
     "DurationMs": 192,
     "Vel": 96
    },
    {
     "TimeMs": 123291,
     "Key": 68,
     "DurationMs": 192,
     "Vel": 96
    },
    {
     "TimeMs": 123291,
     "Key": 73,
     "DurationMs": 192,
     "Vel": 96
    },
    {
     "TimeMs": 123292,
     "Key": 37,
     "DurationMs": 192,
     "Vel": 96
    },
    {
     "TimeMs": 123293,
     "Key": 52,
     "DurationMs": 192,
     "Vel": 96
    },
    {
     "TimeMs": 123493,
     "Key": 73,
     "DurationMs": 194,
     "Vel": 96
    },
    {
     "TimeMs": 123494,
     "Key": 85,
     "DurationMs": 194,
     "Vel": 96
    },
    {
     "TimeMs": 123494,
     "Key": 49,
     "DurationMs": 95,
     "Vel": 96
    },
    {
     "TimeMs": 123595,
     "Key": 44,
     "DurationMs": 96,
     "Vel": 96
    },
    {
     "TimeMs": 123698,
     "Key": 73,
     "DurationMs": 194,
     "Vel": 96
    },
    {
     "TimeMs": 123699,
     "Key": 85,
     "DurationMs": 194,
     "Vel": 96
    },
    {
     "TimeMs": 123700,
     "Key": 40,
     "DurationMs": 95,
     "Vel": 96
    },
    {
     "TimeMs": 123801,
     "Key": 37,
     "DurationMs": 96,
     "Vel": 96
    },
    {
     "TimeMs": 123904,
     "Key": 73,
     "DurationMs": 194,
     "Vel": 96
    },
    {
     "TimeMs": 123904,
     "Key": 85,
     "DurationMs": 194,
     "Vel": 96
    },
    {
     "TimeMs": 123905,
     "Key": 32,
     "DurationMs": 194,
     "Vel": 96
    },
    {
     "TimeMs": 124109,
     "Key": 73,
     "DurationMs": 194,
     "Vel": 96
    },
    {
     "TimeMs": 124110,
     "Key": 76,
     "DurationMs": 194,
     "Vel": 96
    },
    {
     "TimeMs": 124111,
     "Key": 80,
     "DurationMs": 194,
     "Vel": 96
    },
    {
     "TimeMs": 124112,
     "Key": 85,
     "DurationMs": 194,
     "Vel": 96
    },
    {
     "TimeMs": 124113,
     "Key": 37,
     "DurationMs": 194,
     "Vel": 96
    },
    {
     "TimeMs": 124113,
     "Key": 49,
     "DurationMs": 194,
     "Vel": 96
    },
    {
     "TimeMs": 124315,
     "Key": 71,
     "DurationMs": 194,
     "Vel": 96
    },
    {
     "TimeMs": 124315,
     "Key": 83,
     "DurationMs": 194,
     "Vel": 96
    },
    {
     "TimeMs": 124316,
     "Key": 35,
     "DurationMs": 194,
     "Vel": 96
    },
    {
     "TimeMs": 124317,
     "Key": 47,
     "DurationMs": 194,
     "Vel": 96
    },
    {
     "TimeMs": 124520,
     "Key": 69,
     "DurationMs": 194,
     "Vel": 96
    },
    {
     "TimeMs": 124521,
     "Key": 81,
     "DurationMs": 194,
     "Vel": 96
    },
    {
     "TimeMs": 124522,
     "Key": 33,
     "DurationMs": 194,
     "Vel": 96
    },
    {
     "TimeMs": 124523,
     "Key": 45,
     "DurationMs": 194,
     "Vel": 96
    },
    {
     "TimeMs": 124726,
     "Key": 73,
     "DurationMs": 96,
     "Vel": 96
    },
    {
     "TimeMs": 124726,
     "Key": 85,
     "DurationMs": 96,
     "Vel": 96
    },
    {
     "TimeMs": 124727,
     "Key": 32,
     "DurationMs": 192,
     "Vel": 96
    },
    {
     "TimeMs": 124728,
     "Key": 44,
     "DurationMs": 192,
     "Vel": 96
    },
    {
     "TimeMs": 124828,
     "Key": 75,
     "DurationMs": 96,
     "Vel": 96
    },
    {
     "TimeMs": 124829,
     "Key": 87,
     "DurationMs": 96,
     "Vel": 96
    },
    {
     "TimeMs": 124931,
     "Key": 76,
     "DurationMs": 194,
     "Vel": 96
    },
    {
     "TimeMs": 124932,
     "Key": 88,
     "DurationMs": 194,
     "Vel": 96
    },
    {
     "TimeMs": 124933,
     "Key": 25,
     "DurationMs": 194,
     "Vel": 96
    },
    {
     "TimeMs": 124934,
     "Key": 37,
     "DurationMs": 194,
     "Vel": 96
    },
    {
     "TimeMs": 125137,
     "Key": 75,
     "DurationMs": 194,
     "Vel": 96
    },
    {
     "TimeMs": 125137,
     "Key": 87,
     "DurationMs": 194,
     "Vel": 96
    },
    {
     "TimeMs": 125138,
     "Key": 49,
     "DurationMs": 194,
     "Vel": 96
    },
    {
     "TimeMs": 125342,
     "Key": 78,
     "DurationMs": 194,
     "Vel": 96
    },
    {
     "TimeMs": 125343,
     "Key": 90,
     "DurationMs": 194,
     "Vel": 96
    },
    {
     "TimeMs": 125344,
     "Key": 52,
     "DurationMs": 194,
     "Vel": 96
    },
    {
     "TimeMs": 125345,
     "Key": 56,
     "DurationMs": 194,
     "Vel": 96
    },
    {
     "TimeMs": 125345,
     "Key": 61,
     "DurationMs": 194,
     "Vel": 96
    },
    {
     "TimeMs": 125547,
     "Key": 76,
     "DurationMs": 194,
     "Vel": 96
    },
    {
     "TimeMs": 125548,
     "Key": 88,
     "DurationMs": 194,
     "Vel": 96
    },
    {
     "TimeMs": 125549,
     "Key": 49,
     "DurationMs": 194,
     "Vel": 96
    },
    {
     "TimeMs": 125753,
     "Key": 80,
     "DurationMs": 194,
     "Vel": 96
    },
    {
     "TimeMs": 125754,
     "Key": 92,
     "DurationMs": 194,
     "Vel": 96
    },
    {
     "TimeMs": 125755,
     "Key": 32,
     "DurationMs": 194,
     "Vel": 96
    },
    {
     "TimeMs": 125756,
     "Key": 44,
     "DurationMs": 194,
     "Vel": 96
    },
    {
     "TimeMs": 125958,
     "Key": 78,
     "DurationMs": 194,
     "Vel": 96
    },
    {
     "TimeMs": 125959,
     "Key": 90,
     "DurationMs": 194,
     "Vel": 96
    },
    {
     "TimeMs": 125960,
     "Key": 52,
     "DurationMs": 194,
     "Vel": 96
    },
    {
     "TimeMs": 126164,
     "Key": 81,
     "DurationMs": 194,
     "Vel": 96
    },
    {
     "TimeMs": 126165,
     "Key": 93,
     "DurationMs": 194,
     "Vel": 96
    },
    {
     "TimeMs": 126166,
     "Key": 56,
     "DurationMs": 194,
     "Vel": 96
    },
    {
     "TimeMs": 126166,
     "Key": 60,
     "DurationMs": 194,
     "Vel": 96
    },
    {
     "TimeMs": 126369,
     "Key": 80,
     "DurationMs": 194,
     "Vel": 96
    },
    {
     "TimeMs": 126370,
     "Key": 92,
     "DurationMs": 194,
     "Vel": 96
    },
    {
     "TimeMs": 126371,
     "Key": 52,
     "DurationMs": 194,
     "Vel": 96
    },
    {
     "TimeMs": 126575,
     "Key": 78,
     "DurationMs": 194,
     "Vel": 96
    },
    {
     "TimeMs": 126576,
     "Key": 90,
     "DurationMs": 194,
     "Vel": 96
    },
    {
     "TimeMs": 126577,
     "Key": 25,
     "DurationMs": 194,
     "Vel": 96
    },
    {
     "TimeMs": 126577,
     "Key": 37,
     "DurationMs": 194,
     "Vel": 96
    },
    {
     "TimeMs": 126780,
     "Key": 80,
     "DurationMs": 194,
     "Vel": 96
    },
    {
     "TimeMs": 126781,
     "Key": 92,
     "DurationMs": 194,
     "Vel": 96
    },
    {
     "TimeMs": 126782,
     "Key": 49,
     "DurationMs": 194,
     "Vel": 96
    },
    {
     "TimeMs": 126986,
     "Key": 76,
     "DurationMs": 194,
     "Vel": 96
    },
    {
     "TimeMs": 126987,
     "Key": 88,
     "DurationMs": 194,
     "Vel": 96
    },
    {
     "TimeMs": 126988,
     "Key": 52,
     "DurationMs": 194,
     "Vel": 96
    },
    {
     "TimeMs": 126988,
     "Key": 56,
     "DurationMs": 194,
     "Vel": 96
    },
    {
     "TimeMs": 126989,
     "Key": 61,
     "DurationMs": 194,
     "Vel": 96
    },
    {
     "TimeMs": 127191,
     "Key": 75,
     "DurationMs": 194,
     "Vel": 96
    },
    {
     "TimeMs": 127192,
     "Key": 87,
     "DurationMs": 194,
     "Vel": 96
    },
    {
     "TimeMs": 127193,
     "Key": 49,
     "DurationMs": 194,
     "Vel": 96
    },
    {
     "TimeMs": 127397,
     "Key": 76,
     "DurationMs": 194,
     "Vel": 96
    },
    {
     "TimeMs": 127398,
     "Key": 88,
     "DurationMs": 194,
     "Vel": 96
    },
    {
     "TimeMs": 127399,
     "Key": 32,
     "DurationMs": 194,
     "Vel": 96
    },
    {
     "TimeMs": 127399,
     "Key": 44,
     "DurationMs": 194,
     "Vel": 96
    },
    {
     "TimeMs": 127602,
     "Key": 80,
     "DurationMs": 194,
     "Vel": 96
    },
    {
     "TimeMs": 127603,
     "Key": 92,
     "DurationMs": 194,
     "Vel": 96
    },
    {
     "TimeMs": 127604,
     "Key": 52,
     "DurationMs": 194,
     "Vel": 96
    },
    {
     "TimeMs": 127808,
     "Key": 75,
     "DurationMs": 194,
     "Vel": 96
    },
    {
     "TimeMs": 127809,
     "Key": 88,
     "DurationMs": 194,
     "Vel": 96
    },
    {
     "TimeMs": 127809,
     "Key": 56,
     "DurationMs": 194,
     "Vel": 96
    },
    {
     "TimeMs": 127810,
     "Key": 60,
     "DurationMs": 194,
     "Vel": 96
    },
    {
     "TimeMs": 128013,
     "Key": 80,
     "DurationMs": 194,
     "Vel": 96
    },
    {
     "TimeMs": 128014,
     "Key": 92,
     "DurationMs": 194,
     "Vel": 96
    },
    {
     "TimeMs": 128015,
     "Key": 52,
     "DurationMs": 194,
     "Vel": 96
    },
    {
     "TimeMs": 128219,
     "Key": 73,
     "DurationMs": 194,
     "Vel": 96
    },
    {
     "TimeMs": 128220,
     "Key": 85,
     "DurationMs": 194,
     "Vel": 96
    },
    {
     "TimeMs": 128220,
     "Key": 25,
     "DurationMs": 194,
     "Vel": 96
    },
    {
     "TimeMs": 128221,
     "Key": 37,
     "DurationMs": 194,
     "Vel": 96
    },
    {
     "TimeMs": 128424,
     "Key": 68,
     "DurationMs": 194,
     "Vel": 96
    },
    {
     "TimeMs": 128425,
     "Key": 80,
     "DurationMs": 194,
     "Vel": 96
    },
    {
     "TimeMs": 128426,
     "Key": 49,
     "DurationMs": 194,
     "Vel": 96
    },
    {
     "TimeMs": 128630,
     "Key": 73,
     "DurationMs": 194,
     "Vel": 96
    },
    {
     "TimeMs": 128631,
     "Key": 85,
     "DurationMs": 194,
     "Vel": 96
    },
    {
     "TimeMs": 128631,
     "Key": 52,
     "DurationMs": 194,
     "Vel": 96
    },
    {
     "TimeMs": 128632,
     "Key": 56,
     "DurationMs": 194,
     "Vel": 96
    },
    {
     "TimeMs": 128633,
     "Key": 61,
     "DurationMs": 194,
     "Vel": 96
    },
    {
     "TimeMs": 128835,
     "Key": 75,
     "DurationMs": 194,
     "Vel": 96
    },
    {
     "TimeMs": 128836,
     "Key": 87,
     "DurationMs": 194,
     "Vel": 96
    },
    {
     "TimeMs": 128837,
     "Key": 49,
     "DurationMs": 194,
     "Vel": 96
    },
    {
     "TimeMs": 129041,
     "Key": 76,
     "DurationMs": 194,
     "Vel": 96
    },
    {
     "TimeMs": 129041,
     "Key": 88,
     "DurationMs": 194,
     "Vel": 96
    },
    {
     "TimeMs": 129042,
     "Key": 32,
     "DurationMs": 194,
     "Vel": 96
    },
    {
     "TimeMs": 129043,
     "Key": 44,
     "DurationMs": 194,
     "Vel": 96
    },
    {
     "TimeMs": 129246,
     "Key": 68,
     "DurationMs": 194,
     "Vel": 96
    },
    {
     "TimeMs": 129247,
     "Key": 80,
     "DurationMs": 194,
     "Vel": 96
    },
    {
     "TimeMs": 129248,
     "Key": 52,
     "DurationMs": 194,
     "Vel": 96
    },
    {
     "TimeMs": 129452,
     "Key": 75,
     "DurationMs": 194,
     "Vel": 96
    },
    {
     "TimeMs": 129452,
     "Key": 87,
     "DurationMs": 194,
     "Vel": 96
    },
    {
     "TimeMs": 129453,
     "Key": 56,
     "DurationMs": 194,
     "Vel": 96
    },
    {
     "TimeMs": 129454,
     "Key": 60,
     "DurationMs": 194,
     "Vel": 96
    },
    {
     "TimeMs": 129657,
     "Key": 68,
     "DurationMs": 194,
     "Vel": 96
    },
    {
     "TimeMs": 129658,
     "Key": 80,
     "DurationMs": 194,
     "Vel": 96
    },
    {
     "TimeMs": 129659,
     "Key": 52,
     "DurationMs": 194,
     "Vel": 96
    },
    {
     "TimeMs": 129863,
     "Key": 73,
     "DurationMs": 194,
     "Vel": 96
    },
    {
     "TimeMs": 129863,
     "Key": 85,
     "DurationMs": 194,
     "Vel": 96
    },
    {
     "TimeMs": 129864,
     "Key": 37,
     "DurationMs": 194,
     "Vel": 96
    },
    {
     "TimeMs": 129865,
     "Key": 49,
     "DurationMs": 194,
     "Vel": 96
    },
    {
     "TimeMs": 130068,
     "Key": 68,
     "DurationMs": 194,
     "Vel": 96
    },
    {
     "TimeMs": 130069,
     "Key": 80,
     "DurationMs": 194,
     "Vel": 96
    },
    {
     "TimeMs": 130070,
     "Key": 49,
     "DurationMs": 194,
     "Vel": 96
    },
    {
     "TimeMs": 130274,
     "Key": 73,
     "DurationMs": 194,
     "Vel": 96
    },
    {
     "TimeMs": 130274,
     "Key": 85,
     "DurationMs": 194,
     "Vel": 96
    },
    {
     "TimeMs": 130275,
     "Key": 52,
     "DurationMs": 194,
     "Vel": 96
    },
    {
     "TimeMs": 130276,
     "Key": 56,
     "DurationMs": 194,
     "Vel": 96
    },
    {
     "TimeMs": 130277,
     "Key": 61,
     "DurationMs": 194,
     "Vel": 96
    },
    {
     "TimeMs": 130479,
     "Key": 68,
     "DurationMs": 194,
     "Vel": 96
    },
    {
     "TimeMs": 130480,
     "Key": 80,
     "DurationMs": 194,
     "Vel": 96
    },
    {
     "TimeMs": 130481,
     "Key": 49,
     "DurationMs": 194,
     "Vel": 96
    },
    {
     "TimeMs": 130684,
     "Key": 73,
     "DurationMs": 194,
     "Vel": 96
    },
    {
     "TimeMs": 130685,
     "Key": 85,
     "DurationMs": 194,
     "Vel": 96
    },
    {
     "TimeMs": 130686,
     "Key": 44,
     "DurationMs": 387,
     "Vel": 96
    },
    {
     "TimeMs": 130687,
     "Key": 56,
     "DurationMs": 387,
     "Vel": 96
    },
    {
     "TimeMs": 130890,
     "Key": 71,
     "DurationMs": 194,
     "Vel": 96
    },
    {
     "TimeMs": 130891,
     "Key": 83,
     "DurationMs": 194,
     "Vel": 96
    },
    {
     "TimeMs": 131095,
     "Key": 80,
     "DurationMs": 389,
     "Vel": 96
    },
    {
     "TimeMs": 131096,
     "Key": 57,
     "DurationMs": 193,
     "Vel": 96
    },
    {
     "TimeMs": 131301,
     "Key": 56,
     "DurationMs": 194,
     "Vel": 96
    },
    {
     "TimeMs": 131506,
     "Key": 88,
     "DurationMs": 389,
     "Vel": 64
    },
    {
     "TimeMs": 131507,
     "Key": 61,
     "DurationMs": 779,
     "Vel": 64
    },
    {
     "TimeMs": 131712,
     "Key": 68,
     "DurationMs": 194,
     "Vel": 64
    },
    {
     "TimeMs": 131917,
     "Key": 90,
     "DurationMs": 194,
     "Vel": 64
    },
    {
     "TimeMs": 131918,
     "Key": 64,
     "DurationMs": 194,
     "Vel": 64
    },
    {
     "TimeMs": 132123,
     "Key": 87,
     "DurationMs": 389,
     "Vel": 64
    },
    {
     "TimeMs": 132124,
     "Key": 68,
     "DurationMs": 193,
     "Vel": 64
    },
    {
     "TimeMs": 132328,
     "Key": 56,
     "DurationMs": 779,
     "Vel": 64
    },
    {
     "TimeMs": 132534,
     "Key": 88,
     "DurationMs": 389,
     "Vel": 64
    },
    {
     "TimeMs": 132535,
     "Key": 64,
     "DurationMs": 193,
     "Vel": 64
    },
    {
     "TimeMs": 132739,
     "Key": 60,
     "DurationMs": 194,
     "Vel": 64
    },
    {
     "TimeMs": 132945,
     "Key": 85,
     "DurationMs": 389,
     "Vel": 64
    },
    {
     "TimeMs": 132946,
     "Key": 64,
     "DurationMs": 193,
     "Vel": 64
    },
    {
     "TimeMs": 133150,
     "Key": 61,
     "DurationMs": 779,
     "Vel": 64
    },
    {
     "TimeMs": 133356,
     "Key": 87,
     "DurationMs": 389,
     "Vel": 64
    },
    {
     "TimeMs": 133357,
     "Key": 68,
     "DurationMs": 193,
     "Vel": 64
    },
    {
     "TimeMs": 133561,
     "Key": 64,
     "DurationMs": 194,
     "Vel": 64
    },
    {
     "TimeMs": 133767,
     "Key": 81,
     "DurationMs": 389,
     "Vel": 64
    },
    {
     "TimeMs": 133768,
     "Key": 68,
     "DurationMs": 193,
     "Vel": 64
    },
    {
     "TimeMs": 133972,
     "Key": 56,
     "DurationMs": 779,
     "Vel": 64
    },
    {
     "TimeMs": 134178,
     "Key": 80,
     "DurationMs": 389,
     "Vel": 64
    },
    {
     "TimeMs": 134178,
     "Key": 64,
     "DurationMs": 193,
     "Vel": 64
    },
    {
     "TimeMs": 134383,
     "Key": 60,
     "DurationMs": 194,
     "Vel": 64
    },
    {
     "TimeMs": 134589,
     "Key": 80,
     "DurationMs": 194,
     "Vel": 64
    },
    {
     "TimeMs": 134589,
     "Key": 64,
     "DurationMs": 194,
     "Vel": 64
    },
    {
     "TimeMs": 134794,
     "Key": 88,
     "DurationMs": 389,
     "Vel": 64
    },
    {
     "TimeMs": 134795,
     "Key": 61,
     "DurationMs": 779,
     "Vel": 64
    },
    {
     "TimeMs": 135000,
     "Key": 68,
     "DurationMs": 194,
     "Vel": 64
    },
    {
     "TimeMs": 135205,
     "Key": 90,
     "DurationMs": 194,
     "Vel": 64
    },
    {
     "TimeMs": 135206,
     "Key": 64,
     "DurationMs": 194,
     "Vel": 64
    },
    {
     "TimeMs": 135410,
     "Key": 87,
     "DurationMs": 389,
     "Vel": 64
    },
    {
     "TimeMs": 135411,
     "Key": 68,
     "DurationMs": 193,
     "Vel": 64
    },
    {
     "TimeMs": 135616,
     "Key": 56,
     "DurationMs": 779,
     "Vel": 64
    },
    {
     "TimeMs": 135821,
     "Key": 88,
     "DurationMs": 389,
     "Vel": 64
    },
    {
     "TimeMs": 135822,
     "Key": 64,
     "DurationMs": 193,
     "Vel": 64
    },
    {
     "TimeMs": 136027,
     "Key": 60,
     "DurationMs": 194,
     "Vel": 64
    },
    {
     "TimeMs": 136232,
     "Key": 85,
     "DurationMs": 389,
     "Vel": 64
    },
    {
     "TimeMs": 136233,
     "Key": 64,
     "DurationMs": 193,
     "Vel": 64
    },
    {
     "TimeMs": 136438,
     "Key": 57,
     "DurationMs": 779,
     "Vel": 64
    },
    {
     "TimeMs": 136643,
     "Key": 95,
     "DurationMs": 389,
     "Vel": 64
    },
    {
     "TimeMs": 136644,
     "Key": 64,
     "DurationMs": 193,
     "Vel": 64
    },
    {
     "TimeMs": 136849,
     "Key": 68,
     "DurationMs": 194,
     "Vel": 64
    },
    {
     "TimeMs": 137054,
     "Key": 97,
     "DurationMs": 584,
     "Vel": 64
    },
    {
     "TimeMs": 137055,
     "Key": 64,
     "DurationMs": 193,
     "Vel": 64
    },
    {
     "TimeMs": 137260,
     "Key": 59,
     "DurationMs": 779,
     "Vel": 64
    },
    {
     "TimeMs": 137465,
     "Key": 66,
     "DurationMs": 194,
     "Vel": 64
    },
    {
     "TimeMs": 137466,
     "Key": 71,
     "DurationMs": 194,
     "Vel": 64
    },
    {
     "TimeMs": 137671,
     "Key": 80,
     "DurationMs": 389,
     "Vel": 64
    },
    {
     "TimeMs": 137672,
     "Key": 63,
     "DurationMs": 193,
     "Vel": 64
    },
    {
     "TimeMs": 137672,
     "Key": 69,
     "DurationMs": 193,
     "Vel": 64
    },
    {
     "TimeMs": 137876,
     "Key": 68,
     "DurationMs": 194,
     "Vel": 64
    },
    {
     "TimeMs": 138082,
     "Key": 88,
     "DurationMs": 389,
     "Vel": 64
    },
    {
     "TimeMs": 138083,
     "Key": 61,
     "DurationMs": 779,
     "Vel": 64
    },
    {
     "TimeMs": 138287,
     "Key": 68,
     "DurationMs": 194,
     "Vel": 64
    },
    {
     "TimeMs": 138493,
     "Key": 90,
     "DurationMs": 194,
     "Vel": 64
    },
    {
     "TimeMs": 138494,
     "Key": 64,
     "DurationMs": 194,
     "Vel": 64
    },
    {
     "TimeMs": 138698,
     "Key": 87,
     "DurationMs": 389,
     "Vel": 64
    },
    {
     "TimeMs": 138699,
     "Key": 68,
     "DurationMs": 193,
     "Vel": 64
    },
    {
     "TimeMs": 138904,
     "Key": 56,
     "DurationMs": 779,
     "Vel": 64
    },
    {
     "TimeMs": 139109,
     "Key": 88,
     "DurationMs": 389,
     "Vel": 64
    },
    {
     "TimeMs": 139110,
     "Key": 64,
     "DurationMs": 193,
     "Vel": 64
    },
    {
     "TimeMs": 139315,
     "Key": 60,
     "DurationMs": 194,
     "Vel": 64
    },
    {
     "TimeMs": 139520,
     "Key": 85,
     "DurationMs": 389,
     "Vel": 64
    },
    {
     "TimeMs": 139521,
     "Key": 64,
     "DurationMs": 193,
     "Vel": 64
    },
    {
     "TimeMs": 139726,
     "Key": 61,
     "DurationMs": 779,
     "Vel": 64
    },
    {
     "TimeMs": 139931,
     "Key": 87,
     "DurationMs": 389,
     "Vel": 64
    },
    {
     "TimeMs": 139932,
     "Key": 68,
     "DurationMs": 193,
     "Vel": 64
    },
    {
     "TimeMs": 140137,
     "Key": 64,
     "DurationMs": 194,
     "Vel": 64
    },
    {
     "TimeMs": 140342,
     "Key": 81,
     "DurationMs": 389,
     "Vel": 64
    },
    {
     "TimeMs": 140343,
     "Key": 68,
     "DurationMs": 193,
     "Vel": 64
    },
    {
     "TimeMs": 140547,
     "Key": 56,
     "DurationMs": 779,
     "Vel": 64
    },
    {
     "TimeMs": 140753,
     "Key": 80,
     "DurationMs": 584,
     "Vel": 64
    },
    {
     "TimeMs": 140754,
     "Key": 64,
     "DurationMs": 193,
     "Vel": 64
    },
    {
     "TimeMs": 140958,
     "Key": 60,
     "DurationMs": 194,
     "Vel": 64
    },
    {
     "TimeMs": 141164,
     "Key": 64,
     "DurationMs": 194,
     "Vel": 64
    },
    {
     "TimeMs": 141369,
     "Key": 76,
     "DurationMs": 389,
     "Vel": 64
    },
    {
     "TimeMs": 141370,
     "Key": 61,
     "DurationMs": 193,
     "Vel": 64
    },
    {
     "TimeMs": 141371,
     "Key": 64,
     "DurationMs": 193,
     "Vel": 64
    },
    {
     "TimeMs": 141372,
     "Key": 68,
     "DurationMs": 193,
     "Vel": 64
    },
    {
     "TimeMs": 141575,
     "Key": 61,
     "DurationMs": 101,
     "Vel": 64
    },
    {
     "TimeMs": 141576,
     "Key": 64,
     "DurationMs": 101,
     "Vel": 64
    },
    {
     "TimeMs": 141577,
     "Key": 68,
     "DurationMs": 101,
     "Vel": 64
    },
    {
     "TimeMs": 141780,
     "Key": 80,
     "DurationMs": 194,
     "Vel": 64
    },
    {
     "TimeMs": 141986,
     "Key": 75,
     "DurationMs": 389,
     "Vel": 64
    },
    {
     "TimeMs": 141987,
     "Key": 56,
     "DurationMs": 193,
     "Vel": 64
    },
    {
     "TimeMs": 141988,
     "Key": 60,
     "DurationMs": 193,
     "Vel": 64
    },
    {
     "TimeMs": 141988,
     "Key": 64,
     "DurationMs": 193,
     "Vel": 64
    },
    {
     "TimeMs": 142191,
     "Key": 56,
     "DurationMs": 194,
     "Vel": 64
    },
    {
     "TimeMs": 142192,
     "Key": 60,
     "DurationMs": 194,
     "Vel": 64
    },
    {
     "TimeMs": 142193,
     "Key": 64,
     "DurationMs": 194,
     "Vel": 64
    },
    {
     "TimeMs": 142397,
     "Key": 80,
     "DurationMs": 389,
     "Vel": 64
    },
    {
     "TimeMs": 142398,
     "Key": 64,
     "DurationMs": 193,
     "Vel": 64
    },
    {
     "TimeMs": 142602,
     "Key": 56,
     "DurationMs": 194,
     "Vel": 64
    },
    {
     "TimeMs": 142808,
     "Key": 64,
     "DurationMs": 194,
     "Vel": 64
    },
    {
     "TimeMs": 142809,
     "Key": 68,
     "DurationMs": 194,
     "Vel": 64
    },
    {
     "TimeMs": 142809,
     "Key": 73,
     "DurationMs": 194,
     "Vel": 64
    },
    {
     "TimeMs": 142810,
     "Key": 49,
     "DurationMs": 194,
     "Vel": 64
    },
    {
     "TimeMs": 142811,
     "Key": 61,
     "DurationMs": 194,
     "Vel": 64
    },
    {
     "TimeMs": 143835,
     "Key": 86,
     "DurationMs": 96,
     "Vel": 64
    },
    {
     "TimeMs": 143836,
     "Key": 38,
     "DurationMs": 101,
     "Vel": 64
    },
    {
     "TimeMs": 143837,
     "Key": 50,
     "DurationMs": 101,
     "Vel": 64
    },
    {
     "TimeMs": 143938,
     "Key": 74,
     "DurationMs": 96,
     "Vel": 67
    },
    {
     "TimeMs": 144041,
     "Key": 84,
     "DurationMs": 96,
     "Vel": 71
    },
    {
     "TimeMs": 144041,
     "Key": 36,
     "DurationMs": 101,
     "Vel": 71
    },
    {
     "TimeMs": 144042,
     "Key": 48,
     "DurationMs": 101,
     "Vel": 71
    },
    {
     "TimeMs": 144143,
     "Key": 72,
     "DurationMs": 96,
     "Vel": 75
    },
    {
     "TimeMs": 144246,
     "Key": 82,
     "DurationMs": 96,
     "Vel": 79
    },
    {
     "TimeMs": 144247,
     "Key": 34,
     "DurationMs": 101,
     "Vel": 79
    },
    {
     "TimeMs": 144248,
     "Key": 46,
     "DurationMs": 101,
     "Vel": 79
    },
    {
     "TimeMs": 144349,
     "Key": 70,
     "DurationMs": 96,
     "Vel": 82
    },
    {
     "TimeMs": 144452,
     "Key": 81,
     "DurationMs": 96,
     "Vel": 86
    },
    {
     "TimeMs": 144452,
     "Key": 33,
     "DurationMs": 101,
     "Vel": 86
    },
    {
     "TimeMs": 144453,
     "Key": 45,
     "DurationMs": 101,
     "Vel": 86
    },
    {
     "TimeMs": 144554,
     "Key": 69,
     "DurationMs": 96,
     "Vel": 90
    },
    {
     "TimeMs": 144657,
     "Key": 62,
     "DurationMs": 779,
     "Vel": 96
    },
    {
     "TimeMs": 144658,
     "Key": 65,
     "DurationMs": 779,
     "Vel": 96
    },
    {
     "TimeMs": 144659,
     "Key": 74,
     "DurationMs": 779,
     "Vel": 96
    },
    {
     "TimeMs": 144660,
     "Key": 26,
     "DurationMs": 191,
     "Vel": 96
    },
    {
     "TimeMs": 144660,
     "Key": 38,
     "DurationMs": 191,
     "Vel": 96
    },
    {
     "TimeMs": 144863,
     "Key": 50,
     "DurationMs": 194,
     "Vel": 96
    },
    {
     "TimeMs": 145068,
     "Key": 53,
     "DurationMs": 194,
     "Vel": 96
    },
    {
     "TimeMs": 145069,
     "Key": 57,
     "DurationMs": 194,
     "Vel": 96
    },
    {
     "TimeMs": 145274,
     "Key": 50,
     "DurationMs": 194,
     "Vel": 96
    },
    {
     "TimeMs": 145479,
     "Key": 65,
     "DurationMs": 194,
     "Vel": 96
    },
    {
     "TimeMs": 145480,
     "Key": 69,
     "DurationMs": 194,
     "Vel": 96
    },
    {
     "TimeMs": 145481,
     "Key": 77,
     "DurationMs": 194,
     "Vel": 96
    },
    {
     "TimeMs": 145482,
     "Key": 24,
     "DurationMs": 194,
     "Vel": 96
    },
    {
     "TimeMs": 145482,
     "Key": 36,
     "DurationMs": 194,
     "Vel": 96
    },
    {
     "TimeMs": 145684,
     "Key": 62,
     "DurationMs": 389,
     "Vel": 96
    },
    {
     "TimeMs": 145685,
     "Key": 65,
     "DurationMs": 389,
     "Vel": 96
    },
    {
     "TimeMs": 145686,
     "Key": 74,
     "DurationMs": 389,
     "Vel": 96
    },
    {
     "TimeMs": 145687,
     "Key": 48,
     "DurationMs": 191,
     "Vel": 96
    },
    {
     "TimeMs": 145890,
     "Key": 52,
     "DurationMs": 194,
     "Vel": 96
    },
    {
     "TimeMs": 145891,
     "Key": 55,
     "DurationMs": 194,
     "Vel": 96
    },
    {
     "TimeMs": 146095,
     "Key": 62,
     "DurationMs": 194,
     "Vel": 96
    },
    {
     "TimeMs": 146096,
     "Key": 74,
     "DurationMs": 194,
     "Vel": 96
    },
    {
     "TimeMs": 146097,
     "Key": 48,
     "DurationMs": 194,
     "Vel": 96
    },
    {
     "TimeMs": 146301,
     "Key": 62,
     "DurationMs": 194,
     "Vel": 96
    },
    {
     "TimeMs": 146302,
     "Key": 65,
     "DurationMs": 194,
     "Vel": 96
    },
    {
     "TimeMs": 146303,
     "Key": 69,
     "DurationMs": 194,
     "Vel": 96
    },
    {
     "TimeMs": 146303,
     "Key": 74,
     "DurationMs": 194,
     "Vel": 96
    },
    {
     "TimeMs": 146304,
     "Key": 22,
     "DurationMs": 194,
     "Vel": 96
    },
    {
     "TimeMs": 146305,
     "Key": 34,
     "DurationMs": 194,
     "Vel": 96
    },
    {
     "TimeMs": 146506,
     "Key": 69,
     "DurationMs": 194,
     "Vel": 96
    },
    {
     "TimeMs": 146507,
     "Key": 74,
     "DurationMs": 194,
     "Vel": 96
    },
    {
     "TimeMs": 146508,
     "Key": 77,
     "DurationMs": 194,
     "Vel": 96
    },
    {
     "TimeMs": 146509,
     "Key": 81,
     "DurationMs": 194,
     "Vel": 96
    },
    {
     "TimeMs": 146510,
     "Key": 46,
     "DurationMs": 194,
     "Vel": 96
    },
    {
     "TimeMs": 146712,
     "Key": 69,
     "DurationMs": 194,
     "Vel": 96
    },
    {
     "TimeMs": 146713,
     "Key": 74,
     "DurationMs": 194,
     "Vel": 96
    },
    {
     "TimeMs": 146714,
     "Key": 77,
     "DurationMs": 194,
     "Vel": 96
    },
    {
     "TimeMs": 146714,
     "Key": 81,
     "DurationMs": 194,
     "Vel": 96
    },
    {
     "TimeMs": 146715,
     "Key": 53,
     "DurationMs": 194,
     "Vel": 96
    },
    {
     "TimeMs": 146716,
     "Key": 58,
     "DurationMs": 194,
     "Vel": 96
    },
    {
     "TimeMs": 146917,
     "Key": 69,
     "DurationMs": 194,
     "Vel": 96
    },
    {
     "TimeMs": 146918,
     "Key": 74,
     "DurationMs": 194,
     "Vel": 96
    },
    {
     "TimeMs": 146919,
     "Key": 77,
     "DurationMs": 194,
     "Vel": 96
    },
    {
     "TimeMs": 146920,
     "Key": 81,
     "DurationMs": 194,
     "Vel": 96
    },
    {
     "TimeMs": 146921,
     "Key": 46,
     "DurationMs": 194,
     "Vel": 96
    },
    {
     "TimeMs": 147123,
     "Key": 69,
     "DurationMs": 389,
     "Vel": 96
    },
    {
     "TimeMs": 147124,
     "Key": 72,
     "DurationMs": 389,
     "Vel": 96
    },
    {
     "TimeMs": 147125,
     "Key": 77,
     "DurationMs": 389,
     "Vel": 96
    },
    {
     "TimeMs": 147125,
     "Key": 81,
     "DurationMs": 389,
     "Vel": 96
    },
    {
     "TimeMs": 147126,
     "Key": 33,
     "DurationMs": 190,
     "Vel": 96
    },
    {
     "TimeMs": 147127,
     "Key": 45,
     "DurationMs": 190,
     "Vel": 96
    },
    {
     "TimeMs": 147328,
     "Key": 45,
     "DurationMs": 194,
     "Vel": 96
    },
    {
     "TimeMs": 147534,
     "Key": 65,
     "DurationMs": 194,
     "Vel": 96
    },
    {
     "TimeMs": 147535,
     "Key": 77,
     "DurationMs": 194,
     "Vel": 96
    },
    {
     "TimeMs": 147535,
     "Key": 53,
     "DurationMs": 194,
     "Vel": 96
    },
    {
     "TimeMs": 147536,
     "Key": 57,
     "DurationMs": 194,
     "Vel": 96
    },
    {
     "TimeMs": 147739,
     "Key": 64,
     "DurationMs": 194,
     "Vel": 96
    },
    {
     "TimeMs": 147740,
     "Key": 76,
     "DurationMs": 194,
     "Vel": 96
    },
    {
     "TimeMs": 147741,
     "Key": 45,
     "DurationMs": 194,
     "Vel": 96
    },
    {
     "TimeMs": 147945,
     "Key": 62,
     "DurationMs": 779,
     "Vel": 96
    },
    {
     "TimeMs": 147946,
     "Key": 65,
     "DurationMs": 779,
     "Vel": 96
    },
    {
     "TimeMs": 147946,
     "Key": 70,
     "DurationMs": 779,
     "Vel": 96
    },
    {
     "TimeMs": 147947,
     "Key": 74,
     "DurationMs": 779,
     "Vel": 96
    },
    {
     "TimeMs": 147948,
     "Key": 31,
     "DurationMs": 190,
     "Vel": 96
    },
    {
     "TimeMs": 147949,
     "Key": 43,
     "DurationMs": 190,
     "Vel": 96
    },
    {
     "TimeMs": 148150,
     "Key": 43,
     "DurationMs": 194,
     "Vel": 96
    },
    {
     "TimeMs": 148356,
     "Key": 50,
     "DurationMs": 194,
     "Vel": 96
    },
    {
     "TimeMs": 148357,
     "Key": 58,
     "DurationMs": 194,
     "Vel": 96
    },
    {
     "TimeMs": 148561,
     "Key": 43,
     "DurationMs": 194,
     "Vel": 96
    },
    {
     "TimeMs": 148767,
     "Key": 65,
     "DurationMs": 194,
     "Vel": 96
    },
    {
     "TimeMs": 148768,
     "Key": 69,
     "DurationMs": 194,
     "Vel": 96
    },
    {
     "TimeMs": 148768,
     "Key": 74,
     "DurationMs": 194,
     "Vel": 96
    },
    {
     "TimeMs": 148769,
     "Key": 77,
     "DurationMs": 194,
     "Vel": 96
    },
    {
     "TimeMs": 148770,
     "Key": 29,
     "DurationMs": 194,
     "Vel": 96
    },
    {
     "TimeMs": 148771,
     "Key": 41,
     "DurationMs": 194,
     "Vel": 96
    },
    {
     "TimeMs": 148972,
     "Key": 62,
     "DurationMs": 389,
     "Vel": 96
    },
    {
     "TimeMs": 148973,
     "Key": 65,
     "DurationMs": 389,
     "Vel": 96
    },
    {
     "TimeMs": 148974,
     "Key": 69,
     "DurationMs": 389,
     "Vel": 96
    },
    {
     "TimeMs": 148975,
     "Key": 74,
     "DurationMs": 389,
     "Vel": 96
    },
    {
     "TimeMs": 148976,
     "Key": 50,
     "DurationMs": 190,
     "Vel": 96
    },
    {
     "TimeMs": 149178,
     "Key": 53,
     "DurationMs": 194,
     "Vel": 96
    },
    {
     "TimeMs": 149178,
     "Key": 57,
     "DurationMs": 194,
     "Vel": 96
    },
    {
     "TimeMs": 149383,
     "Key": 62,
     "DurationMs": 194,
     "Vel": 96
    },
    {
     "TimeMs": 149384,
     "Key": 74,
     "DurationMs": 194,
     "Vel": 96
    },
    {
     "TimeMs": 149385,
     "Key": 50,
     "DurationMs": 194,
     "Vel": 96
    },
    {
     "TimeMs": 149589,
     "Key": 62,
     "DurationMs": 194,
     "Vel": 96
    },
    {
     "TimeMs": 149589,
     "Key": 67,
     "DurationMs": 194,
     "Vel": 96
    },
    {
     "TimeMs": 149590,
     "Key": 70,
     "DurationMs": 194,
     "Vel": 96
    },
    {
     "TimeMs": 149591,
     "Key": 74,
     "DurationMs": 194,
     "Vel": 96
    },
    {
     "TimeMs": 149592,
     "Key": 28,
     "DurationMs": 194,
     "Vel": 96
    },
    {
     "TimeMs": 149593,
     "Key": 40,
     "DurationMs": 194,
     "Vel": 96
    },
    {
     "TimeMs": 149794,
     "Key": 69,
     "DurationMs": 194,
     "Vel": 96
    },
    {
     "TimeMs": 149795,
     "Key": 74,
     "DurationMs": 194,
     "Vel": 96
    },
    {
     "TimeMs": 149796,
     "Key": 76,
     "DurationMs": 194,
     "Vel": 96
    },
    {
     "TimeMs": 149797,
     "Key": 81,
     "DurationMs": 194,
     "Vel": 96
    },
    {
     "TimeMs": 149797,
     "Key": 52,
     "DurationMs": 194,
     "Vel": 96
    },
    {
     "TimeMs": 150000,
     "Key": 69,
     "DurationMs": 194,
     "Vel": 96
    },
    {
     "TimeMs": 150000,
     "Key": 74,
     "DurationMs": 194,
     "Vel": 96
    },
    {
     "TimeMs": 150001,
     "Key": 76,
     "DurationMs": 194,
     "Vel": 96
    },
    {
     "TimeMs": 150002,
     "Key": 81,
     "DurationMs": 194,
     "Vel": 96
    },
    {
     "TimeMs": 150003,
     "Key": 55,
     "DurationMs": 194,
     "Vel": 96
    },
    {
     "TimeMs": 150004,
     "Key": 58,
     "DurationMs": 194,
     "Vel": 96
    },
    {
     "TimeMs": 150005,
     "Key": 62,
     "DurationMs": 194,
     "Vel": 96
    },
    {
     "TimeMs": 150205,
     "Key": 70,
     "DurationMs": 194,
     "Vel": 96
    },
    {
     "TimeMs": 150206,
     "Key": 76,
     "DurationMs": 194,
     "Vel": 96
    },
    {
     "TimeMs": 150207,
     "Key": 81,
     "DurationMs": 194,
     "Vel": 96
    },
    {
     "TimeMs": 150208,
     "Key": 52,
     "DurationMs": 194,
     "Vel": 96
    },
    {
     "TimeMs": 150410,
     "Key": 81,
     "DurationMs": 96,
     "Vel": 96
    },
    {
     "TimeMs": 150411,
     "Key": 33,
     "DurationMs": 193,
     "Vel": 96
    },
    {
     "TimeMs": 150412,
     "Key": 45,
     "DurationMs": 193,
     "Vel": 96
    },
    {
     "TimeMs": 150513,
     "Key": 82,
     "DurationMs": 96,
     "Vel": 96
    },
    {
     "TimeMs": 150616,
     "Key": 79,
     "DurationMs": 96,
     "Vel": 96
    },
    {
     "TimeMs": 150617,
     "Key": 45,
     "DurationMs": 193,
     "Vel": 96
    },
    {
     "TimeMs": 150719,
     "Key": 81,
     "DurationMs": 96,
     "Vel": 96
    },
    {
     "TimeMs": 150821,
     "Key": 77,
     "DurationMs": 96,
     "Vel": 96
    },
    {
     "TimeMs": 150822,
     "Key": 52,
     "DurationMs": 193,
     "Vel": 96
    },
    {
     "TimeMs": 150823,
     "Key": 57,
     "DurationMs": 193,
     "Vel": 96
    },
    {
     "TimeMs": 150924,
     "Key": 79,
     "DurationMs": 96,
     "Vel": 96
    },
    {
     "TimeMs": 151027,
     "Key": 76,
     "DurationMs": 96,
     "Vel": 96
    },
    {
     "TimeMs": 151028,
     "Key": 45,
     "DurationMs": 193,
     "Vel": 96
    },
    {
     "TimeMs": 151130,
     "Key": 77,
     "DurationMs": 96,
     "Vel": 96
    },
    {
     "TimeMs": 151232,
     "Key": 62,
     "DurationMs": 779,
     "Vel": 96
    },
    {
     "TimeMs": 151233,
     "Key": 65,
     "DurationMs": 779,
     "Vel": 96
    },
    {
     "TimeMs": 151234,
     "Key": 74,
     "DurationMs": 779,
     "Vel": 96
    },
    {
     "TimeMs": 151235,
     "Key": 26,
     "DurationMs": 191,
     "Vel": 96
    },
    {
     "TimeMs": 151236,
     "Key": 38,
     "DurationMs": 191,
     "Vel": 96
    },
    {
     "TimeMs": 151438,
     "Key": 50,
     "DurationMs": 194,
     "Vel": 96
    },
    {
     "TimeMs": 151643,
     "Key": 53,
     "DurationMs": 194,
     "Vel": 96
    },
    {
     "TimeMs": 151644,
     "Key": 57,
     "DurationMs": 194,
     "Vel": 96
    },
    {
     "TimeMs": 151849,
     "Key": 50,
     "DurationMs": 194,
     "Vel": 96
    },
    {
     "TimeMs": 152054,
     "Key": 65,
     "DurationMs": 194,
     "Vel": 96
    },
    {
     "TimeMs": 152055,
     "Key": 69,
     "DurationMs": 194,
     "Vel": 96
    },
    {
     "TimeMs": 152056,
     "Key": 74,
     "DurationMs": 194,
     "Vel": 96
    },
    {
     "TimeMs": 152057,
     "Key": 77,
     "DurationMs": 194,
     "Vel": 96
    },
    {
     "TimeMs": 152058,
     "Key": 24,
     "DurationMs": 194,
     "Vel": 96
    },
    {
     "TimeMs": 152059,
     "Key": 36,
     "DurationMs": 194,
     "Vel": 96
    },
    {
     "TimeMs": 152260,
     "Key": 62,
     "DurationMs": 389,
     "Vel": 96
    },
    {
     "TimeMs": 152261,
     "Key": 65,
     "DurationMs": 389,
     "Vel": 96
    },
    {
     "TimeMs": 152262,
     "Key": 74,
     "DurationMs": 389,
     "Vel": 96
    },
    {
     "TimeMs": 152262,
     "Key": 48,
     "DurationMs": 191,
     "Vel": 96
    },
    {
     "TimeMs": 152465,
     "Key": 52,
     "DurationMs": 194,
     "Vel": 96
    },
    {
     "TimeMs": 152466,
     "Key": 55,
     "DurationMs": 194,
     "Vel": 96
    },
    {
     "TimeMs": 152671,
     "Key": 62,
     "DurationMs": 194,
     "Vel": 96
    },
    {
     "TimeMs": 152672,
     "Key": 74,
     "DurationMs": 194,
     "Vel": 96
    },
    {
     "TimeMs": 152672,
     "Key": 48,
     "DurationMs": 194,
     "Vel": 96
    },
    {
     "TimeMs": 152876,
     "Key": 62,
     "DurationMs": 194,
     "Vel": 96
    },
    {
     "TimeMs": 152877,
     "Key": 65,
     "DurationMs": 194,
     "Vel": 96
    },
    {
     "TimeMs": 152878,
     "Key": 69,
     "DurationMs": 194,
     "Vel": 96
    },
    {
     "TimeMs": 152879,
     "Key": 74,
     "DurationMs": 194,
     "Vel": 96
    },
    {
     "TimeMs": 152880,
     "Key": 22,
     "DurationMs": 194,
     "Vel": 96
    },
    {
     "TimeMs": 152881,
     "Key": 34,
     "DurationMs": 194,
     "Vel": 96
    },
    {
     "TimeMs": 153082,
     "Key": 69,
     "DurationMs": 194,
     "Vel": 96
    },
    {
     "TimeMs": 153083,
     "Key": 74,
     "DurationMs": 194,
     "Vel": 96
    },
    {
     "TimeMs": 153083,
     "Key": 77,
     "DurationMs": 194,
     "Vel": 96
    },
    {
     "TimeMs": 153084,
     "Key": 81,
     "DurationMs": 194,
     "Vel": 96
    },
    {
     "TimeMs": 153085,
     "Key": 46,
     "DurationMs": 194,
     "Vel": 96
    },
    {
     "TimeMs": 153287,
     "Key": 69,
     "DurationMs": 194,
     "Vel": 96
    },
    {
     "TimeMs": 153288,
     "Key": 74,
     "DurationMs": 194,
     "Vel": 96
    },
    {
     "TimeMs": 153289,
     "Key": 77,
     "DurationMs": 194,
     "Vel": 96
    },
    {
     "TimeMs": 153290,
     "Key": 81,
     "DurationMs": 194,
     "Vel": 96
    },
    {
     "TimeMs": 153291,
     "Key": 53,
     "DurationMs": 194,
     "Vel": 96
    },
    {
     "TimeMs": 153291,
     "Key": 58,
     "DurationMs": 194,
     "Vel": 96
    },
    {
     "TimeMs": 153493,
     "Key": 69,
     "DurationMs": 194,
     "Vel": 96
    },
    {
     "TimeMs": 153494,
     "Key": 74,
     "DurationMs": 194,
     "Vel": 96
    },
    {
     "TimeMs": 153494,
     "Key": 77,
     "DurationMs": 194,
     "Vel": 96
    },
    {
     "TimeMs": 153495,
     "Key": 81,
     "DurationMs": 194,
     "Vel": 96
    },
    {
     "TimeMs": 153496,
     "Key": 46,
     "DurationMs": 194,
     "Vel": 96
    },
    {
     "TimeMs": 153698,
     "Key": 69,
     "DurationMs": 389,
     "Vel": 96
    },
    {
     "TimeMs": 153699,
     "Key": 72,
     "DurationMs": 389,
     "Vel": 96
    },
    {
     "TimeMs": 153700,
     "Key": 77,
     "DurationMs": 389,
     "Vel": 96
    },
    {
     "TimeMs": 153701,
     "Key": 81,
     "DurationMs": 389,
     "Vel": 96
    },
    {
     "TimeMs": 153702,
     "Key": 33,
     "DurationMs": 190,
     "Vel": 96
    },
    {
     "TimeMs": 153702,
     "Key": 45,
     "DurationMs": 190,
     "Vel": 96
    },
    {
     "TimeMs": 153904,
     "Key": 45,
     "DurationMs": 194,
     "Vel": 96
    },
    {
     "TimeMs": 154109,
     "Key": 65,
     "DurationMs": 194,
     "Vel": 96
    },
    {
     "TimeMs": 154110,
     "Key": 77,
     "DurationMs": 194,
     "Vel": 96
    },
    {
     "TimeMs": 154111,
     "Key": 53,
     "DurationMs": 194,
     "Vel": 96
    },
    {
     "TimeMs": 154112,
     "Key": 57,
     "DurationMs": 194,
     "Vel": 96
    },
    {
     "TimeMs": 154315,
     "Key": 64,
     "DurationMs": 194,
     "Vel": 96
    },
    {
     "TimeMs": 154315,
     "Key": 76,
     "DurationMs": 194,
     "Vel": 96
    },
    {
     "TimeMs": 154316,
     "Key": 45,
     "DurationMs": 194,
     "Vel": 96
    },
    {
     "TimeMs": 154520,
     "Key": 62,
     "DurationMs": 389,
     "Vel": 96
    },
    {
     "TimeMs": 154521,
     "Key": 65,
     "DurationMs": 389,
     "Vel": 96
    },
    {
     "TimeMs": 154522,
     "Key": 70,
     "DurationMs": 389,
     "Vel": 96
    },
    {
     "TimeMs": 154523,
     "Key": 74,
     "DurationMs": 389,
     "Vel": 96
    },
    {
     "TimeMs": 154524,
     "Key": 31,
     "DurationMs": 190,
     "Vel": 96
    },
    {
     "TimeMs": 154524,
     "Key": 43,
     "DurationMs": 190,
     "Vel": 96
    },
    {
     "TimeMs": 154726,
     "Key": 43,
     "DurationMs": 194,
     "Vel": 96
    },
    {
     "TimeMs": 154931,
     "Key": 74,
     "DurationMs": 410,
     "Vel": 127
    },
    {
     "TimeMs": 154932,
     "Key": 77,
     "DurationMs": 410,
     "Vel": 127
    },
    {
     "TimeMs": 154933,
     "Key": 82,
     "DurationMs": 410,
     "Vel": 127
    },
    {
     "TimeMs": 154934,
     "Key": 86,
     "DurationMs": 410,
     "Vel": 127
    },
    {
     "TimeMs": 154934,
     "Key": 50,
     "DurationMs": 190,
     "Vel": 96
    },
    {
     "TimeMs": 154935,
     "Key": 58,
     "DurationMs": 190,
     "Vel": 96
    },
    {
     "TimeMs": 155137,
     "Key": 43,
     "DurationMs": 194,
     "Vel": 96
    },
    {
     "TimeMs": 155345,
     "Key": 62,
     "DurationMs": 386,
     "Vel": 96
    },
    {
     "TimeMs": 155345,
     "Key": 67,
     "DurationMs": 386,
     "Vel": 96
    },
    {
     "TimeMs": 155346,
     "Key": 69,
     "DurationMs": 386,
     "Vel": 96
    },
    {
     "TimeMs": 155347,
     "Key": 74,
     "DurationMs": 386,
     "Vel": 96
    },
    {
     "TimeMs": 155348,
     "Key": 33,
     "DurationMs": 188,
     "Vel": 96
    },
    {
     "TimeMs": 155349,
     "Key": 45,
     "DurationMs": 188,
     "Vel": 96
    },
    {
     "TimeMs": 155547,
     "Key": 45,
     "DurationMs": 194,
     "Vel": 96
    },
    {
     "TimeMs": 155753,
     "Key": 74,
     "DurationMs": 410,
     "Vel": 127
    },
    {
     "TimeMs": 155754,
     "Key": 79,
     "DurationMs": 410,
     "Vel": 127
    },
    {
     "TimeMs": 155755,
     "Key": 81,
     "DurationMs": 410,
     "Vel": 127
    },
    {
     "TimeMs": 155756,
     "Key": 86,
     "DurationMs": 410,
     "Vel": 127
    },
    {
     "TimeMs": 155756,
     "Key": 52,
     "DurationMs": 190,
     "Vel": 96
    },
    {
     "TimeMs": 155757,
     "Key": 57,
     "DurationMs": 190,
     "Vel": 96
    },
    {
     "TimeMs": 155958,
     "Key": 45,
     "DurationMs": 194,
     "Vel": 96
    },
    {
     "TimeMs": 156166,
     "Key": 62,
     "DurationMs": 191,
     "Vel": 96
    },
    {
     "TimeMs": 156167,
     "Key": 65,
     "DurationMs": 191,
     "Vel": 96
    },
    {
     "TimeMs": 156168,
     "Key": 69,
     "DurationMs": 191,
     "Vel": 96
    },
    {
     "TimeMs": 156169,
     "Key": 74,
     "DurationMs": 191,
     "Vel": 96
    },
    {
     "TimeMs": 156170,
     "Key": 26,
     "DurationMs": 191,
     "Vel": 96
    },
    {
     "TimeMs": 156171,
     "Key": 38,
     "DurationMs": 191,
     "Vel": 96
    },
    {
     "TimeMs": 156369,
     "Key": 74,
     "DurationMs": 194,
     "Vel": 96
    },
    {
     "TimeMs": 156370,
     "Key": 77,
     "DurationMs": 194,
     "Vel": 96
    },
    {
     "TimeMs": 156371,
     "Key": 81,
     "DurationMs": 194,
     "Vel": 96
    },
    {
     "TimeMs": 156372,
     "Key": 86,
     "DurationMs": 194,
     "Vel": 96
    },
    {
     "TimeMs": 156373,
     "Key": 45,
     "DurationMs": 194,
     "Vel": 96
    },
    {
     "TimeMs": 156374,
     "Key": 57,
     "DurationMs": 194,
     "Vel": 96
    },
    {
     "TimeMs": 156575,
     "Key": 74,
     "DurationMs": 194,
     "Vel": 96
    },
    {
     "TimeMs": 156576,
     "Key": 77,
     "DurationMs": 194,
     "Vel": 96
    },
    {
     "TimeMs": 156577,
     "Key": 81,
     "DurationMs": 194,
     "Vel": 96
    },
    {
     "TimeMs": 156577,
     "Key": 86,
     "DurationMs": 194,
     "Vel": 96
    },
    {
     "TimeMs": 156578,
     "Key": 46,
     "DurationMs": 194,
     "Vel": 96
    },
    {
     "TimeMs": 156579,
     "Key": 58,
     "DurationMs": 194,
     "Vel": 96
    },
    {
     "TimeMs": 156780,
     "Key": 74,
     "DurationMs": 194,
     "Vel": 96
    },
    {
     "TimeMs": 156781,
     "Key": 77,
     "DurationMs": 194,
     "Vel": 96
    },
    {
     "TimeMs": 156782,
     "Key": 81,
     "DurationMs": 194,
     "Vel": 96
    },
    {
     "TimeMs": 156783,
     "Key": 86,
     "DurationMs": 194,
     "Vel": 96
    },
    {
     "TimeMs": 156784,
     "Key": 43,
     "DurationMs": 194,
     "Vel": 96
    },
    {
     "TimeMs": 156785,
     "Key": 55,
     "DurationMs": 194,
     "Vel": 96
    },
    {
     "TimeMs": 156986,
     "Key": 74,
     "DurationMs": 389,
     "Vel": 96
    },
    {
     "TimeMs": 156987,
     "Key": 77,
     "DurationMs": 389,
     "Vel": 96
    },
    {
     "TimeMs": 156988,
     "Key": 81,
     "DurationMs": 389,
     "Vel": 96
    },
    {
     "TimeMs": 156988,
     "Key": 86,
     "DurationMs": 389,
     "Vel": 96
    },
    {
     "TimeMs": 156989,
     "Key": 45,
     "DurationMs": 190,
     "Vel": 96
    },
    {
     "TimeMs": 156990,
     "Key": 57,
     "DurationMs": 190,
     "Vel": 96
    },
    {
     "TimeMs": 157191,
     "Key": 41,
     "DurationMs": 194,
     "Vel": 96
    },
    {
     "TimeMs": 157192,
     "Key": 53,
     "DurationMs": 194,
     "Vel": 96
    },
    {
     "TimeMs": 157397,
     "Key": 69,
     "DurationMs": 389,
     "Vel": 96
    },
    {
     "TimeMs": 157398,
     "Key": 74,
     "DurationMs": 389,
     "Vel": 96
    },
    {
     "TimeMs": 157399,
     "Key": 77,
     "DurationMs": 389,
     "Vel": 96
    },
    {
     "TimeMs": 157399,
     "Key": 81,
     "DurationMs": 389,
     "Vel": 96
    },
    {
     "TimeMs": 157400,
     "Key": 43,
     "DurationMs": 190,
     "Vel": 96
    },
    {
     "TimeMs": 157401,
     "Key": 55,
     "DurationMs": 190,
     "Vel": 96
    },
    {
     "TimeMs": 157602,
     "Key": 40,
     "DurationMs": 194,
     "Vel": 96
    },
    {
     "TimeMs": 157603,
     "Key": 52,
     "DurationMs": 194,
     "Vel": 96
    },
    {
     "TimeMs": 157808,
     "Key": 62,
     "DurationMs": 194,
     "Vel": 96
    },
    {
     "TimeMs": 157809,
     "Key": 65,
     "DurationMs": 194,
     "Vel": 96
    },
    {
     "TimeMs": 157809,
     "Key": 69,
     "DurationMs": 194,
     "Vel": 96
    },
    {
     "TimeMs": 157810,
     "Key": 74,
     "DurationMs": 194,
     "Vel": 96
    },
    {
     "TimeMs": 157811,
     "Key": 26,
     "DurationMs": 194,
     "Vel": 96
    },
    {
     "TimeMs": 157812,
     "Key": 38,
     "DurationMs": 194,
     "Vel": 96
    },
    {
     "TimeMs": 158013,
     "Key": 69,
     "DurationMs": 389,
     "Vel": 96
    },
    {
     "TimeMs": 158014,
     "Key": 81,
     "DurationMs": 389,
     "Vel": 96
    },
    {
     "TimeMs": 158015,
     "Key": 50,
     "DurationMs": 192,
     "Vel": 96
    },
    {
     "TimeMs": 158219,
     "Key": 53,
     "DurationMs": 194,
     "Vel": 96
    },
    {
     "TimeMs": 158220,
     "Key": 57,
     "DurationMs": 194,
     "Vel": 96
    },
    {
     "TimeMs": 158424,
     "Key": 70,
     "DurationMs": 389,
     "Vel": 96
    },
    {
     "TimeMs": 158425,
     "Key": 82,
     "DurationMs": 389,
     "Vel": 96
    },
    {
     "TimeMs": 158426,
     "Key": 50,
     "DurationMs": 192,
     "Vel": 96
    },
    {
     "TimeMs": 158630,
     "Key": 24,
     "DurationMs": 194,
     "Vel": 96
    },
    {
     "TimeMs": 158631,
     "Key": 36,
     "DurationMs": 194,
     "Vel": 96
    },
    {
     "TimeMs": 158835,
     "Key": 67,
     "DurationMs": 389,
     "Vel": 96
    },
    {
     "TimeMs": 158836,
     "Key": 79,
     "DurationMs": 389,
     "Vel": 96
    },
    {
     "TimeMs": 158837,
     "Key": 48,
     "DurationMs": 192,
     "Vel": 96
    },
    {
     "TimeMs": 159041,
     "Key": 52,
     "DurationMs": 194,
     "Vel": 96
    },
    {
     "TimeMs": 159041,
     "Key": 55,
     "DurationMs": 194,
     "Vel": 96
    },
    {
     "TimeMs": 159042,
     "Key": 60,
     "DurationMs": 194,
     "Vel": 96
    },
    {
     "TimeMs": 159246,
     "Key": 69,
     "DurationMs": 194,
     "Vel": 96
    },
    {
     "TimeMs": 159247,
     "Key": 81,
     "DurationMs": 194,
     "Vel": 96
    },
    {
     "TimeMs": 159248,
     "Key": 48,
     "DurationMs": 194,
     "Vel": 96
    },
    {
     "TimeMs": 159452,
     "Key": 62,
     "DurationMs": 194,
     "Vel": 96
    },
    {
     "TimeMs": 159452,
     "Key": 65,
     "DurationMs": 194,
     "Vel": 96
    },
    {
     "TimeMs": 159453,
     "Key": 69,
     "DurationMs": 194,
     "Vel": 96
    },
    {
     "TimeMs": 159454,
     "Key": 74,
     "DurationMs": 194,
     "Vel": 96
    },
    {
     "TimeMs": 159455,
     "Key": 34,
     "DurationMs": 194,
     "Vel": 96
    },
    {
     "TimeMs": 159456,
     "Key": 46,
     "DurationMs": 194,
     "Vel": 96
    },
    {
     "TimeMs": 159657,
     "Key": 69,
     "DurationMs": 389,
     "Vel": 96
    },
    {
     "TimeMs": 159658,
     "Key": 81,
     "DurationMs": 389,
     "Vel": 96
    },
    {
     "TimeMs": 159659,
     "Key": 46,
     "DurationMs": 192,
     "Vel": 96
    },
    {
     "TimeMs": 159863,
     "Key": 53,
     "DurationMs": 194,
     "Vel": 96
    },
    {
     "TimeMs": 159863,
     "Key": 58,
     "DurationMs": 194,
     "Vel": 96
    },
    {
     "TimeMs": 160068,
     "Key": 70,
     "DurationMs": 389,
     "Vel": 96
    },
    {
     "TimeMs": 160069,
     "Key": 82,
     "DurationMs": 389,
     "Vel": 96
    },
    {
     "TimeMs": 160070,
     "Key": 46,
     "DurationMs": 192,
     "Vel": 96
    },
    {
     "TimeMs": 160274,
     "Key": 33,
     "DurationMs": 194,
     "Vel": 96
    },
    {
     "TimeMs": 160274,
     "Key": 45,
     "DurationMs": 194,
     "Vel": 96
    },
    {
     "TimeMs": 160479,
     "Key": 67,
     "DurationMs": 389,
     "Vel": 96
    },
    {
     "TimeMs": 160480,
     "Key": 79,
     "DurationMs": 389,
     "Vel": 96
    },
    {
     "TimeMs": 160481,
     "Key": 45,
     "DurationMs": 192,
     "Vel": 96
    },
    {
     "TimeMs": 160684,
     "Key": 53,
     "DurationMs": 194,
     "Vel": 96
    },
    {
     "TimeMs": 160685,
     "Key": 57,
     "DurationMs": 194,
     "Vel": 96
    },
    {
     "TimeMs": 160890,
     "Key": 69,
     "DurationMs": 194,
     "Vel": 96
    },
    {
     "TimeMs": 160891,
     "Key": 81,
     "DurationMs": 194,
     "Vel": 96
    },
    {
     "TimeMs": 160892,
     "Key": 45,
     "DurationMs": 194,
     "Vel": 96
    },
    {
     "TimeMs": 161095,
     "Key": 62,
     "DurationMs": 194,
     "Vel": 96
    },
    {
     "TimeMs": 161096,
     "Key": 65,
     "DurationMs": 194,
     "Vel": 96
    },
    {
     "TimeMs": 161097,
     "Key": 70,
     "DurationMs": 194,
     "Vel": 96
    },
    {
     "TimeMs": 161098,
     "Key": 74,
     "DurationMs": 194,
     "Vel": 96
    },
    {
     "TimeMs": 161099,
     "Key": 31,
     "DurationMs": 194,
     "Vel": 96
    },
    {
     "TimeMs": 161100,
     "Key": 43,
     "DurationMs": 194,
     "Vel": 96
    },
    {
     "TimeMs": 161301,
     "Key": 69,
     "DurationMs": 389,
     "Vel": 96
    },
    {
     "TimeMs": 161302,
     "Key": 81,
     "DurationMs": 389,
     "Vel": 96
    },
    {
     "TimeMs": 161303,
     "Key": 43,
     "DurationMs": 192,
     "Vel": 96
    },
    {
     "TimeMs": 161506,
     "Key": 50,
     "DurationMs": 194,
     "Vel": 96
    },
    {
     "TimeMs": 161507,
     "Key": 58,
     "DurationMs": 194,
     "Vel": 96
    },
    {
     "TimeMs": 161712,
     "Key": 70,
     "DurationMs": 389,
     "Vel": 96
    },
    {
     "TimeMs": 161713,
     "Key": 82,
     "DurationMs": 389,
     "Vel": 96
    },
    {
     "TimeMs": 161714,
     "Key": 43,
     "DurationMs": 192,
     "Vel": 96
    },
    {
     "TimeMs": 161917,
     "Key": 29,
     "DurationMs": 194,
     "Vel": 96
    },
    {
     "TimeMs": 161918,
     "Key": 41,
     "DurationMs": 194,
     "Vel": 96
    },
    {
     "TimeMs": 162123,
     "Key": 67,
     "DurationMs": 389,
     "Vel": 96
    },
    {
     "TimeMs": 162124,
     "Key": 79,
     "DurationMs": 389,
     "Vel": 96
    },
    {
     "TimeMs": 162125,
     "Key": 50,
     "DurationMs": 192,
     "Vel": 96
    },
    {
     "TimeMs": 162328,
     "Key": 53,
     "DurationMs": 194,
     "Vel": 96
    },
    {
     "TimeMs": 162329,
     "Key": 57,
     "DurationMs": 194,
     "Vel": 96
    },
    {
     "TimeMs": 162534,
     "Key": 69,
     "DurationMs": 389,
     "Vel": 96
    },
    {
     "TimeMs": 162535,
     "Key": 81,
     "DurationMs": 389,
     "Vel": 96
    },
    {
     "TimeMs": 162535,
     "Key": 50,
     "DurationMs": 192,
     "Vel": 96
    },
    {
     "TimeMs": 162739,
     "Key": 28,
     "DurationMs": 194,
     "Vel": 96
    },
    {
     "TimeMs": 162740,
     "Key": 40,
     "DurationMs": 194,
     "Vel": 96
    },
    {
     "TimeMs": 162945,
     "Key": 65,
     "DurationMs": 389,
     "Vel": 96
    },
    {
     "TimeMs": 162946,
     "Key": 77,
     "DurationMs": 389,
     "Vel": 96
    },
    {
     "TimeMs": 162946,
     "Key": 52,
     "DurationMs": 192,
     "Vel": 96
    },
    {
     "TimeMs": 163150,
     "Key": 55,
     "DurationMs": 194,
     "Vel": 96
    },
    {
     "TimeMs": 163151,
     "Key": 58,
     "DurationMs": 194,
     "Vel": 96
    },
    {
     "TimeMs": 163152,
     "Key": 62,
     "DurationMs": 194,
     "Vel": 96
    },
    {
     "TimeMs": 163356,
     "Key": 67,
     "DurationMs": 389,
     "Vel": 96
    },
    {
     "TimeMs": 163357,
     "Key": 79,
     "DurationMs": 389,
     "Vel": 96
    },
    {
     "TimeMs": 163357,
     "Key": 52,
     "DurationMs": 192,
     "Vel": 96
    },
    {
     "TimeMs": 163561,
     "Key": 33,
     "DurationMs": 194,
     "Vel": 96
    },
    {
     "TimeMs": 163562,
     "Key": 45,
     "DurationMs": 194,
     "Vel": 96
    },
    {
     "TimeMs": 163767,
     "Key": 64,
     "DurationMs": 389,
     "Vel": 96
    },
    {
     "TimeMs": 163768,
     "Key": 76,
     "DurationMs": 389,
     "Vel": 96
    },
    {
     "TimeMs": 163768,
     "Key": 45,
     "DurationMs": 192,
     "Vel": 96
    },
    {
     "TimeMs": 163972,
     "Key": 49,
     "DurationMs": 194,
     "Vel": 96
    },
    {
     "TimeMs": 163973,
     "Key": 52,
     "DurationMs": 194,
     "Vel": 96
    },
    {
     "TimeMs": 163974,
     "Key": 57,
     "DurationMs": 194,
     "Vel": 96
    },
    {
     "TimeMs": 164178,
     "Key": 65,
     "DurationMs": 194,
     "Vel": 96
    },
    {
     "TimeMs": 164178,
     "Key": 77,
     "DurationMs": 194,
     "Vel": 96
    },
    {
     "TimeMs": 164179,
     "Key": 45,
     "DurationMs": 194,
     "Vel": 96
    },
    {
     "TimeMs": 164383,
     "Key": 62,
     "DurationMs": 204,
     "Vel": 127
    },
    {
     "TimeMs": 164384,
     "Key": 65,
     "DurationMs": 204,
     "Vel": 127
    },
    {
     "TimeMs": 164385,
     "Key": 69,
     "DurationMs": 204,
     "Vel": 127
    },
    {
     "TimeMs": 164386,
     "Key": 74,
     "DurationMs": 204,
     "Vel": 127
    },
    {
     "TimeMs": 164387,
     "Key": 26,
     "DurationMs": 190,
     "Vel": 96
    },
    {
     "TimeMs": 164387,
     "Key": 38,
     "DurationMs": 190,
     "Vel": 96
    },
    {
     "TimeMs": 164591,
     "Key": 74,
     "DurationMs": 94,
     "Vel": 96
    },
    {
     "TimeMs": 164592,
     "Key": 50,
     "DurationMs": 190,
     "Vel": 96
    },
    {
     "TimeMs": 164691,
     "Key": 69,
     "DurationMs": 96,
     "Vel": 96
    },
    {
     "TimeMs": 164794,
     "Key": 65,
     "DurationMs": 96,
     "Vel": 96
    },
    {
     "TimeMs": 164795,
     "Key": 53,
     "DurationMs": 193,
     "Vel": 96
    },
    {
     "TimeMs": 164796,
     "Key": 57,
     "DurationMs": 193,
     "Vel": 96
    },
    {
     "TimeMs": 164897,
     "Key": 62,
     "DurationMs": 96,
     "Vel": 96
    },
    {
     "TimeMs": 165000,
     "Key": 65,
     "DurationMs": 96,
     "Vel": 96
    },
    {
     "TimeMs": 165000,
     "Key": 50,
     "DurationMs": 193,
     "Vel": 96
    },
    {
     "TimeMs": 165102,
     "Key": 69,
     "DurationMs": 96,
     "Vel": 96
    },
    {
     "TimeMs": 165205,
     "Key": 64,
     "DurationMs": 101,
     "Vel": 127
    },
    {
     "TimeMs": 165206,
     "Key": 76,
     "DurationMs": 101,
     "Vel": 127
    },
    {
     "TimeMs": 165207,
     "Key": 24,
     "DurationMs": 192,
     "Vel": 96
    },
    {
     "TimeMs": 165208,
     "Key": 36,
     "DurationMs": 192,
     "Vel": 96
    },
    {
     "TimeMs": 165309,
     "Key": 72,
     "DurationMs": 95,
     "Vel": 96
    },
    {
     "TimeMs": 165410,
     "Key": 67,
     "DurationMs": 96,
     "Vel": 96
    },
    {
     "TimeMs": 165411,
     "Key": 48,
     "DurationMs": 193,
     "Vel": 96
    },
    {
     "TimeMs": 165513,
     "Key": 64,
     "DurationMs": 96,
     "Vel": 96
    },
    {
     "TimeMs": 165616,
     "Key": 69,
     "DurationMs": 101,
     "Vel": 127
    },
    {
     "TimeMs": 165617,
     "Key": 81,
     "DurationMs": 101,
     "Vel": 127
    },
    {
     "TimeMs": 165618,
     "Key": 52,
     "DurationMs": 192,
     "Vel": 96
    },
    {
     "TimeMs": 165619,
     "Key": 55,
     "DurationMs": 192,
     "Vel": 96
    },
    {
     "TimeMs": 165720,
     "Key": 76,
     "DurationMs": 95,
     "Vel": 96
    },
    {
     "TimeMs": 165821,
     "Key": 72,
     "DurationMs": 96,
     "Vel": 96
    },
    {
     "TimeMs": 165822,
     "Key": 48,
     "DurationMs": 193,
     "Vel": 96
    },
    {
     "TimeMs": 165924,
     "Key": 69,
     "DurationMs": 96,
     "Vel": 96
    },
    {
     "TimeMs": 166027,
     "Key": 67,
     "DurationMs": 101,
     "Vel": 127
    },
    {
     "TimeMs": 166028,
     "Key": 79,
     "DurationMs": 101,
     "Vel": 127
    },
    {
     "TimeMs": 166029,
     "Key": 34,
     "DurationMs": 387,
     "Vel": 96
    },
    {
     "TimeMs": 166030,
     "Key": 46,
     "DurationMs": 387,
     "Vel": 96
    },
    {
     "TimeMs": 166131,
     "Key": 74,
     "DurationMs": 95,
     "Vel": 96
    },
    {
     "TimeMs": 166232,
     "Key": 70,
     "DurationMs": 96,
     "Vel": 96
    },
    {
     "TimeMs": 166335,
     "Key": 67,
     "DurationMs": 96,
     "Vel": 96
    },
    {
     "TimeMs": 166438,
     "Key": 77,
     "DurationMs": 101,
     "Vel": 127
    },
    {
     "TimeMs": 166439,
     "Key": 89,
     "DurationMs": 101,
     "Vel": 127
    },
    {
     "TimeMs": 166440,
     "Key": 53,
     "DurationMs": 192,
     "Vel": 96
    },
    {
     "TimeMs": 166440,
     "Key": 58,
     "DurationMs": 192,
     "Vel": 96
    },
    {
     "TimeMs": 166541,
     "Key": 86,
     "DurationMs": 95,
     "Vel": 96
    },
    {
     "TimeMs": 166643,
     "Key": 81,
     "DurationMs": 96,
     "Vel": 96
    },
    {
     "TimeMs": 166644,
     "Key": 46,
     "DurationMs": 193,
     "Vel": 96
    },
    {
     "TimeMs": 166746,
     "Key": 77,
     "DurationMs": 96,
     "Vel": 96
    },
    {
     "TimeMs": 166849,
     "Key": 76,
     "DurationMs": 204,
     "Vel": 127
    },
    {
     "TimeMs": 166850,
     "Key": 79,
     "DurationMs": 204,
     "Vel": 127
    },
    {
     "TimeMs": 166851,
     "Key": 84,
     "DurationMs": 204,
     "Vel": 127
    },
    {
     "TimeMs": 166851,
     "Key": 88,
     "DurationMs": 204,
     "Vel": 127
    },
    {
     "TimeMs": 166852,
     "Key": 33,
     "DurationMs": 190,
     "Vel": 96
    },
    {
     "TimeMs": 166853,
     "Key": 45,
     "DurationMs": 190,
     "Vel": 96
    },
    {
     "TimeMs": 167057,
     "Key": 74,
     "DurationMs": 191,
     "Vel": 96
    },
    {
     "TimeMs": 167058,
     "Key": 86,
     "DurationMs": 191,
     "Vel": 96
    },
    {
     "TimeMs": 167059,
     "Key": 45,
     "DurationMs": 191,
     "Vel": 96
    },
    {
     "TimeMs": 167260,
     "Key": 72,
     "DurationMs": 194,
     "Vel": 96
    },
    {
     "TimeMs": 167261,
     "Key": 84,
     "DurationMs": 194,
     "Vel": 96
    },
    {
     "TimeMs": 167262,
     "Key": 52,
     "DurationMs": 194,
     "Vel": 96
    },
    {
     "TimeMs": 167262,
     "Key": 57,
     "DurationMs": 194,
     "Vel": 96
    },
    {
     "TimeMs": 167465,
     "Key": 69,
     "DurationMs": 194,
     "Vel": 96
    },
    {
     "TimeMs": 167466,
     "Key": 81,
     "DurationMs": 194,
     "Vel": 96
    },
    {
     "TimeMs": 167467,
     "Key": 45,
     "DurationMs": 194,
     "Vel": 96
    },
    {
     "TimeMs": 167671,
     "Key": 74,
     "DurationMs": 101,
     "Vel": 127
    },
    {
     "TimeMs": 167672,
     "Key": 86,
     "DurationMs": 101,
     "Vel": 127
    },
    {
     "TimeMs": 167672,
     "Key": 31,
     "DurationMs": 192,
     "Vel": 96
    },
    {
     "TimeMs": 167673,
     "Key": 43,
     "DurationMs": 192,
     "Vel": 96
    },
    {
     "TimeMs": 167774,
     "Key": 82,
     "DurationMs": 95,
     "Vel": 96
    },
    {
     "TimeMs": 167876,
     "Key": 77,
     "DurationMs": 96,
     "Vel": 96
    },
    {
     "TimeMs": 167877,
     "Key": 43,
     "DurationMs": 193,
     "Vel": 96
    },
    {
     "TimeMs": 167979,
     "Key": 74,
     "DurationMs": 96,
     "Vel": 96
    },
    {
     "TimeMs": 168082,
     "Key": 72,
     "DurationMs": 101,
     "Vel": 127
    },
    {
     "TimeMs": 168083,
     "Key": 84,
     "DurationMs": 101,
     "Vel": 127
    },
    {
     "TimeMs": 168083,
     "Key": 50,
     "DurationMs": 192,
     "Vel": 96
    },
    {
     "TimeMs": 168084,
     "Key": 58,
     "DurationMs": 192,
     "Vel": 96
    },
    {
     "TimeMs": 168185,
     "Key": 82,
     "DurationMs": 95,
     "Vel": 96
    },
    {
     "TimeMs": 168287,
     "Key": 77,
     "DurationMs": 96,
     "Vel": 96
    },
    {
     "TimeMs": 168288,
     "Key": 43,
     "DurationMs": 193,
     "Vel": 96
    },
    {
     "TimeMs": 168390,
     "Key": 72,
     "DurationMs": 96,
     "Vel": 96
    },
    {
     "TimeMs": 168493,
     "Key": 69,
     "DurationMs": 101,
     "Vel": 127
    },
    {
     "TimeMs": 168494,
     "Key": 81,
     "DurationMs": 101,
     "Vel": 127
    },
    {
     "TimeMs": 168494,
     "Key": 33,
     "DurationMs": 192,
     "Vel": 96
    },
    {
     "TimeMs": 168495,
     "Key": 45,
     "DurationMs": 192,
     "Vel": 96
    },
    {
     "TimeMs": 168596,
     "Key": 76,
     "DurationMs": 95,
     "Vel": 96
    },
    {
     "TimeMs": 168698,
     "Key": 72,
     "DurationMs": 96,
     "Vel": 96
    },
    {
     "TimeMs": 168699,
     "Key": 45,
     "DurationMs": 193,
     "Vel": 96
    },
    {
     "TimeMs": 168801,
     "Key": 69,
     "DurationMs": 96,
     "Vel": 96
    },
    {
     "TimeMs": 168904,
     "Key": 72,
     "DurationMs": 101,
     "Vel": 127
    },
    {
     "TimeMs": 168905,
     "Key": 84,
     "DurationMs": 101,
     "Vel": 127
    },
    {
     "TimeMs": 168905,
     "Key": 52,
     "DurationMs": 192,
     "Vel": 96
    },
    {
     "TimeMs": 168906,
     "Key": 57,
     "DurationMs": 192,
     "Vel": 96
    },
    {
     "TimeMs": 169007,
     "Key": 79,
     "DurationMs": 95,
     "Vel": 96
    },
    {
     "TimeMs": 169109,
     "Key": 76,
     "DurationMs": 96,
     "Vel": 96
    },
    {
     "TimeMs": 169110,
     "Key": 45,
     "DurationMs": 193,
     "Vel": 96
    },
    {
     "TimeMs": 169212,
     "Key": 72,
     "DurationMs": 96,
     "Vel": 96
    },
    {
     "TimeMs": 169315,
     "Key": 74,
     "DurationMs": 410,
     "Vel": 127
    },
    {
     "TimeMs": 169315,
     "Key": 77,
     "DurationMs": 410,
     "Vel": 127
    },
    {
     "TimeMs": 169316,
     "Key": 81,
     "DurationMs": 410,
     "Vel": 127
    },
    {
     "TimeMs": 169317,
     "Key": 86,
     "DurationMs": 410,
     "Vel": 127
    },
    {
     "TimeMs": 169318,
     "Key": 38,
     "DurationMs": 190,
     "Vel": 96
    },
    {
     "TimeMs": 169319,
     "Key": 50,
     "DurationMs": 190,
     "Vel": 96
    },
    {
     "TimeMs": 169520,
     "Key": 50,
     "DurationMs": 96,
     "Vel": 96
    },
    {
     "TimeMs": 169623,
     "Key": 53,
     "DurationMs": 96,
     "Vel": 96
    },
    {
     "TimeMs": 169728,
     "Key": 86,
     "DurationMs": 94,
     "Vel": 96
    },
    {
     "TimeMs": 169729,
     "Key": 57,
     "DurationMs": 94,
     "Vel": 96
    },
    {
     "TimeMs": 169828,
     "Key": 81,
     "DurationMs": 96,
     "Vel": 96
    },
    {
     "TimeMs": 169829,
     "Key": 50,
     "DurationMs": 96,
     "Vel": 96
    },
    {
     "TimeMs": 169931,
     "Key": 77,
     "DurationMs": 96,
     "Vel": 96
    },
    {
     "TimeMs": 169932,
     "Key": 53,
     "DurationMs": 96,
     "Vel": 96
    },
    {
     "TimeMs": 170034,
     "Key": 74,
     "DurationMs": 96,
     "Vel": 96
    },
    {
     "TimeMs": 170035,
     "Key": 57,
     "DurationMs": 96,
     "Vel": 96
    },
    {
     "TimeMs": 170137,
     "Key": 81,
     "DurationMs": 96,
     "Vel": 96
    },
    {
     "TimeMs": 170137,
     "Key": 62,
     "DurationMs": 96,
     "Vel": 96
    },
    {
     "TimeMs": 170239,
     "Key": 77,
     "DurationMs": 96,
     "Vel": 96
    },
    {
     "TimeMs": 170240,
     "Key": 57,
     "DurationMs": 96,
     "Vel": 96
    },
    {
     "TimeMs": 170342,
     "Key": 74,
     "DurationMs": 96,
     "Vel": 96
    },
    {
     "TimeMs": 170343,
     "Key": 53,
     "DurationMs": 96,
     "Vel": 96
    },
    {
     "TimeMs": 170445,
     "Key": 69,
     "DurationMs": 96,
     "Vel": 96
    },
    {
     "TimeMs": 170446,
     "Key": 50,
     "DurationMs": 96,
     "Vel": 96
    },
    {
     "TimeMs": 170547,
     "Key": 74,
     "DurationMs": 96,
     "Vel": 96
    },
    {
     "TimeMs": 170548,
     "Key": 45,
     "DurationMs": 96,
     "Vel": 96
    },
    {
     "TimeMs": 170650,
     "Key": 77,
     "DurationMs": 96,
     "Vel": 96
    },
    {
     "TimeMs": 170651,
     "Key": 41,
     "DurationMs": 96,
     "Vel": 96
    },
    {
     "TimeMs": 170753,
     "Key": 81,
     "DurationMs": 96,
     "Vel": 96
    },
    {
     "TimeMs": 170754,
     "Key": 38,
     "DurationMs": 193,
     "Vel": 96
    },
    {
     "TimeMs": 170856,
     "Key": 84,
     "DurationMs": 96,
     "Vel": 96
    },
    {
     "TimeMs": 170958,
     "Key": 74,
     "DurationMs": 389,
     "Vel": 96
    },
    {
     "TimeMs": 170959,
     "Key": 86,
     "DurationMs": 389,
     "Vel": 96
    },
    {
     "TimeMs": 170960,
     "Key": 34,
     "DurationMs": 192,
     "Vel": 96
    },
    {
     "TimeMs": 170961,
     "Key": 46,
     "DurationMs": 192,
     "Vel": 96
    },
    {
     "TimeMs": 171164,
     "Key": 46,
     "DurationMs": 194,
     "Vel": 96
    },
    {
     "TimeMs": 171369,
     "Key": 74,
     "DurationMs": 410,
     "Vel": 127
    },
    {
     "TimeMs": 171370,
     "Key": 77,
     "DurationMs": 410,
     "Vel": 127
    },
    {
     "TimeMs": 171371,
     "Key": 81,
     "DurationMs": 410,
     "Vel": 127
    },
    {
     "TimeMs": 171372,
     "Key": 86,
     "DurationMs": 410,
     "Vel": 127
    },
    {
     "TimeMs": 171373,
     "Key": 53,
     "DurationMs": 190,
     "Vel": 96
    },
    {
     "TimeMs": 171374,
     "Key": 58,
     "DurationMs": 190,
     "Vel": 96
    },
    {
     "TimeMs": 171575,
     "Key": 46,
     "DurationMs": 194,
     "Vel": 96
    },
    {
     "TimeMs": 171783,
     "Key": 69,
     "DurationMs": 191,
     "Vel": 96
    },
    {
     "TimeMs": 171784,
     "Key": 81,
     "DurationMs": 191,
     "Vel": 96
    },
    {
     "TimeMs": 171785,
     "Key": 36,
     "DurationMs": 191,
     "Vel": 96
    },
    {
     "TimeMs": 171785,
     "Key": 48,
     "DurationMs": 191,
     "Vel": 96
    },
    {
     "TimeMs": 171986,
     "Key": 67,
     "DurationMs": 194,
     "Vel": 96
    },
    {
     "TimeMs": 171987,
     "Key": 79,
     "DurationMs": 194,
     "Vel": 96
    },
    {
     "TimeMs": 171988,
     "Key": 48,
     "DurationMs": 194,
     "Vel": 96
    },
    {
     "TimeMs": 172191,
     "Key": 65,
     "DurationMs": 389,
     "Vel": 96
    },
    {
     "TimeMs": 172192,
     "Key": 77,
     "DurationMs": 389,
     "Vel": 96
    },
    {
     "TimeMs": 172193,
     "Key": 52,
     "DurationMs": 192,
     "Vel": 96
    },
    {
     "TimeMs": 172194,
     "Key": 55,
     "DurationMs": 192,
     "Vel": 96
    },
    {
     "TimeMs": 172397,
     "Key": 48,
     "DurationMs": 194,
     "Vel": 96
    },
    {
     "TimeMs": 172602,
     "Key": 64,
     "DurationMs": 101,
     "Vel": 127
    },
    {
     "TimeMs": 172603,
     "Key": 76,
     "DurationMs": 101,
     "Vel": 127
    },
    {
     "TimeMs": 172604,
     "Key": 38,
     "DurationMs": 192,
     "Vel": 96
    },
    {
     "TimeMs": 172605,
     "Key": 50,
     "DurationMs": 192,
     "Vel": 96
    },
    {
     "TimeMs": 172706,
     "Key": 72,
     "DurationMs": 95,
     "Vel": 96
    },
    {
     "TimeMs": 172808,
     "Key": 69,
     "DurationMs": 96,
     "Vel": 96
    },
    {
     "TimeMs": 172809,
     "Key": 50,
     "DurationMs": 193,
     "Vel": 96
    },
    {
     "TimeMs": 172910,
     "Key": 64,
     "DurationMs": 96,
     "Vel": 96
    },
    {
     "TimeMs": 173013,
     "Key": 69,
     "DurationMs": 96,
     "Vel": 96
    },
    {
     "TimeMs": 173014,
     "Key": 53,
     "DurationMs": 193,
     "Vel": 96
    },
    {
     "TimeMs": 173015,
     "Key": 57,
     "DurationMs": 193,
     "Vel": 96
    },
    {
     "TimeMs": 173116,
     "Key": 64,
     "DurationMs": 96,
     "Vel": 96
    },
    {
     "TimeMs": 173219,
     "Key": 69,
     "DurationMs": 96,
     "Vel": 96
    },
    {
     "TimeMs": 173220,
     "Key": 50,
     "DurationMs": 193,
     "Vel": 96
    },
    {
     "TimeMs": 173321,
     "Key": 72,
     "DurationMs": 96,
     "Vel": 96
    },
    {
     "TimeMs": 173424,
     "Key": 65,
     "DurationMs": 410,
     "Vel": 127
    },
    {
     "TimeMs": 173425,
     "Key": 69,
     "DurationMs": 410,
     "Vel": 127
    },
    {
     "TimeMs": 173426,
     "Key": 72,
     "DurationMs": 410,
     "Vel": 127
    },
    {
     "TimeMs": 173427,
     "Key": 77,
     "DurationMs": 410,
     "Vel": 127
    },
    {
     "TimeMs": 173428,
     "Key": 33,
     "DurationMs": 190,
     "Vel": 96
    },
    {
     "TimeMs": 173428,
     "Key": 45,
     "DurationMs": 190,
     "Vel": 96
    },
    {
     "TimeMs": 173630,
     "Key": 45,
     "DurationMs": 194,
     "Vel": 96
    },
    {
     "TimeMs": 173838,
     "Key": 64,
     "DurationMs": 191,
     "Vel": 96
    },
    {
     "TimeMs": 173839,
     "Key": 69,
     "DurationMs": 191,
     "Vel": 96
    },
    {
     "TimeMs": 173839,
     "Key": 72,
     "DurationMs": 191,
     "Vel": 96
    },
    {
     "TimeMs": 173840,
     "Key": 76,
     "DurationMs": 191,
     "Vel": 96
    },
    {
     "TimeMs": 173841,
     "Key": 52,
     "DurationMs": 191,
     "Vel": 96
    },
    {
     "TimeMs": 173842,
     "Key": 57,
     "DurationMs": 191,
     "Vel": 96
    },
    {
     "TimeMs": 174041,
     "Key": 81,
     "DurationMs": 96,
     "Vel": 96
    },
    {
     "TimeMs": 174041,
     "Key": 45,
     "DurationMs": 193,
     "Vel": 96
    },
    {
     "TimeMs": 174143,
     "Key": 84,
     "DurationMs": 96,
     "Vel": 96
    },
    {
     "TimeMs": 174246,
     "Key": 74,
     "DurationMs": 389,
     "Vel": 96
    },
    {
     "TimeMs": 174247,
     "Key": 86,
     "DurationMs": 389,
     "Vel": 96
    },
    {
     "TimeMs": 174248,
     "Key": 34,
     "DurationMs": 192,
     "Vel": 96
    },
    {
     "TimeMs": 174249,
     "Key": 46,
     "DurationMs": 192,
     "Vel": 96
    },
    {
     "TimeMs": 174452,
     "Key": 46,
     "DurationMs": 194,
     "Vel": 96
    },
    {
     "TimeMs": 174657,
     "Key": 86,
     "DurationMs": 410,
     "Vel": 127
    },
    {
     "TimeMs": 174658,
     "Key": 89,
     "DurationMs": 410,
     "Vel": 127
    },
    {
     "TimeMs": 174659,
     "Key": 93,
     "DurationMs": 410,
     "Vel": 127
    },
    {
     "TimeMs": 174660,
     "Key": 98,
     "DurationMs": 410,
     "Vel": 127
    },
    {
     "TimeMs": 174660,
     "Key": 53,
     "DurationMs": 190,
     "Vel": 96
    },
    {
     "TimeMs": 174661,
     "Key": 58,
     "DurationMs": 190,
     "Vel": 96
    },
    {
     "TimeMs": 174863,
     "Key": 46,
     "DurationMs": 194,
     "Vel": 96
    },
    {
     "TimeMs": 175071,
     "Key": 74,
     "DurationMs": 386,
     "Vel": 96
    },
    {
     "TimeMs": 175071,
     "Key": 77,
     "DurationMs": 386,
     "Vel": 96
    },
    {
     "TimeMs": 175072,
     "Key": 86,
     "DurationMs": 386,
     "Vel": 96
    },
    {
     "TimeMs": 175073,
     "Key": 36,
     "DurationMs": 189,
     "Vel": 96
    },
    {
     "TimeMs": 175074,
     "Key": 48,
     "DurationMs": 189,
     "Vel": 96
    },
    {
     "TimeMs": 175274,
     "Key": 48,
     "DurationMs": 194,
     "Vel": 96
    },
    {
     "TimeMs": 175479,
     "Key": 86,
     "DurationMs": 410,
     "Vel": 127
    },
    {
     "TimeMs": 175480,
     "Key": 91,
     "DurationMs": 410,
     "Vel": 127
    },
    {
     "TimeMs": 175481,
     "Key": 98,
     "DurationMs": 410,
     "Vel": 127
    },
    {
     "TimeMs": 175482,
     "Key": 55,
     "DurationMs": 191,
     "Vel": 96
    },
    {
     "TimeMs": 175482,
     "Key": 60,
     "DurationMs": 191,
     "Vel": 96
    },
    {
     "TimeMs": 175684,
     "Key": 48,
     "DurationMs": 194,
     "Vel": 96
    },
    {
     "TimeMs": 175892,
     "Key": 74,
     "DurationMs": 192,
     "Vel": 96
    },
    {
     "TimeMs": 175893,
     "Key": 77,
     "DurationMs": 192,
     "Vel": 96
    },
    {
     "TimeMs": 175893,
     "Key": 81,
     "DurationMs": 192,
     "Vel": 96
    },
    {
     "TimeMs": 175894,
     "Key": 86,
     "DurationMs": 192,
     "Vel": 96
    },
    {
     "TimeMs": 175895,
     "Key": 38,
     "DurationMs": 192,
     "Vel": 96
    },
    {
     "TimeMs": 175896,
     "Key": 50,
     "DurationMs": 192,
     "Vel": 96
    },
    {
     "TimeMs": 176095,
     "Key": 86,
     "DurationMs": 194,
     "Vel": 96
    },
    {
     "TimeMs": 176096,
     "Key": 89,
     "DurationMs": 194,
     "Vel": 96
    },
    {
     "TimeMs": 176097,
     "Key": 93,
     "DurationMs": 194,
     "Vel": 96
    },
    {
     "TimeMs": 176098,
     "Key": 98,
     "DurationMs": 194,
     "Vel": 96
    },
    {
     "TimeMs": 176099,
     "Key": 50,
     "DurationMs": 194,
     "Vel": 96
    },
    {
     "TimeMs": 176301,
     "Key": 86,
     "DurationMs": 194,
     "Vel": 96
    },
    {
     "TimeMs": 176302,
     "Key": 89,
     "DurationMs": 194,
     "Vel": 96
    },
    {
     "TimeMs": 176303,
     "Key": 93,
     "DurationMs": 194,
     "Vel": 96
    },
    {
     "TimeMs": 176303,
     "Key": 98,
     "DurationMs": 194,
     "Vel": 96
    },
    {
     "TimeMs": 176304,
     "Key": 62,
     "DurationMs": 93,
     "Vel": 96
    },
    {
     "TimeMs": 176404,
     "Key": 57,
     "DurationMs": 96,
     "Vel": 96
    },
    {
     "TimeMs": 176506,
     "Key": 86,
     "DurationMs": 194,
     "Vel": 96
    },
    {
     "TimeMs": 176507,
     "Key": 89,
     "DurationMs": 194,
     "Vel": 96
    },
    {
     "TimeMs": 176508,
     "Key": 93,
     "DurationMs": 194,
     "Vel": 96
    },
    {
     "TimeMs": 176509,
     "Key": 98,
     "DurationMs": 194,
     "Vel": 96
    },
    {
     "TimeMs": 176510,
     "Key": 53,
     "DurationMs": 93,
     "Vel": 96
    },
    {
     "TimeMs": 176609,
     "Key": 50,
     "DurationMs": 96,
     "Vel": 96
    },
    {
     "TimeMs": 176712,
     "Key": 86,
     "DurationMs": 779,
     "Vel": 96
    },
    {
     "TimeMs": 176713,
     "Key": 89,
     "DurationMs": 779,
     "Vel": 96
    },
    {
     "TimeMs": 176714,
     "Key": 93,
     "DurationMs": 779,
     "Vel": 96
    },
    {
     "TimeMs": 176714,
     "Key": 98,
     "DurationMs": 779,
     "Vel": 96
    },
    {
     "TimeMs": 176715,
     "Key": 45,
     "DurationMs": 93,
     "Vel": 96
    },
    {
     "TimeMs": 176815,
     "Key": 41,
     "DurationMs": 96,
     "Vel": 96
    },
    {
     "TimeMs": 176917,
     "Key": 38,
     "DurationMs": 96,
     "Vel": 96
    },
    {
     "TimeMs": 177020,
     "Key": 33,
     "DurationMs": 96,
     "Vel": 96
    },
    {
     "TimeMs": 177123,
     "Key": 29,
     "DurationMs": 96,
     "Vel": 96
    },
    {
     "TimeMs": 177226,
     "Key": 26,
     "DurationMs": 291,
     "Vel": 96
    },
    {
     "TimeMs": 177534,
     "Key": 63,
     "DurationMs": 101,
     "Vel": 80
    },
    {
     "TimeMs": 177535,
     "Key": 73,
     "DurationMs": 101,
     "Vel": 80
    },
    {
     "TimeMs": 177536,
     "Key": 27,
     "DurationMs": 202,
     "Vel": 120
    },
    {
     "TimeMs": 177536,
     "Key": 39,
     "DurationMs": 204,
     "Vel": 120
    },
    {
     "TimeMs": 177739,
     "Key": 63,
     "DurationMs": 101,
     "Vel": 80
    },
    {
     "TimeMs": 177740,
     "Key": 73,
     "DurationMs": 101,
     "Vel": 80
    },
    {
     "TimeMs": 177945,
     "Key": 64,
     "DurationMs": 101,
     "Vel": 80
    },
    {
     "TimeMs": 177946,
     "Key": 72,
     "DurationMs": 101,
     "Vel": 80
    },
    {
     "TimeMs": 178150,
     "Key": 64,
     "DurationMs": 101,
     "Vel": 80
    },
    {
     "TimeMs": 178151,
     "Key": 72,
     "DurationMs": 101,
     "Vel": 80
    },
    {
     "TimeMs": 178356,
     "Key": 63,
     "DurationMs": 101,
     "Vel": 80
    },
    {
     "TimeMs": 178357,
     "Key": 73,
     "DurationMs": 101,
     "Vel": 80
    },
    {
     "TimeMs": 178561,
     "Key": 63,
     "DurationMs": 101,
     "Vel": 80
    },
    {
     "TimeMs": 178562,
     "Key": 73,
     "DurationMs": 101,
     "Vel": 80
    },
    {
     "TimeMs": 178767,
     "Key": 64,
     "DurationMs": 101,
     "Vel": 80
    },
    {
     "TimeMs": 178768,
     "Key": 72,
     "DurationMs": 101,
     "Vel": 80
    },
    {
     "TimeMs": 178972,
     "Key": 64,
     "DurationMs": 101,
     "Vel": 80
    },
    {
     "TimeMs": 178973,
     "Key": 72,
     "DurationMs": 101,
     "Vel": 80
    },
    {
     "TimeMs": 178974,
     "Key": 27,
     "DurationMs": 192,
     "Vel": 80
    },
    {
     "TimeMs": 178975,
     "Key": 39,
     "DurationMs": 192,
     "Vel": 80
    },
    {
     "TimeMs": 179178,
     "Key": 63,
     "DurationMs": 101,
     "Vel": 80
    },
    {
     "TimeMs": 179178,
     "Key": 73,
     "DurationMs": 101,
     "Vel": 80
    },
    {
     "TimeMs": 179179,
     "Key": 27,
     "DurationMs": 202,
     "Vel": 120
    },
    {
     "TimeMs": 179180,
     "Key": 39,
     "DurationMs": 204,
     "Vel": 120
    },
    {
     "TimeMs": 179383,
     "Key": 63,
     "DurationMs": 101,
     "Vel": 80
    },
    {
     "TimeMs": 179384,
     "Key": 73,
     "DurationMs": 101,
     "Vel": 80
    },
    {
     "TimeMs": 179589,
     "Key": 64,
     "DurationMs": 101,
     "Vel": 80
    },
    {
     "TimeMs": 179589,
     "Key": 72,
     "DurationMs": 101,
     "Vel": 80
    },
    {
     "TimeMs": 179794,
     "Key": 64,
     "DurationMs": 101,
     "Vel": 80
    },
    {
     "TimeMs": 179795,
     "Key": 72,
     "DurationMs": 101,
     "Vel": 80
    },
    {
     "TimeMs": 180000,
     "Key": 75,
     "DurationMs": 821,
     "Vel": 120
    },
    {
     "TimeMs": 180000,
     "Key": 80,
     "DurationMs": 821,
     "Vel": 120
    },
    {
     "TimeMs": 180001,
     "Key": 63,
     "DurationMs": 100,
     "Vel": 80
    },
    {
     "TimeMs": 180002,
     "Key": 73,
     "DurationMs": 100,
     "Vel": 80
    },
    {
     "TimeMs": 180205,
     "Key": 63,
     "DurationMs": 101,
     "Vel": 80
    },
    {
     "TimeMs": 180206,
     "Key": 73,
     "DurationMs": 101,
     "Vel": 80
    },
    {
     "TimeMs": 180411,
     "Key": 64,
     "DurationMs": 101,
     "Vel": 80
    },
    {
     "TimeMs": 180411,
     "Key": 72,
     "DurationMs": 101,
     "Vel": 80
    },
    {
     "TimeMs": 180616,
     "Key": 64,
     "DurationMs": 101,
     "Vel": 80
    },
    {
     "TimeMs": 180617,
     "Key": 72,
     "DurationMs": 101,
     "Vel": 80
    },
    {
     "TimeMs": 180822,
     "Key": 63,
     "DurationMs": 101,
     "Vel": 80
    },
    {
     "TimeMs": 180823,
     "Key": 73,
     "DurationMs": 101,
     "Vel": 80
    },
    {
     "TimeMs": 180824,
     "Key": 27,
     "DurationMs": 202,
     "Vel": 120
    },
    {
     "TimeMs": 180825,
     "Key": 39,
     "DurationMs": 203,
     "Vel": 120
    },
    {
     "TimeMs": 181027,
     "Key": 63,
     "DurationMs": 101,
     "Vel": 80
    },
    {
     "TimeMs": 181028,
     "Key": 73,
     "DurationMs": 101,
     "Vel": 80
    },
    {
     "TimeMs": 181232,
     "Key": 64,
     "DurationMs": 101,
     "Vel": 80
    },
    {
     "TimeMs": 181233,
     "Key": 72,
     "DurationMs": 101,
     "Vel": 80
    },
    {
     "TimeMs": 181438,
     "Key": 64,
     "DurationMs": 101,
     "Vel": 80
    },
    {
     "TimeMs": 181439,
     "Key": 72,
     "DurationMs": 101,
     "Vel": 80
    },
    {
     "TimeMs": 181643,
     "Key": 63,
     "DurationMs": 101,
     "Vel": 80
    },
    {
     "TimeMs": 181644,
     "Key": 73,
     "DurationMs": 101,
     "Vel": 80
    },
    {
     "TimeMs": 181849,
     "Key": 63,
     "DurationMs": 101,
     "Vel": 80
    },
    {
     "TimeMs": 181850,
     "Key": 73,
     "DurationMs": 101,
     "Vel": 80
    },
    {
     "TimeMs": 182054,
     "Key": 64,
     "DurationMs": 101,
     "Vel": 80
    },
    {
     "TimeMs": 182055,
     "Key": 72,
     "DurationMs": 101,
     "Vel": 80
    },
    {
     "TimeMs": 182260,
     "Key": 64,
     "DurationMs": 101,
     "Vel": 80
    },
    {
     "TimeMs": 182261,
     "Key": 72,
     "DurationMs": 101,
     "Vel": 80
    },
    {
     "TimeMs": 182262,
     "Key": 27,
     "DurationMs": 192,
     "Vel": 80
    },
    {
     "TimeMs": 182262,
     "Key": 39,
     "DurationMs": 192,
     "Vel": 80
    },
    {
     "TimeMs": 182465,
     "Key": 63,
     "DurationMs": 101,
     "Vel": 80
    },
    {
     "TimeMs": 182466,
     "Key": 73,
     "DurationMs": 101,
     "Vel": 80
    },
    {
     "TimeMs": 182467,
     "Key": 27,
     "DurationMs": 202,
     "Vel": 120
    },
    {
     "TimeMs": 182468,
     "Key": 39,
     "DurationMs": 204,
     "Vel": 120
    },
    {
     "TimeMs": 182671,
     "Key": 63,
     "DurationMs": 101,
     "Vel": 80
    },
    {
     "TimeMs": 182672,
     "Key": 73,
     "DurationMs": 101,
     "Vel": 80
    },
    {
     "TimeMs": 182876,
     "Key": 64,
     "DurationMs": 101,
     "Vel": 80
    },
    {
     "TimeMs": 182877,
     "Key": 72,
     "DurationMs": 101,
     "Vel": 80
    },
    {
     "TimeMs": 183082,
     "Key": 64,
     "DurationMs": 101,
     "Vel": 80
    },
    {
     "TimeMs": 183083,
     "Key": 72,
     "DurationMs": 101,
     "Vel": 80
    },
    {
     "TimeMs": 183287,
     "Key": 75,
     "DurationMs": 821,
     "Vel": 120
    },
    {
     "TimeMs": 183288,
     "Key": 80,
     "DurationMs": 821,
     "Vel": 120
    },
    {
     "TimeMs": 183289,
     "Key": 63,
     "DurationMs": 100,
     "Vel": 80
    },
    {
     "TimeMs": 183290,
     "Key": 73,
     "DurationMs": 100,
     "Vel": 80
    },
    {
     "TimeMs": 183493,
     "Key": 63,
     "DurationMs": 101,
     "Vel": 80
    },
    {
     "TimeMs": 183494,
     "Key": 73,
     "DurationMs": 101,
     "Vel": 80
    },
    {
     "TimeMs": 183698,
     "Key": 64,
     "DurationMs": 101,
     "Vel": 80
    },
    {
     "TimeMs": 183699,
     "Key": 72,
     "DurationMs": 101,
     "Vel": 80
    },
    {
     "TimeMs": 183904,
     "Key": 64,
     "DurationMs": 101,
     "Vel": 80
    },
    {
     "TimeMs": 183905,
     "Key": 72,
     "DurationMs": 101,
     "Vel": 80
    },
    {
     "TimeMs": 184110,
     "Key": 63,
     "DurationMs": 101,
     "Vel": 80
    },
    {
     "TimeMs": 184111,
     "Key": 73,
     "DurationMs": 101,
     "Vel": 80
    },
    {
     "TimeMs": 184112,
     "Key": 27,
     "DurationMs": 202,
     "Vel": 120
    },
    {
     "TimeMs": 184113,
     "Key": 39,
     "DurationMs": 203,
     "Vel": 120
    },
    {
     "TimeMs": 184315,
     "Key": 63,
     "DurationMs": 101,
     "Vel": 80
    },
    {
     "TimeMs": 184315,
     "Key": 73,
     "DurationMs": 101,
     "Vel": 80
    },
    {
     "TimeMs": 184520,
     "Key": 64,
     "DurationMs": 101,
     "Vel": 80
    },
    {
     "TimeMs": 184521,
     "Key": 72,
     "DurationMs": 101,
     "Vel": 80
    },
    {
     "TimeMs": 184726,
     "Key": 64,
     "DurationMs": 101,
     "Vel": 80
    },
    {
     "TimeMs": 184726,
     "Key": 72,
     "DurationMs": 101,
     "Vel": 80
    },
    {
     "TimeMs": 184931,
     "Key": 63,
     "DurationMs": 101,
     "Vel": 80
    },
    {
     "TimeMs": 184932,
     "Key": 73,
     "DurationMs": 101,
     "Vel": 80
    },
    {
     "TimeMs": 185137,
     "Key": 63,
     "DurationMs": 101,
     "Vel": 80
    },
    {
     "TimeMs": 185137,
     "Key": 73,
     "DurationMs": 101,
     "Vel": 80
    },
    {
     "TimeMs": 185342,
     "Key": 64,
     "DurationMs": 101,
     "Vel": 80
    },
    {
     "TimeMs": 185343,
     "Key": 72,
     "DurationMs": 101,
     "Vel": 80
    },
    {
     "TimeMs": 185547,
     "Key": 64,
     "DurationMs": 101,
     "Vel": 80
    },
    {
     "TimeMs": 185548,
     "Key": 72,
     "DurationMs": 101,
     "Vel": 80
    },
    {
     "TimeMs": 185549,
     "Key": 27,
     "DurationMs": 192,
     "Vel": 80
    },
    {
     "TimeMs": 185550,
     "Key": 39,
     "DurationMs": 192,
     "Vel": 80
    },
    {
     "TimeMs": 185753,
     "Key": 63,
     "DurationMs": 101,
     "Vel": 80
    },
    {
     "TimeMs": 185754,
     "Key": 73,
     "DurationMs": 101,
     "Vel": 80
    },
    {
     "TimeMs": 185755,
     "Key": 27,
     "DurationMs": 202,
     "Vel": 120
    },
    {
     "TimeMs": 185756,
     "Key": 39,
     "DurationMs": 204,
     "Vel": 120
    },
    {
     "TimeMs": 185958,
     "Key": 63,
     "DurationMs": 101,
     "Vel": 80
    },
    {
     "TimeMs": 185959,
     "Key": 73,
     "DurationMs": 101,
     "Vel": 80
    },
    {
     "TimeMs": 186164,
     "Key": 64,
     "DurationMs": 101,
     "Vel": 80
    },
    {
     "TimeMs": 186165,
     "Key": 72,
     "DurationMs": 101,
     "Vel": 80
    },
    {
     "TimeMs": 186369,
     "Key": 64,
     "DurationMs": 101,
     "Vel": 80
    },
    {
     "TimeMs": 186370,
     "Key": 72,
     "DurationMs": 101,
     "Vel": 80
    },
    {
     "TimeMs": 186575,
     "Key": 75,
     "DurationMs": 821,
     "Vel": 120
    },
    {
     "TimeMs": 186576,
     "Key": 80,
     "DurationMs": 821,
     "Vel": 120
    },
    {
     "TimeMs": 186577,
     "Key": 63,
     "DurationMs": 100,
     "Vel": 80
    },
    {
     "TimeMs": 186577,
     "Key": 73,
     "DurationMs": 100,
     "Vel": 80
    },
    {
     "TimeMs": 186780,
     "Key": 63,
     "DurationMs": 101,
     "Vel": 80
    },
    {
     "TimeMs": 186781,
     "Key": 73,
     "DurationMs": 101,
     "Vel": 80
    },
    {
     "TimeMs": 186986,
     "Key": 64,
     "DurationMs": 101,
     "Vel": 80
    },
    {
     "TimeMs": 186987,
     "Key": 72,
     "DurationMs": 101,
     "Vel": 80
    },
    {
     "TimeMs": 187191,
     "Key": 64,
     "DurationMs": 101,
     "Vel": 80
    },
    {
     "TimeMs": 187192,
     "Key": 72,
     "DurationMs": 101,
     "Vel": 80
    },
    {
     "TimeMs": 187398,
     "Key": 69,
     "DurationMs": 101,
     "Vel": 80
    },
    {
     "TimeMs": 187399,
     "Key": 81,
     "DurationMs": 101,
     "Vel": 80
    },
    {
     "TimeMs": 187399,
     "Key": 45,
     "DurationMs": 101,
     "Vel": 80
    },
    {
     "TimeMs": 187400,
     "Key": 57,
     "DurationMs": 101,
     "Vel": 80
    },
    {
     "TimeMs": 187602,
     "Key": 68,
     "DurationMs": 101,
     "Vel": 81
    },
    {
     "TimeMs": 187603,
     "Key": 80,
     "DurationMs": 101,
     "Vel": 81
    },
    {
     "TimeMs": 187604,
     "Key": 44,
     "DurationMs": 101,
     "Vel": 81
    },
    {
     "TimeMs": 187605,
     "Key": 56,
     "DurationMs": 101,
     "Vel": 81
    },
    {
     "TimeMs": 187808,
     "Key": 66,
     "DurationMs": 101,
     "Vel": 82
    },
    {
     "TimeMs": 187809,
     "Key": 78,
     "DurationMs": 101,
     "Vel": 82
    },
    {
     "TimeMs": 187809,
     "Key": 42,
     "DurationMs": 101,
     "Vel": 82
    },
    {
     "TimeMs": 187810,
     "Key": 54,
     "DurationMs": 101,
     "Vel": 82
    },
    {
     "TimeMs": 188013,
     "Key": 68,
     "DurationMs": 101,
     "Vel": 83
    },
    {
     "TimeMs": 188014,
     "Key": 80,
     "DurationMs": 101,
     "Vel": 83
    },
    {
     "TimeMs": 188015,
     "Key": 44,
     "DurationMs": 101,
     "Vel": 83
    },
    {
     "TimeMs": 188016,
     "Key": 56,
     "DurationMs": 101,
     "Vel": 83
    },
    {
     "TimeMs": 188219,
     "Key": 66,
     "DurationMs": 101,
     "Vel": 84
    },
    {
     "TimeMs": 188220,
     "Key": 78,
     "DurationMs": 101,
     "Vel": 84
    },
    {
     "TimeMs": 188220,
     "Key": 42,
     "DurationMs": 101,
     "Vel": 84
    },
    {
     "TimeMs": 188221,
     "Key": 54,
     "DurationMs": 101,
     "Vel": 84
    },
    {
     "TimeMs": 188424,
     "Key": 64,
     "DurationMs": 101,
     "Vel": 85
    },
    {
     "TimeMs": 188425,
     "Key": 76,
     "DurationMs": 101,
     "Vel": 85
    },
    {
     "TimeMs": 188426,
     "Key": 40,
     "DurationMs": 101,
     "Vel": 85
    },
    {
     "TimeMs": 188427,
     "Key": 52,
     "DurationMs": 101,
     "Vel": 85
    },
    {
     "TimeMs": 188630,
     "Key": 66,
     "DurationMs": 101,
     "Vel": 86
    },
    {
     "TimeMs": 188631,
     "Key": 78,
     "DurationMs": 101,
     "Vel": 86
    },
    {
     "TimeMs": 188631,
     "Key": 42,
     "DurationMs": 101,
     "Vel": 86
    },
    {
     "TimeMs": 188632,
     "Key": 54,
     "DurationMs": 101,
     "Vel": 86
    },
    {
     "TimeMs": 188835,
     "Key": 64,
     "DurationMs": 101,
     "Vel": 87
    },
    {
     "TimeMs": 188836,
     "Key": 76,
     "DurationMs": 101,
     "Vel": 87
    },
    {
     "TimeMs": 188837,
     "Key": 40,
     "DurationMs": 101,
     "Vel": 87
    },
    {
     "TimeMs": 188838,
     "Key": 52,
     "DurationMs": 101,
     "Vel": 87
    },
    {
     "TimeMs": 189041,
     "Key": 63,
     "DurationMs": 101,
     "Vel": 88
    },
    {
     "TimeMs": 189041,
     "Key": 75,
     "DurationMs": 101,
     "Vel": 88
    },
    {
     "TimeMs": 189042,
     "Key": 39,
     "DurationMs": 101,
     "Vel": 88
    },
    {
     "TimeMs": 189043,
     "Key": 51,
     "DurationMs": 101,
     "Vel": 88
    },
    {
     "TimeMs": 189246,
     "Key": 64,
     "DurationMs": 101,
     "Vel": 89
    },
    {
     "TimeMs": 189247,
     "Key": 76,
     "DurationMs": 101,
     "Vel": 89
    },
    {
     "TimeMs": 189248,
     "Key": 40,
     "DurationMs": 101,
     "Vel": 89
    },
    {
     "TimeMs": 189249,
     "Key": 52,
     "DurationMs": 101,
     "Vel": 89
    },
    {
     "TimeMs": 189452,
     "Key": 63,
     "DurationMs": 101,
     "Vel": 90
    },
    {
     "TimeMs": 189452,
     "Key": 75,
     "DurationMs": 101,
     "Vel": 90
    },
    {
     "TimeMs": 189453,
     "Key": 39,
     "DurationMs": 101,
     "Vel": 90
    },
    {
     "TimeMs": 189454,
     "Key": 51,
     "DurationMs": 101,
     "Vel": 90
    },
    {
     "TimeMs": 189657,
     "Key": 61,
     "DurationMs": 101,
     "Vel": 91
    },
    {
     "TimeMs": 189658,
     "Key": 73,
     "DurationMs": 101,
     "Vel": 91
    },
    {
     "TimeMs": 189659,
     "Key": 37,
     "DurationMs": 101,
     "Vel": 91
    },
    {
     "TimeMs": 189660,
     "Key": 49,
     "DurationMs": 101,
     "Vel": 91
    },
    {
     "TimeMs": 189863,
     "Key": 63,
     "DurationMs": 101,
     "Vel": 92
    },
    {
     "TimeMs": 189863,
     "Key": 75,
     "DurationMs": 101,
     "Vel": 92
    },
    {
     "TimeMs": 189864,
     "Key": 39,
     "DurationMs": 101,
     "Vel": 92
    },
    {
     "TimeMs": 189865,
     "Key": 51,
     "DurationMs": 101,
     "Vel": 92
    },
    {
     "TimeMs": 190068,
     "Key": 60,
     "DurationMs": 101,
     "Vel": 93
    },
    {
     "TimeMs": 190069,
     "Key": 72,
     "DurationMs": 101,
     "Vel": 93
    },
    {
     "TimeMs": 190070,
     "Key": 36,
     "DurationMs": 101,
     "Vel": 93
    },
    {
     "TimeMs": 190071,
     "Key": 48,
     "DurationMs": 101,
     "Vel": 93
    },
    {
     "TimeMs": 190274,
     "Key": 61,
     "DurationMs": 204,
     "Vel": 96
    },
    {
     "TimeMs": 190274,
     "Key": 64,
     "DurationMs": 204,
     "Vel": 96
    },
    {
     "TimeMs": 190275,
     "Key": 68,
     "DurationMs": 204,
     "Vel": 96
    },
    {
     "TimeMs": 190276,
     "Key": 73,
     "DurationMs": 204,
     "Vel": 96
    },
    {
     "TimeMs": 190277,
     "Key": 25,
     "DurationMs": 204,
     "Vel": 96
    },
    {
     "TimeMs": 190278,
     "Key": 37,
     "DurationMs": 204,
     "Vel": 96
    }
   ];