var midifile = [
    {
     "TimeMs": 1363,
     "Key": 60,
     "DurationMs": 43,
     "Vel": 80
    },
    {
     "TimeMs": 1412,
     "Key": 62,
     "DurationMs": 43,
     "Vel": 80
    },
    {
     "TimeMs": 1461,
     "Key": 64,
     "DurationMs": 43,
     "Vel": 80
    },
    {
     "TimeMs": 1509,
     "Key": 65,
     "DurationMs": 43,
     "Vel": 80
    },
    {
     "TimeMs": 1558,
     "Key": 53,
     "DurationMs": 262,
     "Vel": 80
    },
    {
     "TimeMs": 1559,
     "Key": 57,
     "DurationMs": 262,
     "Vel": 80
    },
    {
     "TimeMs": 1560,
     "Key": 62,
     "DurationMs": 262,
     "Vel": 80
    },
    {
     "TimeMs": 1560,
     "Key": 38,
     "DurationMs": 262,
     "Vel": 80
    },
    {
     "TimeMs": 1561,
     "Key": 50,
     "DurationMs": 262,
     "Vel": 80
    },
    {
     "TimeMs": 1850,
     "Key": 53,
     "DurationMs": 262,
     "Vel": 80
    },
    {
     "TimeMs": 1851,
     "Key": 57,
     "DurationMs": 262,
     "Vel": 80
    },
    {
     "TimeMs": 1852,
     "Key": 62,
     "DurationMs": 262,
     "Vel": 80
    },
    {
     "TimeMs": 1853,
     "Key": 38,
     "DurationMs": 262,
     "Vel": 80
    },
    {
     "TimeMs": 1853,
     "Key": 50,
     "DurationMs": 262,
     "Vel": 80
    },
    {
     "TimeMs": 2142,
     "Key": 53,
     "DurationMs": 175,
     "Vel": 80
    },
    {
     "TimeMs": 2143,
     "Key": 57,
     "DurationMs": 175,
     "Vel": 80
    },
    {
     "TimeMs": 2144,
     "Key": 60,
     "DurationMs": 175,
     "Vel": 80
    },
    {
     "TimeMs": 2145,
     "Key": 38,
     "DurationMs": 85,
     "Vel": 80
    },
    {
     "TimeMs": 2240,
     "Key": 50,
     "DurationMs": 87,
     "Vel": 80
    },
    {
     "TimeMs": 2337,
     "Key": 53,
     "DurationMs": 262,
     "Vel": 80
    },
    {
     "TimeMs": 2338,
     "Key": 57,
     "DurationMs": 262,
     "Vel": 80
    },
    {
     "TimeMs": 2339,
     "Key": 62,
     "DurationMs": 262,
     "Vel": 80
    },
    {
     "TimeMs": 2340,
     "Key": 38,
     "DurationMs": 65,
     "Vel": 80
    },
    {
     "TimeMs": 2435,
     "Key": 50,
     "DurationMs": 197,
     "Vel": 80
    },
    {
     "TimeMs": 2629,
     "Key": 53,
     "DurationMs": 262,
     "Vel": 80
    },
    {
     "TimeMs": 2630,
     "Key": 57,
     "DurationMs": 262,
     "Vel": 80
    },
    {
     "TimeMs": 2631,
     "Key": 62,
     "DurationMs": 262,
     "Vel": 80
    },
    {
     "TimeMs": 2633,
     "Key": 38,
     "DurationMs": 64,
     "Vel": 80
    },
    {
     "TimeMs": 2727,
     "Key": 50,
     "DurationMs": 197,
     "Vel": 80
    },
    {
     "TimeMs": 2922,
     "Key": 53,
     "DurationMs": 175,
     "Vel": 80
    },
    {
     "TimeMs": 2922,
     "Key": 57,
     "DurationMs": 175,
     "Vel": 80
    },
    {
     "TimeMs": 2923,
     "Key": 60,
     "DurationMs": 175,
     "Vel": 80
    },
    {
     "TimeMs": 2925,
     "Key": 38,
     "DurationMs": 174,
     "Vel": 80
    },
    {
     "TimeMs": 2926,
     "Key": 50,
     "DurationMs": 174,
     "Vel": 80
    },
    {
     "TimeMs": 3116,
     "Key": 53,
     "DurationMs": 262,
     "Vel": 80
    },
    {
     "TimeMs": 3117,
     "Key": 57,
     "DurationMs": 262,
     "Vel": 80
    },
    {
     "TimeMs": 3118,
     "Key": 62,
     "DurationMs": 262,
     "Vel": 80
    },
    {
     "TimeMs": 3119,
     "Key": 65,
     "DurationMs": 262,
     "Vel": 80
    },
    {
     "TimeMs": 3120,
     "Key": 38,
     "DurationMs": 262,
     "Vel": 80
    },
    {
     "TimeMs": 3120,
     "Key": 50,
     "DurationMs": 262,
     "Vel": 80
    },
    {
     "TimeMs": 3409,
     "Key": 53,
     "DurationMs": 262,
     "Vel": 80
    },
    {
     "TimeMs": 3409,
     "Key": 57,
     "DurationMs": 262,
     "Vel": 80
    },
    {
     "TimeMs": 3410,
     "Key": 62,
     "DurationMs": 262,
     "Vel": 80
    },
    {
     "TimeMs": 3411,
     "Key": 65,
     "DurationMs": 262,
     "Vel": 80
    },
    {
     "TimeMs": 3412,
     "Key": 38,
     "DurationMs": 262,
     "Vel": 80
    },
    {
     "TimeMs": 3413,
     "Key": 50,
     "DurationMs": 262,
     "Vel": 80
    },
    {
     "TimeMs": 3701,
     "Key": 53,
     "DurationMs": 175,
     "Vel": 80
    },
    {
     "TimeMs": 3702,
     "Key": 57,
     "DurationMs": 175,
     "Vel": 80
    },
    {
     "TimeMs": 3702,
     "Key": 60,
     "DurationMs": 175,
     "Vel": 80
    },
    {
     "TimeMs": 3703,
     "Key": 65,
     "DurationMs": 175,
     "Vel": 80
    },
    {
     "TimeMs": 3704,
     "Key": 38,
     "DurationMs": 84,
     "Vel": 80
    },
    {
     "TimeMs": 3798,
     "Key": 50,
     "DurationMs": 87,
     "Vel": 80
    },
    {
     "TimeMs": 3896,
     "Key": 53,
     "DurationMs": 350,
     "Vel": 80
    },
    {
     "TimeMs": 3896,
     "Key": 57,
     "DurationMs": 350,
     "Vel": 80
    },
    {
     "TimeMs": 3897,
     "Key": 62,
     "DurationMs": 350,
     "Vel": 80
    },
    {
     "TimeMs": 3898,
     "Key": 38,
     "DurationMs": 350,
     "Vel": 80
    },
    {
     "TimeMs": 3899,
     "Key": 50,
     "DurationMs": 350,
     "Vel": 80
    },
    {
     "TimeMs": 4285,
     "Key": 57,
     "DurationMs": 350,
     "Vel": 80
    },
    {
     "TimeMs": 4286,
     "Key": 62,
     "DurationMs": 350,
     "Vel": 80
    },
    {
     "TimeMs": 4287,
     "Key": 65,
     "DurationMs": 350,
     "Vel": 80
    },
    {
     "TimeMs": 4288,
     "Key": 67,
     "DurationMs": 350,
     "Vel": 80
    },
    {
     "TimeMs": 4288,
     "Key": 38,
     "DurationMs": 350,
     "Vel": 80
    },
    {
     "TimeMs": 4289,
     "Key": 50,
     "DurationMs": 350,
     "Vel": 80
    },
    {
     "TimeMs": 4675,
     "Key": 57,
     "DurationMs": 262,
     "Vel": 80
    },
    {
     "TimeMs": 4676,
     "Key": 62,
     "DurationMs": 262,
     "Vel": 80
    },
    {
     "TimeMs": 4676,
     "Key": 65,
     "DurationMs": 262,
     "Vel": 80
    },
    {
     "TimeMs": 4677,
     "Key": 69,
     "DurationMs": 262,
     "Vel": 80
    },
    {
     "TimeMs": 4678,
     "Key": 38,
     "DurationMs": 262,
     "Vel": 80
    },
    {
     "TimeMs": 4679,
     "Key": 50,
     "DurationMs": 262,
     "Vel": 80
    },
    {
     "TimeMs": 4967,
     "Key": 57,
     "DurationMs": 262,
     "Vel": 80
    },
    {
     "TimeMs": 4968,
     "Key": 62,
     "DurationMs": 262,
     "Vel": 80
    },
    {
     "TimeMs": 4969,
     "Key": 65,
     "DurationMs": 262,
     "Vel": 80
    },
    {
     "TimeMs": 4969,
     "Key": 69,
     "DurationMs": 262,
     "Vel": 80
    },
    {
     "TimeMs": 4970,
     "Key": 38,
     "DurationMs": 262,
     "Vel": 80
    },
    {
     "TimeMs": 4971,
     "Key": 50,
     "DurationMs": 262,
     "Vel": 80
    },
    {
     "TimeMs": 5259,
     "Key": 57,
     "DurationMs": 175,
     "Vel": 80
    },
    {
     "TimeMs": 5260,
     "Key": 60,
     "DurationMs": 175,
     "Vel": 80
    },
    {
     "TimeMs": 5261,
     "Key": 65,
     "DurationMs": 175,
     "Vel": 80
    },
    {
     "TimeMs": 5262,
     "Key": 69,
     "DurationMs": 175,
     "Vel": 80
    },
    {
     "TimeMs": 5262,
     "Key": 38,
     "DurationMs": 84,
     "Vel": 80
    },
    {
     "TimeMs": 5357,
     "Key": 50,
     "DurationMs": 87,
     "Vel": 80
    },
    {
     "TimeMs": 5454,
     "Key": 57,
     "DurationMs": 262,
     "Vel": 80
    },
    {
     "TimeMs": 5455,
     "Key": 62,
     "DurationMs": 262,
     "Vel": 80
    },
    {
     "TimeMs": 5456,
     "Key": 65,
     "DurationMs": 262,
     "Vel": 80
    },
    {
     "TimeMs": 5456,
     "Key": 69,
     "DurationMs": 262,
     "Vel": 80
    },
    {
     "TimeMs": 5457,
     "Key": 38,
     "DurationMs": 64,
     "Vel": 80
    },
    {
     "TimeMs": 5551,
     "Key": 50,
     "DurationMs": 198,
     "Vel": 80
    },
    {
     "TimeMs": 5746,
     "Key": 57,
     "DurationMs": 262,
     "Vel": 80
    },
    {
     "TimeMs": 5747,
     "Key": 62,
     "DurationMs": 262,
     "Vel": 80
    },
    {
     "TimeMs": 5748,
     "Key": 65,
     "DurationMs": 262,
     "Vel": 80
    },
    {
     "TimeMs": 5749,
     "Key": 69,
     "DurationMs": 262,
     "Vel": 80
    },
    {
     "TimeMs": 5750,
     "Key": 38,
     "DurationMs": 64,
     "Vel": 80
    },
    {
     "TimeMs": 5844,
     "Key": 50,
     "DurationMs": 198,
     "Vel": 80
    },
    {
     "TimeMs": 6038,
     "Key": 57,
     "DurationMs": 175,
     "Vel": 80
    },
    {
     "TimeMs": 6039,
     "Key": 60,
     "DurationMs": 175,
     "Vel": 80
    },
    {
     "TimeMs": 6040,
     "Key": 64,
     "DurationMs": 175,
     "Vel": 80
    },
    {
     "TimeMs": 6041,
     "Key": 67,
     "DurationMs": 175,
     "Vel": 80
    },
    {
     "TimeMs": 6043,
     "Key": 38,
     "DurationMs": 174,
     "Vel": 80
    },
    {
     "TimeMs": 6043,
     "Key": 50,
     "DurationMs": 174,
     "Vel": 80
    },
    {
     "TimeMs": 6233,
     "Key": 53,
     "DurationMs": 350,
     "Vel": 80
    },
    {
     "TimeMs": 6234,
     "Key": 57,
     "DurationMs": 350,
     "Vel": 80
    },
    {
     "TimeMs": 6235,
     "Key": 62,
     "DurationMs": 350,
     "Vel": 80
    },
    {
     "TimeMs": 6236,
     "Key": 38,
     "DurationMs": 350,
     "Vel": 80
    },
    {
     "TimeMs": 6237,
     "Key": 50,
     "DurationMs": 350,
     "Vel": 80
    },
    {
     "TimeMs": 6623,
     "Key": 58,
     "DurationMs": 350,
     "Vel": 80
    },
    {
     "TimeMs": 6624,
     "Key": 62,
     "DurationMs": 350,
     "Vel": 80
    },
    {
     "TimeMs": 6624,
     "Key": 65,
     "DurationMs": 350,
     "Vel": 80
    },
    {
     "TimeMs": 6625,
     "Key": 53,
     "DurationMs": 350,
     "Vel": 80
    },
    {
     "TimeMs": 6626,
     "Key": 46,
     "DurationMs": 350,
     "Vel": 80
    },
    {
     "TimeMs": 7012,
     "Key": 60,
     "DurationMs": 350,
     "Vel": 80
    },
    {
     "TimeMs": 7013,
     "Key": 64,
     "DurationMs": 350,
     "Vel": 80
    },
    {
     "TimeMs": 7014,
     "Key": 67,
     "DurationMs": 350,
     "Vel": 80
    },
    {
     "TimeMs": 7015,
     "Key": 55,
     "DurationMs": 350,
     "Vel": 80
    },
    {
     "TimeMs": 7016,
     "Key": 46,
     "DurationMs": 350,
     "Vel": 80
    },
    {
     "TimeMs": 7402,
     "Key": 60,
     "DurationMs": 350,
     "Vel": 80
    },
    {
     "TimeMs": 7403,
     "Key": 64,
     "DurationMs": 350,
     "Vel": 80
    },
    {
     "TimeMs": 7404,
     "Key": 69,
     "DurationMs": 350,
     "Vel": 80
    },
    {
     "TimeMs": 7405,
     "Key": 45,
     "DurationMs": 85,
     "Vel": 80
    },
    {
     "TimeMs": 7405,
     "Key": 52,
     "DurationMs": 85,
     "Vel": 80
    },
    {
     "TimeMs": 7499,
     "Key": 40,
     "DurationMs": 87,
     "Vel": 80
    },
    {
     "TimeMs": 7597,
     "Key": 36,
     "DurationMs": 87,
     "Vel": 80
    },
    {
     "TimeMs": 7694,
     "Key": 33,
     "DurationMs": 87,
     "Vel": 80
    },
    {
     "TimeMs": 7792,
     "Key": 67,
     "DurationMs": 175,
     "Vel": 80
    },
    {
     "TimeMs": 7793,
     "Key": 34,
     "DurationMs": 175,
     "Vel": 80
    },
    {
     "TimeMs": 7793,
     "Key": 46,
     "DurationMs": 175,
     "Vel": 80
    },
    {
     "TimeMs": 7987,
     "Key": 69,
     "DurationMs": 175,
     "Vel": 80
    },
    {
     "TimeMs": 7987,
     "Key": 50,
     "DurationMs": 175,
     "Vel": 80
    },
    {
     "TimeMs": 7988,
     "Key": 53,
     "DurationMs": 175,
     "Vel": 80
    },
    {
     "TimeMs": 8181,
     "Key": 62,
     "DurationMs": 87,
     "Vel": 80
    },
    {
     "TimeMs": 8182,
     "Key": 46,
     "DurationMs": 174,
     "Vel": 80
    },
    {
     "TimeMs": 8279,
     "Key": 60,
     "DurationMs": 87,
     "Vel": 80
    },
    {
     "TimeMs": 8376,
     "Key": 62,
     "DurationMs": 87,
     "Vel": 80
    },
    {
     "TimeMs": 8377,
     "Key": 50,
     "DurationMs": 174,
     "Vel": 80
    },
    {
     "TimeMs": 8378,
     "Key": 53,
     "DurationMs": 174,
     "Vel": 80
    },
    {
     "TimeMs": 8474,
     "Key": 60,
     "DurationMs": 87,
     "Vel": 80
    },
    {
     "TimeMs": 8571,
     "Key": 67,
     "DurationMs": 175,
     "Vel": 80
    },
    {
     "TimeMs": 8572,
     "Key": 36,
     "DurationMs": 175,
     "Vel": 80
    },
    {
     "TimeMs": 8573,
     "Key": 48,
     "DurationMs": 175,
     "Vel": 80
    },
    {
     "TimeMs": 8766,
     "Key": 69,
     "DurationMs": 175,
     "Vel": 80
    },
    {
     "TimeMs": 8767,
     "Key": 52,
     "DurationMs": 175,
     "Vel": 80
    },
    {
     "TimeMs": 8767,
     "Key": 55,
     "DurationMs": 175,
     "Vel": 80
    },
    {
     "TimeMs": 8961,
     "Key": 62,
     "DurationMs": 87,
     "Vel": 80
    },
    {
     "TimeMs": 8961,
     "Key": 48,
     "DurationMs": 174,
     "Vel": 80
    },
    {
     "TimeMs": 9058,
     "Key": 60,
     "DurationMs": 87,
     "Vel": 80
    },
    {
     "TimeMs": 9155,
     "Key": 62,
     "DurationMs": 87,
     "Vel": 80
    },
    {
     "TimeMs": 9156,
     "Key": 52,
     "DurationMs": 174,
     "Vel": 80
    },
    {
     "TimeMs": 9157,
     "Key": 55,
     "DurationMs": 174,
     "Vel": 80
    },
    {
     "TimeMs": 9253,
     "Key": 60,
     "DurationMs": 87,
     "Vel": 80
    },
    {
     "TimeMs": 9350,
     "Key": 67,
     "DurationMs": 175,
     "Vel": 80
    },
    {
     "TimeMs": 9351,
     "Key": 38,
     "DurationMs": 175,
     "Vel": 80
    },
    {
     "TimeMs": 9352,
     "Key": 50,
     "DurationMs": 175,
     "Vel": 80
    },
    {
     "TimeMs": 9545,
     "Key": 69,
     "DurationMs": 175,
     "Vel": 80
    },
    {
     "TimeMs": 9546,
     "Key": 53,
     "DurationMs": 175,
     "Vel": 80
    },
    {
     "TimeMs": 9547,
     "Key": 57,
     "DurationMs": 175,
     "Vel": 80
    },
    {
     "TimeMs": 9740,
     "Key": 62,
     "DurationMs": 87,
     "Vel": 80
    },
    {
     "TimeMs": 9741,
     "Key": 41,
     "DurationMs": 174,
     "Vel": 80
    },
    {
     "TimeMs": 9837,
     "Key": 60,
     "DurationMs": 87,
     "Vel": 80
    },
    {
     "TimeMs": 9935,
     "Key": 62,
     "DurationMs": 87,
     "Vel": 80
    },
    {
     "TimeMs": 9935,
     "Key": 53,
     "DurationMs": 174,
     "Vel": 80
    },
    {
     "TimeMs": 9936,
     "Key": 57,
     "DurationMs": 174,
     "Vel": 80
    },
    {
     "TimeMs": 10032,
     "Key": 60,
     "DurationMs": 87,
     "Vel": 80
    },
    {
     "TimeMs": 10129,
     "Key": 45,
     "DurationMs": 175,
     "Vel": 80
    },
    {
     "TimeMs": 10130,
     "Key": 53,
     "DurationMs": 175,
     "Vel": 80
    },
    {
     "TimeMs": 10142,
     "Key": 64,
     "DurationMs": 175,
     "Vel": 80
    },
    {
     "TimeMs": 10154,
     "Key": 65,
     "DurationMs": 175,
     "Vel": 80
    },
    {
     "TimeMs": 10324,
     "Key": 64,
     "DurationMs": 87,
     "Vel": 80
    },
    {
     "TimeMs": 10325,
     "Key": 50,
     "DurationMs": 174,
     "Vel": 80
    },
    {
     "TimeMs": 10326,
     "Key": 57,
     "DurationMs": 174,
     "Vel": 80
    },
    {
     "TimeMs": 10422,
     "Key": 65,
     "DurationMs": 43,
     "Vel": 80
    },
    {
     "TimeMs": 10470,
     "Key": 64,
     "DurationMs": 43,
     "Vel": 80
    },
    {
     "TimeMs": 10519,
     "Key": 62,
     "DurationMs": 175,
     "Vel": 80
    },
    {
     "TimeMs": 10520,
     "Key": 41,
     "DurationMs": 175,
     "Vel": 80
    },
    {
     "TimeMs": 10521,
     "Key": 53,
     "DurationMs": 175,
     "Vel": 80
    },
    {
     "TimeMs": 10714,
     "Key": 60,
     "DurationMs": 175,
     "Vel": 80
    },
    {
     "TimeMs": 10715,
     "Key": 45,
     "DurationMs": 175,
     "Vel": 80
    },
    {
     "TimeMs": 10715,
     "Key": 50,
     "DurationMs": 175,
     "Vel": 80
    },
    {
     "TimeMs": 10909,
     "Key": 67,
     "DurationMs": 175,
     "Vel": 80
    },
    {
     "TimeMs": 10909,
     "Key": 34,
     "DurationMs": 175,
     "Vel": 80
    },
    {
     "TimeMs": 10910,
     "Key": 46,
     "DurationMs": 175,
     "Vel": 80
    },
    {
     "TimeMs": 11103,
     "Key": 69,
     "DurationMs": 175,
     "Vel": 80
    },
    {
     "TimeMs": 11104,
     "Key": 50,
     "DurationMs": 175,
     "Vel": 80
    },
    {
     "TimeMs": 11105,
     "Key": 53,
     "DurationMs": 175,
     "Vel": 80
    },
    {
     "TimeMs": 11298,
     "Key": 62,
     "DurationMs": 87,
     "Vel": 80
    },
    {
     "TimeMs": 11299,
     "Key": 46,
     "DurationMs": 174,
     "Vel": 80
    },
    {
     "TimeMs": 11396,
     "Key": 60,
     "DurationMs": 87,
     "Vel": 80
    },
    {
     "TimeMs": 11493,
     "Key": 62,
     "DurationMs": 87,
     "Vel": 80
    },
    {
     "TimeMs": 11494,
     "Key": 50,
     "DurationMs": 174,
     "Vel": 80
    },
    {
     "TimeMs": 11495,
     "Key": 53,
     "DurationMs": 174,
     "Vel": 80
    },
    {
     "TimeMs": 11590,
     "Key": 60,
     "DurationMs": 87,
     "Vel": 80
    },
    {
     "TimeMs": 11688,
     "Key": 67,
     "DurationMs": 175,
     "Vel": 80
    },
    {
     "TimeMs": 11689,
     "Key": 36,
     "DurationMs": 175,
     "Vel": 80
    },
    {
     "TimeMs": 11689,
     "Key": 48,
     "DurationMs": 175,
     "Vel": 80
    },
    {
     "TimeMs": 11883,
     "Key": 69,
     "DurationMs": 175,
     "Vel": 80
    },
    {
     "TimeMs": 11883,
     "Key": 52,
     "DurationMs": 175,
     "Vel": 80
    },
    {
     "TimeMs": 11884,
     "Key": 55,
     "DurationMs": 175,
     "Vel": 80
    },
    {
     "TimeMs": 12077,
     "Key": 62,
     "DurationMs": 87,
     "Vel": 80
    },
    {
     "TimeMs": 12078,
     "Key": 48,
     "DurationMs": 174,
     "Vel": 80
    },
    {
     "TimeMs": 12175,
     "Key": 60,
     "DurationMs": 87,
     "Vel": 80
    },
    {
     "TimeMs": 12272,
     "Key": 62,
     "DurationMs": 87,
     "Vel": 80
    },
    {
     "TimeMs": 12273,
     "Key": 52,
     "DurationMs": 174,
     "Vel": 80
    },
    {
     "TimeMs": 12274,
     "Key": 55,
     "DurationMs": 174,
     "Vel": 80
    },
    {
     "TimeMs": 12370,
     "Key": 60,
     "DurationMs": 87,
     "Vel": 80
    },
    {
     "TimeMs": 12467,
     "Key": 67,
     "DurationMs": 175,
     "Vel": 80
    },
    {
     "TimeMs": 12468,
     "Key": 38,
     "DurationMs": 175,
     "Vel": 80
    },
    {
     "TimeMs": 12662,
     "Key": 69,
     "DurationMs": 175,
     "Vel": 80
    },
    {
     "TimeMs": 12663,
     "Key": 57,
     "DurationMs": 175,
     "Vel": 80
    },
    {
     "TimeMs": 12663,
     "Key": 50,
     "DurationMs": 175,
     "Vel": 80
    },
    {
     "TimeMs": 12857,
     "Key": 72,
     "DurationMs": 175,
     "Vel": 80
    },
    {
     "TimeMs": 12857,
     "Key": 41,
     "DurationMs": 175,
     "Vel": 80
    },
    {
     "TimeMs": 13051,
     "Key": 77,
     "DurationMs": 175,
     "Vel": 80
    },
    {
     "TimeMs": 13052,
     "Key": 62,
     "DurationMs": 175,
     "Vel": 80
    },
    {
     "TimeMs": 13053,
     "Key": 53,
     "DurationMs": 175,
     "Vel": 80
    },
    {
     "TimeMs": 13246,
     "Key": 76,
     "DurationMs": 87,
     "Vel": 80
    },
    {
     "TimeMs": 13247,
     "Key": 57,
     "DurationMs": 174,
     "Vel": 80
    },
    {
     "TimeMs": 13248,
     "Key": 45,
     "DurationMs": 174,
     "Vel": 80
    },
    {
     "TimeMs": 13344,
     "Key": 77,
     "DurationMs": 87,
     "Vel": 80
    },
    {
     "TimeMs": 13441,
     "Key": 76,
     "DurationMs": 87,
     "Vel": 80
    },
    {
     "TimeMs": 13442,
     "Key": 60,
     "DurationMs": 174,
     "Vel": 80
    },
    {
     "TimeMs": 13443,
     "Key": 53,
     "DurationMs": 174,
     "Vel": 80
    },
    {
     "TimeMs": 13538,
     "Key": 74,
     "DurationMs": 87,
     "Vel": 80
    },
    {
     "TimeMs": 13636,
     "Key": 72,
     "DurationMs": 175,
     "Vel": 80
    },
    {
     "TimeMs": 13637,
     "Key": 62,
     "DurationMs": 175,
     "Vel": 80
    },
    {
     "TimeMs": 13637,
     "Key": 57,
     "DurationMs": 175,
     "Vel": 80
    },
    {
     "TimeMs": 13638,
     "Key": 50,
     "DurationMs": 175,
     "Vel": 80
    },
    {
     "TimeMs": 13831,
     "Key": 69,
     "DurationMs": 175,
     "Vel": 80
    },
    {
     "TimeMs": 13831,
     "Key": 50,
     "DurationMs": 86,
     "Vel": 80
    },
    {
     "TimeMs": 13928,
     "Key": 38,
     "DurationMs": 87,
     "Vel": 80
    },
    {
     "TimeMs": 14025,
     "Key": 67,
     "DurationMs": 175,
     "Vel": 80
    },
    {
     "TimeMs": 14026,
     "Key": 34,
     "DurationMs": 175,
     "Vel": 80
    },
    {
     "TimeMs": 14027,
     "Key": 46,
     "DurationMs": 175,
     "Vel": 80
    },
    {
     "TimeMs": 14220,
     "Key": 69,
     "DurationMs": 175,
     "Vel": 80
    },
    {
     "TimeMs": 14221,
     "Key": 50,
     "DurationMs": 175,
     "Vel": 80
    },
    {
     "TimeMs": 14222,
     "Key": 53,
     "DurationMs": 175,
     "Vel": 80
    },
    {
     "TimeMs": 14415,
     "Key": 62,
     "DurationMs": 87,
     "Vel": 80
    },
    {
     "TimeMs": 14416,
     "Key": 46,
     "DurationMs": 174,
     "Vel": 80
    },
    {
     "TimeMs": 14512,
     "Key": 60,
     "DurationMs": 87,
     "Vel": 80
    },
    {
     "TimeMs": 14610,
     "Key": 62,
     "DurationMs": 87,
     "Vel": 80
    },
    {
     "TimeMs": 14611,
     "Key": 50,
     "DurationMs": 174,
     "Vel": 80
    },
    {
     "TimeMs": 14611,
     "Key": 53,
     "DurationMs": 174,
     "Vel": 80
    },
    {
     "TimeMs": 14707,
     "Key": 60,
     "DurationMs": 87,
     "Vel": 80
    },
    {
     "TimeMs": 14805,
     "Key": 67,
     "DurationMs": 175,
     "Vel": 80
    },
    {
     "TimeMs": 14805,
     "Key": 36,
     "DurationMs": 175,
     "Vel": 80
    },
    {
     "TimeMs": 14806,
     "Key": 48,
     "DurationMs": 175,
     "Vel": 80
    },
    {
     "TimeMs": 14999,
     "Key": 69,
     "DurationMs": 175,
     "Vel": 80
    },
    {
     "TimeMs": 15000,
     "Key": 52,
     "DurationMs": 175,
     "Vel": 80
    },
    {
     "TimeMs": 15001,
     "Key": 55,
     "DurationMs": 175,
     "Vel": 80
    },
    {
     "TimeMs": 15194,
     "Key": 62,
     "DurationMs": 87,
     "Vel": 80
    },
    {
     "TimeMs": 15195,
     "Key": 48,
     "DurationMs": 174,
     "Vel": 80
    },
    {
     "TimeMs": 15292,
     "Key": 60,
     "DurationMs": 87,
     "Vel": 80
    },
    {
     "TimeMs": 15389,
     "Key": 62,
     "DurationMs": 87,
     "Vel": 80
    },
    {
     "TimeMs": 15390,
     "Key": 52,
     "DurationMs": 174,
     "Vel": 80
    },
    {
     "TimeMs": 15391,
     "Key": 55,
     "DurationMs": 174,
     "Vel": 80
    },
    {
     "TimeMs": 15486,
     "Key": 60,
     "DurationMs": 87,
     "Vel": 80
    },
    {
     "TimeMs": 15584,
     "Key": 67,
     "DurationMs": 175,
     "Vel": 80
    },
    {
     "TimeMs": 15585,
     "Key": 38,
     "DurationMs": 175,
     "Vel": 80
    },
    {
     "TimeMs": 15586,
     "Key": 50,
     "DurationMs": 175,
     "Vel": 80
    },
    {
     "TimeMs": 15779,
     "Key": 69,
     "DurationMs": 175,
     "Vel": 80
    },
    {
     "TimeMs": 15780,
     "Key": 53,
     "DurationMs": 175,
     "Vel": 80
    },
    {
     "TimeMs": 15780,
     "Key": 57,
     "DurationMs": 175,
     "Vel": 80
    },
    {
     "TimeMs": 15974,
     "Key": 62,
     "DurationMs": 87,
     "Vel": 80
    },
    {
     "TimeMs": 15974,
     "Key": 41,
     "DurationMs": 174,
     "Vel": 80
    },
    {
     "TimeMs": 16071,
     "Key": 60,
     "DurationMs": 87,
     "Vel": 80
    },
    {
     "TimeMs": 16168,
     "Key": 62,
     "DurationMs": 87,
     "Vel": 80
    },
    {
     "TimeMs": 16169,
     "Key": 53,
     "DurationMs": 174,
     "Vel": 80
    },
    {
     "TimeMs": 16170,
     "Key": 57,
     "DurationMs": 174,
     "Vel": 80
    },
    {
     "TimeMs": 16266,
     "Key": 60,
     "DurationMs": 87,
     "Vel": 80
    },
    {
     "TimeMs": 16363,
     "Key": 45,
     "DurationMs": 175,
     "Vel": 80
    },
    {
     "TimeMs": 16364,
     "Key": 53,
     "DurationMs": 175,
     "Vel": 80
    },
    {
     "TimeMs": 16375,
     "Key": 64,
     "DurationMs": 175,
     "Vel": 80
    },
    {
     "TimeMs": 16387,
     "Key": 65,
     "DurationMs": 175,
     "Vel": 80
    },
    {
     "TimeMs": 16558,
     "Key": 64,
     "DurationMs": 87,
     "Vel": 80
    },
    {
     "TimeMs": 16559,
     "Key": 50,
     "DurationMs": 174,
     "Vel": 80
    },
    {
     "TimeMs": 16560,
     "Key": 57,
     "DurationMs": 174,
     "Vel": 80
    },
    {
     "TimeMs": 16655,
     "Key": 65,
     "DurationMs": 43,
     "Vel": 80
    },
    {
     "TimeMs": 16704,
     "Key": 64,
     "DurationMs": 43,
     "Vel": 80
    },
    {
     "TimeMs": 16753,
     "Key": 62,
     "DurationMs": 175,
     "Vel": 80
    },
    {
     "TimeMs": 16754,
     "Key": 41,
     "DurationMs": 175,
     "Vel": 80
    },
    {
     "TimeMs": 16754,
     "Key": 53,
     "DurationMs": 175,
     "Vel": 80
    },
    {
     "TimeMs": 16948,
     "Key": 60,
     "DurationMs": 175,
     "Vel": 80
    },
    {
     "TimeMs": 16948,
     "Key": 45,
     "DurationMs": 175,
     "Vel": 80
    },
    {
     "TimeMs": 16949,
     "Key": 50,
     "DurationMs": 175,
     "Vel": 80
    },
    {
     "TimeMs": 17142,
     "Key": 62,
     "DurationMs": 175,
     "Vel": 80
    },
    {
     "TimeMs": 17143,
     "Key": 34,
     "DurationMs": 175,
     "Vel": 80
    },
    {
     "TimeMs": 17144,
     "Key": 46,
     "DurationMs": 175,
     "Vel": 80
    },
    {
     "TimeMs": 17337,
     "Key": 60,
     "DurationMs": 87,
     "Vel": 80
    },
    {
     "TimeMs": 17338,
     "Key": 50,
     "DurationMs": 174,
     "Vel": 80
    },
    {
     "TimeMs": 17339,
     "Key": 53,
     "DurationMs": 174,
     "Vel": 80
    },
    {
     "TimeMs": 17435,
     "Key": 62,
     "DurationMs": 87,
     "Vel": 80
    },
    {
     "TimeMs": 17532,
     "Key": 65,
     "DurationMs": 175,
     "Vel": 80
    },
    {
     "TimeMs": 17533,
     "Key": 46,
     "DurationMs": 175,
     "Vel": 80
    },
    {
     "TimeMs": 17727,
     "Key": 62,
     "DurationMs": 87,
     "Vel": 80
    },
    {
     "TimeMs": 17728,
     "Key": 50,
     "DurationMs": 174,
     "Vel": 80
    },
    {
     "TimeMs": 17728,
     "Key": 53,
     "DurationMs": 174,
     "Vel": 80
    },
    {
     "TimeMs": 17824,
     "Key": 67,
     "DurationMs": 87,
     "Vel": 80
    },
    {
     "TimeMs": 17922,
     "Key": 69,
     "DurationMs": 175,
     "Vel": 80
    },
    {
     "TimeMs": 17922,
     "Key": 36,
     "DurationMs": 175,
     "Vel": 80
    },
    {
     "TimeMs": 17923,
     "Key": 48,
     "DurationMs": 175,
     "Vel": 80
    },
    {
     "TimeMs": 18116,
     "Key": 67,
     "DurationMs": 87,
     "Vel": 80
    },
    {
     "TimeMs": 18117,
     "Key": 52,
     "DurationMs": 174,
     "Vel": 80
    },
    {
     "TimeMs": 18118,
     "Key": 55,
     "DurationMs": 174,
     "Vel": 80
    },
    {
     "TimeMs": 18214,
     "Key": 69,
     "DurationMs": 87,
     "Vel": 80
    },
    {
     "TimeMs": 18311,
     "Key": 72,
     "DurationMs": 87,
     "Vel": 80
    },
    {
     "TimeMs": 18312,
     "Key": 48,
     "DurationMs": 174,
     "Vel": 80
    },
    {
     "TimeMs": 18409,
     "Key": 77,
     "DurationMs": 87,
     "Vel": 80
    },
    {
     "TimeMs": 18506,
     "Key": 69,
     "DurationMs": 87,
     "Vel": 80
    },
    {
     "TimeMs": 18507,
     "Key": 52,
     "DurationMs": 174,
     "Vel": 80
    },
    {
     "TimeMs": 18508,
     "Key": 55,
     "DurationMs": 174,
     "Vel": 80
    },
    {
     "TimeMs": 18603,
     "Key": 72,
     "DurationMs": 87,
     "Vel": 80
    },
    {
     "TimeMs": 18701,
     "Key": 77,
     "DurationMs": 175,
     "Vel": 80
    },
    {
     "TimeMs": 18702,
     "Key": 69,
     "DurationMs": 175,
     "Vel": 80
    },
    {
     "TimeMs": 18702,
     "Key": 38,
     "DurationMs": 291,
     "Vel": 80
    },
    {
     "TimeMs": 18703,
     "Key": 45,
     "DurationMs": 291,
     "Vel": 80
    },
    {
     "TimeMs": 18704,
     "Key": 50,
     "DurationMs": 291,
     "Vel": 80
    },
    {
     "TimeMs": 18896,
     "Key": 76,
     "DurationMs": 43,
     "Vel": 80
    },
    {
     "TimeMs": 18944,
     "Key": 77,
     "DurationMs": 43,
     "Vel": 80
    },
    {
     "TimeMs": 18993,
     "Key": 76,
     "DurationMs": 87,
     "Vel": 80
    },
    {
     "TimeMs": 18996,
     "Key": 38,
     "DurationMs": 290,
     "Vel": 80
    },
    {
     "TimeMs": 18997,
     "Key": 45,
     "DurationMs": 290,
     "Vel": 80
    },
    {
     "TimeMs": 18998,
     "Key": 50,
     "DurationMs": 290,
     "Vel": 80
    },
    {
     "TimeMs": 19090,
     "Key": 74,
     "DurationMs": 175,
     "Vel": 80
    },
    {
     "TimeMs": 19285,
     "Key": 72,
     "DurationMs": 175,
     "Vel": 80
    },
    {
     "TimeMs": 19286,
     "Key": 69,
     "DurationMs": 175,
     "Vel": 80
    },
    {
     "TimeMs": 19289,
     "Key": 41,
     "DurationMs": 172,
     "Vel": 80
    },
    {
     "TimeMs": 19290,
     "Key": 48,
     "DurationMs": 172,
     "Vel": 80
    },
    {
     "TimeMs": 19291,
     "Key": 53,
     "DurationMs": 172,
     "Vel": 80
    },
    {
     "TimeMs": 19480,
     "Key": 74,
     "DurationMs": 175,
     "Vel": 80
    },
    {
     "TimeMs": 19481,
     "Key": 69,
     "DurationMs": 175,
     "Vel": 80
    },
    {
     "TimeMs": 19482,
     "Key": 38,
     "DurationMs": 349,
     "Vel": 80
    },
    {
     "TimeMs": 19482,
     "Key": 45,
     "DurationMs": 349,
     "Vel": 80
    },
    {
     "TimeMs": 19483,
     "Key": 50,
     "DurationMs": 349,
     "Vel": 80
    },
    {
     "TimeMs": 19675,
     "Key": 72,
     "DurationMs": 175,
     "Vel": 80
    },
    {
     "TimeMs": 19870,
     "Key": 74,
     "DurationMs": 175,
     "Vel": 80
    },
    {
     "TimeMs": 19870,
     "Key": 69,
     "DurationMs": 175,
     "Vel": 80
    },
    {
     "TimeMs": 19871,
     "Key": 50,
     "DurationMs": 86,
     "Vel": 80
    },
    {
     "TimeMs": 19967,
     "Key": 45,
     "DurationMs": 87,
     "Vel": 80
    },
    {
     "TimeMs": 20064,
     "Key": 77,
     "DurationMs": 175,
     "Vel": 80
    },
    {
     "TimeMs": 20065,
     "Key": 72,
     "DurationMs": 175,
     "Vel": 80
    },
    {
     "TimeMs": 20066,
     "Key": 41,
     "DurationMs": 86,
     "Vel": 80
    },
    {
     "TimeMs": 20162,
     "Key": 38,
     "DurationMs": 87,
     "Vel": 80
    },
    {
     "TimeMs": 20259,
     "Key": 79,
     "DurationMs": 175,
     "Vel": 80
    },
    {
     "TimeMs": 20260,
     "Key": 74,
     "DurationMs": 175,
     "Vel": 80
    },
    {
     "TimeMs": 20261,
     "Key": 67,
     "DurationMs": 175,
     "Vel": 80
    },
    {
     "TimeMs": 20262,
     "Key": 34,
     "DurationMs": 175,
     "Vel": 80
    },
    {
     "TimeMs": 20262,
     "Key": 46,
     "DurationMs": 175,
     "Vel": 80
    },
    {
     "TimeMs": 20454,
     "Key": 81,
     "DurationMs": 175,
     "Vel": 80
    },
    {
     "TimeMs": 20455,
     "Key": 69,
     "DurationMs": 175,
     "Vel": 80
    },
    {
     "TimeMs": 20456,
     "Key": 53,
     "DurationMs": 175,
     "Vel": 80
    },
    {
     "TimeMs": 20456,
     "Key": 58,
     "DurationMs": 175,
     "Vel": 80
    },
    {
     "TimeMs": 20457,
     "Key": 62,
     "DurationMs": 175,
     "Vel": 80
    },
    {
     "TimeMs": 20649,
     "Key": 74,
     "DurationMs": 87,
     "Vel": 80
    },
    {
     "TimeMs": 20650,
     "Key": 62,
     "DurationMs": 87,
     "Vel": 80
    },
    {
     "TimeMs": 20650,
     "Key": 46,
     "DurationMs": 173,
     "Vel": 80
    },
    {
     "TimeMs": 20746,
     "Key": 72,
     "DurationMs": 87,
     "Vel": 80
    },
    {
     "TimeMs": 20844,
     "Key": 74,
     "DurationMs": 87,
     "Vel": 80
    },
    {
     "TimeMs": 20844,
     "Key": 53,
     "DurationMs": 174,
     "Vel": 80
    },
    {
     "TimeMs": 20845,
     "Key": 58,
     "DurationMs": 174,
     "Vel": 80
    },
    {
     "TimeMs": 20846,
     "Key": 62,
     "DurationMs": 174,
     "Vel": 80
    },
    {
     "TimeMs": 20941,
     "Key": 72,
     "DurationMs": 87,
     "Vel": 80
    },
    {
     "TimeMs": 21038,
     "Key": 79,
     "DurationMs": 175,
     "Vel": 80
    },
    {
     "TimeMs": 21039,
     "Key": 67,
     "DurationMs": 175,
     "Vel": 80
    },
    {
     "TimeMs": 21040,
     "Key": 48,
     "DurationMs": 175,
     "Vel": 80
    },
    {
     "TimeMs": 21041,
     "Key": 36,
     "DurationMs": 175,
     "Vel": 80
    },
    {
     "TimeMs": 21233,
     "Key": 81,
     "DurationMs": 175,
     "Vel": 80
    },
    {
     "TimeMs": 21234,
     "Key": 69,
     "DurationMs": 175,
     "Vel": 80
    },
    {
     "TimeMs": 21235,
     "Key": 64,
     "DurationMs": 175,
     "Vel": 80
    },
    {
     "TimeMs": 21236,
     "Key": 60,
     "DurationMs": 175,
     "Vel": 80
    },
    {
     "TimeMs": 21236,
     "Key": 55,
     "DurationMs": 175,
     "Vel": 80
    },
    {
     "TimeMs": 21428,
     "Key": 74,
     "DurationMs": 87,
     "Vel": 80
    },
    {
     "TimeMs": 21429,
     "Key": 62,
     "DurationMs": 87,
     "Vel": 80
    },
    {
     "TimeMs": 21430,
     "Key": 48,
     "DurationMs": 173,
     "Vel": 80
    },
    {
     "TimeMs": 21525,
     "Key": 72,
     "DurationMs": 87,
     "Vel": 80
    },
    {
     "TimeMs": 21623,
     "Key": 74,
     "DurationMs": 87,
     "Vel": 80
    },
    {
     "TimeMs": 21624,
     "Key": 64,
     "DurationMs": 174,
     "Vel": 80
    },
    {
     "TimeMs": 21624,
     "Key": 60,
     "DurationMs": 174,
     "Vel": 80
    },
    {
     "TimeMs": 21625,
     "Key": 55,
     "DurationMs": 174,
     "Vel": 80
    },
    {
     "TimeMs": 21720,
     "Key": 72,
     "DurationMs": 87,
     "Vel": 80
    },
    {
     "TimeMs": 21818,
     "Key": 79,
     "DurationMs": 175,
     "Vel": 80
    },
    {
     "TimeMs": 21818,
     "Key": 74,
     "DurationMs": 175,
     "Vel": 80
    },
    {
     "TimeMs": 21819,
     "Key": 67,
     "DurationMs": 175,
     "Vel": 80
    },
    {
     "TimeMs": 21820,
     "Key": 50,
     "DurationMs": 175,
     "Vel": 80
    },
    {
     "TimeMs": 21821,
     "Key": 38,
     "DurationMs": 175,
     "Vel": 80
    },
    {
     "TimeMs": 22012,
     "Key": 81,
     "DurationMs": 175,
     "Vel": 80
    },
    {
     "TimeMs": 22013,
     "Key": 69,
     "DurationMs": 175,
     "Vel": 80
    },
    {
     "TimeMs": 22014,
     "Key": 62,
     "DurationMs": 175,
     "Vel": 80
    },
    {
     "TimeMs": 22015,
     "Key": 57,
     "DurationMs": 175,
     "Vel": 80
    },
    {
     "TimeMs": 22016,
     "Key": 53,
     "DurationMs": 175,
     "Vel": 80
    },
    {
     "TimeMs": 22207,
     "Key": 74,
     "DurationMs": 87,
     "Vel": 80
    },
    {
     "TimeMs": 22208,
     "Key": 62,
     "DurationMs": 87,
     "Vel": 80
    },
    {
     "TimeMs": 22209,
     "Key": 41,
     "DurationMs": 173,
     "Vel": 80
    },
    {
     "TimeMs": 22305,
     "Key": 72,
     "DurationMs": 87,
     "Vel": 80
    },
    {
     "TimeMs": 22402,
     "Key": 74,
     "DurationMs": 87,
     "Vel": 80
    },
    {
     "TimeMs": 22403,
     "Key": 62,
     "DurationMs": 174,
     "Vel": 80
    },
    {
     "TimeMs": 22404,
     "Key": 57,
     "DurationMs": 174,
     "Vel": 80
    },
    {
     "TimeMs": 22405,
     "Key": 53,
     "DurationMs": 174,
     "Vel": 80
    },
    {
     "TimeMs": 22499,
     "Key": 72,
     "DurationMs": 87,
     "Vel": 80
    },
    {
     "TimeMs": 22573,
     "Key": 69,
     "DurationMs": 175,
     "Vel": 80
    },
    {
     "TimeMs": 22590,
     "Key": 74,
     "DurationMs": 175,
     "Vel": 80
    },
    {
     "TimeMs": 22597,
     "Key": 53,
     "DurationMs": 175,
     "Vel": 80
    },
    {
     "TimeMs": 22598,
     "Key": 45,
     "DurationMs": 175,
     "Vel": 80
    },
    {
     "TimeMs": 22609,
     "Key": 76,
     "DurationMs": 175,
     "Vel": 80
    },
    {
     "TimeMs": 22627,
     "Key": 77,
     "DurationMs": 175,
     "Vel": 80
    },
    {
     "TimeMs": 22792,
     "Key": 76,
     "DurationMs": 87,
     "Vel": 80
    },
    {
     "TimeMs": 22792,
     "Key": 64,
     "DurationMs": 87,
     "Vel": 80
    },
    {
     "TimeMs": 22793,
     "Key": 57,
     "DurationMs": 173,
     "Vel": 80
    },
    {
     "TimeMs": 22794,
     "Key": 50,
     "DurationMs": 173,
     "Vel": 80
    },
    {
     "TimeMs": 22889,
     "Key": 77,
     "DurationMs": 43,
     "Vel": 80
    },
    {
     "TimeMs": 22938,
     "Key": 76,
     "DurationMs": 43,
     "Vel": 80
    },
    {
     "TimeMs": 22986,
     "Key": 62,
     "DurationMs": 175,
     "Vel": 80
    },
    {
     "TimeMs": 22987,
     "Key": 69,
     "DurationMs": 175,
     "Vel": 80
    },
    {
     "TimeMs": 22988,
     "Key": 74,
     "DurationMs": 175,
     "Vel": 80
    },
    {
     "TimeMs": 22989,
     "Key": 38,
     "DurationMs": 85,
     "Vel": 80
    },
    {
     "TimeMs": 23084,
     "Key": 45,
     "DurationMs": 87,
     "Vel": 80
    },
    {
     "TimeMs": 23181,
     "Key": 60,
     "DurationMs": 175,
     "Vel": 80
    },
    {
     "TimeMs": 23182,
     "Key": 72,
     "DurationMs": 175,
     "Vel": 80
    },
    {
     "TimeMs": 23183,
     "Key": 50,
     "DurationMs": 86,
     "Vel": 80
    },
    {
     "TimeMs": 23279,
     "Key": 45,
     "DurationMs": 87,
     "Vel": 80
    },
    {
     "TimeMs": 23376,
     "Key": 79,
     "DurationMs": 175,
     "Vel": 80
    },
    {
     "TimeMs": 23377,
     "Key": 74,
     "DurationMs": 175,
     "Vel": 80
    },
    {
     "TimeMs": 23378,
     "Key": 67,
     "DurationMs": 175,
     "Vel": 80
    },
    {
     "TimeMs": 23379,
     "Key": 34,
     "DurationMs": 175,
     "Vel": 80
    },
    {
     "TimeMs": 23379,
     "Key": 46,
     "DurationMs": 175,
     "Vel": 80
    },
    {
     "TimeMs": 23571,
     "Key": 81,
     "DurationMs": 175,
     "Vel": 80
    },
    {
     "TimeMs": 23572,
     "Key": 69,
     "DurationMs": 175,
     "Vel": 80
    },
    {
     "TimeMs": 23573,
     "Key": 53,
     "DurationMs": 175,
     "Vel": 80
    },
    {
     "TimeMs": 23573,
     "Key": 58,
     "DurationMs": 175,
     "Vel": 80
    },
    {
     "TimeMs": 23574,
     "Key": 62,
     "DurationMs": 175,
     "Vel": 80
    },
    {
     "TimeMs": 23766,
     "Key": 74,
     "DurationMs": 87,
     "Vel": 80
    },
    {
     "TimeMs": 23767,
     "Key": 62,
     "DurationMs": 87,
     "Vel": 80
    },
    {
     "TimeMs": 23767,
     "Key": 46,
     "DurationMs": 173,
     "Vel": 80
    },
    {
     "TimeMs": 23863,
     "Key": 72,
     "DurationMs": 87,
     "Vel": 80
    },
    {
     "TimeMs": 23961,
     "Key": 74,
     "DurationMs": 87,
     "Vel": 80
    },
    {
     "TimeMs": 23961,
     "Key": 53,
     "DurationMs": 174,
     "Vel": 80
    },
    {
     "TimeMs": 23962,
     "Key": 58,
     "DurationMs": 174,
     "Vel": 80
    },
    {
     "TimeMs": 23963,
     "Key": 62,
     "DurationMs": 174,
     "Vel": 80
    },
    {
     "TimeMs": 24058,
     "Key": 72,
     "DurationMs": 87,
     "Vel": 80
    },
    {
     "TimeMs": 24155,
     "Key": 79,
     "DurationMs": 175,
     "Vel": 80
    },
    {
     "TimeMs": 24156,
     "Key": 67,
     "DurationMs": 175,
     "Vel": 80
    },
    {
     "TimeMs": 24157,
     "Key": 48,
     "DurationMs": 175,
     "Vel": 80
    },
    {
     "TimeMs": 24158,
     "Key": 36,
     "DurationMs": 175,
     "Vel": 80
    },
    {
     "TimeMs": 24350,
     "Key": 81,
     "DurationMs": 175,
     "Vel": 80
    },
    {
     "TimeMs": 24351,
     "Key": 69,
     "DurationMs": 175,
     "Vel": 80
    },
    {
     "TimeMs": 24352,
     "Key": 64,
     "DurationMs": 175,
     "Vel": 80
    },
    {
     "TimeMs": 24353,
     "Key": 60,
     "DurationMs": 175,
     "Vel": 80
    },
    {
     "TimeMs": 24353,
     "Key": 55,
     "DurationMs": 175,
     "Vel": 80
    },
    {
     "TimeMs": 24545,
     "Key": 74,
     "DurationMs": 87,
     "Vel": 80
    },
    {
     "TimeMs": 24546,
     "Key": 62,
     "DurationMs": 87,
     "Vel": 80
    },
    {
     "TimeMs": 24547,
     "Key": 48,
     "DurationMs": 173,
     "Vel": 80
    },
    {
     "TimeMs": 24642,
     "Key": 72,
     "DurationMs": 87,
     "Vel": 80
    },
    {
     "TimeMs": 24740,
     "Key": 74,
     "DurationMs": 87,
     "Vel": 80
    },
    {
     "TimeMs": 24741,
     "Key": 64,
     "DurationMs": 174,
     "Vel": 80
    },
    {
     "TimeMs": 24741,
     "Key": 60,
     "DurationMs": 174,
     "Vel": 80
    },
    {
     "TimeMs": 24742,
     "Key": 55,
     "DurationMs": 174,
     "Vel": 80
    },
    {
     "TimeMs": 24837,
     "Key": 72,
     "DurationMs": 87,
     "Vel": 80
    },
    {
     "TimeMs": 24890,
     "Key": 77,
     "DurationMs": 43,
     "Vel": 80
    },
    {
     "TimeMs": 24935,
     "Key": 79,
     "DurationMs": 175,
     "Vel": 80
    },
    {
     "TimeMs": 24935,
     "Key": 67,
     "DurationMs": 175,
     "Vel": 80
    },
    {
     "TimeMs": 24936,
     "Key": 50,
     "DurationMs": 175,
     "Vel": 80
    },
    {
     "TimeMs": 24937,
     "Key": 38,
     "DurationMs": 175,
     "Vel": 80
    },
    {
     "TimeMs": 25129,
     "Key": 81,
     "DurationMs": 175,
     "Vel": 80
    },
    {
     "TimeMs": 25130,
     "Key": 69,
     "DurationMs": 175,
     "Vel": 80
    },
    {
     "TimeMs": 25131,
     "Key": 62,
     "DurationMs": 175,
     "Vel": 80
    },
    {
     "TimeMs": 25132,
     "Key": 57,
     "DurationMs": 175,
     "Vel": 80
    },
    {
     "TimeMs": 25133,
     "Key": 53,
     "DurationMs": 175,
     "Vel": 80
    },
    {
     "TimeMs": 25324,
     "Key": 84,
     "DurationMs": 175,
     "Vel": 80
    },
    {
     "TimeMs": 25325,
     "Key": 72,
     "DurationMs": 175,
     "Vel": 80
    },
    {
     "TimeMs": 25326,
     "Key": 41,
     "DurationMs": 175,
     "Vel": 80
    },
    {
     "TimeMs": 25519,
     "Key": 89,
     "DurationMs": 175,
     "Vel": 80
    },
    {
     "TimeMs": 25520,
     "Key": 77,
     "DurationMs": 175,
     "Vel": 80
    },
    {
     "TimeMs": 25521,
     "Key": 65,
     "DurationMs": 175,
     "Vel": 80
    },
    {
     "TimeMs": 25521,
     "Key": 62,
     "DurationMs": 175,
     "Vel": 80
    },
    {
     "TimeMs": 25522,
     "Key": 57,
     "DurationMs": 175,
     "Vel": 80
    },
    {
     "TimeMs": 25714,
     "Key": 88,
     "DurationMs": 87,
     "Vel": 80
    },
    {
     "TimeMs": 25715,
     "Key": 84,
     "DurationMs": 87,
     "Vel": 80
    },
    {
     "TimeMs": 25715,
     "Key": 76,
     "DurationMs": 87,
     "Vel": 80
    },
    {
     "TimeMs": 25716,
     "Key": 57,
     "DurationMs": 172,
     "Vel": 80
    },
    {
     "TimeMs": 25717,
     "Key": 45,
     "DurationMs": 172,
     "Vel": 80
    },
    {
     "TimeMs": 25811,
     "Key": 89,
     "DurationMs": 87,
     "Vel": 80
    },
    {
     "TimeMs": 25812,
     "Key": 77,
     "DurationMs": 87,
     "Vel": 80
    },
    {
     "TimeMs": 25909,
     "Key": 88,
     "DurationMs": 87,
     "Vel": 80
    },
    {
     "TimeMs": 25909,
     "Key": 76,
     "DurationMs": 87,
     "Vel": 80
    },
    {
     "TimeMs": 25910,
     "Key": 62,
     "DurationMs": 173,
     "Vel": 80
    },
    {
     "TimeMs": 25911,
     "Key": 53,
     "DurationMs": 173,
     "Vel": 80
    },
    {
     "TimeMs": 26006,
     "Key": 86,
     "DurationMs": 87,
     "Vel": 80
    },
    {
     "TimeMs": 26007,
     "Key": 74,
     "DurationMs": 87,
     "Vel": 80
    },
    {
     "TimeMs": 26103,
     "Key": 84,
     "DurationMs": 175,
     "Vel": 80
    },
    {
     "TimeMs": 26104,
     "Key": 81,
     "DurationMs": 175,
     "Vel": 80
    },
    {
     "TimeMs": 26105,
     "Key": 72,
     "DurationMs": 175,
     "Vel": 80
    },
    {
     "TimeMs": 26106,
     "Key": 57,
     "DurationMs": 85,
     "Vel": 80
    },
    {
     "TimeMs": 26201,
     "Key": 50,
     "DurationMs": 87,
     "Vel": 80
    },
    {
     "TimeMs": 26298,
     "Key": 81,
     "DurationMs": 175,
     "Vel": 80
    },
    {
     "TimeMs": 26299,
     "Key": 69,
     "DurationMs": 175,
     "Vel": 80
    },
    {
     "TimeMs": 26300,
     "Key": 45,
     "DurationMs": 86,
     "Vel": 80
    },
    {
     "TimeMs": 26396,
     "Key": 38,
     "DurationMs": 87,
     "Vel": 80
    },
    {
     "TimeMs": 26493,
     "Key": 79,
     "DurationMs": 175,
     "Vel": 80
    },
    {
     "TimeMs": 26494,
     "Key": 74,
     "DurationMs": 175,
     "Vel": 80
    },
    {
     "TimeMs": 26495,
     "Key": 67,
     "DurationMs": 175,
     "Vel": 80
    },
    {
     "TimeMs": 26495,
     "Key": 34,
     "DurationMs": 175,
     "Vel": 80
    },
    {
     "TimeMs": 26496,
     "Key": 46,
     "DurationMs": 175,
     "Vel": 80
    },
    {
     "TimeMs": 26688,
     "Key": 81,
     "DurationMs": 175,
     "Vel": 80
    },
    {
     "TimeMs": 26689,
     "Key": 69,
     "DurationMs": 175,
     "Vel": 80
    },
    {
     "TimeMs": 26689,
     "Key": 53,
     "DurationMs": 175,
     "Vel": 80
    },
    {
     "TimeMs": 26690,
     "Key": 58,
     "DurationMs": 175,
     "Vel": 80
    },
    {
     "TimeMs": 26691,
     "Key": 62,
     "DurationMs": 175,
     "Vel": 80
    },
    {
     "TimeMs": 26883,
     "Key": 74,
     "DurationMs": 87,
     "Vel": 80
    },
    {
     "TimeMs": 26883,
     "Key": 62,
     "DurationMs": 87,
     "Vel": 80
    },
    {
     "TimeMs": 26884,
     "Key": 46,
     "DurationMs": 173,
     "Vel": 80
    },
    {
     "TimeMs": 26980,
     "Key": 72,
     "DurationMs": 87,
     "Vel": 80
    },
    {
     "TimeMs": 27077,
     "Key": 74,
     "DurationMs": 87,
     "Vel": 80
    },
    {
     "TimeMs": 27078,
     "Key": 53,
     "DurationMs": 174,
     "Vel": 80
    },
    {
     "TimeMs": 27079,
     "Key": 58,
     "DurationMs": 174,
     "Vel": 80
    },
    {
     "TimeMs": 27080,
     "Key": 62,
     "DurationMs": 174,
     "Vel": 80
    },
    {
     "TimeMs": 27175,
     "Key": 72,
     "DurationMs": 87,
     "Vel": 80
    },
    {
     "TimeMs": 27272,
     "Key": 79,
     "DurationMs": 175,
     "Vel": 80
    },
    {
     "TimeMs": 27273,
     "Key": 67,
     "DurationMs": 175,
     "Vel": 80
    },
    {
     "TimeMs": 27274,
     "Key": 48,
     "DurationMs": 175,
     "Vel": 80
    },
    {
     "TimeMs": 27275,
     "Key": 36,
     "DurationMs": 175,
     "Vel": 80
    },
    {
     "TimeMs": 27467,
     "Key": 81,
     "DurationMs": 175,
     "Vel": 80
    },
    {
     "TimeMs": 27468,
     "Key": 69,
     "DurationMs": 175,
     "Vel": 80
    },
    {
     "TimeMs": 27469,
     "Key": 64,
     "DurationMs": 175,
     "Vel": 80
    },
    {
     "TimeMs": 27469,
     "Key": 60,
     "DurationMs": 175,
     "Vel": 80
    },
    {
     "TimeMs": 27470,
     "Key": 55,
     "DurationMs": 175,
     "Vel": 80
    },
    {
     "TimeMs": 27662,
     "Key": 74,
     "DurationMs": 87,
     "Vel": 80
    },
    {
     "TimeMs": 27663,
     "Key": 62,
     "DurationMs": 87,
     "Vel": 80
    },
    {
     "TimeMs": 27663,
     "Key": 48,
     "DurationMs": 173,
     "Vel": 80
    },
    {
     "TimeMs": 27759,
     "Key": 72,
     "DurationMs": 87,
     "Vel": 80
    },
    {
     "TimeMs": 27857,
     "Key": 74,
     "DurationMs": 87,
     "Vel": 80
    },
    {
     "TimeMs": 27857,
     "Key": 64,
     "DurationMs": 174,
     "Vel": 80
    },
    {
     "TimeMs": 27858,
     "Key": 60,
     "DurationMs": 174,
     "Vel": 80
    },
    {
     "TimeMs": 27859,
     "Key": 55,
     "DurationMs": 174,
     "Vel": 80
    },
    {
     "TimeMs": 27954,
     "Key": 72,
     "DurationMs": 87,
     "Vel": 80
    },
    {
     "TimeMs": 28051,
     "Key": 79,
     "DurationMs": 175,
     "Vel": 80
    },
    {
     "TimeMs": 28052,
     "Key": 74,
     "DurationMs": 175,
     "Vel": 80
    },
    {
     "TimeMs": 28053,
     "Key": 67,
     "DurationMs": 175,
     "Vel": 80
    },
    {
     "TimeMs": 28054,
     "Key": 50,
     "DurationMs": 175,
     "Vel": 80
    },
    {
     "TimeMs": 28055,
     "Key": 38,
     "DurationMs": 175,
     "Vel": 80
    },
    {
     "TimeMs": 28246,
     "Key": 81,
     "DurationMs": 175,
     "Vel": 80
    },
    {
     "TimeMs": 28247,
     "Key": 69,
     "DurationMs": 175,
     "Vel": 80
    },
    {
     "TimeMs": 28248,
     "Key": 62,
     "DurationMs": 175,
     "Vel": 80
    },
    {
     "TimeMs": 28249,
     "Key": 57,
     "DurationMs": 175,
     "Vel": 80
    },
    {
     "TimeMs": 28249,
     "Key": 53,
     "DurationMs": 175,
     "Vel": 80
    },
    {
     "TimeMs": 28441,
     "Key": 74,
     "DurationMs": 87,
     "Vel": 80
    },
    {
     "TimeMs": 28442,
     "Key": 62,
     "DurationMs": 87,
     "Vel": 80
    },
    {
     "TimeMs": 28443,
     "Key": 41,
     "DurationMs": 173,
     "Vel": 80
    },
    {
     "TimeMs": 28538,
     "Key": 72,
     "DurationMs": 87,
     "Vel": 80
    },
    {
     "TimeMs": 28636,
     "Key": 74,
     "DurationMs": 87,
     "Vel": 80
    },
    {
     "TimeMs": 28637,
     "Key": 62,
     "DurationMs": 174,
     "Vel": 80
    },
    {
     "TimeMs": 28637,
     "Key": 57,
     "DurationMs": 174,
     "Vel": 80
    },
    {
     "TimeMs": 28638,
     "Key": 53,
     "DurationMs": 174,
     "Vel": 80
    },
    {
     "TimeMs": 28733,
     "Key": 72,
     "DurationMs": 87,
     "Vel": 80
    },
    {
     "TimeMs": 28806,
     "Key": 69,
     "DurationMs": 175,
     "Vel": 80
    },
    {
     "TimeMs": 28824,
     "Key": 74,
     "DurationMs": 175,
     "Vel": 80
    },
    {
     "TimeMs": 28831,
     "Key": 53,
     "DurationMs": 175,
     "Vel": 80
    },
    {
     "TimeMs": 28831,
     "Key": 45,
     "DurationMs": 175,
     "Vel": 80
    },
    {
     "TimeMs": 28843,
     "Key": 76,
     "DurationMs": 175,
     "Vel": 80
    },
    {
     "TimeMs": 28861,
     "Key": 77,
     "DurationMs": 175,
     "Vel": 80
    },
    {
     "TimeMs": 29025,
     "Key": 76,
     "DurationMs": 87,
     "Vel": 80
    },
    {
     "TimeMs": 29026,
     "Key": 64,
     "DurationMs": 87,
     "Vel": 80
    },
    {
     "TimeMs": 29027,
     "Key": 57,
     "DurationMs": 173,
     "Vel": 80
    },
    {
     "TimeMs": 29028,
     "Key": 50,
     "DurationMs": 173,
     "Vel": 80
    },
    {
     "TimeMs": 29123,
     "Key": 77,
     "DurationMs": 43,
     "Vel": 80
    },
    {
     "TimeMs": 29172,
     "Key": 76,
     "DurationMs": 43,
     "Vel": 80
    },
    {
     "TimeMs": 29220,
     "Key": 62,
     "DurationMs": 175,
     "Vel": 80
    },
    {
     "TimeMs": 29221,
     "Key": 69,
     "DurationMs": 175,
     "Vel": 80
    },
    {
     "TimeMs": 29222,
     "Key": 74,
     "DurationMs": 175,
     "Vel": 80
    },
    {
     "TimeMs": 29223,
     "Key": 38,
     "DurationMs": 85,
     "Vel": 80
    },
    {
     "TimeMs": 29318,
     "Key": 45,
     "DurationMs": 87,
     "Vel": 80
    },
    {
     "TimeMs": 29415,
     "Key": 60,
     "DurationMs": 175,
     "Vel": 80
    },
    {
     "TimeMs": 29416,
     "Key": 72,
     "DurationMs": 175,
     "Vel": 80
    },
    {
     "TimeMs": 29417,
     "Key": 50,
     "DurationMs": 86,
     "Vel": 80
    },
    {
     "TimeMs": 29512,
     "Key": 45,
     "DurationMs": 87,
     "Vel": 80
    },
    {
     "TimeMs": 29610,
     "Key": 79,
     "DurationMs": 87,
     "Vel": 80
    },
    {
     "TimeMs": 29611,
     "Key": 74,
     "DurationMs": 87,
     "Vel": 80
    },
    {
     "TimeMs": 29611,
     "Key": 67,
     "DurationMs": 87,
     "Vel": 80
    },
    {
     "TimeMs": 29612,
     "Key": 34,
     "DurationMs": 172,
     "Vel": 80
    },
    {
     "TimeMs": 29613,
     "Key": 46,
     "DurationMs": 172,
     "Vel": 80
    },
    {
     "TimeMs": 29707,
     "Key": 77,
     "DurationMs": 87,
     "Vel": 80
    },
    {
     "TimeMs": 29708,
     "Key": 65,
     "DurationMs": 87,
     "Vel": 80
    },
    {
     "TimeMs": 29805,
     "Key": 81,
     "DurationMs": 87,
     "Vel": 80
    },
    {
     "TimeMs": 29805,
     "Key": 69,
     "DurationMs": 87,
     "Vel": 80
    },
    {
     "TimeMs": 29806,
     "Key": 53,
     "DurationMs": 173,
     "Vel": 80
    },
    {
     "TimeMs": 29807,
     "Key": 58,
     "DurationMs": 173,
     "Vel": 80
    },
    {
     "TimeMs": 29808,
     "Key": 62,
     "DurationMs": 173,
     "Vel": 80
    },
    {
     "TimeMs": 29902,
     "Key": 84,
     "DurationMs": 87,
     "Vel": 80
    },
    {
     "TimeMs": 29903,
     "Key": 72,
     "DurationMs": 87,
     "Vel": 80
    },
    {
     "TimeMs": 29999,
     "Key": 86,
     "DurationMs": 87,
     "Vel": 80
    },
    {
     "TimeMs": 30000,
     "Key": 74,
     "DurationMs": 87,
     "Vel": 80
    },
    {
     "TimeMs": 30001,
     "Key": 46,
     "DurationMs": 173,
     "Vel": 80
    },
    {
     "TimeMs": 30097,
     "Key": 84,
     "DurationMs": 87,
     "Vel": 80
    },
    {
     "TimeMs": 30098,
     "Key": 72,
     "DurationMs": 87,
     "Vel": 80
    },
    {
     "TimeMs": 30194,
     "Key": 81,
     "DurationMs": 87,
     "Vel": 80
    },
    {
     "TimeMs": 30195,
     "Key": 69,
     "DurationMs": 87,
     "Vel": 80
    },
    {
     "TimeMs": 30196,
     "Key": 53,
     "DurationMs": 173,
     "Vel": 80
    },
    {
     "TimeMs": 30197,
     "Key": 58,
     "DurationMs": 173,
     "Vel": 80
    },
    {
     "TimeMs": 30198,
     "Key": 62,
     "DurationMs": 173,
     "Vel": 80
    },
    {
     "TimeMs": 30292,
     "Key": 79,
     "DurationMs": 87,
     "Vel": 80
    },
    {
     "TimeMs": 30292,
     "Key": 67,
     "DurationMs": 87,
     "Vel": 80
    },
    {
     "TimeMs": 30389,
     "Key": 74,
     "DurationMs": 175,
     "Vel": 80
    },
    {
     "TimeMs": 30390,
     "Key": 62,
     "DurationMs": 175,
     "Vel": 80
    },
    {
     "TimeMs": 30391,
     "Key": 48,
     "DurationMs": 175,
     "Vel": 80
    },
    {
     "TimeMs": 30392,
     "Key": 36,
     "DurationMs": 175,
     "Vel": 80
    },
    {
     "TimeMs": 30584,
     "Key": 77,
     "DurationMs": 175,
     "Vel": 80
    },
    {
     "TimeMs": 30585,
     "Key": 72,
     "DurationMs": 175,
     "Vel": 80
    },
    {
     "TimeMs": 30586,
     "Key": 65,
     "DurationMs": 175,
     "Vel": 80
    },
    {
     "TimeMs": 30586,
     "Key": 64,
     "DurationMs": 175,
     "Vel": 80
    },
    {
     "TimeMs": 30587,
     "Key": 60,
     "DurationMs": 175,
     "Vel": 80
    },
    {
     "TimeMs": 30588,
     "Key": 55,
     "DurationMs": 175,
     "Vel": 80
    },
    {
     "TimeMs": 30779,
     "Key": 79,
     "DurationMs": 175,
     "Vel": 80
    },
    {
     "TimeMs": 30780,
     "Key": 67,
     "DurationMs": 175,
     "Vel": 80
    },
    {
     "TimeMs": 30780,
     "Key": 36,
     "DurationMs": 86,
     "Vel": 80
    },
    {
     "TimeMs": 30876,
     "Key": 43,
     "DurationMs": 87,
     "Vel": 80
    },
    {
     "TimeMs": 30973,
     "Key": 81,
     "DurationMs": 175,
     "Vel": 80
    },
    {
     "TimeMs": 30974,
     "Key": 74,
     "DurationMs": 175,
     "Vel": 80
    },
    {
     "TimeMs": 30975,
     "Key": 69,
     "DurationMs": 175,
     "Vel": 80
    },
    {
     "TimeMs": 30976,
     "Key": 48,
     "DurationMs": 85,
     "Vel": 80
    },
    {
     "TimeMs": 31071,
     "Key": 52,
     "DurationMs": 87,
     "Vel": 80
    },
    {
     "TimeMs": 31168,
     "Key": 65,
     "DurationMs": 87,
     "Vel": 80
    },
    {
     "TimeMs": 31169,
     "Key": 69,
     "DurationMs": 87,
     "Vel": 80
    },
    {
     "TimeMs": 31170,
     "Key": 74,
     "DurationMs": 87,
     "Vel": 80
    },
    {
     "TimeMs": 31171,
     "Key": 38,
     "DurationMs": 292,
     "Vel": 80
    },
    {
     "TimeMs": 31172,
     "Key": 45,
     "DurationMs": 292,
     "Vel": 80
    },
    {
     "TimeMs": 31172,
     "Key": 50,
     "DurationMs": 292,
     "Vel": 80
    },
    {
     "TimeMs": 31266,
     "Key": 62,
     "DurationMs": 87,
     "Vel": 68
    },
    {
     "TimeMs": 31363,
     "Key": 62,
     "DurationMs": 87,
     "Vel": 68
    },
    {
     "TimeMs": 31461,
     "Key": 65,
     "DurationMs": 87,
     "Vel": 80
    },
    {
     "TimeMs": 31461,
     "Key": 69,
     "DurationMs": 87,
     "Vel": 80
    },
    {
     "TimeMs": 31462,
     "Key": 74,
     "DurationMs": 87,
     "Vel": 80
    },
    {
     "TimeMs": 31465,
     "Key": 38,
     "DurationMs": 289,
     "Vel": 80
    },
    {
     "TimeMs": 31466,
     "Key": 45,
     "DurationMs": 289,
     "Vel": 80
    },
    {
     "TimeMs": 31467,
     "Key": 50,
     "DurationMs": 289,
     "Vel": 80
    },
    {
     "TimeMs": 31558,
     "Key": 62,
     "DurationMs": 87,
     "Vel": 68
    },
    {
     "TimeMs": 31655,
     "Key": 62,
     "DurationMs": 87,
     "Vel": 68
    },
    {
     "TimeMs": 31753,
     "Key": 65,
     "DurationMs": 87,
     "Vel": 80
    },
    {
     "TimeMs": 31754,
     "Key": 69,
     "DurationMs": 87,
     "Vel": 80
    },
    {
     "TimeMs": 31754,
     "Key": 72,
     "DurationMs": 87,
     "Vel": 80
    },
    {
     "TimeMs": 31758,
     "Key": 41,
     "DurationMs": 170,
     "Vel": 80
    },
    {
     "TimeMs": 31758,
     "Key": 50,
     "DurationMs": 170,
     "Vel": 80
    },
    {
     "TimeMs": 31850,
     "Key": 62,
     "DurationMs": 87,
     "Vel": 68
    },
    {
     "TimeMs": 31948,
     "Key": 62,
     "DurationMs": 701,
     "Vel": 80
    },
    {
     "TimeMs": 31948,
     "Key": 65,
     "DurationMs": 701,
     "Vel": 80
    },
    {
     "TimeMs": 31949,
     "Key": 69,
     "DurationMs": 701,
     "Vel": 80
    },
    {
     "TimeMs": 31950,
     "Key": 74,
     "DurationMs": 701,
     "Vel": 80
    },
    {
     "TimeMs": 31951,
     "Key": 38,
     "DurationMs": 347,
     "Vel": 80
    },
    {
     "TimeMs": 31952,
     "Key": 45,
     "DurationMs": 347,
     "Vel": 80
    },
    {
     "TimeMs": 31952,
     "Key": 50,
     "DurationMs": 347,
     "Vel": 80
    },
    {
     "TimeMs": 32337,
     "Key": 26,
     "DurationMs": 350,
     "Vel": 80
    },
    {
     "TimeMs": 32338,
     "Key": 38,
     "DurationMs": 350,
     "Vel": 80
    },
    {
     "TimeMs": 32727,
     "Key": 53,
     "DurationMs": 350,
     "Vel": 80
    },
    {
     "TimeMs": 32728,
     "Key": 57,
     "DurationMs": 350,
     "Vel": 80
    },
    {
     "TimeMs": 32728,
     "Key": 62,
     "DurationMs": 350,
     "Vel": 80
    },
    {
     "TimeMs": 32729,
     "Key": 38,
     "DurationMs": 350,
     "Vel": 80
    },
    {
     "TimeMs": 32730,
     "Key": 50,
     "DurationMs": 350,
     "Vel": 80
    },
    {
     "TimeMs": 33116,
     "Key": 53,
     "DurationMs": 262,
     "Vel": 80
    },
    {
     "TimeMs": 33117,
     "Key": 57,
     "DurationMs": 262,
     "Vel": 80
    },
    {
     "TimeMs": 33118,
     "Key": 62,
     "DurationMs": 262,
     "Vel": 80
    },
    {
     "TimeMs": 33119,
     "Key": 38,
     "DurationMs": 292,
     "Vel": 80
    },
    {
     "TimeMs": 33120,
     "Key": 50,
     "DurationMs": 292,
     "Vel": 80
    },
    {
     "TimeMs": 33409,
     "Key": 53,
     "DurationMs": 87,
     "Vel": 80
    },
    {
     "TimeMs": 33409,
     "Key": 57,
     "DurationMs": 87,
     "Vel": 80
    },
    {
     "TimeMs": 33410,
     "Key": 60,
     "DurationMs": 87,
     "Vel": 80
    },
    {
     "TimeMs": 33413,
     "Key": 50,
     "DurationMs": 86,
     "Vel": 80
    },
    {
     "TimeMs": 33506,
     "Key": 62,
     "DurationMs": 97,
     "Vel": 80
    },
    {
     "TimeMs": 33507,
     "Key": 38,
     "DurationMs": 174,
     "Vel": 80
    },
    {
     "TimeMs": 33508,
     "Key": 50,
     "DurationMs": 174,
     "Vel": 80
    },
    {
     "TimeMs": 33604,
     "Key": 53,
     "DurationMs": 86,
     "Vel": 80
    },
    {
     "TimeMs": 33605,
     "Key": 57,
     "DurationMs": 86,
     "Vel": 80
    },
    {
     "TimeMs": 33701,
     "Key": 62,
     "DurationMs": 175,
     "Vel": 80
    },
    {
     "TimeMs": 33702,
     "Key": 65,
     "DurationMs": 175,
     "Vel": 80
    },
    {
     "TimeMs": 33702,
     "Key": 38,
     "DurationMs": 175,
     "Vel": 80
    },
    {
     "TimeMs": 33703,
     "Key": 50,
     "DurationMs": 175,
     "Vel": 80
    },
    {
     "TimeMs": 33896,
     "Key": 62,
     "DurationMs": 175,
     "Vel": 80
    },
    {
     "TimeMs": 33896,
     "Key": 65,
     "DurationMs": 175,
     "Vel": 80
    },
    {
     "TimeMs": 33897,
     "Key": 45,
     "DurationMs": 175,
     "Vel": 80
    },
    {
     "TimeMs": 33898,
     "Key": 50,
     "DurationMs": 175,
     "Vel": 80
    },
    {
     "TimeMs": 34090,
     "Key": 64,
     "DurationMs": 175,
     "Vel": 80
    },
    {
     "TimeMs": 34091,
     "Key": 67,
     "DurationMs": 175,
     "Vel": 80
    },
    {
     "TimeMs": 34092,
     "Key": 48,
     "DurationMs": 175,
     "Vel": 80
    },
    {
     "TimeMs": 34093,
     "Key": 53,
     "DurationMs": 175,
     "Vel": 80
    },
    {
     "TimeMs": 34285,
     "Key": 53,
     "DurationMs": 350,
     "Vel": 80
    },
    {
     "TimeMs": 34286,
     "Key": 58,
     "DurationMs": 350,
     "Vel": 80
    },
    {
     "TimeMs": 34287,
     "Key": 62,
     "DurationMs": 350,
     "Vel": 80
    },
    {
     "TimeMs": 34288,
     "Key": 34,
     "DurationMs": 260,
     "Vel": 80
    },
    {
     "TimeMs": 34288,
     "Key": 46,
     "DurationMs": 260,
     "Vel": 80
    },
    {
     "TimeMs": 34577,
     "Key": 34,
     "DurationMs": 87,
     "Vel": 80
    },
    {
     "TimeMs": 34578,
     "Key": 46,
     "DurationMs": 87,
     "Vel": 80
    },
    {
     "TimeMs": 34675,
     "Key": 53,
     "DurationMs": 262,
     "Vel": 80
    },
    {
     "TimeMs": 34676,
     "Key": 58,
     "DurationMs": 262,
     "Vel": 80
    },
    {
     "TimeMs": 34676,
     "Key": 62,
     "DurationMs": 262,
     "Vel": 80
    },
    {
     "TimeMs": 34677,
     "Key": 34,
     "DurationMs": 348,
     "Vel": 80
    },
    {
     "TimeMs": 34678,
     "Key": 46,
     "DurationMs": 348,
     "Vel": 80
    },
    {
     "TimeMs": 34967,
     "Key": 60,
     "DurationMs": 87,
     "Vel": 80
    },
    {
     "TimeMs": 35064,
     "Key": 52,
     "DurationMs": 175,
     "Vel": 80
    },
    {
     "TimeMs": 35065,
     "Key": 55,
     "DurationMs": 175,
     "Vel": 80
    },
    {
     "TimeMs": 35066,
     "Key": 62,
     "DurationMs": 175,
     "Vel": 80
    },
    {
     "TimeMs": 35067,
     "Key": 36,
     "DurationMs": 260,
     "Vel": 80
    },
    {
     "TimeMs": 35068,
     "Key": 48,
     "DurationMs": 260,
     "Vel": 80
    },
    {
     "TimeMs": 35259,
     "Key": 52,
     "DurationMs": 175,
     "Vel": 80
    },
    {
     "TimeMs": 35260,
     "Key": 55,
     "DurationMs": 175,
     "Vel": 80
    },
    {
     "TimeMs": 35261,
     "Key": 60,
     "DurationMs": 175,
     "Vel": 80
    },
    {
     "TimeMs": 35357,
     "Key": 36,
     "DurationMs": 87,
     "Vel": 80
    },
    {
     "TimeMs": 35357,
     "Key": 48,
     "DurationMs": 87,
     "Vel": 80
    },
    {
     "TimeMs": 35454,
     "Key": 52,
     "DurationMs": 175,
     "Vel": 80
    },
    {
     "TimeMs": 35455,
     "Key": 57,
     "DurationMs": 175,
     "Vel": 80
    },
    {
     "TimeMs": 35456,
     "Key": 36,
     "DurationMs": 349,
     "Vel": 80
    },
    {
     "TimeMs": 35456,
     "Key": 48,
     "DurationMs": 349,
     "Vel": 80
    },
    {
     "TimeMs": 35649,
     "Key": 60,
     "DurationMs": 175,
     "Vel": 80
    },
    {
     "TimeMs": 35844,
     "Key": 53,
     "DurationMs": 350,
     "Vel": 80
    },
    {
     "TimeMs": 35844,
     "Key": 57,
     "DurationMs": 350,
     "Vel": 80
    },
    {
     "TimeMs": 35845,
     "Key": 62,
     "DurationMs": 350,
     "Vel": 80
    },
    {
     "TimeMs": 35846,
     "Key": 38,
     "DurationMs": 350,
     "Vel": 80
    },
    {
     "TimeMs": 35847,
     "Key": 50,
     "DurationMs": 350,
     "Vel": 80
    },
    {
     "TimeMs": 36233,
     "Key": 53,
     "DurationMs": 262,
     "Vel": 80
    },
    {
     "TimeMs": 36234,
     "Key": 57,
     "DurationMs": 262,
     "Vel": 80
    },
    {
     "TimeMs": 36235,
     "Key": 62,
     "DurationMs": 262,
     "Vel": 80
    },
    {
     "TimeMs": 36236,
     "Key": 38,
     "DurationMs": 292,
     "Vel": 80
    },
    {
     "TimeMs": 36236,
     "Key": 50,
     "DurationMs": 292,
     "Vel": 80
    },
    {
     "TimeMs": 36525,
     "Key": 53,
     "DurationMs": 87,
     "Vel": 80
    },
    {
     "TimeMs": 36526,
     "Key": 57,
     "DurationMs": 87,
     "Vel": 80
    },
    {
     "TimeMs": 36527,
     "Key": 60,
     "DurationMs": 87,
     "Vel": 80
    },
    {
     "TimeMs": 36529,
     "Key": 50,
     "DurationMs": 86,
     "Vel": 80
    },
    {
     "TimeMs": 36623,
     "Key": 62,
     "DurationMs": 97,
     "Vel": 80
    },
    {
     "TimeMs": 36624,
     "Key": 38,
     "DurationMs": 174,
     "Vel": 80
    },
    {
     "TimeMs": 36624,
     "Key": 50,
     "DurationMs": 174,
     "Vel": 80
    },
    {
     "TimeMs": 36721,
     "Key": 53,
     "DurationMs": 86,
     "Vel": 80
    },
    {
     "TimeMs": 36722,
     "Key": 57,
     "DurationMs": 86,
     "Vel": 80
    },
    {
     "TimeMs": 36818,
     "Key": 62,
     "DurationMs": 175,
     "Vel": 80
    },
    {
     "TimeMs": 36818,
     "Key": 65,
     "DurationMs": 175,
     "Vel": 80
    },
    {
     "TimeMs": 36819,
     "Key": 38,
     "DurationMs": 175,
     "Vel": 80
    },
    {
     "TimeMs": 36820,
     "Key": 50,
     "DurationMs": 175,
     "Vel": 80
    },
    {
     "TimeMs": 37012,
     "Key": 64,
     "DurationMs": 175,
     "Vel": 80
    },
    {
     "TimeMs": 37013,
     "Key": 67,
     "DurationMs": 175,
     "Vel": 80
    },
    {
     "TimeMs": 37014,
     "Key": 48,
     "DurationMs": 175,
     "Vel": 80
    },
    {
     "TimeMs": 37015,
     "Key": 53,
     "DurationMs": 175,
     "Vel": 80
    },
    {
     "TimeMs": 37207,
     "Key": 65,
     "DurationMs": 175,
     "Vel": 80
    },
    {
     "TimeMs": 37208,
     "Key": 69,
     "DurationMs": 175,
     "Vel": 80
    },
    {
     "TimeMs": 37209,
     "Key": 50,
     "DurationMs": 175,
     "Vel": 80
    },
    {
     "TimeMs": 37210,
     "Key": 57,
     "DurationMs": 175,
     "Vel": 80
    },
    {
     "TimeMs": 37402,
     "Key": 58,
     "DurationMs": 350,
     "Vel": 80
    },
    {
     "TimeMs": 37403,
     "Key": 62,
     "DurationMs": 350,
     "Vel": 80
    },
    {
     "TimeMs": 37404,
     "Key": 69,
     "DurationMs": 350,
     "Vel": 80
    },
    {
     "TimeMs": 37404,
     "Key": 34,
     "DurationMs": 289,
     "Vel": 80
    },
    {
     "TimeMs": 37405,
     "Key": 46,
     "DurationMs": 289,
     "Vel": 80
    },
    {
     "TimeMs": 37696,
     "Key": 46,
     "DurationMs": 86,
     "Vel": 80
    },
    {
     "TimeMs": 37792,
     "Key": 58,
     "DurationMs": 175,
     "Vel": 80
    },
    {
     "TimeMs": 37792,
     "Key": 62,
     "DurationMs": 175,
     "Vel": 80
    },
    {
     "TimeMs": 37793,
     "Key": 67,
     "DurationMs": 175,
     "Vel": 80
    },
    {
     "TimeMs": 37794,
     "Key": 34,
     "DurationMs": 348,
     "Vel": 80
    },
    {
     "TimeMs": 37795,
     "Key": 46,
     "DurationMs": 348,
     "Vel": 80
    },
    {
     "TimeMs": 37986,
     "Key": 69,
     "DurationMs": 87,
     "Vel": 80
    },
    {
     "TimeMs": 38084,
     "Key": 67,
     "DurationMs": 87,
     "Vel": 80
    },
    {
     "TimeMs": 38181,
     "Key": 55,
     "DurationMs": 350,
     "Vel": 80
    },
    {
     "TimeMs": 38182,
     "Key": 60,
     "DurationMs": 350,
     "Vel": 80
    },
    {
     "TimeMs": 38183,
     "Key": 65,
     "DurationMs": 350,
     "Vel": 80
    },
    {
     "TimeMs": 38184,
     "Key": 36,
     "DurationMs": 289,
     "Vel": 80
    },
    {
     "TimeMs": 38185,
     "Key": 48,
     "DurationMs": 289,
     "Vel": 80
    },
    {
     "TimeMs": 38475,
     "Key": 48,
     "DurationMs": 86,
     "Vel": 80
    },
    {
     "TimeMs": 38571,
     "Key": 55,
     "DurationMs": 350,
     "Vel": 80
    },
    {
     "TimeMs": 38572,
     "Key": 60,
     "DurationMs": 350,
     "Vel": 80
    },
    {
     "TimeMs": 38573,
     "Key": 62,
     "DurationMs": 350,
     "Vel": 80
    },
    {
     "TimeMs": 38573,
     "Key": 36,
     "DurationMs": 350,
     "Vel": 80
    },
    {
     "TimeMs": 38574,
     "Key": 48,
     "DurationMs": 350,
     "Vel": 80
    },
    {
     "TimeMs": 38961,
     "Key": 53,
     "DurationMs": 292,
     "Vel": 80
    },
    {
     "TimeMs": 38961,
     "Key": 57,
     "DurationMs": 292,
     "Vel": 80
    },
    {
     "TimeMs": 38962,
     "Key": 62,
     "DurationMs": 292,
     "Vel": 80
    },
    {
     "TimeMs": 38963,
     "Key": 38,
     "DurationMs": 192,
     "Vel": 80
    },
    {
     "TimeMs": 38964,
     "Key": 50,
     "DurationMs": 192,
     "Vel": 80
    },
    {
     "TimeMs": 39157,
     "Key": 38,
     "DurationMs": 154,
     "Vel": 80
    },
    {
     "TimeMs": 39158,
     "Key": 50,
     "DurationMs": 154,
     "Vel": 80
    },
    {
     "TimeMs": 39255,
     "Key": 62,
     "DurationMs": 85,
     "Vel": 80
    },
    {
     "TimeMs": 39350,
     "Key": 53,
     "DurationMs": 262,
     "Vel": 80
    },
    {
     "TimeMs": 39351,
     "Key": 57,
     "DurationMs": 262,
     "Vel": 80
    },
    {
     "TimeMs": 39352,
     "Key": 62,
     "DurationMs": 262,
     "Vel": 80
    },
    {
     "TimeMs": 39353,
     "Key": 38,
     "DurationMs": 292,
     "Vel": 80
    },
    {
     "TimeMs": 39353,
     "Key": 50,
     "DurationMs": 292,
     "Vel": 80
    },
    {
     "TimeMs": 39642,
     "Key": 53,
     "DurationMs": 87,
     "Vel": 80
    },
    {
     "TimeMs": 39643,
     "Key": 57,
     "DurationMs": 87,
     "Vel": 80
    },
    {
     "TimeMs": 39644,
     "Key": 60,
     "DurationMs": 87,
     "Vel": 80
    },
    {
     "TimeMs": 39646,
     "Key": 50,
     "DurationMs": 86,
     "Vel": 80
    },
    {
     "TimeMs": 39740,
     "Key": 60,
     "DurationMs": 97,
     "Vel": 80
    },
    {
     "TimeMs": 39741,
     "Key": 38,
     "DurationMs": 174,
     "Vel": 80
    },
    {
     "TimeMs": 39741,
     "Key": 50,
     "DurationMs": 174,
     "Vel": 80
    },
    {
     "TimeMs": 39838,
     "Key": 53,
     "DurationMs": 86,
     "Vel": 80
    },
    {
     "TimeMs": 39839,
     "Key": 57,
     "DurationMs": 86,
     "Vel": 80
    },
    {
     "TimeMs": 39935,
     "Key": 62,
     "DurationMs": 175,
     "Vel": 80
    },
    {
     "TimeMs": 39935,
     "Key": 38,
     "DurationMs": 175,
     "Vel": 80
    },
    {
     "TimeMs": 39936,
     "Key": 50,
     "DurationMs": 175,
     "Vel": 80
    },
    {
     "TimeMs": 40129,
     "Key": 62,
     "DurationMs": 175,
     "Vel": 80
    },
    {
     "TimeMs": 40130,
     "Key": 65,
     "DurationMs": 175,
     "Vel": 80
    },
    {
     "TimeMs": 40131,
     "Key": 45,
     "DurationMs": 175,
     "Vel": 80
    },
    {
     "TimeMs": 40132,
     "Key": 50,
     "DurationMs": 175,
     "Vel": 80
    },
    {
     "TimeMs": 40324,
     "Key": 64,
     "DurationMs": 175,
     "Vel": 80
    },
    {
     "TimeMs": 40325,
     "Key": 67,
     "DurationMs": 175,
     "Vel": 80
    },
    {
     "TimeMs": 40326,
     "Key": 48,
     "DurationMs": 175,
     "Vel": 80
    },
    {
     "TimeMs": 40327,
     "Key": 53,
     "DurationMs": 175,
     "Vel": 80
    },
    {
     "TimeMs": 40519,
     "Key": 53,
     "DurationMs": 262,
     "Vel": 80
    },
    {
     "TimeMs": 40520,
     "Key": 58,
     "DurationMs": 262,
     "Vel": 80
    },
    {
     "TimeMs": 40521,
     "Key": 62,
     "DurationMs": 262,
     "Vel": 80
    },
    {
     "TimeMs": 40521,
     "Key": 34,
     "DurationMs": 262,
     "Vel": 80
    },
    {
     "TimeMs": 40522,
     "Key": 46,
     "DurationMs": 262,
     "Vel": 80
    },
    {
     "TimeMs": 40811,
     "Key": 62,
     "DurationMs": 87,
     "Vel": 80
    },
    {
     "TimeMs": 40812,
     "Key": 34,
     "DurationMs": 87,
     "Vel": 80
    },
    {
     "TimeMs": 40813,
     "Key": 46,
     "DurationMs": 87,
     "Vel": 80
    },
    {
     "TimeMs": 40909,
     "Key": 53,
     "DurationMs": 175,
     "Vel": 80
    },
    {
     "TimeMs": 40909,
     "Key": 58,
     "DurationMs": 175,
     "Vel": 80
    },
    {
     "TimeMs": 40910,
     "Key": 62,
     "DurationMs": 175,
     "Vel": 80
    },
    {
     "TimeMs": 40911,
     "Key": 34,
     "DurationMs": 348,
     "Vel": 80
    },
    {
     "TimeMs": 40912,
     "Key": 46,
     "DurationMs": 348,
     "Vel": 80
    },
    {
     "TimeMs": 41103,
     "Key": 60,
     "DurationMs": 175,
     "Vel": 80
    },
    {
     "TimeMs": 41298,
     "Key": 53,
     "DurationMs": 175,
     "Vel": 80
    },
    {
     "TimeMs": 41299,
     "Key": 55,
     "DurationMs": 175,
     "Vel": 80
    },
    {
     "TimeMs": 41300,
     "Key": 62,
     "DurationMs": 175,
     "Vel": 80
    },
    {
     "TimeMs": 41301,
     "Key": 36,
     "DurationMs": 260,
     "Vel": 80
    },
    {
     "TimeMs": 41301,
     "Key": 48,
     "DurationMs": 260,
     "Vel": 80
    },
    {
     "TimeMs": 41493,
     "Key": 60,
     "DurationMs": 175,
     "Vel": 80
    },
    {
     "TimeMs": 41590,
     "Key": 36,
     "DurationMs": 87,
     "Vel": 80
    },
    {
     "TimeMs": 41591,
     "Key": 48,
     "DurationMs": 87,
     "Vel": 80
    },
    {
     "TimeMs": 41688,
     "Key": 52,
     "DurationMs": 175,
     "Vel": 80
    },
    {
     "TimeMs": 41689,
     "Key": 55,
     "DurationMs": 175,
     "Vel": 80
    },
    {
     "TimeMs": 41689,
     "Key": 60,
     "DurationMs": 175,
     "Vel": 80
    },
    {
     "TimeMs": 41690,
     "Key": 36,
     "DurationMs": 348,
     "Vel": 80
    },
    {
     "TimeMs": 41691,
     "Key": 48,
     "DurationMs": 348,
     "Vel": 80
    },
    {
     "TimeMs": 41883,
     "Key": 57,
     "DurationMs": 175,
     "Vel": 80
    },
    {
     "TimeMs": 42077,
     "Key": 53,
     "DurationMs": 292,
     "Vel": 80
    },
    {
     "TimeMs": 42078,
     "Key": 57,
     "DurationMs": 292,
     "Vel": 80
    },
    {
     "TimeMs": 42079,
     "Key": 62,
     "DurationMs": 292,
     "Vel": 80
    },
    {
     "TimeMs": 42080,
     "Key": 38,
     "DurationMs": 192,
     "Vel": 80
    },
    {
     "TimeMs": 42081,
     "Key": 50,
     "DurationMs": 192,
     "Vel": 80
    },
    {
     "TimeMs": 42274,
     "Key": 38,
     "DurationMs": 154,
     "Vel": 80
    },
    {
     "TimeMs": 42275,
     "Key": 50,
     "DurationMs": 154,
     "Vel": 80
    },
    {
     "TimeMs": 42372,
     "Key": 62,
     "DurationMs": 85,
     "Vel": 80
    },
    {
     "TimeMs": 42467,
     "Key": 53,
     "DurationMs": 175,
     "Vel": 80
    },
    {
     "TimeMs": 42468,
     "Key": 57,
     "DurationMs": 175,
     "Vel": 80
    },
    {
     "TimeMs": 42469,
     "Key": 62,
     "DurationMs": 175,
     "Vel": 80
    },
    {
     "TimeMs": 42469,
     "Key": 38,
     "DurationMs": 289,
     "Vel": 80
    },
    {
     "TimeMs": 42470,
     "Key": 50,
     "DurationMs": 289,
     "Vel": 80
    },
    {
     "TimeMs": 42662,
     "Key": 53,
     "DurationMs": 175,
     "Vel": 80
    },
    {
     "TimeMs": 42663,
     "Key": 57,
     "DurationMs": 175,
     "Vel": 80
    },
    {
     "TimeMs": 42663,
     "Key": 60,
     "DurationMs": 175,
     "Vel": 80
    },
    {
     "TimeMs": 42761,
     "Key": 50,
     "DurationMs": 86,
     "Vel": 80
    },
    {
     "TimeMs": 42857,
     "Key": 60,
     "DurationMs": 97,
     "Vel": 80
    },
    {
     "TimeMs": 42857,
     "Key": 38,
     "DurationMs": 174,
     "Vel": 80
    },
    {
     "TimeMs": 42858,
     "Key": 50,
     "DurationMs": 174,
     "Vel": 80
    },
    {
     "TimeMs": 42955,
     "Key": 53,
     "DurationMs": 86,
     "Vel": 80
    },
    {
     "TimeMs": 42956,
     "Key": 57,
     "DurationMs": 86,
     "Vel": 80
    },
    {
     "TimeMs": 43051,
     "Key": 62,
     "DurationMs": 175,
     "Vel": 80
    },
    {
     "TimeMs": 43052,
     "Key": 38,
     "DurationMs": 175,
     "Vel": 80
    },
    {
     "TimeMs": 43053,
     "Key": 50,
     "DurationMs": 175,
     "Vel": 80
    },
    {
     "TimeMs": 43246,
     "Key": 62,
     "DurationMs": 175,
     "Vel": 80
    },
    {
     "TimeMs": 43247,
     "Key": 65,
     "DurationMs": 175,
     "Vel": 80
    },
    {
     "TimeMs": 43248,
     "Key": 45,
     "DurationMs": 175,
     "Vel": 80
    },
    {
     "TimeMs": 43249,
     "Key": 50,
     "DurationMs": 175,
     "Vel": 80
    },
    {
     "TimeMs": 43441,
     "Key": 64,
     "DurationMs": 175,
     "Vel": 80
    },
    {
     "TimeMs": 43442,
     "Key": 67,
     "DurationMs": 175,
     "Vel": 80
    },
    {
     "TimeMs": 43443,
     "Key": 48,
     "DurationMs": 175,
     "Vel": 80
    },
    {
     "TimeMs": 43443,
     "Key": 53,
     "DurationMs": 175,
     "Vel": 80
    },
    {
     "TimeMs": 43636,
     "Key": 58,
     "DurationMs": 350,
     "Vel": 80
    },
    {
     "TimeMs": 43637,
     "Key": 62,
     "DurationMs": 350,
     "Vel": 80
    },
    {
     "TimeMs": 43637,
     "Key": 69,
     "DurationMs": 350,
     "Vel": 80
    },
    {
     "TimeMs": 43638,
     "Key": 34,
     "DurationMs": 172,
     "Vel": 80
    },
    {
     "TimeMs": 43639,
     "Key": 46,
     "DurationMs": 172,
     "Vel": 80
    },
    {
     "TimeMs": 43831,
     "Key": 34,
     "DurationMs": 175,
     "Vel": 80
    },
    {
     "TimeMs": 43831,
     "Key": 46,
     "DurationMs": 175,
     "Vel": 80
    },
    {
     "TimeMs": 44025,
     "Key": 58,
     "DurationMs": 175,
     "Vel": 80
    },
    {
     "TimeMs": 44026,
     "Key": 62,
     "DurationMs": 175,
     "Vel": 80
    },
    {
     "TimeMs": 44027,
     "Key": 67,
     "DurationMs": 175,
     "Vel": 80
    },
    {
     "TimeMs": 44028,
     "Key": 34,
     "DurationMs": 290,
     "Vel": 80
    },
    {
     "TimeMs": 44029,
     "Key": 46,
     "DurationMs": 290,
     "Vel": 80
    },
    {
     "TimeMs": 44220,
     "Key": 69,
     "DurationMs": 87,
     "Vel": 80
    },
    {
     "TimeMs": 44318,
     "Key": 67,
     "DurationMs": 87,
     "Vel": 80
    },
    {
     "TimeMs": 44320,
     "Key": 46,
     "DurationMs": 86,
     "Vel": 80
    },
    {
     "TimeMs": 44415,
     "Key": 55,
     "DurationMs": 350,
     "Vel": 80
    },
    {
     "TimeMs": 44416,
     "Key": 60,
     "DurationMs": 350,
     "Vel": 80
    },
    {
     "TimeMs": 44417,
     "Key": 65,
     "DurationMs": 350,
     "Vel": 80
    },
    {
     "TimeMs": 44417,
     "Key": 36,
     "DurationMs": 172,
     "Vel": 80
    },
    {
     "TimeMs": 44418,
     "Key": 48,
     "DurationMs": 172,
     "Vel": 80
    },
    {
     "TimeMs": 44610,
     "Key": 36,
     "DurationMs": 87,
     "Vel": 80
    },
    {
     "TimeMs": 44707,
     "Key": 48,
     "DurationMs": 87,
     "Vel": 80
    },
    {
     "TimeMs": 44805,
     "Key": 55,
     "DurationMs": 350,
     "Vel": 80
    },
    {
     "TimeMs": 44805,
     "Key": 60,
     "DurationMs": 350,
     "Vel": 80
    },
    {
     "TimeMs": 44806,
     "Key": 62,
     "DurationMs": 350,
     "Vel": 80
    },
    {
     "TimeMs": 44807,
     "Key": 36,
     "DurationMs": 85,
     "Vel": 80
    },
    {
     "TimeMs": 44902,
     "Key": 48,
     "DurationMs": 87,
     "Vel": 80
    },
    {
     "TimeMs": 44999,
     "Key": 36,
     "DurationMs": 87,
     "Vel": 80
    },
    {
     "TimeMs": 45097,
     "Key": 48,
     "DurationMs": 87,
     "Vel": 80
    },
    {
     "TimeMs": 45194,
     "Key": 58,
     "DurationMs": 350,
     "Vel": 80
    },
    {
     "TimeMs": 45195,
     "Key": 65,
     "DurationMs": 350,
     "Vel": 80
    },
    {
     "TimeMs": 45196,
     "Key": 34,
     "DurationMs": 173,
     "Vel": 80
    },
    {
     "TimeMs": 45389,
     "Key": 46,
     "DurationMs": 175,
     "Vel": 80
    },
    {
     "TimeMs": 45584,
     "Key": 53,
     "DurationMs": 350,
     "Vel": 80
    },
    {
     "TimeMs": 45585,
     "Key": 58,
     "DurationMs": 350,
     "Vel": 80
    },
    {
     "TimeMs": 45585,
     "Key": 64,
     "DurationMs": 350,
     "Vel": 80
    },
    {
     "TimeMs": 45586,
     "Key": 34,
     "DurationMs": 260,
     "Vel": 80
    },
    {
     "TimeMs": 45876,
     "Key": 46,
     "DurationMs": 87,
     "Vel": 80
    },
    {
     "TimeMs": 45973,
     "Key": 53,
     "DurationMs": 350,
     "Vel": 80
    },
    {
     "TimeMs": 45974,
     "Key": 58,
     "DurationMs": 350,
     "Vel": 80
    },
    {
     "TimeMs": 45975,
     "Key": 62,
     "DurationMs": 350,
     "Vel": 80
    },
    {
     "TimeMs": 45976,
     "Key": 34,
     "DurationMs": 172,
     "Vel": 80
    },
    {
     "TimeMs": 46168,
     "Key": 46,
     "DurationMs": 175,
     "Vel": 80
    },
    {
     "TimeMs": 46363,
     "Key": 53,
     "DurationMs": 350,
     "Vel": 80
    },
    {
     "TimeMs": 46364,
     "Key": 58,
     "DurationMs": 350,
     "Vel": 80
    },
    {
     "TimeMs": 46365,
     "Key": 60,
     "DurationMs": 350,
     "Vel": 80
    },
    {
     "TimeMs": 46366,
     "Key": 34,
     "DurationMs": 260,
     "Vel": 80
    },
    {
     "TimeMs": 46655,
     "Key": 46,
     "DurationMs": 87,
     "Vel": 80
    },
    {
     "TimeMs": 46753,
     "Key": 53,
     "DurationMs": 175,
     "Vel": 80
    },
    {
     "TimeMs": 46754,
     "Key": 57,
     "DurationMs": 175,
     "Vel": 80
    },
    {
     "TimeMs": 46754,
     "Key": 60,
     "DurationMs": 175,
     "Vel": 80
    },
    {
     "TimeMs": 46755,
     "Key": 29,
     "DurationMs": 175,
     "Vel": 80
    },
    {
     "TimeMs": 46948,
     "Key": 53,
     "DurationMs": 87,
     "Vel": 80
    },
    {
     "TimeMs": 46948,
     "Key": 57,
     "DurationMs": 87,
     "Vel": 80
    },
    {
     "TimeMs": 46949,
     "Key": 60,
     "DurationMs": 87,
     "Vel": 80
    },
    {
     "TimeMs": 46950,
     "Key": 41,
     "DurationMs": 172,
     "Vel": 80
    },
    {
     "TimeMs": 47045,
     "Key": 62,
     "DurationMs": 87,
     "Vel": 80
    },
    {
     "TimeMs": 47142,
     "Key": 53,
     "DurationMs": 175,
     "Vel": 80
    },
    {
     "TimeMs": 47143,
     "Key": 57,
     "DurationMs": 175,
     "Vel": 80
    },
    {
     "TimeMs": 47144,
     "Key": 29,
     "DurationMs": 261,
     "Vel": 80
    },
    {
     "TimeMs": 47337,
     "Key": 55,
     "DurationMs": 175,
     "Vel": 80
    },
    {
     "TimeMs": 47435,
     "Key": 41,
     "DurationMs": 87,
     "Vel": 80
    },
    {
     "TimeMs": 47532,
     "Key": 53,
     "DurationMs": 350,
     "Vel": 80
    },
    {
     "TimeMs": 47533,
     "Key": 57,
     "DurationMs": 350,
     "Vel": 80
    },
    {
     "TimeMs": 47534,
     "Key": 41,
     "DurationMs": 173,
     "Vel": 80
    },
    {
     "TimeMs": 47727,
     "Key": 41,
     "DurationMs": 175,
     "Vel": 80
    },
    {
     "TimeMs": 47922,
     "Key": 48,
     "DurationMs": 350,
     "Vel": 80
    },
    {
     "TimeMs": 47922,
     "Key": 53,
     "DurationMs": 350,
     "Vel": 80
    },
    {
     "TimeMs": 47923,
     "Key": 41,
     "DurationMs": 173,
     "Vel": 80
    },
    {
     "TimeMs": 48116,
     "Key": 41,
     "DurationMs": 175,
     "Vel": 80
    },
    {
     "TimeMs": 48311,
     "Key": 53,
     "DurationMs": 175,
     "Vel": 80
    },
    {
     "TimeMs": 48312,
     "Key": 57,
     "DurationMs": 175,
     "Vel": 80
    },
    {
     "TimeMs": 48313,
     "Key": 34,
     "DurationMs": 175,
     "Vel": 80
    },
    {
     "TimeMs": 48506,
     "Key": 60,
     "DurationMs": 175,
     "Vel": 80
    },
    {
     "TimeMs": 48507,
     "Key": 46,
     "DurationMs": 175,
     "Vel": 80
    },
    {
     "TimeMs": 48701,
     "Key": 53,
     "DurationMs": 350,
     "Vel": 80
    },
    {
     "TimeMs": 48702,
     "Key": 58,
     "DurationMs": 350,
     "Vel": 80
    },
    {
     "TimeMs": 48702,
     "Key": 62,
     "DurationMs": 350,
     "Vel": 80
    },
    {
     "TimeMs": 48703,
     "Key": 34,
     "DurationMs": 260,
     "Vel": 80
    },
    {
     "TimeMs": 48993,
     "Key": 46,
     "DurationMs": 87,
     "Vel": 80
    },
    {
     "TimeMs": 49090,
     "Key": 58,
     "DurationMs": 350,
     "Vel": 80
    },
    {
     "TimeMs": 49091,
     "Key": 60,
     "DurationMs": 350,
     "Vel": 80
    },
    {
     "TimeMs": 49092,
     "Key": 67,
     "DurationMs": 350,
     "Vel": 80
    },
    {
     "TimeMs": 49093,
     "Key": 36,
     "DurationMs": 172,
     "Vel": 80
    },
    {
     "TimeMs": 49285,
     "Key": 48,
     "DurationMs": 175,
     "Vel": 80
    },
    {
     "TimeMs": 49480,
     "Key": 55,
     "DurationMs": 350,
     "Vel": 80
    },
    {
     "TimeMs": 49481,
     "Key": 60,
     "DurationMs": 350,
     "Vel": 80
    },
    {
     "TimeMs": 49482,
     "Key": 64,
     "DurationMs": 350,
     "Vel": 80
    },
    {
     "TimeMs": 49482,
     "Key": 36,
     "DurationMs": 172,
     "Vel": 80
    },
    {
     "TimeMs": 49675,
     "Key": 36,
     "DurationMs": 87,
     "Vel": 80
    },
    {
     "TimeMs": 49772,
     "Key": 48,
     "DurationMs": 87,
     "Vel": 80
    },
    {
     "TimeMs": 49870,
     "Key": 57,
     "DurationMs": 175,
     "Vel": 80
    },
    {
     "TimeMs": 49870,
     "Key": 62,
     "DurationMs": 175,
     "Vel": 80
    },
    {
     "TimeMs": 49871,
     "Key": 65,
     "DurationMs": 175,
     "Vel": 80
    },
    {
     "TimeMs": 49872,
     "Key": 38,
     "DurationMs": 175,
     "Vel": 80
    },
    {
     "TimeMs": 50064,
     "Key": 53,
     "DurationMs": 175,
     "Vel": 80
    },
    {
     "TimeMs": 50065,
     "Key": 50,
     "DurationMs": 175,
     "Vel": 80
    },
    {
     "TimeMs": 50259,
     "Key": 57,
     "DurationMs": 87,
     "Vel": 80
    },
    {
     "TimeMs": 50260,
     "Key": 62,
     "DurationMs": 87,
     "Vel": 80
    },
    {
     "TimeMs": 50261,
     "Key": 64,
     "DurationMs": 87,
     "Vel": 80
    },
    {
     "TimeMs": 50262,
     "Key": 38,
     "DurationMs": 87,
     "Vel": 80
    },
    {
     "TimeMs": 50357,
     "Key": 53,
     "DurationMs": 87,
     "Vel": 80
    },
    {
     "TimeMs": 50357,
     "Key": 50,
     "DurationMs": 87,
     "Vel": 80
    },
    {
     "TimeMs": 50454,
     "Key": 57,
     "DurationMs": 87,
     "Vel": 80
    },
    {
     "TimeMs": 50455,
     "Key": 60,
     "DurationMs": 87,
     "Vel": 80
    },
    {
     "TimeMs": 50456,
     "Key": 38,
     "DurationMs": 87,
     "Vel": 80
    },
    {
     "TimeMs": 50551,
     "Key": 53,
     "DurationMs": 87,
     "Vel": 80
    },
    {
     "TimeMs": 50552,
     "Key": 50,
     "DurationMs": 87,
     "Vel": 80
    },
    {
     "TimeMs": 50649,
     "Key": 55,
     "DurationMs": 175,
     "Vel": 80
    },
    {
     "TimeMs": 50650,
     "Key": 57,
     "DurationMs": 175,
     "Vel": 80
    },
    {
     "TimeMs": 50650,
     "Key": 62,
     "DurationMs": 175,
     "Vel": 80
    },
    {
     "TimeMs": 50651,
     "Key": 38,
     "DurationMs": 175,
     "Vel": 80
    },
    {
     "TimeMs": 50844,
     "Key": 53,
     "DurationMs": 175,
     "Vel": 80
    },
    {
     "TimeMs": 50844,
     "Key": 50,
     "DurationMs": 175,
     "Vel": 80
    },
    {
     "TimeMs": 51038,
     "Key": 57,
     "DurationMs": 175,
     "Vel": 80
    },
    {
     "TimeMs": 51039,
     "Key": 38,
     "DurationMs": 175,
     "Vel": 80
    },
    {
     "TimeMs": 51233,
     "Key": 53,
     "DurationMs": 175,
     "Vel": 80
    },
    {
     "TimeMs": 51234,
     "Key": 50,
     "DurationMs": 175,
     "Vel": 80
    },
    {
     "TimeMs": 51428,
     "Key": 58,
     "DurationMs": 350,
     "Vel": 80
    },
    {
     "TimeMs": 51429,
     "Key": 65,
     "DurationMs": 350,
     "Vel": 80
    },
    {
     "TimeMs": 51430,
     "Key": 34,
     "DurationMs": 173,
     "Vel": 80
    },
    {
     "TimeMs": 51623,
     "Key": 46,
     "DurationMs": 175,
     "Vel": 80
    },
    {
     "TimeMs": 51818,
     "Key": 53,
     "DurationMs": 350,
     "Vel": 80
    },
    {
     "TimeMs": 51818,
     "Key": 58,
     "DurationMs": 350,
     "Vel": 80
    },
    {
     "TimeMs": 51819,
     "Key": 64,
     "DurationMs": 350,
     "Vel": 80
    },
    {
     "TimeMs": 51820,
     "Key": 34,
     "DurationMs": 260,
     "Vel": 80
    },
    {
     "TimeMs": 52110,
     "Key": 46,
     "DurationMs": 87,
     "Vel": 80
    },
    {
     "TimeMs": 52207,
     "Key": 53,
     "DurationMs": 350,
     "Vel": 80
    },
    {
     "TimeMs": 52208,
     "Key": 58,
     "DurationMs": 350,
     "Vel": 80
    },
    {
     "TimeMs": 52209,
     "Key": 62,
     "DurationMs": 350,
     "Vel": 80
    },
    {
     "TimeMs": 52210,
     "Key": 34,
     "DurationMs": 172,
     "Vel": 80
    },
    {
     "TimeMs": 52402,
     "Key": 46,
     "DurationMs": 175,
     "Vel": 80
    },
    {
     "TimeMs": 52597,
     "Key": 53,
     "DurationMs": 350,
     "Vel": 80
    },
    {
     "TimeMs": 52598,
     "Key": 58,
     "DurationMs": 350,
     "Vel": 80
    },
    {
     "TimeMs": 52598,
     "Key": 60,
     "DurationMs": 350,
     "Vel": 80
    },
    {
     "TimeMs": 52599,
     "Key": 34,
     "DurationMs": 260,
     "Vel": 80
    },
    {
     "TimeMs": 52889,
     "Key": 46,
     "DurationMs": 87,
     "Vel": 80
    },
    {
     "TimeMs": 52986,
     "Key": 53,
     "DurationMs": 175,
     "Vel": 80
    },
    {
     "TimeMs": 52987,
     "Key": 57,
     "DurationMs": 175,
     "Vel": 80
    },
    {
     "TimeMs": 52988,
     "Key": 60,
     "DurationMs": 175,
     "Vel": 80
    },
    {
     "TimeMs": 52989,
     "Key": 29,
     "DurationMs": 175,
     "Vel": 80
    },
    {
     "TimeMs": 53181,
     "Key": 53,
     "DurationMs": 87,
     "Vel": 80
    },
    {
     "TimeMs": 53182,
     "Key": 57,
     "DurationMs": 87,
     "Vel": 80
    },
    {
     "TimeMs": 53183,
     "Key": 60,
     "DurationMs": 87,
     "Vel": 80
    },
    {
     "TimeMs": 53184,
     "Key": 41,
     "DurationMs": 172,
     "Vel": 80
    },
    {
     "TimeMs": 53279,
     "Key": 62,
     "DurationMs": 87,
     "Vel": 80
    },
    {
     "TimeMs": 53376,
     "Key": 53,
     "DurationMs": 175,
     "Vel": 80
    },
    {
     "TimeMs": 53377,
     "Key": 57,
     "DurationMs": 175,
     "Vel": 80
    },
    {
     "TimeMs": 53378,
     "Key": 29,
     "DurationMs": 261,
     "Vel": 80
    },
    {
     "TimeMs": 53571,
     "Key": 55,
     "DurationMs": 175,
     "Vel": 80
    },
    {
     "TimeMs": 53668,
     "Key": 41,
     "DurationMs": 87,
     "Vel": 80
    },
    {
     "TimeMs": 53766,
     "Key": 53,
     "DurationMs": 350,
     "Vel": 80
    },
    {
     "TimeMs": 53766,
     "Key": 57,
     "DurationMs": 350,
     "Vel": 80
    },
    {
     "TimeMs": 53767,
     "Key": 41,
     "DurationMs": 173,
     "Vel": 80
    },
    {
     "TimeMs": 53960,
     "Key": 41,
     "DurationMs": 175,
     "Vel": 80
    },
    {
     "TimeMs": 54155,
     "Key": 48,
     "DurationMs": 175,
     "Vel": 80
    },
    {
     "TimeMs": 54156,
     "Key": 57,
     "DurationMs": 175,
     "Vel": 80
    },
    {
     "TimeMs": 54157,
     "Key": 41,
     "DurationMs": 175,
     "Vel": 80
    },
    {
     "TimeMs": 54350,
     "Key": 60,
     "DurationMs": 175,
     "Vel": 80
    },
    {
     "TimeMs": 54351,
     "Key": 41,
     "DurationMs": 175,
     "Vel": 80
    },
    {
     "TimeMs": 54533,
     "Key": 53,
     "DurationMs": 175,
     "Vel": 80
    },
    {
     "TimeMs": 54545,
     "Key": 55,
     "DurationMs": 175,
     "Vel": 80
    },
    {
     "TimeMs": 54546,
     "Key": 31,
     "DurationMs": 175,
     "Vel": 80
    },
    {
     "TimeMs": 54547,
     "Key": 43,
     "DurationMs": 175,
     "Vel": 80
    },
    {
     "TimeMs": 54557,
     "Key": 58,
     "DurationMs": 175,
     "Vel": 80
    },
    {
     "TimeMs": 54569,
     "Key": 62,
     "DurationMs": 175,
     "Vel": 80
    },
    {
     "TimeMs": 54740,
     "Key": 55,
     "DurationMs": 350,
     "Vel": 80
    },
    {
     "TimeMs": 54741,
     "Key": 58,
     "DurationMs": 350,
     "Vel": 80
    },
    {
     "TimeMs": 54741,
     "Key": 62,
     "DurationMs": 3,
     "Vel": 80
    },
    {
     "TimeMs": 54742,
     "Key": 43,
     "DurationMs": 350,
     "Vel": 80
    },
    {
     "TimeMs": 55129,
     "Key": 55,
     "DurationMs": 175,
     "Vel": 80
    },
    {
     "TimeMs": 55130,
     "Key": 58,
     "DurationMs": 175,
     "Vel": 80
    },
    {
     "TimeMs": 55131,
     "Key": 62,
     "DurationMs": 175,
     "Vel": 80
    },
    {
     "TimeMs": 55132,
     "Key": 43,
     "DurationMs": 175,
     "Vel": 80
    },
    {
     "TimeMs": 55324,
     "Key": 57,
     "DurationMs": 350,
     "Vel": 80
    },
    {
     "TimeMs": 55325,
     "Key": 65,
     "DurationMs": 350,
     "Vel": 80
    },
    {
     "TimeMs": 55326,
     "Key": 43,
     "DurationMs": 350,
     "Vel": 80
    },
    {
     "TimeMs": 55327,
     "Key": 50,
     "DurationMs": 350,
     "Vel": 80
    },
    {
     "TimeMs": 55714,
     "Key": 58,
     "DurationMs": 350,
     "Vel": 80
    },
    {
     "TimeMs": 55715,
     "Key": 62,
     "DurationMs": 350,
     "Vel": 80
    },
    {
     "TimeMs": 55715,
     "Key": 67,
     "DurationMs": 350,
     "Vel": 80
    },
    {
     "TimeMs": 55716,
     "Key": 43,
     "DurationMs": 350,
     "Vel": 80
    },
    {
     "TimeMs": 55717,
     "Key": 50,
     "DurationMs": 350,
     "Vel": 80
    },
    {
     "TimeMs": 56103,
     "Key": 55,
     "DurationMs": 350,
     "Vel": 80
    },
    {
     "TimeMs": 56104,
     "Key": 57,
     "DurationMs": 350,
     "Vel": 80
    },
    {
     "TimeMs": 56105,
     "Key": 61,
     "DurationMs": 350,
     "Vel": 80
    },
    {
     "TimeMs": 56106,
     "Key": 64,
     "DurationMs": 350,
     "Vel": 80
    },
    {
     "TimeMs": 56107,
     "Key": 33,
     "DurationMs": 172,
     "Vel": 80
    },
    {
     "TimeMs": 56107,
     "Key": 45,
     "DurationMs": 172,
     "Vel": 80
    },
    {
     "TimeMs": 56298,
     "Key": 45,
     "DurationMs": 175,
     "Vel": 80
    },
    {
     "TimeMs": 56493,
     "Key": 52,
     "DurationMs": 175,
     "Vel": 80
    },
    {
     "TimeMs": 56494,
     "Key": 55,
     "DurationMs": 175,
     "Vel": 80
    },
    {
     "TimeMs": 56495,
     "Key": 33,
     "DurationMs": 175,
     "Vel": 80
    },
    {
     "TimeMs": 56495,
     "Key": 45,
     "DurationMs": 175,
     "Vel": 80
    },
    {
     "TimeMs": 56688,
     "Key": 49,
     "DurationMs": 175,
     "Vel": 80
    },
    {
     "TimeMs": 56689,
     "Key": 52,
     "DurationMs": 175,
     "Vel": 80
    },
    {
     "TimeMs": 56689,
     "Key": 55,
     "DurationMs": 175,
     "Vel": 80
    },
    {
     "TimeMs": 56690,
     "Key": 57,
     "DurationMs": 175,
     "Vel": 80
    },
    {
     "TimeMs": 56691,
     "Key": 33,
     "DurationMs": 175,
     "Vel": 80
    },
    {
     "TimeMs": 56692,
     "Key": 45,
     "DurationMs": 175,
     "Vel": 80
    },
    {
     "TimeMs": 57272,
     "Key": 62,
     "DurationMs": 175,
     "Vel": 80
    },
    {
     "TimeMs": 57467,
     "Key": 65,
     "DurationMs": 175,
     "Vel": 80
    },
    {
     "TimeMs": 57662,
     "Key": 57,
     "DurationMs": 262,
     "Vel": 80
    },
    {
     "TimeMs": 57663,
     "Key": 62,
     "DurationMs": 262,
     "Vel": 80
    },
    {
     "TimeMs": 57663,
     "Key": 67,
     "DurationMs": 262,
     "Vel": 80
    },
    {
     "TimeMs": 57664,
     "Key": 38,
     "DurationMs": 172,
     "Vel": 80
    },
    {
     "TimeMs": 57665,
     "Key": 50,
     "DurationMs": 172,
     "Vel": 80
    },
    {
     "TimeMs": 57857,
     "Key": 50,
     "DurationMs": 87,
     "Vel": 80
    },
    {
     "TimeMs": 57954,
     "Key": 62,
     "DurationMs": 262,
     "Vel": 80
    },
    {
     "TimeMs": 57955,
     "Key": 67,
     "DurationMs": 262,
     "Vel": 80
    },
    {
     "TimeMs": 57956,
     "Key": 53,
     "DurationMs": 86,
     "Vel": 80
    },
    {
     "TimeMs": 58051,
     "Key": 57,
     "DurationMs": 175,
     "Vel": 80
    },
    {
     "TimeMs": 58052,
     "Key": 50,
     "DurationMs": 175,
     "Vel": 80
    },
    {
     "TimeMs": 58246,
     "Key": 62,
     "DurationMs": 175,
     "Vel": 80
    },
    {
     "TimeMs": 58247,
     "Key": 65,
     "DurationMs": 175,
     "Vel": 80
    },
    {
     "TimeMs": 58248,
     "Key": 69,
     "DurationMs": 175,
     "Vel": 80
    },
    {
     "TimeMs": 58249,
     "Key": 50,
     "DurationMs": 175,
     "Vel": 80
    },
    {
     "TimeMs": 58441,
     "Key": 62,
     "DurationMs": 525,
     "Vel": 80
    },
    {
     "TimeMs": 58442,
     "Key": 65,
     "DurationMs": 525,
     "Vel": 80
    },
    {
     "TimeMs": 58443,
     "Key": 69,
     "DurationMs": 525,
     "Vel": 80
    },
    {
     "TimeMs": 58443,
     "Key": 34,
     "DurationMs": 172,
     "Vel": 80
    },
    {
     "TimeMs": 58444,
     "Key": 46,
     "DurationMs": 172,
     "Vel": 80
    },
    {
     "TimeMs": 58636,
     "Key": 50,
     "DurationMs": 87,
     "Vel": 80
    },
    {
     "TimeMs": 58733,
     "Key": 53,
     "DurationMs": 87,
     "Vel": 80
    },
    {
     "TimeMs": 58831,
     "Key": 58,
     "DurationMs": 175,
     "Vel": 80
    },
    {
     "TimeMs": 58831,
     "Key": 50,
     "DurationMs": 175,
     "Vel": 80
    },
    {
     "TimeMs": 59025,
     "Key": 69,
     "DurationMs": 175,
     "Vel": 80
    },
    {
     "TimeMs": 59026,
     "Key": 46,
     "DurationMs": 175,
     "Vel": 80
    },
    {
     "TimeMs": 59220,
     "Key": 64,
     "DurationMs": 175,
     "Vel": 80
    },
    {
     "TimeMs": 59221,
     "Key": 67,
     "DurationMs": 175,
     "Vel": 80
    },
    {
     "TimeMs": 59222,
     "Key": 72,
     "DurationMs": 175,
     "Vel": 80
    },
    {
     "TimeMs": 59223,
     "Key": 36,
     "DurationMs": 175,
     "Vel": 80
    },
    {
     "TimeMs": 59223,
     "Key": 48,
     "DurationMs": 175,
     "Vel": 80
    },
    {
     "TimeMs": 59415,
     "Key": 74,
     "DurationMs": 175,
     "Vel": 80
    },
    {
     "TimeMs": 59416,
     "Key": 48,
     "DurationMs": 86,
     "Vel": 80
    },
    {
     "TimeMs": 59512,
     "Key": 52,
     "DurationMs": 87,
     "Vel": 80
    },
    {
     "TimeMs": 59610,
     "Key": 58,
     "DurationMs": 175,
     "Vel": 80
    },
    {
     "TimeMs": 59611,
     "Key": 64,
     "DurationMs": 175,
     "Vel": 80
    },
    {
     "TimeMs": 59611,
     "Key": 67,
     "DurationMs": 175,
     "Vel": 80
    },
    {
     "TimeMs": 59612,
     "Key": 55,
     "DurationMs": 175,
     "Vel": 80
    },
    {
     "TimeMs": 59613,
     "Key": 48,
     "DurationMs": 175,
     "Vel": 80
    },
    {
     "TimeMs": 59805,
     "Key": 65,
     "DurationMs": 175,
     "Vel": 80
    },
    {
     "TimeMs": 59805,
     "Key": 48,
     "DurationMs": 175,
     "Vel": 80
    },
    {
     "TimeMs": 59999,
     "Key": 60,
     "DurationMs": 350,
     "Vel": 80
    },
    {
     "TimeMs": 60000,
     "Key": 65,
     "DurationMs": 350,
     "Vel": 80
    },
    {
     "TimeMs": 60001,
     "Key": 69,
     "DurationMs": 350,
     "Vel": 80
    },
    {
     "TimeMs": 60002,
     "Key": 41,
     "DurationMs": 172,
     "Vel": 80
    },
    {
     "TimeMs": 60003,
     "Key": 53,
     "DurationMs": 172,
     "Vel": 80
    },
    {
     "TimeMs": 60194,
     "Key": 48,
     "DurationMs": 87,
     "Vel": 80
    },
    {
     "TimeMs": 60292,
     "Key": 48,
     "DurationMs": 87,
     "Vel": 80
    },
    {
     "TimeMs": 60389,
     "Key": 62,
     "DurationMs": 175,
     "Vel": 80
    },
    {
     "TimeMs": 60390,
     "Key": 57,
     "DurationMs": 175,
     "Vel": 80
    },
    {
     "TimeMs": 60391,
     "Key": 53,
     "DurationMs": 175,
     "Vel": 80
    },
    {
     "TimeMs": 60584,
     "Key": 65,
     "DurationMs": 175,
     "Vel": 80
    },
    {
     "TimeMs": 60585,
     "Key": 48,
     "DurationMs": 175,
     "Vel": 80
    },
    {
     "TimeMs": 60779,
     "Key": 57,
     "DurationMs": 262,
     "Vel": 80
    },
    {
     "TimeMs": 60779,
     "Key": 62,
     "DurationMs": 262,
     "Vel": 80
    },
    {
     "TimeMs": 60780,
     "Key": 67,
     "DurationMs": 262,
     "Vel": 80
    },
    {
     "TimeMs": 60781,
     "Key": 38,
     "DurationMs": 172,
     "Vel": 80
    },
    {
     "TimeMs": 60782,
     "Key": 50,
     "DurationMs": 172,
     "Vel": 80
    },
    {
     "TimeMs": 60973,
     "Key": 50,
     "DurationMs": 87,
     "Vel": 80
    },
    {
     "TimeMs": 61071,
     "Key": 62,
     "DurationMs": 262,
     "Vel": 80
    },
    {
     "TimeMs": 61072,
     "Key": 67,
     "DurationMs": 262,
     "Vel": 80
    },
    {
     "TimeMs": 61072,
     "Key": 53,
     "DurationMs": 86,
     "Vel": 80
    },
    {
     "TimeMs": 61168,
     "Key": 57,
     "DurationMs": 175,
     "Vel": 80
    },
    {
     "TimeMs": 61169,
     "Key": 50,
     "DurationMs": 175,
     "Vel": 80
    },
    {
     "TimeMs": 61363,
     "Key": 62,
     "DurationMs": 175,
     "Vel": 80
    },
    {
     "TimeMs": 61364,
     "Key": 65,
     "DurationMs": 175,
     "Vel": 80
    },
    {
     "TimeMs": 61365,
     "Key": 69,
     "DurationMs": 175,
     "Vel": 80
    },
    {
     "TimeMs": 61366,
     "Key": 50,
     "DurationMs": 175,
     "Vel": 80
    },
    {
     "TimeMs": 61558,
     "Key": 62,
     "DurationMs": 525,
     "Vel": 80
    },
    {
     "TimeMs": 61559,
     "Key": 65,
     "DurationMs": 525,
     "Vel": 80
    },
    {
     "TimeMs": 61560,
     "Key": 69,
     "DurationMs": 525,
     "Vel": 80
    },
    {
     "TimeMs": 61560,
     "Key": 34,
     "DurationMs": 172,
     "Vel": 80
    },
    {
     "TimeMs": 61561,
     "Key": 46,
     "DurationMs": 172,
     "Vel": 80
    },
    {
     "TimeMs": 61753,
     "Key": 50,
     "DurationMs": 87,
     "Vel": 80
    },
    {
     "TimeMs": 61850,
     "Key": 53,
     "DurationMs": 87,
     "Vel": 80
    },
    {
     "TimeMs": 61947,
     "Key": 58,
     "DurationMs": 175,
     "Vel": 80
    },
    {
     "TimeMs": 61948,
     "Key": 50,
     "DurationMs": 175,
     "Vel": 80
    },
    {
     "TimeMs": 62142,
     "Key": 69,
     "DurationMs": 175,
     "Vel": 80
    },
    {
     "TimeMs": 62143,
     "Key": 46,
     "DurationMs": 175,
     "Vel": 80
    },
    {
     "TimeMs": 62337,
     "Key": 64,
     "DurationMs": 175,
     "Vel": 80
    },
    {
     "TimeMs": 62338,
     "Key": 67,
     "DurationMs": 175,
     "Vel": 80
    },
    {
     "TimeMs": 62339,
     "Key": 70,
     "DurationMs": 175,
     "Vel": 80
    },
    {
     "TimeMs": 62340,
     "Key": 36,
     "DurationMs": 175,
     "Vel": 80
    },
    {
     "TimeMs": 62340,
     "Key": 48,
     "DurationMs": 175,
     "Vel": 80
    },
    {
     "TimeMs": 62532,
     "Key": 69,
     "DurationMs": 175,
     "Vel": 80
    },
    {
     "TimeMs": 62533,
     "Key": 48,
     "DurationMs": 86,
     "Vel": 80
    },
    {
     "TimeMs": 62629,
     "Key": 52,
     "DurationMs": 87,
     "Vel": 80
    },
    {
     "TimeMs": 62727,
     "Key": 58,
     "DurationMs": 175,
     "Vel": 80
    },
    {
     "TimeMs": 62728,
     "Key": 64,
     "DurationMs": 175,
     "Vel": 80
    },
    {
     "TimeMs": 62728,
     "Key": 67,
     "DurationMs": 175,
     "Vel": 80
    },
    {
     "TimeMs": 62729,
     "Key": 55,
     "DurationMs": 175,
     "Vel": 80
    },
    {
     "TimeMs": 62730,
     "Key": 48,
     "DurationMs": 175,
     "Vel": 80
    },
    {
     "TimeMs": 62922,
     "Key": 65,
     "DurationMs": 175,
     "Vel": 80
    },
    {
     "TimeMs": 62922,
     "Key": 48,
     "DurationMs": 175,
     "Vel": 80
    },
    {
     "TimeMs": 63116,
     "Key": 57,
     "DurationMs": 350,
     "Vel": 80
    },
    {
     "TimeMs": 63117,
     "Key": 60,
     "DurationMs": 350,
     "Vel": 80
    },
    {
     "TimeMs": 63118,
     "Key": 65,
     "DurationMs": 350,
     "Vel": 80
    },
    {
     "TimeMs": 63119,
     "Key": 41,
     "DurationMs": 172,
     "Vel": 80
    },
    {
     "TimeMs": 63120,
     "Key": 53,
     "DurationMs": 172,
     "Vel": 80
    },
    {
     "TimeMs": 63311,
     "Key": 48,
     "DurationMs": 87,
     "Vel": 80
    },
    {
     "TimeMs": 63409,
     "Key": 48,
     "DurationMs": 87,
     "Vel": 80
    },
    {
     "TimeMs": 63506,
     "Key": 57,
     "DurationMs": 175,
     "Vel": 80
    },
    {
     "TimeMs": 63507,
     "Key": 62,
     "DurationMs": 175,
     "Vel": 80
    },
    {
     "TimeMs": 63508,
     "Key": 41,
     "DurationMs": 175,
     "Vel": 80
    },
    {
     "TimeMs": 63508,
     "Key": 53,
     "DurationMs": 175,
     "Vel": 80
    },
    {
     "TimeMs": 63701,
     "Key": 65,
     "DurationMs": 175,
     "Vel": 80
    },
    {
     "TimeMs": 63702,
     "Key": 48,
     "DurationMs": 175,
     "Vel": 80
    },
    {
     "TimeMs": 63896,
     "Key": 57,
     "DurationMs": 262,
     "Vel": 80
    },
    {
     "TimeMs": 63896,
     "Key": 62,
     "DurationMs": 262,
     "Vel": 80
    },
    {
     "TimeMs": 63897,
     "Key": 67,
     "DurationMs": 262,
     "Vel": 80
    },
    {
     "TimeMs": 63898,
     "Key": 38,
     "DurationMs": 172,
     "Vel": 80
    },
    {
     "TimeMs": 63899,
     "Key": 50,
     "DurationMs": 172,
     "Vel": 80
    },
    {
     "TimeMs": 64090,
     "Key": 50,
     "DurationMs": 87,
     "Vel": 80
    },
    {
     "TimeMs": 64188,
     "Key": 62,
     "DurationMs": 262,
     "Vel": 80
    },
    {
     "TimeMs": 64189,
     "Key": 67,
     "DurationMs": 262,
     "Vel": 80
    },
    {
     "TimeMs": 64189,
     "Key": 53,
     "DurationMs": 86,
     "Vel": 80
    },
    {
     "TimeMs": 64285,
     "Key": 57,
     "DurationMs": 175,
     "Vel": 80
    },
    {
     "TimeMs": 64286,
     "Key": 50,
     "DurationMs": 175,
     "Vel": 80
    },
    {
     "TimeMs": 64480,
     "Key": 62,
     "DurationMs": 175,
     "Vel": 80
    },
    {
     "TimeMs": 64481,
     "Key": 65,
     "DurationMs": 175,
     "Vel": 80
    },
    {
     "TimeMs": 64482,
     "Key": 69,
     "DurationMs": 175,
     "Vel": 80
    },
    {
     "TimeMs": 64482,
     "Key": 50,
     "DurationMs": 175,
     "Vel": 80
    },
    {
     "TimeMs": 64675,
     "Key": 62,
     "DurationMs": 525,
     "Vel": 80
    },
    {
     "TimeMs": 64676,
     "Key": 65,
     "DurationMs": 525,
     "Vel": 80
    },
    {
     "TimeMs": 64676,
     "Key": 69,
     "DurationMs": 525,
     "Vel": 80
    },
    {
     "TimeMs": 64677,
     "Key": 34,
     "DurationMs": 172,
     "Vel": 80
    },
    {
     "TimeMs": 64678,
     "Key": 46,
     "DurationMs": 172,
     "Vel": 80
    },
    {
     "TimeMs": 64870,
     "Key": 50,
     "DurationMs": 87,
     "Vel": 80
    },
    {
     "TimeMs": 64967,
     "Key": 53,
     "DurationMs": 87,
     "Vel": 80
    },
    {
     "TimeMs": 65064,
     "Key": 58,
     "DurationMs": 175,
     "Vel": 80
    },
    {
     "TimeMs": 65065,
     "Key": 50,
     "DurationMs": 175,
     "Vel": 80
    },
    {
     "TimeMs": 65259,
     "Key": 69,
     "DurationMs": 175,
     "Vel": 80
    },
    {
     "TimeMs": 65260,
     "Key": 46,
     "DurationMs": 175,
     "Vel": 80
    },
    {
     "TimeMs": 65454,
     "Key": 64,
     "DurationMs": 175,
     "Vel": 80
    },
    {
     "TimeMs": 65455,
     "Key": 67,
     "DurationMs": 175,
     "Vel": 80
    },
    {
     "TimeMs": 65456,
     "Key": 72,
     "DurationMs": 175,
     "Vel": 80
    },
    {
     "TimeMs": 65456,
     "Key": 36,
     "DurationMs": 175,
     "Vel": 80
    },
    {
     "TimeMs": 65457,
     "Key": 48,
     "DurationMs": 175,
     "Vel": 80
    },
    {
     "TimeMs": 65649,
     "Key": 74,
     "DurationMs": 175,
     "Vel": 80
    },
    {
     "TimeMs": 65650,
     "Key": 48,
     "DurationMs": 86,
     "Vel": 80
    },
    {
     "TimeMs": 65746,
     "Key": 52,
     "DurationMs": 87,
     "Vel": 80
    },
    {
     "TimeMs": 65844,
     "Key": 58,
     "DurationMs": 175,
     "Vel": 80
    },
    {
     "TimeMs": 65844,
     "Key": 64,
     "DurationMs": 175,
     "Vel": 80
    },
    {
     "TimeMs": 65845,
     "Key": 67,
     "DurationMs": 175,
     "Vel": 80
    },
    {
     "TimeMs": 65846,
     "Key": 55,
     "DurationMs": 175,
     "Vel": 80
    },
    {
     "TimeMs": 65847,
     "Key": 48,
     "DurationMs": 175,
     "Vel": 80
    },
    {
     "TimeMs": 66038,
     "Key": 65,
     "DurationMs": 175,
     "Vel": 80
    },
    {
     "TimeMs": 66039,
     "Key": 48,
     "DurationMs": 175,
     "Vel": 80
    },
    {
     "TimeMs": 66233,
     "Key": 60,
     "DurationMs": 350,
     "Vel": 80
    },
    {
     "TimeMs": 66234,
     "Key": 65,
     "DurationMs": 350,
     "Vel": 80
    },
    {
     "TimeMs": 66235,
     "Key": 69,
     "DurationMs": 350,
     "Vel": 80
    },
    {
     "TimeMs": 66236,
     "Key": 41,
     "DurationMs": 172,
     "Vel": 80
    },
    {
     "TimeMs": 66236,
     "Key": 53,
     "DurationMs": 172,
     "Vel": 80
    },
    {
     "TimeMs": 66428,
     "Key": 48,
     "DurationMs": 87,
     "Vel": 80
    },
    {
     "TimeMs": 66525,
     "Key": 48,
     "DurationMs": 87,
     "Vel": 80
    },
    {
     "TimeMs": 66623,
     "Key": 62,
     "DurationMs": 175,
     "Vel": 80
    },
    {
     "TimeMs": 66624,
     "Key": 57,
     "DurationMs": 175,
     "Vel": 80
    },
    {
     "TimeMs": 66624,
     "Key": 53,
     "DurationMs": 175,
     "Vel": 80
    },
    {
     "TimeMs": 66818,
     "Key": 65,
     "DurationMs": 175,
     "Vel": 80
    },
    {
     "TimeMs": 66818,
     "Key": 48,
     "DurationMs": 175,
     "Vel": 80
    },
    {
     "TimeMs": 67012,
     "Key": 62,
     "DurationMs": 350,
     "Vel": 80
    },
    {
     "TimeMs": 67013,
     "Key": 65,
     "DurationMs": 350,
     "Vel": 80
    },
    {
     "TimeMs": 67014,
     "Key": 70,
     "DurationMs": 350,
     "Vel": 80
    },
    {
     "TimeMs": 67015,
     "Key": 34,
     "DurationMs": 172,
     "Vel": 80
    },
    {
     "TimeMs": 67016,
     "Key": 46,
     "DurationMs": 172,
     "Vel": 80
    },
    {
     "TimeMs": 67207,
     "Key": 50,
     "DurationMs": 87,
     "Vel": 80
    },
    {
     "TimeMs": 67305,
     "Key": 53,
     "DurationMs": 87,
     "Vel": 80
    },
    {
     "TimeMs": 67402,
     "Key": 62,
     "DurationMs": 350,
     "Vel": 80
    },
    {
     "TimeMs": 67403,
     "Key": 65,
     "DurationMs": 350,
     "Vel": 80
    },
    {
     "TimeMs": 67404,
     "Key": 69,
     "DurationMs": 350,
     "Vel": 80
    },
    {
     "TimeMs": 67404,
     "Key": 58,
     "DurationMs": 172,
     "Vel": 80
    },
    {
     "TimeMs": 67405,
     "Key": 46,
     "DurationMs": 172,
     "Vel": 80
    },
    {
     "TimeMs": 67597,
     "Key": 50,
     "DurationMs": 87,
     "Vel": 80
    },
    {
     "TimeMs": 67694,
     "Key": 53,
     "DurationMs": 87,
     "Vel": 80
    },
    {
     "TimeMs": 67792,
     "Key": 60,
     "DurationMs": 350,
     "Vel": 80
    },
    {
     "TimeMs": 67792,
     "Key": 64,
     "DurationMs": 350,
     "Vel": 80
    },
    {
     "TimeMs": 67793,
     "Key": 67,
     "DurationMs": 350,
     "Vel": 80
    },
    {
     "TimeMs": 67794,
     "Key": 33,
     "DurationMs": 172,
     "Vel": 80
    },
    {
     "TimeMs": 67795,
     "Key": 45,
     "DurationMs": 172,
     "Vel": 80
    },
    {
     "TimeMs": 67986,
     "Key": 48,
     "DurationMs": 87,
     "Vel": 80
    },
    {
     "TimeMs": 68084,
     "Key": 52,
     "DurationMs": 87,
     "Vel": 80
    },
    {
     "TimeMs": 68181,
     "Key": 60,
     "DurationMs": 350,
     "Vel": 80
    },
    {
     "TimeMs": 68182,
     "Key": 64,
     "DurationMs": 350,
     "Vel": 80
    },
    {
     "TimeMs": 68183,
     "Key": 65,
     "DurationMs": 350,
     "Vel": 80
    },
    {
     "TimeMs": 68184,
     "Key": 57,
     "DurationMs": 172,
     "Vel": 80
    },
    {
     "TimeMs": 68184,
     "Key": 45,
     "DurationMs": 172,
     "Vel": 80
    },
    {
     "TimeMs": 68376,
     "Key": 48,
     "DurationMs": 87,
     "Vel": 80
    },
    {
     "TimeMs": 68473,
     "Key": 52,
     "DurationMs": 87,
     "Vel": 80
    },
    {
     "TimeMs": 68571,
     "Key": 58,
     "DurationMs": 175,
     "Vel": 80
    },
    {
     "TimeMs": 68572,
     "Key": 62,
     "DurationMs": 175,
     "Vel": 80
    },
    {
     "TimeMs": 68572,
     "Key": 67,
     "DurationMs": 175,
     "Vel": 80
    },
    {
     "TimeMs": 68573,
     "Key": 34,
     "DurationMs": 193,
     "Vel": 80
    },
    {
     "TimeMs": 68574,
     "Key": 46,
     "DurationMs": 193,
     "Vel": 80
    },
    {
     "TimeMs": 68766,
     "Key": 69,
     "DurationMs": 175,
     "Vel": 80
    },
    {
     "TimeMs": 68768,
     "Key": 46,
     "DurationMs": 153,
     "Vel": 80
    },
    {
     "TimeMs": 68960,
     "Key": 58,
     "DurationMs": 175,
     "Vel": 80
    },
    {
     "TimeMs": 68961,
     "Key": 64,
     "DurationMs": 175,
     "Vel": 80
    },
    {
     "TimeMs": 68962,
     "Key": 36,
     "DurationMs": 193,
     "Vel": 80
    },
    {
     "TimeMs": 68963,
     "Key": 48,
     "DurationMs": 193,
     "Vel": 80
    },
    {
     "TimeMs": 69155,
     "Key": 60,
     "DurationMs": 175,
     "Vel": 80
    },
    {
     "TimeMs": 69158,
     "Key": 48,
     "DurationMs": 153,
     "Vel": 80
    },
    {
     "TimeMs": 69350,
     "Key": 53,
     "DurationMs": 350,
     "Vel": 80
    },
    {
     "TimeMs": 69351,
     "Key": 57,
     "DurationMs": 350,
     "Vel": 80
    },
    {
     "TimeMs": 69352,
     "Key": 62,
     "DurationMs": 350,
     "Vel": 80
    },
    {
     "TimeMs": 69353,
     "Key": 38,
     "DurationMs": 172,
     "Vel": 80
    },
    {
     "TimeMs": 69353,
     "Key": 50,
     "DurationMs": 172,
     "Vel": 80
    },
    {
     "TimeMs": 69545,
     "Key": 45,
     "DurationMs": 87,
     "Vel": 80
    },
    {
     "TimeMs": 69642,
     "Key": 50,
     "DurationMs": 87,
     "Vel": 80
    },
    {
     "TimeMs": 69740,
     "Key": 53,
     "DurationMs": 175,
     "Vel": 80
    },
    {
     "TimeMs": 69741,
     "Key": 57,
     "DurationMs": 175,
     "Vel": 80
    },
    {
     "TimeMs": 69741,
     "Key": 62,
     "DurationMs": 175,
     "Vel": 80
    },
    {
     "TimeMs": 69742,
     "Key": 38,
     "DurationMs": 175,
     "Vel": 80
    },
    {
     "TimeMs": 69934,
     "Key": 65,
     "DurationMs": 175,
     "Vel": 80
    },
    {
     "TimeMs": 69935,
     "Key": 50,
     "DurationMs": 175,
     "Vel": 80
    },
    {
     "TimeMs": 70129,
     "Key": 57,
     "DurationMs": 262,
     "Vel": 80
    },
    {
     "TimeMs": 70130,
     "Key": 62,
     "DurationMs": 262,
     "Vel": 80
    },
    {
     "TimeMs": 70131,
     "Key": 67,
     "DurationMs": 262,
     "Vel": 80
    },
    {
     "TimeMs": 70132,
     "Key": 38,
     "DurationMs": 172,
     "Vel": 80
    },
    {
     "TimeMs": 70133,
     "Key": 50,
     "DurationMs": 172,
     "Vel": 80
    },
    {
     "TimeMs": 70324,
     "Key": 50,
     "DurationMs": 87,
     "Vel": 80
    },
    {
     "TimeMs": 70422,
     "Key": 62,
     "DurationMs": 262,
     "Vel": 80
    },
    {
     "TimeMs": 70422,
     "Key": 67,
     "DurationMs": 262,
     "Vel": 80
    },
    {
     "TimeMs": 70423,
     "Key": 53,
     "DurationMs": 86,
     "Vel": 80
    },
    {
     "TimeMs": 70519,
     "Key": 57,
     "DurationMs": 175,
     "Vel": 80
    },
    {
     "TimeMs": 70520,
     "Key": 50,
     "DurationMs": 175,
     "Vel": 80
    },
    {
     "TimeMs": 70714,
     "Key": 62,
     "DurationMs": 175,
     "Vel": 80
    },
    {
     "TimeMs": 70715,
     "Key": 65,
     "DurationMs": 175,
     "Vel": 80
    },
    {
     "TimeMs": 70715,
     "Key": 69,
     "DurationMs": 175,
     "Vel": 80
    },
    {
     "TimeMs": 70716,
     "Key": 50,
     "DurationMs": 175,
     "Vel": 80
    },
    {
     "TimeMs": 70909,
     "Key": 62,
     "DurationMs": 525,
     "Vel": 80
    },
    {
     "TimeMs": 70909,
     "Key": 65,
     "DurationMs": 525,
     "Vel": 80
    },
    {
     "TimeMs": 70910,
     "Key": 69,
     "DurationMs": 525,
     "Vel": 80
    },
    {
     "TimeMs": 70911,
     "Key": 34,
     "DurationMs": 172,
     "Vel": 80
    },
    {
     "TimeMs": 70912,
     "Key": 46,
     "DurationMs": 172,
     "Vel": 80
    },
    {
     "TimeMs": 71103,
     "Key": 50,
     "DurationMs": 87,
     "Vel": 80
    },
    {
     "TimeMs": 71201,
     "Key": 53,
     "DurationMs": 87,
     "Vel": 80
    },
    {
     "TimeMs": 71298,
     "Key": 58,
     "DurationMs": 175,
     "Vel": 80
    },
    {
     "TimeMs": 71299,
     "Key": 50,
     "DurationMs": 175,
     "Vel": 80
    },
    {
     "TimeMs": 71493,
     "Key": 69,
     "DurationMs": 175,
     "Vel": 80
    },
    {
     "TimeMs": 71494,
     "Key": 46,
     "DurationMs": 175,
     "Vel": 80
    },
    {
     "TimeMs": 71688,
     "Key": 64,
     "DurationMs": 175,
     "Vel": 80
    },
    {
     "TimeMs": 71689,
     "Key": 67,
     "DurationMs": 175,
     "Vel": 80
    },
    {
     "TimeMs": 71689,
     "Key": 72,
     "DurationMs": 175,
     "Vel": 80
    },
    {
     "TimeMs": 71690,
     "Key": 36,
     "DurationMs": 175,
     "Vel": 80
    },
    {
     "TimeMs": 71691,
     "Key": 48,
     "DurationMs": 175,
     "Vel": 80
    },
    {
     "TimeMs": 71883,
     "Key": 74,
     "DurationMs": 175,
     "Vel": 80
    },
    {
     "TimeMs": 71883,
     "Key": 48,
     "DurationMs": 86,
     "Vel": 80
    },
    {
     "TimeMs": 71980,
     "Key": 52,
     "DurationMs": 87,
     "Vel": 80
    },
    {
     "TimeMs": 72077,
     "Key": 58,
     "DurationMs": 175,
     "Vel": 80
    },
    {
     "TimeMs": 72078,
     "Key": 64,
     "DurationMs": 175,
     "Vel": 80
    },
    {
     "TimeMs": 72079,
     "Key": 67,
     "DurationMs": 175,
     "Vel": 80
    },
    {
     "TimeMs": 72080,
     "Key": 55,
     "DurationMs": 175,
     "Vel": 80
    },
    {
     "TimeMs": 72081,
     "Key": 48,
     "DurationMs": 175,
     "Vel": 80
    },
    {
     "TimeMs": 72272,
     "Key": 65,
     "DurationMs": 175,
     "Vel": 80
    },
    {
     "TimeMs": 72273,
     "Key": 48,
     "DurationMs": 175,
     "Vel": 80
    },
    {
     "TimeMs": 72467,
     "Key": 60,
     "DurationMs": 350,
     "Vel": 80
    },
    {
     "TimeMs": 72468,
     "Key": 65,
     "DurationMs": 350,
     "Vel": 80
    },
    {
     "TimeMs": 72469,
     "Key": 69,
     "DurationMs": 350,
     "Vel": 80
    },
    {
     "TimeMs": 72469,
     "Key": 41,
     "DurationMs": 172,
     "Vel": 80
    },
    {
     "TimeMs": 72470,
     "Key": 53,
     "DurationMs": 172,
     "Vel": 80
    },
    {
     "TimeMs": 72662,
     "Key": 48,
     "DurationMs": 87,
     "Vel": 80
    },
    {
     "TimeMs": 72759,
     "Key": 48,
     "DurationMs": 87,
     "Vel": 80
    },
    {
     "TimeMs": 72857,
     "Key": 62,
     "DurationMs": 175,
     "Vel": 80
    },
    {
     "TimeMs": 72857,
     "Key": 57,
     "DurationMs": 175,
     "Vel": 80
    },
    {
     "TimeMs": 72858,
     "Key": 53,
     "DurationMs": 175,
     "Vel": 80
    },
    {
     "TimeMs": 73051,
     "Key": 65,
     "DurationMs": 175,
     "Vel": 80
    },
    {
     "TimeMs": 73052,
     "Key": 48,
     "DurationMs": 175,
     "Vel": 80
    },
    {
     "TimeMs": 73246,
     "Key": 57,
     "DurationMs": 262,
     "Vel": 80
    },
    {
     "TimeMs": 73247,
     "Key": 62,
     "DurationMs": 262,
     "Vel": 80
    },
    {
     "TimeMs": 73248,
     "Key": 67,
     "DurationMs": 262,
     "Vel": 80
    },
    {
     "TimeMs": 73249,
     "Key": 38,
     "DurationMs": 172,
     "Vel": 80
    },
    {
     "TimeMs": 73249,
     "Key": 50,
     "DurationMs": 172,
     "Vel": 80
    },
    {
     "TimeMs": 73441,
     "Key": 50,
     "DurationMs": 87,
     "Vel": 80
    },
    {
     "TimeMs": 73538,
     "Key": 62,
     "DurationMs": 262,
     "Vel": 80
    },
    {
     "TimeMs": 73539,
     "Key": 67,
     "DurationMs": 262,
     "Vel": 80
    },
    {
     "TimeMs": 73540,
     "Key": 53,
     "DurationMs": 86,
     "Vel": 80
    },
    {
     "TimeMs": 73636,
     "Key": 57,
     "DurationMs": 175,
     "Vel": 80
    },
    {
     "TimeMs": 73637,
     "Key": 50,
     "DurationMs": 175,
     "Vel": 80
    },
    {
     "TimeMs": 73831,
     "Key": 62,
     "DurationMs": 175,
     "Vel": 80
    },
    {
     "TimeMs": 73831,
     "Key": 65,
     "DurationMs": 175,
     "Vel": 80
    },
    {
     "TimeMs": 73832,
     "Key": 69,
     "DurationMs": 175,
     "Vel": 80
    },
    {
     "TimeMs": 73833,
     "Key": 50,
     "DurationMs": 175,
     "Vel": 80
    },
    {
     "TimeMs": 74025,
     "Key": 62,
     "DurationMs": 525,
     "Vel": 80
    },
    {
     "TimeMs": 74026,
     "Key": 65,
     "DurationMs": 525,
     "Vel": 80
    },
    {
     "TimeMs": 74027,
     "Key": 69,
     "DurationMs": 525,
     "Vel": 80
    },
    {
     "TimeMs": 74028,
     "Key": 34,
     "DurationMs": 172,
     "Vel": 80
    },
    {
     "TimeMs": 74029,
     "Key": 46,
     "DurationMs": 172,
     "Vel": 80
    },
    {
     "TimeMs": 74220,
     "Key": 50,
     "DurationMs": 87,
     "Vel": 80
    },
    {
     "TimeMs": 74318,
     "Key": 53,
     "DurationMs": 87,
     "Vel": 80
    },
    {
     "TimeMs": 74415,
     "Key": 58,
     "DurationMs": 175,
     "Vel": 80
    },
    {
     "TimeMs": 74416,
     "Key": 50,
     "DurationMs": 175,
     "Vel": 80
    },
    {
     "TimeMs": 74610,
     "Key": 69,
     "DurationMs": 175,
     "Vel": 80
    },
    {
     "TimeMs": 74611,
     "Key": 46,
     "DurationMs": 175,
     "Vel": 80
    },
    {
     "TimeMs": 74805,
     "Key": 64,
     "DurationMs": 175,
     "Vel": 80
    },
    {
     "TimeMs": 74805,
     "Key": 67,
     "DurationMs": 175,
     "Vel": 80
    },
    {
     "TimeMs": 74806,
     "Key": 70,
     "DurationMs": 175,
     "Vel": 80
    },
    {
     "TimeMs": 74807,
     "Key": 36,
     "DurationMs": 175,
     "Vel": 80
    },
    {
     "TimeMs": 74808,
     "Key": 48,
     "DurationMs": 175,
     "Vel": 80
    },
    {
     "TimeMs": 74999,
     "Key": 69,
     "DurationMs": 175,
     "Vel": 80
    },
    {
     "TimeMs": 75000,
     "Key": 48,
     "DurationMs": 86,
     "Vel": 80
    },
    {
     "TimeMs": 75097,
     "Key": 52,
     "DurationMs": 87,
     "Vel": 80
    },
    {
     "TimeMs": 75194,
     "Key": 58,
     "DurationMs": 175,
     "Vel": 80
    },
    {
     "TimeMs": 75195,
     "Key": 64,
     "DurationMs": 175,
     "Vel": 80
    },
    {
     "TimeMs": 75196,
     "Key": 67,
     "DurationMs": 175,
     "Vel": 80
    },
    {
     "TimeMs": 75197,
     "Key": 55,
     "DurationMs": 175,
     "Vel": 80
    },
    {
     "TimeMs": 75197,
     "Key": 48,
     "DurationMs": 175,
     "Vel": 80
    },
    {
     "TimeMs": 75389,
     "Key": 65,
     "DurationMs": 175,
     "Vel": 80
    },
    {
     "TimeMs": 75390,
     "Key": 48,
     "DurationMs": 175,
     "Vel": 80
    },
    {
     "TimeMs": 75584,
     "Key": 57,
     "DurationMs": 350,
     "Vel": 80
    },
    {
     "TimeMs": 75585,
     "Key": 60,
     "DurationMs": 350,
     "Vel": 80
    },
    {
     "TimeMs": 75585,
     "Key": 65,
     "DurationMs": 350,
     "Vel": 80
    },
    {
     "TimeMs": 75586,
     "Key": 41,
     "DurationMs": 172,
     "Vel": 80
    },
    {
     "TimeMs": 75587,
     "Key": 53,
     "DurationMs": 172,
     "Vel": 80
    },
    {
     "TimeMs": 75779,
     "Key": 48,
     "DurationMs": 87,
     "Vel": 80
    },
    {
     "TimeMs": 75876,
     "Key": 48,
     "DurationMs": 87,
     "Vel": 80
    },
    {
     "TimeMs": 75973,
     "Key": 57,
     "DurationMs": 175,
     "Vel": 80
    },
    {
     "TimeMs": 75974,
     "Key": 62,
     "DurationMs": 175,
     "Vel": 80
    },
    {
     "TimeMs": 75975,
     "Key": 41,
     "DurationMs": 175,
     "Vel": 80
    },
    {
     "TimeMs": 75976,
     "Key": 53,
     "DurationMs": 175,
     "Vel": 80
    },
    {
     "TimeMs": 76168,
     "Key": 65,
     "DurationMs": 175,
     "Vel": 80
    },
    {
     "TimeMs": 76169,
     "Key": 48,
     "DurationMs": 175,
     "Vel": 80
    },
    {
     "TimeMs": 76363,
     "Key": 57,
     "DurationMs": 262,
     "Vel": 80
    },
    {
     "TimeMs": 76364,
     "Key": 62,
     "DurationMs": 262,
     "Vel": 80
    },
    {
     "TimeMs": 76365,
     "Key": 67,
     "DurationMs": 262,
     "Vel": 80
    },
    {
     "TimeMs": 76365,
     "Key": 38,
     "DurationMs": 172,
     "Vel": 80
    },
    {
     "TimeMs": 76366,
     "Key": 50,
     "DurationMs": 172,
     "Vel": 80
    },
    {
     "TimeMs": 76558,
     "Key": 50,
     "DurationMs": 87,
     "Vel": 80
    },
    {
     "TimeMs": 76655,
     "Key": 62,
     "DurationMs": 262,
     "Vel": 80
    },
    {
     "TimeMs": 76656,
     "Key": 67,
     "DurationMs": 262,
     "Vel": 80
    },
    {
     "TimeMs": 76657,
     "Key": 53,
     "DurationMs": 86,
     "Vel": 80
    },
    {
     "TimeMs": 76753,
     "Key": 57,
     "DurationMs": 175,
     "Vel": 80
    },
    {
     "TimeMs": 76753,
     "Key": 50,
     "DurationMs": 175,
     "Vel": 80
    },
    {
     "TimeMs": 76947,
     "Key": 62,
     "DurationMs": 175,
     "Vel": 80
    },
    {
     "TimeMs": 76948,
     "Key": 65,
     "DurationMs": 175,
     "Vel": 80
    },
    {
     "TimeMs": 76949,
     "Key": 69,
     "DurationMs": 175,
     "Vel": 80
    },
    {
     "TimeMs": 76950,
     "Key": 50,
     "DurationMs": 175,
     "Vel": 80
    },
    {
     "TimeMs": 77142,
     "Key": 62,
     "DurationMs": 525,
     "Vel": 80
    },
    {
     "TimeMs": 77143,
     "Key": 65,
     "DurationMs": 525,
     "Vel": 80
    },
    {
     "TimeMs": 77144,
     "Key": 69,
     "DurationMs": 525,
     "Vel": 80
    },
    {
     "TimeMs": 77145,
     "Key": 34,
     "DurationMs": 172,
     "Vel": 80
    },
    {
     "TimeMs": 77146,
     "Key": 46,
     "DurationMs": 172,
     "Vel": 80
    },
    {
     "TimeMs": 77337,
     "Key": 50,
     "DurationMs": 87,
     "Vel": 80
    },
    {
     "TimeMs": 77434,
     "Key": 53,
     "DurationMs": 87,
     "Vel": 80
    },
    {
     "TimeMs": 77532,
     "Key": 58,
     "DurationMs": 175,
     "Vel": 80
    },
    {
     "TimeMs": 77533,
     "Key": 50,
     "DurationMs": 175,
     "Vel": 80
    },
    {
     "TimeMs": 77727,
     "Key": 69,
     "DurationMs": 175,
     "Vel": 80
    },
    {
     "TimeMs": 77728,
     "Key": 46,
     "DurationMs": 175,
     "Vel": 80
    },
    {
     "TimeMs": 77922,
     "Key": 64,
     "DurationMs": 175,
     "Vel": 80
    },
    {
     "TimeMs": 77922,
     "Key": 67,
     "DurationMs": 175,
     "Vel": 80
    },
    {
     "TimeMs": 77923,
     "Key": 72,
     "DurationMs": 175,
     "Vel": 80
    },
    {
     "TimeMs": 77924,
     "Key": 36,
     "DurationMs": 175,
     "Vel": 80
    },
    {
     "TimeMs": 77925,
     "Key": 48,
     "DurationMs": 175,
     "Vel": 80
    },
    {
     "TimeMs": 78116,
     "Key": 74,
     "DurationMs": 175,
     "Vel": 80
    },
    {
     "TimeMs": 78117,
     "Key": 48,
     "DurationMs": 86,
     "Vel": 80
    },
    {
     "TimeMs": 78214,
     "Key": 52,
     "DurationMs": 87,
     "Vel": 80
    },
    {
     "TimeMs": 78311,
     "Key": 58,
     "DurationMs": 175,
     "Vel": 80
    },
    {
     "TimeMs": 78312,
     "Key": 64,
     "DurationMs": 175,
     "Vel": 80
    },
    {
     "TimeMs": 78313,
     "Key": 67,
     "DurationMs": 175,
     "Vel": 80
    },
    {
     "TimeMs": 78314,
     "Key": 55,
     "DurationMs": 175,
     "Vel": 80
    },
    {
     "TimeMs": 78314,
     "Key": 48,
     "DurationMs": 175,
     "Vel": 80
    },
    {
     "TimeMs": 78506,
     "Key": 65,
     "DurationMs": 175,
     "Vel": 80
    },
    {
     "TimeMs": 78507,
     "Key": 48,
     "DurationMs": 175,
     "Vel": 80
    },
    {
     "TimeMs": 78701,
     "Key": 60,
     "DurationMs": 350,
     "Vel": 80
    },
    {
     "TimeMs": 78702,
     "Key": 65,
     "DurationMs": 350,
     "Vel": 80
    },
    {
     "TimeMs": 78702,
     "Key": 69,
     "DurationMs": 350,
     "Vel": 80
    },
    {
     "TimeMs": 78703,
     "Key": 41,
     "DurationMs": 172,
     "Vel": 80
    },
    {
     "TimeMs": 78704,
     "Key": 53,
     "DurationMs": 172,
     "Vel": 80
    },
    {
     "TimeMs": 78896,
     "Key": 48,
     "DurationMs": 87,
     "Vel": 80
    },
    {
     "TimeMs": 78993,
     "Key": 48,
     "DurationMs": 87,
     "Vel": 80
    },
    {
     "TimeMs": 79090,
     "Key": 62,
     "DurationMs": 175,
     "Vel": 80
    },
    {
     "TimeMs": 79091,
     "Key": 57,
     "DurationMs": 175,
     "Vel": 80
    },
    {
     "TimeMs": 79092,
     "Key": 53,
     "DurationMs": 175,
     "Vel": 80
    },
    {
     "TimeMs": 79285,
     "Key": 65,
     "DurationMs": 175,
     "Vel": 80
    },
    {
     "TimeMs": 79286,
     "Key": 48,
     "DurationMs": 175,
     "Vel": 80
    },
    {
     "TimeMs": 79480,
     "Key": 62,
     "DurationMs": 350,
     "Vel": 80
    },
    {
     "TimeMs": 79481,
     "Key": 65,
     "DurationMs": 350,
     "Vel": 80
    },
    {
     "TimeMs": 79482,
     "Key": 70,
     "DurationMs": 350,
     "Vel": 80
    },
    {
     "TimeMs": 79482,
     "Key": 34,
     "DurationMs": 172,
     "Vel": 80
    },
    {
     "TimeMs": 79483,
     "Key": 46,
     "DurationMs": 172,
     "Vel": 80
    },
    {
     "TimeMs": 79675,
     "Key": 50,
     "DurationMs": 87,
     "Vel": 80
    },
    {
     "TimeMs": 79772,
     "Key": 53,
     "DurationMs": 87,
     "Vel": 80
    },
    {
     "TimeMs": 79870,
     "Key": 62,
     "DurationMs": 350,
     "Vel": 80
    },
    {
     "TimeMs": 79870,
     "Key": 65,
     "DurationMs": 350,
     "Vel": 80
    },
    {
     "TimeMs": 79871,
     "Key": 69,
     "DurationMs": 350,
     "Vel": 80
    },
    {
     "TimeMs": 79872,
     "Key": 58,
     "DurationMs": 172,
     "Vel": 80
    },
    {
     "TimeMs": 79873,
     "Key": 46,
     "DurationMs": 172,
     "Vel": 80
    },
    {
     "TimeMs": 80064,
     "Key": 50,
     "DurationMs": 87,
     "Vel": 80
    },
    {
     "TimeMs": 80162,
     "Key": 53,
     "DurationMs": 87,
     "Vel": 80
    },
    {
     "TimeMs": 80259,
     "Key": 60,
     "DurationMs": 350,
     "Vel": 80
    },
    {
     "TimeMs": 80260,
     "Key": 64,
     "DurationMs": 350,
     "Vel": 80
    },
    {
     "TimeMs": 80261,
     "Key": 67,
     "DurationMs": 350,
     "Vel": 80
    },
    {
     "TimeMs": 80262,
     "Key": 33,
     "DurationMs": 172,
     "Vel": 80
    },
    {
     "TimeMs": 80262,
     "Key": 45,
     "DurationMs": 172,
     "Vel": 80
    },
    {
     "TimeMs": 80454,
     "Key": 48,
     "DurationMs": 87,
     "Vel": 80
    },
    {
     "TimeMs": 80551,
     "Key": 52,
     "DurationMs": 87,
     "Vel": 80
    },
    {
     "TimeMs": 80649,
     "Key": 60,
     "DurationMs": 350,
     "Vel": 80
    },
    {
     "TimeMs": 80650,
     "Key": 64,
     "DurationMs": 350,
     "Vel": 80
    },
    {
     "TimeMs": 80650,
     "Key": 65,
     "DurationMs": 350,
     "Vel": 80
    },
    {
     "TimeMs": 80651,
     "Key": 57,
     "DurationMs": 172,
     "Vel": 80
    },
    {
     "TimeMs": 80652,
     "Key": 45,
     "DurationMs": 172,
     "Vel": 80
    },
    {
     "TimeMs": 80844,
     "Key": 48,
     "DurationMs": 87,
     "Vel": 80
    },
    {
     "TimeMs": 80941,
     "Key": 52,
     "DurationMs": 87,
     "Vel": 80
    },
    {
     "TimeMs": 81038,
     "Key": 58,
     "DurationMs": 175,
     "Vel": 80
    },
    {
     "TimeMs": 81039,
     "Key": 62,
     "DurationMs": 175,
     "Vel": 80
    },
    {
     "TimeMs": 81040,
     "Key": 67,
     "DurationMs": 175,
     "Vel": 80
    },
    {
     "TimeMs": 81041,
     "Key": 34,
     "DurationMs": 193,
     "Vel": 80
    },
    {
     "TimeMs": 81042,
     "Key": 46,
     "DurationMs": 193,
     "Vel": 80
    },
    {
     "TimeMs": 81233,
     "Key": 65,
     "DurationMs": 175,
     "Vel": 80
    },
    {
     "TimeMs": 81236,
     "Key": 46,
     "DurationMs": 153,
     "Vel": 80
    },
    {
     "TimeMs": 81428,
     "Key": 60,
     "DurationMs": 175,
     "Vel": 80
    },
    {
     "TimeMs": 81429,
     "Key": 64,
     "DurationMs": 175,
     "Vel": 80
    },
    {
     "TimeMs": 81430,
     "Key": 69,
     "DurationMs": 175,
     "Vel": 80
    },
    {
     "TimeMs": 81430,
     "Key": 36,
     "DurationMs": 193,
     "Vel": 80
    },
    {
     "TimeMs": 81431,
     "Key": 48,
     "DurationMs": 193,
     "Vel": 80
    },
    {
     "TimeMs": 81623,
     "Key": 72,
     "DurationMs": 175,
     "Vel": 80
    },
    {
     "TimeMs": 81625,
     "Key": 48,
     "DurationMs": 153,
     "Vel": 80
    },
    {
     "TimeMs": 81818,
     "Key": 65,
     "DurationMs": 350,
     "Vel": 80
    },
    {
     "TimeMs": 81818,
     "Key": 69,
     "DurationMs": 350,
     "Vel": 80
    },
    {
     "TimeMs": 81819,
     "Key": 74,
     "DurationMs": 350,
     "Vel": 80
    },
    {
     "TimeMs": 81820,
     "Key": 38,
     "DurationMs": 172,
     "Vel": 80
    },
    {
     "TimeMs": 81821,
     "Key": 50,
     "DurationMs": 172,
     "Vel": 80
    },
    {
     "TimeMs": 82012,
     "Key": 45,
     "DurationMs": 87,
     "Vel": 80
    },
    {
     "TimeMs": 82110,
     "Key": 45,
     "DurationMs": 87,
     "Vel": 80
    },
    {
     "TimeMs": 82207,
     "Key": 53,
     "DurationMs": 350,
     "Vel": 80
    },
    {
     "TimeMs": 82208,
     "Key": 57,
     "DurationMs": 350,
     "Vel": 80
    },
    {
     "TimeMs": 82209,
     "Key": 38,
     "DurationMs": 173,
     "Vel": 80
    },
    {
     "TimeMs": 82210,
     "Key": 50,
     "DurationMs": 173,
     "Vel": 80
    },
    {
     "TimeMs": 82402,
     "Key": 38,
     "DurationMs": 175,
     "Vel": 80
    },
    {
     "TimeMs": 82403,
     "Key": 50,
     "DurationMs": 175,
     "Vel": 80
    },
    {
     "TimeMs": 82597,
     "Key": 79,
     "DurationMs": 175,
     "Vel": 80
    },
    {
     "TimeMs": 82598,
     "Key": 74,
     "DurationMs": 175,
     "Vel": 80
    },
    {
     "TimeMs": 82598,
     "Key": 67,
     "DurationMs": 175,
     "Vel": 80
    },
    {
     "TimeMs": 82599,
     "Key": 34,
     "DurationMs": 175,
     "Vel": 80
    },
    {
     "TimeMs": 82600,
     "Key": 46,
     "DurationMs": 175,
     "Vel": 80
    },
    {
     "TimeMs": 82792,
     "Key": 81,
     "DurationMs": 175,
     "Vel": 80
    },
    {
     "TimeMs": 82792,
     "Key": 69,
     "DurationMs": 175,
     "Vel": 80
    },
    {
     "TimeMs": 82793,
     "Key": 53,
     "DurationMs": 175,
     "Vel": 80
    },
    {
     "TimeMs": 82794,
     "Key": 58,
     "DurationMs": 175,
     "Vel": 80
    },
    {
     "TimeMs": 82795,
     "Key": 62,
     "DurationMs": 175,
     "Vel": 80
    },
    {
     "TimeMs": 82986,
     "Key": 74,
     "DurationMs": 87,
     "Vel": 80
    },
    {
     "TimeMs": 82987,
     "Key": 62,
     "DurationMs": 87,
     "Vel": 80
    },
    {
     "TimeMs": 82988,
     "Key": 46,
     "DurationMs": 173,
     "Vel": 80
    },
    {
     "TimeMs": 83084,
     "Key": 72,
     "DurationMs": 87,
     "Vel": 80
    },
    {
     "TimeMs": 83181,
     "Key": 74,
     "DurationMs": 87,
     "Vel": 80
    },
    {
     "TimeMs": 83182,
     "Key": 53,
     "DurationMs": 174,
     "Vel": 80
    },
    {
     "TimeMs": 83183,
     "Key": 58,
     "DurationMs": 174,
     "Vel": 80
    },
    {
     "TimeMs": 83184,
     "Key": 62,
     "DurationMs": 174,
     "Vel": 80
    },
    {
     "TimeMs": 83279,
     "Key": 72,
     "DurationMs": 87,
     "Vel": 80
    },
    {
     "TimeMs": 83376,
     "Key": 79,
     "DurationMs": 175,
     "Vel": 80
    },
    {
     "TimeMs": 83377,
     "Key": 67,
     "DurationMs": 175,
     "Vel": 80
    },
    {
     "TimeMs": 83378,
     "Key": 48,
     "DurationMs": 175,
     "Vel": 80
    },
    {
     "TimeMs": 83378,
     "Key": 36,
     "DurationMs": 175,
     "Vel": 80
    },
    {
     "TimeMs": 83571,
     "Key": 81,
     "DurationMs": 175,
     "Vel": 80
    },
    {
     "TimeMs": 83572,
     "Key": 69,
     "DurationMs": 175,
     "Vel": 80
    },
    {
     "TimeMs": 83572,
     "Key": 64,
     "DurationMs": 175,
     "Vel": 80
    },
    {
     "TimeMs": 83573,
     "Key": 60,
     "DurationMs": 175,
     "Vel": 80
    },
    {
     "TimeMs": 83574,
     "Key": 55,
     "DurationMs": 175,
     "Vel": 80
    },
    {
     "TimeMs": 83766,
     "Key": 74,
     "DurationMs": 87,
     "Vel": 80
    },
    {
     "TimeMs": 83766,
     "Key": 62,
     "DurationMs": 87,
     "Vel": 80
    },
    {
     "TimeMs": 83767,
     "Key": 48,
     "DurationMs": 173,
     "Vel": 80
    },
    {
     "TimeMs": 83863,
     "Key": 72,
     "DurationMs": 87,
     "Vel": 80
    },
    {
     "TimeMs": 83960,
     "Key": 74,
     "DurationMs": 87,
     "Vel": 80
    },
    {
     "TimeMs": 83961,
     "Key": 64,
     "DurationMs": 174,
     "Vel": 80
    },
    {
     "TimeMs": 83962,
     "Key": 60,
     "DurationMs": 174,
     "Vel": 80
    },
    {
     "TimeMs": 83963,
     "Key": 55,
     "DurationMs": 174,
     "Vel": 80
    },
    {
     "TimeMs": 84058,
     "Key": 72,
     "DurationMs": 87,
     "Vel": 80
    },
    {
     "TimeMs": 84155,
     "Key": 79,
     "DurationMs": 175,
     "Vel": 80
    },
    {
     "TimeMs": 84156,
     "Key": 74,
     "DurationMs": 175,
     "Vel": 80
    },
    {
     "TimeMs": 84157,
     "Key": 67,
     "DurationMs": 175,
     "Vel": 80
    },
    {
     "TimeMs": 84158,
     "Key": 50,
     "DurationMs": 175,
     "Vel": 80
    },
    {
     "TimeMs": 84159,
     "Key": 38,
     "DurationMs": 175,
     "Vel": 80
    },
    {
     "TimeMs": 84350,
     "Key": 81,
     "DurationMs": 175,
     "Vel": 80
    },
    {
     "TimeMs": 84351,
     "Key": 69,
     "DurationMs": 175,
     "Vel": 80
    },
    {
     "TimeMs": 84352,
     "Key": 62,
     "DurationMs": 175,
     "Vel": 80
    },
    {
     "TimeMs": 84353,
     "Key": 57,
     "DurationMs": 175,
     "Vel": 80
    },
    {
     "TimeMs": 84353,
     "Key": 53,
     "DurationMs": 175,
     "Vel": 80
    },
    {
     "TimeMs": 84545,
     "Key": 74,
     "DurationMs": 87,
     "Vel": 80
    },
    {
     "TimeMs": 84546,
     "Key": 62,
     "DurationMs": 87,
     "Vel": 80
    },
    {
     "TimeMs": 84546,
     "Key": 41,
     "DurationMs": 173,
     "Vel": 80
    },
    {
     "TimeMs": 84642,
     "Key": 72,
     "DurationMs": 87,
     "Vel": 80
    },
    {
     "TimeMs": 84740,
     "Key": 74,
     "DurationMs": 87,
     "Vel": 80
    },
    {
     "TimeMs": 84740,
     "Key": 62,
     "DurationMs": 174,
     "Vel": 80
    },
    {
     "TimeMs": 84741,
     "Key": 57,
     "DurationMs": 174,
     "Vel": 80
    },
    {
     "TimeMs": 84742,
     "Key": 53,
     "DurationMs": 174,
     "Vel": 80
    },
    {
     "TimeMs": 84837,
     "Key": 72,
     "DurationMs": 87,
     "Vel": 80
    },
    {
     "TimeMs": 84910,
     "Key": 69,
     "DurationMs": 175,
     "Vel": 80
    },
    {
     "TimeMs": 84928,
     "Key": 74,
     "DurationMs": 175,
     "Vel": 80
    },
    {
     "TimeMs": 84934,
     "Key": 53,
     "DurationMs": 175,
     "Vel": 80
    },
    {
     "TimeMs": 84935,
     "Key": 45,
     "DurationMs": 175,
     "Vel": 80
    },
    {
     "TimeMs": 84947,
     "Key": 76,
     "DurationMs": 175,
     "Vel": 80
    },
    {
     "TimeMs": 84965,
     "Key": 77,
     "DurationMs": 175,
     "Vel": 80
    },
    {
     "TimeMs": 85129,
     "Key": 76,
     "DurationMs": 87,
     "Vel": 80
    },
    {
     "TimeMs": 85130,
     "Key": 64,
     "DurationMs": 87,
     "Vel": 80
    },
    {
     "TimeMs": 85131,
     "Key": 57,
     "DurationMs": 173,
     "Vel": 80
    },
    {
     "TimeMs": 85132,
     "Key": 50,
     "DurationMs": 173,
     "Vel": 80
    },
    {
     "TimeMs": 85227,
     "Key": 77,
     "DurationMs": 43,
     "Vel": 80
    },
    {
     "TimeMs": 85275,
     "Key": 76,
     "DurationMs": 43,
     "Vel": 80
    },
    {
     "TimeMs": 85324,
     "Key": 62,
     "DurationMs": 175,
     "Vel": 80
    },
    {
     "TimeMs": 85325,
     "Key": 69,
     "DurationMs": 175,
     "Vel": 80
    },
    {
     "TimeMs": 85326,
     "Key": 74,
     "DurationMs": 175,
     "Vel": 80
    },
    {
     "TimeMs": 85327,
     "Key": 38,
     "DurationMs": 85,
     "Vel": 80
    },
    {
     "TimeMs": 85421,
     "Key": 45,
     "DurationMs": 87,
     "Vel": 80
    },
    {
     "TimeMs": 85519,
     "Key": 60,
     "DurationMs": 175,
     "Vel": 80
    },
    {
     "TimeMs": 85520,
     "Key": 72,
     "DurationMs": 175,
     "Vel": 80
    },
    {
     "TimeMs": 85521,
     "Key": 50,
     "DurationMs": 86,
     "Vel": 80
    },
    {
     "TimeMs": 85616,
     "Key": 45,
     "DurationMs": 87,
     "Vel": 80
    },
    {
     "TimeMs": 85714,
     "Key": 79,
     "DurationMs": 175,
     "Vel": 80
    },
    {
     "TimeMs": 85715,
     "Key": 74,
     "DurationMs": 175,
     "Vel": 80
    },
    {
     "TimeMs": 85715,
     "Key": 67,
     "DurationMs": 175,
     "Vel": 80
    },
    {
     "TimeMs": 85716,
     "Key": 34,
     "DurationMs": 175,
     "Vel": 80
    },
    {
     "TimeMs": 85717,
     "Key": 46,
     "DurationMs": 175,
     "Vel": 80
    },
    {
     "TimeMs": 85909,
     "Key": 81,
     "DurationMs": 175,
     "Vel": 80
    },
    {
     "TimeMs": 85909,
     "Key": 69,
     "DurationMs": 175,
     "Vel": 80
    },
    {
     "TimeMs": 85910,
     "Key": 53,
     "DurationMs": 175,
     "Vel": 80
    },
    {
     "TimeMs": 85911,
     "Key": 58,
     "DurationMs": 175,
     "Vel": 80
    },
    {
     "TimeMs": 85912,
     "Key": 62,
     "DurationMs": 175,
     "Vel": 80
    },
    {
     "TimeMs": 86103,
     "Key": 74,
     "DurationMs": 87,
     "Vel": 80
    },
    {
     "TimeMs": 86104,
     "Key": 62,
     "DurationMs": 87,
     "Vel": 80
    },
    {
     "TimeMs": 86105,
     "Key": 46,
     "DurationMs": 173,
     "Vel": 80
    },
    {
     "TimeMs": 86201,
     "Key": 72,
     "DurationMs": 87,
     "Vel": 80
    },
    {
     "TimeMs": 86298,
     "Key": 74,
     "DurationMs": 87,
     "Vel": 80
    },
    {
     "TimeMs": 86299,
     "Key": 53,
     "DurationMs": 174,
     "Vel": 80
    },
    {
     "TimeMs": 86300,
     "Key": 58,
     "DurationMs": 174,
     "Vel": 80
    },
    {
     "TimeMs": 86301,
     "Key": 62,
     "DurationMs": 174,
     "Vel": 80
    },
    {
     "TimeMs": 86396,
     "Key": 72,
     "DurationMs": 87,
     "Vel": 80
    },
    {
     "TimeMs": 86493,
     "Key": 79,
     "DurationMs": 175,
     "Vel": 80
    },
    {
     "TimeMs": 86494,
     "Key": 67,
     "DurationMs": 175,
     "Vel": 80
    },
    {
     "TimeMs": 86495,
     "Key": 48,
     "DurationMs": 175,
     "Vel": 80
    },
    {
     "TimeMs": 86495,
     "Key": 36,
     "DurationMs": 175,
     "Vel": 80
    },
    {
     "TimeMs": 86688,
     "Key": 81,
     "DurationMs": 175,
     "Vel": 80
    },
    {
     "TimeMs": 86689,
     "Key": 69,
     "DurationMs": 175,
     "Vel": 80
    },
    {
     "TimeMs": 86689,
     "Key": 64,
     "DurationMs": 175,
     "Vel": 80
    },
    {
     "TimeMs": 86690,
     "Key": 60,
     "DurationMs": 175,
     "Vel": 80
    },
    {
     "TimeMs": 86691,
     "Key": 55,
     "DurationMs": 175,
     "Vel": 80
    },
    {
     "TimeMs": 86883,
     "Key": 74,
     "DurationMs": 87,
     "Vel": 80
    },
    {
     "TimeMs": 86883,
     "Key": 62,
     "DurationMs": 87,
     "Vel": 80
    },
    {
     "TimeMs": 86884,
     "Key": 48,
     "DurationMs": 173,
     "Vel": 80
    },
    {
     "TimeMs": 86980,
     "Key": 72,
     "DurationMs": 87,
     "Vel": 80
    },
    {
     "TimeMs": 87077,
     "Key": 74,
     "DurationMs": 87,
     "Vel": 80
    },
    {
     "TimeMs": 87078,
     "Key": 64,
     "DurationMs": 174,
     "Vel": 80
    },
    {
     "TimeMs": 87079,
     "Key": 60,
     "DurationMs": 174,
     "Vel": 80
    },
    {
     "TimeMs": 87080,
     "Key": 55,
     "DurationMs": 174,
     "Vel": 80
    },
    {
     "TimeMs": 87175,
     "Key": 72,
     "DurationMs": 87,
     "Vel": 80
    },
    {
     "TimeMs": 87227,
     "Key": 77,
     "DurationMs": 43,
     "Vel": 80
    },
    {
     "TimeMs": 87272,
     "Key": 79,
     "DurationMs": 175,
     "Vel": 80
    },
    {
     "TimeMs": 87273,
     "Key": 67,
     "DurationMs": 175,
     "Vel": 80
    },
    {
     "TimeMs": 87274,
     "Key": 50,
     "DurationMs": 175,
     "Vel": 80
    },
    {
     "TimeMs": 87275,
     "Key": 38,
     "DurationMs": 175,
     "Vel": 80
    },
    {
     "TimeMs": 87467,
     "Key": 81,
     "DurationMs": 175,
     "Vel": 80
    },
    {
     "TimeMs": 87468,
     "Key": 69,
     "DurationMs": 175,
     "Vel": 80
    },
    {
     "TimeMs": 87469,
     "Key": 62,
     "DurationMs": 175,
     "Vel": 80
    },
    {
     "TimeMs": 87469,
     "Key": 57,
     "DurationMs": 175,
     "Vel": 80
    },
    {
     "TimeMs": 87470,
     "Key": 53,
     "DurationMs": 175,
     "Vel": 80
    },
    {
     "TimeMs": 87662,
     "Key": 84,
     "DurationMs": 175,
     "Vel": 80
    },
    {
     "TimeMs": 87663,
     "Key": 72,
     "DurationMs": 175,
     "Vel": 80
    },
    {
     "TimeMs": 87663,
     "Key": 41,
     "DurationMs": 175,
     "Vel": 80
    },
    {
     "TimeMs": 87857,
     "Key": 89,
     "DurationMs": 175,
     "Vel": 80
    },
    {
     "TimeMs": 87857,
     "Key": 77,
     "DurationMs": 175,
     "Vel": 80
    },
    {
     "TimeMs": 87858,
     "Key": 65,
     "DurationMs": 175,
     "Vel": 80
    },
    {
     "TimeMs": 87859,
     "Key": 62,
     "DurationMs": 175,
     "Vel": 80
    },
    {
     "TimeMs": 87860,
     "Key": 57,
     "DurationMs": 175,
     "Vel": 80
    },
    {
     "TimeMs": 88051,
     "Key": 88,
     "DurationMs": 87,
     "Vel": 80
    },
    {
     "TimeMs": 88052,
     "Key": 84,
     "DurationMs": 87,
     "Vel": 80
    },
    {
     "TimeMs": 88053,
     "Key": 76,
     "DurationMs": 87,
     "Vel": 80
    },
    {
     "TimeMs": 88054,
     "Key": 57,
     "DurationMs": 172,
     "Vel": 80
    },
    {
     "TimeMs": 88055,
     "Key": 45,
     "DurationMs": 172,
     "Vel": 80
    },
    {
     "TimeMs": 88149,
     "Key": 89,
     "DurationMs": 87,
     "Vel": 80
    },
    {
     "TimeMs": 88150,
     "Key": 77,
     "DurationMs": 87,
     "Vel": 80
    },
    {
     "TimeMs": 88246,
     "Key": 88,
     "DurationMs": 87,
     "Vel": 80
    },
    {
     "TimeMs": 88247,
     "Key": 76,
     "DurationMs": 87,
     "Vel": 80
    },
    {
     "TimeMs": 88248,
     "Key": 62,
     "DurationMs": 173,
     "Vel": 80
    },
    {
     "TimeMs": 88249,
     "Key": 53,
     "DurationMs": 173,
     "Vel": 80
    },
    {
     "TimeMs": 88344,
     "Key": 86,
     "DurationMs": 87,
     "Vel": 80
    },
    {
     "TimeMs": 88344,
     "Key": 74,
     "DurationMs": 87,
     "Vel": 80
    },
    {
     "TimeMs": 88441,
     "Key": 84,
     "DurationMs": 175,
     "Vel": 80
    },
    {
     "TimeMs": 88442,
     "Key": 81,
     "DurationMs": 175,
     "Vel": 80
    },
    {
     "TimeMs": 88443,
     "Key": 72,
     "DurationMs": 175,
     "Vel": 80
    },
    {
     "TimeMs": 88443,
     "Key": 57,
     "DurationMs": 85,
     "Vel": 80
    },
    {
     "TimeMs": 88538,
     "Key": 50,
     "DurationMs": 87,
     "Vel": 80
    },
    {
     "TimeMs": 88636,
     "Key": 81,
     "DurationMs": 175,
     "Vel": 80
    },
    {
     "TimeMs": 88637,
     "Key": 69,
     "DurationMs": 175,
     "Vel": 80
    },
    {
     "TimeMs": 88637,
     "Key": 45,
     "DurationMs": 86,
     "Vel": 80
    },
    {
     "TimeMs": 88733,
     "Key": 38,
     "DurationMs": 87,
     "Vel": 80
    },
    {
     "TimeMs": 88831,
     "Key": 79,
     "DurationMs": 175,
     "Vel": 80
    },
    {
     "TimeMs": 88831,
     "Key": 74,
     "DurationMs": 175,
     "Vel": 80
    },
    {
     "TimeMs": 88832,
     "Key": 67,
     "DurationMs": 175,
     "Vel": 80
    },
    {
     "TimeMs": 88833,
     "Key": 34,
     "DurationMs": 175,
     "Vel": 80
    },
    {
     "TimeMs": 88834,
     "Key": 46,
     "DurationMs": 175,
     "Vel": 80
    },
    {
     "TimeMs": 89025,
     "Key": 81,
     "DurationMs": 175,
     "Vel": 80
    },
    {
     "TimeMs": 89026,
     "Key": 69,
     "DurationMs": 175,
     "Vel": 80
    },
    {
     "TimeMs": 89027,
     "Key": 53,
     "DurationMs": 175,
     "Vel": 80
    },
    {
     "TimeMs": 89028,
     "Key": 58,
     "DurationMs": 175,
     "Vel": 80
    },
    {
     "TimeMs": 89029,
     "Key": 62,
     "DurationMs": 175,
     "Vel": 80
    },
    {
     "TimeMs": 89220,
     "Key": 74,
     "DurationMs": 87,
     "Vel": 80
    },
    {
     "TimeMs": 89221,
     "Key": 62,
     "DurationMs": 87,
     "Vel": 80
    },
    {
     "TimeMs": 89222,
     "Key": 46,
     "DurationMs": 173,
     "Vel": 80
    },
    {
     "TimeMs": 89318,
     "Key": 72,
     "DurationMs": 87,
     "Vel": 80
    },
    {
     "TimeMs": 89415,
     "Key": 74,
     "DurationMs": 87,
     "Vel": 80
    },
    {
     "TimeMs": 89416,
     "Key": 53,
     "DurationMs": 174,
     "Vel": 80
    },
    {
     "TimeMs": 89417,
     "Key": 58,
     "DurationMs": 174,
     "Vel": 80
    },
    {
     "TimeMs": 89417,
     "Key": 62,
     "DurationMs": 174,
     "Vel": 80
    },
    {
     "TimeMs": 89512,
     "Key": 72,
     "DurationMs": 87,
     "Vel": 80
    },
    {
     "TimeMs": 89610,
     "Key": 79,
     "DurationMs": 175,
     "Vel": 80
    },
    {
     "TimeMs": 89611,
     "Key": 67,
     "DurationMs": 175,
     "Vel": 80
    },
    {
     "TimeMs": 89611,
     "Key": 48,
     "DurationMs": 175,
     "Vel": 80
    },
    {
     "TimeMs": 89612,
     "Key": 36,
     "DurationMs": 175,
     "Vel": 80
    },
    {
     "TimeMs": 89805,
     "Key": 81,
     "DurationMs": 175,
     "Vel": 80
    },
    {
     "TimeMs": 89805,
     "Key": 69,
     "DurationMs": 175,
     "Vel": 80
    },
    {
     "TimeMs": 89806,
     "Key": 64,
     "DurationMs": 175,
     "Vel": 80
    },
    {
     "TimeMs": 89807,
     "Key": 60,
     "DurationMs": 175,
     "Vel": 80
    },
    {
     "TimeMs": 89808,
     "Key": 55,
     "DurationMs": 175,
     "Vel": 80
    },
    {
     "TimeMs": 89999,
     "Key": 74,
     "DurationMs": 87,
     "Vel": 80
    },
    {
     "TimeMs": 90000,
     "Key": 62,
     "DurationMs": 87,
     "Vel": 80
    },
    {
     "TimeMs": 90001,
     "Key": 48,
     "DurationMs": 173,
     "Vel": 80
    },
    {
     "TimeMs": 90097,
     "Key": 72,
     "DurationMs": 87,
     "Vel": 80
    },
    {
     "TimeMs": 90194,
     "Key": 74,
     "DurationMs": 87,
     "Vel": 80
    },
    {
     "TimeMs": 90195,
     "Key": 64,
     "DurationMs": 174,
     "Vel": 80
    },
    {
     "TimeMs": 90196,
     "Key": 60,
     "DurationMs": 174,
     "Vel": 80
    },
    {
     "TimeMs": 90197,
     "Key": 55,
     "DurationMs": 174,
     "Vel": 80
    },
    {
     "TimeMs": 90292,
     "Key": 72,
     "DurationMs": 87,
     "Vel": 80
    },
    {
     "TimeMs": 90389,
     "Key": 79,
     "DurationMs": 175,
     "Vel": 80
    },
    {
     "TimeMs": 90390,
     "Key": 74,
     "DurationMs": 175,
     "Vel": 80
    },
    {
     "TimeMs": 90391,
     "Key": 67,
     "DurationMs": 175,
     "Vel": 80
    },
    {
     "TimeMs": 90391,
     "Key": 50,
     "DurationMs": 175,
     "Vel": 80
    },
    {
     "TimeMs": 90392,
     "Key": 38,
     "DurationMs": 175,
     "Vel": 80
    },
    {
     "TimeMs": 90584,
     "Key": 81,
     "DurationMs": 175,
     "Vel": 80
    },
    {
     "TimeMs": 90585,
     "Key": 69,
     "DurationMs": 175,
     "Vel": 80
    },
    {
     "TimeMs": 90585,
     "Key": 62,
     "DurationMs": 175,
     "Vel": 80
    },
    {
     "TimeMs": 90586,
     "Key": 57,
     "DurationMs": 175,
     "Vel": 80
    },
    {
     "TimeMs": 90587,
     "Key": 53,
     "DurationMs": 175,
     "Vel": 80
    },
    {
     "TimeMs": 90779,
     "Key": 74,
     "DurationMs": 87,
     "Vel": 80
    },
    {
     "TimeMs": 90779,
     "Key": 62,
     "DurationMs": 87,
     "Vel": 80
    },
    {
     "TimeMs": 90780,
     "Key": 41,
     "DurationMs": 173,
     "Vel": 80
    },
    {
     "TimeMs": 90876,
     "Key": 72,
     "DurationMs": 87,
     "Vel": 80
    },
    {
     "TimeMs": 90973,
     "Key": 74,
     "DurationMs": 87,
     "Vel": 80
    },
    {
     "TimeMs": 90974,
     "Key": 62,
     "DurationMs": 174,
     "Vel": 80
    },
    {
     "TimeMs": 90975,
     "Key": 57,
     "DurationMs": 174,
     "Vel": 80
    },
    {
     "TimeMs": 90976,
     "Key": 53,
     "DurationMs": 174,
     "Vel": 80
    },
    {
     "TimeMs": 91071,
     "Key": 72,
     "DurationMs": 87,
     "Vel": 80
    },
    {
     "TimeMs": 91144,
     "Key": 69,
     "DurationMs": 175,
     "Vel": 80
    },
    {
     "TimeMs": 91162,
     "Key": 74,
     "DurationMs": 175,
     "Vel": 80
    },
    {
     "TimeMs": 91168,
     "Key": 53,
     "DurationMs": 175,
     "Vel": 80
    },
    {
     "TimeMs": 91169,
     "Key": 45,
     "DurationMs": 175,
     "Vel": 80
    },
    {
     "TimeMs": 91180,
     "Key": 76,
     "DurationMs": 175,
     "Vel": 80
    },
    {
     "TimeMs": 91198,
     "Key": 77,
     "DurationMs": 175,
     "Vel": 80
    },
    {
     "TimeMs": 91363,
     "Key": 76,
     "DurationMs": 87,
     "Vel": 80
    },
    {
     "TimeMs": 91364,
     "Key": 64,
     "DurationMs": 87,
     "Vel": 80
    },
    {
     "TimeMs": 91365,
     "Key": 57,
     "DurationMs": 173,
     "Vel": 80
    },
    {
     "TimeMs": 91365,
     "Key": 50,
     "DurationMs": 173,
     "Vel": 80
    },
    {
     "TimeMs": 91460,
     "Key": 77,
     "DurationMs": 43,
     "Vel": 80
    },
    {
     "TimeMs": 91509,
     "Key": 76,
     "DurationMs": 43,
     "Vel": 80
    },
    {
     "TimeMs": 91558,
     "Key": 62,
     "DurationMs": 175,
     "Vel": 80
    },
    {
     "TimeMs": 91559,
     "Key": 69,
     "DurationMs": 175,
     "Vel": 80
    },
    {
     "TimeMs": 91559,
     "Key": 74,
     "DurationMs": 175,
     "Vel": 80
    },
    {
     "TimeMs": 91560,
     "Key": 38,
     "DurationMs": 85,
     "Vel": 80
    },
    {
     "TimeMs": 91655,
     "Key": 45,
     "DurationMs": 87,
     "Vel": 80
    },
    {
     "TimeMs": 91753,
     "Key": 60,
     "DurationMs": 175,
     "Vel": 80
    },
    {
     "TimeMs": 91753,
     "Key": 72,
     "DurationMs": 175,
     "Vel": 80
    },
    {
     "TimeMs": 91754,
     "Key": 50,
     "DurationMs": 86,
     "Vel": 80
    },
    {
     "TimeMs": 91850,
     "Key": 45,
     "DurationMs": 87,
     "Vel": 80
    },
    {
     "TimeMs": 91947,
     "Key": 79,
     "DurationMs": 87,
     "Vel": 80
    },
    {
     "TimeMs": 91948,
     "Key": 74,
     "DurationMs": 87,
     "Vel": 80
    },
    {
     "TimeMs": 91949,
     "Key": 67,
     "DurationMs": 87,
     "Vel": 80
    },
    {
     "TimeMs": 91950,
     "Key": 34,
     "DurationMs": 172,
     "Vel": 80
    },
    {
     "TimeMs": 91951,
     "Key": 46,
     "DurationMs": 172,
     "Vel": 80
    },
    {
     "TimeMs": 92045,
     "Key": 77,
     "DurationMs": 87,
     "Vel": 80
    },
    {
     "TimeMs": 92046,
     "Key": 65,
     "DurationMs": 87,
     "Vel": 80
    },
    {
     "TimeMs": 92142,
     "Key": 81,
     "DurationMs": 87,
     "Vel": 80
    },
    {
     "TimeMs": 92143,
     "Key": 69,
     "DurationMs": 87,
     "Vel": 80
    },
    {
     "TimeMs": 92144,
     "Key": 53,
     "DurationMs": 173,
     "Vel": 80
    },
    {
     "TimeMs": 92145,
     "Key": 58,
     "DurationMs": 173,
     "Vel": 80
    },
    {
     "TimeMs": 92146,
     "Key": 62,
     "DurationMs": 173,
     "Vel": 80
    },
    {
     "TimeMs": 92240,
     "Key": 84,
     "DurationMs": 87,
     "Vel": 80
    },
    {
     "TimeMs": 92240,
     "Key": 72,
     "DurationMs": 87,
     "Vel": 80
    },
    {
     "TimeMs": 92337,
     "Key": 86,
     "DurationMs": 87,
     "Vel": 80
    },
    {
     "TimeMs": 92338,
     "Key": 74,
     "DurationMs": 87,
     "Vel": 80
    },
    {
     "TimeMs": 92339,
     "Key": 46,
     "DurationMs": 173,
     "Vel": 80
    },
    {
     "TimeMs": 92434,
     "Key": 84,
     "DurationMs": 87,
     "Vel": 80
    },
    {
     "TimeMs": 92435,
     "Key": 72,
     "DurationMs": 87,
     "Vel": 80
    },
    {
     "TimeMs": 92532,
     "Key": 81,
     "DurationMs": 87,
     "Vel": 80
    },
    {
     "TimeMs": 92533,
     "Key": 69,
     "DurationMs": 87,
     "Vel": 80
    },
    {
     "TimeMs": 92533,
     "Key": 53,
     "DurationMs": 173,
     "Vel": 80
    },
    {
     "TimeMs": 92534,
     "Key": 58,
     "DurationMs": 173,
     "Vel": 80
    },
    {
     "TimeMs": 92535,
     "Key": 62,
     "DurationMs": 173,
     "Vel": 80
    },
    {
     "TimeMs": 92629,
     "Key": 79,
     "DurationMs": 87,
     "Vel": 80
    },
    {
     "TimeMs": 92630,
     "Key": 67,
     "DurationMs": 87,
     "Vel": 80
    },
    {
     "TimeMs": 92727,
     "Key": 74,
     "DurationMs": 175,
     "Vel": 80
    },
    {
     "TimeMs": 92727,
     "Key": 62,
     "DurationMs": 175,
     "Vel": 80
    },
    {
     "TimeMs": 92728,
     "Key": 48,
     "DurationMs": 175,
     "Vel": 80
    },
    {
     "TimeMs": 92729,
     "Key": 36,
     "DurationMs": 175,
     "Vel": 80
    },
    {
     "TimeMs": 92921,
     "Key": 77,
     "DurationMs": 175,
     "Vel": 80
    },
    {
     "TimeMs": 92922,
     "Key": 72,
     "DurationMs": 175,
     "Vel": 80
    },
    {
     "TimeMs": 92923,
     "Key": 65,
     "DurationMs": 175,
     "Vel": 80
    },
    {
     "TimeMs": 92924,
     "Key": 64,
     "DurationMs": 175,
     "Vel": 80
    },
    {
     "TimeMs": 92925,
     "Key": 60,
     "DurationMs": 175,
     "Vel": 80
    },
    {
     "TimeMs": 92926,
     "Key": 55,
     "DurationMs": 175,
     "Vel": 80
    },
    {
     "TimeMs": 93116,
     "Key": 79,
     "DurationMs": 175,
     "Vel": 80
    },
    {
     "TimeMs": 93117,
     "Key": 67,
     "DurationMs": 175,
     "Vel": 80
    },
    {
     "TimeMs": 93118,
     "Key": 36,
     "DurationMs": 86,
     "Vel": 80
    },
    {
     "TimeMs": 93214,
     "Key": 43,
     "DurationMs": 87,
     "Vel": 80
    },
    {
     "TimeMs": 93311,
     "Key": 81,
     "DurationMs": 175,
     "Vel": 80
    },
    {
     "TimeMs": 93312,
     "Key": 74,
     "DurationMs": 175,
     "Vel": 80
    },
    {
     "TimeMs": 93313,
     "Key": 69,
     "DurationMs": 175,
     "Vel": 80
    },
    {
     "TimeMs": 93314,
     "Key": 48,
     "DurationMs": 85,
     "Vel": 80
    },
    {
     "TimeMs": 93408,
     "Key": 52,
     "DurationMs": 87,
     "Vel": 80
    },
    {
     "TimeMs": 93506,
     "Key": 65,
     "DurationMs": 87,
     "Vel": 80
    },
    {
     "TimeMs": 93507,
     "Key": 69,
     "DurationMs": 87,
     "Vel": 80
    },
    {
     "TimeMs": 93508,
     "Key": 74,
     "DurationMs": 87,
     "Vel": 80
    },
    {
     "TimeMs": 93508,
     "Key": 38,
     "DurationMs": 292,
     "Vel": 80
    },
    {
     "TimeMs": 93509,
     "Key": 45,
     "DurationMs": 292,
     "Vel": 80
    },
    {
     "TimeMs": 93510,
     "Key": 50,
     "DurationMs": 292,
     "Vel": 80
    },
    {
     "TimeMs": 93603,
     "Key": 62,
     "DurationMs": 87,
     "Vel": 68
    },
    {
     "TimeMs": 93701,
     "Key": 62,
     "DurationMs": 87,
     "Vel": 68
    },
    {
     "TimeMs": 93798,
     "Key": 65,
     "DurationMs": 87,
     "Vel": 80
    },
    {
     "TimeMs": 93799,
     "Key": 69,
     "DurationMs": 87,
     "Vel": 80
    },
    {
     "TimeMs": 93800,
     "Key": 74,
     "DurationMs": 87,
     "Vel": 80
    },
    {
     "TimeMs": 93803,
     "Key": 38,
     "DurationMs": 289,
     "Vel": 80
    },
    {
     "TimeMs": 93804,
     "Key": 45,
     "DurationMs": 289,
     "Vel": 80
    },
    {
     "TimeMs": 93805,
     "Key": 50,
     "DurationMs": 289,
     "Vel": 80
    },
    {
     "TimeMs": 93896,
     "Key": 62,
     "DurationMs": 87,
     "Vel": 68
    },
    {
     "TimeMs": 93993,
     "Key": 62,
     "DurationMs": 87,
     "Vel": 68
    },
    {
     "TimeMs": 94090,
     "Key": 65,
     "DurationMs": 87,
     "Vel": 80
    },
    {
     "TimeMs": 94091,
     "Key": 69,
     "DurationMs": 87,
     "Vel": 80
    },
    {
     "TimeMs": 94092,
     "Key": 72,
     "DurationMs": 87,
     "Vel": 80
    },
    {
     "TimeMs": 94095,
     "Key": 41,
     "DurationMs": 170,
     "Vel": 80
    },
    {
     "TimeMs": 94096,
     "Key": 50,
     "DurationMs": 170,
     "Vel": 80
    },
    {
     "TimeMs": 94188,
     "Key": 62,
     "DurationMs": 87,
     "Vel": 68
    },
    {
     "TimeMs": 94285,
     "Key": 62,
     "DurationMs": 701,
     "Vel": 80
    },
    {
     "TimeMs": 94286,
     "Key": 65,
     "DurationMs": 701,
     "Vel": 80
    },
    {
     "TimeMs": 94287,
     "Key": 69,
     "DurationMs": 701,
     "Vel": 80
    },
    {
     "TimeMs": 94288,
     "Key": 74,
     "DurationMs": 701,
     "Vel": 80
    },
    {
     "TimeMs": 94288,
     "Key": 38,
     "DurationMs": 347,
     "Vel": 80
    },
    {
     "TimeMs": 94289,
     "Key": 45,
     "DurationMs": 347,
     "Vel": 80
    },
    {
     "TimeMs": 94290,
     "Key": 50,
     "DurationMs": 347,
     "Vel": 80
    },
    {
     "TimeMs": 94675,
     "Key": 26,
     "DurationMs": 350,
     "Vel": 80
    },
    {
     "TimeMs": 94676,
     "Key": 38,
     "DurationMs": 350,
     "Vel": 80
    },
    {
     "TimeMs": 95064,
     "Key": 53,
     "DurationMs": 350,
     "Vel": 80
    },
    {
     "TimeMs": 95065,
     "Key": 57,
     "DurationMs": 350,
     "Vel": 80
    },
    {
     "TimeMs": 95066,
     "Key": 62,
     "DurationMs": 350,
     "Vel": 80
    },
    {
     "TimeMs": 95067,
     "Key": 38,
     "DurationMs": 350,
     "Vel": 80
    },
    {
     "TimeMs": 95068,
     "Key": 50,
     "DurationMs": 350,
     "Vel": 80
    },
    {
     "TimeMs": 95454,
     "Key": 53,
     "DurationMs": 262,
     "Vel": 80
    },
    {
     "TimeMs": 95455,
     "Key": 57,
     "DurationMs": 262,
     "Vel": 80
    },
    {
     "TimeMs": 95456,
     "Key": 62,
     "DurationMs": 262,
     "Vel": 80
    },
    {
     "TimeMs": 95456,
     "Key": 38,
     "DurationMs": 292,
     "Vel": 80
    },
    {
     "TimeMs": 95457,
     "Key": 50,
     "DurationMs": 292,
     "Vel": 80
    },
    {
     "TimeMs": 95746,
     "Key": 53,
     "DurationMs": 87,
     "Vel": 80
    },
    {
     "TimeMs": 95747,
     "Key": 57,
     "DurationMs": 87,
     "Vel": 80
    },
    {
     "TimeMs": 95748,
     "Key": 60,
     "DurationMs": 87,
     "Vel": 80
    },
    {
     "TimeMs": 95750,
     "Key": 50,
     "DurationMs": 86,
     "Vel": 80
    },
    {
     "TimeMs": 95844,
     "Key": 62,
     "DurationMs": 97,
     "Vel": 80
    },
    {
     "TimeMs": 95844,
     "Key": 38,
     "DurationMs": 174,
     "Vel": 80
    },
    {
     "TimeMs": 95845,
     "Key": 50,
     "DurationMs": 174,
     "Vel": 80
    },
    {
     "TimeMs": 95942,
     "Key": 53,
     "DurationMs": 86,
     "Vel": 80
    },
    {
     "TimeMs": 95943,
     "Key": 57,
     "DurationMs": 86,
     "Vel": 80
    },
    {
     "TimeMs": 96038,
     "Key": 62,
     "DurationMs": 175,
     "Vel": 80
    },
    {
     "TimeMs": 96039,
     "Key": 65,
     "DurationMs": 175,
     "Vel": 80
    },
    {
     "TimeMs": 96040,
     "Key": 38,
     "DurationMs": 175,
     "Vel": 80
    },
    {
     "TimeMs": 96041,
     "Key": 50,
     "DurationMs": 175,
     "Vel": 80
    },
    {
     "TimeMs": 96233,
     "Key": 62,
     "DurationMs": 175,
     "Vel": 80
    },
    {
     "TimeMs": 96234,
     "Key": 65,
     "DurationMs": 175,
     "Vel": 80
    },
    {
     "TimeMs": 96235,
     "Key": 45,
     "DurationMs": 175,
     "Vel": 80
    },
    {
     "TimeMs": 96236,
     "Key": 50,
     "DurationMs": 175,
     "Vel": 80
    },
    {
     "TimeMs": 96428,
     "Key": 64,
     "DurationMs": 175,
     "Vel": 80
    },
    {
     "TimeMs": 96429,
     "Key": 67,
     "DurationMs": 175,
     "Vel": 80
    },
    {
     "TimeMs": 96430,
     "Key": 48,
     "DurationMs": 175,
     "Vel": 80
    },
    {
     "TimeMs": 96430,
     "Key": 53,
     "DurationMs": 175,
     "Vel": 80
    },
    {
     "TimeMs": 96623,
     "Key": 53,
     "DurationMs": 350,
     "Vel": 80
    },
    {
     "TimeMs": 96624,
     "Key": 58,
     "DurationMs": 350,
     "Vel": 80
    },
    {
     "TimeMs": 96624,
     "Key": 62,
     "DurationMs": 350,
     "Vel": 80
    },
    {
     "TimeMs": 96625,
     "Key": 34,
     "DurationMs": 260,
     "Vel": 80
    },
    {
     "TimeMs": 96626,
     "Key": 46,
     "DurationMs": 260,
     "Vel": 80
    },
    {
     "TimeMs": 96915,
     "Key": 34,
     "DurationMs": 87,
     "Vel": 80
    },
    {
     "TimeMs": 96916,
     "Key": 46,
     "DurationMs": 87,
     "Vel": 80
    },
    {
     "TimeMs": 97012,
     "Key": 53,
     "DurationMs": 262,
     "Vel": 80
    },
    {
     "TimeMs": 97013,
     "Key": 58,
     "DurationMs": 262,
     "Vel": 80
    },
    {
     "TimeMs": 97014,
     "Key": 62,
     "DurationMs": 262,
     "Vel": 80
    },
    {
     "TimeMs": 97015,
     "Key": 34,
     "DurationMs": 348,
     "Vel": 80
    },
    {
     "TimeMs": 97016,
     "Key": 46,
     "DurationMs": 348,
     "Vel": 80
    },
    {
     "TimeMs": 97305,
     "Key": 60,
     "DurationMs": 87,
     "Vel": 80
    },
    {
     "TimeMs": 97402,
     "Key": 52,
     "DurationMs": 175,
     "Vel": 80
    },
    {
     "TimeMs": 97403,
     "Key": 55,
     "DurationMs": 175,
     "Vel": 80
    },
    {
     "TimeMs": 97404,
     "Key": 62,
     "DurationMs": 175,
     "Vel": 80
    },
    {
     "TimeMs": 97404,
     "Key": 36,
     "DurationMs": 260,
     "Vel": 80
    },
    {
     "TimeMs": 97405,
     "Key": 48,
     "DurationMs": 260,
     "Vel": 80
    },
    {
     "TimeMs": 97597,
     "Key": 52,
     "DurationMs": 175,
     "Vel": 80
    },
    {
     "TimeMs": 97598,
     "Key": 55,
     "DurationMs": 175,
     "Vel": 80
    },
    {
     "TimeMs": 97598,
     "Key": 60,
     "DurationMs": 175,
     "Vel": 80
    },
    {
     "TimeMs": 97694,
     "Key": 36,
     "DurationMs": 87,
     "Vel": 80
    },
    {
     "TimeMs": 97695,
     "Key": 48,
     "DurationMs": 87,
     "Vel": 80
    },
    {
     "TimeMs": 97792,
     "Key": 52,
     "DurationMs": 175,
     "Vel": 80
    },
    {
     "TimeMs": 97792,
     "Key": 57,
     "DurationMs": 175,
     "Vel": 80
    },
    {
     "TimeMs": 97793,
     "Key": 36,
     "DurationMs": 349,
     "Vel": 80
    },
    {
     "TimeMs": 97794,
     "Key": 48,
     "DurationMs": 349,
     "Vel": 80
    },
    {
     "TimeMs": 97986,
     "Key": 60,
     "DurationMs": 175,
     "Vel": 80
    },
    {
     "TimeMs": 98181,
     "Key": 53,
     "DurationMs": 350,
     "Vel": 80
    },
    {
     "TimeMs": 98182,
     "Key": 57,
     "DurationMs": 350,
     "Vel": 80
    },
    {
     "TimeMs": 98183,
     "Key": 62,
     "DurationMs": 350,
     "Vel": 80
    },
    {
     "TimeMs": 98184,
     "Key": 38,
     "DurationMs": 350,
     "Vel": 80
    },
    {
     "TimeMs": 98184,
     "Key": 50,
     "DurationMs": 350,
     "Vel": 80
    },
    {
     "TimeMs": 98571,
     "Key": 53,
     "DurationMs": 262,
     "Vel": 80
    },
    {
     "TimeMs": 98572,
     "Key": 57,
     "DurationMs": 262,
     "Vel": 80
    },
    {
     "TimeMs": 98572,
     "Key": 62,
     "DurationMs": 262,
     "Vel": 80
    },
    {
     "TimeMs": 98573,
     "Key": 38,
     "DurationMs": 292,
     "Vel": 80
    },
    {
     "TimeMs": 98574,
     "Key": 50,
     "DurationMs": 292,
     "Vel": 80
    },
    {
     "TimeMs": 98863,
     "Key": 53,
     "DurationMs": 87,
     "Vel": 80
    },
    {
     "TimeMs": 98864,
     "Key": 57,
     "DurationMs": 87,
     "Vel": 80
    },
    {
     "TimeMs": 98865,
     "Key": 60,
     "DurationMs": 87,
     "Vel": 80
    },
    {
     "TimeMs": 98867,
     "Key": 50,
     "DurationMs": 86,
     "Vel": 80
    },
    {
     "TimeMs": 98960,
     "Key": 62,
     "DurationMs": 97,
     "Vel": 80
    },
    {
     "TimeMs": 98961,
     "Key": 38,
     "DurationMs": 174,
     "Vel": 80
    },
    {
     "TimeMs": 98962,
     "Key": 50,
     "DurationMs": 174,
     "Vel": 80
    },
    {
     "TimeMs": 99059,
     "Key": 53,
     "DurationMs": 86,
     "Vel": 80
    },
    {
     "TimeMs": 99059,
     "Key": 57,
     "DurationMs": 86,
     "Vel": 80
    },
    {
     "TimeMs": 99155,
     "Key": 62,
     "DurationMs": 175,
     "Vel": 80
    },
    {
     "TimeMs": 99156,
     "Key": 65,
     "DurationMs": 175,
     "Vel": 80
    },
    {
     "TimeMs": 99157,
     "Key": 38,
     "DurationMs": 175,
     "Vel": 80
    },
    {
     "TimeMs": 99158,
     "Key": 50,
     "DurationMs": 175,
     "Vel": 80
    },
    {
     "TimeMs": 99350,
     "Key": 64,
     "DurationMs": 175,
     "Vel": 80
    },
    {
     "TimeMs": 99351,
     "Key": 67,
     "DurationMs": 175,
     "Vel": 80
    },
    {
     "TimeMs": 99352,
     "Key": 48,
     "DurationMs": 175,
     "Vel": 80
    },
    {
     "TimeMs": 99352,
     "Key": 53,
     "DurationMs": 175,
     "Vel": 80
    },
    {
     "TimeMs": 99545,
     "Key": 65,
     "DurationMs": 175,
     "Vel": 80
    },
    {
     "TimeMs": 99546,
     "Key": 69,
     "DurationMs": 175,
     "Vel": 80
    },
    {
     "TimeMs": 99546,
     "Key": 50,
     "DurationMs": 175,
     "Vel": 80
    },
    {
     "TimeMs": 99547,
     "Key": 57,
     "DurationMs": 175,
     "Vel": 80
    },
    {
     "TimeMs": 99740,
     "Key": 58,
     "DurationMs": 350,
     "Vel": 80
    },
    {
     "TimeMs": 99740,
     "Key": 62,
     "DurationMs": 350,
     "Vel": 80
    },
    {
     "TimeMs": 99741,
     "Key": 69,
     "DurationMs": 350,
     "Vel": 80
    },
    {
     "TimeMs": 99742,
     "Key": 34,
     "DurationMs": 289,
     "Vel": 80
    },
    {
     "TimeMs": 99743,
     "Key": 46,
     "DurationMs": 289,
     "Vel": 80
    },
    {
     "TimeMs": 100033,
     "Key": 46,
     "DurationMs": 86,
     "Vel": 80
    },
    {
     "TimeMs": 100129,
     "Key": 58,
     "DurationMs": 175,
     "Vel": 80
    },
    {
     "TimeMs": 100130,
     "Key": 62,
     "DurationMs": 175,
     "Vel": 80
    },
    {
     "TimeMs": 100131,
     "Key": 67,
     "DurationMs": 175,
     "Vel": 80
    },
    {
     "TimeMs": 100132,
     "Key": 34,
     "DurationMs": 348,
     "Vel": 80
    },
    {
     "TimeMs": 100133,
     "Key": 46,
     "DurationMs": 348,
     "Vel": 80
    },
    {
     "TimeMs": 100324,
     "Key": 69,
     "DurationMs": 87,
     "Vel": 80
    },
    {
     "TimeMs": 100421,
     "Key": 67,
     "DurationMs": 87,
     "Vel": 80
    },
    {
     "TimeMs": 100519,
     "Key": 55,
     "DurationMs": 350,
     "Vel": 80
    },
    {
     "TimeMs": 100520,
     "Key": 60,
     "DurationMs": 350,
     "Vel": 80
    },
    {
     "TimeMs": 100521,
     "Key": 65,
     "DurationMs": 350,
     "Vel": 80
    },
    {
     "TimeMs": 100521,
     "Key": 36,
     "DurationMs": 289,
     "Vel": 80
    },
    {
     "TimeMs": 100522,
     "Key": 48,
     "DurationMs": 289,
     "Vel": 80
    },
    {
     "TimeMs": 100813,
     "Key": 48,
     "DurationMs": 86,
     "Vel": 80
    },
    {
     "TimeMs": 100908,
     "Key": 55,
     "DurationMs": 350,
     "Vel": 80
    },
    {
     "TimeMs": 100909,
     "Key": 60,
     "DurationMs": 350,
     "Vel": 80
    },
    {
     "TimeMs": 100910,
     "Key": 62,
     "DurationMs": 350,
     "Vel": 80
    },
    {
     "TimeMs": 100911,
     "Key": 36,
     "DurationMs": 350,
     "Vel": 80
    },
    {
     "TimeMs": 100912,
     "Key": 48,
     "DurationMs": 350,
     "Vel": 80
    },
    {
     "TimeMs": 101298,
     "Key": 53,
     "DurationMs": 292,
     "Vel": 80
    },
    {
     "TimeMs": 101299,
     "Key": 57,
     "DurationMs": 292,
     "Vel": 80
    },
    {
     "TimeMs": 101300,
     "Key": 62,
     "DurationMs": 292,
     "Vel": 80
    },
    {
     "TimeMs": 101301,
     "Key": 38,
     "DurationMs": 192,
     "Vel": 80
    },
    {
     "TimeMs": 101301,
     "Key": 50,
     "DurationMs": 192,
     "Vel": 80
    },
    {
     "TimeMs": 101495,
     "Key": 38,
     "DurationMs": 154,
     "Vel": 80
    },
    {
     "TimeMs": 101495,
     "Key": 50,
     "DurationMs": 154,
     "Vel": 80
    },
    {
     "TimeMs": 101593,
     "Key": 62,
     "DurationMs": 85,
     "Vel": 80
    },
    {
     "TimeMs": 101688,
     "Key": 53,
     "DurationMs": 262,
     "Vel": 80
    },
    {
     "TimeMs": 101689,
     "Key": 57,
     "DurationMs": 262,
     "Vel": 80
    },
    {
     "TimeMs": 101689,
     "Key": 62,
     "DurationMs": 262,
     "Vel": 80
    },
    {
     "TimeMs": 101690,
     "Key": 38,
     "DurationMs": 292,
     "Vel": 80
    },
    {
     "TimeMs": 101691,
     "Key": 50,
     "DurationMs": 292,
     "Vel": 80
    },
    {
     "TimeMs": 101980,
     "Key": 53,
     "DurationMs": 87,
     "Vel": 80
    },
    {
     "TimeMs": 101981,
     "Key": 57,
     "DurationMs": 87,
     "Vel": 80
    },
    {
     "TimeMs": 101982,
     "Key": 60,
     "DurationMs": 87,
     "Vel": 80
    },
    {
     "TimeMs": 101984,
     "Key": 50,
     "DurationMs": 86,
     "Vel": 80
    },
    {
     "TimeMs": 102077,
     "Key": 60,
     "DurationMs": 97,
     "Vel": 80
    },
    {
     "TimeMs": 102078,
     "Key": 38,
     "DurationMs": 174,
     "Vel": 80
    },
    {
     "TimeMs": 102079,
     "Key": 50,
     "DurationMs": 174,
     "Vel": 80
    },
    {
     "TimeMs": 102176,
     "Key": 53,
     "DurationMs": 86,
     "Vel": 80
    },
    {
     "TimeMs": 102176,
     "Key": 57,
     "DurationMs": 86,
     "Vel": 80
    },
    {
     "TimeMs": 102272,
     "Key": 62,
     "DurationMs": 175,
     "Vel": 80
    },
    {
     "TimeMs": 102273,
     "Key": 38,
     "DurationMs": 175,
     "Vel": 80
    },
    {
     "TimeMs": 102274,
     "Key": 50,
     "DurationMs": 175,
     "Vel": 80
    },
    {
     "TimeMs": 102467,
     "Key": 62,
     "DurationMs": 175,
     "Vel": 80
    },
    {
     "TimeMs": 102468,
     "Key": 65,
     "DurationMs": 175,
     "Vel": 80
    },
    {
     "TimeMs": 102469,
     "Key": 45,
     "DurationMs": 175,
     "Vel": 80
    },
    {
     "TimeMs": 102469,
     "Key": 50,
     "DurationMs": 175,
     "Vel": 80
    },
    {
     "TimeMs": 102662,
     "Key": 64,
     "DurationMs": 175,
     "Vel": 80
    },
    {
     "TimeMs": 102663,
     "Key": 67,
     "DurationMs": 175,
     "Vel": 80
    },
    {
     "TimeMs": 102663,
     "Key": 48,
     "DurationMs": 175,
     "Vel": 80
    },
    {
     "TimeMs": 102664,
     "Key": 53,
     "DurationMs": 175,
     "Vel": 80
    },
    {
     "TimeMs": 102857,
     "Key": 53,
     "DurationMs": 262,
     "Vel": 80
    },
    {
     "TimeMs": 102857,
     "Key": 58,
     "DurationMs": 262,
     "Vel": 80
    },
    {
     "TimeMs": 102858,
     "Key": 62,
     "DurationMs": 262,
     "Vel": 80
    },
    {
     "TimeMs": 102859,
     "Key": 34,
     "DurationMs": 262,
     "Vel": 80
    },
    {
     "TimeMs": 102860,
     "Key": 46,
     "DurationMs": 262,
     "Vel": 80
    },
    {
     "TimeMs": 103149,
     "Key": 62,
     "DurationMs": 87,
     "Vel": 80
    },
    {
     "TimeMs": 103150,
     "Key": 34,
     "DurationMs": 87,
     "Vel": 80
    },
    {
     "TimeMs": 103150,
     "Key": 46,
     "DurationMs": 87,
     "Vel": 80
    },
    {
     "TimeMs": 103246,
     "Key": 53,
     "DurationMs": 175,
     "Vel": 80
    },
    {
     "TimeMs": 103247,
     "Key": 58,
     "DurationMs": 175,
     "Vel": 80
    },
    {
     "TimeMs": 103248,
     "Key": 62,
     "DurationMs": 175,
     "Vel": 80
    },
    {
     "TimeMs": 103249,
     "Key": 34,
     "DurationMs": 348,
     "Vel": 80
    },
    {
     "TimeMs": 103249,
     "Key": 46,
     "DurationMs": 348,
     "Vel": 80
    },
    {
     "TimeMs": 103441,
     "Key": 60,
     "DurationMs": 175,
     "Vel": 80
    },
    {
     "TimeMs": 103636,
     "Key": 53,
     "DurationMs": 175,
     "Vel": 80
    },
    {
     "TimeMs": 103637,
     "Key": 55,
     "DurationMs": 175,
     "Vel": 80
    },
    {
     "TimeMs": 103637,
     "Key": 62,
     "DurationMs": 175,
     "Vel": 80
    },
    {
     "TimeMs": 103638,
     "Key": 36,
     "DurationMs": 260,
     "Vel": 80
    },
    {
     "TimeMs": 103639,
     "Key": 48,
     "DurationMs": 260,
     "Vel": 80
    },
    {
     "TimeMs": 103831,
     "Key": 60,
     "DurationMs": 175,
     "Vel": 80
    },
    {
     "TimeMs": 103928,
     "Key": 36,
     "DurationMs": 87,
     "Vel": 80
    },
    {
     "TimeMs": 103929,
     "Key": 48,
     "DurationMs": 87,
     "Vel": 80
    },
    {
     "TimeMs": 104025,
     "Key": 52,
     "DurationMs": 175,
     "Vel": 80
    },
    {
     "TimeMs": 104026,
     "Key": 55,
     "DurationMs": 175,
     "Vel": 80
    },
    {
     "TimeMs": 104027,
     "Key": 60,
     "DurationMs": 175,
     "Vel": 80
    },
    {
     "TimeMs": 104028,
     "Key": 36,
     "DurationMs": 348,
     "Vel": 80
    },
    {
     "TimeMs": 104029,
     "Key": 48,
     "DurationMs": 348,
     "Vel": 80
    },
    {
     "TimeMs": 104220,
     "Key": 57,
     "DurationMs": 175,
     "Vel": 80
    },
    {
     "TimeMs": 104415,
     "Key": 53,
     "DurationMs": 292,
     "Vel": 80
    },
    {
     "TimeMs": 104416,
     "Key": 57,
     "DurationMs": 292,
     "Vel": 80
    },
    {
     "TimeMs": 104417,
     "Key": 62,
     "DurationMs": 292,
     "Vel": 80
    },
    {
     "TimeMs": 104417,
     "Key": 38,
     "DurationMs": 192,
     "Vel": 80
    },
    {
     "TimeMs": 104418,
     "Key": 50,
     "DurationMs": 192,
     "Vel": 80
    },
    {
     "TimeMs": 104611,
     "Key": 38,
     "DurationMs": 154,
     "Vel": 80
    },
    {
     "TimeMs": 104612,
     "Key": 50,
     "DurationMs": 154,
     "Vel": 80
    },
    {
     "TimeMs": 104710,
     "Key": 62,
     "DurationMs": 85,
     "Vel": 80
    },
    {
     "TimeMs": 104805,
     "Key": 53,
     "DurationMs": 175,
     "Vel": 80
    },
    {
     "TimeMs": 104805,
     "Key": 57,
     "DurationMs": 175,
     "Vel": 80
    },
    {
     "TimeMs": 104806,
     "Key": 62,
     "DurationMs": 175,
     "Vel": 80
    },
    {
     "TimeMs": 104807,
     "Key": 38,
     "DurationMs": 289,
     "Vel": 80
    },
    {
     "TimeMs": 104808,
     "Key": 50,
     "DurationMs": 289,
     "Vel": 80
    },
    {
     "TimeMs": 104999,
     "Key": 53,
     "DurationMs": 175,
     "Vel": 80
    },
    {
     "TimeMs": 105000,
     "Key": 57,
     "DurationMs": 175,
     "Vel": 80
    },
    {
     "TimeMs": 105001,
     "Key": 60,
     "DurationMs": 175,
     "Vel": 80
    },
    {
     "TimeMs": 105098,
     "Key": 50,
     "DurationMs": 86,
     "Vel": 80
    },
    {
     "TimeMs": 105194,
     "Key": 60,
     "DurationMs": 97,
     "Vel": 80
    },
    {
     "TimeMs": 105195,
     "Key": 38,
     "DurationMs": 174,
     "Vel": 80
    },
    {
     "TimeMs": 105196,
     "Key": 50,
     "DurationMs": 174,
     "Vel": 80
    },
    {
     "TimeMs": 105292,
     "Key": 53,
     "DurationMs": 86,
     "Vel": 80
    },
    {
     "TimeMs": 105293,
     "Key": 57,
     "DurationMs": 86,
     "Vel": 80
    },
    {
     "TimeMs": 105389,
     "Key": 62,
     "DurationMs": 175,
     "Vel": 80
    },
    {
     "TimeMs": 105390,
     "Key": 38,
     "DurationMs": 175,
     "Vel": 80
    },
    {
     "TimeMs": 105391,
     "Key": 50,
     "DurationMs": 175,
     "Vel": 80
    },
    {
     "TimeMs": 105584,
     "Key": 62,
     "DurationMs": 175,
     "Vel": 80
    },
    {
     "TimeMs": 105585,
     "Key": 65,
     "DurationMs": 175,
     "Vel": 80
    },
    {
     "TimeMs": 105585,
     "Key": 45,
     "DurationMs": 175,
     "Vel": 80
    },
    {
     "TimeMs": 105586,
     "Key": 50,
     "DurationMs": 175,
     "Vel": 80
    },
    {
     "TimeMs": 105779,
     "Key": 64,
     "DurationMs": 175,
     "Vel": 80
    },
    {
     "TimeMs": 105779,
     "Key": 67,
     "DurationMs": 175,
     "Vel": 80
    },
    {
     "TimeMs": 105780,
     "Key": 48,
     "DurationMs": 175,
     "Vel": 80
    },
    {
     "TimeMs": 105781,
     "Key": 53,
     "DurationMs": 175,
     "Vel": 80
    },
    {
     "TimeMs": 105973,
     "Key": 58,
     "DurationMs": 350,
     "Vel": 80
    },
    {
     "TimeMs": 105974,
     "Key": 62,
     "DurationMs": 350,
     "Vel": 80
    },
    {
     "TimeMs": 105975,
     "Key": 69,
     "DurationMs": 350,
     "Vel": 80
    },
    {
     "TimeMs": 105976,
     "Key": 34,
     "DurationMs": 172,
     "Vel": 80
    },
    {
     "TimeMs": 105977,
     "Key": 46,
     "DurationMs": 172,
     "Vel": 80
    },
    {
     "TimeMs": 106168,
     "Key": 34,
     "DurationMs": 175,
     "Vel": 80
    },
    {
     "TimeMs": 106169,
     "Key": 46,
     "DurationMs": 175,
     "Vel": 80
    },
    {
     "TimeMs": 106363,
     "Key": 58,
     "DurationMs": 175,
     "Vel": 80
    },
    {
     "TimeMs": 106364,
     "Key": 62,
     "DurationMs": 175,
     "Vel": 80
    },
    {
     "TimeMs": 106365,
     "Key": 67,
     "DurationMs": 175,
     "Vel": 80
    },
    {
     "TimeMs": 106365,
     "Key": 34,
     "DurationMs": 290,
     "Vel": 80
    },
    {
     "TimeMs": 106366,
     "Key": 46,
     "DurationMs": 290,
     "Vel": 80
    },
    {
     "TimeMs": 106558,
     "Key": 69,
     "DurationMs": 87,
     "Vel": 80
    },
    {
     "TimeMs": 106655,
     "Key": 67,
     "DurationMs": 87,
     "Vel": 80
    },
    {
     "TimeMs": 106658,
     "Key": 46,
     "DurationMs": 86,
     "Vel": 80
    },
    {
     "TimeMs": 106753,
     "Key": 55,
     "DurationMs": 350,
     "Vel": 80
    },
    {
     "TimeMs": 106753,
     "Key": 60,
     "DurationMs": 350,
     "Vel": 80
    },
    {
     "TimeMs": 106754,
     "Key": 65,
     "DurationMs": 350,
     "Vel": 80
    },
    {
     "TimeMs": 106755,
     "Key": 36,
     "DurationMs": 172,
     "Vel": 80
    },
    {
     "TimeMs": 106756,
     "Key": 48,
     "DurationMs": 172,
     "Vel": 80
    },
    {
     "TimeMs": 106947,
     "Key": 36,
     "DurationMs": 87,
     "Vel": 80
    },
    {
     "TimeMs": 107045,
     "Key": 48,
     "DurationMs": 87,
     "Vel": 80
    },
    {
     "TimeMs": 107142,
     "Key": 55,
     "DurationMs": 350,
     "Vel": 80
    },
    {
     "TimeMs": 107143,
     "Key": 60,
     "DurationMs": 350,
     "Vel": 80
    },
    {
     "TimeMs": 107144,
     "Key": 62,
     "DurationMs": 350,
     "Vel": 80
    },
    {
     "TimeMs": 107145,
     "Key": 36,
     "DurationMs": 85,
     "Vel": 80
    },
    {
     "TimeMs": 107240,
     "Key": 48,
     "DurationMs": 87,
     "Vel": 80
    },
    {
     "TimeMs": 107337,
     "Key": 36,
     "DurationMs": 87,
     "Vel": 80
    },
    {
     "TimeMs": 107434,
     "Key": 48,
     "DurationMs": 87,
     "Vel": 80
    },
    {
     "TimeMs": 107532,
     "Key": 58,
     "DurationMs": 350,
     "Vel": 80
    },
    {
     "TimeMs": 107533,
     "Key": 65,
     "DurationMs": 350,
     "Vel": 80
    },
    {
     "TimeMs": 107533,
     "Key": 34,
     "DurationMs": 173,
     "Vel": 80
    },
    {
     "TimeMs": 107727,
     "Key": 46,
     "DurationMs": 175,
     "Vel": 80
    },
    {
     "TimeMs": 107921,
     "Key": 53,
     "DurationMs": 350,
     "Vel": 80
    },
    {
     "TimeMs": 107922,
     "Key": 58,
     "DurationMs": 350,
     "Vel": 80
    },
    {
     "TimeMs": 107923,
     "Key": 64,
     "DurationMs": 350,
     "Vel": 80
    },
    {
     "TimeMs": 107924,
     "Key": 34,
     "DurationMs": 260,
     "Vel": 80
    },
    {
     "TimeMs": 108214,
     "Key": 46,
     "DurationMs": 87,
     "Vel": 80
    },
    {
     "TimeMs": 108311,
     "Key": 53,
     "DurationMs": 350,
     "Vel": 80
    },
    {
     "TimeMs": 108312,
     "Key": 58,
     "DurationMs": 350,
     "Vel": 80
    },
    {
     "TimeMs": 108313,
     "Key": 62,
     "DurationMs": 350,
     "Vel": 80
    },
    {
     "TimeMs": 108314,
     "Key": 34,
     "DurationMs": 172,
     "Vel": 80
    },
    {
     "TimeMs": 108506,
     "Key": 46,
     "DurationMs": 175,
     "Vel": 80
    },
    {
     "TimeMs": 108701,
     "Key": 53,
     "DurationMs": 350,
     "Vel": 80
    },
    {
     "TimeMs": 108702,
     "Key": 58,
     "DurationMs": 350,
     "Vel": 80
    },
    {
     "TimeMs": 108702,
     "Key": 60,
     "DurationMs": 350,
     "Vel": 80
    },
    {
     "TimeMs": 108703,
     "Key": 34,
     "DurationMs": 260,
     "Vel": 80
    },
    {
     "TimeMs": 108993,
     "Key": 46,
     "DurationMs": 87,
     "Vel": 80
    },
    {
     "TimeMs": 109090,
     "Key": 53,
     "DurationMs": 175,
     "Vel": 80
    },
    {
     "TimeMs": 109091,
     "Key": 57,
     "DurationMs": 175,
     "Vel": 80
    },
    {
     "TimeMs": 109092,
     "Key": 60,
     "DurationMs": 175,
     "Vel": 80
    },
    {
     "TimeMs": 109093,
     "Key": 29,
     "DurationMs": 175,
     "Vel": 80
    },
    {
     "TimeMs": 109285,
     "Key": 53,
     "DurationMs": 87,
     "Vel": 80
    },
    {
     "TimeMs": 109286,
     "Key": 57,
     "DurationMs": 87,
     "Vel": 80
    },
    {
     "TimeMs": 109287,
     "Key": 60,
     "DurationMs": 87,
     "Vel": 80
    },
    {
     "TimeMs": 109288,
     "Key": 41,
     "DurationMs": 172,
     "Vel": 80
    },
    {
     "TimeMs": 109383,
     "Key": 62,
     "DurationMs": 87,
     "Vel": 80
    },
    {
     "TimeMs": 109480,
     "Key": 53,
     "DurationMs": 175,
     "Vel": 80
    },
    {
     "TimeMs": 109481,
     "Key": 57,
     "DurationMs": 175,
     "Vel": 80
    },
    {
     "TimeMs": 109482,
     "Key": 29,
     "DurationMs": 261,
     "Vel": 80
    },
    {
     "TimeMs": 109675,
     "Key": 55,
     "DurationMs": 175,
     "Vel": 80
    },
    {
     "TimeMs": 109772,
     "Key": 41,
     "DurationMs": 87,
     "Vel": 80
    },
    {
     "TimeMs": 109870,
     "Key": 53,
     "DurationMs": 350,
     "Vel": 80
    },
    {
     "TimeMs": 109870,
     "Key": 57,
     "DurationMs": 350,
     "Vel": 80
    },
    {
     "TimeMs": 109871,
     "Key": 41,
     "DurationMs": 173,
     "Vel": 80
    },
    {
     "TimeMs": 110064,
     "Key": 41,
     "DurationMs": 175,
     "Vel": 80
    },
    {
     "TimeMs": 110259,
     "Key": 48,
     "DurationMs": 350,
     "Vel": 80
    },
    {
     "TimeMs": 110260,
     "Key": 53,
     "DurationMs": 350,
     "Vel": 80
    },
    {
     "TimeMs": 110261,
     "Key": 41,
     "DurationMs": 173,
     "Vel": 80
    },
    {
     "TimeMs": 110454,
     "Key": 41,
     "DurationMs": 175,
     "Vel": 80
    },
    {
     "TimeMs": 110649,
     "Key": 53,
     "DurationMs": 175,
     "Vel": 80
    },
    {
     "TimeMs": 110650,
     "Key": 57,
     "DurationMs": 175,
     "Vel": 80
    },
    {
     "TimeMs": 110650,
     "Key": 34,
     "DurationMs": 175,
     "Vel": 80
    },
    {
     "TimeMs": 110844,
     "Key": 60,
     "DurationMs": 175,
     "Vel": 80
    },
    {
     "TimeMs": 110844,
     "Key": 46,
     "DurationMs": 175,
     "Vel": 80
    },
    {
     "TimeMs": 111038,
     "Key": 53,
     "DurationMs": 350,
     "Vel": 80
    },
    {
     "TimeMs": 111039,
     "Key": 58,
     "DurationMs": 350,
     "Vel": 80
    },
    {
     "TimeMs": 111040,
     "Key": 62,
     "DurationMs": 350,
     "Vel": 80
    },
    {
     "TimeMs": 111041,
     "Key": 34,
     "DurationMs": 260,
     "Vel": 80
    },
    {
     "TimeMs": 111331,
     "Key": 46,
     "DurationMs": 87,
     "Vel": 80
    },
    {
     "TimeMs": 111428,
     "Key": 58,
     "DurationMs": 350,
     "Vel": 80
    },
    {
     "TimeMs": 111429,
     "Key": 60,
     "DurationMs": 350,
     "Vel": 80
    },
    {
     "TimeMs": 111430,
     "Key": 67,
     "DurationMs": 350,
     "Vel": 80
    },
    {
     "TimeMs": 111430,
     "Key": 36,
     "DurationMs": 172,
     "Vel": 80
    },
    {
     "TimeMs": 111623,
     "Key": 48,
     "DurationMs": 175,
     "Vel": 80
    },
    {
     "TimeMs": 111818,
     "Key": 55,
     "DurationMs": 350,
     "Vel": 80
    },
    {
     "TimeMs": 111818,
     "Key": 60,
     "DurationMs": 350,
     "Vel": 80
    },
    {
     "TimeMs": 111819,
     "Key": 64,
     "DurationMs": 350,
     "Vel": 80
    },
    {
     "TimeMs": 111820,
     "Key": 36,
     "DurationMs": 172,
     "Vel": 80
    },
    {
     "TimeMs": 112012,
     "Key": 36,
     "DurationMs": 87,
     "Vel": 80
    },
    {
     "TimeMs": 112110,
     "Key": 48,
     "DurationMs": 87,
     "Vel": 80
    },
    {
     "TimeMs": 112207,
     "Key": 57,
     "DurationMs": 175,
     "Vel": 80
    },
    {
     "TimeMs": 112208,
     "Key": 62,
     "DurationMs": 175,
     "Vel": 80
    },
    {
     "TimeMs": 112209,
     "Key": 65,
     "DurationMs": 175,
     "Vel": 80
    },
    {
     "TimeMs": 112210,
     "Key": 38,
     "DurationMs": 175,
     "Vel": 80
    },
    {
     "TimeMs": 112402,
     "Key": 53,
     "DurationMs": 175,
     "Vel": 80
    },
    {
     "TimeMs": 112403,
     "Key": 50,
     "DurationMs": 175,
     "Vel": 80
    },
    {
     "TimeMs": 112597,
     "Key": 57,
     "DurationMs": 87,
     "Vel": 80
    },
    {
     "TimeMs": 112598,
     "Key": 62,
     "DurationMs": 87,
     "Vel": 80
    },
    {
     "TimeMs": 112598,
     "Key": 64,
     "DurationMs": 87,
     "Vel": 80
    },
    {
     "TimeMs": 112599,
     "Key": 38,
     "DurationMs": 87,
     "Vel": 80
    },
    {
     "TimeMs": 112694,
     "Key": 53,
     "DurationMs": 87,
     "Vel": 80
    },
    {
     "TimeMs": 112695,
     "Key": 50,
     "DurationMs": 87,
     "Vel": 80
    },
    {
     "TimeMs": 112792,
     "Key": 57,
     "DurationMs": 87,
     "Vel": 80
    },
    {
     "TimeMs": 112792,
     "Key": 60,
     "DurationMs": 87,
     "Vel": 80
    },
    {
     "TimeMs": 112793,
     "Key": 38,
     "DurationMs": 87,
     "Vel": 80
    },
    {
     "TimeMs": 112889,
     "Key": 53,
     "DurationMs": 87,
     "Vel": 80
    },
    {
     "TimeMs": 112890,
     "Key": 50,
     "DurationMs": 87,
     "Vel": 80
    },
    {
     "TimeMs": 112986,
     "Key": 55,
     "DurationMs": 175,
     "Vel": 80
    },
    {
     "TimeMs": 112987,
     "Key": 57,
     "DurationMs": 175,
     "Vel": 80
    },
    {
     "TimeMs": 112988,
     "Key": 62,
     "DurationMs": 175,
     "Vel": 80
    },
    {
     "TimeMs": 112989,
     "Key": 38,
     "DurationMs": 175,
     "Vel": 80
    },
    {
     "TimeMs": 113181,
     "Key": 53,
     "DurationMs": 175,
     "Vel": 80
    },
    {
     "TimeMs": 113182,
     "Key": 50,
     "DurationMs": 175,
     "Vel": 80
    },
    {
     "TimeMs": 113376,
     "Key": 57,
     "DurationMs": 175,
     "Vel": 80
    },
    {
     "TimeMs": 113377,
     "Key": 38,
     "DurationMs": 175,
     "Vel": 80
    },
    {
     "TimeMs": 113571,
     "Key": 53,
     "DurationMs": 175,
     "Vel": 80
    },
    {
     "TimeMs": 113572,
     "Key": 50,
     "DurationMs": 175,
     "Vel": 80
    },
    {
     "TimeMs": 113766,
     "Key": 58,
     "DurationMs": 350,
     "Vel": 80
    },
    {
     "TimeMs": 113766,
     "Key": 65,
     "DurationMs": 350,
     "Vel": 80
    },
    {
     "TimeMs": 113767,
     "Key": 34,
     "DurationMs": 173,
     "Vel": 80
    },
    {
     "TimeMs": 113960,
     "Key": 46,
     "DurationMs": 175,
     "Vel": 80
    },
    {
     "TimeMs": 114155,
     "Key": 53,
     "DurationMs": 350,
     "Vel": 80
    },
    {
     "TimeMs": 114156,
     "Key": 58,
     "DurationMs": 350,
     "Vel": 80
    },
    {
     "TimeMs": 114157,
     "Key": 64,
     "DurationMs": 350,
     "Vel": 80
    },
    {
     "TimeMs": 114158,
     "Key": 34,
     "DurationMs": 260,
     "Vel": 80
    },
    {
     "TimeMs": 114447,
     "Key": 46,
     "DurationMs": 87,
     "Vel": 80
    },
    {
     "TimeMs": 114545,
     "Key": 53,
     "DurationMs": 350,
     "Vel": 80
    },
    {
     "TimeMs": 114546,
     "Key": 58,
     "DurationMs": 350,
     "Vel": 80
    },
    {
     "TimeMs": 114546,
     "Key": 62,
     "DurationMs": 350,
     "Vel": 80
    },
    {
     "TimeMs": 114547,
     "Key": 34,
     "DurationMs": 172,
     "Vel": 80
    },
    {
     "TimeMs": 114740,
     "Key": 46,
     "DurationMs": 175,
     "Vel": 80
    },
    {
     "TimeMs": 114934,
     "Key": 53,
     "DurationMs": 350,
     "Vel": 80
    },
    {
     "TimeMs": 114935,
     "Key": 58,
     "DurationMs": 350,
     "Vel": 80
    },
    {
     "TimeMs": 114936,
     "Key": 60,
     "DurationMs": 350,
     "Vel": 80
    },
    {
     "TimeMs": 114937,
     "Key": 34,
     "DurationMs": 260,
     "Vel": 80
    },
    {
     "TimeMs": 115227,
     "Key": 46,
     "DurationMs": 87,
     "Vel": 80
    },
    {
     "TimeMs": 115324,
     "Key": 53,
     "DurationMs": 175,
     "Vel": 80
    },
    {
     "TimeMs": 115325,
     "Key": 57,
     "DurationMs": 175,
     "Vel": 80
    },
    {
     "TimeMs": 115326,
     "Key": 60,
     "DurationMs": 175,
     "Vel": 80
    },
    {
     "TimeMs": 115326,
     "Key": 29,
     "DurationMs": 175,
     "Vel": 80
    },
    {
     "TimeMs": 115519,
     "Key": 53,
     "DurationMs": 87,
     "Vel": 80
    },
    {
     "TimeMs": 115520,
     "Key": 57,
     "DurationMs": 87,
     "Vel": 80
    },
    {
     "TimeMs": 115520,
     "Key": 60,
     "DurationMs": 87,
     "Vel": 80
    },
    {
     "TimeMs": 115521,
     "Key": 41,
     "DurationMs": 172,
     "Vel": 80
    },
    {
     "TimeMs": 115616,
     "Key": 62,
     "DurationMs": 87,
     "Vel": 80
    },
    {
     "TimeMs": 115714,
     "Key": 53,
     "DurationMs": 175,
     "Vel": 80
    },
    {
     "TimeMs": 115714,
     "Key": 57,
     "DurationMs": 175,
     "Vel": 80
    },
    {
     "TimeMs": 115715,
     "Key": 29,
     "DurationMs": 261,
     "Vel": 80
    },
    {
     "TimeMs": 115908,
     "Key": 55,
     "DurationMs": 175,
     "Vel": 80
    },
    {
     "TimeMs": 116006,
     "Key": 41,
     "DurationMs": 87,
     "Vel": 80
    },
    {
     "TimeMs": 116103,
     "Key": 53,
     "DurationMs": 350,
     "Vel": 80
    },
    {
     "TimeMs": 116104,
     "Key": 57,
     "DurationMs": 350,
     "Vel": 80
    },
    {
     "TimeMs": 116105,
     "Key": 41,
     "DurationMs": 173,
     "Vel": 80
    },
    {
     "TimeMs": 116298,
     "Key": 41,
     "DurationMs": 175,
     "Vel": 80
    },
    {
     "TimeMs": 116493,
     "Key": 48,
     "DurationMs": 175,
     "Vel": 80
    },
    {
     "TimeMs": 116494,
     "Key": 57,
     "DurationMs": 175,
     "Vel": 80
    },
    {
     "TimeMs": 116495,
     "Key": 41,
     "DurationMs": 175,
     "Vel": 80
    },
    {
     "TimeMs": 116688,
     "Key": 60,
     "DurationMs": 175,
     "Vel": 80
    },
    {
     "TimeMs": 116689,
     "Key": 41,
     "DurationMs": 175,
     "Vel": 80
    },
    {
     "TimeMs": 116870,
     "Key": 53,
     "DurationMs": 175,
     "Vel": 80
    },
    {
     "TimeMs": 116883,
     "Key": 55,
     "DurationMs": 175,
     "Vel": 80
    },
    {
     "TimeMs": 116883,
     "Key": 31,
     "DurationMs": 175,
     "Vel": 80
    },
    {
     "TimeMs": 116884,
     "Key": 43,
     "DurationMs": 175,
     "Vel": 80
    },
    {
     "TimeMs": 116895,
     "Key": 58,
     "DurationMs": 175,
     "Vel": 80
    },
    {
     "TimeMs": 116907,
     "Key": 62,
     "DurationMs": 175,
     "Vel": 80
    },
    {
     "TimeMs": 117077,
     "Key": 55,
     "DurationMs": 350,
     "Vel": 80
    },
    {
     "TimeMs": 117078,
     "Key": 58,
     "DurationMs": 350,
     "Vel": 80
    },
    {
     "TimeMs": 117079,
     "Key": 62,
     "DurationMs": 3,
     "Vel": 80
    },
    {
     "TimeMs": 117080,
     "Key": 43,
     "DurationMs": 350,
     "Vel": 80
    },
    {
     "TimeMs": 117467,
     "Key": 55,
     "DurationMs": 175,
     "Vel": 80
    },
    {
     "TimeMs": 117468,
     "Key": 58,
     "DurationMs": 175,
     "Vel": 80
    },
    {
     "TimeMs": 117469,
     "Key": 62,
     "DurationMs": 175,
     "Vel": 80
    },
    {
     "TimeMs": 117469,
     "Key": 43,
     "DurationMs": 175,
     "Vel": 80
    },
    {
     "TimeMs": 117662,
     "Key": 57,
     "DurationMs": 350,
     "Vel": 80
    },
    {
     "TimeMs": 117663,
     "Key": 65,
     "DurationMs": 350,
     "Vel": 80
    },
    {
     "TimeMs": 117663,
     "Key": 43,
     "DurationMs": 350,
     "Vel": 80
    },
    {
     "TimeMs": 117664,
     "Key": 50,
     "DurationMs": 350,
     "Vel": 80
    },
    {
     "TimeMs": 118051,
     "Key": 58,
     "DurationMs": 350,
     "Vel": 80
    },
    {
     "TimeMs": 118052,
     "Key": 62,
     "DurationMs": 350,
     "Vel": 80
    },
    {
     "TimeMs": 118053,
     "Key": 67,
     "DurationMs": 350,
     "Vel": 80
    },
    {
     "TimeMs": 118054,
     "Key": 43,
     "DurationMs": 350,
     "Vel": 80
    },
    {
     "TimeMs": 118055,
     "Key": 50,
     "DurationMs": 350,
     "Vel": 80
    },
    {
     "TimeMs": 118441,
     "Key": 55,
     "DurationMs": 350,
     "Vel": 80
    },
    {
     "TimeMs": 118442,
     "Key": 57,
     "DurationMs": 350,
     "Vel": 80
    },
    {
     "TimeMs": 118443,
     "Key": 61,
     "DurationMs": 350,
     "Vel": 80
    },
    {
     "TimeMs": 118443,
     "Key": 64,
     "DurationMs": 350,
     "Vel": 80
    },
    {
     "TimeMs": 118444,
     "Key": 33,
     "DurationMs": 172,
     "Vel": 80
    },
    {
     "TimeMs": 118445,
     "Key": 45,
     "DurationMs": 172,
     "Vel": 80
    },
    {
     "TimeMs": 118636,
     "Key": 45,
     "DurationMs": 175,
     "Vel": 80
    },
    {
     "TimeMs": 118831,
     "Key": 52,
     "DurationMs": 175,
     "Vel": 80
    },
    {
     "TimeMs": 118831,
     "Key": 55,
     "DurationMs": 175,
     "Vel": 80
    },
    {
     "TimeMs": 118832,
     "Key": 33,
     "DurationMs": 175,
     "Vel": 80
    },
    {
     "TimeMs": 118833,
     "Key": 45,
     "DurationMs": 175,
     "Vel": 80
    },
    {
     "TimeMs": 119025,
     "Key": 49,
     "DurationMs": 175,
     "Vel": 80
    },
    {
     "TimeMs": 119026,
     "Key": 52,
     "DurationMs": 175,
     "Vel": 80
    },
    {
     "TimeMs": 119027,
     "Key": 55,
     "DurationMs": 175,
     "Vel": 80
    },
    {
     "TimeMs": 119028,
     "Key": 57,
     "DurationMs": 175,
     "Vel": 80
    },
    {
     "TimeMs": 119029,
     "Key": 33,
     "DurationMs": 175,
     "Vel": 80
    },
    {
     "TimeMs": 119029,
     "Key": 45,
     "DurationMs": 175,
     "Vel": 80
    },
    {
     "TimeMs": 119610,
     "Key": 62,
     "DurationMs": 175,
     "Vel": 80
    },
    {
     "TimeMs": 119805,
     "Key": 65,
     "DurationMs": 175,
     "Vel": 80
    },
    {
     "TimeMs": 119999,
     "Key": 57,
     "DurationMs": 262,
     "Vel": 80
    },
    {
     "TimeMs": 120000,
     "Key": 62,
     "DurationMs": 262,
     "Vel": 80
    },
    {
     "TimeMs": 120001,
     "Key": 67,
     "DurationMs": 262,
     "Vel": 80
    },
    {
     "TimeMs": 120002,
     "Key": 38,
     "DurationMs": 172,
     "Vel": 80
    },
    {
     "TimeMs": 120003,
     "Key": 50,
     "DurationMs": 172,
     "Vel": 80
    },
    {
     "TimeMs": 120194,
     "Key": 50,
     "DurationMs": 87,
     "Vel": 80
    },
    {
     "TimeMs": 120292,
     "Key": 62,
     "DurationMs": 262,
     "Vel": 80
    },
    {
     "TimeMs": 120292,
     "Key": 67,
     "DurationMs": 262,
     "Vel": 80
    },
    {
     "TimeMs": 120293,
     "Key": 53,
     "DurationMs": 86,
     "Vel": 80
    },
    {
     "TimeMs": 120389,
     "Key": 57,
     "DurationMs": 175,
     "Vel": 80
    },
    {
     "TimeMs": 120390,
     "Key": 50,
     "DurationMs": 175,
     "Vel": 80
    },
    {
     "TimeMs": 120584,
     "Key": 62,
     "DurationMs": 175,
     "Vel": 80
    },
    {
     "TimeMs": 120585,
     "Key": 65,
     "DurationMs": 175,
     "Vel": 80
    },
    {
     "TimeMs": 120585,
     "Key": 69,
     "DurationMs": 175,
     "Vel": 80
    },
    {
     "TimeMs": 120586,
     "Key": 50,
     "DurationMs": 175,
     "Vel": 80
    },
    {
     "TimeMs": 120779,
     "Key": 62,
     "DurationMs": 525,
     "Vel": 80
    },
    {
     "TimeMs": 120779,
     "Key": 65,
     "DurationMs": 525,
     "Vel": 80
    },
    {
     "TimeMs": 120780,
     "Key": 69,
     "DurationMs": 525,
     "Vel": 80
    },
    {
     "TimeMs": 120781,
     "Key": 34,
     "DurationMs": 172,
     "Vel": 80
    },
    {
     "TimeMs": 120782,
     "Key": 46,
     "DurationMs": 172,
     "Vel": 80
    },
    {
     "TimeMs": 120973,
     "Key": 50,
     "DurationMs": 87,
     "Vel": 80
    },
    {
     "TimeMs": 121071,
     "Key": 53,
     "DurationMs": 87,
     "Vel": 80
    },
    {
     "TimeMs": 121168,
     "Key": 58,
     "DurationMs": 175,
     "Vel": 80
    },
    {
     "TimeMs": 121169,
     "Key": 50,
     "DurationMs": 175,
     "Vel": 80
    },
    {
     "TimeMs": 121363,
     "Key": 69,
     "DurationMs": 175,
     "Vel": 80
    },
    {
     "TimeMs": 121364,
     "Key": 46,
     "DurationMs": 175,
     "Vel": 80
    },
    {
     "TimeMs": 121558,
     "Key": 64,
     "DurationMs": 175,
     "Vel": 80
    },
    {
     "TimeMs": 121559,
     "Key": 67,
     "DurationMs": 175,
     "Vel": 80
    },
    {
     "TimeMs": 121559,
     "Key": 72,
     "DurationMs": 175,
     "Vel": 80
    },
    {
     "TimeMs": 121560,
     "Key": 36,
     "DurationMs": 175,
     "Vel": 80
    },
    {
     "TimeMs": 121561,
     "Key": 48,
     "DurationMs": 175,
     "Vel": 80
    },
    {
     "TimeMs": 121753,
     "Key": 74,
     "DurationMs": 175,
     "Vel": 80
    },
    {
     "TimeMs": 121753,
     "Key": 48,
     "DurationMs": 86,
     "Vel": 80
    },
    {
     "TimeMs": 121850,
     "Key": 52,
     "DurationMs": 87,
     "Vel": 80
    },
    {
     "TimeMs": 121947,
     "Key": 58,
     "DurationMs": 175,
     "Vel": 80
    },
    {
     "TimeMs": 121948,
     "Key": 64,
     "DurationMs": 175,
     "Vel": 80
    },
    {
     "TimeMs": 121949,
     "Key": 67,
     "DurationMs": 175,
     "Vel": 80
    },
    {
     "TimeMs": 121950,
     "Key": 55,
     "DurationMs": 175,
     "Vel": 80
    },
    {
     "TimeMs": 121951,
     "Key": 48,
     "DurationMs": 175,
     "Vel": 80
    },
    {
     "TimeMs": 122142,
     "Key": 65,
     "DurationMs": 175,
     "Vel": 80
    },
    {
     "TimeMs": 122143,
     "Key": 48,
     "DurationMs": 175,
     "Vel": 80
    },
    {
     "TimeMs": 122337,
     "Key": 60,
     "DurationMs": 350,
     "Vel": 80
    },
    {
     "TimeMs": 122338,
     "Key": 65,
     "DurationMs": 350,
     "Vel": 80
    },
    {
     "TimeMs": 122339,
     "Key": 69,
     "DurationMs": 350,
     "Vel": 80
    },
    {
     "TimeMs": 122339,
     "Key": 41,
     "DurationMs": 172,
     "Vel": 80
    },
    {
     "TimeMs": 122340,
     "Key": 53,
     "DurationMs": 172,
     "Vel": 80
    },
    {
     "TimeMs": 122532,
     "Key": 48,
     "DurationMs": 87,
     "Vel": 80
    },
    {
     "TimeMs": 122629,
     "Key": 48,
     "DurationMs": 87,
     "Vel": 80
    },
    {
     "TimeMs": 122727,
     "Key": 62,
     "DurationMs": 175,
     "Vel": 80
    },
    {
     "TimeMs": 122727,
     "Key": 57,
     "DurationMs": 175,
     "Vel": 80
    },
    {
     "TimeMs": 122728,
     "Key": 53,
     "DurationMs": 175,
     "Vel": 80
    },
    {
     "TimeMs": 122921,
     "Key": 65,
     "DurationMs": 175,
     "Vel": 80
    },
    {
     "TimeMs": 122922,
     "Key": 48,
     "DurationMs": 175,
     "Vel": 80
    },
    {
     "TimeMs": 123116,
     "Key": 57,
     "DurationMs": 262,
     "Vel": 80
    },
    {
     "TimeMs": 123117,
     "Key": 62,
     "DurationMs": 262,
     "Vel": 80
    },
    {
     "TimeMs": 123118,
     "Key": 67,
     "DurationMs": 262,
     "Vel": 80
    },
    {
     "TimeMs": 123119,
     "Key": 38,
     "DurationMs": 172,
     "Vel": 80
    },
    {
     "TimeMs": 123120,
     "Key": 50,
     "DurationMs": 172,
     "Vel": 80
    },
    {
     "TimeMs": 123311,
     "Key": 50,
     "DurationMs": 87,
     "Vel": 80
    },
    {
     "TimeMs": 123408,
     "Key": 62,
     "DurationMs": 262,
     "Vel": 80
    },
    {
     "TimeMs": 123409,
     "Key": 67,
     "DurationMs": 262,
     "Vel": 80
    },
    {
     "TimeMs": 123410,
     "Key": 53,
     "DurationMs": 86,
     "Vel": 80
    },
    {
     "TimeMs": 123506,
     "Key": 57,
     "DurationMs": 175,
     "Vel": 80
    },
    {
     "TimeMs": 123507,
     "Key": 50,
     "DurationMs": 175,
     "Vel": 80
    },
    {
     "TimeMs": 123701,
     "Key": 62,
     "DurationMs": 175,
     "Vel": 80
    },
    {
     "TimeMs": 123701,
     "Key": 65,
     "DurationMs": 175,
     "Vel": 80
    },
    {
     "TimeMs": 123702,
     "Key": 69,
     "DurationMs": 175,
     "Vel": 80
    },
    {
     "TimeMs": 123703,
     "Key": 50,
     "DurationMs": 175,
     "Vel": 80
    },
    {
     "TimeMs": 123895,
     "Key": 62,
     "DurationMs": 525,
     "Vel": 80
    },
    {
     "TimeMs": 123896,
     "Key": 65,
     "DurationMs": 525,
     "Vel": 80
    },
    {
     "TimeMs": 123897,
     "Key": 69,
     "DurationMs": 525,
     "Vel": 80
    },
    {
     "TimeMs": 123898,
     "Key": 34,
     "DurationMs": 172,
     "Vel": 80
    },
    {
     "TimeMs": 123899,
     "Key": 46,
     "DurationMs": 172,
     "Vel": 80
    },
    {
     "TimeMs": 124090,
     "Key": 50,
     "DurationMs": 87,
     "Vel": 80
    },
    {
     "TimeMs": 124188,
     "Key": 53,
     "DurationMs": 87,
     "Vel": 80
    },
    {
     "TimeMs": 124285,
     "Key": 58,
     "DurationMs": 175,
     "Vel": 80
    },
    {
     "TimeMs": 124286,
     "Key": 50,
     "DurationMs": 175,
     "Vel": 80
    },
    {
     "TimeMs": 124480,
     "Key": 69,
     "DurationMs": 175,
     "Vel": 80
    },
    {
     "TimeMs": 124481,
     "Key": 46,
     "DurationMs": 175,
     "Vel": 80
    },
    {
     "TimeMs": 124675,
     "Key": 64,
     "DurationMs": 175,
     "Vel": 80
    },
    {
     "TimeMs": 124676,
     "Key": 67,
     "DurationMs": 175,
     "Vel": 80
    },
    {
     "TimeMs": 124676,
     "Key": 70,
     "DurationMs": 175,
     "Vel": 80
    },
    {
     "TimeMs": 124677,
     "Key": 36,
     "DurationMs": 175,
     "Vel": 80
    },
    {
     "TimeMs": 124678,
     "Key": 48,
     "DurationMs": 175,
     "Vel": 80
    },
    {
     "TimeMs": 124870,
     "Key": 69,
     "DurationMs": 175,
     "Vel": 80
    },
    {
     "TimeMs": 124870,
     "Key": 48,
     "DurationMs": 86,
     "Vel": 80
    },
    {
     "TimeMs": 124967,
     "Key": 52,
     "DurationMs": 87,
     "Vel": 80
    },
    {
     "TimeMs": 125064,
     "Key": 58,
     "DurationMs": 175,
     "Vel": 80
    },
    {
     "TimeMs": 125065,
     "Key": 64,
     "DurationMs": 175,
     "Vel": 80
    },
    {
     "TimeMs": 125066,
     "Key": 67,
     "DurationMs": 175,
     "Vel": 80
    },
    {
     "TimeMs": 125067,
     "Key": 55,
     "DurationMs": 175,
     "Vel": 80
    },
    {
     "TimeMs": 125068,
     "Key": 48,
     "DurationMs": 175,
     "Vel": 80
    },
    {
     "TimeMs": 125259,
     "Key": 65,
     "DurationMs": 175,
     "Vel": 80
    },
    {
     "TimeMs": 125260,
     "Key": 48,
     "DurationMs": 175,
     "Vel": 80
    },
    {
     "TimeMs": 125454,
     "Key": 57,
     "DurationMs": 350,
     "Vel": 80
    },
    {
     "TimeMs": 125455,
     "Key": 60,
     "DurationMs": 350,
     "Vel": 80
    },
    {
     "TimeMs": 125456,
     "Key": 65,
     "DurationMs": 350,
     "Vel": 80
    },
    {
     "TimeMs": 125456,
     "Key": 41,
     "DurationMs": 172,
     "Vel": 80
    },
    {
     "TimeMs": 125457,
     "Key": 53,
     "DurationMs": 172,
     "Vel": 80
    },
    {
     "TimeMs": 125649,
     "Key": 48,
     "DurationMs": 87,
     "Vel": 80
    },
    {
     "TimeMs": 125746,
     "Key": 48,
     "DurationMs": 87,
     "Vel": 80
    },
    {
     "TimeMs": 125844,
     "Key": 57,
     "DurationMs": 175,
     "Vel": 80
    },
    {
     "TimeMs": 125844,
     "Key": 62,
     "DurationMs": 175,
     "Vel": 80
    },
    {
     "TimeMs": 125845,
     "Key": 41,
     "DurationMs": 175,
     "Vel": 80
    },
    {
     "TimeMs": 125846,
     "Key": 53,
     "DurationMs": 175,
     "Vel": 80
    },
    {
     "TimeMs": 126038,
     "Key": 65,
     "DurationMs": 175,
     "Vel": 80
    },
    {
     "TimeMs": 126039,
     "Key": 48,
     "DurationMs": 175,
     "Vel": 80
    },
    {
     "TimeMs": 126233,
     "Key": 57,
     "DurationMs": 262,
     "Vel": 80
    },
    {
     "TimeMs": 126234,
     "Key": 62,
     "DurationMs": 262,
     "Vel": 80
    },
    {
     "TimeMs": 126235,
     "Key": 67,
     "DurationMs": 262,
     "Vel": 80
    },
    {
     "TimeMs": 126236,
     "Key": 38,
     "DurationMs": 172,
     "Vel": 80
    },
    {
     "TimeMs": 126236,
     "Key": 50,
     "DurationMs": 172,
     "Vel": 80
    },
    {
     "TimeMs": 126428,
     "Key": 50,
     "DurationMs": 87,
     "Vel": 80
    },
    {
     "TimeMs": 126525,
     "Key": 62,
     "DurationMs": 262,
     "Vel": 80
    },
    {
     "TimeMs": 126526,
     "Key": 67,
     "DurationMs": 262,
     "Vel": 80
    },
    {
     "TimeMs": 126527,
     "Key": 53,
     "DurationMs": 86,
     "Vel": 80
    },
    {
     "TimeMs": 126623,
     "Key": 57,
     "DurationMs": 175,
     "Vel": 80
    },
    {
     "TimeMs": 126624,
     "Key": 50,
     "DurationMs": 175,
     "Vel": 80
    },
    {
     "TimeMs": 126818,
     "Key": 62,
     "DurationMs": 175,
     "Vel": 80
    },
    {
     "TimeMs": 126818,
     "Key": 65,
     "DurationMs": 175,
     "Vel": 80
    },
    {
     "TimeMs": 126819,
     "Key": 69,
     "DurationMs": 175,
     "Vel": 80
    },
    {
     "TimeMs": 126820,
     "Key": 50,
     "DurationMs": 175,
     "Vel": 80
    },
    {
     "TimeMs": 127012,
     "Key": 62,
     "DurationMs": 525,
     "Vel": 80
    },
    {
     "TimeMs": 127013,
     "Key": 65,
     "DurationMs": 525,
     "Vel": 80
    },
    {
     "TimeMs": 127014,
     "Key": 69,
     "DurationMs": 525,
     "Vel": 80
    },
    {
     "TimeMs": 127015,
     "Key": 34,
     "DurationMs": 172,
     "Vel": 80
    },
    {
     "TimeMs": 127016,
     "Key": 46,
     "DurationMs": 172,
     "Vel": 80
    },
    {
     "TimeMs": 127207,
     "Key": 50,
     "DurationMs": 87,
     "Vel": 80
    },
    {
     "TimeMs": 127305,
     "Key": 53,
     "DurationMs": 87,
     "Vel": 80
    },
    {
     "TimeMs": 127402,
     "Key": 58,
     "DurationMs": 175,
     "Vel": 80
    },
    {
     "TimeMs": 127403,
     "Key": 50,
     "DurationMs": 175,
     "Vel": 80
    },
    {
     "TimeMs": 127597,
     "Key": 69,
     "DurationMs": 175,
     "Vel": 80
    },
    {
     "TimeMs": 127598,
     "Key": 46,
     "DurationMs": 175,
     "Vel": 80
    },
    {
     "TimeMs": 127792,
     "Key": 64,
     "DurationMs": 175,
     "Vel": 80
    },
    {
     "TimeMs": 127792,
     "Key": 67,
     "DurationMs": 175,
     "Vel": 80
    },
    {
     "TimeMs": 127793,
     "Key": 72,
     "DurationMs": 175,
     "Vel": 80
    },
    {
     "TimeMs": 127794,
     "Key": 36,
     "DurationMs": 175,
     "Vel": 80
    },
    {
     "TimeMs": 127795,
     "Key": 48,
     "DurationMs": 175,
     "Vel": 80
    },
    {
     "TimeMs": 127986,
     "Key": 74,
     "DurationMs": 175,
     "Vel": 80
    },
    {
     "TimeMs": 127987,
     "Key": 48,
     "DurationMs": 86,
     "Vel": 80
    },
    {
     "TimeMs": 128084,
     "Key": 52,
     "DurationMs": 87,
     "Vel": 80
    },
    {
     "TimeMs": 128181,
     "Key": 58,
     "DurationMs": 175,
     "Vel": 80
    },
    {
     "TimeMs": 128182,
     "Key": 64,
     "DurationMs": 175,
     "Vel": 80
    },
    {
     "TimeMs": 128183,
     "Key": 67,
     "DurationMs": 175,
     "Vel": 80
    },
    {
     "TimeMs": 128184,
     "Key": 55,
     "DurationMs": 175,
     "Vel": 80
    },
    {
     "TimeMs": 128184,
     "Key": 48,
     "DurationMs": 175,
     "Vel": 80
    },
    {
     "TimeMs": 128376,
     "Key": 65,
     "DurationMs": 175,
     "Vel": 80
    },
    {
     "TimeMs": 128377,
     "Key": 48,
     "DurationMs": 175,
     "Vel": 80
    },
    {
     "TimeMs": 128571,
     "Key": 60,
     "DurationMs": 350,
     "Vel": 80
    },
    {
     "TimeMs": 128572,
     "Key": 65,
     "DurationMs": 350,
     "Vel": 80
    },
    {
     "TimeMs": 128572,
     "Key": 69,
     "DurationMs": 350,
     "Vel": 80
    },
    {
     "TimeMs": 128573,
     "Key": 41,
     "DurationMs": 172,
     "Vel": 80
    },
    {
     "TimeMs": 128574,
     "Key": 53,
     "DurationMs": 172,
     "Vel": 80
    },
    {
     "TimeMs": 128766,
     "Key": 48,
     "DurationMs": 87,
     "Vel": 80
    },
    {
     "TimeMs": 128863,
     "Key": 48,
     "DurationMs": 87,
     "Vel": 80
    },
    {
     "TimeMs": 128960,
     "Key": 62,
     "DurationMs": 175,
     "Vel": 80
    },
    {
     "TimeMs": 128961,
     "Key": 57,
     "DurationMs": 175,
     "Vel": 80
    },
    {
     "TimeMs": 128962,
     "Key": 53,
     "DurationMs": 175,
     "Vel": 80
    },
    {
     "TimeMs": 129155,
     "Key": 65,
     "DurationMs": 175,
     "Vel": 80
    },
    {
     "TimeMs": 129156,
     "Key": 48,
     "DurationMs": 175,
     "Vel": 80
    },
    {
     "TimeMs": 129350,
     "Key": 62,
     "DurationMs": 350,
     "Vel": 80
    },
    {
     "TimeMs": 129351,
     "Key": 65,
     "DurationMs": 350,
     "Vel": 80
    },
    {
     "TimeMs": 129352,
     "Key": 70,
     "DurationMs": 350,
     "Vel": 80
    },
    {
     "TimeMs": 129352,
     "Key": 34,
     "DurationMs": 172,
     "Vel": 80
    },
    {
     "TimeMs": 129353,
     "Key": 46,
     "DurationMs": 172,
     "Vel": 80
    },
    {
     "TimeMs": 129545,
     "Key": 50,
     "DurationMs": 87,
     "Vel": 80
    },
    {
     "TimeMs": 129642,
     "Key": 53,
     "DurationMs": 87,
     "Vel": 80
    },
    {
     "TimeMs": 129740,
     "Key": 62,
     "DurationMs": 350,
     "Vel": 80
    },
    {
     "TimeMs": 129740,
     "Key": 65,
     "DurationMs": 350,
     "Vel": 80
    },
    {
     "TimeMs": 129741,
     "Key": 69,
     "DurationMs": 350,
     "Vel": 80
    },
    {
     "TimeMs": 129742,
     "Key": 58,
     "DurationMs": 172,
     "Vel": 80
    },
    {
     "TimeMs": 129743,
     "Key": 46,
     "DurationMs": 172,
     "Vel": 80
    },
    {
     "TimeMs": 129934,
     "Key": 50,
     "DurationMs": 87,
     "Vel": 80
    },
    {
     "TimeMs": 130032,
     "Key": 53,
     "DurationMs": 87,
     "Vel": 80
    },
    {
     "TimeMs": 130129,
     "Key": 60,
     "DurationMs": 350,
     "Vel": 80
    },
    {
     "TimeMs": 130130,
     "Key": 64,
     "DurationMs": 350,
     "Vel": 80
    },
    {
     "TimeMs": 130131,
     "Key": 67,
     "DurationMs": 350,
     "Vel": 80
    },
    {
     "TimeMs": 130132,
     "Key": 33,
     "DurationMs": 172,
     "Vel": 80
    },
    {
     "TimeMs": 130132,
     "Key": 45,
     "DurationMs": 172,
     "Vel": 80
    },
    {
     "TimeMs": 130324,
     "Key": 48,
     "DurationMs": 87,
     "Vel": 80
    },
    {
     "TimeMs": 130421,
     "Key": 52,
     "DurationMs": 87,
     "Vel": 80
    },
    {
     "TimeMs": 130519,
     "Key": 60,
     "DurationMs": 350,
     "Vel": 80
    },
    {
     "TimeMs": 130520,
     "Key": 64,
     "DurationMs": 350,
     "Vel": 80
    },
    {
     "TimeMs": 130520,
     "Key": 65,
     "DurationMs": 350,
     "Vel": 80
    },
    {
     "TimeMs": 130521,
     "Key": 57,
     "DurationMs": 172,
     "Vel": 80
    },
    {
     "TimeMs": 130522,
     "Key": 45,
     "DurationMs": 172,
     "Vel": 80
    },
    {
     "TimeMs": 130714,
     "Key": 48,
     "DurationMs": 87,
     "Vel": 80
    },
    {
     "TimeMs": 130811,
     "Key": 52,
     "DurationMs": 87,
     "Vel": 80
    },
    {
     "TimeMs": 130908,
     "Key": 58,
     "DurationMs": 175,
     "Vel": 80
    },
    {
     "TimeMs": 130909,
     "Key": 62,
     "DurationMs": 175,
     "Vel": 80
    },
    {
     "TimeMs": 130910,
     "Key": 67,
     "DurationMs": 175,
     "Vel": 80
    },
    {
     "TimeMs": 130911,
     "Key": 34,
     "DurationMs": 193,
     "Vel": 80
    },
    {
     "TimeMs": 130912,
     "Key": 46,
     "DurationMs": 193,
     "Vel": 80
    },
    {
     "TimeMs": 131103,
     "Key": 69,
     "DurationMs": 175,
     "Vel": 80
    },
    {
     "TimeMs": 131106,
     "Key": 46,
     "DurationMs": 153,
     "Vel": 80
    },
    {
     "TimeMs": 131298,
     "Key": 58,
     "DurationMs": 175,
     "Vel": 80
    },
    {
     "TimeMs": 131299,
     "Key": 64,
     "DurationMs": 175,
     "Vel": 80
    },
    {
     "TimeMs": 131300,
     "Key": 36,
     "DurationMs": 193,
     "Vel": 80
    },
    {
     "TimeMs": 131301,
     "Key": 48,
     "DurationMs": 193,
     "Vel": 80
    },
    {
     "TimeMs": 131493,
     "Key": 60,
     "DurationMs": 175,
     "Vel": 80
    },
    {
     "TimeMs": 131495,
     "Key": 48,
     "DurationMs": 153,
     "Vel": 80
    },
    {
     "TimeMs": 131688,
     "Key": 53,
     "DurationMs": 350,
     "Vel": 80
    },
    {
     "TimeMs": 131688,
     "Key": 57,
     "DurationMs": 350,
     "Vel": 80
    },
    {
     "TimeMs": 131689,
     "Key": 62,
     "DurationMs": 350,
     "Vel": 80
    },
    {
     "TimeMs": 131690,
     "Key": 38,
     "DurationMs": 172,
     "Vel": 80
    },
    {
     "TimeMs": 131691,
     "Key": 50,
     "DurationMs": 172,
     "Vel": 80
    },
    {
     "TimeMs": 131882,
     "Key": 45,
     "DurationMs": 87,
     "Vel": 80
    },
    {
     "TimeMs": 131980,
     "Key": 50,
     "DurationMs": 87,
     "Vel": 80
    },
    {
     "TimeMs": 132077,
     "Key": 53,
     "DurationMs": 175,
     "Vel": 80
    },
    {
     "TimeMs": 132078,
     "Key": 57,
     "DurationMs": 175,
     "Vel": 80
    },
    {
     "TimeMs": 132079,
     "Key": 62,
     "DurationMs": 175,
     "Vel": 80
    },
    {
     "TimeMs": 132080,
     "Key": 38,
     "DurationMs": 175,
     "Vel": 80
    },
    {
     "TimeMs": 132272,
     "Key": 65,
     "DurationMs": 175,
     "Vel": 80
    },
    {
     "TimeMs": 132273,
     "Key": 50,
     "DurationMs": 175,
     "Vel": 80
    },
    {
     "TimeMs": 132467,
     "Key": 57,
     "DurationMs": 262,
     "Vel": 80
    },
    {
     "TimeMs": 132468,
     "Key": 62,
     "DurationMs": 262,
     "Vel": 80
    },
    {
     "TimeMs": 132469,
     "Key": 67,
     "DurationMs": 262,
     "Vel": 80
    },
    {
     "TimeMs": 132469,
     "Key": 38,
     "DurationMs": 172,
     "Vel": 80
    },
    {
     "TimeMs": 132470,
     "Key": 50,
     "DurationMs": 172,
     "Vel": 80
    },
    {
     "TimeMs": 132662,
     "Key": 50,
     "DurationMs": 87,
     "Vel": 80
    },
    {
     "TimeMs": 132759,
     "Key": 62,
     "DurationMs": 262,
     "Vel": 80
    },
    {
     "TimeMs": 132760,
     "Key": 67,
     "DurationMs": 262,
     "Vel": 80
    },
    {
     "TimeMs": 132761,
     "Key": 53,
     "DurationMs": 86,
     "Vel": 80
    },
    {
     "TimeMs": 132857,
     "Key": 57,
     "DurationMs": 175,
     "Vel": 80
    },
    {
     "TimeMs": 132857,
     "Key": 50,
     "DurationMs": 175,
     "Vel": 80
    },
    {
     "TimeMs": 133051,
     "Key": 62,
     "DurationMs": 175,
     "Vel": 80
    },
    {
     "TimeMs": 133052,
     "Key": 65,
     "DurationMs": 175,
     "Vel": 80
    },
    {
     "TimeMs": 133053,
     "Key": 69,
     "DurationMs": 175,
     "Vel": 80
    },
    {
     "TimeMs": 133054,
     "Key": 50,
     "DurationMs": 175,
     "Vel": 80
    },
    {
     "TimeMs": 133246,
     "Key": 62,
     "DurationMs": 525,
     "Vel": 80
    },
    {
     "TimeMs": 133247,
     "Key": 65,
     "DurationMs": 525,
     "Vel": 80
    },
    {
     "TimeMs": 133248,
     "Key": 69,
     "DurationMs": 525,
     "Vel": 80
    },
    {
     "TimeMs": 133249,
     "Key": 34,
     "DurationMs": 172,
     "Vel": 80
    },
    {
     "TimeMs": 133249,
     "Key": 46,
     "DurationMs": 172,
     "Vel": 80
    },
    {
     "TimeMs": 133441,
     "Key": 50,
     "DurationMs": 87,
     "Vel": 80
    },
    {
     "TimeMs": 133538,
     "Key": 53,
     "DurationMs": 87,
     "Vel": 80
    },
    {
     "TimeMs": 133636,
     "Key": 58,
     "DurationMs": 175,
     "Vel": 80
    },
    {
     "TimeMs": 133637,
     "Key": 50,
     "DurationMs": 175,
     "Vel": 80
    },
    {
     "TimeMs": 133831,
     "Key": 69,
     "DurationMs": 175,
     "Vel": 80
    },
    {
     "TimeMs": 133831,
     "Key": 46,
     "DurationMs": 175,
     "Vel": 80
    },
    {
     "TimeMs": 134025,
     "Key": 64,
     "DurationMs": 175,
     "Vel": 80
    },
    {
     "TimeMs": 134026,
     "Key": 67,
     "DurationMs": 175,
     "Vel": 80
    },
    {
     "TimeMs": 134027,
     "Key": 72,
     "DurationMs": 175,
     "Vel": 80
    },
    {
     "TimeMs": 134028,
     "Key": 36,
     "DurationMs": 175,
     "Vel": 80
    },
    {
     "TimeMs": 134029,
     "Key": 48,
     "DurationMs": 175,
     "Vel": 80
    },
    {
     "TimeMs": 134220,
     "Key": 74,
     "DurationMs": 175,
     "Vel": 80
    },
    {
     "TimeMs": 134221,
     "Key": 48,
     "DurationMs": 86,
     "Vel": 80
    },
    {
     "TimeMs": 134318,
     "Key": 52,
     "DurationMs": 87,
     "Vel": 80
    },
    {
     "TimeMs": 134415,
     "Key": 58,
     "DurationMs": 175,
     "Vel": 80
    },
    {
     "TimeMs": 134416,
     "Key": 64,
     "DurationMs": 175,
     "Vel": 80
    },
    {
     "TimeMs": 134417,
     "Key": 67,
     "DurationMs": 175,
     "Vel": 80
    },
    {
     "TimeMs": 134417,
     "Key": 55,
     "DurationMs": 175,
     "Vel": 80
    },
    {
     "TimeMs": 134418,
     "Key": 48,
     "DurationMs": 175,
     "Vel": 80
    },
    {
     "TimeMs": 134610,
     "Key": 65,
     "DurationMs": 175,
     "Vel": 80
    },
    {
     "TimeMs": 134611,
     "Key": 48,
     "DurationMs": 175,
     "Vel": 80
    },
    {
     "TimeMs": 134805,
     "Key": 60,
     "DurationMs": 350,
     "Vel": 80
    },
    {
     "TimeMs": 134805,
     "Key": 65,
     "DurationMs": 350,
     "Vel": 80
    },
    {
     "TimeMs": 134806,
     "Key": 69,
     "DurationMs": 350,
     "Vel": 80
    },
    {
     "TimeMs": 134807,
     "Key": 41,
     "DurationMs": 172,
     "Vel": 80
    },
    {
     "TimeMs": 134808,
     "Key": 53,
     "DurationMs": 172,
     "Vel": 80
    },
    {
     "TimeMs": 134999,
     "Key": 48,
     "DurationMs": 87,
     "Vel": 80
    },
    {
     "TimeMs": 135097,
     "Key": 48,
     "DurationMs": 87,
     "Vel": 80
    },
    {
     "TimeMs": 135194,
     "Key": 62,
     "DurationMs": 175,
     "Vel": 80
    },
    {
     "TimeMs": 135195,
     "Key": 57,
     "DurationMs": 175,
     "Vel": 80
    },
    {
     "TimeMs": 135196,
     "Key": 53,
     "DurationMs": 175,
     "Vel": 80
    },
    {
     "TimeMs": 135389,
     "Key": 65,
     "DurationMs": 175,
     "Vel": 80
    },
    {
     "TimeMs": 135390,
     "Key": 48,
     "DurationMs": 175,
     "Vel": 80
    },
    {
     "TimeMs": 135584,
     "Key": 57,
     "DurationMs": 262,
     "Vel": 80
    },
    {
     "TimeMs": 135585,
     "Key": 62,
     "DurationMs": 262,
     "Vel": 80
    },
    {
     "TimeMs": 135585,
     "Key": 67,
     "DurationMs": 262,
     "Vel": 80
    },
    {
     "TimeMs": 135586,
     "Key": 38,
     "DurationMs": 172,
     "Vel": 80
    },
    {
     "TimeMs": 135587,
     "Key": 50,
     "DurationMs": 172,
     "Vel": 80
    },
    {
     "TimeMs": 135779,
     "Key": 50,
     "DurationMs": 87,
     "Vel": 80
    },
    {
     "TimeMs": 135876,
     "Key": 62,
     "DurationMs": 262,
     "Vel": 80
    },
    {
     "TimeMs": 135877,
     "Key": 67,
     "DurationMs": 262,
     "Vel": 80
    },
    {
     "TimeMs": 135878,
     "Key": 53,
     "DurationMs": 86,
     "Vel": 80
    },
    {
     "TimeMs": 135973,
     "Key": 57,
     "DurationMs": 175,
     "Vel": 80
    },
    {
     "TimeMs": 135974,
     "Key": 50,
     "DurationMs": 175,
     "Vel": 80
    },
    {
     "TimeMs": 136168,
     "Key": 62,
     "DurationMs": 175,
     "Vel": 80
    },
    {
     "TimeMs": 136169,
     "Key": 65,
     "DurationMs": 175,
     "Vel": 80
    },
    {
     "TimeMs": 136170,
     "Key": 69,
     "DurationMs": 175,
     "Vel": 80
    },
    {
     "TimeMs": 136171,
     "Key": 50,
     "DurationMs": 175,
     "Vel": 80
    },
    {
     "TimeMs": 136363,
     "Key": 62,
     "DurationMs": 525,
     "Vel": 80
    },
    {
     "TimeMs": 136364,
     "Key": 65,
     "DurationMs": 525,
     "Vel": 80
    },
    {
     "TimeMs": 136365,
     "Key": 69,
     "DurationMs": 525,
     "Vel": 80
    },
    {
     "TimeMs": 136365,
     "Key": 34,
     "DurationMs": 172,
     "Vel": 80
    },
    {
     "TimeMs": 136366,
     "Key": 46,
     "DurationMs": 172,
     "Vel": 80
    },
    {
     "TimeMs": 136558,
     "Key": 50,
     "DurationMs": 87,
     "Vel": 80
    },
    {
     "TimeMs": 136655,
     "Key": 53,
     "DurationMs": 87,
     "Vel": 80
    },
    {
     "TimeMs": 136753,
     "Key": 58,
     "DurationMs": 175,
     "Vel": 80
    },
    {
     "TimeMs": 136753,
     "Key": 50,
     "DurationMs": 175,
     "Vel": 80
    },
    {
     "TimeMs": 136947,
     "Key": 69,
     "DurationMs": 175,
     "Vel": 80
    },
    {
     "TimeMs": 136948,
     "Key": 46,
     "DurationMs": 175,
     "Vel": 80
    },
    {
     "TimeMs": 137142,
     "Key": 64,
     "DurationMs": 175,
     "Vel": 80
    },
    {
     "TimeMs": 137143,
     "Key": 67,
     "DurationMs": 175,
     "Vel": 80
    },
    {
     "TimeMs": 137144,
     "Key": 70,
     "DurationMs": 175,
     "Vel": 80
    },
    {
     "TimeMs": 137145,
     "Key": 36,
     "DurationMs": 175,
     "Vel": 80
    },
    {
     "TimeMs": 137145,
     "Key": 48,
     "DurationMs": 175,
     "Vel": 80
    },
    {
     "TimeMs": 137337,
     "Key": 69,
     "DurationMs": 175,
     "Vel": 80
    },
    {
     "TimeMs": 137338,
     "Key": 48,
     "DurationMs": 86,
     "Vel": 80
    },
    {
     "TimeMs": 137434,
     "Key": 52,
     "DurationMs": 87,
     "Vel": 80
    },
    {
     "TimeMs": 137532,
     "Key": 58,
     "DurationMs": 175,
     "Vel": 80
    },
    {
     "TimeMs": 137533,
     "Key": 64,
     "DurationMs": 175,
     "Vel": 80
    },
    {
     "TimeMs": 137533,
     "Key": 67,
     "DurationMs": 175,
     "Vel": 80
    },
    {
     "TimeMs": 137534,
     "Key": 55,
     "DurationMs": 175,
     "Vel": 80
    },
    {
     "TimeMs": 137535,
     "Key": 48,
     "DurationMs": 175,
     "Vel": 80
    },
    {
     "TimeMs": 137727,
     "Key": 65,
     "DurationMs": 175,
     "Vel": 80
    },
    {
     "TimeMs": 137727,
     "Key": 48,
     "DurationMs": 175,
     "Vel": 80
    },
    {
     "TimeMs": 137921,
     "Key": 57,
     "DurationMs": 350,
     "Vel": 80
    },
    {
     "TimeMs": 137922,
     "Key": 60,
     "DurationMs": 350,
     "Vel": 80
    },
    {
     "TimeMs": 137923,
     "Key": 65,
     "DurationMs": 350,
     "Vel": 80
    },
    {
     "TimeMs": 137924,
     "Key": 41,
     "DurationMs": 172,
     "Vel": 80
    },
    {
     "TimeMs": 137925,
     "Key": 53,
     "DurationMs": 172,
     "Vel": 80
    },
    {
     "TimeMs": 138116,
     "Key": 48,
     "DurationMs": 87,
     "Vel": 80
    },
    {
     "TimeMs": 138214,
     "Key": 48,
     "DurationMs": 87,
     "Vel": 80
    },
    {
     "TimeMs": 138311,
     "Key": 57,
     "DurationMs": 175,
     "Vel": 80
    },
    {
     "TimeMs": 138312,
     "Key": 62,
     "DurationMs": 175,
     "Vel": 80
    },
    {
     "TimeMs": 138313,
     "Key": 41,
     "DurationMs": 175,
     "Vel": 80
    },
    {
     "TimeMs": 138313,
     "Key": 53,
     "DurationMs": 175,
     "Vel": 80
    },
    {
     "TimeMs": 138506,
     "Key": 65,
     "DurationMs": 175,
     "Vel": 80
    },
    {
     "TimeMs": 138507,
     "Key": 48,
     "DurationMs": 175,
     "Vel": 80
    },
    {
     "TimeMs": 138701,
     "Key": 57,
     "DurationMs": 262,
     "Vel": 80
    },
    {
     "TimeMs": 138701,
     "Key": 62,
     "DurationMs": 262,
     "Vel": 80
    },
    {
     "TimeMs": 138702,
     "Key": 67,
     "DurationMs": 262,
     "Vel": 80
    },
    {
     "TimeMs": 138703,
     "Key": 38,
     "DurationMs": 172,
     "Vel": 80
    },
    {
     "TimeMs": 138704,
     "Key": 50,
     "DurationMs": 172,
     "Vel": 80
    },
    {
     "TimeMs": 138895,
     "Key": 50,
     "DurationMs": 87,
     "Vel": 80
    },
    {
     "TimeMs": 138993,
     "Key": 62,
     "DurationMs": 262,
     "Vel": 80
    },
    {
     "TimeMs": 138994,
     "Key": 67,
     "DurationMs": 262,
     "Vel": 80
    },
    {
     "TimeMs": 138994,
     "Key": 53,
     "DurationMs": 86,
     "Vel": 80
    },
    {
     "TimeMs": 139090,
     "Key": 57,
     "DurationMs": 175,
     "Vel": 80
    },
    {
     "TimeMs": 139091,
     "Key": 50,
     "DurationMs": 175,
     "Vel": 80
    },
    {
     "TimeMs": 139285,
     "Key": 62,
     "DurationMs": 175,
     "Vel": 80
    },
    {
     "TimeMs": 139286,
     "Key": 65,
     "DurationMs": 175,
     "Vel": 80
    },
    {
     "TimeMs": 139287,
     "Key": 69,
     "DurationMs": 175,
     "Vel": 80
    },
    {
     "TimeMs": 139288,
     "Key": 50,
     "DurationMs": 175,
     "Vel": 80
    },
    {
     "TimeMs": 139480,
     "Key": 62,
     "DurationMs": 525,
     "Vel": 80
    },
    {
     "TimeMs": 139481,
     "Key": 65,
     "DurationMs": 525,
     "Vel": 80
    },
    {
     "TimeMs": 139482,
     "Key": 69,
     "DurationMs": 525,
     "Vel": 80
    },
    {
     "TimeMs": 139482,
     "Key": 34,
     "DurationMs": 172,
     "Vel": 80
    },
    {
     "TimeMs": 139483,
     "Key": 46,
     "DurationMs": 172,
     "Vel": 80
    },
    {
     "TimeMs": 139675,
     "Key": 50,
     "DurationMs": 87,
     "Vel": 80
    },
    {
     "TimeMs": 139772,
     "Key": 53,
     "DurationMs": 87,
     "Vel": 80
    },
    {
     "TimeMs": 139869,
     "Key": 58,
     "DurationMs": 175,
     "Vel": 80
    },
    {
     "TimeMs": 139870,
     "Key": 50,
     "DurationMs": 175,
     "Vel": 80
    },
    {
     "TimeMs": 140064,
     "Key": 69,
     "DurationMs": 175,
     "Vel": 80
    },
    {
     "TimeMs": 140065,
     "Key": 46,
     "DurationMs": 175,
     "Vel": 80
    },
    {
     "TimeMs": 140259,
     "Key": 64,
     "DurationMs": 175,
     "Vel": 80
    },
    {
     "TimeMs": 140260,
     "Key": 67,
     "DurationMs": 175,
     "Vel": 80
    },
    {
     "TimeMs": 140261,
     "Key": 72,
     "DurationMs": 175,
     "Vel": 80
    },
    {
     "TimeMs": 140262,
     "Key": 36,
     "DurationMs": 175,
     "Vel": 80
    },
    {
     "TimeMs": 140262,
     "Key": 48,
     "DurationMs": 175,
     "Vel": 80
    },
    {
     "TimeMs": 140454,
     "Key": 74,
     "DurationMs": 175,
     "Vel": 80
    },
    {
     "TimeMs": 140455,
     "Key": 48,
     "DurationMs": 86,
     "Vel": 80
    },
    {
     "TimeMs": 140551,
     "Key": 52,
     "DurationMs": 87,
     "Vel": 80
    },
    {
     "TimeMs": 140649,
     "Key": 58,
     "DurationMs": 175,
     "Vel": 80
    },
    {
     "TimeMs": 140650,
     "Key": 64,
     "DurationMs": 175,
     "Vel": 80
    },
    {
     "TimeMs": 140650,
     "Key": 67,
     "DurationMs": 175,
     "Vel": 80
    },
    {
     "TimeMs": 140651,
     "Key": 55,
     "DurationMs": 175,
     "Vel": 80
    },
    {
     "TimeMs": 140652,
     "Key": 48,
     "DurationMs": 175,
     "Vel": 80
    },
    {
     "TimeMs": 140844,
     "Key": 65,
     "DurationMs": 175,
     "Vel": 80
    },
    {
     "TimeMs": 140844,
     "Key": 48,
     "DurationMs": 175,
     "Vel": 80
    },
    {
     "TimeMs": 141038,
     "Key": 60,
     "DurationMs": 350,
     "Vel": 80
    },
    {
     "TimeMs": 141039,
     "Key": 65,
     "DurationMs": 350,
     "Vel": 80
    },
    {
     "TimeMs": 141040,
     "Key": 69,
     "DurationMs": 350,
     "Vel": 80
    },
    {
     "TimeMs": 141041,
     "Key": 41,
     "DurationMs": 172,
     "Vel": 80
    },
    {
     "TimeMs": 141042,
     "Key": 53,
     "DurationMs": 172,
     "Vel": 80
    },
    {
     "TimeMs": 141233,
     "Key": 48,
     "DurationMs": 87,
     "Vel": 80
    },
    {
     "TimeMs": 141331,
     "Key": 48,
     "DurationMs": 87,
     "Vel": 80
    },
    {
     "TimeMs": 141428,
     "Key": 62,
     "DurationMs": 175,
     "Vel": 80
    },
    {
     "TimeMs": 141429,
     "Key": 57,
     "DurationMs": 175,
     "Vel": 80
    },
    {
     "TimeMs": 141430,
     "Key": 53,
     "DurationMs": 175,
     "Vel": 80
    },
    {
     "TimeMs": 141623,
     "Key": 65,
     "DurationMs": 175,
     "Vel": 80
    },
    {
     "TimeMs": 141624,
     "Key": 48,
     "DurationMs": 175,
     "Vel": 80
    },
    {
     "TimeMs": 141818,
     "Key": 62,
     "DurationMs": 350,
     "Vel": 80
    },
    {
     "TimeMs": 141818,
     "Key": 65,
     "DurationMs": 350,
     "Vel": 80
    },
    {
     "TimeMs": 141819,
     "Key": 70,
     "DurationMs": 350,
     "Vel": 80
    },
    {
     "TimeMs": 141820,
     "Key": 34,
     "DurationMs": 172,
     "Vel": 80
    },
    {
     "TimeMs": 141821,
     "Key": 46,
     "DurationMs": 172,
     "Vel": 80
    },
    {
     "TimeMs": 142012,
     "Key": 50,
     "DurationMs": 87,
     "Vel": 80
    },
    {
     "TimeMs": 142110,
     "Key": 53,
     "DurationMs": 87,
     "Vel": 80
    },
    {
     "TimeMs": 142207,
     "Key": 62,
     "DurationMs": 350,
     "Vel": 80
    },
    {
     "TimeMs": 142208,
     "Key": 65,
     "DurationMs": 350,
     "Vel": 80
    },
    {
     "TimeMs": 142209,
     "Key": 69,
     "DurationMs": 350,
     "Vel": 80
    },
    {
     "TimeMs": 142210,
     "Key": 58,
     "DurationMs": 172,
     "Vel": 80
    },
    {
     "TimeMs": 142210,
     "Key": 46,
     "DurationMs": 172,
     "Vel": 80
    },
    {
     "TimeMs": 142402,
     "Key": 50,
     "DurationMs": 87,
     "Vel": 80
    },
    {
     "TimeMs": 142499,
     "Key": 53,
     "DurationMs": 87,
     "Vel": 80
    },
    {
     "TimeMs": 142597,
     "Key": 60,
     "DurationMs": 350,
     "Vel": 80
    },
    {
     "TimeMs": 142598,
     "Key": 64,
     "DurationMs": 350,
     "Vel": 80
    },
    {
     "TimeMs": 142598,
     "Key": 67,
     "DurationMs": 350,
     "Vel": 80
    },
    {
     "TimeMs": 142599,
     "Key": 33,
     "DurationMs": 172,
     "Vel": 80
    },
    {
     "TimeMs": 142600,
     "Key": 45,
     "DurationMs": 172,
     "Vel": 80
    },
    {
     "TimeMs": 142792,
     "Key": 48,
     "DurationMs": 87,
     "Vel": 80
    },
    {
     "TimeMs": 142889,
     "Key": 52,
     "DurationMs": 87,
     "Vel": 80
    },
    {
     "TimeMs": 142986,
     "Key": 60,
     "DurationMs": 350,
     "Vel": 80
    },
    {
     "TimeMs": 142987,
     "Key": 64,
     "DurationMs": 350,
     "Vel": 80
    },
    {
     "TimeMs": 142988,
     "Key": 65,
     "DurationMs": 350,
     "Vel": 80
    },
    {
     "TimeMs": 142989,
     "Key": 57,
     "DurationMs": 172,
     "Vel": 80
    },
    {
     "TimeMs": 142990,
     "Key": 45,
     "DurationMs": 172,
     "Vel": 80
    },
    {
     "TimeMs": 143181,
     "Key": 48,
     "DurationMs": 87,
     "Vel": 80
    },
    {
     "TimeMs": 143279,
     "Key": 52,
     "DurationMs": 87,
     "Vel": 80
    },
    {
     "TimeMs": 143376,
     "Key": 58,
     "DurationMs": 175,
     "Vel": 80
    },
    {
     "TimeMs": 143377,
     "Key": 62,
     "DurationMs": 175,
     "Vel": 80
    },
    {
     "TimeMs": 143378,
     "Key": 67,
     "DurationMs": 175,
     "Vel": 80
    },
    {
     "TimeMs": 143378,
     "Key": 34,
     "DurationMs": 193,
     "Vel": 80
    },
    {
     "TimeMs": 143379,
     "Key": 46,
     "DurationMs": 193,
     "Vel": 80
    },
    {
     "TimeMs": 143571,
     "Key": 65,
     "DurationMs": 175,
     "Vel": 80
    },
    {
     "TimeMs": 143573,
     "Key": 46,
     "DurationMs": 153,
     "Vel": 80
    },
    {
     "TimeMs": 143766,
     "Key": 60,
     "DurationMs": 175,
     "Vel": 80
    },
    {
     "TimeMs": 143766,
     "Key": 64,
     "DurationMs": 175,
     "Vel": 80
    },
    {
     "TimeMs": 143767,
     "Key": 69,
     "DurationMs": 175,
     "Vel": 80
    },
    {
     "TimeMs": 143768,
     "Key": 36,
     "DurationMs": 193,
     "Vel": 80
    },
    {
     "TimeMs": 143769,
     "Key": 48,
     "DurationMs": 193,
     "Vel": 80
    },
    {
     "TimeMs": 143960,
     "Key": 72,
     "DurationMs": 175,
     "Vel": 80
    },
    {
     "TimeMs": 143963,
     "Key": 48,
     "DurationMs": 153,
     "Vel": 80
    },
    {
     "TimeMs": 144155,
     "Key": 65,
     "DurationMs": 350,
     "Vel": 80
    },
    {
     "TimeMs": 144156,
     "Key": 69,
     "DurationMs": 350,
     "Vel": 80
    },
    {
     "TimeMs": 144157,
     "Key": 74,
     "DurationMs": 350,
     "Vel": 80
    },
    {
     "TimeMs": 144158,
     "Key": 38,
     "DurationMs": 172,
     "Vel": 80
    },
    {
     "TimeMs": 144158,
     "Key": 50,
     "DurationMs": 172,
     "Vel": 80
    },
    {
     "TimeMs": 144350,
     "Key": 45,
     "DurationMs": 87,
     "Vel": 80
    },
    {
     "TimeMs": 144447,
     "Key": 45,
     "DurationMs": 87,
     "Vel": 80
    },
    {
     "TimeMs": 144545,
     "Key": 53,
     "DurationMs": 350,
     "Vel": 80
    },
    {
     "TimeMs": 144546,
     "Key": 57,
     "DurationMs": 350,
     "Vel": 80
    },
    {
     "TimeMs": 144546,
     "Key": 38,
     "DurationMs": 173,
     "Vel": 80
    },
    {
     "TimeMs": 144547,
     "Key": 50,
     "DurationMs": 173,
     "Vel": 80
    },
    {
     "TimeMs": 144740,
     "Key": 38,
     "DurationMs": 175,
     "Vel": 80
    },
    {
     "TimeMs": 144740,
     "Key": 50,
     "DurationMs": 175,
     "Vel": 80
    },
    {
     "TimeMs": 144898,
     "Key": 85,
     "DurationMs": 43,
     "Vel": 80
    },
    {
     "TimeMs": 144934,
     "Key": 86,
     "DurationMs": 175,
     "Vel": 80
    },
    {
     "TimeMs": 144935,
     "Key": 81,
     "DurationMs": 175,
     "Vel": 80
    },
    {
     "TimeMs": 144936,
     "Key": 50,
     "DurationMs": 699,
     "Vel": 80
    },
    {
     "TimeMs": 144952,
     "Key": 57,
     "DurationMs": 701,
     "Vel": 80
    },
    {
     "TimeMs": 144971,
     "Key": 62,
     "DurationMs": 701,
     "Vel": 80
    },
    {
     "TimeMs": 144989,
     "Key": 65,
     "DurationMs": 701,
     "Vel": 80
    },
    {
     "TimeMs": 145129,
     "Key": 86,
     "DurationMs": 175,
     "Vel": 80
    },
    {
     "TimeMs": 145130,
     "Key": 81,
     "DurationMs": 175,
     "Vel": 80
    },
    {
     "TimeMs": 145324,
     "Key": 86,
     "DurationMs": 175,
     "Vel": 80
    },
    {
     "TimeMs": 145325,
     "Key": 81,
     "DurationMs": 175,
     "Vel": 80
    },
    {
     "TimeMs": 145519,
     "Key": 86,
     "DurationMs": 175,
     "Vel": 80
    },
    {
     "TimeMs": 145520,
     "Key": 81,
     "DurationMs": 175,
     "Vel": 80
    },
    {
     "TimeMs": 145714,
     "Key": 86,
     "DurationMs": 175,
     "Vel": 80
    },
    {
     "TimeMs": 145714,
     "Key": 81,
     "DurationMs": 175,
     "Vel": 80
    },
    {
     "TimeMs": 145715,
     "Key": 46,
     "DurationMs": 699,
     "Vel": 80
    },
    {
     "TimeMs": 145730,
     "Key": 53,
     "DurationMs": 701,
     "Vel": 80
    },
    {
     "TimeMs": 145746,
     "Key": 58,
     "DurationMs": 701,
     "Vel": 80
    },
    {
     "TimeMs": 145762,
     "Key": 62,
     "DurationMs": 701,
     "Vel": 80
    },
    {
     "TimeMs": 145908,
     "Key": 86,
     "DurationMs": 175,
     "Vel": 80
    },
    {
     "TimeMs": 145909,
     "Key": 81,
     "DurationMs": 175,
     "Vel": 80
    },
    {
     "TimeMs": 146103,
     "Key": 86,
     "DurationMs": 87,
     "Vel": 80
    },
    {
     "TimeMs": 146104,
     "Key": 81,
     "DurationMs": 87,
     "Vel": 80
    },
    {
     "TimeMs": 146201,
     "Key": 84,
     "DurationMs": 87,
     "Vel": 80
    },
    {
     "TimeMs": 146298,
     "Key": 81,
     "DurationMs": 175,
     "Vel": 80
    },
    {
     "TimeMs": 146456,
     "Key": 77,
     "DurationMs": 43,
     "Vel": 80
    },
    {
     "TimeMs": 146493,
     "Key": 79,
     "DurationMs": 175,
     "Vel": 80
    },
    {
     "TimeMs": 146494,
     "Key": 74,
     "DurationMs": 175,
     "Vel": 80
    },
    {
     "TimeMs": 146494,
     "Key": 48,
     "DurationMs": 699,
     "Vel": 80
    },
    {
     "TimeMs": 146509,
     "Key": 55,
     "DurationMs": 701,
     "Vel": 80
    },
    {
     "TimeMs": 146525,
     "Key": 60,
     "DurationMs": 701,
     "Vel": 80
    },
    {
     "TimeMs": 146542,
     "Key": 62,
     "DurationMs": 701,
     "Vel": 80
    },
    {
     "TimeMs": 146688,
     "Key": 79,
     "DurationMs": 175,
     "Vel": 80
    },
    {
     "TimeMs": 146688,
     "Key": 74,
     "DurationMs": 175,
     "Vel": 80
    },
    {
     "TimeMs": 146882,
     "Key": 79,
     "DurationMs": 175,
     "Vel": 80
    },
    {
     "TimeMs": 146883,
     "Key": 74,
     "DurationMs": 175,
     "Vel": 80
    },
    {
     "TimeMs": 147077,
     "Key": 79,
     "DurationMs": 175,
     "Vel": 80
    },
    {
     "TimeMs": 147078,
     "Key": 74,
     "DurationMs": 175,
     "Vel": 80
    },
    {
     "TimeMs": 147272,
     "Key": 79,
     "DurationMs": 175,
     "Vel": 80
    },
    {
     "TimeMs": 147273,
     "Key": 74,
     "DurationMs": 175,
     "Vel": 80
    },
    {
     "TimeMs": 147274,
     "Key": 50,
     "DurationMs": 699,
     "Vel": 80
    },
    {
     "TimeMs": 147288,
     "Key": 57,
     "DurationMs": 701,
     "Vel": 80
    },
    {
     "TimeMs": 147305,
     "Key": 62,
     "DurationMs": 701,
     "Vel": 80
    },
    {
     "TimeMs": 147467,
     "Key": 79,
     "DurationMs": 175,
     "Vel": 80
    },
    {
     "TimeMs": 147468,
     "Key": 74,
     "DurationMs": 175,
     "Vel": 80
    },
    {
     "TimeMs": 147662,
     "Key": 79,
     "DurationMs": 87,
     "Vel": 80
    },
    {
     "TimeMs": 147663,
     "Key": 74,
     "DurationMs": 87,
     "Vel": 80
    },
    {
     "TimeMs": 147759,
     "Key": 77,
     "DurationMs": 87,
     "Vel": 80
    },
    {
     "TimeMs": 147856,
     "Key": 74,
     "DurationMs": 175,
     "Vel": 80
    },
    {
     "TimeMs": 148051,
     "Key": 74,
     "DurationMs": 175,
     "Vel": 80
    },
    {
     "TimeMs": 148052,
     "Key": 69,
     "DurationMs": 175,
     "Vel": 80
    },
    {
     "TimeMs": 148053,
     "Key": 50,
     "DurationMs": 699,
     "Vel": 80
    },
    {
     "TimeMs": 148069,
     "Key": 53,
     "DurationMs": 701,
     "Vel": 80
    },
    {
     "TimeMs": 148088,
     "Key": 57,
     "DurationMs": 701,
     "Vel": 80
    },
    {
     "TimeMs": 148106,
     "Key": 62,
     "DurationMs": 701,
     "Vel": 80
    },
    {
     "TimeMs": 148246,
     "Key": 74,
     "DurationMs": 175,
     "Vel": 80
    },
    {
     "TimeMs": 148247,
     "Key": 69,
     "DurationMs": 175,
     "Vel": 80
    },
    {
     "TimeMs": 148441,
     "Key": 74,
     "DurationMs": 175,
     "Vel": 80
    },
    {
     "TimeMs": 148442,
     "Key": 73,
     "DurationMs": 175,
     "Vel": 80
    },
    {
     "TimeMs": 148443,
     "Key": 69,
     "DurationMs": 175,
     "Vel": 80
    },
    {
     "TimeMs": 148636,
     "Key": 74,
     "DurationMs": 175,
     "Vel": 80
    },
    {
     "TimeMs": 148637,
     "Key": 69,
     "DurationMs": 175,
     "Vel": 80
    },
    {
     "TimeMs": 148831,
     "Key": 74,
     "DurationMs": 175,
     "Vel": 80
    },
    {
     "TimeMs": 148831,
     "Key": 69,
     "DurationMs": 175,
     "Vel": 80
    },
    {
     "TimeMs": 148832,
     "Key": 46,
     "DurationMs": 699,
     "Vel": 80
    },
    {
     "TimeMs": 148847,
     "Key": 50,
     "DurationMs": 701,
     "Vel": 80
    },
    {
     "TimeMs": 148863,
     "Key": 53,
     "DurationMs": 701,
     "Vel": 80
    },
    {
     "TimeMs": 148879,
     "Key": 58,
     "DurationMs": 701,
     "Vel": 80
    },
    {
     "TimeMs": 149025,
     "Key": 74,
     "DurationMs": 175,
     "Vel": 80
    },
    {
     "TimeMs": 149026,
     "Key": 69,
     "DurationMs": 175,
     "Vel": 80
    },
    {
     "TimeMs": 149220,
     "Key": 74,
     "DurationMs": 87,
     "Vel": 80
    },
    {
     "TimeMs": 149221,
     "Key": 69,
     "DurationMs": 87,
     "Vel": 80
    },
    {
     "TimeMs": 149318,
     "Key": 72,
     "DurationMs": 87,
     "Vel": 80
    },
    {
     "TimeMs": 149415,
     "Key": 69,
     "DurationMs": 175,
     "Vel": 80
    },
    {
     "TimeMs": 149610,
     "Key": 67,
     "DurationMs": 175,
     "Vel": 80
    },
    {
     "TimeMs": 149611,
     "Key": 36,
     "DurationMs": 175,
     "Vel": 80
    },
    {
     "TimeMs": 149611,
     "Key": 48,
     "DurationMs": 175,
     "Vel": 80
    },
    {
     "TimeMs": 149805,
     "Key": 69,
     "DurationMs": 87,
     "Vel": 80
    },
    {
     "TimeMs": 149805,
     "Key": 48,
     "DurationMs": 174,
     "Vel": 80
    },
    {
     "TimeMs": 149902,
     "Key": 67,
     "DurationMs": 87,
     "Vel": 80
    },
    {
     "TimeMs": 149999,
     "Key": 69,
     "DurationMs": 87,
     "Vel": 80
    },
    {
     "TimeMs": 150000,
     "Key": 52,
     "DurationMs": 174,
     "Vel": 80
    },
    {
     "TimeMs": 150001,
     "Key": 55,
     "DurationMs": 174,
     "Vel": 80
    },
    {
     "TimeMs": 150002,
     "Key": 60,
     "DurationMs": 174,
     "Vel": 80
    },
    {
     "TimeMs": 150097,
     "Key": 72,
     "DurationMs": 87,
     "Vel": 80
    },
    {
     "TimeMs": 150194,
     "Key": 73,
     "DurationMs": 87,
     "Vel": 80
    },
    {
     "TimeMs": 150195,
     "Key": 48,
     "DurationMs": 174,
     "Vel": 80
    },
    {
     "TimeMs": 150292,
     "Key": 74,
     "DurationMs": 87,
     "Vel": 80
    },
    {
     "TimeMs": 150389,
     "Key": 76,
     "DurationMs": 87,
     "Vel": 80
    },
    {
     "TimeMs": 150390,
     "Key": 37,
     "DurationMs": 146,
     "Vel": 80
    },
    {
     "TimeMs": 150391,
     "Key": 49,
     "DurationMs": 146,
     "Vel": 80
    },
    {
     "TimeMs": 150486,
     "Key": 79,
     "DurationMs": 43,
     "Vel": 80
    },
    {
     "TimeMs": 150535,
     "Key": 81,
     "DurationMs": 43,
     "Vel": 80
    },
    {
     "TimeMs": 150537,
     "Key": 49,
     "DurationMs": 42,
     "Vel": 80
    },
    {
     "TimeMs": 150584,
     "Key": 86,
     "DurationMs": 87,
     "Vel": 80
    },
    {
     "TimeMs": 150585,
     "Key": 52,
     "DurationMs": 174,
     "Vel": 80
    },
    {
     "TimeMs": 150585,
     "Key": 55,
     "DurationMs": 174,
     "Vel": 80
    },
    {
     "TimeMs": 150586,
     "Key": 61,
     "DurationMs": 174,
     "Vel": 80
    },
    {
     "TimeMs": 150681,
     "Key": 89,
     "DurationMs": 87,
     "Vel": 80
    },
    {
     "TimeMs": 150779,
     "Key": 88,
     "DurationMs": 175,
     "Vel": 80
    },
    {
     "TimeMs": 150779,
     "Key": 76,
     "DurationMs": 175,
     "Vel": 80
    },
    {
     "TimeMs": 150780,
     "Key": 49,
     "DurationMs": 86,
     "Vel": 80
    },
    {
     "TimeMs": 150876,
     "Key": 61,
     "DurationMs": 87,
     "Vel": 80
    },
    {
     "TimeMs": 150877,
     "Key": 58,
     "DurationMs": 87,
     "Vel": 80
    },
    {
     "TimeMs": 150878,
     "Key": 55,
     "DurationMs": 87,
     "Vel": 80
    },
    {
     "TimeMs": 150973,
     "Key": 86,
     "DurationMs": 87,
     "Vel": 80
    },
    {
     "TimeMs": 150974,
     "Key": 74,
     "DurationMs": 87,
     "Vel": 80
    },
    {
     "TimeMs": 150975,
     "Key": 49,
     "DurationMs": 173,
     "Vel": 80
    },
    {
     "TimeMs": 151071,
     "Key": 88,
     "DurationMs": 87,
     "Vel": 80
    },
    {
     "TimeMs": 151072,
     "Key": 76,
     "DurationMs": 87,
     "Vel": 80
    },
    {
     "TimeMs": 151168,
     "Key": 81,
     "DurationMs": 87,
     "Vel": 80
    },
    {
     "TimeMs": 151169,
     "Key": 50,
     "DurationMs": 174,
     "Vel": 80
    },
    {
     "TimeMs": 151170,
     "Key": 38,
     "DurationMs": 174,
     "Vel": 80
    },
    {
     "TimeMs": 151266,
     "Key": 77,
     "DurationMs": 87,
     "Vel": 80
    },
    {
     "TimeMs": 151363,
     "Key": 74,
     "DurationMs": 87,
     "Vel": 80
    },
    {
     "TimeMs": 151364,
     "Key": 62,
     "DurationMs": 174,
     "Vel": 80
    },
    {
     "TimeMs": 151365,
     "Key": 57,
     "DurationMs": 174,
     "Vel": 80
    },
    {
     "TimeMs": 151365,
     "Key": 53,
     "DurationMs": 174,
     "Vel": 80
    },
    {
     "TimeMs": 151460,
     "Key": 81,
     "DurationMs": 185,
     "Vel": 80
    },
    {
     "TimeMs": 151558,
     "Key": 50,
     "DurationMs": 175,
     "Vel": 80
    },
    {
     "TimeMs": 151655,
     "Key": 81,
     "DurationMs": 87,
     "Vel": 80
    },
    {
     "TimeMs": 151753,
     "Key": 77,
     "DurationMs": 87,
     "Vel": 80
    },
    {
     "TimeMs": 151753,
     "Key": 62,
     "DurationMs": 174,
     "Vel": 80
    },
    {
     "TimeMs": 151754,
     "Key": 57,
     "DurationMs": 174,
     "Vel": 80
    },
    {
     "TimeMs": 151755,
     "Key": 53,
     "DurationMs": 174,
     "Vel": 80
    },
    {
     "TimeMs": 151850,
     "Key": 74,
     "DurationMs": 87,
     "Vel": 80
    },
    {
     "TimeMs": 151947,
     "Key": 81,
     "DurationMs": 87,
     "Vel": 80
    },
    {
     "TimeMs": 151948,
     "Key": 45,
     "DurationMs": 174,
     "Vel": 80
    },
    {
     "TimeMs": 152045,
     "Key": 77,
     "DurationMs": 87,
     "Vel": 80
    },
    {
     "TimeMs": 152142,
     "Key": 74,
     "DurationMs": 87,
     "Vel": 80
    },
    {
     "TimeMs": 152143,
     "Key": 62,
     "DurationMs": 174,
     "Vel": 80
    },
    {
     "TimeMs": 152144,
     "Key": 57,
     "DurationMs": 174,
     "Vel": 80
    },
    {
     "TimeMs": 152145,
     "Key": 53,
     "DurationMs": 174,
     "Vel": 80
    },
    {
     "TimeMs": 152240,
     "Key": 81,
     "DurationMs": 185,
     "Vel": 80
    },
    {
     "TimeMs": 152337,
     "Key": 50,
     "DurationMs": 175,
     "Vel": 80
    },
    {
     "TimeMs": 152434,
     "Key": 81,
     "DurationMs": 87,
     "Vel": 80
    },
    {
     "TimeMs": 152532,
     "Key": 77,
     "DurationMs": 87,
     "Vel": 80
    },
    {
     "TimeMs": 152533,
     "Key": 62,
     "DurationMs": 174,
     "Vel": 80
    },
    {
     "TimeMs": 152533,
     "Key": 57,
     "DurationMs": 174,
     "Vel": 80
    },
    {
     "TimeMs": 152534,
     "Key": 53,
     "DurationMs": 174,
     "Vel": 80
    },
    {
     "TimeMs": 152629,
     "Key": 74,
     "DurationMs": 87,
     "Vel": 80
    },
    {
     "TimeMs": 152727,
     "Key": 82,
     "DurationMs": 87,
     "Vel": 80
    },
    {
     "TimeMs": 152727,
     "Key": 51,
     "DurationMs": 174,
     "Vel": 80
    },
    {
     "TimeMs": 152728,
     "Key": 39,
     "DurationMs": 174,
     "Vel": 80
    },
    {
     "TimeMs": 152824,
     "Key": 79,
     "DurationMs": 87,
     "Vel": 80
    },
    {
     "TimeMs": 152921,
     "Key": 75,
     "DurationMs": 87,
     "Vel": 80
    },
    {
     "TimeMs": 152922,
     "Key": 63,
     "DurationMs": 174,
     "Vel": 80
    },
    {
     "TimeMs": 152923,
     "Key": 58,
     "DurationMs": 174,
     "Vel": 80
    },
    {
     "TimeMs": 152924,
     "Key": 55,
     "DurationMs": 174,
     "Vel": 80
    },
    {
     "TimeMs": 153019,
     "Key": 82,
     "DurationMs": 185,
     "Vel": 80
    },
    {
     "TimeMs": 153116,
     "Key": 51,
     "DurationMs": 175,
     "Vel": 80
    },
    {
     "TimeMs": 153214,
     "Key": 82,
     "DurationMs": 87,
     "Vel": 80
    },
    {
     "TimeMs": 153311,
     "Key": 79,
     "DurationMs": 87,
     "Vel": 80
    },
    {
     "TimeMs": 153312,
     "Key": 63,
     "DurationMs": 174,
     "Vel": 80
    },
    {
     "TimeMs": 153313,
     "Key": 58,
     "DurationMs": 174,
     "Vel": 80
    },
    {
     "TimeMs": 153313,
     "Key": 55,
     "DurationMs": 174,
     "Vel": 80
    },
    {
     "TimeMs": 153408,
     "Key": 75,
     "DurationMs": 87,
     "Vel": 80
    },
    {
     "TimeMs": 153506,
     "Key": 82,
     "DurationMs": 87,
     "Vel": 80
    },
    {
     "TimeMs": 153507,
     "Key": 46,
     "DurationMs": 174,
     "Vel": 80
    },
    {
     "TimeMs": 153603,
     "Key": 79,
     "DurationMs": 87,
     "Vel": 80
    },
    {
     "TimeMs": 153701,
     "Key": 75,
     "DurationMs": 87,
     "Vel": 80
    },
    {
     "TimeMs": 153701,
     "Key": 63,
     "DurationMs": 174,
     "Vel": 80
    },
    {
     "TimeMs": 153702,
     "Key": 58,
     "DurationMs": 174,
     "Vel": 80
    },
    {
     "TimeMs": 153703,
     "Key": 55,
     "DurationMs": 174,
     "Vel": 80
    },
    {
     "TimeMs": 153798,
     "Key": 82,
     "DurationMs": 185,
     "Vel": 80
    },
    {
     "TimeMs": 153895,
     "Key": 51,
     "DurationMs": 175,
     "Vel": 80
    },
    {
     "TimeMs": 153993,
     "Key": 82,
     "DurationMs": 87,
     "Vel": 80
    },
    {
     "TimeMs": 154090,
     "Key": 79,
     "DurationMs": 87,
     "Vel": 80
    },
    {
     "TimeMs": 154091,
     "Key": 63,
     "DurationMs": 174,
     "Vel": 80
    },
    {
     "TimeMs": 154092,
     "Key": 58,
     "DurationMs": 174,
     "Vel": 80
    },
    {
     "TimeMs": 154093,
     "Key": 55,
     "DurationMs": 174,
     "Vel": 80
    },
    {
     "TimeMs": 154188,
     "Key": 75,
     "DurationMs": 87,
     "Vel": 80
    },
    {
     "TimeMs": 154285,
     "Key": 82,
     "DurationMs": 87,
     "Vel": 80
    },
    {
     "TimeMs": 154286,
     "Key": 34,
     "DurationMs": 174,
     "Vel": 80
    },
    {
     "TimeMs": 154287,
     "Key": 46,
     "DurationMs": 174,
     "Vel": 80
    },
    {
     "TimeMs": 154382,
     "Key": 77,
     "DurationMs": 87,
     "Vel": 80
    },
    {
     "TimeMs": 154480,
     "Key": 74,
     "DurationMs": 87,
     "Vel": 80
    },
    {
     "TimeMs": 154481,
     "Key": 53,
     "DurationMs": 174,
     "Vel": 80
    },
    {
     "TimeMs": 154481,
     "Key": 58,
     "DurationMs": 174,
     "Vel": 80
    },
    {
     "TimeMs": 154482,
     "Key": 62,
     "DurationMs": 174,
     "Vel": 80
    },
    {
     "TimeMs": 154577,
     "Key": 82,
     "DurationMs": 185,
     "Vel": 80
    },
    {
     "TimeMs": 154675,
     "Key": 46,
     "DurationMs": 175,
     "Vel": 80
    },
    {
     "TimeMs": 154772,
     "Key": 82,
     "DurationMs": 87,
     "Vel": 80
    },
    {
     "TimeMs": 154869,
     "Key": 77,
     "DurationMs": 87,
     "Vel": 80
    },
    {
     "TimeMs": 154870,
     "Key": 53,
     "DurationMs": 174,
     "Vel": 80
    },
    {
     "TimeMs": 154871,
     "Key": 58,
     "DurationMs": 174,
     "Vel": 80
    },
    {
     "TimeMs": 154872,
     "Key": 62,
     "DurationMs": 174,
     "Vel": 80
    },
    {
     "TimeMs": 154967,
     "Key": 74,
     "DurationMs": 87,
     "Vel": 80
    },
    {
     "TimeMs": 155064,
     "Key": 82,
     "DurationMs": 87,
     "Vel": 80
    },
    {
     "TimeMs": 155065,
     "Key": 46,
     "DurationMs": 174,
     "Vel": 80
    },
    {
     "TimeMs": 155162,
     "Key": 77,
     "DurationMs": 87,
     "Vel": 80
    },
    {
     "TimeMs": 155259,
     "Key": 74,
     "DurationMs": 87,
     "Vel": 80
    },
    {
     "TimeMs": 155260,
     "Key": 62,
     "DurationMs": 174,
     "Vel": 80
    },
    {
     "TimeMs": 155261,
     "Key": 58,
     "DurationMs": 174,
     "Vel": 80
    },
    {
     "TimeMs": 155262,
     "Key": 53,
     "DurationMs": 174,
     "Vel": 80
    },
    {
     "TimeMs": 155356,
     "Key": 82,
     "DurationMs": 185,
     "Vel": 80
    },
    {
     "TimeMs": 155454,
     "Key": 46,
     "DurationMs": 175,
     "Vel": 80
    },
    {
     "TimeMs": 155551,
     "Key": 82,
     "DurationMs": 87,
     "Vel": 80
    },
    {
     "TimeMs": 155649,
     "Key": 77,
     "DurationMs": 87,
     "Vel": 80
    },
    {
     "TimeMs": 155650,
     "Key": 62,
     "DurationMs": 174,
     "Vel": 80
    },
    {
     "TimeMs": 155650,
     "Key": 58,
     "DurationMs": 174,
     "Vel": 80
    },
    {
     "TimeMs": 155651,
     "Key": 53,
     "DurationMs": 174,
     "Vel": 80
    },
    {
     "TimeMs": 155746,
     "Key": 74,
     "DurationMs": 87,
     "Vel": 80
    },
    {
     "TimeMs": 155844,
     "Key": 79,
     "DurationMs": 87,
     "Vel": 80
    },
    {
     "TimeMs": 155844,
     "Key": 36,
     "DurationMs": 174,
     "Vel": 80
    },
    {
     "TimeMs": 155845,
     "Key": 48,
     "DurationMs": 174,
     "Vel": 80
    },
    {
     "TimeMs": 155941,
     "Key": 76,
     "DurationMs": 87,
     "Vel": 80
    },
    {
     "TimeMs": 156038,
     "Key": 72,
     "DurationMs": 87,
     "Vel": 80
    },
    {
     "TimeMs": 156039,
     "Key": 52,
     "DurationMs": 174,
     "Vel": 80
    },
    {
     "TimeMs": 156040,
     "Key": 55,
     "DurationMs": 174,
     "Vel": 80
    },
    {
     "TimeMs": 156041,
     "Key": 60,
     "DurationMs": 174,
     "Vel": 80
    },
    {
     "TimeMs": 156136,
     "Key": 79,
     "DurationMs": 185,
     "Vel": 80
    },
    {
     "TimeMs": 156233,
     "Key": 48,
     "DurationMs": 175,
     "Vel": 80
    },
    {
     "TimeMs": 156331,
     "Key": 79,
     "DurationMs": 87,
     "Vel": 80
    },
    {
     "TimeMs": 156428,
     "Key": 76,
     "DurationMs": 87,
     "Vel": 80
    },
    {
     "TimeMs": 156429,
     "Key": 52,
     "DurationMs": 174,
     "Vel": 80
    },
    {
     "TimeMs": 156430,
     "Key": 55,
     "DurationMs": 174,
     "Vel": 80
    },
    {
     "TimeMs": 156430,
     "Key": 60,
     "DurationMs": 174,
     "Vel": 80
    },
    {
     "TimeMs": 156525,
     "Key": 72,
     "DurationMs": 87,
     "Vel": 80
    },
    {
     "TimeMs": 156623,
     "Key": 81,
     "DurationMs": 87,
     "Vel": 80
    },
    {
     "TimeMs": 156624,
     "Key": 45,
     "DurationMs": 174,
     "Vel": 80
    },
    {
     "TimeMs": 156624,
     "Key": 33,
     "DurationMs": 174,
     "Vel": 80
    },
    {
     "TimeMs": 156720,
     "Key": 76,
     "DurationMs": 87,
     "Vel": 80
    },
    {
     "TimeMs": 156818,
     "Key": 73,
     "DurationMs": 87,
     "Vel": 80
    },
    {
     "TimeMs": 156818,
     "Key": 64,
     "DurationMs": 174,
     "Vel": 80
    },
    {
     "TimeMs": 156819,
     "Key": 61,
     "DurationMs": 174,
     "Vel": 80
    },
    {
     "TimeMs": 156820,
     "Key": 57,
     "DurationMs": 174,
     "Vel": 80
    },
    {
     "TimeMs": 156915,
     "Key": 81,
     "DurationMs": 185,
     "Vel": 80
    },
    {
     "TimeMs": 157012,
     "Key": 52,
     "DurationMs": 175,
     "Vel": 80
    },
    {
     "TimeMs": 157110,
     "Key": 81,
     "DurationMs": 87,
     "Vel": 80
    },
    {
     "TimeMs": 157207,
     "Key": 76,
     "DurationMs": 87,
     "Vel": 80
    },
    {
     "TimeMs": 157208,
     "Key": 64,
     "DurationMs": 174,
     "Vel": 80
    },
    {
     "TimeMs": 157209,
     "Key": 61,
     "DurationMs": 174,
     "Vel": 80
    },
    {
     "TimeMs": 157210,
     "Key": 57,
     "DurationMs": 174,
     "Vel": 80
    },
    {
     "TimeMs": 157305,
     "Key": 73,
     "DurationMs": 87,
     "Vel": 80
    },
    {
     "TimeMs": 157402,
     "Key": 81,
     "DurationMs": 87,
     "Vel": 80
    },
    {
     "TimeMs": 157403,
     "Key": 50,
     "DurationMs": 174,
     "Vel": 80
    },
    {
     "TimeMs": 157404,
     "Key": 38,
     "DurationMs": 174,
     "Vel": 80
    },
    {
     "TimeMs": 157499,
     "Key": 77,
     "DurationMs": 87,
     "Vel": 80
    },
    {
     "TimeMs": 157597,
     "Key": 74,
     "DurationMs": 87,
     "Vel": 80
    },
    {
     "TimeMs": 157598,
     "Key": 62,
     "DurationMs": 174,
     "Vel": 80
    },
    {
     "TimeMs": 157598,
     "Key": 57,
     "DurationMs": 174,
     "Vel": 80
    },
    {
     "TimeMs": 157599,
     "Key": 53,
     "DurationMs": 174,
     "Vel": 80
    },
    {
     "TimeMs": 157694,
     "Key": 81,
     "DurationMs": 87,
     "Vel": 80
    },
    {
     "TimeMs": 157792,
     "Key": 86,
     "DurationMs": 87,
     "Vel": 80
    },
    {
     "TimeMs": 157792,
     "Key": 50,
     "DurationMs": 174,
     "Vel": 80
    },
    {
     "TimeMs": 157889,
     "Key": 81,
     "DurationMs": 87,
     "Vel": 80
    },
    {
     "TimeMs": 157986,
     "Key": 77,
     "DurationMs": 87,
     "Vel": 80
    },
    {
     "TimeMs": 157987,
     "Key": 62,
     "DurationMs": 174,
     "Vel": 80
    },
    {
     "TimeMs": 157988,
     "Key": 57,
     "DurationMs": 174,
     "Vel": 80
    },
    {
     "TimeMs": 157989,
     "Key": 53,
     "DurationMs": 174,
     "Vel": 80
    },
    {
     "TimeMs": 158084,
     "Key": 74,
     "DurationMs": 87,
     "Vel": 80
    },
    {
     "TimeMs": 158181,
     "Key": 79,
     "DurationMs": 87,
     "Vel": 80
    },
    {
     "TimeMs": 158182,
     "Key": 45,
     "DurationMs": 174,
     "Vel": 80
    },
    {
     "TimeMs": 158279,
     "Key": 77,
     "DurationMs": 87,
     "Vel": 80
    },
    {
     "TimeMs": 158376,
     "Key": 74,
     "DurationMs": 87,
     "Vel": 80
    },
    {
     "TimeMs": 158377,
     "Key": 62,
     "DurationMs": 174,
     "Vel": 80
    },
    {
     "TimeMs": 158378,
     "Key": 57,
     "DurationMs": 174,
     "Vel": 80
    },
    {
     "TimeMs": 158378,
     "Key": 53,
     "DurationMs": 174,
     "Vel": 80
    },
    {
     "TimeMs": 158473,
     "Key": 81,
     "DurationMs": 87,
     "Vel": 80
    },
    {
     "TimeMs": 158571,
     "Key": 89,
     "DurationMs": 64,
     "Vel": 80
    },
    {
     "TimeMs": 158572,
     "Key": 41,
     "DurationMs": 174,
     "Vel": 80
    },
    {
     "TimeMs": 158637,
     "Key": 88,
     "DurationMs": 64,
     "Vel": 80
    },
    {
     "TimeMs": 158701,
     "Key": 86,
     "DurationMs": 64,
     "Vel": 80
    },
    {
     "TimeMs": 158766,
     "Key": 81,
     "DurationMs": 86,
     "Vel": 80
    },
    {
     "TimeMs": 158767,
     "Key": 62,
     "DurationMs": 173,
     "Vel": 80
    },
    {
     "TimeMs": 158768,
     "Key": 57,
     "DurationMs": 173,
     "Vel": 80
    },
    {
     "TimeMs": 158769,
     "Key": 53,
     "DurationMs": 173,
     "Vel": 80
    },
    {
     "TimeMs": 158863,
     "Key": 77,
     "DurationMs": 87,
     "Vel": 80
    },
    {
     "TimeMs": 158960,
     "Key": 82,
     "DurationMs": 87,
     "Vel": 80
    },
    {
     "TimeMs": 158961,
     "Key": 51,
     "DurationMs": 174,
     "Vel": 80
    },
    {
     "TimeMs": 158962,
     "Key": 39,
     "DurationMs": 174,
     "Vel": 80
    },
    {
     "TimeMs": 159058,
     "Key": 79,
     "DurationMs": 87,
     "Vel": 80
    },
    {
     "TimeMs": 159155,
     "Key": 75,
     "DurationMs": 87,
     "Vel": 80
    },
    {
     "TimeMs": 159156,
     "Key": 63,
     "DurationMs": 174,
     "Vel": 80
    },
    {
     "TimeMs": 159157,
     "Key": 58,
     "DurationMs": 174,
     "Vel": 80
    },
    {
     "TimeMs": 159158,
     "Key": 55,
     "DurationMs": 174,
     "Vel": 80
    },
    {
     "TimeMs": 159253,
     "Key": 82,
     "DurationMs": 43,
     "Vel": 80
    },
    {
     "TimeMs": 159301,
     "Key": 86,
     "DurationMs": 43,
     "Vel": 80
    },
    {
     "TimeMs": 159350,
     "Key": 87,
     "DurationMs": 87,
     "Vel": 80
    },
    {
     "TimeMs": 159351,
     "Key": 51,
     "DurationMs": 174,
     "Vel": 80
    },
    {
     "TimeMs": 159447,
     "Key": 82,
     "DurationMs": 87,
     "Vel": 80
    },
    {
     "TimeMs": 159545,
     "Key": 79,
     "DurationMs": 87,
     "Vel": 80
    },
    {
     "TimeMs": 159546,
     "Key": 63,
     "DurationMs": 174,
     "Vel": 80
    },
    {
     "TimeMs": 159546,
     "Key": 58,
     "DurationMs": 174,
     "Vel": 80
    },
    {
     "TimeMs": 159547,
     "Key": 55,
     "DurationMs": 174,
     "Vel": 80
    },
    {
     "TimeMs": 159642,
     "Key": 75,
     "DurationMs": 87,
     "Vel": 80
    },
    {
     "TimeMs": 159740,
     "Key": 82,
     "DurationMs": 87,
     "Vel": 80
    },
    {
     "TimeMs": 159740,
     "Key": 46,
     "DurationMs": 174,
     "Vel": 80
    },
    {
     "TimeMs": 159837,
     "Key": 79,
     "DurationMs": 87,
     "Vel": 80
    },
    {
     "TimeMs": 159934,
     "Key": 75,
     "DurationMs": 87,
     "Vel": 80
    },
    {
     "TimeMs": 159935,
     "Key": 63,
     "DurationMs": 174,
     "Vel": 80
    },
    {
     "TimeMs": 159936,
     "Key": 58,
     "DurationMs": 174,
     "Vel": 80
    },
    {
     "TimeMs": 159937,
     "Key": 55,
     "DurationMs": 174,
     "Vel": 80
    },
    {
     "TimeMs": 160032,
     "Key": 82,
     "DurationMs": 87,
     "Vel": 80
    },
    {
     "TimeMs": 160129,
     "Key": 91,
     "DurationMs": 64,
     "Vel": 80
    },
    {
     "TimeMs": 160130,
     "Key": 43,
     "DurationMs": 174,
     "Vel": 80
    },
    {
     "TimeMs": 160195,
     "Key": 89,
     "DurationMs": 64,
     "Vel": 80
    },
    {
     "TimeMs": 160260,
     "Key": 87,
     "DurationMs": 64,
     "Vel": 80
    },
    {
     "TimeMs": 160325,
     "Key": 82,
     "DurationMs": 86,
     "Vel": 80
    },
    {
     "TimeMs": 160326,
     "Key": 63,
     "DurationMs": 173,
     "Vel": 80
    },
    {
     "TimeMs": 160326,
     "Key": 58,
     "DurationMs": 173,
     "Vel": 80
    },
    {
     "TimeMs": 160327,
     "Key": 55,
     "DurationMs": 173,
     "Vel": 80
    },
    {
     "TimeMs": 160421,
     "Key": 79,
     "DurationMs": 87,
     "Vel": 80
    },
    {
     "TimeMs": 160519,
     "Key": 86,
     "DurationMs": 87,
     "Vel": 80
    },
    {
     "TimeMs": 160520,
     "Key": 34,
     "DurationMs": 174,
     "Vel": 80
    },
    {
     "TimeMs": 160520,
     "Key": 46,
     "DurationMs": 174,
     "Vel": 80
    },
    {
     "TimeMs": 160616,
     "Key": 82,
     "DurationMs": 87,
     "Vel": 80
    },
    {
     "TimeMs": 160714,
     "Key": 77,
     "DurationMs": 87,
     "Vel": 80
    },
    {
     "TimeMs": 160714,
     "Key": 53,
     "DurationMs": 174,
     "Vel": 80
    },
    {
     "TimeMs": 160715,
     "Key": 58,
     "DurationMs": 174,
     "Vel": 80
    },
    {
     "TimeMs": 160716,
     "Key": 62,
     "DurationMs": 174,
     "Vel": 80
    },
    {
     "TimeMs": 160811,
     "Key": 82,
     "DurationMs": 43,
     "Vel": 80
    },
    {
     "TimeMs": 160860,
     "Key": 88,
     "DurationMs": 43,
     "Vel": 80
    },
    {
     "TimeMs": 160908,
     "Key": 89,
     "DurationMs": 87,
     "Vel": 80
    },
    {
     "TimeMs": 160909,
     "Key": 46,
     "DurationMs": 174,
     "Vel": 80
    },
    {
     "TimeMs": 161006,
     "Key": 82,
     "DurationMs": 87,
     "Vel": 80
    },
    {
     "TimeMs": 161103,
     "Key": 86,
     "DurationMs": 87,
     "Vel": 80
    },
    {
     "TimeMs": 161104,
     "Key": 53,
     "DurationMs": 174,
     "Vel": 80
    },
    {
     "TimeMs": 161105,
     "Key": 58,
     "DurationMs": 174,
     "Vel": 80
    },
    {
     "TimeMs": 161106,
     "Key": 62,
     "DurationMs": 174,
     "Vel": 80
    },
    {
     "TimeMs": 161201,
     "Key": 89,
     "DurationMs": 87,
     "Vel": 80
    },
    {
     "TimeMs": 161298,
     "Key": 94,
     "DurationMs": 87,
     "Vel": 80
    },
    {
     "TimeMs": 161299,
     "Key": 46,
     "DurationMs": 174,
     "Vel": 80
    },
    {
     "TimeMs": 161395,
     "Key": 89,
     "DurationMs": 87,
     "Vel": 80
    },
    {
     "TimeMs": 161493,
     "Key": 86,
     "DurationMs": 87,
     "Vel": 80
    },
    {
     "TimeMs": 161494,
     "Key": 62,
     "DurationMs": 174,
     "Vel": 80
    },
    {
     "TimeMs": 161494,
     "Key": 58,
     "DurationMs": 174,
     "Vel": 80
    },
    {
     "TimeMs": 161495,
     "Key": 53,
     "DurationMs": 174,
     "Vel": 80
    },
    {
     "TimeMs": 161590,
     "Key": 82,
     "DurationMs": 87,
     "Vel": 80
    },
    {
     "TimeMs": 161688,
     "Key": 82,
     "DurationMs": 87,
     "Vel": 80
    },
    {
     "TimeMs": 161688,
     "Key": 46,
     "DurationMs": 174,
     "Vel": 80
    },
    {
     "TimeMs": 161785,
     "Key": 79,
     "DurationMs": 87,
     "Vel": 80
    },
    {
     "TimeMs": 161882,
     "Key": 77,
     "DurationMs": 87,
     "Vel": 80
    },
    {
     "TimeMs": 161883,
     "Key": 62,
     "DurationMs": 174,
     "Vel": 80
    },
    {
     "TimeMs": 161884,
     "Key": 58,
     "DurationMs": 174,
     "Vel": 80
    },
    {
     "TimeMs": 161885,
     "Key": 53,
     "DurationMs": 174,
     "Vel": 80
    },
    {
     "TimeMs": 161980,
     "Key": 74,
     "DurationMs": 87,
     "Vel": 80
    },
    {
     "TimeMs": 162077,
     "Key": 60,
     "DurationMs": 175,
     "Vel": 80
    },
    {
     "TimeMs": 162078,
     "Key": 36,
     "DurationMs": 175,
     "Vel": 80
    },
    {
     "TimeMs": 162079,
     "Key": 48,
     "DurationMs": 175,
     "Vel": 80
    },
    {
     "TimeMs": 162272,
     "Key": 64,
     "DurationMs": 87,
     "Vel": 80
    },
    {
     "TimeMs": 162273,
     "Key": 52,
     "DurationMs": 174,
     "Vel": 80
    },
    {
     "TimeMs": 162274,
     "Key": 55,
     "DurationMs": 174,
     "Vel": 80
    },
    {
     "TimeMs": 162275,
     "Key": 60,
     "DurationMs": 174,
     "Vel": 80
    },
    {
     "TimeMs": 162369,
     "Key": 72,
     "DurationMs": 87,
     "Vel": 80
    },
    {
     "TimeMs": 162467,
     "Key": 70,
     "DurationMs": 175,
     "Vel": 80
    },
    {
     "TimeMs": 162468,
     "Key": 48,
     "DurationMs": 175,
     "Vel": 80
    },
    {
     "TimeMs": 162662,
     "Key": 72,
     "DurationMs": 87,
     "Vel": 80
    },
    {
     "TimeMs": 162662,
     "Key": 52,
     "DurationMs": 174,
     "Vel": 80
    },
    {
     "TimeMs": 162663,
     "Key": 55,
     "DurationMs": 174,
     "Vel": 80
    },
    {
     "TimeMs": 162664,
     "Key": 60,
     "DurationMs": 174,
     "Vel": 80
    },
    {
     "TimeMs": 162759,
     "Key": 74,
     "DurationMs": 87,
     "Vel": 80
    },
    {
     "TimeMs": 162856,
     "Key": 64,
     "DurationMs": 87,
     "Vel": 80
    },
    {
     "TimeMs": 162857,
     "Key": 45,
     "DurationMs": 174,
     "Vel": 80
    },
    {
     "TimeMs": 162858,
     "Key": 33,
     "DurationMs": 174,
     "Vel": 80
    },
    {
     "TimeMs": 162954,
     "Key": 67,
     "DurationMs": 87,
     "Vel": 80
    },
    {
     "TimeMs": 163051,
     "Key": 69,
     "DurationMs": 87,
     "Vel": 80
    },
    {
     "TimeMs": 163052,
     "Key": 64,
     "DurationMs": 174,
     "Vel": 80
    },
    {
     "TimeMs": 163053,
     "Key": 61,
     "DurationMs": 174,
     "Vel": 80
    },
    {
     "TimeMs": 163054,
     "Key": 57,
     "DurationMs": 174,
     "Vel": 80
    },
    {
     "TimeMs": 163149,
     "Key": 74,
     "DurationMs": 87,
     "Vel": 80
    },
    {
     "TimeMs": 163246,
     "Key": 81,
     "DurationMs": 55,
     "Vel": 80
    },
    {
     "TimeMs": 163247,
     "Key": 52,
     "DurationMs": 174,
     "Vel": 80
    },
    {
     "TimeMs": 163302,
     "Key": 82,
     "DurationMs": 54,
     "Vel": 80
    },
    {
     "TimeMs": 163357,
     "Key": 84,
     "DurationMs": 55,
     "Vel": 80
    },
    {
     "TimeMs": 163413,
     "Key": 86,
     "DurationMs": 54,
     "Vel": 80
    },
    {
     "TimeMs": 163441,
     "Key": 64,
     "DurationMs": 175,
     "Vel": 80
    },
    {
     "TimeMs": 163442,
     "Key": 61,
     "DurationMs": 175,
     "Vel": 80
    },
    {
     "TimeMs": 163443,
     "Key": 57,
     "DurationMs": 175,
     "Vel": 80
    },
    {
     "TimeMs": 163468,
     "Key": 88,
     "DurationMs": 55,
     "Vel": 80
    },
    {
     "TimeMs": 163524,
     "Key": 89,
     "DurationMs": 54,
     "Vel": 80
    },
    {
     "TimeMs": 163580,
     "Key": 91,
     "DurationMs": 55,
     "Vel": 80
    },
    {
     "TimeMs": 163636,
     "Key": 93,
     "DurationMs": 77,
     "Vel": 80
    },
    {
     "TimeMs": 163637,
     "Key": 46,
     "DurationMs": 174,
     "Vel": 80
    },
    {
     "TimeMs": 163637,
     "Key": 34,
     "DurationMs": 174,
     "Vel": 80
    },
    {
     "TimeMs": 163714,
     "Key": 91,
     "DurationMs": 77,
     "Vel": 80
    },
    {
     "TimeMs": 163792,
     "Key": 93,
     "DurationMs": 77,
     "Vel": 80
    },
    {
     "TimeMs": 163831,
     "Key": 69,
     "DurationMs": 175,
     "Vel": 80
    },
    {
     "TimeMs": 163831,
     "Key": 65,
     "DurationMs": 175,
     "Vel": 80
    },
    {
     "TimeMs": 163832,
     "Key": 62,
     "DurationMs": 175,
     "Vel": 80
    },
    {
     "TimeMs": 163833,
     "Key": 58,
     "DurationMs": 175,
     "Vel": 80
    },
    {
     "TimeMs": 163870,
     "Key": 89,
     "DurationMs": 77,
     "Vel": 80
    },
    {
     "TimeMs": 163948,
     "Key": 93,
     "DurationMs": 77,
     "Vel": 80
    },
    {
     "TimeMs": 164026,
     "Key": 91,
     "DurationMs": 77,
     "Vel": 80
    },
    {
     "TimeMs": 164027,
     "Key": 53,
     "DurationMs": 173,
     "Vel": 80
    },
    {
     "TimeMs": 164104,
     "Key": 93,
     "DurationMs": 77,
     "Vel": 80
    },
    {
     "TimeMs": 164182,
     "Key": 89,
     "DurationMs": 77,
     "Vel": 80
    },
    {
     "TimeMs": 164220,
     "Key": 69,
     "DurationMs": 175,
     "Vel": 80
    },
    {
     "TimeMs": 164221,
     "Key": 65,
     "DurationMs": 175,
     "Vel": 80
    },
    {
     "TimeMs": 164222,
     "Key": 62,
     "DurationMs": 175,
     "Vel": 80
    },
    {
     "TimeMs": 164223,
     "Key": 58,
     "DurationMs": 175,
     "Vel": 80
    },
    {
     "TimeMs": 164260,
     "Key": 88,
     "DurationMs": 77,
     "Vel": 80
    },
    {
     "TimeMs": 164338,
     "Key": 86,
     "DurationMs": 77,
     "Vel": 80
    },
    {
     "TimeMs": 164416,
     "Key": 91,
     "DurationMs": 77,
     "Vel": 80
    },
    {
     "TimeMs": 164417,
     "Key": 48,
     "DurationMs": 173,
     "Vel": 80
    },
    {
     "TimeMs": 164417,
     "Key": 36,
     "DurationMs": 173,
     "Vel": 80
    },
    {
     "TimeMs": 164494,
     "Key": 89,
     "DurationMs": 77,
     "Vel": 80
    },
    {
     "TimeMs": 164572,
     "Key": 91,
     "DurationMs": 77,
     "Vel": 80
    },
    {
     "TimeMs": 164610,
     "Key": 67,
     "DurationMs": 175,
     "Vel": 80
    },
    {
     "TimeMs": 164611,
     "Key": 64,
     "DurationMs": 175,
     "Vel": 80
    },
    {
     "TimeMs": 164611,
     "Key": 60,
     "DurationMs": 175,
     "Vel": 80
    },
    {
     "TimeMs": 164649,
     "Key": 88,
     "DurationMs": 77,
     "Vel": 80
    },
    {
     "TimeMs": 164727,
     "Key": 86,
     "DurationMs": 77,
     "Vel": 80
    },
    {
     "TimeMs": 164805,
     "Key": 86,
     "DurationMs": 64,
     "Vel": 80
    },
    {
     "TimeMs": 164806,
     "Key": 55,
     "DurationMs": 173,
     "Vel": 80
    },
    {
     "TimeMs": 164870,
     "Key": 84,
     "DurationMs": 64,
     "Vel": 80
    },
    {
     "TimeMs": 164935,
     "Key": 86,
     "DurationMs": 64,
     "Vel": 80
    },
    {
     "TimeMs": 165000,
     "Key": 81,
     "DurationMs": 64,
     "Vel": 80
    },
    {
     "TimeMs": 165001,
     "Key": 67,
     "DurationMs": 173,
     "Vel": 80
    },
    {
     "TimeMs": 165002,
     "Key": 64,
     "DurationMs": 173,
     "Vel": 80
    },
    {
     "TimeMs": 165003,
     "Key": 60,
     "DurationMs": 173,
     "Vel": 80
    },
    {
     "TimeMs": 165065,
     "Key": 79,
     "DurationMs": 64,
     "Vel": 80
    },
    {
     "TimeMs": 165130,
     "Key": 81,
     "DurationMs": 64,
     "Vel": 80
    },
    {
     "TimeMs": 165195,
     "Key": 77,
     "DurationMs": 77,
     "Vel": 80
    },
    {
     "TimeMs": 165196,
     "Key": 50,
     "DurationMs": 173,
     "Vel": 80
    },
    {
     "TimeMs": 165197,
     "Key": 38,
     "DurationMs": 173,
     "Vel": 80
    },
    {
     "TimeMs": 165273,
     "Key": 81,
     "DurationMs": 77,
     "Vel": 80
    },
    {
     "TimeMs": 165351,
     "Key": 79,
     "DurationMs": 77,
     "Vel": 80
    },
    {
     "TimeMs": 165389,
     "Key": 65,
     "DurationMs": 175,
     "Vel": 80
    },
    {
     "TimeMs": 165390,
     "Key": 62,
     "DurationMs": 175,
     "Vel": 80
    },
    {
     "TimeMs": 165391,
     "Key": 57,
     "DurationMs": 175,
     "Vel": 80
    },
    {
     "TimeMs": 165429,
     "Key": 77,
     "DurationMs": 77,
     "Vel": 80
    },
    {
     "TimeMs": 165507,
     "Key": 79,
     "DurationMs": 77,
     "Vel": 80
    },
    {
     "TimeMs": 165585,
     "Key": 77,
     "DurationMs": 64,
     "Vel": 80
    },
    {
     "TimeMs": 165585,
     "Key": 53,
     "DurationMs": 173,
     "Vel": 80
    },
    {
     "TimeMs": 165586,
     "Key": 41,
     "DurationMs": 173,
     "Vel": 80
    },
    {
     "TimeMs": 165649,
     "Key": 79,
     "DurationMs": 64,
     "Vel": 80
    },
    {
     "TimeMs": 165714,
     "Key": 77,
     "DurationMs": 64,
     "Vel": 80
    },
    {
     "TimeMs": 165779,
     "Key": 79,
     "DurationMs": 64,
     "Vel": 80
    },
    {
     "TimeMs": 165780,
     "Key": 65,
     "DurationMs": 173,
     "Vel": 80
    },
    {
     "TimeMs": 165781,
     "Key": 62,
     "DurationMs": 173,
     "Vel": 80
    },
    {
     "TimeMs": 165782,
     "Key": 57,
     "DurationMs": 173,
     "Vel": 80
    },
    {
     "TimeMs": 165844,
     "Key": 81,
     "DurationMs": 64,
     "Vel": 80
    },
    {
     "TimeMs": 165909,
     "Key": 79,
     "DurationMs": 64,
     "Vel": 80
    },
    {
     "TimeMs": 165974,
     "Key": 74,
     "DurationMs": 583,
     "Vel": 80
    },
    {
     "TimeMs": 165975,
     "Key": 45,
     "DurationMs": 173,
     "Vel": 80
    },
    {
     "TimeMs": 166168,
     "Key": 62,
     "DurationMs": 175,
     "Vel": 80
    },
    {
     "TimeMs": 166169,
     "Key": 57,
     "DurationMs": 175,
     "Vel": 80
    },
    {
     "TimeMs": 166170,
     "Key": 53,
     "DurationMs": 175,
     "Vel": 80
    },
    {
     "TimeMs": 166363,
     "Key": 38,
     "DurationMs": 175,
     "Vel": 80
    },
    {
     "TimeMs": 166559,
     "Key": 58,
     "DurationMs": 64,
     "Vel": 80
    },
    {
     "TimeMs": 166559,
     "Key": 57,
     "DurationMs": 173,
     "Vel": 80
    },
    {
     "TimeMs": 166560,
     "Key": 53,
     "DurationMs": 173,
     "Vel": 80
    },
    {
     "TimeMs": 166624,
     "Key": 60,
     "DurationMs": 64,
     "Vel": 80
    },
    {
     "TimeMs": 166688,
     "Key": 61,
     "DurationMs": 64,
     "Vel": 80
    },
    {
     "TimeMs": 166753,
     "Key": 62,
     "DurationMs": 86,
     "Vel": 80
    },
    {
     "TimeMs": 166754,
     "Key": 34,
     "DurationMs": 173,
     "Vel": 80
    },
    {
     "TimeMs": 166755,
     "Key": 46,
     "DurationMs": 173,
     "Vel": 80
    },
    {
     "TimeMs": 166850,
     "Key": 64,
     "DurationMs": 87,
     "Vel": 80
    },
    {
     "TimeMs": 166947,
     "Key": 65,
     "DurationMs": 87,
     "Vel": 80
    },
    {
     "TimeMs": 166948,
     "Key": 50,
     "DurationMs": 174,
     "Vel": 80
    },
    {
     "TimeMs": 166949,
     "Key": 53,
     "DurationMs": 174,
     "Vel": 80
    },
    {
     "TimeMs": 167045,
     "Key": 62,
     "DurationMs": 48,
     "Vel": 80
    },
    {
     "TimeMs": 167094,
     "Key": 64,
     "DurationMs": 38,
     "Vel": 80
    },
    {
     "TimeMs": 167142,
     "Key": 65,
     "DurationMs": 87,
     "Vel": 80
    },
    {
     "TimeMs": 167143,
     "Key": 46,
     "DurationMs": 174,
     "Vel": 80
    },
    {
     "TimeMs": 167240,
     "Key": 62,
     "DurationMs": 87,
     "Vel": 80
    },
    {
     "TimeMs": 167337,
     "Key": 69,
     "DurationMs": 87,
     "Vel": 80
    },
    {
     "TimeMs": 167338,
     "Key": 50,
     "DurationMs": 174,
     "Vel": 80
    },
    {
     "TimeMs": 167339,
     "Key": 53,
     "DurationMs": 174,
     "Vel": 80
    },
    {
     "TimeMs": 167434,
     "Key": 62,
     "DurationMs": 87,
     "Vel": 80
    },
    {
     "TimeMs": 167532,
     "Key": 67,
     "DurationMs": 87,
     "Vel": 80
    },
    {
     "TimeMs": 167533,
     "Key": 36,
     "DurationMs": 174,
     "Vel": 80
    },
    {
     "TimeMs": 167533,
     "Key": 48,
     "DurationMs": 174,
     "Vel": 80
    },
    {
     "TimeMs": 167629,
     "Key": 69,
     "DurationMs": 87,
     "Vel": 80
    },
    {
     "TimeMs": 167727,
     "Key": 67,
     "DurationMs": 87,
     "Vel": 80
    },
    {
     "TimeMs": 167727,
     "Key": 52,
     "DurationMs": 174,
     "Vel": 80
    },
    {
     "TimeMs": 167728,
     "Key": 55,
     "DurationMs": 174,
     "Vel": 80
    },
    {
     "TimeMs": 167824,
     "Key": 74,
     "DurationMs": 43,
     "Vel": 80
    },
    {
     "TimeMs": 167873,
     "Key": 76,
     "DurationMs": 43,
     "Vel": 80
    },
    {
     "TimeMs": 167921,
     "Key": 77,
     "DurationMs": 87,
     "Vel": 80
    },
    {
     "TimeMs": 167922,
     "Key": 48,
     "DurationMs": 174,
     "Vel": 80
    },
    {
     "TimeMs": 168019,
     "Key": 76,
     "DurationMs": 87,
     "Vel": 80
    },
    {
     "TimeMs": 168116,
     "Key": 74,
     "DurationMs": 87,
     "Vel": 80
    },
    {
     "TimeMs": 168117,
     "Key": 52,
     "DurationMs": 174,
     "Vel": 80
    },
    {
     "TimeMs": 168118,
     "Key": 55,
     "DurationMs": 174,
     "Vel": 80
    },
    {
     "TimeMs": 168214,
     "Key": 77,
     "DurationMs": 87,
     "Vel": 80
    },
    {
     "TimeMs": 168266,
     "Key": 80,
     "DurationMs": 43,
     "Vel": 80
    },
    {
     "TimeMs": 168311,
     "Key": 81,
     "DurationMs": 155,
     "Vel": 80
    },
    {
     "TimeMs": 168312,
     "Key": 74,
     "DurationMs": 155,
     "Vel": 80
    },
    {
     "TimeMs": 168313,
     "Key": 50,
     "DurationMs": 173,
     "Vel": 80
    },
    {
     "TimeMs": 168313,
     "Key": 38,
     "DurationMs": 173,
     "Vel": 80
    },
    {
     "TimeMs": 168468,
     "Key": 81,
     "DurationMs": 154,
     "Vel": 80
    },
    {
     "TimeMs": 168469,
     "Key": 74,
     "DurationMs": 154,
     "Vel": 80
    },
    {
     "TimeMs": 168506,
     "Key": 62,
     "DurationMs": 175,
     "Vel": 80
    },
    {
     "TimeMs": 168507,
     "Key": 57,
     "DurationMs": 175,
     "Vel": 80
    },
    {
     "TimeMs": 168507,
     "Key": 53,
     "DurationMs": 175,
     "Vel": 80
    },
    {
     "TimeMs": 168624,
     "Key": 84,
     "DurationMs": 154,
     "Vel": 80
    },
    {
     "TimeMs": 168625,
     "Key": 81,
     "DurationMs": 172,
     "Vel": 80
    },
    {
     "TimeMs": 168626,
     "Key": 80,
     "DurationMs": 153,
     "Vel": 80
    },
    {
     "TimeMs": 168627,
     "Key": 74,
     "DurationMs": 153,
     "Vel": 80
    },
    {
     "TimeMs": 168701,
     "Key": 52,
     "DurationMs": 175,
     "Vel": 80
    },
    {
     "TimeMs": 168701,
     "Key": 40,
     "DurationMs": 175,
     "Vel": 80
    },
    {
     "TimeMs": 168781,
     "Key": 81,
     "DurationMs": 17,
     "Vel": 80
    },
    {
     "TimeMs": 168782,
     "Key": 80,
     "DurationMs": 172,
     "Vel": 80
    },
    {
     "TimeMs": 168783,
     "Key": 74,
     "DurationMs": 152,
     "Vel": 80
    },
    {
     "TimeMs": 168895,
     "Key": 62,
     "DurationMs": 175,
     "Vel": 80
    },
    {
     "TimeMs": 168896,
     "Key": 57,
     "DurationMs": 175,
     "Vel": 80
    },
    {
     "TimeMs": 168897,
     "Key": 53,
     "DurationMs": 175,
     "Vel": 80
    },
    {
     "TimeMs": 168936,
     "Key": 84,
     "DurationMs": 738,
     "Vel": 80
    },
    {
     "TimeMs": 168937,
     "Key": 81,
     "DurationMs": 738,
     "Vel": 80
    },
    {
     "TimeMs": 168938,
     "Key": 80,
     "DurationMs": 16,
     "Vel": 80
    },
    {
     "TimeMs": 168938,
     "Key": 74,
     "DurationMs": 738,
     "Vel": 80
    },
    {
     "TimeMs": 169090,
     "Key": 41,
     "DurationMs": 175,
     "Vel": 80
    },
    {
     "TimeMs": 169285,
     "Key": 62,
     "DurationMs": 175,
     "Vel": 80
    },
    {
     "TimeMs": 169286,
     "Key": 57,
     "DurationMs": 175,
     "Vel": 80
    },
    {
     "TimeMs": 169287,
     "Key": 53,
     "DurationMs": 175,
     "Vel": 80
    },
    {
     "TimeMs": 169480,
     "Key": 41,
     "DurationMs": 87,
     "Vel": 80
    },
    {
     "TimeMs": 169577,
     "Key": 45,
     "DurationMs": 87,
     "Vel": 80
    },
    {
     "TimeMs": 169678,
     "Key": 53,
     "DurationMs": 172,
     "Vel": 80
    },
    {
     "TimeMs": 169679,
     "Key": 57,
     "DurationMs": 172,
     "Vel": 80
    },
    {
     "TimeMs": 169680,
     "Key": 62,
     "DurationMs": 172,
     "Vel": 80
    },
    {
     "TimeMs": 169680,
     "Key": 41,
     "DurationMs": 81,
     "Vel": 80
    },
    {
     "TimeMs": 169772,
     "Key": 38,
     "DurationMs": 87,
     "Vel": 80
    },
    {
     "TimeMs": 169869,
     "Key": 62,
     "DurationMs": 87,
     "Vel": 80
    },
    {
     "TimeMs": 169870,
     "Key": 34,
     "DurationMs": 174,
     "Vel": 80
    },
    {
     "TimeMs": 169871,
     "Key": 46,
     "DurationMs": 174,
     "Vel": 80
    },
    {
     "TimeMs": 169967,
     "Key": 62,
     "DurationMs": 87,
     "Vel": 80
    },
    {
     "TimeMs": 170064,
     "Key": 60,
     "DurationMs": 87,
     "Vel": 80
    },
    {
     "TimeMs": 170065,
     "Key": 50,
     "DurationMs": 174,
     "Vel": 80
    },
    {
     "TimeMs": 170066,
     "Key": 53,
     "DurationMs": 174,
     "Vel": 80
    },
    {
     "TimeMs": 170162,
     "Key": 60,
     "DurationMs": 87,
     "Vel": 80
    },
    {
     "TimeMs": 170259,
     "Key": 67,
     "DurationMs": 87,
     "Vel": 80
    },
    {
     "TimeMs": 170260,
     "Key": 46,
     "DurationMs": 174,
     "Vel": 80
    },
    {
     "TimeMs": 170356,
     "Key": 67,
     "DurationMs": 87,
     "Vel": 80
    },
    {
     "TimeMs": 170454,
     "Key": 65,
     "DurationMs": 87,
     "Vel": 80
    },
    {
     "TimeMs": 170455,
     "Key": 50,
     "DurationMs": 174,
     "Vel": 80
    },
    {
     "TimeMs": 170455,
     "Key": 53,
     "DurationMs": 174,
     "Vel": 80
    },
    {
     "TimeMs": 170551,
     "Key": 65,
     "DurationMs": 87,
     "Vel": 80
    },
    {
     "TimeMs": 170649,
     "Key": 69,
     "DurationMs": 87,
     "Vel": 80
    },
    {
     "TimeMs": 170649,
     "Key": 36,
     "DurationMs": 174,
     "Vel": 80
    },
    {
     "TimeMs": 170650,
     "Key": 48,
     "DurationMs": 174,
     "Vel": 80
    },
    {
     "TimeMs": 170746,
     "Key": 69,
     "DurationMs": 87,
     "Vel": 80
    },
    {
     "TimeMs": 170843,
     "Key": 67,
     "DurationMs": 87,
     "Vel": 80
    },
    {
     "TimeMs": 170844,
     "Key": 52,
     "DurationMs": 174,
     "Vel": 80
    },
    {
     "TimeMs": 170845,
     "Key": 55,
     "DurationMs": 174,
     "Vel": 80
    },
    {
     "TimeMs": 170941,
     "Key": 67,
     "DurationMs": 87,
     "Vel": 80
    },
    {
     "TimeMs": 171038,
     "Key": 74,
     "DurationMs": 87,
     "Vel": 80
    },
    {
     "TimeMs": 171039,
     "Key": 48,
     "DurationMs": 174,
     "Vel": 80
    },
    {
     "TimeMs": 171136,
     "Key": 74,
     "DurationMs": 87,
     "Vel": 80
    },
    {
     "TimeMs": 171233,
     "Key": 72,
     "DurationMs": 87,
     "Vel": 80
    },
    {
     "TimeMs": 171234,
     "Key": 52,
     "DurationMs": 174,
     "Vel": 80
    },
    {
     "TimeMs": 171235,
     "Key": 55,
     "DurationMs": 174,
     "Vel": 80
    },
    {
     "TimeMs": 171330,
     "Key": 72,
     "DurationMs": 87,
     "Vel": 80
    },
    {
     "TimeMs": 171428,
     "Key": 79,
     "DurationMs": 87,
     "Vel": 80
    },
    {
     "TimeMs": 171429,
     "Key": 50,
     "DurationMs": 174,
     "Vel": 80
    },
    {
     "TimeMs": 171430,
     "Key": 38,
     "DurationMs": 174,
     "Vel": 80
    },
    {
     "TimeMs": 171525,
     "Key": 79,
     "DurationMs": 87,
     "Vel": 80
    },
    {
     "TimeMs": 171623,
     "Key": 77,
     "DurationMs": 87,
     "Vel": 80
    },
    {
     "TimeMs": 171624,
     "Key": 62,
     "DurationMs": 174,
     "Vel": 80
    },
    {
     "TimeMs": 171624,
     "Key": 57,
     "DurationMs": 174,
     "Vel": 80
    },
    {
     "TimeMs": 171625,
     "Key": 53,
     "DurationMs": 174,
     "Vel": 80
    },
    {
     "TimeMs": 171720,
     "Key": 77,
     "DurationMs": 87,
     "Vel": 80
    },
    {
     "TimeMs": 171818,
     "Key": 86,
     "DurationMs": 129,
     "Vel": 80
    },
    {
     "TimeMs": 171818,
     "Key": 81,
     "DurationMs": 174,
     "Vel": 80
    },
    {
     "TimeMs": 171819,
     "Key": 74,
     "DurationMs": 174,
     "Vel": 80
    },
    {
     "TimeMs": 171820,
     "Key": 52,
     "DurationMs": 174,
     "Vel": 80
    },
    {
     "TimeMs": 171821,
     "Key": 40,
     "DurationMs": 174,
     "Vel": 80
    },
    {
     "TimeMs": 171948,
     "Key": 85,
     "DurationMs": 129,
     "Vel": 80
    },
    {
     "TimeMs": 171949,
     "Key": 81,
     "DurationMs": 43,
     "Vel": 80
    },
    {
     "TimeMs": 171950,
     "Key": 73,
     "DurationMs": 173,
     "Vel": 80
    },
    {
     "TimeMs": 172012,
     "Key": 62,
     "DurationMs": 175,
     "Vel": 80
    },
    {
     "TimeMs": 172013,
     "Key": 57,
     "DurationMs": 175,
     "Vel": 80
    },
    {
     "TimeMs": 172014,
     "Key": 53,
     "DurationMs": 175,
     "Vel": 80
    },
    {
     "TimeMs": 172078,
     "Key": 84,
     "DurationMs": 129,
     "Vel": 80
    },
    {
     "TimeMs": 172079,
     "Key": 81,
     "DurationMs": 43,
     "Vel": 80
    },
    {
     "TimeMs": 172080,
     "Key": 72,
     "DurationMs": 173,
     "Vel": 80
    },
    {
     "TimeMs": 172208,
     "Key": 72,
     "DurationMs": 45,
     "Vel": 80
    },
    {
     "TimeMs": 172209,
     "Key": 41,
     "DurationMs": 173,
     "Vel": 80
    },
    {
     "TimeMs": 172240,
     "Key": 76,
     "DurationMs": 701,
     "Vel": 80
    },
    {
     "TimeMs": 172272,
     "Key": 77,
     "DurationMs": 701,
     "Vel": 80
    },
    {
     "TimeMs": 172305,
     "Key": 81,
     "DurationMs": 701,
     "Vel": 80
    },
    {
     "TimeMs": 172337,
     "Key": 84,
     "DurationMs": 701,
     "Vel": 80
    },
    {
     "TimeMs": 172402,
     "Key": 62,
     "DurationMs": 175,
     "Vel": 80
    },
    {
     "TimeMs": 172403,
     "Key": 57,
     "DurationMs": 175,
     "Vel": 80
    },
    {
     "TimeMs": 172404,
     "Key": 53,
     "DurationMs": 175,
     "Vel": 80
    },
    {
     "TimeMs": 172597,
     "Key": 41,
     "DurationMs": 87,
     "Vel": 80
    },
    {
     "TimeMs": 172694,
     "Key": 45,
     "DurationMs": 87,
     "Vel": 80
    },
    {
     "TimeMs": 172792,
     "Key": 41,
     "DurationMs": 87,
     "Vel": 80
    },
    {
     "TimeMs": 172889,
     "Key": 38,
     "DurationMs": 87,
     "Vel": 80
    },
    {
     "TimeMs": 172986,
     "Key": 77,
     "DurationMs": 175,
     "Vel": 80
    },
    {
     "TimeMs": 172987,
     "Key": 70,
     "DurationMs": 175,
     "Vel": 80
    },
    {
     "TimeMs": 172988,
     "Key": 34,
     "DurationMs": 175,
     "Vel": 80
    },
    {
     "TimeMs": 172989,
     "Key": 46,
     "DurationMs": 175,
     "Vel": 80
    },
    {
     "TimeMs": 173181,
     "Key": 74,
     "DurationMs": 87,
     "Vel": 80
    },
    {
     "TimeMs": 173182,
     "Key": 53,
     "DurationMs": 174,
     "Vel": 80
    },
    {
     "TimeMs": 173183,
     "Key": 58,
     "DurationMs": 174,
     "Vel": 80
    },
    {
     "TimeMs": 173184,
     "Key": 62,
     "DurationMs": 174,
     "Vel": 80
    },
    {
     "TimeMs": 173279,
     "Key": 70,
     "DurationMs": 87,
     "Vel": 80
    },
    {
     "TimeMs": 173376,
     "Key": 65,
     "DurationMs": 87,
     "Vel": 80
    },
    {
     "TimeMs": 173377,
     "Key": 46,
     "DurationMs": 174,
     "Vel": 80
    },
    {
     "TimeMs": 173473,
     "Key": 70,
     "DurationMs": 87,
     "Vel": 80
    },
    {
     "TimeMs": 173571,
     "Key": 74,
     "DurationMs": 87,
     "Vel": 80
    },
    {
     "TimeMs": 173572,
     "Key": 53,
     "DurationMs": 174,
     "Vel": 80
    },
    {
     "TimeMs": 173572,
     "Key": 58,
     "DurationMs": 174,
     "Vel": 80
    },
    {
     "TimeMs": 173573,
     "Key": 62,
     "DurationMs": 174,
     "Vel": 80
    },
    {
     "TimeMs": 173668,
     "Key": 77,
     "DurationMs": 87,
     "Vel": 80
    },
    {
     "TimeMs": 173766,
     "Key": 79,
     "DurationMs": 87,
     "Vel": 80
    },
    {
     "TimeMs": 173766,
     "Key": 48,
     "DurationMs": 174,
     "Vel": 80
    },
    {
     "TimeMs": 173767,
     "Key": 36,
     "DurationMs": 174,
     "Vel": 80
    },
    {
     "TimeMs": 173863,
     "Key": 76,
     "DurationMs": 87,
     "Vel": 80
    },
    {
     "TimeMs": 173960,
     "Key": 72,
     "DurationMs": 87,
     "Vel": 80
    },
    {
     "TimeMs": 173961,
     "Key": 64,
     "DurationMs": 174,
     "Vel": 80
    },
    {
     "TimeMs": 173962,
     "Key": 60,
     "DurationMs": 174,
     "Vel": 80
    },
    {
     "TimeMs": 173963,
     "Key": 55,
     "DurationMs": 174,
     "Vel": 80
    },
    {
     "TimeMs": 174058,
     "Key": 67,
     "DurationMs": 87,
     "Vel": 80
    },
    {
     "TimeMs": 174155,
     "Key": 67,
     "DurationMs": 87,
     "Vel": 80
    },
    {
     "TimeMs": 174156,
     "Key": 48,
     "DurationMs": 87,
     "Vel": 80
    },
    {
     "TimeMs": 174253,
     "Key": 72,
     "DurationMs": 87,
     "Vel": 80
    },
    {
     "TimeMs": 174253,
     "Key": 55,
     "DurationMs": 87,
     "Vel": 80
    },
    {
     "TimeMs": 174350,
     "Key": 76,
     "DurationMs": 87,
     "Vel": 80
    },
    {
     "TimeMs": 174351,
     "Key": 60,
     "DurationMs": 87,
     "Vel": 80
    },
    {
     "TimeMs": 174447,
     "Key": 79,
     "DurationMs": 87,
     "Vel": 80
    },
    {
     "TimeMs": 174448,
     "Key": 48,
     "DurationMs": 87,
     "Vel": 80
    },
    {
     "TimeMs": 174545,
     "Key": 81,
     "DurationMs": 262,
     "Vel": 80
    },
    {
     "TimeMs": 174546,
     "Key": 77,
     "DurationMs": 262,
     "Vel": 80
    },
    {
     "TimeMs": 174546,
     "Key": 74,
     "DurationMs": 262,
     "Vel": 80
    },
    {
     "TimeMs": 174547,
     "Key": 69,
     "DurationMs": 262,
     "Vel": 80
    },
    {
     "TimeMs": 174548,
     "Key": 50,
     "DurationMs": 172,
     "Vel": 80
    },
    {
     "TimeMs": 174549,
     "Key": 45,
     "DurationMs": 172,
     "Vel": 80
    },
    {
     "TimeMs": 174550,
     "Key": 38,
     "DurationMs": 172,
     "Vel": 80
    },
    {
     "TimeMs": 174740,
     "Key": 50,
     "DurationMs": 87,
     "Vel": 80
    },
    {
     "TimeMs": 174837,
     "Key": 80,
     "DurationMs": 262,
     "Vel": 80
    },
    {
     "TimeMs": 174838,
     "Key": 74,
     "DurationMs": 262,
     "Vel": 80
    },
    {
     "TimeMs": 174839,
     "Key": 69,
     "DurationMs": 262,
     "Vel": 80
    },
    {
     "TimeMs": 174839,
     "Key": 62,
     "DurationMs": 182,
     "Vel": 80
    },
    {
     "TimeMs": 174840,
     "Key": 57,
     "DurationMs": 182,
     "Vel": 80
    },
    {
     "TimeMs": 174841,
     "Key": 53,
     "DurationMs": 182,
     "Vel": 80
    },
    {
     "TimeMs": 175032,
     "Key": 38,
     "DurationMs": 87,
     "Vel": 80
    },
    {
     "TimeMs": 175129,
     "Key": 81,
     "DurationMs": 87,
     "Vel": 80
    },
    {
     "TimeMs": 175130,
     "Key": 74,
     "DurationMs": 87,
     "Vel": 80
    },
    {
     "TimeMs": 175131,
     "Key": 69,
     "DurationMs": 87,
     "Vel": 80
    },
    {
     "TimeMs": 175132,
     "Key": 50,
     "DurationMs": 172,
     "Vel": 80
    },
    {
     "TimeMs": 175227,
     "Key": 80,
     "DurationMs": 87,
     "Vel": 80
    },
    {
     "TimeMs": 175227,
     "Key": 74,
     "DurationMs": 87,
     "Vel": 80
    },
    {
     "TimeMs": 175228,
     "Key": 69,
     "DurationMs": 87,
     "Vel": 80
    },
    {
     "TimeMs": 175324,
     "Key": 81,
     "DurationMs": 701,
     "Vel": 80
    },
    {
     "TimeMs": 175325,
     "Key": 77,
     "DurationMs": 701,
     "Vel": 80
    },
    {
     "TimeMs": 175326,
     "Key": 74,
     "DurationMs": 701,
     "Vel": 80
    },
    {
     "TimeMs": 175326,
     "Key": 69,
     "DurationMs": 701,
     "Vel": 80
    },
    {
     "TimeMs": 175327,
     "Key": 38,
     "DurationMs": 347,
     "Vel": 80
    },
    {
     "TimeMs": 175328,
     "Key": 50,
     "DurationMs": 347,
     "Vel": 80
    },
    {
     "TimeMs": 175714,
     "Key": 26,
     "DurationMs": 350,
     "Vel": 80
    },
    {
     "TimeMs": 175714,
     "Key": 38,
     "DurationMs": 350,
     "Vel": 80
    },
    {
     "TimeMs": 176103,
     "Key": 58,
     "DurationMs": 350,
     "Vel": 80
    },
    {
     "TimeMs": 176104,
     "Key": 65,
     "DurationMs": 350,
     "Vel": 80
    },
    {
     "TimeMs": 176105,
     "Key": 34,
     "DurationMs": 173,
     "Vel": 80
    },
    {
     "TimeMs": 176298,
     "Key": 46,
     "DurationMs": 175,
     "Vel": 80
    },
    {
     "TimeMs": 176493,
     "Key": 53,
     "DurationMs": 350,
     "Vel": 80
    },
    {
     "TimeMs": 176494,
     "Key": 58,
     "DurationMs": 350,
     "Vel": 80
    },
    {
     "TimeMs": 176494,
     "Key": 64,
     "DurationMs": 350,
     "Vel": 80
    },
    {
     "TimeMs": 176495,
     "Key": 34,
     "DurationMs": 260,
     "Vel": 80
    },
    {
     "TimeMs": 176785,
     "Key": 46,
     "DurationMs": 87,
     "Vel": 80
    },
    {
     "TimeMs": 176882,
     "Key": 53,
     "DurationMs": 350,
     "Vel": 80
    },
    {
     "TimeMs": 176883,
     "Key": 58,
     "DurationMs": 350,
     "Vel": 80
    },
    {
     "TimeMs": 176884,
     "Key": 62,
     "DurationMs": 350,
     "Vel": 80
    },
    {
     "TimeMs": 176885,
     "Key": 34,
     "DurationMs": 172,
     "Vel": 80
    },
    {
     "TimeMs": 177077,
     "Key": 46,
     "DurationMs": 175,
     "Vel": 80
    },
    {
     "TimeMs": 177272,
     "Key": 53,
     "DurationMs": 350,
     "Vel": 80
    },
    {
     "TimeMs": 177273,
     "Key": 58,
     "DurationMs": 350,
     "Vel": 80
    },
    {
     "TimeMs": 177274,
     "Key": 60,
     "DurationMs": 350,
     "Vel": 80
    },
    {
     "TimeMs": 177274,
     "Key": 34,
     "DurationMs": 260,
     "Vel": 80
    },
    {
     "TimeMs": 177564,
     "Key": 46,
     "DurationMs": 87,
     "Vel": 80
    },
    {
     "TimeMs": 177662,
     "Key": 53,
     "DurationMs": 175,
     "Vel": 80
    },
    {
     "TimeMs": 177662,
     "Key": 57,
     "DurationMs": 175,
     "Vel": 80
    },
    {
     "TimeMs": 177663,
     "Key": 60,
     "DurationMs": 175,
     "Vel": 80
    },
    {
     "TimeMs": 177664,
     "Key": 29,
     "DurationMs": 175,
     "Vel": 80
    },
    {
     "TimeMs": 177856,
     "Key": 53,
     "DurationMs": 87,
     "Vel": 80
    },
    {
     "TimeMs": 177857,
     "Key": 57,
     "DurationMs": 87,
     "Vel": 80
    },
    {
     "TimeMs": 177858,
     "Key": 60,
     "DurationMs": 87,
     "Vel": 80
    },
    {
     "TimeMs": 177859,
     "Key": 41,
     "DurationMs": 172,
     "Vel": 80
    },
    {
     "TimeMs": 177954,
     "Key": 62,
     "DurationMs": 87,
     "Vel": 80
    },
    {
     "TimeMs": 178051,
     "Key": 53,
     "DurationMs": 175,
     "Vel": 80
    },
    {
     "TimeMs": 178052,
     "Key": 57,
     "DurationMs": 175,
     "Vel": 80
    },
    {
     "TimeMs": 178053,
     "Key": 29,
     "DurationMs": 261,
     "Vel": 80
    },
    {
     "TimeMs": 178246,
     "Key": 55,
     "DurationMs": 175,
     "Vel": 80
    },
    {
     "TimeMs": 178343,
     "Key": 41,
     "DurationMs": 87,
     "Vel": 80
    },
    {
     "TimeMs": 178441,
     "Key": 53,
     "DurationMs": 350,
     "Vel": 80
    },
    {
     "TimeMs": 178442,
     "Key": 57,
     "DurationMs": 350,
     "Vel": 80
    },
    {
     "TimeMs": 178443,
     "Key": 41,
     "DurationMs": 173,
     "Vel": 80
    },
    {
     "TimeMs": 178636,
     "Key": 41,
     "DurationMs": 175,
     "Vel": 80
    },
    {
     "TimeMs": 178830,
     "Key": 48,
     "DurationMs": 350,
     "Vel": 80
    },
    {
     "TimeMs": 178831,
     "Key": 53,
     "DurationMs": 350,
     "Vel": 80
    },
    {
     "TimeMs": 178832,
     "Key": 41,
     "DurationMs": 173,
     "Vel": 80
    },
    {
     "TimeMs": 179025,
     "Key": 41,
     "DurationMs": 175,
     "Vel": 80
    },
    {
     "TimeMs": 179220,
     "Key": 53,
     "DurationMs": 175,
     "Vel": 80
    },
    {
     "TimeMs": 179221,
     "Key": 57,
     "DurationMs": 175,
     "Vel": 80
    },
    {
     "TimeMs": 179222,
     "Key": 34,
     "DurationMs": 175,
     "Vel": 80
    },
    {
     "TimeMs": 179415,
     "Key": 60,
     "DurationMs": 175,
     "Vel": 80
    },
    {
     "TimeMs": 179416,
     "Key": 46,
     "DurationMs": 175,
     "Vel": 80
    },
    {
     "TimeMs": 179610,
     "Key": 53,
     "DurationMs": 350,
     "Vel": 80
    },
    {
     "TimeMs": 179611,
     "Key": 58,
     "DurationMs": 350,
     "Vel": 80
    },
    {
     "TimeMs": 179611,
     "Key": 62,
     "DurationMs": 350,
     "Vel": 80
    },
    {
     "TimeMs": 179612,
     "Key": 34,
     "DurationMs": 260,
     "Vel": 80
    },
    {
     "TimeMs": 179902,
     "Key": 46,
     "DurationMs": 87,
     "Vel": 80
    },
    {
     "TimeMs": 179999,
     "Key": 58,
     "DurationMs": 350,
     "Vel": 80
    },
    {
     "TimeMs": 180000,
     "Key": 60,
     "DurationMs": 350,
     "Vel": 80
    },
    {
     "TimeMs": 180001,
     "Key": 67,
     "DurationMs": 350,
     "Vel": 80
    },
    {
     "TimeMs": 180002,
     "Key": 36,
     "DurationMs": 172,
     "Vel": 80
    },
    {
     "TimeMs": 180194,
     "Key": 48,
     "DurationMs": 175,
     "Vel": 80
    },
    {
     "TimeMs": 180389,
     "Key": 55,
     "DurationMs": 350,
     "Vel": 80
    },
    {
     "TimeMs": 180390,
     "Key": 60,
     "DurationMs": 350,
     "Vel": 80
    },
    {
     "TimeMs": 180391,
     "Key": 64,
     "DurationMs": 350,
     "Vel": 80
    },
    {
     "TimeMs": 180391,
     "Key": 36,
     "DurationMs": 172,
     "Vel": 80
    },
    {
     "TimeMs": 180584,
     "Key": 36,
     "DurationMs": 87,
     "Vel": 80
    },
    {
     "TimeMs": 180681,
     "Key": 48,
     "DurationMs": 87,
     "Vel": 80
    },
    {
     "TimeMs": 180779,
     "Key": 57,
     "DurationMs": 175,
     "Vel": 80
    },
    {
     "TimeMs": 180779,
     "Key": 62,
     "DurationMs": 175,
     "Vel": 80
    },
    {
     "TimeMs": 180780,
     "Key": 65,
     "DurationMs": 175,
     "Vel": 80
    },
    {
     "TimeMs": 180781,
     "Key": 38,
     "DurationMs": 175,
     "Vel": 80
    },
    {
     "TimeMs": 180973,
     "Key": 53,
     "DurationMs": 175,
     "Vel": 80
    },
    {
     "TimeMs": 180974,
     "Key": 50,
     "DurationMs": 175,
     "Vel": 80
    },
    {
     "TimeMs": 181168,
     "Key": 57,
     "DurationMs": 87,
     "Vel": 80
    },
    {
     "TimeMs": 181169,
     "Key": 62,
     "DurationMs": 87,
     "Vel": 80
    },
    {
     "TimeMs": 181170,
     "Key": 64,
     "DurationMs": 87,
     "Vel": 80
    },
    {
     "TimeMs": 181171,
     "Key": 38,
     "DurationMs": 87,
     "Vel": 80
    },
    {
     "TimeMs": 181266,
     "Key": 53,
     "DurationMs": 87,
     "Vel": 80
    },
    {
     "TimeMs": 181266,
     "Key": 50,
     "DurationMs": 87,
     "Vel": 80
    },
    {
     "TimeMs": 181363,
     "Key": 57,
     "DurationMs": 87,
     "Vel": 80
    },
    {
     "TimeMs": 181364,
     "Key": 60,
     "DurationMs": 87,
     "Vel": 80
    },
    {
     "TimeMs": 181365,
     "Key": 38,
     "DurationMs": 87,
     "Vel": 80
    },
    {
     "TimeMs": 181460,
     "Key": 53,
     "DurationMs": 87,
     "Vel": 80
    },
    {
     "TimeMs": 181461,
     "Key": 50,
     "DurationMs": 87,
     "Vel": 80
    },
    {
     "TimeMs": 181558,
     "Key": 55,
     "DurationMs": 175,
     "Vel": 80
    },
    {
     "TimeMs": 181559,
     "Key": 57,
     "DurationMs": 175,
     "Vel": 80
    },
    {
     "TimeMs": 181559,
     "Key": 62,
     "DurationMs": 175,
     "Vel": 80
    },
    {
     "TimeMs": 181560,
     "Key": 38,
     "DurationMs": 175,
     "Vel": 80
    },
    {
     "TimeMs": 181753,
     "Key": 53,
     "DurationMs": 175,
     "Vel": 80
    },
    {
     "TimeMs": 181753,
     "Key": 50,
     "DurationMs": 175,
     "Vel": 80
    },
    {
     "TimeMs": 181947,
     "Key": 57,
     "DurationMs": 175,
     "Vel": 80
    },
    {
     "TimeMs": 181948,
     "Key": 38,
     "DurationMs": 175,
     "Vel": 80
    },
    {
     "TimeMs": 182142,
     "Key": 53,
     "DurationMs": 175,
     "Vel": 80
    },
    {
     "TimeMs": 182143,
     "Key": 50,
     "DurationMs": 175,
     "Vel": 80
    },
    {
     "TimeMs": 182337,
     "Key": 58,
     "DurationMs": 350,
     "Vel": 80
    },
    {
     "TimeMs": 182338,
     "Key": 65,
     "DurationMs": 350,
     "Vel": 80
    },
    {
     "TimeMs": 182339,
     "Key": 34,
     "DurationMs": 173,
     "Vel": 80
    },
    {
     "TimeMs": 182532,
     "Key": 46,
     "DurationMs": 175,
     "Vel": 80
    },
    {
     "TimeMs": 182727,
     "Key": 53,
     "DurationMs": 350,
     "Vel": 80
    },
    {
     "TimeMs": 182727,
     "Key": 58,
     "DurationMs": 350,
     "Vel": 80
    },
    {
     "TimeMs": 182728,
     "Key": 64,
     "DurationMs": 350,
     "Vel": 80
    },
    {
     "TimeMs": 182729,
     "Key": 34,
     "DurationMs": 260,
     "Vel": 80
    },
    {
     "TimeMs": 183019,
     "Key": 46,
     "DurationMs": 87,
     "Vel": 80
    },
    {
     "TimeMs": 183116,
     "Key": 53,
     "DurationMs": 350,
     "Vel": 80
    },
    {
     "TimeMs": 183117,
     "Key": 58,
     "DurationMs": 350,
     "Vel": 80
    },
    {
     "TimeMs": 183118,
     "Key": 62,
     "DurationMs": 350,
     "Vel": 80
    },
    {
     "TimeMs": 183119,
     "Key": 34,
     "DurationMs": 172,
     "Vel": 80
    },
    {
     "TimeMs": 183311,
     "Key": 46,
     "DurationMs": 175,
     "Vel": 80
    },
    {
     "TimeMs": 183506,
     "Key": 53,
     "DurationMs": 350,
     "Vel": 80
    },
    {
     "TimeMs": 183507,
     "Key": 58,
     "DurationMs": 350,
     "Vel": 80
    },
    {
     "TimeMs": 183507,
     "Key": 60,
     "DurationMs": 350,
     "Vel": 80
    },
    {
     "TimeMs": 183508,
     "Key": 34,
     "DurationMs": 260,
     "Vel": 80
    },
    {
     "TimeMs": 183798,
     "Key": 46,
     "DurationMs": 87,
     "Vel": 80
    },
    {
     "TimeMs": 183895,
     "Key": 53,
     "DurationMs": 175,
     "Vel": 80
    },
    {
     "TimeMs": 183896,
     "Key": 57,
     "DurationMs": 175,
     "Vel": 80
    },
    {
     "TimeMs": 183897,
     "Key": 60,
     "DurationMs": 175,
     "Vel": 80
    },
    {
     "TimeMs": 183898,
     "Key": 29,
     "DurationMs": 175,
     "Vel": 80
    },
    {
     "TimeMs": 184090,
     "Key": 53,
     "DurationMs": 87,
     "Vel": 80
    },
    {
     "TimeMs": 184091,
     "Key": 57,
     "DurationMs": 87,
     "Vel": 80
    },
    {
     "TimeMs": 184092,
     "Key": 60,
     "DurationMs": 87,
     "Vel": 80
    },
    {
     "TimeMs": 184093,
     "Key": 41,
     "DurationMs": 172,
     "Vel": 80
    },
    {
     "TimeMs": 184188,
     "Key": 62,
     "DurationMs": 87,
     "Vel": 80
    },
    {
     "TimeMs": 184285,
     "Key": 53,
     "DurationMs": 175,
     "Vel": 80
    },
    {
     "TimeMs": 184286,
     "Key": 57,
     "DurationMs": 175,
     "Vel": 80
    },
    {
     "TimeMs": 184287,
     "Key": 29,
     "DurationMs": 261,
     "Vel": 80
    },
    {
     "TimeMs": 184480,
     "Key": 55,
     "DurationMs": 175,
     "Vel": 80
    },
    {
     "TimeMs": 184577,
     "Key": 41,
     "DurationMs": 87,
     "Vel": 80
    },
    {
     "TimeMs": 184675,
     "Key": 53,
     "DurationMs": 350,
     "Vel": 80
    },
    {
     "TimeMs": 184675,
     "Key": 57,
     "DurationMs": 350,
     "Vel": 80
    },
    {
     "TimeMs": 184676,
     "Key": 41,
     "DurationMs": 173,
     "Vel": 80
    },
    {
     "TimeMs": 184869,
     "Key": 41,
     "DurationMs": 175,
     "Vel": 80
    },
    {
     "TimeMs": 185064,
     "Key": 48,
     "DurationMs": 175,
     "Vel": 80
    },
    {
     "TimeMs": 185065,
     "Key": 57,
     "DurationMs": 175,
     "Vel": 80
    },
    {
     "TimeMs": 185066,
     "Key": 41,
     "DurationMs": 175,
     "Vel": 80
    },
    {
     "TimeMs": 185259,
     "Key": 60,
     "DurationMs": 175,
     "Vel": 80
    },
    {
     "TimeMs": 185260,
     "Key": 41,
     "DurationMs": 175,
     "Vel": 80
    },
    {
     "TimeMs": 185442,
     "Key": 53,
     "DurationMs": 175,
     "Vel": 80
    },
    {
     "TimeMs": 185454,
     "Key": 55,
     "DurationMs": 175,
     "Vel": 80
    },
    {
     "TimeMs": 185455,
     "Key": 31,
     "DurationMs": 175,
     "Vel": 80
    },
    {
     "TimeMs": 185455,
     "Key": 43,
     "DurationMs": 175,
     "Vel": 80
    },
    {
     "TimeMs": 185466,
     "Key": 58,
     "DurationMs": 175,
     "Vel": 80
    },
    {
     "TimeMs": 185478,
     "Key": 62,
     "DurationMs": 175,
     "Vel": 80
    },
    {
     "TimeMs": 185649,
     "Key": 55,
     "DurationMs": 350,
     "Vel": 80
    },
    {
     "TimeMs": 185649,
     "Key": 58,
     "DurationMs": 350,
     "Vel": 80
    },
    {
     "TimeMs": 185650,
     "Key": 62,
     "DurationMs": 3,
     "Vel": 80
    },
    {
     "TimeMs": 185651,
     "Key": 43,
     "DurationMs": 350,
     "Vel": 80
    },
    {
     "TimeMs": 186038,
     "Key": 55,
     "DurationMs": 175,
     "Vel": 80
    },
    {
     "TimeMs": 186039,
     "Key": 58,
     "DurationMs": 175,
     "Vel": 80
    },
    {
     "TimeMs": 186040,
     "Key": 62,
     "DurationMs": 175,
     "Vel": 80
    },
    {
     "TimeMs": 186041,
     "Key": 43,
     "DurationMs": 175,
     "Vel": 80
    },
    {
     "TimeMs": 186233,
     "Key": 57,
     "DurationMs": 350,
     "Vel": 80
    },
    {
     "TimeMs": 186234,
     "Key": 65,
     "DurationMs": 350,
     "Vel": 80
    },
    {
     "TimeMs": 186235,
     "Key": 43,
     "DurationMs": 350,
     "Vel": 80
    },
    {
     "TimeMs": 186236,
     "Key": 50,
     "DurationMs": 350,
     "Vel": 80
    },
    {
     "TimeMs": 186623,
     "Key": 58,
     "DurationMs": 350,
     "Vel": 80
    },
    {
     "TimeMs": 186624,
     "Key": 62,
     "DurationMs": 350,
     "Vel": 80
    },
    {
     "TimeMs": 186624,
     "Key": 67,
     "DurationMs": 350,
     "Vel": 80
    },
    {
     "TimeMs": 186625,
     "Key": 43,
     "DurationMs": 350,
     "Vel": 80
    },
    {
     "TimeMs": 186626,
     "Key": 50,
     "DurationMs": 350,
     "Vel": 80
    },
    {
     "TimeMs": 187012,
     "Key": 55,
     "DurationMs": 350,
     "Vel": 80
    },
    {
     "TimeMs": 187013,
     "Key": 57,
     "DurationMs": 350,
     "Vel": 80
    },
    {
     "TimeMs": 187014,
     "Key": 61,
     "DurationMs": 350,
     "Vel": 80
    },
    {
     "TimeMs": 187015,
     "Key": 64,
     "DurationMs": 350,
     "Vel": 80
    },
    {
     "TimeMs": 187016,
     "Key": 33,
     "DurationMs": 172,
     "Vel": 80
    },
    {
     "TimeMs": 187016,
     "Key": 45,
     "DurationMs": 172,
     "Vel": 80
    },
    {
     "TimeMs": 187207,
     "Key": 45,
     "DurationMs": 175,
     "Vel": 80
    },
    {
     "TimeMs": 187402,
     "Key": 52,
     "DurationMs": 175,
     "Vel": 80
    },
    {
     "TimeMs": 187403,
     "Key": 55,
     "DurationMs": 175,
     "Vel": 80
    },
    {
     "TimeMs": 187404,
     "Key": 33,
     "DurationMs": 175,
     "Vel": 80
    },
    {
     "TimeMs": 187404,
     "Key": 45,
     "DurationMs": 175,
     "Vel": 80
    },
    {
     "TimeMs": 187597,
     "Key": 49,
     "DurationMs": 175,
     "Vel": 80
    },
    {
     "TimeMs": 187598,
     "Key": 52,
     "DurationMs": 175,
     "Vel": 80
    },
    {
     "TimeMs": 187598,
     "Key": 55,
     "DurationMs": 175,
     "Vel": 80
    },
    {
     "TimeMs": 187599,
     "Key": 57,
     "DurationMs": 175,
     "Vel": 80
    },
    {
     "TimeMs": 187600,
     "Key": 33,
     "DurationMs": 175,
     "Vel": 80
    },
    {
     "TimeMs": 187601,
     "Key": 45,
     "DurationMs": 175,
     "Vel": 80
    },
    {
     "TimeMs": 188181,
     "Key": 62,
     "DurationMs": 175,
     "Vel": 80
    },
    {
     "TimeMs": 188376,
     "Key": 65,
     "DurationMs": 175,
     "Vel": 80
    },
    {
     "TimeMs": 188571,
     "Key": 67,
     "DurationMs": 292,
     "Vel": 80
    },
    {
     "TimeMs": 188572,
     "Key": 50,
     "DurationMs": 349,
     "Vel": 80
    },
    {
     "TimeMs": 188864,
     "Key": 67,
     "DurationMs": 291,
     "Vel": 80
    },
    {
     "TimeMs": 188960,
     "Key": 57,
     "DurationMs": 175,
     "Vel": 80
    },
    {
     "TimeMs": 189156,
     "Key": 69,
     "DurationMs": 174,
     "Vel": 80
    },
    {
     "TimeMs": 189157,
     "Key": 50,
     "DurationMs": 174,
     "Vel": 80
    },
    {
     "TimeMs": 189350,
     "Key": 69,
     "DurationMs": 584,
     "Vel": 80
    },
    {
     "TimeMs": 189351,
     "Key": 46,
     "DurationMs": 349,
     "Vel": 80
    },
    {
     "TimeMs": 189740,
     "Key": 53,
     "DurationMs": 175,
     "Vel": 80
    },
    {
     "TimeMs": 189935,
     "Key": 69,
     "DurationMs": 174,
     "Vel": 80
    },
    {
     "TimeMs": 189936,
     "Key": 46,
     "DurationMs": 174,
     "Vel": 80
    },
    {
     "TimeMs": 190129,
     "Key": 72,
     "DurationMs": 175,
     "Vel": 80
    },
    {
     "TimeMs": 190130,
     "Key": 48,
     "DurationMs": 349,
     "Vel": 80
    },
    {
     "TimeMs": 190324,
     "Key": 74,
     "DurationMs": 175,
     "Vel": 80
    },
    {
     "TimeMs": 190519,
     "Key": 67,
     "DurationMs": 175,
     "Vel": 80
    },
    {
     "TimeMs": 190520,
     "Key": 55,
     "DurationMs": 175,
     "Vel": 80
    },
    {
     "TimeMs": 190714,
     "Key": 65,
     "DurationMs": 175,
     "Vel": 80
    },
    {
     "TimeMs": 190714,
     "Key": 48,
     "DurationMs": 175,
     "Vel": 80
    },
    {
     "TimeMs": 190908,
     "Key": 69,
     "DurationMs": 350,
     "Vel": 80
    },
    {
     "TimeMs": 190909,
     "Key": 41,
     "DurationMs": 350,
     "Vel": 80
    },
    {
     "TimeMs": 191298,
     "Key": 62,
     "DurationMs": 175,
     "Vel": 80
    },
    {
     "TimeMs": 191299,
     "Key": 53,
     "DurationMs": 175,
     "Vel": 80
    },
    {
     "TimeMs": 191493,
     "Key": 65,
     "DurationMs": 175,
     "Vel": 80
    },
    {
     "TimeMs": 191494,
     "Key": 48,
     "DurationMs": 175,
     "Vel": 80
    },
    {
     "TimeMs": 191688,
     "Key": 67,
     "DurationMs": 292,
     "Vel": 80
    },
    {
     "TimeMs": 191688,
     "Key": 50,
     "DurationMs": 349,
     "Vel": 80
    },
    {
     "TimeMs": 191981,
     "Key": 67,
     "DurationMs": 291,
     "Vel": 80
    },
    {
     "TimeMs": 192077,
     "Key": 57,
     "DurationMs": 175,
     "Vel": 80
    },
    {
     "TimeMs": 192273,
     "Key": 69,
     "DurationMs": 174,
     "Vel": 80
    },
    {
     "TimeMs": 192274,
     "Key": 50,
     "DurationMs": 174,
     "Vel": 80
    },
    {
     "TimeMs": 192467,
     "Key": 69,
     "DurationMs": 584,
     "Vel": 80
    },
    {
     "TimeMs": 192468,
     "Key": 46,
     "DurationMs": 349,
     "Vel": 80
    },
    {
     "TimeMs": 192856,
     "Key": 53,
     "DurationMs": 175,
     "Vel": 80
    },
    {
     "TimeMs": 193052,
     "Key": 69,
     "DurationMs": 174,
     "Vel": 80
    },
    {
     "TimeMs": 193053,
     "Key": 46,
     "DurationMs": 174,
     "Vel": 80
    },
    {
     "TimeMs": 193246,
     "Key": 70,
     "DurationMs": 175,
     "Vel": 80
    },
    {
     "TimeMs": 193247,
     "Key": 48,
     "DurationMs": 349,
     "Vel": 80
    },
    {
     "TimeMs": 193441,
     "Key": 69,
     "DurationMs": 175,
     "Vel": 80
    },
    {
     "TimeMs": 193636,
     "Key": 67,
     "DurationMs": 175,
     "Vel": 80
    },
    {
     "TimeMs": 193636,
     "Key": 55,
     "DurationMs": 175,
     "Vel": 80
    },
    {
     "TimeMs": 193830,
     "Key": 65,
     "DurationMs": 175,
     "Vel": 80
    },
    {
     "TimeMs": 193831,
     "Key": 48,
     "DurationMs": 175,
     "Vel": 80
    },
    {
     "TimeMs": 194025,
     "Key": 65,
     "DurationMs": 350,
     "Vel": 80
    },
    {
     "TimeMs": 194026,
     "Key": 41,
     "DurationMs": 350,
     "Vel": 80
    },
    {
     "TimeMs": 194415,
     "Key": 62,
     "DurationMs": 175,
     "Vel": 80
    },
    {
     "TimeMs": 194416,
     "Key": 41,
     "DurationMs": 175,
     "Vel": 80
    },
    {
     "TimeMs": 194417,
     "Key": 48,
     "DurationMs": 175,
     "Vel": 80
    },
    {
     "TimeMs": 194417,
     "Key": 53,
     "DurationMs": 175,
     "Vel": 80
    },
    {
     "TimeMs": 194610,
     "Key": 65,
     "DurationMs": 175,
     "Vel": 80
    },
    {
     "TimeMs": 194611,
     "Key": 41,
     "DurationMs": 175,
     "Vel": 80
    },
    {
     "TimeMs": 194611,
     "Key": 48,
     "DurationMs": 175,
     "Vel": 80
    },
    {
     "TimeMs": 194612,
     "Key": 53,
     "DurationMs": 175,
     "Vel": 80
    },
    {
     "TimeMs": 194805,
     "Key": 67,
     "DurationMs": 292,
     "Vel": 80
    },
    {
     "TimeMs": 194805,
     "Key": 38,
     "DurationMs": 349,
     "Vel": 80
    },
    {
     "TimeMs": 194806,
     "Key": 50,
     "DurationMs": 349,
     "Vel": 80
    },
    {
     "TimeMs": 195098,
     "Key": 67,
     "DurationMs": 291,
     "Vel": 80
    },
    {
     "TimeMs": 195194,
     "Key": 57,
     "DurationMs": 175,
     "Vel": 80
    },
    {
     "TimeMs": 195195,
     "Key": 53,
     "DurationMs": 175,
     "Vel": 80
    },
    {
     "TimeMs": 195390,
     "Key": 69,
     "DurationMs": 174,
     "Vel": 80
    },
    {
     "TimeMs": 195391,
     "Key": 50,
     "DurationMs": 174,
     "Vel": 80
    },
    {
     "TimeMs": 195584,
     "Key": 69,
     "DurationMs": 584,
     "Vel": 80
    },
    {
     "TimeMs": 195585,
     "Key": 34,
     "DurationMs": 349,
     "Vel": 80
    },
    {
     "TimeMs": 195585,
     "Key": 46,
     "DurationMs": 349,
     "Vel": 80
    },
    {
     "TimeMs": 195973,
     "Key": 57,
     "DurationMs": 175,
     "Vel": 80
    },
    {
     "TimeMs": 195974,
     "Key": 53,
     "DurationMs": 175,
     "Vel": 80
    },
    {
     "TimeMs": 196169,
     "Key": 69,
     "DurationMs": 174,
     "Vel": 80
    },
    {
     "TimeMs": 196170,
     "Key": 46,
     "DurationMs": 174,
     "Vel": 80
    },
    {
     "TimeMs": 196363,
     "Key": 72,
     "DurationMs": 175,
     "Vel": 80
    },
    {
     "TimeMs": 196364,
     "Key": 36,
     "DurationMs": 349,
     "Vel": 80
    },
    {
     "TimeMs": 196365,
     "Key": 48,
     "DurationMs": 349,
     "Vel": 80
    },
    {
     "TimeMs": 196558,
     "Key": 74,
     "DurationMs": 175,
     "Vel": 80
    },
    {
     "TimeMs": 196753,
     "Key": 67,
     "DurationMs": 175,
     "Vel": 80
    },
    {
     "TimeMs": 196753,
     "Key": 58,
     "DurationMs": 175,
     "Vel": 80
    },
    {
     "TimeMs": 196754,
     "Key": 55,
     "DurationMs": 175,
     "Vel": 80
    },
    {
     "TimeMs": 196947,
     "Key": 65,
     "DurationMs": 175,
     "Vel": 80
    },
    {
     "TimeMs": 196948,
     "Key": 48,
     "DurationMs": 175,
     "Vel": 80
    },
    {
     "TimeMs": 197142,
     "Key": 69,
     "DurationMs": 350,
     "Vel": 80
    },
    {
     "TimeMs": 197143,
     "Key": 41,
     "DurationMs": 350,
     "Vel": 80
    },
    {
     "TimeMs": 197532,
     "Key": 62,
     "DurationMs": 175,
     "Vel": 80
    },
    {
     "TimeMs": 197533,
     "Key": 57,
     "DurationMs": 175,
     "Vel": 80
    },
    {
     "TimeMs": 197533,
     "Key": 53,
     "DurationMs": 175,
     "Vel": 80
    },
    {
     "TimeMs": 197727,
     "Key": 65,
     "DurationMs": 175,
     "Vel": 80
    },
    {
     "TimeMs": 197727,
     "Key": 48,
     "DurationMs": 175,
     "Vel": 80
    },
    {
     "TimeMs": 197921,
     "Key": 70,
     "DurationMs": 350,
     "Vel": 80
    },
    {
     "TimeMs": 197922,
     "Key": 46,
     "DurationMs": 174,
     "Vel": 80
    },
    {
     "TimeMs": 197923,
     "Key": 34,
     "DurationMs": 174,
     "Vel": 80
    },
    {
     "TimeMs": 198116,
     "Key": 53,
     "DurationMs": 175,
     "Vel": 80
    },
    {
     "TimeMs": 198311,
     "Key": 69,
     "DurationMs": 350,
     "Vel": 80
    },
    {
     "TimeMs": 198312,
     "Key": 62,
     "DurationMs": 174,
     "Vel": 80
    },
    {
     "TimeMs": 198313,
     "Key": 58,
     "DurationMs": 174,
     "Vel": 80
    },
    {
     "TimeMs": 198506,
     "Key": 53,
     "DurationMs": 175,
     "Vel": 80
    },
    {
     "TimeMs": 198701,
     "Key": 67,
     "DurationMs": 350,
     "Vel": 80
    },
    {
     "TimeMs": 198701,
     "Key": 45,
     "DurationMs": 174,
     "Vel": 80
    },
    {
     "TimeMs": 198702,
     "Key": 33,
     "DurationMs": 174,
     "Vel": 80
    },
    {
     "TimeMs": 198895,
     "Key": 52,
     "DurationMs": 175,
     "Vel": 80
    },
    {
     "TimeMs": 199090,
     "Key": 65,
     "DurationMs": 350,
     "Vel": 80
    },
    {
     "TimeMs": 199091,
     "Key": 60,
     "DurationMs": 174,
     "Vel": 80
    },
    {
     "TimeMs": 199092,
     "Key": 55,
     "DurationMs": 174,
     "Vel": 80
    },
    {
     "TimeMs": 199285,
     "Key": 52,
     "DurationMs": 175,
     "Vel": 80
    },
    {
     "TimeMs": 199480,
     "Key": 67,
     "DurationMs": 175,
     "Vel": 80
    },
    {
     "TimeMs": 199481,
     "Key": 34,
     "DurationMs": 175,
     "Vel": 80
    },
    {
     "TimeMs": 199481,
     "Key": 46,
     "DurationMs": 175,
     "Vel": 80
    },
    {
     "TimeMs": 199675,
     "Key": 69,
     "DurationMs": 175,
     "Vel": 80
    },
    {
     "TimeMs": 199675,
     "Key": 53,
     "DurationMs": 175,
     "Vel": 80
    },
    {
     "TimeMs": 199869,
     "Key": 67,
     "DurationMs": 175,
     "Vel": 80
    },
    {
     "TimeMs": 199870,
     "Key": 36,
     "DurationMs": 175,
     "Vel": 80
    },
    {
     "TimeMs": 199871,
     "Key": 48,
     "DurationMs": 175,
     "Vel": 80
    },
    {
     "TimeMs": 200064,
     "Key": 69,
     "DurationMs": 175,
     "Vel": 80
    },
    {
     "TimeMs": 200065,
     "Key": 55,
     "DurationMs": 175,
     "Vel": 80
    },
    {
     "TimeMs": 200259,
     "Key": 69,
     "DurationMs": 350,
     "Vel": 80
    },
    {
     "TimeMs": 200260,
     "Key": 38,
     "DurationMs": 350,
     "Vel": 80
    },
    {
     "TimeMs": 200261,
     "Key": 50,
     "DurationMs": 350,
     "Vel": 80
    },
    {
     "TimeMs": 200649,
     "Key": 55,
     "DurationMs": 175,
     "Vel": 80
    },
    {
     "TimeMs": 200649,
     "Key": 64,
     "DurationMs": 175,
     "Vel": 80
    },
    {
     "TimeMs": 200650,
     "Key": 40,
     "DurationMs": 175,
     "Vel": 80
    },
    {
     "TimeMs": 200651,
     "Key": 47,
     "DurationMs": 175,
     "Vel": 80
    },
    {
     "TimeMs": 200652,
     "Key": 52,
     "DurationMs": 175,
     "Vel": 80
    },
    {
     "TimeMs": 200843,
     "Key": 67,
     "DurationMs": 175,
     "Vel": 80
    },
    {
     "TimeMs": 200844,
     "Key": 28,
     "DurationMs": 175,
     "Vel": 80
    },
    {
     "TimeMs": 201038,
     "Key": 59,
     "DurationMs": 262,
     "Vel": 80
    },
    {
     "TimeMs": 201039,
     "Key": 64,
     "DurationMs": 262,
     "Vel": 80
    },
    {
     "TimeMs": 201040,
     "Key": 69,
     "DurationMs": 262,
     "Vel": 80
    },
    {
     "TimeMs": 201041,
     "Key": 52,
     "DurationMs": 172,
     "Vel": 80
    },
    {
     "TimeMs": 201042,
     "Key": 40,
     "DurationMs": 172,
     "Vel": 80
    },
    {
     "TimeMs": 201233,
     "Key": 52,
     "DurationMs": 87,
     "Vel": 80
    },
    {
     "TimeMs": 201330,
     "Key": 64,
     "DurationMs": 262,
     "Vel": 80
    },
    {
     "TimeMs": 201331,
     "Key": 69,
     "DurationMs": 262,
     "Vel": 80
    },
    {
     "TimeMs": 201332,
     "Key": 55,
     "DurationMs": 86,
     "Vel": 80
    },
    {
     "TimeMs": 201428,
     "Key": 59,
     "DurationMs": 175,
     "Vel": 80
    },
    {
     "TimeMs": 201429,
     "Key": 52,
     "DurationMs": 175,
     "Vel": 80
    },
    {
     "TimeMs": 201623,
     "Key": 64,
     "DurationMs": 175,
     "Vel": 80
    },
    {
     "TimeMs": 201623,
     "Key": 67,
     "DurationMs": 175,
     "Vel": 80
    },
    {
     "TimeMs": 201624,
     "Key": 71,
     "DurationMs": 175,
     "Vel": 80
    },
    {
     "TimeMs": 201625,
     "Key": 52,
     "DurationMs": 175,
     "Vel": 80
    },
    {
     "TimeMs": 201817,
     "Key": 64,
     "DurationMs": 525,
     "Vel": 80
    },
    {
     "TimeMs": 201818,
     "Key": 67,
     "DurationMs": 525,
     "Vel": 80
    },
    {
     "TimeMs": 201819,
     "Key": 71,
     "DurationMs": 525,
     "Vel": 80
    },
    {
     "TimeMs": 201820,
     "Key": 48,
     "DurationMs": 172,
     "Vel": 80
    },
    {
     "TimeMs": 201821,
     "Key": 36,
     "DurationMs": 172,
     "Vel": 80
    },
    {
     "TimeMs": 202012,
     "Key": 52,
     "DurationMs": 87,
     "Vel": 80
    },
    {
     "TimeMs": 202110,
     "Key": 55,
     "DurationMs": 87,
     "Vel": 80
    },
    {
     "TimeMs": 202207,
     "Key": 60,
     "DurationMs": 175,
     "Vel": 80
    },
    {
     "TimeMs": 202208,
     "Key": 52,
     "DurationMs": 175,
     "Vel": 80
    },
    {
     "TimeMs": 202402,
     "Key": 71,
     "DurationMs": 175,
     "Vel": 80
    },
    {
     "TimeMs": 202403,
     "Key": 48,
     "DurationMs": 175,
     "Vel": 80
    },
    {
     "TimeMs": 202597,
     "Key": 66,
     "DurationMs": 175,
     "Vel": 80
    },
    {
     "TimeMs": 202598,
     "Key": 69,
     "DurationMs": 175,
     "Vel": 80
    },
    {
     "TimeMs": 202598,
     "Key": 74,
     "DurationMs": 175,
     "Vel": 80
    },
    {
     "TimeMs": 202599,
     "Key": 38,
     "DurationMs": 175,
     "Vel": 80
    },
    {
     "TimeMs": 202600,
     "Key": 50,
     "DurationMs": 175,
     "Vel": 80
    },
    {
     "TimeMs": 202792,
     "Key": 76,
     "DurationMs": 175,
     "Vel": 80
    },
    {
     "TimeMs": 202792,
     "Key": 50,
     "DurationMs": 86,
     "Vel": 80
    },
    {
     "TimeMs": 202889,
     "Key": 54,
     "DurationMs": 87,
     "Vel": 80
    },
    {
     "TimeMs": 202986,
     "Key": 60,
     "DurationMs": 175,
     "Vel": 80
    },
    {
     "TimeMs": 202987,
     "Key": 66,
     "DurationMs": 175,
     "Vel": 80
    },
    {
     "TimeMs": 202988,
     "Key": 69,
     "DurationMs": 175,
     "Vel": 80
    },
    {
     "TimeMs": 202989,
     "Key": 57,
     "DurationMs": 175,
     "Vel": 80
    },
    {
     "TimeMs": 202990,
     "Key": 50,
     "DurationMs": 175,
     "Vel": 80
    },
    {
     "TimeMs": 203181,
     "Key": 67,
     "DurationMs": 175,
     "Vel": 80
    },
    {
     "TimeMs": 203182,
     "Key": 50,
     "DurationMs": 175,
     "Vel": 80
    },
    {
     "TimeMs": 203376,
     "Key": 62,
     "DurationMs": 350,
     "Vel": 80
    },
    {
     "TimeMs": 203377,
     "Key": 67,
     "DurationMs": 350,
     "Vel": 80
    },
    {
     "TimeMs": 203378,
     "Key": 71,
     "DurationMs": 350,
     "Vel": 80
    },
    {
     "TimeMs": 203378,
     "Key": 43,
     "DurationMs": 172,
     "Vel": 80
    },
    {
     "TimeMs": 203379,
     "Key": 55,
     "DurationMs": 172,
     "Vel": 80
    },
    {
     "TimeMs": 203571,
     "Key": 50,
     "DurationMs": 87,
     "Vel": 80
    },
    {
     "TimeMs": 203668,
     "Key": 50,
     "DurationMs": 87,
     "Vel": 80
    },
    {
     "TimeMs": 203766,
     "Key": 64,
     "DurationMs": 175,
     "Vel": 80
    },
    {
     "TimeMs": 203766,
     "Key": 59,
     "DurationMs": 175,
     "Vel": 80
    },
    {
     "TimeMs": 203767,
     "Key": 55,
     "DurationMs": 175,
     "Vel": 80
    },
    {
     "TimeMs": 203960,
     "Key": 67,
     "DurationMs": 175,
     "Vel": 80
    },
    {
     "TimeMs": 203961,
     "Key": 50,
     "DurationMs": 175,
     "Vel": 80
    },
    {
     "TimeMs": 204155,
     "Key": 59,
     "DurationMs": 262,
     "Vel": 80
    },
    {
     "TimeMs": 204156,
     "Key": 64,
     "DurationMs": 262,
     "Vel": 80
    },
    {
     "TimeMs": 204157,
     "Key": 69,
     "DurationMs": 262,
     "Vel": 80
    },
    {
     "TimeMs": 204158,
     "Key": 52,
     "DurationMs": 172,
     "Vel": 80
    },
    {
     "TimeMs": 204158,
     "Key": 40,
     "DurationMs": 172,
     "Vel": 80
    },
    {
     "TimeMs": 204350,
     "Key": 52,
     "DurationMs": 87,
     "Vel": 80
    },
    {
     "TimeMs": 204447,
     "Key": 64,
     "DurationMs": 262,
     "Vel": 80
    },
    {
     "TimeMs": 204448,
     "Key": 69,
     "DurationMs": 262,
     "Vel": 80
    },
    {
     "TimeMs": 204449,
     "Key": 55,
     "DurationMs": 86,
     "Vel": 80
    },
    {
     "TimeMs": 204545,
     "Key": 59,
     "DurationMs": 175,
     "Vel": 80
    },
    {
     "TimeMs": 204546,
     "Key": 52,
     "DurationMs": 175,
     "Vel": 80
    },
    {
     "TimeMs": 204740,
     "Key": 64,
     "DurationMs": 175,
     "Vel": 80
    },
    {
     "TimeMs": 204740,
     "Key": 67,
     "DurationMs": 175,
     "Vel": 80
    },
    {
     "TimeMs": 204741,
     "Key": 71,
     "DurationMs": 175,
     "Vel": 80
    },
    {
     "TimeMs": 204742,
     "Key": 52,
     "DurationMs": 175,
     "Vel": 80
    },
    {
     "TimeMs": 204934,
     "Key": 64,
     "DurationMs": 525,
     "Vel": 80
    },
    {
     "TimeMs": 204935,
     "Key": 67,
     "DurationMs": 525,
     "Vel": 80
    },
    {
     "TimeMs": 204936,
     "Key": 71,
     "DurationMs": 525,
     "Vel": 80
    },
    {
     "TimeMs": 204937,
     "Key": 48,
     "DurationMs": 172,
     "Vel": 80
    },
    {
     "TimeMs": 204938,
     "Key": 36,
     "DurationMs": 172,
     "Vel": 80
    },
    {
     "TimeMs": 205129,
     "Key": 52,
     "DurationMs": 87,
     "Vel": 80
    },
    {
     "TimeMs": 205227,
     "Key": 55,
     "DurationMs": 87,
     "Vel": 80
    },
    {
     "TimeMs": 205324,
     "Key": 60,
     "DurationMs": 175,
     "Vel": 80
    },
    {
     "TimeMs": 205325,
     "Key": 52,
     "DurationMs": 175,
     "Vel": 80
    },
    {
     "TimeMs": 205519,
     "Key": 71,
     "DurationMs": 175,
     "Vel": 80
    },
    {
     "TimeMs": 205520,
     "Key": 48,
     "DurationMs": 175,
     "Vel": 80
    },
    {
     "TimeMs": 205714,
     "Key": 66,
     "DurationMs": 175,
     "Vel": 80
    },
    {
     "TimeMs": 205714,
     "Key": 69,
     "DurationMs": 175,
     "Vel": 80
    },
    {
     "TimeMs": 205715,
     "Key": 72,
     "DurationMs": 175,
     "Vel": 80
    },
    {
     "TimeMs": 205716,
     "Key": 38,
     "DurationMs": 175,
     "Vel": 80
    },
    {
     "TimeMs": 205717,
     "Key": 50,
     "DurationMs": 175,
     "Vel": 80
    },
    {
     "TimeMs": 205908,
     "Key": 71,
     "DurationMs": 175,
     "Vel": 80
    },
    {
     "TimeMs": 205909,
     "Key": 50,
     "DurationMs": 86,
     "Vel": 80
    },
    {
     "TimeMs": 206006,
     "Key": 54,
     "DurationMs": 87,
     "Vel": 80
    },
    {
     "TimeMs": 206103,
     "Key": 60,
     "DurationMs": 175,
     "Vel": 80
    },
    {
     "TimeMs": 206104,
     "Key": 66,
     "DurationMs": 175,
     "Vel": 80
    },
    {
     "TimeMs": 206105,
     "Key": 69,
     "DurationMs": 175,
     "Vel": 80
    },
    {
     "TimeMs": 206106,
     "Key": 57,
     "DurationMs": 175,
     "Vel": 80
    },
    {
     "TimeMs": 206106,
     "Key": 50,
     "DurationMs": 175,
     "Vel": 80
    },
    {
     "TimeMs": 206298,
     "Key": 67,
     "DurationMs": 175,
     "Vel": 80
    },
    {
     "TimeMs": 206299,
     "Key": 50,
     "DurationMs": 175,
     "Vel": 80
    },
    {
     "TimeMs": 206493,
     "Key": 59,
     "DurationMs": 350,
     "Vel": 80
    },
    {
     "TimeMs": 206494,
     "Key": 62,
     "DurationMs": 350,
     "Vel": 80
    },
    {
     "TimeMs": 206494,
     "Key": 67,
     "DurationMs": 350,
     "Vel": 80
    },
    {
     "TimeMs": 206495,
     "Key": 43,
     "DurationMs": 172,
     "Vel": 80
    },
    {
     "TimeMs": 206496,
     "Key": 55,
     "DurationMs": 172,
     "Vel": 80
    },
    {
     "TimeMs": 206688,
     "Key": 50,
     "DurationMs": 87,
     "Vel": 80
    },
    {
     "TimeMs": 206785,
     "Key": 50,
     "DurationMs": 87,
     "Vel": 80
    },
    {
     "TimeMs": 206882,
     "Key": 59,
     "DurationMs": 175,
     "Vel": 80
    },
    {
     "TimeMs": 206883,
     "Key": 64,
     "DurationMs": 175,
     "Vel": 80
    },
    {
     "TimeMs": 206884,
     "Key": 43,
     "DurationMs": 175,
     "Vel": 80
    },
    {
     "TimeMs": 206885,
     "Key": 55,
     "DurationMs": 175,
     "Vel": 80
    },
    {
     "TimeMs": 207077,
     "Key": 67,
     "DurationMs": 175,
     "Vel": 80
    },
    {
     "TimeMs": 207078,
     "Key": 50,
     "DurationMs": 175,
     "Vel": 80
    },
    {
     "TimeMs": 207272,
     "Key": 59,
     "DurationMs": 262,
     "Vel": 80
    },
    {
     "TimeMs": 207273,
     "Key": 64,
     "DurationMs": 262,
     "Vel": 80
    },
    {
     "TimeMs": 207274,
     "Key": 69,
     "DurationMs": 262,
     "Vel": 80
    },
    {
     "TimeMs": 207274,
     "Key": 52,
     "DurationMs": 172,
     "Vel": 80
    },
    {
     "TimeMs": 207275,
     "Key": 40,
     "DurationMs": 172,
     "Vel": 80
    },
    {
     "TimeMs": 207467,
     "Key": 52,
     "DurationMs": 87,
     "Vel": 80
    },
    {
     "TimeMs": 207564,
     "Key": 64,
     "DurationMs": 262,
     "Vel": 80
    },
    {
     "TimeMs": 207565,
     "Key": 69,
     "DurationMs": 262,
     "Vel": 80
    },
    {
     "TimeMs": 207566,
     "Key": 55,
     "DurationMs": 86,
     "Vel": 80
    },
    {
     "TimeMs": 207662,
     "Key": 59,
     "DurationMs": 175,
     "Vel": 80
    },
    {
     "TimeMs": 207662,
     "Key": 52,
     "DurationMs": 175,
     "Vel": 80
    },
    {
     "TimeMs": 207856,
     "Key": 64,
     "DurationMs": 175,
     "Vel": 80
    },
    {
     "TimeMs": 207857,
     "Key": 67,
     "DurationMs": 175,
     "Vel": 80
    },
    {
     "TimeMs": 207858,
     "Key": 71,
     "DurationMs": 175,
     "Vel": 80
    },
    {
     "TimeMs": 207859,
     "Key": 52,
     "DurationMs": 175,
     "Vel": 80
    },
    {
     "TimeMs": 208051,
     "Key": 64,
     "DurationMs": 525,
     "Vel": 80
    },
    {
     "TimeMs": 208052,
     "Key": 67,
     "DurationMs": 525,
     "Vel": 80
    },
    {
     "TimeMs": 208053,
     "Key": 71,
     "DurationMs": 525,
     "Vel": 80
    },
    {
     "TimeMs": 208054,
     "Key": 48,
     "DurationMs": 172,
     "Vel": 80
    },
    {
     "TimeMs": 208054,
     "Key": 36,
     "DurationMs": 172,
     "Vel": 80
    },
    {
     "TimeMs": 208246,
     "Key": 52,
     "DurationMs": 87,
     "Vel": 80
    },
    {
     "TimeMs": 208343,
     "Key": 55,
     "DurationMs": 87,
     "Vel": 80
    },
    {
     "TimeMs": 208441,
     "Key": 60,
     "DurationMs": 175,
     "Vel": 80
    },
    {
     "TimeMs": 208442,
     "Key": 52,
     "DurationMs": 175,
     "Vel": 80
    },
    {
     "TimeMs": 208636,
     "Key": 71,
     "DurationMs": 175,
     "Vel": 80
    },
    {
     "TimeMs": 208636,
     "Key": 48,
     "DurationMs": 175,
     "Vel": 80
    },
    {
     "TimeMs": 208830,
     "Key": 66,
     "DurationMs": 175,
     "Vel": 80
    },
    {
     "TimeMs": 208831,
     "Key": 69,
     "DurationMs": 175,
     "Vel": 80
    },
    {
     "TimeMs": 208832,
     "Key": 74,
     "DurationMs": 175,
     "Vel": 80
    },
    {
     "TimeMs": 208833,
     "Key": 38,
     "DurationMs": 175,
     "Vel": 80
    },
    {
     "TimeMs": 208834,
     "Key": 50,
     "DurationMs": 175,
     "Vel": 80
    },
    {
     "TimeMs": 209025,
     "Key": 76,
     "DurationMs": 175,
     "Vel": 80
    },
    {
     "TimeMs": 209026,
     "Key": 50,
     "DurationMs": 86,
     "Vel": 80
    },
    {
     "TimeMs": 209123,
     "Key": 54,
     "DurationMs": 87,
     "Vel": 80
    },
    {
     "TimeMs": 209220,
     "Key": 60,
     "DurationMs": 175,
     "Vel": 80
    },
    {
     "TimeMs": 209221,
     "Key": 66,
     "DurationMs": 175,
     "Vel": 80
    },
    {
     "TimeMs": 209222,
     "Key": 69,
     "DurationMs": 175,
     "Vel": 80
    },
    {
     "TimeMs": 209223,
     "Key": 57,
     "DurationMs": 175,
     "Vel": 80
    },
    {
     "TimeMs": 209223,
     "Key": 50,
     "DurationMs": 175,
     "Vel": 80
    },
    {
     "TimeMs": 209415,
     "Key": 67,
     "DurationMs": 175,
     "Vel": 80
    },
    {
     "TimeMs": 209416,
     "Key": 50,
     "DurationMs": 175,
     "Vel": 80
    },
    {
     "TimeMs": 209610,
     "Key": 62,
     "DurationMs": 350,
     "Vel": 80
    },
    {
     "TimeMs": 209610,
     "Key": 67,
     "DurationMs": 350,
     "Vel": 80
    },
    {
     "TimeMs": 209611,
     "Key": 71,
     "DurationMs": 350,
     "Vel": 80
    },
    {
     "TimeMs": 209612,
     "Key": 43,
     "DurationMs": 172,
     "Vel": 80
    },
    {
     "TimeMs": 209613,
     "Key": 55,
     "DurationMs": 172,
     "Vel": 80
    },
    {
     "TimeMs": 209804,
     "Key": 50,
     "DurationMs": 87,
     "Vel": 80
    },
    {
     "TimeMs": 209902,
     "Key": 50,
     "DurationMs": 87,
     "Vel": 80
    },
    {
     "TimeMs": 209999,
     "Key": 64,
     "DurationMs": 175,
     "Vel": 80
    },
    {
     "TimeMs": 210000,
     "Key": 59,
     "DurationMs": 175,
     "Vel": 80
    },
    {
     "TimeMs": 210001,
     "Key": 55,
     "DurationMs": 175,
     "Vel": 80
    },
    {
     "TimeMs": 210194,
     "Key": 67,
     "DurationMs": 175,
     "Vel": 80
    },
    {
     "TimeMs": 210195,
     "Key": 50,
     "DurationMs": 175,
     "Vel": 80
    },
    {
     "TimeMs": 210389,
     "Key": 64,
     "DurationMs": 350,
     "Vel": 80
    },
    {
     "TimeMs": 210390,
     "Key": 67,
     "DurationMs": 350,
     "Vel": 80
    },
    {
     "TimeMs": 210391,
     "Key": 72,
     "DurationMs": 350,
     "Vel": 80
    },
    {
     "TimeMs": 210391,
     "Key": 48,
     "DurationMs": 172,
     "Vel": 80
    },
    {
     "TimeMs": 210392,
     "Key": 36,
     "DurationMs": 172,
     "Vel": 80
    },
    {
     "TimeMs": 210584,
     "Key": 52,
     "DurationMs": 87,
     "Vel": 80
    },
    {
     "TimeMs": 210681,
     "Key": 55,
     "DurationMs": 87,
     "Vel": 80
    },
    {
     "TimeMs": 210779,
     "Key": 64,
     "DurationMs": 350,
     "Vel": 80
    },
    {
     "TimeMs": 210779,
     "Key": 67,
     "DurationMs": 350,
     "Vel": 80
    },
    {
     "TimeMs": 210780,
     "Key": 71,
     "DurationMs": 350,
     "Vel": 80
    },
    {
     "TimeMs": 210781,
     "Key": 60,
     "DurationMs": 172,
     "Vel": 80
    },
    {
     "TimeMs": 210782,
     "Key": 48,
     "DurationMs": 172,
     "Vel": 80
    },
    {
     "TimeMs": 210973,
     "Key": 52,
     "DurationMs": 87,
     "Vel": 80
    },
    {
     "TimeMs": 211071,
     "Key": 55,
     "DurationMs": 87,
     "Vel": 80
    },
    {
     "TimeMs": 211168,
     "Key": 62,
     "DurationMs": 350,
     "Vel": 80
    },
    {
     "TimeMs": 211169,
     "Key": 66,
     "DurationMs": 350,
     "Vel": 80
    },
    {
     "TimeMs": 211170,
     "Key": 69,
     "DurationMs": 350,
     "Vel": 80
    },
    {
     "TimeMs": 211171,
     "Key": 35,
     "DurationMs": 172,
     "Vel": 80
    },
    {
     "TimeMs": 211171,
     "Key": 47,
     "DurationMs": 172,
     "Vel": 80
    },
    {
     "TimeMs": 211363,
     "Key": 50,
     "DurationMs": 87,
     "Vel": 80
    },
    {
     "TimeMs": 211460,
     "Key": 54,
     "DurationMs": 87,
     "Vel": 80
    },
    {
     "TimeMs": 211558,
     "Key": 62,
     "DurationMs": 350,
     "Vel": 80
    },
    {
     "TimeMs": 211559,
     "Key": 66,
     "DurationMs": 350,
     "Vel": 80
    },
    {
     "TimeMs": 211559,
     "Key": 67,
     "DurationMs": 350,
     "Vel": 80
    },
    {
     "TimeMs": 211560,
     "Key": 59,
     "DurationMs": 172,
     "Vel": 80
    },
    {
     "TimeMs": 211561,
     "Key": 47,
     "DurationMs": 172,
     "Vel": 80
    },
    {
     "TimeMs": 211753,
     "Key": 50,
     "DurationMs": 87,
     "Vel": 80
    },
    {
     "TimeMs": 211850,
     "Key": 54,
     "DurationMs": 87,
     "Vel": 80
    },
    {
     "TimeMs": 211947,
     "Key": 60,
     "DurationMs": 175,
     "Vel": 80
    },
    {
     "TimeMs": 211948,
     "Key": 64,
     "DurationMs": 175,
     "Vel": 80
    },
    {
     "TimeMs": 211949,
     "Key": 69,
     "DurationMs": 175,
     "Vel": 80
    },
    {
     "TimeMs": 211950,
     "Key": 36,
     "DurationMs": 193,
     "Vel": 80
    },
    {
     "TimeMs": 211951,
     "Key": 48,
     "DurationMs": 193,
     "Vel": 80
    },
    {
     "TimeMs": 212142,
     "Key": 67,
     "DurationMs": 175,
     "Vel": 80
    },
    {
     "TimeMs": 212145,
     "Key": 48,
     "DurationMs": 153,
     "Vel": 80
    },
    {
     "TimeMs": 212337,
     "Key": 62,
     "DurationMs": 175,
     "Vel": 80
    },
    {
     "TimeMs": 212338,
     "Key": 66,
     "DurationMs": 175,
     "Vel": 80
    },
    {
     "TimeMs": 212339,
     "Key": 71,
     "DurationMs": 175,
     "Vel": 80
    },
    {
     "TimeMs": 212339,
     "Key": 38,
     "DurationMs": 193,
     "Vel": 80
    },
    {
     "TimeMs": 212340,
     "Key": 50,
     "DurationMs": 193,
     "Vel": 80
    },
    {
     "TimeMs": 212532,
     "Key": 74,
     "DurationMs": 175,
     "Vel": 80
    },
    {
     "TimeMs": 212534,
     "Key": 50,
     "DurationMs": 153,
     "Vel": 80
    },
    {
     "TimeMs": 212727,
     "Key": 76,
     "DurationMs": 350,
     "Vel": 80
    },
    {
     "TimeMs": 212727,
     "Key": 71,
     "DurationMs": 350,
     "Vel": 80
    },
    {
     "TimeMs": 212728,
     "Key": 67,
     "DurationMs": 350,
     "Vel": 80
    },
    {
     "TimeMs": 212729,
     "Key": 40,
     "DurationMs": 172,
     "Vel": 80
    },
    {
     "TimeMs": 212730,
     "Key": 52,
     "DurationMs": 172,
     "Vel": 80
    },
    {
     "TimeMs": 212921,
     "Key": 47,
     "DurationMs": 87,
     "Vel": 80
    },
    {
     "TimeMs": 213019,
     "Key": 47,
     "DurationMs": 87,
     "Vel": 80
    },
    {
     "TimeMs": 213116,
     "Key": 55,
     "DurationMs": 350,
     "Vel": 80
    },
    {
     "TimeMs": 213117,
     "Key": 59,
     "DurationMs": 350,
     "Vel": 80
    },
    {
     "TimeMs": 213118,
     "Key": 40,
     "DurationMs": 173,
     "Vel": 80
    },
    {
     "TimeMs": 213119,
     "Key": 52,
     "DurationMs": 173,
     "Vel": 80
    },
    {
     "TimeMs": 213311,
     "Key": 40,
     "DurationMs": 175,
     "Vel": 80
    },
    {
     "TimeMs": 213312,
     "Key": 52,
     "DurationMs": 175,
     "Vel": 80
    },
    {
     "TimeMs": 213506,
     "Key": 69,
     "DurationMs": 175,
     "Vel": 80
    },
    {
     "TimeMs": 213507,
     "Key": 36,
     "DurationMs": 175,
     "Vel": 80
    },
    {
     "TimeMs": 213507,
     "Key": 48,
     "DurationMs": 175,
     "Vel": 80
    },
    {
     "TimeMs": 213701,
     "Key": 71,
     "DurationMs": 175,
     "Vel": 80
    },
    {
     "TimeMs": 213701,
     "Key": 52,
     "DurationMs": 175,
     "Vel": 80
    },
    {
     "TimeMs": 213702,
     "Key": 55,
     "DurationMs": 175,
     "Vel": 80
    },
    {
     "TimeMs": 213895,
     "Key": 64,
     "DurationMs": 87,
     "Vel": 80
    },
    {
     "TimeMs": 213896,
     "Key": 48,
     "DurationMs": 174,
     "Vel": 80
    },
    {
     "TimeMs": 213993,
     "Key": 62,
     "DurationMs": 87,
     "Vel": 80
    },
    {
     "TimeMs": 214090,
     "Key": 64,
     "DurationMs": 87,
     "Vel": 80
    },
    {
     "TimeMs": 214091,
     "Key": 52,
     "DurationMs": 174,
     "Vel": 80
    },
    {
     "TimeMs": 214092,
     "Key": 55,
     "DurationMs": 174,
     "Vel": 80
    },
    {
     "TimeMs": 214188,
     "Key": 62,
     "DurationMs": 87,
     "Vel": 80
    },
    {
     "TimeMs": 214285,
     "Key": 69,
     "DurationMs": 175,
     "Vel": 80
    },
    {
     "TimeMs": 214286,
     "Key": 50,
     "DurationMs": 175,
     "Vel": 80
    },
    {
     "TimeMs": 214287,
     "Key": 38,
     "DurationMs": 175,
     "Vel": 80
    },
    {
     "TimeMs": 214480,
     "Key": 71,
     "DurationMs": 175,
     "Vel": 80
    },
    {
     "TimeMs": 214481,
     "Key": 57,
     "DurationMs": 175,
     "Vel": 80
    },
    {
     "TimeMs": 214481,
     "Key": 54,
     "DurationMs": 175,
     "Vel": 80
    },
    {
     "TimeMs": 214675,
     "Key": 64,
     "DurationMs": 87,
     "Vel": 80
    },
    {
     "TimeMs": 214675,
     "Key": 50,
     "DurationMs": 174,
     "Vel": 80
    },
    {
     "TimeMs": 214772,
     "Key": 62,
     "DurationMs": 87,
     "Vel": 80
    },
    {
     "TimeMs": 214869,
     "Key": 64,
     "DurationMs": 87,
     "Vel": 80
    },
    {
     "TimeMs": 214870,
     "Key": 57,
     "DurationMs": 174,
     "Vel": 80
    },
    {
     "TimeMs": 214871,
     "Key": 54,
     "DurationMs": 174,
     "Vel": 80
    },
    {
     "TimeMs": 214967,
     "Key": 62,
     "DurationMs": 87,
     "Vel": 80
    },
    {
     "TimeMs": 215064,
     "Key": 69,
     "DurationMs": 175,
     "Vel": 80
    },
    {
     "TimeMs": 215065,
     "Key": 52,
     "DurationMs": 175,
     "Vel": 80
    },
    {
     "TimeMs": 215066,
     "Key": 40,
     "DurationMs": 175,
     "Vel": 80
    },
    {
     "TimeMs": 215259,
     "Key": 71,
     "DurationMs": 175,
     "Vel": 80
    },
    {
     "TimeMs": 215260,
     "Key": 59,
     "DurationMs": 175,
     "Vel": 80
    },
    {
     "TimeMs": 215261,
     "Key": 55,
     "DurationMs": 175,
     "Vel": 80
    },
    {
     "TimeMs": 215454,
     "Key": 64,
     "DurationMs": 87,
     "Vel": 80
    },
    {
     "TimeMs": 215455,
     "Key": 43,
     "DurationMs": 174,
     "Vel": 80
    },
    {
     "TimeMs": 215551,
     "Key": 62,
     "DurationMs": 87,
     "Vel": 80
    },
    {
     "TimeMs": 215649,
     "Key": 64,
     "DurationMs": 87,
     "Vel": 80
    },
    {
     "TimeMs": 215649,
     "Key": 59,
     "DurationMs": 174,
     "Vel": 80
    },
    {
     "TimeMs": 215650,
     "Key": 55,
     "DurationMs": 174,
     "Vel": 80
    },
    {
     "TimeMs": 215746,
     "Key": 62,
     "DurationMs": 87,
     "Vel": 80
    },
    {
     "TimeMs": 215843,
     "Key": 55,
     "DurationMs": 175,
     "Vel": 80
    },
    {
     "TimeMs": 215844,
     "Key": 47,
     "DurationMs": 175,
     "Vel": 80
    },
    {
     "TimeMs": 215856,
     "Key": 66,
     "DurationMs": 175,
     "Vel": 80
    },
    {
     "TimeMs": 215868,
     "Key": 67,
     "DurationMs": 175,
     "Vel": 80
    },
    {
     "TimeMs": 216038,
     "Key": 66,
     "DurationMs": 87,
     "Vel": 80
    },
    {
     "TimeMs": 216039,
     "Key": 59,
     "DurationMs": 174,
     "Vel": 80
    },
    {
     "TimeMs": 216040,
     "Key": 52,
     "DurationMs": 174,
     "Vel": 80
    },
    {
     "TimeMs": 216136,
     "Key": 67,
     "DurationMs": 43,
     "Vel": 80
    },
    {
     "TimeMs": 216184,
     "Key": 66,
     "DurationMs": 43,
     "Vel": 80
    },
    {
     "TimeMs": 216233,
     "Key": 64,
     "DurationMs": 175,
     "Vel": 80
    },
    {
     "TimeMs": 216234,
     "Key": 55,
     "DurationMs": 175,
     "Vel": 80
    },
    {
     "TimeMs": 216235,
     "Key": 43,
     "DurationMs": 175,
     "Vel": 80
    },
    {
     "TimeMs": 216428,
     "Key": 62,
     "DurationMs": 175,
     "Vel": 80
    },
    {
     "TimeMs": 216429,
     "Key": 52,
     "DurationMs": 175,
     "Vel": 80
    },
    {
     "TimeMs": 216429,
     "Key": 47,
     "DurationMs": 175,
     "Vel": 80
    },
    {
     "TimeMs": 216623,
     "Key": 69,
     "DurationMs": 175,
     "Vel": 80
    },
    {
     "TimeMs": 216623,
     "Key": 36,
     "DurationMs": 175,
     "Vel": 80
    },
    {
     "TimeMs": 216624,
     "Key": 48,
     "DurationMs": 175,
     "Vel": 80
    },
    {
     "TimeMs": 216817,
     "Key": 71,
     "DurationMs": 175,
     "Vel": 80
    },
    {
     "TimeMs": 216818,
     "Key": 52,
     "DurationMs": 175,
     "Vel": 80
    },
    {
     "TimeMs": 216819,
     "Key": 55,
     "DurationMs": 175,
     "Vel": 80
    },
    {
     "TimeMs": 217012,
     "Key": 64,
     "DurationMs": 87,
     "Vel": 80
    },
    {
     "TimeMs": 217013,
     "Key": 48,
     "DurationMs": 174,
     "Vel": 80
    },
    {
     "TimeMs": 217110,
     "Key": 62,
     "DurationMs": 87,
     "Vel": 80
    },
    {
     "TimeMs": 217207,
     "Key": 64,
     "DurationMs": 87,
     "Vel": 80
    },
    {
     "TimeMs": 217208,
     "Key": 52,
     "DurationMs": 174,
     "Vel": 80
    },
    {
     "TimeMs": 217209,
     "Key": 55,
     "DurationMs": 174,
     "Vel": 80
    },
    {
     "TimeMs": 217304,
     "Key": 62,
     "DurationMs": 87,
     "Vel": 80
    },
    {
     "TimeMs": 217402,
     "Key": 69,
     "DurationMs": 175,
     "Vel": 80
    },
    {
     "TimeMs": 217403,
     "Key": 50,
     "DurationMs": 175,
     "Vel": 80
    },
    {
     "TimeMs": 217404,
     "Key": 38,
     "DurationMs": 175,
     "Vel": 80
    },
    {
     "TimeMs": 217597,
     "Key": 71,
     "DurationMs": 175,
     "Vel": 80
    },
    {
     "TimeMs": 217597,
     "Key": 57,
     "DurationMs": 175,
     "Vel": 80
    },
    {
     "TimeMs": 217598,
     "Key": 54,
     "DurationMs": 175,
     "Vel": 80
    },
    {
     "TimeMs": 217791,
     "Key": 64,
     "DurationMs": 87,
     "Vel": 80
    },
    {
     "TimeMs": 217792,
     "Key": 50,
     "DurationMs": 174,
     "Vel": 80
    },
    {
     "TimeMs": 217889,
     "Key": 62,
     "DurationMs": 87,
     "Vel": 80
    },
    {
     "TimeMs": 217986,
     "Key": 64,
     "DurationMs": 87,
     "Vel": 80
    },
    {
     "TimeMs": 217987,
     "Key": 57,
     "DurationMs": 174,
     "Vel": 80
    },
    {
     "TimeMs": 217988,
     "Key": 54,
     "DurationMs": 174,
     "Vel": 80
    },
    {
     "TimeMs": 218084,
     "Key": 62,
     "DurationMs": 87,
     "Vel": 80
    },
    {
     "TimeMs": 218181,
     "Key": 69,
     "DurationMs": 175,
     "Vel": 80
    },
    {
     "TimeMs": 218182,
     "Key": 40,
     "DurationMs": 175,
     "Vel": 80
    },
    {
     "TimeMs": 218376,
     "Key": 71,
     "DurationMs": 175,
     "Vel": 80
    },
    {
     "TimeMs": 218377,
     "Key": 59,
     "DurationMs": 175,
     "Vel": 80
    },
    {
     "TimeMs": 218378,
     "Key": 52,
     "DurationMs": 175,
     "Vel": 80
    },
    {
     "TimeMs": 218571,
     "Key": 74,
     "DurationMs": 175,
     "Vel": 80
    },
    {
     "TimeMs": 218572,
     "Key": 43,
     "DurationMs": 175,
     "Vel": 80
    },
    {
     "TimeMs": 218766,
     "Key": 79,
     "DurationMs": 175,
     "Vel": 80
    },
    {
     "TimeMs": 218766,
     "Key": 64,
     "DurationMs": 175,
     "Vel": 80
    },
    {
     "TimeMs": 218767,
     "Key": 55,
     "DurationMs": 175,
     "Vel": 80
    },
    {
     "TimeMs": 218960,
     "Key": 78,
     "DurationMs": 87,
     "Vel": 80
    },
    {
     "TimeMs": 218961,
     "Key": 59,
     "DurationMs": 174,
     "Vel": 80
    },
    {
     "TimeMs": 218962,
     "Key": 47,
     "DurationMs": 174,
     "Vel": 80
    },
    {
     "TimeMs": 219058,
     "Key": 79,
     "DurationMs": 87,
     "Vel": 80
    },
    {
     "TimeMs": 219155,
     "Key": 78,
     "DurationMs": 87,
     "Vel": 80
    },
    {
     "TimeMs": 219156,
     "Key": 62,
     "DurationMs": 174,
     "Vel": 80
    },
    {
     "TimeMs": 219157,
     "Key": 55,
     "DurationMs": 174,
     "Vel": 80
    },
    {
     "TimeMs": 219253,
     "Key": 76,
     "DurationMs": 87,
     "Vel": 80
    },
    {
     "TimeMs": 219350,
     "Key": 74,
     "DurationMs": 175,
     "Vel": 80
    },
    {
     "TimeMs": 219351,
     "Key": 64,
     "DurationMs": 175,
     "Vel": 80
    },
    {
     "TimeMs": 219352,
     "Key": 59,
     "DurationMs": 175,
     "Vel": 80
    },
    {
     "TimeMs": 219352,
     "Key": 52,
     "DurationMs": 175,
     "Vel": 80
    },
    {
     "TimeMs": 219545,
     "Key": 71,
     "DurationMs": 175,
     "Vel": 80
    },
    {
     "TimeMs": 219546,
     "Key": 52,
     "DurationMs": 86,
     "Vel": 80
    },
    {
     "TimeMs": 219642,
     "Key": 40,
     "DurationMs": 87,
     "Vel": 80
    },
    {
     "TimeMs": 219740,
     "Key": 69,
     "DurationMs": 175,
     "Vel": 80
    },
    {
     "TimeMs": 219740,
     "Key": 36,
     "DurationMs": 175,
     "Vel": 80
    },
    {
     "TimeMs": 219741,
     "Key": 48,
     "DurationMs": 175,
     "Vel": 80
    },
    {
     "TimeMs": 219934,
     "Key": 71,
     "DurationMs": 175,
     "Vel": 80
    },
    {
     "TimeMs": 219935,
     "Key": 52,
     "DurationMs": 175,
     "Vel": 80
    },
    {
     "TimeMs": 219936,
     "Key": 55,
     "DurationMs": 175,
     "Vel": 80
    },
    {
     "TimeMs": 220129,
     "Key": 64,
     "DurationMs": 87,
     "Vel": 80
    },
    {
     "TimeMs": 220130,
     "Key": 48,
     "DurationMs": 174,
     "Vel": 80
    },
    {
     "TimeMs": 220227,
     "Key": 62,
     "DurationMs": 87,
     "Vel": 80
    },
    {
     "TimeMs": 220324,
     "Key": 64,
     "DurationMs": 87,
     "Vel": 80
    },
    {
     "TimeMs": 220325,
     "Key": 52,
     "DurationMs": 174,
     "Vel": 80
    },
    {
     "TimeMs": 220326,
     "Key": 55,
     "DurationMs": 174,
     "Vel": 80
    },
    {
     "TimeMs": 220421,
     "Key": 62,
     "DurationMs": 87,
     "Vel": 80
    },
    {
     "TimeMs": 220519,
     "Key": 69,
     "DurationMs": 175,
     "Vel": 80
    },
    {
     "TimeMs": 220520,
     "Key": 50,
     "DurationMs": 175,
     "Vel": 80
    },
    {
     "TimeMs": 220520,
     "Key": 38,
     "DurationMs": 175,
     "Vel": 80
    },
    {
     "TimeMs": 220714,
     "Key": 71,
     "DurationMs": 175,
     "Vel": 80
    },
    {
     "TimeMs": 220714,
     "Key": 57,
     "DurationMs": 175,
     "Vel": 80
    },
    {
     "TimeMs": 220715,
     "Key": 54,
     "DurationMs": 175,
     "Vel": 80
    },
    {
     "TimeMs": 220908,
     "Key": 64,
     "DurationMs": 87,
     "Vel": 80
    },
    {
     "TimeMs": 220909,
     "Key": 50,
     "DurationMs": 174,
     "Vel": 80
    },
    {
     "TimeMs": 221006,
     "Key": 62,
     "DurationMs": 87,
     "Vel": 80
    },
    {
     "TimeMs": 221103,
     "Key": 64,
     "DurationMs": 87,
     "Vel": 80
    },
    {
     "TimeMs": 221104,
     "Key": 57,
     "DurationMs": 174,
     "Vel": 80
    },
    {
     "TimeMs": 221105,
     "Key": 54,
     "DurationMs": 174,
     "Vel": 80
    },
    {
     "TimeMs": 221201,
     "Key": 62,
     "DurationMs": 87,
     "Vel": 80
    },
    {
     "TimeMs": 221298,
     "Key": 69,
     "DurationMs": 175,
     "Vel": 80
    },
    {
     "TimeMs": 221299,
     "Key": 52,
     "DurationMs": 175,
     "Vel": 80
    },
    {
     "TimeMs": 221300,
     "Key": 40,
     "DurationMs": 175,
     "Vel": 80
    },
    {
     "TimeMs": 221493,
     "Key": 71,
     "DurationMs": 175,
     "Vel": 80
    },
    {
     "TimeMs": 221494,
     "Key": 59,
     "DurationMs": 175,
     "Vel": 80
    },
    {
     "TimeMs": 221494,
     "Key": 55,
     "DurationMs": 175,
     "Vel": 80
    },
    {
     "TimeMs": 221688,
     "Key": 64,
     "DurationMs": 87,
     "Vel": 80
    },
    {
     "TimeMs": 221688,
     "Key": 43,
     "DurationMs": 174,
     "Vel": 80
    },
    {
     "TimeMs": 221785,
     "Key": 62,
     "DurationMs": 87,
     "Vel": 80
    },
    {
     "TimeMs": 221882,
     "Key": 64,
     "DurationMs": 87,
     "Vel": 80
    },
    {
     "TimeMs": 221883,
     "Key": 59,
     "DurationMs": 174,
     "Vel": 80
    },
    {
     "TimeMs": 221884,
     "Key": 55,
     "DurationMs": 174,
     "Vel": 80
    },
    {
     "TimeMs": 221980,
     "Key": 62,
     "DurationMs": 87,
     "Vel": 80
    },
    {
     "TimeMs": 222077,
     "Key": 55,
     "DurationMs": 175,
     "Vel": 80
    },
    {
     "TimeMs": 222078,
     "Key": 47,
     "DurationMs": 175,
     "Vel": 80
    },
    {
     "TimeMs": 222089,
     "Key": 66,
     "DurationMs": 175,
     "Vel": 80
    },
    {
     "TimeMs": 222102,
     "Key": 67,
     "DurationMs": 175,
     "Vel": 80
    },
    {
     "TimeMs": 222272,
     "Key": 66,
     "DurationMs": 87,
     "Vel": 80
    },
    {
     "TimeMs": 222273,
     "Key": 59,
     "DurationMs": 174,
     "Vel": 80
    },
    {
     "TimeMs": 222274,
     "Key": 52,
     "DurationMs": 174,
     "Vel": 80
    },
    {
     "TimeMs": 222369,
     "Key": 67,
     "DurationMs": 43,
     "Vel": 80
    },
    {
     "TimeMs": 222418,
     "Key": 66,
     "DurationMs": 43,
     "Vel": 80
    },
    {
     "TimeMs": 222467,
     "Key": 64,
     "DurationMs": 175,
     "Vel": 80
    },
    {
     "TimeMs": 222468,
     "Key": 55,
     "DurationMs": 175,
     "Vel": 80
    },
    {
     "TimeMs": 222468,
     "Key": 43,
     "DurationMs": 175,
     "Vel": 80
    },
    {
     "TimeMs": 222662,
     "Key": 62,
     "DurationMs": 175,
     "Vel": 80
    },
    {
     "TimeMs": 222662,
     "Key": 52,
     "DurationMs": 175,
     "Vel": 80
    },
    {
     "TimeMs": 222663,
     "Key": 47,
     "DurationMs": 175,
     "Vel": 80
    },
    {
     "TimeMs": 222856,
     "Key": 64,
     "DurationMs": 175,
     "Vel": 80
    },
    {
     "TimeMs": 222857,
     "Key": 36,
     "DurationMs": 175,
     "Vel": 80
    },
    {
     "TimeMs": 222858,
     "Key": 48,
     "DurationMs": 175,
     "Vel": 80
    },
    {
     "TimeMs": 223051,
     "Key": 62,
     "DurationMs": 87,
     "Vel": 80
    },
    {
     "TimeMs": 223052,
     "Key": 52,
     "DurationMs": 174,
     "Vel": 80
    },
    {
     "TimeMs": 223053,
     "Key": 55,
     "DurationMs": 174,
     "Vel": 80
    },
    {
     "TimeMs": 223149,
     "Key": 64,
     "DurationMs": 87,
     "Vel": 80
    },
    {
     "TimeMs": 223246,
     "Key": 67,
     "DurationMs": 175,
     "Vel": 80
    },
    {
     "TimeMs": 223247,
     "Key": 48,
     "DurationMs": 175,
     "Vel": 80
    },
    {
     "TimeMs": 223441,
     "Key": 64,
     "DurationMs": 87,
     "Vel": 80
    },
    {
     "TimeMs": 223442,
     "Key": 52,
     "DurationMs": 174,
     "Vel": 80
    },
    {
     "TimeMs": 223442,
     "Key": 55,
     "DurationMs": 174,
     "Vel": 80
    },
    {
     "TimeMs": 223538,
     "Key": 69,
     "DurationMs": 87,
     "Vel": 80
    },
    {
     "TimeMs": 223636,
     "Key": 71,
     "DurationMs": 175,
     "Vel": 80
    },
    {
     "TimeMs": 223636,
     "Key": 50,
     "DurationMs": 175,
     "Vel": 80
    },
    {
     "TimeMs": 223637,
     "Key": 38,
     "DurationMs": 175,
     "Vel": 80
    },
    {
     "TimeMs": 223830,
     "Key": 69,
     "DurationMs": 87,
     "Vel": 80
    },
    {
     "TimeMs": 223831,
     "Key": 57,
     "DurationMs": 174,
     "Vel": 80
    },
    {
     "TimeMs": 223832,
     "Key": 54,
     "DurationMs": 174,
     "Vel": 80
    },
    {
     "TimeMs": 223928,
     "Key": 71,
     "DurationMs": 87,
     "Vel": 80
    },
    {
     "TimeMs": 224025,
     "Key": 74,
     "DurationMs": 87,
     "Vel": 80
    },
    {
     "TimeMs": 224026,
     "Key": 50,
     "DurationMs": 174,
     "Vel": 80
    },
    {
     "TimeMs": 224123,
     "Key": 79,
     "DurationMs": 87,
     "Vel": 80
    },
    {
     "TimeMs": 224220,
     "Key": 71,
     "DurationMs": 87,
     "Vel": 80
    },
    {
     "TimeMs": 224221,
     "Key": 57,
     "DurationMs": 174,
     "Vel": 80
    },
    {
     "TimeMs": 224222,
     "Key": 54,
     "DurationMs": 174,
     "Vel": 80
    },
    {
     "TimeMs": 224317,
     "Key": 74,
     "DurationMs": 87,
     "Vel": 80
    },
    {
     "TimeMs": 224415,
     "Key": 79,
     "DurationMs": 175,
     "Vel": 80
    },
    {
     "TimeMs": 224416,
     "Key": 71,
     "DurationMs": 175,
     "Vel": 80
    },
    {
     "TimeMs": 224416,
     "Key": 40,
     "DurationMs": 175,
     "Vel": 80
    },
    {
     "TimeMs": 224417,
     "Key": 47,
     "DurationMs": 175,
     "Vel": 80
    },
    {
     "TimeMs": 224418,
     "Key": 52,
     "DurationMs": 175,
     "Vel": 80
    },
    {
     "TimeMs": 224610,
     "Key": 78,
     "DurationMs": 43,
     "Vel": 80
    },
    {
     "TimeMs": 224610,
     "Key": 40,
     "DurationMs": 86,
     "Vel": 80
    },
    {
     "TimeMs": 224658,
     "Key": 79,
     "DurationMs": 43,
     "Vel": 80
    },
    {
     "TimeMs": 224707,
     "Key": 78,
     "DurationMs": 87,
     "Vel": 80
    },
    {
     "TimeMs": 224708,
     "Key": 47,
     "DurationMs": 293,
     "Vel": 80
    },
    {
     "TimeMs": 224709,
     "Key": 52,
     "DurationMs": 293,
     "Vel": 80
    },
    {
     "TimeMs": 224804,
     "Key": 76,
     "DurationMs": 175,
     "Vel": 80
    },
    {
     "TimeMs": 224999,
     "Key": 74,
     "DurationMs": 175,
     "Vel": 80
    },
    {
     "TimeMs": 225000,
     "Key": 71,
     "DurationMs": 175,
     "Vel": 80
    },
    {
     "TimeMs": 225003,
     "Key": 55,
     "DurationMs": 173,
     "Vel": 80
    },
    {
     "TimeMs": 225003,
     "Key": 50,
     "DurationMs": 173,
     "Vel": 80
    },
    {
     "TimeMs": 225004,
     "Key": 43,
     "DurationMs": 173,
     "Vel": 80
    },
    {
     "TimeMs": 225194,
     "Key": 76,
     "DurationMs": 175,
     "Vel": 80
    },
    {
     "TimeMs": 225195,
     "Key": 71,
     "DurationMs": 175,
     "Vel": 80
    },
    {
     "TimeMs": 225196,
     "Key": 40,
     "DurationMs": 349,
     "Vel": 80
    },
    {
     "TimeMs": 225197,
     "Key": 47,
     "DurationMs": 349,
     "Vel": 80
    },
    {
     "TimeMs": 225197,
     "Key": 52,
     "DurationMs": 349,
     "Vel": 80
    },
    {
     "TimeMs": 225389,
     "Key": 74,
     "DurationMs": 175,
     "Vel": 80
    },
    {
     "TimeMs": 225584,
     "Key": 76,
     "DurationMs": 175,
     "Vel": 80
    },
    {
     "TimeMs": 225585,
     "Key": 71,
     "DurationMs": 175,
     "Vel": 80
    },
    {
     "TimeMs": 225585,
     "Key": 52,
     "DurationMs": 86,
     "Vel": 80
    },
    {
     "TimeMs": 225681,
     "Key": 47,
     "DurationMs": 87,
     "Vel": 80
    },
    {
     "TimeMs": 225778,
     "Key": 79,
     "DurationMs": 175,
     "Vel": 80
    },
    {
     "TimeMs": 225779,
     "Key": 74,
     "DurationMs": 175,
     "Vel": 80
    },
    {
     "TimeMs": 225780,
     "Key": 43,
     "DurationMs": 86,
     "Vel": 80
    },
    {
     "TimeMs": 225876,
     "Key": 40,
     "DurationMs": 87,
     "Vel": 80
    },
    {
     "TimeMs": 225973,
     "Key": 81,
     "DurationMs": 175,
     "Vel": 80
    },
    {
     "TimeMs": 225974,
     "Key": 76,
     "DurationMs": 175,
     "Vel": 80
    },
    {
     "TimeMs": 225975,
     "Key": 69,
     "DurationMs": 175,
     "Vel": 80
    },
    {
     "TimeMs": 225976,
     "Key": 48,
     "DurationMs": 175,
     "Vel": 80
    },
    {
     "TimeMs": 225977,
     "Key": 36,
     "DurationMs": 175,
     "Vel": 80
    },
    {
     "TimeMs": 226168,
     "Key": 83,
     "DurationMs": 175,
     "Vel": 80
    },
    {
     "TimeMs": 226169,
     "Key": 71,
     "DurationMs": 175,
     "Vel": 80
    },
    {
     "TimeMs": 226170,
     "Key": 64,
     "DurationMs": 175,
     "Vel": 80
    },
    {
     "TimeMs": 226171,
     "Key": 60,
     "DurationMs": 175,
     "Vel": 80
    },
    {
     "TimeMs": 226171,
     "Key": 55,
     "DurationMs": 175,
     "Vel": 80
    },
    {
     "TimeMs": 226363,
     "Key": 76,
     "DurationMs": 87,
     "Vel": 80
    },
    {
     "TimeMs": 226364,
     "Key": 64,
     "DurationMs": 87,
     "Vel": 80
    },
    {
     "TimeMs": 226365,
     "Key": 48,
     "DurationMs": 173,
     "Vel": 80
    },
    {
     "TimeMs": 226460,
     "Key": 74,
     "DurationMs": 87,
     "Vel": 80
    },
    {
     "TimeMs": 226558,
     "Key": 76,
     "DurationMs": 87,
     "Vel": 80
    },
    {
     "TimeMs": 226559,
     "Key": 64,
     "DurationMs": 174,
     "Vel": 80
    },
    {
     "TimeMs": 226559,
     "Key": 60,
     "DurationMs": 174,
     "Vel": 80
    },
    {
     "TimeMs": 226560,
     "Key": 55,
     "DurationMs": 174,
     "Vel": 80
    },
    {
     "TimeMs": 226655,
     "Key": 74,
     "DurationMs": 87,
     "Vel": 80
    },
    {
     "TimeMs": 226753,
     "Key": 81,
     "DurationMs": 175,
     "Vel": 80
    },
    {
     "TimeMs": 226753,
     "Key": 69,
     "DurationMs": 175,
     "Vel": 80
    },
    {
     "TimeMs": 226754,
     "Key": 50,
     "DurationMs": 175,
     "Vel": 80
    },
    {
     "TimeMs": 226755,
     "Key": 38,
     "DurationMs": 175,
     "Vel": 80
    },
    {
     "TimeMs": 226947,
     "Key": 83,
     "DurationMs": 175,
     "Vel": 80
    },
    {
     "TimeMs": 226948,
     "Key": 71,
     "DurationMs": 175,
     "Vel": 80
    },
    {
     "TimeMs": 226949,
     "Key": 66,
     "DurationMs": 175,
     "Vel": 80
    },
    {
     "TimeMs": 226950,
     "Key": 62,
     "DurationMs": 175,
     "Vel": 80
    },
    {
     "TimeMs": 226951,
     "Key": 57,
     "DurationMs": 175,
     "Vel": 80
    },
    {
     "TimeMs": 227142,
     "Key": 76,
     "DurationMs": 87,
     "Vel": 80
    },
    {
     "TimeMs": 227143,
     "Key": 64,
     "DurationMs": 87,
     "Vel": 80
    },
    {
     "TimeMs": 227144,
     "Key": 50,
     "DurationMs": 173,
     "Vel": 80
    },
    {
     "TimeMs": 227240,
     "Key": 74,
     "DurationMs": 87,
     "Vel": 80
    },
    {
     "TimeMs": 227337,
     "Key": 76,
     "DurationMs": 87,
     "Vel": 80
    },
    {
     "TimeMs": 227338,
     "Key": 66,
     "DurationMs": 174,
     "Vel": 80
    },
    {
     "TimeMs": 227339,
     "Key": 62,
     "DurationMs": 174,
     "Vel": 80
    },
    {
     "TimeMs": 227339,
     "Key": 57,
     "DurationMs": 174,
     "Vel": 80
    },
    {
     "TimeMs": 227434,
     "Key": 74,
     "DurationMs": 87,
     "Vel": 80
    },
    {
     "TimeMs": 227532,
     "Key": 81,
     "DurationMs": 175,
     "Vel": 80
    },
    {
     "TimeMs": 227533,
     "Key": 76,
     "DurationMs": 175,
     "Vel": 80
    },
    {
     "TimeMs": 227533,
     "Key": 69,
     "DurationMs": 175,
     "Vel": 80
    },
    {
     "TimeMs": 227534,
     "Key": 52,
     "DurationMs": 175,
     "Vel": 80
    },
    {
     "TimeMs": 227535,
     "Key": 40,
     "DurationMs": 175,
     "Vel": 80
    },
    {
     "TimeMs": 227727,
     "Key": 83,
     "DurationMs": 175,
     "Vel": 80
    },
    {
     "TimeMs": 227727,
     "Key": 71,
     "DurationMs": 175,
     "Vel": 80
    },
    {
     "TimeMs": 227728,
     "Key": 64,
     "DurationMs": 175,
     "Vel": 80
    },
    {
     "TimeMs": 227729,
     "Key": 59,
     "DurationMs": 175,
     "Vel": 80
    },
    {
     "TimeMs": 227730,
     "Key": 55,
     "DurationMs": 175,
     "Vel": 80
    },
    {
     "TimeMs": 227921,
     "Key": 76,
     "DurationMs": 87,
     "Vel": 80
    },
    {
     "TimeMs": 227922,
     "Key": 64,
     "DurationMs": 87,
     "Vel": 80
    },
    {
     "TimeMs": 227923,
     "Key": 43,
     "DurationMs": 173,
     "Vel": 80
    },
    {
     "TimeMs": 228019,
     "Key": 74,
     "DurationMs": 87,
     "Vel": 80
    },
    {
     "TimeMs": 228116,
     "Key": 76,
     "DurationMs": 87,
     "Vel": 80
    },
    {
     "TimeMs": 228117,
     "Key": 64,
     "DurationMs": 174,
     "Vel": 80
    },
    {
     "TimeMs": 228118,
     "Key": 59,
     "DurationMs": 174,
     "Vel": 80
    },
    {
     "TimeMs": 228119,
     "Key": 55,
     "DurationMs": 174,
     "Vel": 80
    },
    {
     "TimeMs": 228214,
     "Key": 74,
     "DurationMs": 87,
     "Vel": 80
    },
    {
     "TimeMs": 228287,
     "Key": 71,
     "DurationMs": 175,
     "Vel": 80
    },
    {
     "TimeMs": 228304,
     "Key": 76,
     "DurationMs": 175,
     "Vel": 80
    },
    {
     "TimeMs": 228311,
     "Key": 55,
     "DurationMs": 175,
     "Vel": 80
    },
    {
     "TimeMs": 228312,
     "Key": 47,
     "DurationMs": 175,
     "Vel": 80
    },
    {
     "TimeMs": 228323,
     "Key": 78,
     "DurationMs": 175,
     "Vel": 80
    },
    {
     "TimeMs": 228341,
     "Key": 79,
     "DurationMs": 175,
     "Vel": 80
    },
    {
     "TimeMs": 228506,
     "Key": 78,
     "DurationMs": 87,
     "Vel": 80
    },
    {
     "TimeMs": 228507,
     "Key": 66,
     "DurationMs": 87,
     "Vel": 80
    },
    {
     "TimeMs": 228507,
     "Key": 59,
     "DurationMs": 173,
     "Vel": 80
    },
    {
     "TimeMs": 228508,
     "Key": 52,
     "DurationMs": 173,
     "Vel": 80
    },
    {
     "TimeMs": 228603,
     "Key": 79,
     "DurationMs": 43,
     "Vel": 80
    },
    {
     "TimeMs": 228652,
     "Key": 78,
     "DurationMs": 43,
     "Vel": 80
    },
    {
     "TimeMs": 228701,
     "Key": 64,
     "DurationMs": 175,
     "Vel": 80
    },
    {
     "TimeMs": 228701,
     "Key": 71,
     "DurationMs": 175,
     "Vel": 80
    },
    {
     "TimeMs": 228702,
     "Key": 76,
     "DurationMs": 175,
     "Vel": 80
    },
    {
     "TimeMs": 228703,
     "Key": 40,
     "DurationMs": 85,
     "Vel": 80
    },
    {
     "TimeMs": 228798,
     "Key": 47,
     "DurationMs": 87,
     "Vel": 80
    },
    {
     "TimeMs": 228895,
     "Key": 62,
     "DurationMs": 175,
     "Vel": 80
    },
    {
     "TimeMs": 228896,
     "Key": 74,
     "DurationMs": 175,
     "Vel": 80
    },
    {
     "TimeMs": 228897,
     "Key": 52,
     "DurationMs": 86,
     "Vel": 80
    },
    {
     "TimeMs": 228993,
     "Key": 47,
     "DurationMs": 87,
     "Vel": 80
    },
    {
     "TimeMs": 229090,
     "Key": 81,
     "DurationMs": 175,
     "Vel": 80
    },
    {
     "TimeMs": 229091,
     "Key": 76,
     "DurationMs": 175,
     "Vel": 80
    },
    {
     "TimeMs": 229092,
     "Key": 69,
     "DurationMs": 175,
     "Vel": 80
    },
    {
     "TimeMs": 229093,
     "Key": 48,
     "DurationMs": 175,
     "Vel": 80
    },
    {
     "TimeMs": 229093,
     "Key": 36,
     "DurationMs": 175,
     "Vel": 80
    },
    {
     "TimeMs": 229285,
     "Key": 83,
     "DurationMs": 175,
     "Vel": 80
    },
    {
     "TimeMs": 229286,
     "Key": 71,
     "DurationMs": 175,
     "Vel": 80
    },
    {
     "TimeMs": 229287,
     "Key": 64,
     "DurationMs": 175,
     "Vel": 80
    },
    {
     "TimeMs": 229287,
     "Key": 60,
     "DurationMs": 175,
     "Vel": 80
    },
    {
     "TimeMs": 229288,
     "Key": 55,
     "DurationMs": 175,
     "Vel": 80
    },
    {
     "TimeMs": 229480,
     "Key": 76,
     "DurationMs": 87,
     "Vel": 80
    },
    {
     "TimeMs": 229481,
     "Key": 64,
     "DurationMs": 87,
     "Vel": 80
    },
    {
     "TimeMs": 229481,
     "Key": 48,
     "DurationMs": 173,
     "Vel": 80
    },
    {
     "TimeMs": 229577,
     "Key": 74,
     "DurationMs": 87,
     "Vel": 80
    },
    {
     "TimeMs": 229675,
     "Key": 76,
     "DurationMs": 87,
     "Vel": 80
    },
    {
     "TimeMs": 229675,
     "Key": 64,
     "DurationMs": 174,
     "Vel": 80
    },
    {
     "TimeMs": 229676,
     "Key": 60,
     "DurationMs": 174,
     "Vel": 80
    },
    {
     "TimeMs": 229677,
     "Key": 55,
     "DurationMs": 174,
     "Vel": 80
    },
    {
     "TimeMs": 229772,
     "Key": 74,
     "DurationMs": 87,
     "Vel": 80
    },
    {
     "TimeMs": 229869,
     "Key": 81,
     "DurationMs": 175,
     "Vel": 80
    },
    {
     "TimeMs": 229870,
     "Key": 69,
     "DurationMs": 175,
     "Vel": 80
    },
    {
     "TimeMs": 229871,
     "Key": 50,
     "DurationMs": 175,
     "Vel": 80
    },
    {
     "TimeMs": 229872,
     "Key": 38,
     "DurationMs": 175,
     "Vel": 80
    },
    {
     "TimeMs": 230064,
     "Key": 83,
     "DurationMs": 175,
     "Vel": 80
    },
    {
     "TimeMs": 230065,
     "Key": 71,
     "DurationMs": 175,
     "Vel": 80
    },
    {
     "TimeMs": 230066,
     "Key": 66,
     "DurationMs": 175,
     "Vel": 80
    },
    {
     "TimeMs": 230067,
     "Key": 62,
     "DurationMs": 175,
     "Vel": 80
    },
    {
     "TimeMs": 230067,
     "Key": 57,
     "DurationMs": 175,
     "Vel": 80
    },
    {
     "TimeMs": 230259,
     "Key": 76,
     "DurationMs": 87,
     "Vel": 80
    },
    {
     "TimeMs": 230260,
     "Key": 64,
     "DurationMs": 87,
     "Vel": 80
    },
    {
     "TimeMs": 230261,
     "Key": 50,
     "DurationMs": 173,
     "Vel": 80
    },
    {
     "TimeMs": 230356,
     "Key": 74,
     "DurationMs": 87,
     "Vel": 80
    },
    {
     "TimeMs": 230454,
     "Key": 76,
     "DurationMs": 87,
     "Vel": 80
    },
    {
     "TimeMs": 230455,
     "Key": 66,
     "DurationMs": 174,
     "Vel": 80
    },
    {
     "TimeMs": 230455,
     "Key": 62,
     "DurationMs": 174,
     "Vel": 80
    },
    {
     "TimeMs": 230456,
     "Key": 57,
     "DurationMs": 174,
     "Vel": 80
    },
    {
     "TimeMs": 230551,
     "Key": 74,
     "DurationMs": 87,
     "Vel": 80
    },
    {
     "TimeMs": 230604,
     "Key": 79,
     "DurationMs": 43,
     "Vel": 80
    },
    {
     "TimeMs": 230649,
     "Key": 81,
     "DurationMs": 175,
     "Vel": 80
    },
    {
     "TimeMs": 230649,
     "Key": 69,
     "DurationMs": 175,
     "Vel": 80
    },
    {
     "TimeMs": 230650,
     "Key": 52,
     "DurationMs": 175,
     "Vel": 80
    },
    {
     "TimeMs": 230651,
     "Key": 40,
     "DurationMs": 175,
     "Vel": 80
    },
    {
     "TimeMs": 230843,
     "Key": 83,
     "DurationMs": 175,
     "Vel": 80
    },
    {
     "TimeMs": 230844,
     "Key": 71,
     "DurationMs": 175,
     "Vel": 80
    },
    {
     "TimeMs": 230845,
     "Key": 64,
     "DurationMs": 175,
     "Vel": 80
    },
    {
     "TimeMs": 230846,
     "Key": 59,
     "DurationMs": 175,
     "Vel": 80
    },
    {
     "TimeMs": 230847,
     "Key": 55,
     "DurationMs": 175,
     "Vel": 80
    },
    {
     "TimeMs": 231038,
     "Key": 86,
     "DurationMs": 175,
     "Vel": 80
    },
    {
     "TimeMs": 231039,
     "Key": 74,
     "DurationMs": 175,
     "Vel": 80
    },
    {
     "TimeMs": 231040,
     "Key": 43,
     "DurationMs": 175,
     "Vel": 80
    },
    {
     "TimeMs": 231233,
     "Key": 91,
     "DurationMs": 175,
     "Vel": 80
    },
    {
     "TimeMs": 231234,
     "Key": 79,
     "DurationMs": 175,
     "Vel": 80
    },
    {
     "TimeMs": 231235,
     "Key": 67,
     "DurationMs": 175,
     "Vel": 80
    },
    {
     "TimeMs": 231235,
     "Key": 64,
     "DurationMs": 175,
     "Vel": 80
    },
    {
     "TimeMs": 231236,
     "Key": 59,
     "DurationMs": 175,
     "Vel": 80
    },
    {
     "TimeMs": 231428,
     "Key": 90,
     "DurationMs": 87,
     "Vel": 80
    },
    {
     "TimeMs": 231429,
     "Key": 86,
     "DurationMs": 87,
     "Vel": 80
    },
    {
     "TimeMs": 231429,
     "Key": 78,
     "DurationMs": 87,
     "Vel": 80
    },
    {
     "TimeMs": 231430,
     "Key": 59,
     "DurationMs": 172,
     "Vel": 80
    },
    {
     "TimeMs": 231431,
     "Key": 47,
     "DurationMs": 172,
     "Vel": 80
    },
    {
     "TimeMs": 231525,
     "Key": 91,
     "DurationMs": 87,
     "Vel": 80
    },
    {
     "TimeMs": 231526,
     "Key": 79,
     "DurationMs": 87,
     "Vel": 80
    },
    {
     "TimeMs": 231623,
     "Key": 90,
     "DurationMs": 87,
     "Vel": 80
    },
    {
     "TimeMs": 231623,
     "Key": 78,
     "DurationMs": 87,
     "Vel": 80
    },
    {
     "TimeMs": 231624,
     "Key": 64,
     "DurationMs": 173,
     "Vel": 80
    },
    {
     "TimeMs": 231625,
     "Key": 55,
     "DurationMs": 173,
     "Vel": 80
    },
    {
     "TimeMs": 231720,
     "Key": 88,
     "DurationMs": 87,
     "Vel": 80
    },
    {
     "TimeMs": 231721,
     "Key": 76,
     "DurationMs": 87,
     "Vel": 80
    },
    {
     "TimeMs": 231817,
     "Key": 86,
     "DurationMs": 175,
     "Vel": 80
    },
    {
     "TimeMs": 231818,
     "Key": 83,
     "DurationMs": 175,
     "Vel": 80
    },
    {
     "TimeMs": 231819,
     "Key": 74,
     "DurationMs": 175,
     "Vel": 80
    },
    {
     "TimeMs": 231820,
     "Key": 59,
     "DurationMs": 85,
     "Vel": 80
    },
    {
     "TimeMs": 231915,
     "Key": 52,
     "DurationMs": 87,
     "Vel": 80
    },
    {
     "TimeMs": 232012,
     "Key": 83,
     "DurationMs": 175,
     "Vel": 80
    },
    {
     "TimeMs": 232013,
     "Key": 71,
     "DurationMs": 175,
     "Vel": 80
    },
    {
     "TimeMs": 232014,
     "Key": 47,
     "DurationMs": 86,
     "Vel": 80
    },
    {
     "TimeMs": 232110,
     "Key": 40,
     "DurationMs": 87,
     "Vel": 80
    },
    {
     "TimeMs": 232207,
     "Key": 81,
     "DurationMs": 175,
     "Vel": 80
    },
    {
     "TimeMs": 232208,
     "Key": 76,
     "DurationMs": 175,
     "Vel": 80
    },
    {
     "TimeMs": 232209,
     "Key": 69,
     "DurationMs": 175,
     "Vel": 80
    },
    {
     "TimeMs": 232209,
     "Key": 48,
     "DurationMs": 175,
     "Vel": 80
    },
    {
     "TimeMs": 232210,
     "Key": 36,
     "DurationMs": 175,
     "Vel": 80
    },
    {
     "TimeMs": 232402,
     "Key": 83,
     "DurationMs": 175,
     "Vel": 80
    },
    {
     "TimeMs": 232403,
     "Key": 71,
     "DurationMs": 175,
     "Vel": 80
    },
    {
     "TimeMs": 232403,
     "Key": 64,
     "DurationMs": 175,
     "Vel": 80
    },
    {
     "TimeMs": 232404,
     "Key": 60,
     "DurationMs": 175,
     "Vel": 80
    },
    {
     "TimeMs": 232405,
     "Key": 55,
     "DurationMs": 175,
     "Vel": 80
    },
    {
     "TimeMs": 232597,
     "Key": 76,
     "DurationMs": 87,
     "Vel": 80
    },
    {
     "TimeMs": 232597,
     "Key": 64,
     "DurationMs": 87,
     "Vel": 80
    },
    {
     "TimeMs": 232598,
     "Key": 48,
     "DurationMs": 173,
     "Vel": 80
    },
    {
     "TimeMs": 232694,
     "Key": 74,
     "DurationMs": 87,
     "Vel": 80
    },
    {
     "TimeMs": 232791,
     "Key": 76,
     "DurationMs": 87,
     "Vel": 80
    },
    {
     "TimeMs": 232792,
     "Key": 64,
     "DurationMs": 174,
     "Vel": 80
    },
    {
     "TimeMs": 232793,
     "Key": 60,
     "DurationMs": 174,
     "Vel": 80
    },
    {
     "TimeMs": 232794,
     "Key": 55,
     "DurationMs": 174,
     "Vel": 80
    },
    {
     "TimeMs": 232889,
     "Key": 74,
     "DurationMs": 87,
     "Vel": 80
    },
    {
     "TimeMs": 232986,
     "Key": 81,
     "DurationMs": 175,
     "Vel": 80
    },
    {
     "TimeMs": 232987,
     "Key": 69,
     "DurationMs": 175,
     "Vel": 80
    },
    {
     "TimeMs": 232988,
     "Key": 50,
     "DurationMs": 175,
     "Vel": 80
    },
    {
     "TimeMs": 232989,
     "Key": 38,
     "DurationMs": 175,
     "Vel": 80
    },
    {
     "TimeMs": 233181,
     "Key": 83,
     "DurationMs": 175,
     "Vel": 80
    },
    {
     "TimeMs": 233182,
     "Key": 71,
     "DurationMs": 175,
     "Vel": 80
    },
    {
     "TimeMs": 233183,
     "Key": 66,
     "DurationMs": 175,
     "Vel": 80
    },
    {
     "TimeMs": 233184,
     "Key": 62,
     "DurationMs": 175,
     "Vel": 80
    },
    {
     "TimeMs": 233184,
     "Key": 57,
     "DurationMs": 175,
     "Vel": 80
    },
    {
     "TimeMs": 233376,
     "Key": 76,
     "DurationMs": 87,
     "Vel": 80
    },
    {
     "TimeMs": 233377,
     "Key": 64,
     "DurationMs": 87,
     "Vel": 80
    },
    {
     "TimeMs": 233378,
     "Key": 50,
     "DurationMs": 173,
     "Vel": 80
    },
    {
     "TimeMs": 233473,
     "Key": 74,
     "DurationMs": 87,
     "Vel": 80
    },
    {
     "TimeMs": 233571,
     "Key": 76,
     "DurationMs": 87,
     "Vel": 80
    },
    {
     "TimeMs": 233572,
     "Key": 66,
     "DurationMs": 174,
     "Vel": 80
    },
    {
     "TimeMs": 233572,
     "Key": 62,
     "DurationMs": 174,
     "Vel": 80
    },
    {
     "TimeMs": 233573,
     "Key": 57,
     "DurationMs": 174,
     "Vel": 80
    },
    {
     "TimeMs": 233668,
     "Key": 74,
     "DurationMs": 87,
     "Vel": 80
    },
    {
     "TimeMs": 233766,
     "Key": 81,
     "DurationMs": 175,
     "Vel": 80
    },
    {
     "TimeMs": 233766,
     "Key": 76,
     "DurationMs": 175,
     "Vel": 80
    },
    {
     "TimeMs": 233767,
     "Key": 69,
     "DurationMs": 175,
     "Vel": 80
    },
    {
     "TimeMs": 233768,
     "Key": 52,
     "DurationMs": 175,
     "Vel": 80
    },
    {
     "TimeMs": 233769,
     "Key": 40,
     "DurationMs": 175,
     "Vel": 80
    },
    {
     "TimeMs": 233960,
     "Key": 83,
     "DurationMs": 175,
     "Vel": 80
    },
    {
     "TimeMs": 233961,
     "Key": 71,
     "DurationMs": 175,
     "Vel": 80
    },
    {
     "TimeMs": 233962,
     "Key": 64,
     "DurationMs": 175,
     "Vel": 80
    },
    {
     "TimeMs": 233963,
     "Key": 59,
     "DurationMs": 175,
     "Vel": 80
    },
    {
     "TimeMs": 233964,
     "Key": 55,
     "DurationMs": 175,
     "Vel": 80
    },
    {
     "TimeMs": 234155,
     "Key": 76,
     "DurationMs": 87,
     "Vel": 80
    },
    {
     "TimeMs": 234156,
     "Key": 64,
     "DurationMs": 87,
     "Vel": 80
    },
    {
     "TimeMs": 234157,
     "Key": 43,
     "DurationMs": 173,
     "Vel": 80
    },
    {
     "TimeMs": 234253,
     "Key": 74,
     "DurationMs": 87,
     "Vel": 80
    },
    {
     "TimeMs": 234350,
     "Key": 76,
     "DurationMs": 87,
     "Vel": 80
    },
    {
     "TimeMs": 234351,
     "Key": 64,
     "DurationMs": 174,
     "Vel": 80
    },
    {
     "TimeMs": 234352,
     "Key": 59,
     "DurationMs": 174,
     "Vel": 80
    },
    {
     "TimeMs": 234352,
     "Key": 55,
     "DurationMs": 174,
     "Vel": 80
    },
    {
     "TimeMs": 234447,
     "Key": 74,
     "DurationMs": 87,
     "Vel": 80
    },
    {
     "TimeMs": 234520,
     "Key": 71,
     "DurationMs": 175,
     "Vel": 80
    },
    {
     "TimeMs": 234538,
     "Key": 76,
     "DurationMs": 175,
     "Vel": 80
    },
    {
     "TimeMs": 234545,
     "Key": 55,
     "DurationMs": 175,
     "Vel": 80
    },
    {
     "TimeMs": 234546,
     "Key": 47,
     "DurationMs": 175,
     "Vel": 80
    },
    {
     "TimeMs": 234557,
     "Key": 78,
     "DurationMs": 175,
     "Vel": 80
    },
    {
     "TimeMs": 234575,
     "Key": 79,
     "DurationMs": 175,
     "Vel": 80
    },
    {
     "TimeMs": 234740,
     "Key": 78,
     "DurationMs": 87,
     "Vel": 80
    },
    {
     "TimeMs": 234740,
     "Key": 66,
     "DurationMs": 87,
     "Vel": 80
    },
    {
     "TimeMs": 234741,
     "Key": 59,
     "DurationMs": 173,
     "Vel": 80
    },
    {
     "TimeMs": 234742,
     "Key": 52,
     "DurationMs": 173,
     "Vel": 80
    },
    {
     "TimeMs": 234837,
     "Key": 79,
     "DurationMs": 43,
     "Vel": 80
    },
    {
     "TimeMs": 234886,
     "Key": 78,
     "DurationMs": 43,
     "Vel": 80
    },
    {
     "TimeMs": 234934,
     "Key": 64,
     "DurationMs": 175,
     "Vel": 80
    },
    {
     "TimeMs": 234935,
     "Key": 71,
     "DurationMs": 175,
     "Vel": 80
    },
    {
     "TimeMs": 234936,
     "Key": 76,
     "DurationMs": 175,
     "Vel": 80
    },
    {
     "TimeMs": 234937,
     "Key": 40,
     "DurationMs": 85,
     "Vel": 80
    },
    {
     "TimeMs": 235032,
     "Key": 47,
     "DurationMs": 87,
     "Vel": 80
    },
    {
     "TimeMs": 235129,
     "Key": 62,
     "DurationMs": 175,
     "Vel": 80
    },
    {
     "TimeMs": 235130,
     "Key": 74,
     "DurationMs": 175,
     "Vel": 80
    },
    {
     "TimeMs": 235131,
     "Key": 52,
     "DurationMs": 86,
     "Vel": 80
    },
    {
     "TimeMs": 235227,
     "Key": 47,
     "DurationMs": 87,
     "Vel": 80
    },
    {
     "TimeMs": 235324,
     "Key": 81,
     "DurationMs": 87,
     "Vel": 80
    },
    {
     "TimeMs": 235325,
     "Key": 76,
     "DurationMs": 87,
     "Vel": 80
    },
    {
     "TimeMs": 235326,
     "Key": 69,
     "DurationMs": 87,
     "Vel": 80
    },
    {
     "TimeMs": 235326,
     "Key": 48,
     "DurationMs": 172,
     "Vel": 80
    },
    {
     "TimeMs": 235327,
     "Key": 36,
     "DurationMs": 172,
     "Vel": 80
    },
    {
     "TimeMs": 235421,
     "Key": 79,
     "DurationMs": 87,
     "Vel": 80
    },
    {
     "TimeMs": 235422,
     "Key": 67,
     "DurationMs": 87,
     "Vel": 80
    },
    {
     "TimeMs": 235519,
     "Key": 83,
     "DurationMs": 87,
     "Vel": 80
    },
    {
     "TimeMs": 235520,
     "Key": 71,
     "DurationMs": 87,
     "Vel": 80
    },
    {
     "TimeMs": 235520,
     "Key": 64,
     "DurationMs": 173,
     "Vel": 80
    },
    {
     "TimeMs": 235521,
     "Key": 60,
     "DurationMs": 173,
     "Vel": 80
    },
    {
     "TimeMs": 235522,
     "Key": 55,
     "DurationMs": 173,
     "Vel": 80
    },
    {
     "TimeMs": 235616,
     "Key": 86,
     "DurationMs": 87,
     "Vel": 80
    },
    {
     "TimeMs": 235617,
     "Key": 74,
     "DurationMs": 87,
     "Vel": 80
    },
    {
     "TimeMs": 235714,
     "Key": 88,
     "DurationMs": 87,
     "Vel": 80
    },
    {
     "TimeMs": 235714,
     "Key": 76,
     "DurationMs": 87,
     "Vel": 80
    },
    {
     "TimeMs": 235715,
     "Key": 48,
     "DurationMs": 173,
     "Vel": 80
    },
    {
     "TimeMs": 235811,
     "Key": 86,
     "DurationMs": 87,
     "Vel": 80
    },
    {
     "TimeMs": 235812,
     "Key": 74,
     "DurationMs": 87,
     "Vel": 80
    },
    {
     "TimeMs": 235908,
     "Key": 83,
     "DurationMs": 87,
     "Vel": 80
    },
    {
     "TimeMs": 235909,
     "Key": 71,
     "DurationMs": 87,
     "Vel": 80
    },
    {
     "TimeMs": 235910,
     "Key": 64,
     "DurationMs": 173,
     "Vel": 80
    },
    {
     "TimeMs": 235911,
     "Key": 60,
     "DurationMs": 173,
     "Vel": 80
    },
    {
     "TimeMs": 235912,
     "Key": 55,
     "DurationMs": 173,
     "Vel": 80
    },
    {
     "TimeMs": 236006,
     "Key": 81,
     "DurationMs": 87,
     "Vel": 80
    },
    {
     "TimeMs": 236007,
     "Key": 69,
     "DurationMs": 87,
     "Vel": 80
    },
    {
     "TimeMs": 236103,
     "Key": 76,
     "DurationMs": 175,
     "Vel": 80
    },
    {
     "TimeMs": 236104,
     "Key": 64,
     "DurationMs": 175,
     "Vel": 80
    },
    {
     "TimeMs": 236105,
     "Key": 50,
     "DurationMs": 175,
     "Vel": 80
    },
    {
     "TimeMs": 236106,
     "Key": 38,
     "DurationMs": 175,
     "Vel": 80
    },
    {
     "TimeMs": 236298,
     "Key": 79,
     "DurationMs": 175,
     "Vel": 80
    },
    {
     "TimeMs": 236299,
     "Key": 74,
     "DurationMs": 175,
     "Vel": 80
    },
    {
     "TimeMs": 236300,
     "Key": 67,
     "DurationMs": 175,
     "Vel": 80
    },
    {
     "TimeMs": 236300,
     "Key": 66,
     "DurationMs": 175,
     "Vel": 80
    },
    {
     "TimeMs": 236301,
     "Key": 62,
     "DurationMs": 175,
     "Vel": 80
    },
    {
     "TimeMs": 236302,
     "Key": 57,
     "DurationMs": 175,
     "Vel": 80
    },
    {
     "TimeMs": 236493,
     "Key": 81,
     "DurationMs": 175,
     "Vel": 80
    },
    {
     "TimeMs": 236494,
     "Key": 69,
     "DurationMs": 175,
     "Vel": 80
    },
    {
     "TimeMs": 236494,
     "Key": 38,
     "DurationMs": 86,
     "Vel": 80
    },
    {
     "TimeMs": 236590,
     "Key": 45,
     "DurationMs": 87,
     "Vel": 80
    },
    {
     "TimeMs": 236688,
     "Key": 83,
     "DurationMs": 175,
     "Vel": 80
    },
    {
     "TimeMs": 236688,
     "Key": 76,
     "DurationMs": 175,
     "Vel": 80
    },
    {
     "TimeMs": 236689,
     "Key": 71,
     "DurationMs": 175,
     "Vel": 80
    },
    {
     "TimeMs": 236690,
     "Key": 50,
     "DurationMs": 85,
     "Vel": 80
    },
    {
     "TimeMs": 236785,
     "Key": 54,
     "DurationMs": 87,
     "Vel": 80
    },
    {
     "TimeMs": 236882,
     "Key": 67,
     "DurationMs": 87,
     "Vel": 80
    },
    {
     "TimeMs": 236883,
     "Key": 71,
     "DurationMs": 87,
     "Vel": 80
    },
    {
     "TimeMs": 236884,
     "Key": 76,
     "DurationMs": 87,
     "Vel": 80
    },
    {
     "TimeMs": 236885,
     "Key": 40,
     "DurationMs": 172,
     "Vel": 80
    },
    {
     "TimeMs": 236886,
     "Key": 47,
     "DurationMs": 172,
     "Vel": 80
    },
    {
     "TimeMs": 236886,
     "Key": 52,
     "DurationMs": 172,
     "Vel": 80
    },
    {
     "TimeMs": 236980,
     "Key": 64,
     "DurationMs": 87,
     "Vel": 68
    },
    {
     "TimeMs": 237077,
     "Key": 64,
     "DurationMs": 87,
     "Vel": 68
    },
    {
     "TimeMs": 237078,
     "Key": 40,
     "DurationMs": 87,
     "Vel": 80
    },
    {
     "TimeMs": 237175,
     "Key": 67,
     "DurationMs": 87,
     "Vel": 80
    },
    {
     "TimeMs": 237175,
     "Key": 71,
     "DurationMs": 87,
     "Vel": 80
    },
    {
     "TimeMs": 237176,
     "Key": 76,
     "DurationMs": 87,
     "Vel": 80
    },
    {
     "TimeMs": 237177,
     "Key": 47,
     "DurationMs": 172,
     "Vel": 80
    },
    {
     "TimeMs": 237178,
     "Key": 52,
     "DurationMs": 172,
     "Vel": 80
    },
    {
     "TimeMs": 237272,
     "Key": 64,
     "DurationMs": 87,
     "Vel": 68
    },
    {
     "TimeMs": 237369,
     "Key": 64,
     "DurationMs": 87,
     "Vel": 68
    },
    {
     "TimeMs": 237370,
     "Key": 40,
     "DurationMs": 87,
     "Vel": 80
    },
    {
     "TimeMs": 237467,
     "Key": 67,
     "DurationMs": 87,
     "Vel": 80
    },
    {
     "TimeMs": 237468,
     "Key": 71,
     "DurationMs": 87,
     "Vel": 80
    },
    {
     "TimeMs": 237468,
     "Key": 74,
     "DurationMs": 87,
     "Vel": 80
    },
    {
     "TimeMs": 237469,
     "Key": 43,
     "DurationMs": 172,
     "Vel": 80
    },
    {
     "TimeMs": 237470,
     "Key": 52,
     "DurationMs": 172,
     "Vel": 80
    },
    {
     "TimeMs": 237564,
     "Key": 64,
     "DurationMs": 87,
     "Vel": 68
    },
    {
     "TimeMs": 237662,
     "Key": 64,
     "DurationMs": 584,
     "Vel": 80
    },
    {
     "TimeMs": 237662,
     "Key": 67,
     "DurationMs": 584,
     "Vel": 80
    },
    {
     "TimeMs": 237663,
     "Key": 71,
     "DurationMs": 584,
     "Vel": 80
    },
    {
     "TimeMs": 237664,
     "Key": 76,
     "DurationMs": 584,
     "Vel": 80
    },
    {
     "TimeMs": 237665,
     "Key": 43,
     "DurationMs": 347,
     "Vel": 80
    },
    {
     "TimeMs": 237666,
     "Key": 52,
     "DurationMs": 347,
     "Vel": 80
    },
    {
     "TimeMs": 237856,
     "Key": 40,
     "DurationMs": 175,
     "Vel": 80
    },
    {
     "TimeMs": 238051,
     "Key": 59,
     "DurationMs": 350,
     "Vel": 80
    },
    {
     "TimeMs": 238052,
     "Key": 55,
     "DurationMs": 350,
     "Vel": 80
    },
    {
     "TimeMs": 238053,
     "Key": 52,
     "DurationMs": 350,
     "Vel": 80
    },
    {
     "TimeMs": 238249,
     "Key": 62,
     "DurationMs": 84,
     "Vel": 80
    },
    {
     "TimeMs": 238250,
     "Key": 74,
     "DurationMs": 84,
     "Vel": 80
    },
    {
     "TimeMs": 238343,
     "Key": 63,
     "DurationMs": 87,
     "Vel": 80
    },
    {
     "TimeMs": 238344,
     "Key": 75,
     "DurationMs": 87,
     "Vel": 80
    },
    {
     "TimeMs": 238441,
     "Key": 67,
     "DurationMs": 87,
     "Vel": 80
    },
    {
     "TimeMs": 238442,
     "Key": 71,
     "DurationMs": 87,
     "Vel": 80
    },
    {
     "TimeMs": 238442,
     "Key": 76,
     "DurationMs": 87,
     "Vel": 80
    },
    {
     "TimeMs": 238443,
     "Key": 40,
     "DurationMs": 292,
     "Vel": 80
    },
    {
     "TimeMs": 238444,
     "Key": 47,
     "DurationMs": 292,
     "Vel": 80
    },
    {
     "TimeMs": 238445,
     "Key": 52,
     "DurationMs": 292,
     "Vel": 80
    },
    {
     "TimeMs": 238538,
     "Key": 64,
     "DurationMs": 87,
     "Vel": 68
    },
    {
     "TimeMs": 238636,
     "Key": 64,
     "DurationMs": 87,
     "Vel": 68
    },
    {
     "TimeMs": 238733,
     "Key": 67,
     "DurationMs": 87,
     "Vel": 80
    },
    {
     "TimeMs": 238734,
     "Key": 71,
     "DurationMs": 87,
     "Vel": 80
    },
    {
     "TimeMs": 238735,
     "Key": 76,
     "DurationMs": 87,
     "Vel": 80
    },
    {
     "TimeMs": 238738,
     "Key": 40,
     "DurationMs": 289,
     "Vel": 80
    },
    {
     "TimeMs": 238739,
     "Key": 47,
     "DurationMs": 289,
     "Vel": 80
    },
    {
     "TimeMs": 238740,
     "Key": 52,
     "DurationMs": 289,
     "Vel": 80
    },
    {
     "TimeMs": 238830,
     "Key": 64,
     "DurationMs": 87,
     "Vel": 68
    },
    {
     "TimeMs": 238928,
     "Key": 64,
     "DurationMs": 87,
     "Vel": 68
    },
    {
     "TimeMs": 239025,
     "Key": 67,
     "DurationMs": 87,
     "Vel": 80
    },
    {
     "TimeMs": 239026,
     "Key": 71,
     "DurationMs": 87,
     "Vel": 80
    },
    {
     "TimeMs": 239027,
     "Key": 74,
     "DurationMs": 87,
     "Vel": 80
    },
    {
     "TimeMs": 239030,
     "Key": 40,
     "DurationMs": 170,
     "Vel": 80
    },
    {
     "TimeMs": 239031,
     "Key": 47,
     "DurationMs": 170,
     "Vel": 80
    },
    {
     "TimeMs": 239032,
     "Key": 52,
     "DurationMs": 170,
     "Vel": 80
    },
    {
     "TimeMs": 239123,
     "Key": 75,
     "DurationMs": 87,
     "Vel": 68
    },
    {
     "TimeMs": 239220,
     "Key": 64,
     "DurationMs": 701,
     "Vel": 80
    },
    {
     "TimeMs": 239221,
     "Key": 67,
     "DurationMs": 701,
     "Vel": 80
    },
    {
     "TimeMs": 239222,
     "Key": 71,
     "DurationMs": 701,
     "Vel": 80
    },
    {
     "TimeMs": 239222,
     "Key": 76,
     "DurationMs": 701,
     "Vel": 80
    },
    {
     "TimeMs": 239223,
     "Key": 28,
     "DurationMs": 701,
     "Vel": 80
    },
    {
     "TimeMs": 239224,
     "Key": 40,
     "DurationMs": 701,
     "Vel": 80
    }
   ]