[
  {
    "TimeMs": 0,
    "Key": 75,
    "DurationMs": 293,
    "Vel": 80
  },
  {
    "TimeMs": 1,
    "Key": 52,
    "DurationMs": 293,
    "Vel": 80
  },
  {
    "TimeMs": 326,
    "Key": 73,
    "DurationMs": 293,
    "Vel": 80
  },
  {
    "TimeMs": 327,
    "Key": 59,
    "DurationMs": 293,
    "Vel": 80
  },
  {
    "TimeMs": 652,
    "Key": 80,
    "DurationMs": 293,
    "Vel": 80
  },
  {
    "TimeMs": 653,
    "Key": 64,
    "DurationMs": 293,
    "Vel": 80
  },
  {
    "TimeMs": 978,
    "Key": 73,
    "DurationMs": 293,
    "Vel": 80
  },
  {
    "TimeMs": 979,
    "Key": 66,
    "DurationMs": 293,
    "Vel": 80
  },
  {
    "TimeMs": 1304,
    "Key": 75,
    "DurationMs": 293,
    "Vel": 80
  },
  {
    "TimeMs": 1305,
    "Key": 68,
    "DurationMs": 944,
    "Vel": 80
  },
  {
    "TimeMs": 1630,
    "Key": 73,
    "DurationMs": 293,
    "Vel": 80
  },
  {
    "TimeMs": 1956,
    "Key": 68,
    "DurationMs": 293,
    "Vel": 80
  },
  {
    "TimeMs": 2282,
    "Key": 73,
    "DurationMs": 293,
    "Vel": 80
  },
  {
    "TimeMs": 2608,
    "Key": 75,
    "DurationMs": 293,
    "Vel": 80
  },
  {
    "TimeMs": 2610,
    "Key": 54,
    "DurationMs": 293,
    "Vel": 80
  },
  {
    "TimeMs": 2934,
    "Key": 73,
    "DurationMs": 293,
    "Vel": 80
  },
  {
    "TimeMs": 2936,
    "Key": 61,
    "DurationMs": 293,
    "Vel": 80
  },
  {
    "TimeMs": 3260,
    "Key": 80,
    "DurationMs": 293,
    "Vel": 80
  },
  {
    "TimeMs": 3262,
    "Key": 66,
    "DurationMs": 293,
    "Vel": 80
  },
  {
    "TimeMs": 3586,
    "Key": 73,
    "DurationMs": 293,
    "Vel": 80
  },
  {
    "TimeMs": 3588,
    "Key": 68,
    "DurationMs": 293,
    "Vel": 80
  },
  {
    "TimeMs": 3913,
    "Key": 75,
    "DurationMs": 293,
    "Vel": 80
  },
  {
    "TimeMs": 3914,
    "Key": 70,
    "DurationMs": 1172,
    "Vel": 80
  },
  {
    "TimeMs": 4239,
    "Key": 73,
    "DurationMs": 293,
    "Vel": 80
  },
  {
    "TimeMs": 4565,
    "Key": 68,
    "DurationMs": 293,
    "Vel": 80
  },
  {
    "TimeMs": 4891,
    "Key": 73,
    "DurationMs": 293,
    "Vel": 80
  },
  {
    "TimeMs": 5217,
    "Key": 75,
    "DurationMs": 293,
    "Vel": 80
  },
  {
    "TimeMs": 5218,
    "Key": 56,
    "DurationMs": 293,
    "Vel": 80
  },
  {
    "TimeMs": 5543,
    "Key": 73,
    "DurationMs": 293,
    "Vel": 80
  },
  {
    "TimeMs": 5544,
    "Key": 63,
    "DurationMs": 293,
    "Vel": 80
  },
  {
    "TimeMs": 5869,
    "Key": 80,
    "DurationMs": 293,
    "Vel": 80
  },
  {
    "TimeMs": 5870,
    "Key": 68,
    "DurationMs": 293,
    "Vel": 80
  },
  {
    "TimeMs": 6195,
    "Key": 73,
    "DurationMs": 293,
    "Vel": 80
  },
  {
    "TimeMs": 6197,
    "Key": 70,
    "DurationMs": 293,
    "Vel": 80
  },
  {
    "TimeMs": 6521,
    "Key": 75,
    "DurationMs": 293,
    "Vel": 80
  },
  {
    "TimeMs": 6523,
    "Key": 71,
    "DurationMs": 1172,
    "Vel": 80
  },
  {
    "TimeMs": 6847,
    "Key": 73,
    "DurationMs": 293,
    "Vel": 80
  },
  {
    "TimeMs": 7173,
    "Key": 68,
    "DurationMs": 293,
    "Vel": 80
  },
  {
    "TimeMs": 7499,
    "Key": 73,
    "DurationMs": 293,
    "Vel": 80
  },
  {
    "TimeMs": 7826,
    "Key": 75,
    "DurationMs": 293,
    "Vel": 80
  },
  {
    "TimeMs": 8152,
    "Key": 73,
    "DurationMs": 293,
    "Vel": 80
  },
  {
    "TimeMs": 8478,
    "Key": 80,
    "DurationMs": 293,
    "Vel": 80
  },
  {
    "TimeMs": 8804,
    "Key": 73,
    "DurationMs": 293,
    "Vel": 80
  },
  {
    "TimeMs": 9130,
    "Key": 75,
    "DurationMs": 293,
    "Vel": 80
  },
  {
    "TimeMs": 9456,
    "Key": 73,
    "DurationMs": 293,
    "Vel": 80
  },
  {
    "TimeMs": 9782,
    "Key": 68,
    "DurationMs": 293,
    "Vel": 80
  },
  {
    "TimeMs": 10108,
    "Key": 73,
    "DurationMs": 293,
    "Vel": 80
  },
  {
    "TimeMs": 10434,
    "Key": 75,
    "DurationMs": 293,
    "Vel": 80
  },
  {
    "TimeMs": 10436,
    "Key": 52,
    "DurationMs": 293,
    "Vel": 80
  },
  {
    "TimeMs": 10760,
    "Key": 73,
    "DurationMs": 293,
    "Vel": 80
  },
  {
    "TimeMs": 10762,
    "Key": 59,
    "DurationMs": 293,
    "Vel": 80
  },
  {
    "TimeMs": 11086,
    "Key": 80,
    "DurationMs": 293,
    "Vel": 80
  },
  {
    "TimeMs": 11088,
    "Key": 64,
    "DurationMs": 293,
    "Vel": 80
  },
  {
    "TimeMs": 11413,
    "Key": 73,
    "DurationMs": 293,
    "Vel": 80
  },
  {
    "TimeMs": 11414,
    "Key": 66,
    "DurationMs": 293,
    "Vel": 80
  },
  {
    "TimeMs": 11739,
    "Key": 75,
    "DurationMs": 293,
    "Vel": 80
  },
  {
    "TimeMs": 11740,
    "Key": 68,
    "DurationMs": 944,
    "Vel": 80
  },
  {
    "TimeMs": 12065,
    "Key": 73,
    "DurationMs": 293,
    "Vel": 80
  },
  {
    "TimeMs": 12391,
    "Key": 68,
    "DurationMs": 293,
    "Vel": 80
  },
  {
    "TimeMs": 12717,
    "Key": 73,
    "DurationMs": 293,
    "Vel": 80
  },
  {
    "TimeMs": 13043,
    "Key": 75,
    "DurationMs": 293,
    "Vel": 80
  },
  {
    "TimeMs": 13044,
    "Key": 54,
    "DurationMs": 293,
    "Vel": 80
  },
  {
    "TimeMs": 13369,
    "Key": 73,
    "DurationMs": 293,
    "Vel": 80
  },
  {
    "TimeMs": 13370,
    "Key": 61,
    "DurationMs": 293,
    "Vel": 80
  },
  {
    "TimeMs": 13695,
    "Key": 80,
    "DurationMs": 293,
    "Vel": 80
  },
  {
    "TimeMs": 13696,
    "Key": 66,
    "DurationMs": 293,
    "Vel": 80
  },
  {
    "TimeMs": 14021,
    "Key": 73,
    "DurationMs": 293,
    "Vel": 80
  },
  {
    "TimeMs": 14023,
    "Key": 68,
    "DurationMs": 293,
    "Vel": 80
  },
  {
    "TimeMs": 14347,
    "Key": 75,
    "DurationMs": 293,
    "Vel": 80
  },
  {
    "TimeMs": 14349,
    "Key": 70,
    "DurationMs": 1172,
    "Vel": 80
  },
  {
    "TimeMs": 14673,
    "Key": 73,
    "DurationMs": 293,
    "Vel": 80
  },
  {
    "TimeMs": 14999,
    "Key": 68,
    "DurationMs": 293,
    "Vel": 80
  },
  {
    "TimeMs": 15326,
    "Key": 73,
    "DurationMs": 293,
    "Vel": 80
  },
  {
    "TimeMs": 15652,
    "Key": 75,
    "DurationMs": 293,
    "Vel": 80
  },
  {
    "TimeMs": 15653,
    "Key": 56,
    "DurationMs": 293,
    "Vel": 80
  },
  {
    "TimeMs": 15978,
    "Key": 73,
    "DurationMs": 293,
    "Vel": 80
  },
  {
    "TimeMs": 15979,
    "Key": 63,
    "DurationMs": 293,
    "Vel": 80
  },
  {
    "TimeMs": 16304,
    "Key": 80,
    "DurationMs": 293,
    "Vel": 80
  },
  {
    "TimeMs": 16305,
    "Key": 68,
    "DurationMs": 293,
    "Vel": 80
  },
  {
    "TimeMs": 16630,
    "Key": 73,
    "DurationMs": 293,
    "Vel": 80
  },
  {
    "TimeMs": 16631,
    "Key": 70,
    "DurationMs": 293,
    "Vel": 80
  },
  {
    "TimeMs": 16956,
    "Key": 75,
    "DurationMs": 293,
    "Vel": 80
  },
  {
    "TimeMs": 16957,
    "Key": 71,
    "DurationMs": 1172,
    "Vel": 80
  },
  {
    "TimeMs": 17282,
    "Key": 73,
    "DurationMs": 293,
    "Vel": 80
  },
  {
    "TimeMs": 17608,
    "Key": 80,
    "DurationMs": 293,
    "Vel": 80
  },
  {
    "TimeMs": 17934,
    "Key": 73,
    "DurationMs": 293,
    "Vel": 80
  },
  {
    "TimeMs": 18260,
    "Key": 87,
    "DurationMs": 1173,
    "Vel": 80
  },
  {
    "TimeMs": 18262,
    "Key": 84,
    "DurationMs": 1173,
    "Vel": 80
  },
  {
    "TimeMs": 18263,
    "Key": 80,
    "DurationMs": 1173,
    "Vel": 80
  },
  {
    "TimeMs": 18264,
    "Key": 75,
    "DurationMs": 1173,
    "Vel": 80
  },
  {
    "TimeMs": 18266,
    "Key": 68,
    "DurationMs": 1173,
    "Vel": 80
  },
  {
    "TimeMs": 18267,
    "Key": 63,
    "DurationMs": 1173,
    "Vel": 80
  },
  {
    "TimeMs": 18268,
    "Key": 60,
    "DurationMs": 1173,
    "Vel": 80
  },
  {
    "TimeMs": 18270,
    "Key": 56,
    "DurationMs": 1173,
    "Vel": 80
  },
  {
    "TimeMs": 19565,
    "Key": 75,
    "DurationMs": 440,
    "Vel": 80
  },
  {
    "TimeMs": 19891,
    "Key": 59,
    "DurationMs": 880,
    "Vel": 80
  },
  {
    "TimeMs": 20380,
    "Key": 68,
    "DurationMs": 146,
    "Vel": 80
  },
  {
    "TimeMs": 20543,
    "Key": 71,
    "DurationMs": 146,
    "Vel": 80
  },
  {
    "TimeMs": 20706,
    "Key": 75,
    "DurationMs": 146,
    "Vel": 80
  },
  {
    "TimeMs": 20869,
    "Key": 73,
    "DurationMs": 586,
    "Vel": 80
  },
  {
    "TimeMs": 20870,
    "Key": 70,
    "DurationMs": 586,
    "Vel": 80
  },
  {
    "TimeMs": 20872,
    "Key": 66,
    "DurationMs": 586,
    "Vel": 80
  },
  {
    "TimeMs": 20873,
    "Key": 54,
    "DurationMs": 289,
    "Vel": 80
  },
  {
    "TimeMs": 21195,
    "Key": 61,
    "DurationMs": 293,
    "Vel": 80
  },
  {
    "TimeMs": 21521,
    "Key": 78,
    "DurationMs": 586,
    "Vel": 80
  },
  {
    "TimeMs": 21523,
    "Key": 73,
    "DurationMs": 586,
    "Vel": 80
  },
  {
    "TimeMs": 21524,
    "Key": 66,
    "DurationMs": 586,
    "Vel": 80
  },
  {
    "TimeMs": 21525,
    "Key": 66,
    "DurationMs": 585,
    "Vel": 80
  },
  {
    "TimeMs": 22173,
    "Key": 73,
    "DurationMs": 440,
    "Vel": 80
  },
  {
    "TimeMs": 22175,
    "Key": 51,
    "DurationMs": 292,
    "Vel": 80
  },
  {
    "TimeMs": 22499,
    "Key": 58,
    "DurationMs": 293,
    "Vel": 80
  },
  {
    "TimeMs": 22663,
    "Key": 82,
    "DurationMs": 146,
    "Vel": 80
  },
  {
    "TimeMs": 22826,
    "Key": 80,
    "DurationMs": 440,
    "Vel": 80
  },
  {
    "TimeMs": 22827,
    "Key": 63,
    "DurationMs": 292,
    "Vel": 80
  },
  {
    "TimeMs": 23152,
    "Key": 58,
    "DurationMs": 293,
    "Vel": 80
  },
  {
    "TimeMs": 23315,
    "Key": 79,
    "DurationMs": 146,
    "Vel": 80
  },
  {
    "TimeMs": 23478,
    "Key": 80,
    "DurationMs": 586,
    "Vel": 80
  },
  {
    "TimeMs": 23479,
    "Key": 56,
    "DurationMs": 292,
    "Vel": 80
  },
  {
    "TimeMs": 23804,
    "Key": 63,
    "DurationMs": 293,
    "Vel": 80
  },
  {
    "TimeMs": 24130,
    "Key": 87,
    "DurationMs": 586,
    "Vel": 80
  },
  {
    "TimeMs": 24131,
    "Key": 68,
    "DurationMs": 292,
    "Vel": 80
  },
  {
    "TimeMs": 24456,
    "Key": 63,
    "DurationMs": 293,
    "Vel": 80
  },
  {
    "TimeMs": 24782,
    "Key": 80,
    "DurationMs": 586,
    "Vel": 80
  },
  {
    "TimeMs": 24783,
    "Key": 52,
    "DurationMs": 292,
    "Vel": 80
  },
  {
    "TimeMs": 25108,
    "Key": 59,
    "DurationMs": 293,
    "Vel": 80
  },
  {
    "TimeMs": 25434,
    "Key": 87,
    "DurationMs": 586,
    "Vel": 80
  },
  {
    "TimeMs": 25436,
    "Key": 80,
    "DurationMs": 586,
    "Vel": 80
  },
  {
    "TimeMs": 25437,
    "Key": 64,
    "DurationMs": 290,
    "Vel": 80
  },
  {
    "TimeMs": 25760,
    "Key": 59,
    "DurationMs": 293,
    "Vel": 80
  },
  {
    "TimeMs": 26086,
    "Key": 85,
    "DurationMs": 293,
    "Vel": 80
  },
  {
    "TimeMs": 26088,
    "Key": 54,
    "DurationMs": 293,
    "Vel": 80
  },
  {
    "TimeMs": 26413,
    "Key": 85,
    "DurationMs": 73,
    "Vel": 80
  },
  {
    "TimeMs": 26414,
    "Key": 61,
    "DurationMs": 292,
    "Vel": 80
  },
  {
    "TimeMs": 26494,
    "Key": 87,
    "DurationMs": 73,
    "Vel": 80
  },
  {
    "TimeMs": 26576,
    "Key": 85,
    "DurationMs": 146,
    "Vel": 80
  },
  {
    "TimeMs": 26739,
    "Key": 82,
    "DurationMs": 293,
    "Vel": 80
  },
  {
    "TimeMs": 26740,
    "Key": 66,
    "DurationMs": 293,
    "Vel": 80
  },
  {
    "TimeMs": 27065,
    "Key": 78,
    "DurationMs": 293,
    "Vel": 80
  },
  {
    "TimeMs": 27066,
    "Key": 61,
    "DurationMs": 293,
    "Vel": 80
  },
  {
    "TimeMs": 27391,
    "Key": 80,
    "DurationMs": 2184,
    "Vel": 80
  },
  {
    "TimeMs": 27392,
    "Key": 56,
    "DurationMs": 292,
    "Vel": 80
  },
  {
    "TimeMs": 27717,
    "Key": 63,
    "DurationMs": 293,
    "Vel": 80
  },
  {
    "TimeMs": 28043,
    "Key": 68,
    "DurationMs": 293,
    "Vel": 80
  },
  {
    "TimeMs": 28369,
    "Key": 70,
    "DurationMs": 293,
    "Vel": 80
  },
  {
    "TimeMs": 28695,
    "Key": 71,
    "DurationMs": 293,
    "Vel": 80
  },
  {
    "TimeMs": 29021,
    "Key": 63,
    "DurationMs": 293,
    "Vel": 80
  },
  {
    "TimeMs": 29347,
    "Key": 68,
    "DurationMs": 293,
    "Vel": 80
  },
  {
    "TimeMs": 29673,
    "Key": 75,
    "DurationMs": 293,
    "Vel": 80
  },
  {
    "TimeMs": 29999,
    "Key": 75,
    "DurationMs": 440,
    "Vel": 80
  },
  {
    "TimeMs": 30001,
    "Key": 71,
    "DurationMs": 440,
    "Vel": 80
  },
  {
    "TimeMs": 30002,
    "Key": 66,
    "DurationMs": 440,
    "Vel": 80
  },
  {
    "TimeMs": 30004,
    "Key": 52,
    "DurationMs": 289,
    "Vel": 80
  },
  {
    "TimeMs": 30326,
    "Key": 59,
    "DurationMs": 880,
    "Vel": 80
  },
  {
    "TimeMs": 30815,
    "Key": 68,
    "DurationMs": 146,
    "Vel": 80
  },
  {
    "TimeMs": 30978,
    "Key": 71,
    "DurationMs": 146,
    "Vel": 80
  },
  {
    "TimeMs": 31141,
    "Key": 75,
    "DurationMs": 146,
    "Vel": 80
  },
  {
    "TimeMs": 31304,
    "Key": 73,
    "DurationMs": 586,
    "Vel": 80
  },
  {
    "TimeMs": 31305,
    "Key": 70,
    "DurationMs": 586,
    "Vel": 80
  },
  {
    "TimeMs": 31307,
    "Key": 66,
    "DurationMs": 586,
    "Vel": 80
  },
  {
    "TimeMs": 31308,
    "Key": 54,
    "DurationMs": 289,
    "Vel": 80
  },
  {
    "TimeMs": 31630,
    "Key": 61,
    "DurationMs": 293,
    "Vel": 80
  },
  {
    "TimeMs": 31956,
    "Key": 78,
    "DurationMs": 586,
    "Vel": 80
  },
  {
    "TimeMs": 31957,
    "Key": 73,
    "DurationMs": 586,
    "Vel": 80
  },
  {
    "TimeMs": 31959,
    "Key": 66,
    "DurationMs": 586,
    "Vel": 80
  },
  {
    "TimeMs": 31960,
    "Key": 66,
    "DurationMs": 585,
    "Vel": 80
  },
  {
    "TimeMs": 32608,
    "Key": 73,
    "DurationMs": 293,
    "Vel": 80
  },
  {
    "TimeMs": 32610,
    "Key": 51,
    "DurationMs": 585,
    "Vel": 80
  },
  {
    "TimeMs": 32934,
    "Key": 79,
    "DurationMs": 293,
    "Vel": 80
  },
  {
    "TimeMs": 32936,
    "Key": 70,
    "DurationMs": 293,
    "Vel": 80
  },
  {
    "TimeMs": 33260,
    "Key": 80,
    "DurationMs": 293,
    "Vel": 80
  },
  {
    "TimeMs": 33262,
    "Key": 63,
    "DurationMs": 585,
    "Vel": 80
  },
  {
    "TimeMs": 33586,
    "Key": 82,
    "DurationMs": 293,
    "Vel": 80
  },
  {
    "TimeMs": 33912,
    "Key": 75,
    "DurationMs": 146,
    "Vel": 80
  },
  {
    "TimeMs": 33914,
    "Key": 56,
    "DurationMs": 292,
    "Vel": 80
  },
  {
    "TimeMs": 34076,
    "Key": 83,
    "DurationMs": 146,
    "Vel": 80
  },
  {
    "TimeMs": 34239,
    "Key": 73,
    "DurationMs": 146,
    "Vel": 80
  },
  {
    "TimeMs": 34240,
    "Key": 63,
    "DurationMs": 879,
    "Vel": 80
  },
  {
    "TimeMs": 34402,
    "Key": 82,
    "DurationMs": 146,
    "Vel": 80
  },
  {
    "TimeMs": 34565,
    "Key": 71,
    "DurationMs": 146,
    "Vel": 80
  },
  {
    "TimeMs": 34728,
    "Key": 80,
    "DurationMs": 146,
    "Vel": 80
  },
  {
    "TimeMs": 34891,
    "Key": 70,
    "DurationMs": 146,
    "Vel": 80
  },
  {
    "TimeMs": 35054,
    "Key": 78,
    "DurationMs": 146,
    "Vel": 80
  },
  {
    "TimeMs": 35217,
    "Key": 80,
    "DurationMs": 146,
    "Vel": 80
  },
  {
    "TimeMs": 35218,
    "Key": 52,
    "DurationMs": 292,
    "Vel": 80
  },
  {
    "TimeMs": 35380,
    "Key": 87,
    "DurationMs": 146,
    "Vel": 80
  },
  {
    "TimeMs": 35543,
    "Key": 85,
    "DurationMs": 146,
    "Vel": 80
  },
  {
    "TimeMs": 35544,
    "Key": 59,
    "DurationMs": 292,
    "Vel": 80
  },
  {
    "TimeMs": 35706,
    "Key": 87,
    "DurationMs": 146,
    "Vel": 80
  },
  {
    "TimeMs": 35869,
    "Key": 80,
    "DurationMs": 146,
    "Vel": 80
  },
  {
    "TimeMs": 35870,
    "Key": 64,
    "DurationMs": 585,
    "Vel": 80
  },
  {
    "TimeMs": 36032,
    "Key": 87,
    "DurationMs": 146,
    "Vel": 80
  },
  {
    "TimeMs": 36195,
    "Key": 85,
    "DurationMs": 146,
    "Vel": 80
  },
  {
    "TimeMs": 36358,
    "Key": 87,
    "DurationMs": 146,
    "Vel": 80
  },
  {
    "TimeMs": 36521,
    "Key": 80,
    "DurationMs": 146,
    "Vel": 80
  },
  {
    "TimeMs": 36523,
    "Key": 54,
    "DurationMs": 292,
    "Vel": 80
  },
  {
    "TimeMs": 36684,
    "Key": 87,
    "DurationMs": 146,
    "Vel": 80
  },
  {
    "TimeMs": 36847,
    "Key": 85,
    "DurationMs": 146,
    "Vel": 80
  },
  {
    "TimeMs": 36849,
    "Key": 61,
    "DurationMs": 292,
    "Vel": 80
  },
  {
    "TimeMs": 37010,
    "Key": 87,
    "DurationMs": 146,
    "Vel": 80
  },
  {
    "TimeMs": 37173,
    "Key": 80,
    "DurationMs": 146,
    "Vel": 80
  },
  {
    "TimeMs": 37175,
    "Key": 66,
    "DurationMs": 585,
    "Vel": 80
  },
  {
    "TimeMs": 37336,
    "Key": 87,
    "DurationMs": 146,
    "Vel": 80
  },
  {
    "TimeMs": 37499,
    "Key": 85,
    "DurationMs": 146,
    "Vel": 80
  },
  {
    "TimeMs": 37662,
    "Key": 87,
    "DurationMs": 146,
    "Vel": 80
  },
  {
    "TimeMs": 37826,
    "Key": 80,
    "DurationMs": 146,
    "Vel": 80
  },
  {
    "TimeMs": 37827,
    "Key": 56,
    "DurationMs": 292,
    "Vel": 80
  },
  {
    "TimeMs": 37989,
    "Key": 87,
    "DurationMs": 146,
    "Vel": 80
  },
  {
    "TimeMs": 38152,
    "Key": 84,
    "DurationMs": 146,
    "Vel": 80
  },
  {
    "TimeMs": 38153,
    "Key": 63,
    "DurationMs": 292,
    "Vel": 80
  },
  {
    "TimeMs": 38315,
    "Key": 87,
    "DurationMs": 146,
    "Vel": 80
  },
  {
    "TimeMs": 38478,
    "Key": 80,
    "DurationMs": 146,
    "Vel": 80
  },
  {
    "TimeMs": 38479,
    "Key": 68,
    "DurationMs": 292,
    "Vel": 80
  },
  {
    "TimeMs": 38641,
    "Key": 87,
    "DurationMs": 146,
    "Vel": 80
  },
  {
    "TimeMs": 38804,
    "Key": 84,
    "DurationMs": 146,
    "Vel": 80
  },
  {
    "TimeMs": 38805,
    "Key": 70,
    "DurationMs": 292,
    "Vel": 80
  },
  {
    "TimeMs": 38967,
    "Key": 87,
    "DurationMs": 146,
    "Vel": 80
  },
  {
    "TimeMs": 39130,
    "Key": 80,
    "DurationMs": 146,
    "Vel": 80
  },
  {
    "TimeMs": 39131,
    "Key": 72,
    "DurationMs": 1172,
    "Vel": 80
  },
  {
    "TimeMs": 39293,
    "Key": 87,
    "DurationMs": 146,
    "Vel": 80
  },
  {
    "TimeMs": 39456,
    "Key": 84,
    "DurationMs": 146,
    "Vel": 80
  },
  {
    "TimeMs": 39619,
    "Key": 87,
    "DurationMs": 146,
    "Vel": 80
  },
  {
    "TimeMs": 39782,
    "Key": 80,
    "DurationMs": 293,
    "Vel": 80
  },
  {
    "TimeMs": 40108,
    "Key": 75,
    "DurationMs": 293,
    "Vel": 80
  },
  {
    "TimeMs": 40434,
    "Key": 83,
    "DurationMs": 146,
    "Vel": 80
  },
  {
    "TimeMs": 40436,
    "Key": 56,
    "DurationMs": 292,
    "Vel": 80
  },
  {
    "TimeMs": 40597,
    "Key": 75,
    "DurationMs": 146,
    "Vel": 80
  },
  {
    "TimeMs": 40760,
    "Key": 82,
    "DurationMs": 146,
    "Vel": 80
  },
  {
    "TimeMs": 40762,
    "Key": 63,
    "DurationMs": 292,
    "Vel": 80
  },
  {
    "TimeMs": 40763,
    "Key": 59,
    "DurationMs": 292,
    "Vel": 80
  },
  {
    "TimeMs": 40923,
    "Key": 75,
    "DurationMs": 146,
    "Vel": 80
  },
  {
    "TimeMs": 41086,
    "Key": 83,
    "DurationMs": 146,
    "Vel": 80
  },
  {
    "TimeMs": 41088,
    "Key": 61,
    "DurationMs": 292,
    "Vel": 80
  },
  {
    "TimeMs": 41249,
    "Key": 75,
    "DurationMs": 146,
    "Vel": 80
  },
  {
    "TimeMs": 41412,
    "Key": 85,
    "DurationMs": 146,
    "Vel": 80
  },
  {
    "TimeMs": 41414,
    "Key": 66,
    "DurationMs": 292,
    "Vel": 80
  },
  {
    "TimeMs": 41415,
    "Key": 63,
    "DurationMs": 292,
    "Vel": 80
  },
  {
    "TimeMs": 41576,
    "Key": 75,
    "DurationMs": 146,
    "Vel": 80
  },
  {
    "TimeMs": 41739,
    "Key": 82,
    "DurationMs": 146,
    "Vel": 80
  },
  {
    "TimeMs": 41740,
    "Key": 66,
    "DurationMs": 292,
    "Vel": 80
  },
  {
    "TimeMs": 41741,
    "Key": 58,
    "DurationMs": 292,
    "Vel": 80
  },
  {
    "TimeMs": 41902,
    "Key": 70,
    "DurationMs": 146,
    "Vel": 80
  },
  {
    "TimeMs": 42065,
    "Key": 80,
    "DurationMs": 146,
    "Vel": 80
  },
  {
    "TimeMs": 42066,
    "Key": 65,
    "DurationMs": 292,
    "Vel": 80
  },
  {
    "TimeMs": 42067,
    "Key": 56,
    "DurationMs": 292,
    "Vel": 80
  },
  {
    "TimeMs": 42228,
    "Key": 70,
    "DurationMs": 146,
    "Vel": 80
  },
  {
    "TimeMs": 42391,
    "Key": 78,
    "DurationMs": 293,
    "Vel": 80
  },
  {
    "TimeMs": 42392,
    "Key": 63,
    "DurationMs": 585,
    "Vel": 80
  },
  {
    "TimeMs": 42393,
    "Key": 54,
    "DurationMs": 585,
    "Vel": 80
  },
  {
    "TimeMs": 42717,
    "Key": 75,
    "DurationMs": 146,
    "Vel": 80
  },
  {
    "TimeMs": 42880,
    "Key": 78,
    "DurationMs": 146,
    "Vel": 80
  },
  {
    "TimeMs": 43043,
    "Key": 80,
    "DurationMs": 146,
    "Vel": 80
  },
  {
    "TimeMs": 43044,
    "Key": 52,
    "DurationMs": 146,
    "Vel": 80
  },
  {
    "TimeMs": 43206,
    "Key": 71,
    "DurationMs": 146,
    "Vel": 80
  },
  {
    "TimeMs": 43207,
    "Key": 59,
    "DurationMs": 146,
    "Vel": 80
  },
  {
    "TimeMs": 43369,
    "Key": 78,
    "DurationMs": 146,
    "Vel": 80
  },
  {
    "TimeMs": 43370,
    "Key": 64,
    "DurationMs": 146,
    "Vel": 80
  },
  {
    "TimeMs": 43532,
    "Key": 71,
    "DurationMs": 146,
    "Vel": 80
  },
  {
    "TimeMs": 43533,
    "Key": 59,
    "DurationMs": 146,
    "Vel": 80
  },
  {
    "TimeMs": 43695,
    "Key": 80,
    "DurationMs": 146,
    "Vel": 80
  },
  {
    "TimeMs": 43696,
    "Key": 64,
    "DurationMs": 146,
    "Vel": 80
  },
  {
    "TimeMs": 43858,
    "Key": 71,
    "DurationMs": 146,
    "Vel": 80
  },
  {
    "TimeMs": 43859,
    "Key": 59,
    "DurationMs": 146,
    "Vel": 80
  },
  {
    "TimeMs": 44021,
    "Key": 83,
    "DurationMs": 146,
    "Vel": 80
  },
  {
    "TimeMs": 44023,
    "Key": 64,
    "DurationMs": 146,
    "Vel": 80
  },
  {
    "TimeMs": 44184,
    "Key": 71,
    "DurationMs": 146,
    "Vel": 80
  },
  {
    "TimeMs": 44186,
    "Key": 66,
    "DurationMs": 146,
    "Vel": 80
  },
  {
    "TimeMs": 44347,
    "Key": 78,
    "DurationMs": 146,
    "Vel": 80
  },
  {
    "TimeMs": 44349,
    "Key": 63,
    "DurationMs": 292,
    "Vel": 80
  },
  {
    "TimeMs": 44350,
    "Key": 59,
    "DurationMs": 292,
    "Vel": 80
  },
  {
    "TimeMs": 44510,
    "Key": 71,
    "DurationMs": 146,
    "Vel": 80
  },
  {
    "TimeMs": 44673,
    "Key": 76,
    "DurationMs": 146,
    "Vel": 80
  },
  {
    "TimeMs": 44675,
    "Key": 59,
    "DurationMs": 292,
    "Vel": 80
  },
  {
    "TimeMs": 44676,
    "Key": 54,
    "DurationMs": 292,
    "Vel": 80
  },
  {
    "TimeMs": 44836,
    "Key": 71,
    "DurationMs": 146,
    "Vel": 80
  },
  {
    "TimeMs": 44999,
    "Key": 75,
    "DurationMs": 293,
    "Vel": 80
  },
  {
    "TimeMs": 45001,
    "Key": 63,
    "DurationMs": 585,
    "Vel": 80
  },
  {
    "TimeMs": 45002,
    "Key": 54,
    "DurationMs": 585,
    "Vel": 80
  },
  {
    "TimeMs": 45326,
    "Key": 75,
    "DurationMs": 146,
    "Vel": 80
  },
  {
    "TimeMs": 45489,
    "Key": 78,
    "DurationMs": 146,
    "Vel": 80
  },
  {
    "TimeMs": 45652,
    "Key": 76,
    "DurationMs": 146,
    "Vel": 80
  },
  {
    "TimeMs": 45815,
    "Key": 68,
    "DurationMs": 146,
    "Vel": 80
  },
  {
    "TimeMs": 45978,
    "Key": 75,
    "DurationMs": 146,
    "Vel": 80
  },
  {
    "TimeMs": 45979,
    "Key": 66,
    "DurationMs": 146,
    "Vel": 80
  },
  {
    "TimeMs": 46141,
    "Key": 68,
    "DurationMs": 146,
    "Vel": 80
  },
  {
    "TimeMs": 46142,
    "Key": 64,
    "DurationMs": 146,
    "Vel": 80
  },
  {
    "TimeMs": 46304,
    "Key": 73,
    "DurationMs": 146,
    "Vel": 80
  },
  {
    "TimeMs": 46305,
    "Key": 63,
    "DurationMs": 146,
    "Vel": 80
  },
  {
    "TimeMs": 46467,
    "Key": 68,
    "DurationMs": 146,
    "Vel": 80
  },
  {
    "TimeMs": 46468,
    "Key": 61,
    "DurationMs": 146,
    "Vel": 80
  },
  {
    "TimeMs": 46630,
    "Key": 76,
    "DurationMs": 146,
    "Vel": 80
  },
  {
    "TimeMs": 46631,
    "Key": 59,
    "DurationMs": 292,
    "Vel": 80
  },
  {
    "TimeMs": 46793,
    "Key": 68,
    "DurationMs": 146,
    "Vel": 80
  },
  {
    "TimeMs": 46956,
    "Key": 75,
    "DurationMs": 146,
    "Vel": 80
  },
  {
    "TimeMs": 47119,
    "Key": 68,
    "DurationMs": 146,
    "Vel": 80
  },
  {
    "TimeMs": 47282,
    "Key": 73,
    "DurationMs": 146,
    "Vel": 80
  },
  {
    "TimeMs": 47283,
    "Key": 63,
    "DurationMs": 146,
    "Vel": 80
  },
  {
    "TimeMs": 47445,
    "Key": 68,
    "DurationMs": 146,
    "Vel": 80
  },
  {
    "TimeMs": 47446,
    "Key": 61,
    "DurationMs": 146,
    "Vel": 80
  },
  {
    "TimeMs": 47608,
    "Key": 71,
    "DurationMs": 146,
    "Vel": 80
  },
  {
    "TimeMs": 47609,
    "Key": 59,
    "DurationMs": 146,
    "Vel": 80
  },
  {
    "TimeMs": 47771,
    "Key": 68,
    "DurationMs": 146,
    "Vel": 80
  },
  {
    "TimeMs": 47773,
    "Key": 58,
    "DurationMs": 146,
    "Vel": 80
  },
  {
    "TimeMs": 47934,
    "Key": 75,
    "DurationMs": 146,
    "Vel": 80
  },
  {
    "TimeMs": 47936,
    "Key": 56,
    "DurationMs": 146,
    "Vel": 80
  },
  {
    "TimeMs": 48097,
    "Key": 68,
    "DurationMs": 146,
    "Vel": 80
  },
  {
    "TimeMs": 48099,
    "Key": 54,
    "DurationMs": 146,
    "Vel": 80
  },
  {
    "TimeMs": 48260,
    "Key": 73,
    "DurationMs": 146,
    "Vel": 80
  },
  {
    "TimeMs": 48262,
    "Key": 52,
    "DurationMs": 292,
    "Vel": 80
  },
  {
    "TimeMs": 48423,
    "Key": 64,
    "DurationMs": 146,
    "Vel": 80
  },
  {
    "TimeMs": 48586,
    "Key": 71,
    "DurationMs": 146,
    "Vel": 80
  },
  {
    "TimeMs": 48588,
    "Key": 52,
    "DurationMs": 146,
    "Vel": 80
  },
  {
    "TimeMs": 48749,
    "Key": 64,
    "DurationMs": 146,
    "Vel": 80
  },
  {
    "TimeMs": 48751,
    "Key": 54,
    "DurationMs": 146,
    "Vel": 80
  },
  {
    "TimeMs": 48912,
    "Key": 70,
    "DurationMs": 146,
    "Vel": 80
  },
  {
    "TimeMs": 48914,
    "Key": 56,
    "DurationMs": 146,
    "Vel": 80
  },
  {
    "TimeMs": 49076,
    "Key": 64,
    "DurationMs": 146,
    "Vel": 80
  },
  {
    "TimeMs": 49077,
    "Key": 58,
    "DurationMs": 146,
    "Vel": 80
  },
  {
    "TimeMs": 49239,
    "Key": 68,
    "DurationMs": 146,
    "Vel": 80
  },
  {
    "TimeMs": 49240,
    "Key": 59,
    "DurationMs": 146,
    "Vel": 80
  },
  {
    "TimeMs": 49402,
    "Key": 64,
    "DurationMs": 146,
    "Vel": 80
  },
  {
    "TimeMs": 49403,
    "Key": 64,
    "DurationMs": 145,
    "Vel": 80
  },
  {
    "TimeMs": 49565,
    "Key": 67,
    "DurationMs": 146,
    "Vel": 80
  },
  {
    "TimeMs": 49566,
    "Key": 61,
    "DurationMs": 292,
    "Vel": 80
  },
  {
    "TimeMs": 49567,
    "Key": 49,
    "DurationMs": 292,
    "Vel": 80
  },
  {
    "TimeMs": 49728,
    "Key": 63,
    "DurationMs": 146,
    "Vel": 80
  },
  {
    "TimeMs": 49891,
    "Key": 68,
    "DurationMs": 146,
    "Vel": 80
  },
  {
    "TimeMs": 49892,
    "Key": 59,
    "DurationMs": 292,
    "Vel": 80
  },
  {
    "TimeMs": 49893,
    "Key": 47,
    "DurationMs": 292,
    "Vel": 80
  },
  {
    "TimeMs": 50054,
    "Key": 63,
    "DurationMs": 146,
    "Vel": 80
  },
  {
    "TimeMs": 50217,
    "Key": 70,
    "DurationMs": 293,
    "Vel": 80
  },
  {
    "TimeMs": 50218,
    "Key": 58,
    "DurationMs": 585,
    "Vel": 80
  },
  {
    "TimeMs": 50220,
    "Key": 46,
    "DurationMs": 585,
    "Vel": 80
  },
  {
    "TimeMs": 50543,
    "Key": 63,
    "DurationMs": 293,
    "Vel": 80
  },
  {
    "TimeMs": 50869,
    "Key": 71,
    "DurationMs": 146,
    "Vel": 80
  },
  {
    "TimeMs": 51032,
    "Key": 63,
    "DurationMs": 146,
    "Vel": 80
  },
  {
    "TimeMs": 51195,
    "Key": 70,
    "DurationMs": 146,
    "Vel": 80
  },
  {
    "TimeMs": 51196,
    "Key": 51,
    "DurationMs": 146,
    "Vel": 80
  },
  {
    "TimeMs": 51358,
    "Key": 63,
    "DurationMs": 146,
    "Vel": 80
  },
  {
    "TimeMs": 51359,
    "Key": 51,
    "DurationMs": 146,
    "Vel": 80
  },
  {
    "TimeMs": 51521,
    "Key": 71,
    "DurationMs": 146,
    "Vel": 80
  },
  {
    "TimeMs": 51523,
    "Key": 47,
    "DurationMs": 292,
    "Vel": 80
  },
  {
    "TimeMs": 51684,
    "Key": 63,
    "DurationMs": 146,
    "Vel": 80
  },
  {
    "TimeMs": 51847,
    "Key": 73,
    "DurationMs": 146,
    "Vel": 80
  },
  {
    "TimeMs": 51849,
    "Key": 44,
    "DurationMs": 292,
    "Vel": 80
  },
  {
    "TimeMs": 52010,
    "Key": 63,
    "DurationMs": 146,
    "Vel": 80
  },
  {
    "TimeMs": 52173,
    "Key": 70,
    "DurationMs": 146,
    "Vel": 80
  },
  {
    "TimeMs": 52175,
    "Key": 42,
    "DurationMs": 292,
    "Vel": 80
  },
  {
    "TimeMs": 52336,
    "Key": 58,
    "DurationMs": 146,
    "Vel": 80
  },
  {
    "TimeMs": 52499,
    "Key": 68,
    "DurationMs": 146,
    "Vel": 80
  },
  {
    "TimeMs": 52501,
    "Key": 44,
    "DurationMs": 292,
    "Vel": 80
  },
  {
    "TimeMs": 52662,
    "Key": 58,
    "DurationMs": 146,
    "Vel": 80
  },
  {
    "TimeMs": 52826,
    "Key": 66,
    "DurationMs": 293,
    "Vel": 80
  },
  {
    "TimeMs": 52827,
    "Key": 46,
    "DurationMs": 585,
    "Vel": 80
  },
  {
    "TimeMs": 53152,
    "Key": 63,
    "DurationMs": 146,
    "Vel": 80
  },
  {
    "TimeMs": 53315,
    "Key": 66,
    "DurationMs": 146,
    "Vel": 80
  },
  {
    "TimeMs": 53478,
    "Key": 68,
    "DurationMs": 146,
    "Vel": 80
  },
  {
    "TimeMs": 53479,
    "Key": 40,
    "DurationMs": 146,
    "Vel": 80
  },
  {
    "TimeMs": 53641,
    "Key": 59,
    "DurationMs": 146,
    "Vel": 80
  },
  {
    "TimeMs": 53642,
    "Key": 47,
    "DurationMs": 146,
    "Vel": 80
  },
  {
    "TimeMs": 53804,
    "Key": 68,
    "DurationMs": 146,
    "Vel": 80
  },
  {
    "TimeMs": 53805,
    "Key": 52,
    "DurationMs": 146,
    "Vel": 80
  },
  {
    "TimeMs": 53967,
    "Key": 66,
    "DurationMs": 146,
    "Vel": 80
  },
  {
    "TimeMs": 53968,
    "Key": 47,
    "DurationMs": 146,
    "Vel": 80
  },
  {
    "TimeMs": 54130,
    "Key": 68,
    "DurationMs": 146,
    "Vel": 80
  },
  {
    "TimeMs": 54131,
    "Key": 52,
    "DurationMs": 146,
    "Vel": 80
  },
  {
    "TimeMs": 54293,
    "Key": 70,
    "DurationMs": 146,
    "Vel": 80
  },
  {
    "TimeMs": 54294,
    "Key": 47,
    "DurationMs": 146,
    "Vel": 80
  },
  {
    "TimeMs": 54456,
    "Key": 71,
    "DurationMs": 146,
    "Vel": 80
  },
  {
    "TimeMs": 54457,
    "Key": 52,
    "DurationMs": 146,
    "Vel": 80
  },
  {
    "TimeMs": 54619,
    "Key": 68,
    "DurationMs": 146,
    "Vel": 80
  },
  {
    "TimeMs": 54620,
    "Key": 54,
    "DurationMs": 146,
    "Vel": 80
  },
  {
    "TimeMs": 54782,
    "Key": 66,
    "DurationMs": 146,
    "Vel": 80
  },
  {
    "TimeMs": 54783,
    "Key": 42,
    "DurationMs": 146,
    "Vel": 80
  },
  {
    "TimeMs": 54945,
    "Key": 59,
    "DurationMs": 146,
    "Vel": 80
  },
  {
    "TimeMs": 54946,
    "Key": 47,
    "DurationMs": 146,
    "Vel": 80
  },
  {
    "TimeMs": 55108,
    "Key": 64,
    "DurationMs": 146,
    "Vel": 80
  },
  {
    "TimeMs": 55109,
    "Key": 52,
    "DurationMs": 146,
    "Vel": 80
  },
  {
    "TimeMs": 55271,
    "Key": 59,
    "DurationMs": 146,
    "Vel": 80
  },
  {
    "TimeMs": 55273,
    "Key": 47,
    "DurationMs": 146,
    "Vel": 80
  },
  {
    "TimeMs": 55434,
    "Key": 63,
    "DurationMs": 293,
    "Vel": 80
  },
  {
    "TimeMs": 55436,
    "Key": 51,
    "DurationMs": 293,
    "Vel": 80
  },
  {
    "TimeMs": 55760,
    "Key": 63,
    "DurationMs": 146,
    "Vel": 80
  },
  {
    "TimeMs": 55762,
    "Key": 47,
    "DurationMs": 292,
    "Vel": 80
  },
  {
    "TimeMs": 55923,
    "Key": 66,
    "DurationMs": 146,
    "Vel": 80
  },
  {
    "TimeMs": 56086,
    "Key": 64,
    "DurationMs": 293,
    "Vel": 80
  },
  {
    "TimeMs": 56088,
    "Key": 37,
    "DurationMs": 293,
    "Vel": 80
  },
  {
    "TimeMs": 56412,
    "Key": 76,
    "DurationMs": 146,
    "Vel": 80
  },
  {
    "TimeMs": 56414,
    "Key": 37,
    "DurationMs": 146,
    "Vel": 80
  },
  {
    "TimeMs": 56576,
    "Key": 75,
    "DurationMs": 146,
    "Vel": 80
  },
  {
    "TimeMs": 56577,
    "Key": 44,
    "DurationMs": 146,
    "Vel": 80
  },
  {
    "TimeMs": 56739,
    "Key": 73,
    "DurationMs": 146,
    "Vel": 80
  },
  {
    "TimeMs": 56740,
    "Key": 51,
    "DurationMs": 292,
    "Vel": 80
  },
  {
    "TimeMs": 56902,
    "Key": 71,
    "DurationMs": 146,
    "Vel": 80
  },
  {
    "TimeMs": 57065,
    "Key": 70,
    "DurationMs": 146,
    "Vel": 80
  },
  {
    "TimeMs": 57066,
    "Key": 52,
    "DurationMs": 292,
    "Vel": 80
  },
  {
    "TimeMs": 57391,
    "Key": 75,
    "DurationMs": 146,
    "Vel": 80
  },
  {
    "TimeMs": 57392,
    "Key": 56,
    "DurationMs": 146,
    "Vel": 80
  },
  {
    "TimeMs": 57554,
    "Key": 73,
    "DurationMs": 146,
    "Vel": 80
  },
  {
    "TimeMs": 57555,
    "Key": 51,
    "DurationMs": 146,
    "Vel": 80
  },
  {
    "TimeMs": 57717,
    "Key": 75,
    "DurationMs": 146,
    "Vel": 80
  },
  {
    "TimeMs": 57718,
    "Key": 56,
    "DurationMs": 146,
    "Vel": 80
  },
  {
    "TimeMs": 57880,
    "Key": 76,
    "DurationMs": 146,
    "Vel": 80
  },
  {
    "TimeMs": 57881,
    "Key": 58,
    "DurationMs": 146,
    "Vel": 80
  },
  {
    "TimeMs": 58043,
    "Key": 75,
    "DurationMs": 146,
    "Vel": 80
  },
  {
    "TimeMs": 58044,
    "Key": 59,
    "DurationMs": 292,
    "Vel": 80
  },
  {
    "TimeMs": 58206,
    "Key": 73,
    "DurationMs": 146,
    "Vel": 80
  },
  {
    "TimeMs": 58369,
    "Key": 71,
    "DurationMs": 146,
    "Vel": 80
  },
  {
    "TimeMs": 58370,
    "Key": 63,
    "DurationMs": 292,
    "Vel": 80
  },
  {
    "TimeMs": 58532,
    "Key": 70,
    "DurationMs": 146,
    "Vel": 80
  },
  {
    "TimeMs": 58695,
    "Key": 68,
    "DurationMs": 293,
    "Vel": 80
  },
  {
    "TimeMs": 58696,
    "Key": 61,
    "DurationMs": 293,
    "Vel": 80
  },
  {
    "TimeMs": 59021,
    "Key": 75,
    "DurationMs": 293,
    "Vel": 80
  },
  {
    "TimeMs": 59023,
    "Key": 59,
    "DurationMs": 293,
    "Vel": 80
  },
  {
    "TimeMs": 59347,
    "Key": 67,
    "DurationMs": 293,
    "Vel": 80
  },
  {
    "TimeMs": 59349,
    "Key": 58,
    "DurationMs": 438,
    "Vel": 80
  },
  {
    "TimeMs": 59673,
    "Key": 75,
    "DurationMs": 293,
    "Vel": 80
  },
  {
    "TimeMs": 59836,
    "Key": 56,
    "DurationMs": 146,
    "Vel": 80
  },
  {
    "TimeMs": 59999,
    "Key": 68,
    "DurationMs": 1173,
    "Vel": 80
  },
  {
    "TimeMs": 60001,
    "Key": 44,
    "DurationMs": 292,
    "Vel": 80
  },
  {
    "TimeMs": 60326,
    "Key": 51,
    "DurationMs": 293,
    "Vel": 80
  },
  {
    "TimeMs": 60652,
    "Key": 56,
    "DurationMs": 586,
    "Vel": 80
  },
  {
    "TimeMs": 61304,
    "Key": 75,
    "DurationMs": 440,
    "Vel": 80
  },
  {
    "TimeMs": 61305,
    "Key": 71,
    "DurationMs": 292,
    "Vel": 80
  },
  {
    "TimeMs": 61306,
    "Key": 66,
    "DurationMs": 292,
    "Vel": 80
  },
  {
    "TimeMs": 61308,
    "Key": 52,
    "DurationMs": 292,
    "Vel": 80
  },
  {
    "TimeMs": 61630,
    "Key": 59,
    "DurationMs": 293,
    "Vel": 80
  },
  {
    "TimeMs": 61956,
    "Key": 64,
    "DurationMs": 586,
    "Vel": 80
  },
  {
    "TimeMs": 62119,
    "Key": 68,
    "DurationMs": 146,
    "Vel": 80
  },
  {
    "TimeMs": 62282,
    "Key": 71,
    "DurationMs": 146,
    "Vel": 80
  },
  {
    "TimeMs": 62445,
    "Key": 75,
    "DurationMs": 146,
    "Vel": 80
  },
  {
    "TimeMs": 62608,
    "Key": 73,
    "DurationMs": 586,
    "Vel": 80
  },
  {
    "TimeMs": 62609,
    "Key": 70,
    "DurationMs": 586,
    "Vel": 80
  },
  {
    "TimeMs": 62611,
    "Key": 66,
    "DurationMs": 586,
    "Vel": 80
  },
  {
    "TimeMs": 62612,
    "Key": 54,
    "DurationMs": 289,
    "Vel": 80
  },
  {
    "TimeMs": 62934,
    "Key": 61,
    "DurationMs": 293,
    "Vel": 80
  },
  {
    "TimeMs": 63260,
    "Key": 78,
    "DurationMs": 586,
    "Vel": 80
  },
  {
    "TimeMs": 63262,
    "Key": 73,
    "DurationMs": 586,
    "Vel": 80
  },
  {
    "TimeMs": 63263,
    "Key": 66,
    "DurationMs": 586,
    "Vel": 80
  },
  {
    "TimeMs": 63264,
    "Key": 66,
    "DurationMs": 585,
    "Vel": 80
  },
  {
    "TimeMs": 63912,
    "Key": 73,
    "DurationMs": 440,
    "Vel": 80
  },
  {
    "TimeMs": 63914,
    "Key": 51,
    "DurationMs": 292,
    "Vel": 80
  },
  {
    "TimeMs": 64239,
    "Key": 58,
    "DurationMs": 293,
    "Vel": 80
  },
  {
    "TimeMs": 64402,
    "Key": 82,
    "DurationMs": 146,
    "Vel": 80
  },
  {
    "TimeMs": 64565,
    "Key": 80,
    "DurationMs": 440,
    "Vel": 80
  },
  {
    "TimeMs": 64566,
    "Key": 63,
    "DurationMs": 292,
    "Vel": 80
  },
  {
    "TimeMs": 64891,
    "Key": 58,
    "DurationMs": 293,
    "Vel": 80
  },
  {
    "TimeMs": 65054,
    "Key": 79,
    "DurationMs": 146,
    "Vel": 80
  },
  {
    "TimeMs": 65217,
    "Key": 80,
    "DurationMs": 586,
    "Vel": 80
  },
  {
    "TimeMs": 65218,
    "Key": 56,
    "DurationMs": 292,
    "Vel": 80
  },
  {
    "TimeMs": 65543,
    "Key": 63,
    "DurationMs": 293,
    "Vel": 80
  },
  {
    "TimeMs": 65869,
    "Key": 87,
    "DurationMs": 586,
    "Vel": 80
  },
  {
    "TimeMs": 65870,
    "Key": 68,
    "DurationMs": 292,
    "Vel": 80
  },
  {
    "TimeMs": 66195,
    "Key": 63,
    "DurationMs": 293,
    "Vel": 80
  },
  {
    "TimeMs": 66521,
    "Key": 80,
    "DurationMs": 586,
    "Vel": 80
  },
  {
    "TimeMs": 66523,
    "Key": 52,
    "DurationMs": 292,
    "Vel": 80
  },
  {
    "TimeMs": 66847,
    "Key": 59,
    "DurationMs": 293,
    "Vel": 80
  },
  {
    "TimeMs": 67173,
    "Key": 87,
    "DurationMs": 586,
    "Vel": 80
  },
  {
    "TimeMs": 67175,
    "Key": 80,
    "DurationMs": 586,
    "Vel": 80
  },
  {
    "TimeMs": 67176,
    "Key": 64,
    "DurationMs": 290,
    "Vel": 80
  },
  {
    "TimeMs": 67499,
    "Key": 59,
    "DurationMs": 293,
    "Vel": 80
  },
  {
    "TimeMs": 67825,
    "Key": 85,
    "DurationMs": 293,
    "Vel": 80
  },
  {
    "TimeMs": 67827,
    "Key": 54,
    "DurationMs": 293,
    "Vel": 80
  },
  {
    "TimeMs": 68152,
    "Key": 85,
    "DurationMs": 73,
    "Vel": 80
  },
  {
    "TimeMs": 68153,
    "Key": 61,
    "DurationMs": 292,
    "Vel": 80
  },
  {
    "TimeMs": 68233,
    "Key": 87,
    "DurationMs": 73,
    "Vel": 80
  },
  {
    "TimeMs": 68315,
    "Key": 85,
    "DurationMs": 146,
    "Vel": 80
  },
  {
    "TimeMs": 68478,
    "Key": 82,
    "DurationMs": 293,
    "Vel": 80
  },
  {
    "TimeMs": 68479,
    "Key": 66,
    "DurationMs": 293,
    "Vel": 80
  },
  {
    "TimeMs": 68804,
    "Key": 78,
    "DurationMs": 293,
    "Vel": 80
  },
  {
    "TimeMs": 68805,
    "Key": 61,
    "DurationMs": 293,
    "Vel": 80
  },
  {
    "TimeMs": 69130,
    "Key": 80,
    "DurationMs": 2184,
    "Vel": 80
  },
  {
    "TimeMs": 69131,
    "Key": 56,
    "DurationMs": 292,
    "Vel": 80
  },
  {
    "TimeMs": 69456,
    "Key": 63,
    "DurationMs": 293,
    "Vel": 80
  },
  {
    "TimeMs": 69782,
    "Key": 68,
    "DurationMs": 293,
    "Vel": 80
  },
  {
    "TimeMs": 70108,
    "Key": 70,
    "DurationMs": 293,
    "Vel": 80
  },
  {
    "TimeMs": 70434,
    "Key": 71,
    "DurationMs": 293,
    "Vel": 80
  },
  {
    "TimeMs": 70760,
    "Key": 63,
    "DurationMs": 293,
    "Vel": 80
  },
  {
    "TimeMs": 71086,
    "Key": 68,
    "DurationMs": 293,
    "Vel": 80
  },
  {
    "TimeMs": 71412,
    "Key": 75,
    "DurationMs": 146,
    "Vel": 80
  },
  {
    "TimeMs": 71575,
    "Key": 68,
    "DurationMs": 146,
    "Vel": 80
  },
  {
    "TimeMs": 71739,
    "Key": 75,
    "DurationMs": 440,
    "Vel": 80
  },
  {
    "TimeMs": 71740,
    "Key": 71,
    "DurationMs": 292,
    "Vel": 80
  },
  {
    "TimeMs": 71741,
    "Key": 66,
    "DurationMs": 292,
    "Vel": 80
  },
  {
    "TimeMs": 71743,
    "Key": 52,
    "DurationMs": 292,
    "Vel": 80
  },
  {
    "TimeMs": 72065,
    "Key": 59,
    "DurationMs": 440,
    "Vel": 80
  },
  {
    "TimeMs": 72554,
    "Key": 68,
    "DurationMs": 146,
    "Vel": 80
  },
  {
    "TimeMs": 72717,
    "Key": 71,
    "DurationMs": 146,
    "Vel": 80
  },
  {
    "TimeMs": 72880,
    "Key": 75,
    "DurationMs": 146,
    "Vel": 80
  },
  {
    "TimeMs": 73043,
    "Key": 73,
    "DurationMs": 586,
    "Vel": 80
  },
  {
    "TimeMs": 73044,
    "Key": 70,
    "DurationMs": 586,
    "Vel": 80
  },
  {
    "TimeMs": 73046,
    "Key": 66,
    "DurationMs": 586,
    "Vel": 80
  },
  {
    "TimeMs": 73047,
    "Key": 54,
    "DurationMs": 289,
    "Vel": 80
  },
  {
    "TimeMs": 73369,
    "Key": 61,
    "DurationMs": 293,
    "Vel": 80
  },
  {
    "TimeMs": 73695,
    "Key": 78,
    "DurationMs": 586,
    "Vel": 80
  },
  {
    "TimeMs": 73696,
    "Key": 73,
    "DurationMs": 586,
    "Vel": 80
  },
  {
    "TimeMs": 73698,
    "Key": 66,
    "DurationMs": 586,
    "Vel": 80
  },
  {
    "TimeMs": 73699,
    "Key": 66,
    "DurationMs": 585,
    "Vel": 80
  },
  {
    "TimeMs": 74347,
    "Key": 73,
    "DurationMs": 293,
    "Vel": 80
  },
  {
    "TimeMs": 74349,
    "Key": 51,
    "DurationMs": 293,
    "Vel": 80
  },
  {
    "TimeMs": 74673,
    "Key": 79,
    "DurationMs": 293,
    "Vel": 80
  },
  {
    "TimeMs": 74675,
    "Key": 58,
    "DurationMs": 293,
    "Vel": 80
  },
  {
    "TimeMs": 74999,
    "Key": 80,
    "DurationMs": 293,
    "Vel": 80
  },
  {
    "TimeMs": 75001,
    "Key": 63,
    "DurationMs": 585,
    "Vel": 80
  },
  {
    "TimeMs": 75325,
    "Key": 82,
    "DurationMs": 293,
    "Vel": 80
  },
  {
    "TimeMs": 75652,
    "Key": 75,
    "DurationMs": 146,
    "Vel": 80
  },
  {
    "TimeMs": 75653,
    "Key": 56,
    "DurationMs": 292,
    "Vel": 80
  },
  {
    "TimeMs": 75815,
    "Key": 83,
    "DurationMs": 146,
    "Vel": 80
  },
  {
    "TimeMs": 75978,
    "Key": 73,
    "DurationMs": 146,
    "Vel": 80
  },
  {
    "TimeMs": 75979,
    "Key": 63,
    "DurationMs": 879,
    "Vel": 80
  },
  {
    "TimeMs": 76141,
    "Key": 82,
    "DurationMs": 146,
    "Vel": 80
  },
  {
    "TimeMs": 76304,
    "Key": 71,
    "DurationMs": 146,
    "Vel": 80
  },
  {
    "TimeMs": 76467,
    "Key": 80,
    "DurationMs": 146,
    "Vel": 80
  },
  {
    "TimeMs": 76630,
    "Key": 70,
    "DurationMs": 146,
    "Vel": 80
  },
  {
    "TimeMs": 76793,
    "Key": 78,
    "DurationMs": 146,
    "Vel": 80
  },
  {
    "TimeMs": 76956,
    "Key": 80,
    "DurationMs": 146,
    "Vel": 80
  },
  {
    "TimeMs": 76957,
    "Key": 52,
    "DurationMs": 292,
    "Vel": 80
  },
  {
    "TimeMs": 77119,
    "Key": 87,
    "DurationMs": 146,
    "Vel": 80
  },
  {
    "TimeMs": 77282,
    "Key": 85,
    "DurationMs": 146,
    "Vel": 80
  },
  {
    "TimeMs": 77283,
    "Key": 59,
    "DurationMs": 292,
    "Vel": 80
  },
  {
    "TimeMs": 77445,
    "Key": 87,
    "DurationMs": 146,
    "Vel": 80
  },
  {
    "TimeMs": 77608,
    "Key": 80,
    "DurationMs": 146,
    "Vel": 80
  },
  {
    "TimeMs": 77609,
    "Key": 64,
    "DurationMs": 585,
    "Vel": 80
  },
  {
    "TimeMs": 77771,
    "Key": 87,
    "DurationMs": 146,
    "Vel": 80
  },
  {
    "TimeMs": 77934,
    "Key": 85,
    "DurationMs": 146,
    "Vel": 80
  },
  {
    "TimeMs": 78097,
    "Key": 87,
    "DurationMs": 146,
    "Vel": 80
  },
  {
    "TimeMs": 78260,
    "Key": 80,
    "DurationMs": 146,
    "Vel": 80
  },
  {
    "TimeMs": 78262,
    "Key": 54,
    "DurationMs": 292,
    "Vel": 80
  },
  {
    "TimeMs": 78423,
    "Key": 87,
    "DurationMs": 146,
    "Vel": 80
  },
  {
    "TimeMs": 78586,
    "Key": 85,
    "DurationMs": 146,
    "Vel": 80
  },
  {
    "TimeMs": 78588,
    "Key": 61,
    "DurationMs": 292,
    "Vel": 80
  },
  {
    "TimeMs": 78749,
    "Key": 87,
    "DurationMs": 146,
    "Vel": 80
  },
  {
    "TimeMs": 78912,
    "Key": 80,
    "DurationMs": 146,
    "Vel": 80
  },
  {
    "TimeMs": 78914,
    "Key": 66,
    "DurationMs": 585,
    "Vel": 80
  },
  {
    "TimeMs": 79075,
    "Key": 87,
    "DurationMs": 146,
    "Vel": 80
  },
  {
    "TimeMs": 79239,
    "Key": 85,
    "DurationMs": 146,
    "Vel": 80
  },
  {
    "TimeMs": 79402,
    "Key": 87,
    "DurationMs": 146,
    "Vel": 80
  },
  {
    "TimeMs": 79565,
    "Key": 80,
    "DurationMs": 146,
    "Vel": 80
  },
  {
    "TimeMs": 79566,
    "Key": 56,
    "DurationMs": 292,
    "Vel": 80
  },
  {
    "TimeMs": 79728,
    "Key": 87,
    "DurationMs": 146,
    "Vel": 80
  },
  {
    "TimeMs": 79891,
    "Key": 84,
    "DurationMs": 146,
    "Vel": 80
  },
  {
    "TimeMs": 79892,
    "Key": 63,
    "DurationMs": 292,
    "Vel": 80
  },
  {
    "TimeMs": 80054,
    "Key": 87,
    "DurationMs": 146,
    "Vel": 80
  },
  {
    "TimeMs": 80217,
    "Key": 80,
    "DurationMs": 146,
    "Vel": 80
  },
  {
    "TimeMs": 80218,
    "Key": 68,
    "DurationMs": 292,
    "Vel": 80
  },
  {
    "TimeMs": 80380,
    "Key": 87,
    "DurationMs": 146,
    "Vel": 80
  },
  {
    "TimeMs": 80543,
    "Key": 84,
    "DurationMs": 146,
    "Vel": 80
  },
  {
    "TimeMs": 80544,
    "Key": 70,
    "DurationMs": 292,
    "Vel": 80
  },
  {
    "TimeMs": 80706,
    "Key": 87,
    "DurationMs": 146,
    "Vel": 80
  },
  {
    "TimeMs": 80869,
    "Key": 80,
    "DurationMs": 146,
    "Vel": 80
  },
  {
    "TimeMs": 80870,
    "Key": 72,
    "DurationMs": 1172,
    "Vel": 80
  },
  {
    "TimeMs": 81032,
    "Key": 87,
    "DurationMs": 146,
    "Vel": 80
  },
  {
    "TimeMs": 81195,
    "Key": 84,
    "DurationMs": 146,
    "Vel": 80
  },
  {
    "TimeMs": 81358,
    "Key": 87,
    "DurationMs": 146,
    "Vel": 80
  },
  {
    "TimeMs": 81521,
    "Key": 80,
    "DurationMs": 586,
    "Vel": 80
  },
  {
    "TimeMs": 82173,
    "Key": 75,
    "DurationMs": 440,
    "Vel": 80
  },
  {
    "TimeMs": 82175,
    "Key": 71,
    "DurationMs": 292,
    "Vel": 80
  },
  {
    "TimeMs": 82176,
    "Key": 66,
    "DurationMs": 292,
    "Vel": 80
  },
  {
    "TimeMs": 82177,
    "Key": 52,
    "DurationMs": 292,
    "Vel": 80
  },
  {
    "TimeMs": 82499,
    "Key": 59,
    "DurationMs": 293,
    "Vel": 80
  },
  {
    "TimeMs": 82825,
    "Key": 64,
    "DurationMs": 586,
    "Vel": 80
  },
  {
    "TimeMs": 82989,
    "Key": 68,
    "DurationMs": 146,
    "Vel": 80
  },
  {
    "TimeMs": 83152,
    "Key": 71,
    "DurationMs": 146,
    "Vel": 80
  },
  {
    "TimeMs": 83315,
    "Key": 75,
    "DurationMs": 146,
    "Vel": 80
  },
  {
    "TimeMs": 83478,
    "Key": 73,
    "DurationMs": 586,
    "Vel": 80
  },
  {
    "TimeMs": 83479,
    "Key": 70,
    "DurationMs": 586,
    "Vel": 80
  },
  {
    "TimeMs": 83480,
    "Key": 66,
    "DurationMs": 586,
    "Vel": 80
  },
  {
    "TimeMs": 83482,
    "Key": 54,
    "DurationMs": 289,
    "Vel": 80
  },
  {
    "TimeMs": 83804,
    "Key": 61,
    "DurationMs": 293,
    "Vel": 80
  },
  {
    "TimeMs": 84130,
    "Key": 78,
    "DurationMs": 586,
    "Vel": 80
  },
  {
    "TimeMs": 84131,
    "Key": 73,
    "DurationMs": 586,
    "Vel": 80
  },
  {
    "TimeMs": 84133,
    "Key": 66,
    "DurationMs": 586,
    "Vel": 80
  },
  {
    "TimeMs": 84134,
    "Key": 66,
    "DurationMs": 585,
    "Vel": 80
  },
  {
    "TimeMs": 84782,
    "Key": 73,
    "DurationMs": 440,
    "Vel": 80
  },
  {
    "TimeMs": 84783,
    "Key": 51,
    "DurationMs": 292,
    "Vel": 80
  },
  {
    "TimeMs": 85108,
    "Key": 58,
    "DurationMs": 293,
    "Vel": 80
  },
  {
    "TimeMs": 85271,
    "Key": 82,
    "DurationMs": 146,
    "Vel": 80
  },
  {
    "TimeMs": 85434,
    "Key": 80,
    "DurationMs": 440,
    "Vel": 80
  },
  {
    "TimeMs": 85436,
    "Key": 63,
    "DurationMs": 292,
    "Vel": 80
  },
  {
    "TimeMs": 85760,
    "Key": 58,
    "DurationMs": 293,
    "Vel": 80
  },
  {
    "TimeMs": 85923,
    "Key": 79,
    "DurationMs": 146,
    "Vel": 80
  },
  {
    "TimeMs": 86086,
    "Key": 80,
    "DurationMs": 586,
    "Vel": 80
  },
  {
    "TimeMs": 86088,
    "Key": 56,
    "DurationMs": 292,
    "Vel": 80
  },
  {
    "TimeMs": 86412,
    "Key": 63,
    "DurationMs": 293,
    "Vel": 80
  },
  {
    "TimeMs": 86739,
    "Key": 87,
    "DurationMs": 586,
    "Vel": 80
  },
  {
    "TimeMs": 86740,
    "Key": 68,
    "DurationMs": 292,
    "Vel": 80
  },
  {
    "TimeMs": 87065,
    "Key": 63,
    "DurationMs": 293,
    "Vel": 80
  },
  {
    "TimeMs": 87391,
    "Key": 80,
    "DurationMs": 586,
    "Vel": 80
  },
  {
    "TimeMs": 87392,
    "Key": 52,
    "DurationMs": 292,
    "Vel": 80
  },
  {
    "TimeMs": 87717,
    "Key": 59,
    "DurationMs": 293,
    "Vel": 80
  },
  {
    "TimeMs": 88043,
    "Key": 87,
    "DurationMs": 586,
    "Vel": 80
  },
  {
    "TimeMs": 88044,
    "Key": 80,
    "DurationMs": 586,
    "Vel": 80
  },
  {
    "TimeMs": 88046,
    "Key": 64,
    "DurationMs": 290,
    "Vel": 80
  },
  {
    "TimeMs": 88369,
    "Key": 59,
    "DurationMs": 293,
    "Vel": 80
  },
  {
    "TimeMs": 88695,
    "Key": 85,
    "DurationMs": 293,
    "Vel": 80
  },
  {
    "TimeMs": 88696,
    "Key": 54,
    "DurationMs": 293,
    "Vel": 80
  },
  {
    "TimeMs": 89021,
    "Key": 85,
    "DurationMs": 73,
    "Vel": 80
  },
  {
    "TimeMs": 89022,
    "Key": 61,
    "DurationMs": 292,
    "Vel": 80
  },
  {
    "TimeMs": 89103,
    "Key": 87,
    "DurationMs": 73,
    "Vel": 80
  },
  {
    "TimeMs": 89184,
    "Key": 85,
    "DurationMs": 146,
    "Vel": 80
  },
  {
    "TimeMs": 89347,
    "Key": 82,
    "DurationMs": 293,
    "Vel": 80
  },
  {
    "TimeMs": 89349,
    "Key": 66,
    "DurationMs": 293,
    "Vel": 80
  },
  {
    "TimeMs": 89673,
    "Key": 78,
    "DurationMs": 293,
    "Vel": 80
  },
  {
    "TimeMs": 89675,
    "Key": 61,
    "DurationMs": 293,
    "Vel": 80
  },
  {
    "TimeMs": 89999,
    "Key": 80,
    "DurationMs": 2184,
    "Vel": 80
  },
  {
    "TimeMs": 90001,
    "Key": 56,
    "DurationMs": 292,
    "Vel": 80
  },
  {
    "TimeMs": 90325,
    "Key": 63,
    "DurationMs": 293,
    "Vel": 80
  },
  {
    "TimeMs": 90652,
    "Key": 68,
    "DurationMs": 293,
    "Vel": 80
  },
  {
    "TimeMs": 90978,
    "Key": 70,
    "DurationMs": 293,
    "Vel": 80
  },
  {
    "TimeMs": 91304,
    "Key": 71,
    "DurationMs": 293,
    "Vel": 80
  },
  {
    "TimeMs": 91630,
    "Key": 63,
    "DurationMs": 293,
    "Vel": 80
  },
  {
    "TimeMs": 91956,
    "Key": 68,
    "DurationMs": 293,
    "Vel": 80
  },
  {
    "TimeMs": 92282,
    "Key": 75,
    "DurationMs": 146,
    "Vel": 80
  },
  {
    "TimeMs": 92445,
    "Key": 68,
    "DurationMs": 146,
    "Vel": 80
  },
  {
    "TimeMs": 92608,
    "Key": 75,
    "DurationMs": 440,
    "Vel": 80
  },
  {
    "TimeMs": 92609,
    "Key": 71,
    "DurationMs": 292,
    "Vel": 80
  },
  {
    "TimeMs": 92611,
    "Key": 66,
    "DurationMs": 292,
    "Vel": 80
  },
  {
    "TimeMs": 92612,
    "Key": 52,
    "DurationMs": 292,
    "Vel": 80
  },
  {
    "TimeMs": 92934,
    "Key": 59,
    "DurationMs": 440,
    "Vel": 80
  },
  {
    "TimeMs": 93423,
    "Key": 68,
    "DurationMs": 146,
    "Vel": 80
  },
  {
    "TimeMs": 93586,
    "Key": 71,
    "DurationMs": 146,
    "Vel": 80
  },
  {
    "TimeMs": 93749,
    "Key": 75,
    "DurationMs": 146,
    "Vel": 80
  },
  {
    "TimeMs": 93912,
    "Key": 73,
    "DurationMs": 586,
    "Vel": 80
  },
  {
    "TimeMs": 93914,
    "Key": 70,
    "DurationMs": 586,
    "Vel": 80
  },
  {
    "TimeMs": 93915,
    "Key": 66,
    "DurationMs": 586,
    "Vel": 80
  },
  {
    "TimeMs": 93916,
    "Key": 54,
    "DurationMs": 289,
    "Vel": 80
  },
  {
    "TimeMs": 94238,
    "Key": 61,
    "DurationMs": 293,
    "Vel": 80
  },
  {
    "TimeMs": 94565,
    "Key": 78,
    "DurationMs": 586,
    "Vel": 80
  },
  {
    "TimeMs": 94566,
    "Key": 73,
    "DurationMs": 586,
    "Vel": 80
  },
  {
    "TimeMs": 94567,
    "Key": 66,
    "DurationMs": 586,
    "Vel": 80
  },
  {
    "TimeMs": 94569,
    "Key": 66,
    "DurationMs": 585,
    "Vel": 80
  },
  {
    "TimeMs": 95217,
    "Key": 73,
    "DurationMs": 293,
    "Vel": 80
  },
  {
    "TimeMs": 95218,
    "Key": 51,
    "DurationMs": 293,
    "Vel": 80
  },
  {
    "TimeMs": 95543,
    "Key": 79,
    "DurationMs": 293,
    "Vel": 80
  },
  {
    "TimeMs": 95544,
    "Key": 58,
    "DurationMs": 293,
    "Vel": 80
  },
  {
    "TimeMs": 95869,
    "Key": 80,
    "DurationMs": 293,
    "Vel": 80
  },
  {
    "TimeMs": 95870,
    "Key": 63,
    "DurationMs": 585,
    "Vel": 80
  },
  {
    "TimeMs": 96195,
    "Key": 82,
    "DurationMs": 293,
    "Vel": 80
  },
  {
    "TimeMs": 96521,
    "Key": 75,
    "DurationMs": 146,
    "Vel": 80
  },
  {
    "TimeMs": 96522,
    "Key": 56,
    "DurationMs": 292,
    "Vel": 80
  },
  {
    "TimeMs": 96684,
    "Key": 83,
    "DurationMs": 146,
    "Vel": 80
  },
  {
    "TimeMs": 96847,
    "Key": 73,
    "DurationMs": 146,
    "Vel": 80
  },
  {
    "TimeMs": 96849,
    "Key": 63,
    "DurationMs": 879,
    "Vel": 80
  },
  {
    "TimeMs": 97010,
    "Key": 82,
    "DurationMs": 146,
    "Vel": 80
  },
  {
    "TimeMs": 97173,
    "Key": 71,
    "DurationMs": 146,
    "Vel": 80
  },
  {
    "TimeMs": 97336,
    "Key": 80,
    "DurationMs": 146,
    "Vel": 80
  },
  {
    "TimeMs": 97499,
    "Key": 70,
    "DurationMs": 146,
    "Vel": 80
  },
  {
    "TimeMs": 97662,
    "Key": 78,
    "DurationMs": 146,
    "Vel": 80
  },
  {
    "TimeMs": 97825,
    "Key": 80,
    "DurationMs": 146,
    "Vel": 80
  },
  {
    "TimeMs": 97827,
    "Key": 52,
    "DurationMs": 292,
    "Vel": 80
  },
  {
    "TimeMs": 97988,
    "Key": 87,
    "DurationMs": 146,
    "Vel": 80
  },
  {
    "TimeMs": 98152,
    "Key": 85,
    "DurationMs": 146,
    "Vel": 80
  },
  {
    "TimeMs": 98153,
    "Key": 59,
    "DurationMs": 292,
    "Vel": 80
  },
  {
    "TimeMs": 98315,
    "Key": 87,
    "DurationMs": 146,
    "Vel": 80
  },
  {
    "TimeMs": 98478,
    "Key": 80,
    "DurationMs": 146,
    "Vel": 80
  },
  {
    "TimeMs": 98479,
    "Key": 64,
    "DurationMs": 585,
    "Vel": 80
  },
  {
    "TimeMs": 98641,
    "Key": 87,
    "DurationMs": 146,
    "Vel": 80
  },
  {
    "TimeMs": 98804,
    "Key": 85,
    "DurationMs": 146,
    "Vel": 80
  },
  {
    "TimeMs": 98967,
    "Key": 87,
    "DurationMs": 146,
    "Vel": 80
  },
  {
    "TimeMs": 99130,
    "Key": 80,
    "DurationMs": 146,
    "Vel": 80
  },
  {
    "TimeMs": 99131,
    "Key": 54,
    "DurationMs": 292,
    "Vel": 80
  },
  {
    "TimeMs": 99293,
    "Key": 87,
    "DurationMs": 146,
    "Vel": 80
  },
  {
    "TimeMs": 99456,
    "Key": 85,
    "DurationMs": 146,
    "Vel": 80
  },
  {
    "TimeMs": 99457,
    "Key": 61,
    "DurationMs": 292,
    "Vel": 80
  },
  {
    "TimeMs": 99619,
    "Key": 87,
    "DurationMs": 146,
    "Vel": 80
  },
  {
    "TimeMs": 99782,
    "Key": 80,
    "DurationMs": 146,
    "Vel": 80
  },
  {
    "TimeMs": 99783,
    "Key": 66,
    "DurationMs": 585,
    "Vel": 80
  },
  {
    "TimeMs": 99945,
    "Key": 87,
    "DurationMs": 146,
    "Vel": 80
  },
  {
    "TimeMs": 100108,
    "Key": 85,
    "DurationMs": 146,
    "Vel": 80
  },
  {
    "TimeMs": 100271,
    "Key": 87,
    "DurationMs": 146,
    "Vel": 80
  },
  {
    "TimeMs": 100434,
    "Key": 80,
    "DurationMs": 146,
    "Vel": 80
  },
  {
    "TimeMs": 100436,
    "Key": 56,
    "DurationMs": 292,
    "Vel": 80
  },
  {
    "TimeMs": 100597,
    "Key": 87,
    "DurationMs": 146,
    "Vel": 80
  },
  {
    "TimeMs": 100760,
    "Key": 84,
    "DurationMs": 146,
    "Vel": 80
  },
  {
    "TimeMs": 100762,
    "Key": 63,
    "DurationMs": 292,
    "Vel": 80
  },
  {
    "TimeMs": 100923,
    "Key": 87,
    "DurationMs": 146,
    "Vel": 80
  },
  {
    "TimeMs": 101086,
    "Key": 80,
    "DurationMs": 146,
    "Vel": 80
  },
  {
    "TimeMs": 101088,
    "Key": 68,
    "DurationMs": 292,
    "Vel": 80
  },
  {
    "TimeMs": 101249,
    "Key": 87,
    "DurationMs": 146,
    "Vel": 80
  },
  {
    "TimeMs": 101412,
    "Key": 84,
    "DurationMs": 146,
    "Vel": 80
  },
  {
    "TimeMs": 101414,
    "Key": 70,
    "DurationMs": 292,
    "Vel": 80
  },
  {
    "TimeMs": 101575,
    "Key": 87,
    "DurationMs": 146,
    "Vel": 80
  },
  {
    "TimeMs": 101738,
    "Key": 80,
    "DurationMs": 146,
    "Vel": 80
  },
  {
    "TimeMs": 101740,
    "Key": 72,
    "DurationMs": 1172,
    "Vel": 80
  },
  {
    "TimeMs": 101902,
    "Key": 87,
    "DurationMs": 146,
    "Vel": 80
  },
  {
    "TimeMs": 102065,
    "Key": 84,
    "DurationMs": 146,
    "Vel": 80
  },
  {
    "TimeMs": 102228,
    "Key": 87,
    "DurationMs": 146,
    "Vel": 80
  },
  {
    "TimeMs": 102391,
    "Key": 80,
    "DurationMs": 293,
    "Vel": 80
  },
  {
    "TimeMs": 102717,
    "Key": 75,
    "DurationMs": 293,
    "Vel": 80
  },
  {
    "TimeMs": 103043,
    "Key": 83,
    "DurationMs": 146,
    "Vel": 80
  },
  {
    "TimeMs": 103044,
    "Key": 56,
    "DurationMs": 292,
    "Vel": 80
  },
  {
    "TimeMs": 103206,
    "Key": 75,
    "DurationMs": 146,
    "Vel": 80
  },
  {
    "TimeMs": 103369,
    "Key": 82,
    "DurationMs": 146,
    "Vel": 80
  },
  {
    "TimeMs": 103370,
    "Key": 63,
    "DurationMs": 292,
    "Vel": 80
  },
  {
    "TimeMs": 103372,
    "Key": 59,
    "DurationMs": 292,
    "Vel": 80
  },
  {
    "TimeMs": 103532,
    "Key": 75,
    "DurationMs": 146,
    "Vel": 80
  },
  {
    "TimeMs": 103695,
    "Key": 83,
    "DurationMs": 146,
    "Vel": 80
  },
  {
    "TimeMs": 103696,
    "Key": 61,
    "DurationMs": 292,
    "Vel": 80
  },
  {
    "TimeMs": 103858,
    "Key": 75,
    "DurationMs": 146,
    "Vel": 80
  },
  {
    "TimeMs": 104021,
    "Key": 85,
    "DurationMs": 146,
    "Vel": 80
  },
  {
    "TimeMs": 104022,
    "Key": 66,
    "DurationMs": 292,
    "Vel": 80
  },
  {
    "TimeMs": 104024,
    "Key": 63,
    "DurationMs": 292,
    "Vel": 80
  },
  {
    "TimeMs": 104184,
    "Key": 75,
    "DurationMs": 146,
    "Vel": 80
  },
  {
    "TimeMs": 104347,
    "Key": 82,
    "DurationMs": 146,
    "Vel": 80
  },
  {
    "TimeMs": 104349,
    "Key": 66,
    "DurationMs": 292,
    "Vel": 80
  },
  {
    "TimeMs": 104350,
    "Key": 58,
    "DurationMs": 292,
    "Vel": 80
  },
  {
    "TimeMs": 104510,
    "Key": 70,
    "DurationMs": 146,
    "Vel": 80
  },
  {
    "TimeMs": 104673,
    "Key": 80,
    "DurationMs": 146,
    "Vel": 80
  },
  {
    "TimeMs": 104675,
    "Key": 65,
    "DurationMs": 292,
    "Vel": 80
  },
  {
    "TimeMs": 104676,
    "Key": 56,
    "DurationMs": 292,
    "Vel": 80
  },
  {
    "TimeMs": 104836,
    "Key": 70,
    "DurationMs": 146,
    "Vel": 80
  },
  {
    "TimeMs": 104999,
    "Key": 78,
    "DurationMs": 293,
    "Vel": 80
  },
  {
    "TimeMs": 105001,
    "Key": 63,
    "DurationMs": 585,
    "Vel": 80
  },
  {
    "TimeMs": 105002,
    "Key": 54,
    "DurationMs": 585,
    "Vel": 80
  },
  {
    "TimeMs": 105325,
    "Key": 75,
    "DurationMs": 146,
    "Vel": 80
  },
  {
    "TimeMs": 105488,
    "Key": 78,
    "DurationMs": 146,
    "Vel": 80
  },
  {
    "TimeMs": 105652,
    "Key": 80,
    "DurationMs": 146,
    "Vel": 80
  },
  {
    "TimeMs": 105653,
    "Key": 40,
    "DurationMs": 146,
    "Vel": 80
  },
  {
    "TimeMs": 105815,
    "Key": 71,
    "DurationMs": 146,
    "Vel": 80
  },
  {
    "TimeMs": 105816,
    "Key": 47,
    "DurationMs": 146,
    "Vel": 80
  },
  {
    "TimeMs": 105978,
    "Key": 78,
    "DurationMs": 146,
    "Vel": 80
  },
  {
    "TimeMs": 105979,
    "Key": 56,
    "DurationMs": 146,
    "Vel": 80
  },
  {
    "TimeMs": 106141,
    "Key": 71,
    "DurationMs": 146,
    "Vel": 80
  },
  {
    "TimeMs": 106142,
    "Key": 54,
    "DurationMs": 146,
    "Vel": 80
  },
  {
    "TimeMs": 106304,
    "Key": 80,
    "DurationMs": 146,
    "Vel": 80
  },
  {
    "TimeMs": 106305,
    "Key": 56,
    "DurationMs": 146,
    "Vel": 80
  },
  {
    "TimeMs": 106467,
    "Key": 71,
    "DurationMs": 146,
    "Vel": 80
  },
  {
    "TimeMs": 106468,
    "Key": 58,
    "DurationMs": 146,
    "Vel": 80
  },
  {
    "TimeMs": 106630,
    "Key": 83,
    "DurationMs": 146,
    "Vel": 80
  },
  {
    "TimeMs": 106631,
    "Key": 59,
    "DurationMs": 146,
    "Vel": 80
  },
  {
    "TimeMs": 106793,
    "Key": 71,
    "DurationMs": 146,
    "Vel": 80
  },
  {
    "TimeMs": 106794,
    "Key": 56,
    "DurationMs": 146,
    "Vel": 80
  },
  {
    "TimeMs": 106956,
    "Key": 78,
    "DurationMs": 146,
    "Vel": 80
  },
  {
    "TimeMs": 106957,
    "Key": 63,
    "DurationMs": 292,
    "Vel": 80
  },
  {
    "TimeMs": 106959,
    "Key": 59,
    "DurationMs": 292,
    "Vel": 80
  },
  {
    "TimeMs": 107119,
    "Key": 71,
    "DurationMs": 146,
    "Vel": 80
  },
  {
    "TimeMs": 107282,
    "Key": 76,
    "DurationMs": 146,
    "Vel": 80
  },
  {
    "TimeMs": 107283,
    "Key": 59,
    "DurationMs": 292,
    "Vel": 80
  },
  {
    "TimeMs": 107285,
    "Key": 54,
    "DurationMs": 292,
    "Vel": 80
  },
  {
    "TimeMs": 107445,
    "Key": 71,
    "DurationMs": 146,
    "Vel": 80
  },
  {
    "TimeMs": 107608,
    "Key": 75,
    "DurationMs": 293,
    "Vel": 80
  },
  {
    "TimeMs": 107609,
    "Key": 63,
    "DurationMs": 585,
    "Vel": 80
  },
  {
    "TimeMs": 107611,
    "Key": 54,
    "DurationMs": 585,
    "Vel": 80
  },
  {
    "TimeMs": 107934,
    "Key": 75,
    "DurationMs": 146,
    "Vel": 80
  },
  {
    "TimeMs": 108097,
    "Key": 78,
    "DurationMs": 146,
    "Vel": 80
  },
  {
    "TimeMs": 108260,
    "Key": 76,
    "DurationMs": 146,
    "Vel": 80
  },
  {
    "TimeMs": 108423,
    "Key": 68,
    "DurationMs": 146,
    "Vel": 80
  },
  {
    "TimeMs": 108586,
    "Key": 75,
    "DurationMs": 146,
    "Vel": 80
  },
  {
    "TimeMs": 108588,
    "Key": 66,
    "DurationMs": 146,
    "Vel": 80
  },
  {
    "TimeMs": 108749,
    "Key": 68,
    "DurationMs": 146,
    "Vel": 80
  },
  {
    "TimeMs": 108751,
    "Key": 64,
    "DurationMs": 146,
    "Vel": 80
  },
  {
    "TimeMs": 108912,
    "Key": 73,
    "DurationMs": 146,
    "Vel": 80
  },
  {
    "TimeMs": 108914,
    "Key": 63,
    "DurationMs": 146,
    "Vel": 80
  },
  {
    "TimeMs": 109075,
    "Key": 68,
    "DurationMs": 146,
    "Vel": 80
  },
  {
    "TimeMs": 109077,
    "Key": 61,
    "DurationMs": 146,
    "Vel": 80
  },
  {
    "TimeMs": 109238,
    "Key": 76,
    "DurationMs": 146,
    "Vel": 80
  },
  {
    "TimeMs": 109240,
    "Key": 59,
    "DurationMs": 292,
    "Vel": 80
  },
  {
    "TimeMs": 109402,
    "Key": 68,
    "DurationMs": 146,
    "Vel": 80
  },
  {
    "TimeMs": 109565,
    "Key": 75,
    "DurationMs": 146,
    "Vel": 80
  },
  {
    "TimeMs": 109728,
    "Key": 68,
    "DurationMs": 146,
    "Vel": 80
  },
  {
    "TimeMs": 109891,
    "Key": 73,
    "DurationMs": 146,
    "Vel": 80
  },
  {
    "TimeMs": 109892,
    "Key": 63,
    "DurationMs": 146,
    "Vel": 80
  },
  {
    "TimeMs": 110054,
    "Key": 68,
    "DurationMs": 146,
    "Vel": 80
  },
  {
    "TimeMs": 110055,
    "Key": 61,
    "DurationMs": 146,
    "Vel": 80
  },
  {
    "TimeMs": 110217,
    "Key": 71,
    "DurationMs": 146,
    "Vel": 80
  },
  {
    "TimeMs": 110218,
    "Key": 59,
    "DurationMs": 146,
    "Vel": 80
  },
  {
    "TimeMs": 110380,
    "Key": 68,
    "DurationMs": 146,
    "Vel": 80
  },
  {
    "TimeMs": 110381,
    "Key": 58,
    "DurationMs": 146,
    "Vel": 80
  },
  {
    "TimeMs": 110543,
    "Key": 75,
    "DurationMs": 146,
    "Vel": 80
  },
  {
    "TimeMs": 110544,
    "Key": 56,
    "DurationMs": 146,
    "Vel": 80
  },
  {
    "TimeMs": 110706,
    "Key": 68,
    "DurationMs": 146,
    "Vel": 80
  },
  {
    "TimeMs": 110707,
    "Key": 54,
    "DurationMs": 146,
    "Vel": 80
  },
  {
    "TimeMs": 110869,
    "Key": 73,
    "DurationMs": 146,
    "Vel": 80
  },
  {
    "TimeMs": 110870,
    "Key": 52,
    "DurationMs": 292,
    "Vel": 80
  },
  {
    "TimeMs": 111032,
    "Key": 64,
    "DurationMs": 146,
    "Vel": 80
  },
  {
    "TimeMs": 111195,
    "Key": 71,
    "DurationMs": 146,
    "Vel": 80
  },
  {
    "TimeMs": 111196,
    "Key": 52,
    "DurationMs": 146,
    "Vel": 80
  },
  {
    "TimeMs": 111358,
    "Key": 64,
    "DurationMs": 146,
    "Vel": 80
  },
  {
    "TimeMs": 111359,
    "Key": 54,
    "DurationMs": 146,
    "Vel": 80
  },
  {
    "TimeMs": 111521,
    "Key": 70,
    "DurationMs": 146,
    "Vel": 80
  },
  {
    "TimeMs": 111522,
    "Key": 56,
    "DurationMs": 146,
    "Vel": 80
  },
  {
    "TimeMs": 111684,
    "Key": 64,
    "DurationMs": 146,
    "Vel": 80
  },
  {
    "TimeMs": 111685,
    "Key": 58,
    "DurationMs": 146,
    "Vel": 80
  },
  {
    "TimeMs": 111847,
    "Key": 68,
    "DurationMs": 146,
    "Vel": 80
  },
  {
    "TimeMs": 111849,
    "Key": 59,
    "DurationMs": 146,
    "Vel": 80
  },
  {
    "TimeMs": 112010,
    "Key": 64,
    "DurationMs": 146,
    "Vel": 80
  },
  {
    "TimeMs": 112012,
    "Key": 64,
    "DurationMs": 145,
    "Vel": 80
  },
  {
    "TimeMs": 112173,
    "Key": 67,
    "DurationMs": 146,
    "Vel": 80
  },
  {
    "TimeMs": 112175,
    "Key": 61,
    "DurationMs": 292,
    "Vel": 80
  },
  {
    "TimeMs": 112176,
    "Key": 49,
    "DurationMs": 292,
    "Vel": 80
  },
  {
    "TimeMs": 112336,
    "Key": 63,
    "DurationMs": 146,
    "Vel": 80
  },
  {
    "TimeMs": 112499,
    "Key": 68,
    "DurationMs": 146,
    "Vel": 80
  },
  {
    "TimeMs": 112501,
    "Key": 59,
    "DurationMs": 292,
    "Vel": 80
  },
  {
    "TimeMs": 112502,
    "Key": 47,
    "DurationMs": 292,
    "Vel": 80
  },
  {
    "TimeMs": 112662,
    "Key": 63,
    "DurationMs": 146,
    "Vel": 80
  },
  {
    "TimeMs": 112825,
    "Key": 70,
    "DurationMs": 293,
    "Vel": 80
  },
  {
    "TimeMs": 112827,
    "Key": 58,
    "DurationMs": 585,
    "Vel": 80
  },
  {
    "TimeMs": 112828,
    "Key": 46,
    "DurationMs": 585,
    "Vel": 80
  },
  {
    "TimeMs": 113152,
    "Key": 63,
    "DurationMs": 293,
    "Vel": 80
  },
  {
    "TimeMs": 113478,
    "Key": 71,
    "DurationMs": 146,
    "Vel": 80
  },
  {
    "TimeMs": 113641,
    "Key": 63,
    "DurationMs": 146,
    "Vel": 80
  },
  {
    "TimeMs": 113804,
    "Key": 70,
    "DurationMs": 146,
    "Vel": 80
  },
  {
    "TimeMs": 113805,
    "Key": 51,
    "DurationMs": 146,
    "Vel": 80
  },
  {
    "TimeMs": 113967,
    "Key": 63,
    "DurationMs": 146,
    "Vel": 80
  },
  {
    "TimeMs": 113968,
    "Key": 51,
    "DurationMs": 146,
    "Vel": 80
  },
  {
    "TimeMs": 114130,
    "Key": 71,
    "DurationMs": 146,
    "Vel": 80
  },
  {
    "TimeMs": 114131,
    "Key": 47,
    "DurationMs": 292,
    "Vel": 80
  },
  {
    "TimeMs": 114293,
    "Key": 63,
    "DurationMs": 146,
    "Vel": 80
  },
  {
    "TimeMs": 114456,
    "Key": 73,
    "DurationMs": 146,
    "Vel": 80
  },
  {
    "TimeMs": 114457,
    "Key": 44,
    "DurationMs": 292,
    "Vel": 80
  },
  {
    "TimeMs": 114619,
    "Key": 63,
    "DurationMs": 146,
    "Vel": 80
  },
  {
    "TimeMs": 114782,
    "Key": 70,
    "DurationMs": 146,
    "Vel": 80
  },
  {
    "TimeMs": 114783,
    "Key": 42,
    "DurationMs": 292,
    "Vel": 80
  },
  {
    "TimeMs": 114945,
    "Key": 58,
    "DurationMs": 146,
    "Vel": 80
  },
  {
    "TimeMs": 115108,
    "Key": 68,
    "DurationMs": 146,
    "Vel": 80
  },
  {
    "TimeMs": 115109,
    "Key": 44,
    "DurationMs": 292,
    "Vel": 80
  },
  {
    "TimeMs": 115271,
    "Key": 58,
    "DurationMs": 146,
    "Vel": 80
  },
  {
    "TimeMs": 115434,
    "Key": 66,
    "DurationMs": 293,
    "Vel": 80
  },
  {
    "TimeMs": 115435,
    "Key": 46,
    "DurationMs": 585,
    "Vel": 80
  },
  {
    "TimeMs": 115760,
    "Key": 63,
    "DurationMs": 146,
    "Vel": 80
  },
  {
    "TimeMs": 115923,
    "Key": 66,
    "DurationMs": 146,
    "Vel": 80
  },
  {
    "TimeMs": 116086,
    "Key": 68,
    "DurationMs": 146,
    "Vel": 80
  },
  {
    "TimeMs": 116088,
    "Key": 40,
    "DurationMs": 146,
    "Vel": 80
  },
  {
    "TimeMs": 116249,
    "Key": 59,
    "DurationMs": 146,
    "Vel": 80
  },
  {
    "TimeMs": 116251,
    "Key": 47,
    "DurationMs": 146,
    "Vel": 80
  },
  {
    "TimeMs": 116412,
    "Key": 68,
    "DurationMs": 146,
    "Vel": 80
  },
  {
    "TimeMs": 116414,
    "Key": 52,
    "DurationMs": 146,
    "Vel": 80
  },
  {
    "TimeMs": 116575,
    "Key": 66,
    "DurationMs": 146,
    "Vel": 80
  },
  {
    "TimeMs": 116577,
    "Key": 47,
    "DurationMs": 146,
    "Vel": 80
  },
  {
    "TimeMs": 116738,
    "Key": 68,
    "DurationMs": 146,
    "Vel": 80
  },
  {
    "TimeMs": 116740,
    "Key": 52,
    "DurationMs": 146,
    "Vel": 80
  },
  {
    "TimeMs": 116902,
    "Key": 70,
    "DurationMs": 146,
    "Vel": 80
  },
  {
    "TimeMs": 116903,
    "Key": 47,
    "DurationMs": 146,
    "Vel": 80
  },
  {
    "TimeMs": 117065,
    "Key": 71,
    "DurationMs": 146,
    "Vel": 80
  },
  {
    "TimeMs": 117066,
    "Key": 52,
    "DurationMs": 146,
    "Vel": 80
  },
  {
    "TimeMs": 117228,
    "Key": 68,
    "DurationMs": 146,
    "Vel": 80
  },
  {
    "TimeMs": 117229,
    "Key": 54,
    "DurationMs": 146,
    "Vel": 80
  },
  {
    "TimeMs": 117391,
    "Key": 66,
    "DurationMs": 146,
    "Vel": 80
  },
  {
    "TimeMs": 117392,
    "Key": 42,
    "DurationMs": 146,
    "Vel": 80
  },
  {
    "TimeMs": 117554,
    "Key": 59,
    "DurationMs": 146,
    "Vel": 80
  },
  {
    "TimeMs": 117555,
    "Key": 47,
    "DurationMs": 146,
    "Vel": 80
  },
  {
    "TimeMs": 117717,
    "Key": 64,
    "DurationMs": 146,
    "Vel": 80
  },
  {
    "TimeMs": 117718,
    "Key": 52,
    "DurationMs": 146,
    "Vel": 80
  },
  {
    "TimeMs": 117880,
    "Key": 59,
    "DurationMs": 146,
    "Vel": 80
  },
  {
    "TimeMs": 117881,
    "Key": 47,
    "DurationMs": 146,
    "Vel": 80
  },
  {
    "TimeMs": 118043,
    "Key": 63,
    "DurationMs": 293,
    "Vel": 80
  },
  {
    "TimeMs": 118044,
    "Key": 51,
    "DurationMs": 293,
    "Vel": 80
  },
  {
    "TimeMs": 118369,
    "Key": 63,
    "DurationMs": 146,
    "Vel": 80
  },
  {
    "TimeMs": 118370,
    "Key": 47,
    "DurationMs": 292,
    "Vel": 80
  },
  {
    "TimeMs": 118532,
    "Key": 66,
    "DurationMs": 146,
    "Vel": 80
  },
  {
    "TimeMs": 118695,
    "Key": 64,
    "DurationMs": 293,
    "Vel": 80
  },
  {
    "TimeMs": 118696,
    "Key": 37,
    "DurationMs": 293,
    "Vel": 80
  },
  {
    "TimeMs": 119021,
    "Key": 76,
    "DurationMs": 146,
    "Vel": 80
  },
  {
    "TimeMs": 119022,
    "Key": 37,
    "DurationMs": 146,
    "Vel": 80
  },
  {
    "TimeMs": 119184,
    "Key": 75,
    "DurationMs": 146,
    "Vel": 80
  },
  {
    "TimeMs": 119185,
    "Key": 44,
    "DurationMs": 146,
    "Vel": 80
  },
  {
    "TimeMs": 119347,
    "Key": 73,
    "DurationMs": 146,
    "Vel": 80
  },
  {
    "TimeMs": 119349,
    "Key": 51,
    "DurationMs": 292,
    "Vel": 80
  },
  {
    "TimeMs": 119510,
    "Key": 71,
    "DurationMs": 146,
    "Vel": 80
  },
  {
    "TimeMs": 119673,
    "Key": 70,
    "DurationMs": 146,
    "Vel": 80
  },
  {
    "TimeMs": 119675,
    "Key": 52,
    "DurationMs": 292,
    "Vel": 80
  },
  {
    "TimeMs": 119999,
    "Key": 75,
    "DurationMs": 146,
    "Vel": 80
  },
  {
    "TimeMs": 120001,
    "Key": 56,
    "DurationMs": 146,
    "Vel": 80
  },
  {
    "TimeMs": 120162,
    "Key": 73,
    "DurationMs": 146,
    "Vel": 80
  },
  {
    "TimeMs": 120164,
    "Key": 51,
    "DurationMs": 146,
    "Vel": 80
  },
  {
    "TimeMs": 120325,
    "Key": 75,
    "DurationMs": 146,
    "Vel": 80
  },
  {
    "TimeMs": 120327,
    "Key": 56,
    "DurationMs": 146,
    "Vel": 80
  },
  {
    "TimeMs": 120488,
    "Key": 76,
    "DurationMs": 146,
    "Vel": 80
  },
  {
    "TimeMs": 120490,
    "Key": 58,
    "DurationMs": 146,
    "Vel": 80
  },
  {
    "TimeMs": 120652,
    "Key": 75,
    "DurationMs": 146,
    "Vel": 80
  },
  {
    "TimeMs": 120653,
    "Key": 59,
    "DurationMs": 292,
    "Vel": 80
  },
  {
    "TimeMs": 120815,
    "Key": 73,
    "DurationMs": 146,
    "Vel": 80
  },
  {
    "TimeMs": 120978,
    "Key": 71,
    "DurationMs": 146,
    "Vel": 80
  },
  {
    "TimeMs": 120979,
    "Key": 63,
    "DurationMs": 292,
    "Vel": 80
  },
  {
    "TimeMs": 121141,
    "Key": 70,
    "DurationMs": 146,
    "Vel": 80
  },
  {
    "TimeMs": 121304,
    "Key": 68,
    "DurationMs": 293,
    "Vel": 80
  },
  {
    "TimeMs": 121305,
    "Key": 61,
    "DurationMs": 293,
    "Vel": 80
  },
  {
    "TimeMs": 121630,
    "Key": 75,
    "DurationMs": 293,
    "Vel": 80
  },
  {
    "TimeMs": 121631,
    "Key": 59,
    "DurationMs": 293,
    "Vel": 80
  },
  {
    "TimeMs": 121956,
    "Key": 67,
    "DurationMs": 293,
    "Vel": 80
  },
  {
    "TimeMs": 121957,
    "Key": 58,
    "DurationMs": 438,
    "Vel": 80
  },
  {
    "TimeMs": 122282,
    "Key": 75,
    "DurationMs": 293,
    "Vel": 80
  },
  {
    "TimeMs": 122445,
    "Key": 56,
    "DurationMs": 146,
    "Vel": 80
  },
  {
    "TimeMs": 122608,
    "Key": 68,
    "DurationMs": 1173,
    "Vel": 80
  },
  {
    "TimeMs": 122609,
    "Key": 44,
    "DurationMs": 292,
    "Vel": 80
  },
  {
    "TimeMs": 122934,
    "Key": 51,
    "DurationMs": 293,
    "Vel": 80
  },
  {
    "TimeMs": 123260,
    "Key": 56,
    "DurationMs": 586,
    "Vel": 80
  },
  {
    "TimeMs": 123912,
    "Key": 80,
    "DurationMs": 146,
    "Vel": 80
  },
  {
    "TimeMs": 123914,
    "Key": 64,
    "DurationMs": 585,
    "Vel": 80
  },
  {
    "TimeMs": 124075,
    "Key": 68,
    "DurationMs": 146,
    "Vel": 80
  },
  {
    "TimeMs": 124238,
    "Key": 71,
    "DurationMs": 146,
    "Vel": 80
  },
  {
    "TimeMs": 124401,
    "Key": 76,
    "DurationMs": 146,
    "Vel": 80
  },
  {
    "TimeMs": 124565,
    "Key": 80,
    "DurationMs": 146,
    "Vel": 80
  },
  {
    "TimeMs": 124566,
    "Key": 64,
    "DurationMs": 585,
    "Vel": 80
  },
  {
    "TimeMs": 124728,
    "Key": 71,
    "DurationMs": 146,
    "Vel": 80
  },
  {
    "TimeMs": 124891,
    "Key": 76,
    "DurationMs": 146,
    "Vel": 80
  },
  {
    "TimeMs": 125054,
    "Key": 80,
    "DurationMs": 146,
    "Vel": 80
  },
  {
    "TimeMs": 125217,
    "Key": 82,
    "DurationMs": 146,
    "Vel": 80
  },
  {
    "TimeMs": 125218,
    "Key": 66,
    "DurationMs": 585,
    "Vel": 80
  },
  {
    "TimeMs": 125380,
    "Key": 73,
    "DurationMs": 146,
    "Vel": 80
  },
  {
    "TimeMs": 125543,
    "Key": 75,
    "DurationMs": 146,
    "Vel": 80
  },
  {
    "TimeMs": 125706,
    "Key": 80,
    "DurationMs": 146,
    "Vel": 80
  },
  {
    "TimeMs": 125869,
    "Key": 82,
    "DurationMs": 146,
    "Vel": 80
  },
  {
    "TimeMs": 125870,
    "Key": 63,
    "DurationMs": 585,
    "Vel": 80
  },
  {
    "TimeMs": 126032,
    "Key": 73,
    "DurationMs": 146,
    "Vel": 80
  },
  {
    "TimeMs": 126195,
    "Key": 83,
    "DurationMs": 146,
    "Vel": 80
  },
  {
    "TimeMs": 126358,
    "Key": 82,
    "DurationMs": 146,
    "Vel": 80
  },
  {
    "TimeMs": 126521,
    "Key": 80,
    "DurationMs": 146,
    "Vel": 80
  },
  {
    "TimeMs": 126522,
    "Key": 68,
    "DurationMs": 585,
    "Vel": 80
  },
  {
    "TimeMs": 126684,
    "Key": 75,
    "DurationMs": 146,
    "Vel": 80
  },
  {
    "TimeMs": 126847,
    "Key": 83,
    "DurationMs": 146,
    "Vel": 80
  },
  {
    "TimeMs": 127010,
    "Key": 75,
    "DurationMs": 146,
    "Vel": 80
  },
  {
    "TimeMs": 127173,
    "Key": 82,
    "DurationMs": 146,
    "Vel": 80
  },
  {
    "TimeMs": 127175,
    "Key": 63,
    "DurationMs": 585,
    "Vel": 80
  },
  {
    "TimeMs": 127336,
    "Key": 75,
    "DurationMs": 146,
    "Vel": 80
  },
  {
    "TimeMs": 127499,
    "Key": 78,
    "DurationMs": 146,
    "Vel": 80
  },
  {
    "TimeMs": 127662,
    "Key": 75,
    "DurationMs": 146,
    "Vel": 80
  },
  {
    "TimeMs": 127825,
    "Key": 80,
    "DurationMs": 146,
    "Vel": 80
  },
  {
    "TimeMs": 127827,
    "Key": 56,
    "DurationMs": 585,
    "Vel": 80
  },
  {
    "TimeMs": 127988,
    "Key": 71,
    "DurationMs": 146,
    "Vel": 80
  },
  {
    "TimeMs": 128151,
    "Key": 78,
    "DurationMs": 146,
    "Vel": 80
  },
  {
    "TimeMs": 128315,
    "Key": 71,
    "DurationMs": 146,
    "Vel": 80
  },
  {
    "TimeMs": 128478,
    "Key": 75,
    "DurationMs": 146,
    "Vel": 80
  },
  {
    "TimeMs": 128479,
    "Key": 63,
    "DurationMs": 585,
    "Vel": 80
  },
  {
    "TimeMs": 128641,
    "Key": 71,
    "DurationMs": 146,
    "Vel": 80
  },
  {
    "TimeMs": 128804,
    "Key": 78,
    "DurationMs": 146,
    "Vel": 80
  },
  {
    "TimeMs": 128967,
    "Key": 71,
    "DurationMs": 146,
    "Vel": 80
  },
  {
    "TimeMs": 129130,
    "Key": 80,
    "DurationMs": 146,
    "Vel": 80
  },
  {
    "TimeMs": 129131,
    "Key": 64,
    "DurationMs": 585,
    "Vel": 80
  },
  {
    "TimeMs": 129293,
    "Key": 68,
    "DurationMs": 146,
    "Vel": 80
  },
  {
    "TimeMs": 129456,
    "Key": 71,
    "DurationMs": 146,
    "Vel": 80
  },
  {
    "TimeMs": 129619,
    "Key": 76,
    "DurationMs": 146,
    "Vel": 80
  },
  {
    "TimeMs": 129782,
    "Key": 80,
    "DurationMs": 146,
    "Vel": 80
  },
  {
    "TimeMs": 129783,
    "Key": 64,
    "DurationMs": 585,
    "Vel": 80
  },
  {
    "TimeMs": 129945,
    "Key": 71,
    "DurationMs": 146,
    "Vel": 80
  },
  {
    "TimeMs": 130108,
    "Key": 76,
    "DurationMs": 146,
    "Vel": 80
  },
  {
    "TimeMs": 130271,
    "Key": 80,
    "DurationMs": 146,
    "Vel": 80
  },
  {
    "TimeMs": 130434,
    "Key": 82,
    "DurationMs": 146,
    "Vel": 80
  },
  {
    "TimeMs": 130435,
    "Key": 66,
    "DurationMs": 585,
    "Vel": 80
  },
  {
    "TimeMs": 130597,
    "Key": 73,
    "DurationMs": 146,
    "Vel": 80
  },
  {
    "TimeMs": 130760,
    "Key": 75,
    "DurationMs": 146,
    "Vel": 80
  },
  {
    "TimeMs": 130923,
    "Key": 80,
    "DurationMs": 146,
    "Vel": 80
  },
  {
    "TimeMs": 131086,
    "Key": 82,
    "DurationMs": 146,
    "Vel": 80
  },
  {
    "TimeMs": 131088,
    "Key": 63,
    "DurationMs": 585,
    "Vel": 80
  },
  {
    "TimeMs": 131249,
    "Key": 73,
    "DurationMs": 146,
    "Vel": 80
  },
  {
    "TimeMs": 131412,
    "Key": 83,
    "DurationMs": 146,
    "Vel": 80
  },
  {
    "TimeMs": 131575,
    "Key": 82,
    "DurationMs": 146,
    "Vel": 80
  },
  {
    "TimeMs": 131738,
    "Key": 80,
    "DurationMs": 146,
    "Vel": 80
  },
  {
    "TimeMs": 131740,
    "Key": 68,
    "DurationMs": 585,
    "Vel": 80
  },
  {
    "TimeMs": 131901,
    "Key": 71,
    "DurationMs": 146,
    "Vel": 80
  },
  {
    "TimeMs": 132065,
    "Key": 83,
    "DurationMs": 146,
    "Vel": 80
  },
  {
    "TimeMs": 132228,
    "Key": 71,
    "DurationMs": 146,
    "Vel": 80
  },
  {
    "TimeMs": 132391,
    "Key": 85,
    "DurationMs": 146,
    "Vel": 80
  },
  {
    "TimeMs": 132392,
    "Key": 63,
    "DurationMs": 585,
    "Vel": 80
  },
  {
    "TimeMs": 132554,
    "Key": 73,
    "DurationMs": 146,
    "Vel": 80
  },
  {
    "TimeMs": 132717,
    "Key": 87,
    "DurationMs": 146,
    "Vel": 80
  },
  {
    "TimeMs": 132880,
    "Key": 73,
    "DurationMs": 146,
    "Vel": 80
  },
  {
    "TimeMs": 133043,
    "Key": 85,
    "DurationMs": 146,
    "Vel": 80
  },
  {
    "TimeMs": 133044,
    "Key": 71,
    "DurationMs": 585,
    "Vel": 80
  },
  {
    "TimeMs": 133206,
    "Key": 73,
    "DurationMs": 146,
    "Vel": 80
  },
  {
    "TimeMs": 133369,
    "Key": 83,
    "DurationMs": 440,
    "Vel": 80
  },
  {
    "TimeMs": 133695,
    "Key": 63,
    "DurationMs": 586,
    "Vel": 80
  },
  {
    "TimeMs": 134021,
    "Key": 80,
    "DurationMs": 293,
    "Vel": 80
  },
  {
    "TimeMs": 134347,
    "Key": 80,
    "DurationMs": 146,
    "Vel": 80
  },
  {
    "TimeMs": 134348,
    "Key": 64,
    "DurationMs": 585,
    "Vel": 80
  },
  {
    "TimeMs": 134510,
    "Key": 68,
    "DurationMs": 146,
    "Vel": 80
  },
  {
    "TimeMs": 134673,
    "Key": 71,
    "DurationMs": 146,
    "Vel": 80
  },
  {
    "TimeMs": 134836,
    "Key": 76,
    "DurationMs": 146,
    "Vel": 80
  },
  {
    "TimeMs": 134999,
    "Key": 80,
    "DurationMs": 146,
    "Vel": 80
  },
  {
    "TimeMs": 135001,
    "Key": 64,
    "DurationMs": 585,
    "Vel": 80
  },
  {
    "TimeMs": 135162,
    "Key": 71,
    "DurationMs": 146,
    "Vel": 80
  },
  {
    "TimeMs": 135325,
    "Key": 76,
    "DurationMs": 146,
    "Vel": 80
  },
  {
    "TimeMs": 135488,
    "Key": 80,
    "DurationMs": 146,
    "Vel": 80
  },
  {
    "TimeMs": 135651,
    "Key": 82,
    "DurationMs": 146,
    "Vel": 80
  },
  {
    "TimeMs": 135653,
    "Key": 66,
    "DurationMs": 585,
    "Vel": 80
  },
  {
    "TimeMs": 135815,
    "Key": 73,
    "DurationMs": 146,
    "Vel": 80
  },
  {
    "TimeMs": 135978,
    "Key": 75,
    "DurationMs": 146,
    "Vel": 80
  },
  {
    "TimeMs": 136141,
    "Key": 80,
    "DurationMs": 146,
    "Vel": 80
  },
  {
    "TimeMs": 136304,
    "Key": 82,
    "DurationMs": 146,
    "Vel": 80
  },
  {
    "TimeMs": 136305,
    "Key": 63,
    "DurationMs": 585,
    "Vel": 80
  },
  {
    "TimeMs": 136467,
    "Key": 73,
    "DurationMs": 146,
    "Vel": 80
  },
  {
    "TimeMs": 136630,
    "Key": 83,
    "DurationMs": 146,
    "Vel": 80
  },
  {
    "TimeMs": 136793,
    "Key": 82,
    "DurationMs": 146,
    "Vel": 80
  },
  {
    "TimeMs": 136956,
    "Key": 80,
    "DurationMs": 146,
    "Vel": 80
  },
  {
    "TimeMs": 136957,
    "Key": 68,
    "DurationMs": 585,
    "Vel": 80
  },
  {
    "TimeMs": 137119,
    "Key": 75,
    "DurationMs": 146,
    "Vel": 80
  },
  {
    "TimeMs": 137282,
    "Key": 83,
    "DurationMs": 146,
    "Vel": 80
  },
  {
    "TimeMs": 137445,
    "Key": 75,
    "DurationMs": 146,
    "Vel": 80
  },
  {
    "TimeMs": 137608,
    "Key": 82,
    "DurationMs": 146,
    "Vel": 80
  },
  {
    "TimeMs": 137609,
    "Key": 63,
    "DurationMs": 585,
    "Vel": 80
  },
  {
    "TimeMs": 137771,
    "Key": 75,
    "DurationMs": 146,
    "Vel": 80
  },
  {
    "TimeMs": 137934,
    "Key": 78,
    "DurationMs": 146,
    "Vel": 80
  },
  {
    "TimeMs": 138097,
    "Key": 75,
    "DurationMs": 146,
    "Vel": 80
  },
  {
    "TimeMs": 138260,
    "Key": 80,
    "DurationMs": 146,
    "Vel": 80
  },
  {
    "TimeMs": 138262,
    "Key": 68,
    "DurationMs": 585,
    "Vel": 80
  },
  {
    "TimeMs": 138423,
    "Key": 71,
    "DurationMs": 146,
    "Vel": 80
  },
  {
    "TimeMs": 138586,
    "Key": 78,
    "DurationMs": 146,
    "Vel": 80
  },
  {
    "TimeMs": 138749,
    "Key": 71,
    "DurationMs": 146,
    "Vel": 80
  },
  {
    "TimeMs": 138912,
    "Key": 75,
    "DurationMs": 146,
    "Vel": 80
  },
  {
    "TimeMs": 138914,
    "Key": 63,
    "DurationMs": 585,
    "Vel": 80
  },
  {
    "TimeMs": 139075,
    "Key": 71,
    "DurationMs": 146,
    "Vel": 80
  },
  {
    "TimeMs": 139238,
    "Key": 78,
    "DurationMs": 146,
    "Vel": 80
  },
  {
    "TimeMs": 139401,
    "Key": 71,
    "DurationMs": 146,
    "Vel": 80
  },
  {
    "TimeMs": 139565,
    "Key": 80,
    "DurationMs": 146,
    "Vel": 80
  },
  {
    "TimeMs": 139566,
    "Key": 64,
    "DurationMs": 1172,
    "Vel": 80
  },
  {
    "TimeMs": 139728,
    "Key": 68,
    "DurationMs": 146,
    "Vel": 80
  },
  {
    "TimeMs": 139891,
    "Key": 71,
    "DurationMs": 146,
    "Vel": 80
  },
  {
    "TimeMs": 140054,
    "Key": 76,
    "DurationMs": 146,
    "Vel": 80
  },
  {
    "TimeMs": 140217,
    "Key": 80,
    "DurationMs": 146,
    "Vel": 80
  },
  {
    "TimeMs": 140380,
    "Key": 71,
    "DurationMs": 146,
    "Vel": 80
  },
  {
    "TimeMs": 140543,
    "Key": 76,
    "DurationMs": 146,
    "Vel": 80
  },
  {
    "TimeMs": 140706,
    "Key": 80,
    "DurationMs": 146,
    "Vel": 80
  },
  {
    "TimeMs": 140869,
    "Key": 82,
    "DurationMs": 146,
    "Vel": 80
  },
  {
    "TimeMs": 140870,
    "Key": 66,
    "DurationMs": 585,
    "Vel": 80
  },
  {
    "TimeMs": 141032,
    "Key": 73,
    "DurationMs": 146,
    "Vel": 80
  },
  {
    "TimeMs": 141195,
    "Key": 75,
    "DurationMs": 146,
    "Vel": 80
  },
  {
    "TimeMs": 141358,
    "Key": 80,
    "DurationMs": 146,
    "Vel": 80
  },
  {
    "TimeMs": 141521,
    "Key": 82,
    "DurationMs": 146,
    "Vel": 80
  },
  {
    "TimeMs": 141522,
    "Key": 63,
    "DurationMs": 585,
    "Vel": 80
  },
  {
    "TimeMs": 141684,
    "Key": 73,
    "DurationMs": 146,
    "Vel": 80
  },
  {
    "TimeMs": 141847,
    "Key": 83,
    "DurationMs": 146,
    "Vel": 80
  },
  {
    "TimeMs": 142010,
    "Key": 82,
    "DurationMs": 146,
    "Vel": 80
  },
  {
    "TimeMs": 142173,
    "Key": 80,
    "DurationMs": 1173,
    "Vel": 80
  },
  {
    "TimeMs": 142175,
    "Key": 56,
    "DurationMs": 292,
    "Vel": 80
  },
  {
    "TimeMs": 142499,
    "Key": 63,
    "DurationMs": 293,
    "Vel": 80
  },
  {
    "TimeMs": 142825,
    "Key": 68,
    "DurationMs": 293,
    "Vel": 80
  },
  {
    "TimeMs": 143151,
    "Key": 70,
    "DurationMs": 293,
    "Vel": 80
  },
  {
    "TimeMs": 143478,
    "Key": 71,
    "DurationMs": 293,
    "Vel": 80
  },
  {
    "TimeMs": 143804,
    "Key": 63,
    "DurationMs": 293,
    "Vel": 80
  },
  {
    "TimeMs": 144130,
    "Key": 68,
    "DurationMs": 586,
    "Vel": 80
  },
  {
    "TimeMs": 144456,
    "Key": 80,
    "DurationMs": 293,
    "Vel": 80
  },
  {
    "TimeMs": 144782,
    "Key": 80,
    "DurationMs": 146,
    "Vel": 80
  },
  {
    "TimeMs": 144783,
    "Key": 52,
    "DurationMs": 292,
    "Vel": 80
  },
  {
    "TimeMs": 144945,
    "Key": 68,
    "DurationMs": 146,
    "Vel": 80
  },
  {
    "TimeMs": 145108,
    "Key": 71,
    "DurationMs": 146,
    "Vel": 80
  },
  {
    "TimeMs": 145109,
    "Key": 59,
    "DurationMs": 292,
    "Vel": 80
  },
  {
    "TimeMs": 145271,
    "Key": 76,
    "DurationMs": 146,
    "Vel": 80
  },
  {
    "TimeMs": 145434,
    "Key": 80,
    "DurationMs": 146,
    "Vel": 80
  },
  {
    "TimeMs": 145435,
    "Key": 64,
    "DurationMs": 292,
    "Vel": 80
  },
  {
    "TimeMs": 145597,
    "Key": 71,
    "DurationMs": 146,
    "Vel": 80
  },
  {
    "TimeMs": 145760,
    "Key": 76,
    "DurationMs": 146,
    "Vel": 80
  },
  {
    "TimeMs": 145762,
    "Key": 59,
    "DurationMs": 292,
    "Vel": 80
  },
  {
    "TimeMs": 145923,
    "Key": 80,
    "DurationMs": 146,
    "Vel": 80
  },
  {
    "TimeMs": 146086,
    "Key": 82,
    "DurationMs": 146,
    "Vel": 80
  },
  {
    "TimeMs": 146088,
    "Key": 54,
    "DurationMs": 292,
    "Vel": 80
  },
  {
    "TimeMs": 146249,
    "Key": 73,
    "DurationMs": 146,
    "Vel": 80
  },
  {
    "TimeMs": 146412,
    "Key": 75,
    "DurationMs": 146,
    "Vel": 80
  },
  {
    "TimeMs": 146414,
    "Key": 61,
    "DurationMs": 292,
    "Vel": 80
  },
  {
    "TimeMs": 146575,
    "Key": 80,
    "DurationMs": 146,
    "Vel": 80
  },
  {
    "TimeMs": 146738,
    "Key": 82,
    "DurationMs": 146,
    "Vel": 80
  },
  {
    "TimeMs": 146740,
    "Key": 66,
    "DurationMs": 292,
    "Vel": 80
  },
  {
    "TimeMs": 146901,
    "Key": 73,
    "DurationMs": 146,
    "Vel": 80
  },
  {
    "TimeMs": 147065,
    "Key": 83,
    "DurationMs": 146,
    "Vel": 80
  },
  {
    "TimeMs": 147066,
    "Key": 61,
    "DurationMs": 292,
    "Vel": 80
  },
  {
    "TimeMs": 147228,
    "Key": 82,
    "DurationMs": 146,
    "Vel": 80
  },
  {
    "TimeMs": 147391,
    "Key": 80,
    "DurationMs": 146,
    "Vel": 80
  },
  {
    "TimeMs": 147392,
    "Key": 56,
    "DurationMs": 292,
    "Vel": 80
  },
  {
    "TimeMs": 147554,
    "Key": 75,
    "DurationMs": 146,
    "Vel": 80
  },
  {
    "TimeMs": 147717,
    "Key": 83,
    "DurationMs": 146,
    "Vel": 80
  },
  {
    "TimeMs": 147718,
    "Key": 63,
    "DurationMs": 292,
    "Vel": 80
  },
  {
    "TimeMs": 147880,
    "Key": 75,
    "DurationMs": 146,
    "Vel": 80
  },
  {
    "TimeMs": 148043,
    "Key": 82,
    "DurationMs": 146,
    "Vel": 80
  },
  {
    "TimeMs": 148044,
    "Key": 71,
    "DurationMs": 292,
    "Vel": 80
  },
  {
    "TimeMs": 148206,
    "Key": 75,
    "DurationMs": 146,
    "Vel": 80
  },
  {
    "TimeMs": 148369,
    "Key": 78,
    "DurationMs": 146,
    "Vel": 80
  },
  {
    "TimeMs": 148370,
    "Key": 66,
    "DurationMs": 292,
    "Vel": 80
  },
  {
    "TimeMs": 148532,
    "Key": 75,
    "DurationMs": 146,
    "Vel": 80
  },
  {
    "TimeMs": 148695,
    "Key": 80,
    "DurationMs": 146,
    "Vel": 80
  },
  {
    "TimeMs": 148696,
    "Key": 56,
    "DurationMs": 292,
    "Vel": 80
  },
  {
    "TimeMs": 148858,
    "Key": 71,
    "DurationMs": 146,
    "Vel": 80
  },
  {
    "TimeMs": 149021,
    "Key": 78,
    "DurationMs": 146,
    "Vel": 80
  },
  {
    "TimeMs": 149022,
    "Key": 68,
    "DurationMs": 292,
    "Vel": 80
  },
  {
    "TimeMs": 149184,
    "Key": 71,
    "DurationMs": 146,
    "Vel": 80
  },
  {
    "TimeMs": 149347,
    "Key": 75,
    "DurationMs": 146,
    "Vel": 80
  },
  {
    "TimeMs": 149348,
    "Key": 63,
    "DurationMs": 292,
    "Vel": 80
  },
  {
    "TimeMs": 149510,
    "Key": 71,
    "DurationMs": 146,
    "Vel": 80
  },
  {
    "TimeMs": 149673,
    "Key": 78,
    "DurationMs": 146,
    "Vel": 80
  },
  {
    "TimeMs": 149675,
    "Key": 66,
    "DurationMs": 292,
    "Vel": 80
  },
  {
    "TimeMs": 149836,
    "Key": 71,
    "DurationMs": 146,
    "Vel": 80
  },
  {
    "TimeMs": 149999,
    "Key": 80,
    "DurationMs": 146,
    "Vel": 80
  },
  {
    "TimeMs": 150001,
    "Key": 52,
    "DurationMs": 292,
    "Vel": 80
  },
  {
    "TimeMs": 150162,
    "Key": 68,
    "DurationMs": 146,
    "Vel": 80
  },
  {
    "TimeMs": 150325,
    "Key": 71,
    "DurationMs": 146,
    "Vel": 80
  },
  {
    "TimeMs": 150327,
    "Key": 59,
    "DurationMs": 292,
    "Vel": 80
  },
  {
    "TimeMs": 150488,
    "Key": 76,
    "DurationMs": 146,
    "Vel": 80
  },
  {
    "TimeMs": 150651,
    "Key": 80,
    "DurationMs": 146,
    "Vel": 80
  },
  {
    "TimeMs": 150653,
    "Key": 64,
    "DurationMs": 292,
    "Vel": 80
  },
  {
    "TimeMs": 150815,
    "Key": 71,
    "DurationMs": 146,
    "Vel": 80
  },
  {
    "TimeMs": 150978,
    "Key": 76,
    "DurationMs": 146,
    "Vel": 80
  },
  {
    "TimeMs": 150979,
    "Key": 59,
    "DurationMs": 292,
    "Vel": 80
  },
  {
    "TimeMs": 151141,
    "Key": 80,
    "DurationMs": 146,
    "Vel": 80
  },
  {
    "TimeMs": 151304,
    "Key": 82,
    "DurationMs": 146,
    "Vel": 80
  },
  {
    "TimeMs": 151305,
    "Key": 54,
    "DurationMs": 292,
    "Vel": 80
  },
  {
    "TimeMs": 151467,
    "Key": 73,
    "DurationMs": 146,
    "Vel": 80
  },
  {
    "TimeMs": 151630,
    "Key": 75,
    "DurationMs": 146,
    "Vel": 80
  },
  {
    "TimeMs": 151631,
    "Key": 61,
    "DurationMs": 292,
    "Vel": 80
  },
  {
    "TimeMs": 151793,
    "Key": 80,
    "DurationMs": 146,
    "Vel": 80
  },
  {
    "TimeMs": 151956,
    "Key": 82,
    "DurationMs": 146,
    "Vel": 80
  },
  {
    "TimeMs": 151957,
    "Key": 66,
    "DurationMs": 292,
    "Vel": 80
  },
  {
    "TimeMs": 152119,
    "Key": 73,
    "DurationMs": 146,
    "Vel": 80
  },
  {
    "TimeMs": 152282,
    "Key": 83,
    "DurationMs": 146,
    "Vel": 80
  },
  {
    "TimeMs": 152283,
    "Key": 61,
    "DurationMs": 292,
    "Vel": 80
  },
  {
    "TimeMs": 152445,
    "Key": 82,
    "DurationMs": 146,
    "Vel": 80
  },
  {
    "TimeMs": 152608,
    "Key": 80,
    "DurationMs": 146,
    "Vel": 80
  },
  {
    "TimeMs": 152609,
    "Key": 56,
    "DurationMs": 292,
    "Vel": 80
  },
  {
    "TimeMs": 152771,
    "Key": 71,
    "DurationMs": 146,
    "Vel": 80
  },
  {
    "TimeMs": 152934,
    "Key": 83,
    "DurationMs": 146,
    "Vel": 80
  },
  {
    "TimeMs": 152935,
    "Key": 63,
    "DurationMs": 292,
    "Vel": 80
  },
  {
    "TimeMs": 153097,
    "Key": 71,
    "DurationMs": 146,
    "Vel": 80
  },
  {
    "TimeMs": 153260,
    "Key": 85,
    "DurationMs": 146,
    "Vel": 80
  },
  {
    "TimeMs": 153262,
    "Key": 68,
    "DurationMs": 292,
    "Vel": 80
  },
  {
    "TimeMs": 153423,
    "Key": 73,
    "DurationMs": 146,
    "Vel": 80
  },
  {
    "TimeMs": 153586,
    "Key": 87,
    "DurationMs": 146,
    "Vel": 80
  },
  {
    "TimeMs": 153588,
    "Key": 63,
    "DurationMs": 292,
    "Vel": 80
  },
  {
    "TimeMs": 153749,
    "Key": 73,
    "DurationMs": 146,
    "Vel": 80
  },
  {
    "TimeMs": 153912,
    "Key": 85,
    "DurationMs": 146,
    "Vel": 80
  },
  {
    "TimeMs": 153914,
    "Key": 71,
    "DurationMs": 292,
    "Vel": 80
  },
  {
    "TimeMs": 154075,
    "Key": 73,
    "DurationMs": 146,
    "Vel": 80
  },
  {
    "TimeMs": 154238,
    "Key": 83,
    "DurationMs": 440,
    "Vel": 80
  },
  {
    "TimeMs": 154240,
    "Key": 63,
    "DurationMs": 292,
    "Vel": 80
  },
  {
    "TimeMs": 154565,
    "Key": 68,
    "DurationMs": 293,
    "Vel": 80
  },
  {
    "TimeMs": 154891,
    "Key": 80,
    "DurationMs": 293,
    "Vel": 80
  },
  {
    "TimeMs": 154892,
    "Key": 63,
    "DurationMs": 293,
    "Vel": 80
  },
  {
    "TimeMs": 155217,
    "Key": 80,
    "DurationMs": 146,
    "Vel": 80
  },
  {
    "TimeMs": 155218,
    "Key": 52,
    "DurationMs": 292,
    "Vel": 80
  },
  {
    "TimeMs": 155380,
    "Key": 68,
    "DurationMs": 146,
    "Vel": 80
  },
  {
    "TimeMs": 155543,
    "Key": 71,
    "DurationMs": 146,
    "Vel": 80
  },
  {
    "TimeMs": 155544,
    "Key": 59,
    "DurationMs": 292,
    "Vel": 80
  },
  {
    "TimeMs": 155706,
    "Key": 76,
    "DurationMs": 146,
    "Vel": 80
  },
  {
    "TimeMs": 155869,
    "Key": 80,
    "DurationMs": 146,
    "Vel": 80
  },
  {
    "TimeMs": 155870,
    "Key": 64,
    "DurationMs": 292,
    "Vel": 80
  },
  {
    "TimeMs": 156032,
    "Key": 71,
    "DurationMs": 146,
    "Vel": 80
  },
  {
    "TimeMs": 156195,
    "Key": 76,
    "DurationMs": 146,
    "Vel": 80
  },
  {
    "TimeMs": 156196,
    "Key": 59,
    "DurationMs": 292,
    "Vel": 80
  },
  {
    "TimeMs": 156358,
    "Key": 80,
    "DurationMs": 146,
    "Vel": 80
  },
  {
    "TimeMs": 156521,
    "Key": 82,
    "DurationMs": 146,
    "Vel": 80
  },
  {
    "TimeMs": 156522,
    "Key": 54,
    "DurationMs": 292,
    "Vel": 80
  },
  {
    "TimeMs": 156684,
    "Key": 73,
    "DurationMs": 146,
    "Vel": 80
  },
  {
    "TimeMs": 156847,
    "Key": 75,
    "DurationMs": 146,
    "Vel": 80
  },
  {
    "TimeMs": 156848,
    "Key": 61,
    "DurationMs": 292,
    "Vel": 80
  },
  {
    "TimeMs": 157010,
    "Key": 80,
    "DurationMs": 146,
    "Vel": 80
  },
  {
    "TimeMs": 157173,
    "Key": 82,
    "DurationMs": 146,
    "Vel": 80
  },
  {
    "TimeMs": 157175,
    "Key": 66,
    "DurationMs": 292,
    "Vel": 80
  },
  {
    "TimeMs": 157336,
    "Key": 73,
    "DurationMs": 146,
    "Vel": 80
  },
  {
    "TimeMs": 157499,
    "Key": 83,
    "DurationMs": 146,
    "Vel": 80
  },
  {
    "TimeMs": 157501,
    "Key": 61,
    "DurationMs": 292,
    "Vel": 80
  },
  {
    "TimeMs": 157662,
    "Key": 82,
    "DurationMs": 146,
    "Vel": 80
  },
  {
    "TimeMs": 157825,
    "Key": 82,
    "DurationMs": 146,
    "Vel": 80
  },
  {
    "TimeMs": 157827,
    "Key": 56,
    "DurationMs": 292,
    "Vel": 80
  },
  {
    "TimeMs": 157988,
    "Key": 75,
    "DurationMs": 146,
    "Vel": 80
  },
  {
    "TimeMs": 158151,
    "Key": 83,
    "DurationMs": 146,
    "Vel": 80
  },
  {
    "TimeMs": 158153,
    "Key": 63,
    "DurationMs": 292,
    "Vel": 80
  },
  {
    "TimeMs": 158314,
    "Key": 75,
    "DurationMs": 146,
    "Vel": 80
  },
  {
    "TimeMs": 158478,
    "Key": 82,
    "DurationMs": 146,
    "Vel": 80
  },
  {
    "TimeMs": 158479,
    "Key": 71,
    "DurationMs": 292,
    "Vel": 80
  },
  {
    "TimeMs": 158641,
    "Key": 75,
    "DurationMs": 146,
    "Vel": 80
  },
  {
    "TimeMs": 158804,
    "Key": 78,
    "DurationMs": 146,
    "Vel": 80
  },
  {
    "TimeMs": 158805,
    "Key": 66,
    "DurationMs": 292,
    "Vel": 80
  },
  {
    "TimeMs": 158967,
    "Key": 75,
    "DurationMs": 146,
    "Vel": 80
  },
  {
    "TimeMs": 159130,
    "Key": 80,
    "DurationMs": 146,
    "Vel": 80
  },
  {
    "TimeMs": 159131,
    "Key": 56,
    "DurationMs": 292,
    "Vel": 80
  },
  {
    "TimeMs": 159293,
    "Key": 71,
    "DurationMs": 146,
    "Vel": 80
  },
  {
    "TimeMs": 159456,
    "Key": 78,
    "DurationMs": 146,
    "Vel": 80
  },
  {
    "TimeMs": 159457,
    "Key": 68,
    "DurationMs": 292,
    "Vel": 80
  },
  {
    "TimeMs": 159619,
    "Key": 71,
    "DurationMs": 146,
    "Vel": 80
  },
  {
    "TimeMs": 159782,
    "Key": 75,
    "DurationMs": 146,
    "Vel": 80
  },
  {
    "TimeMs": 159783,
    "Key": 63,
    "DurationMs": 292,
    "Vel": 80
  },
  {
    "TimeMs": 159945,
    "Key": 71,
    "DurationMs": 146,
    "Vel": 80
  },
  {
    "TimeMs": 160108,
    "Key": 78,
    "DurationMs": 146,
    "Vel": 80
  },
  {
    "TimeMs": 160109,
    "Key": 66,
    "DurationMs": 292,
    "Vel": 80
  },
  {
    "TimeMs": 160271,
    "Key": 71,
    "DurationMs": 146,
    "Vel": 80
  },
  {
    "TimeMs": 160434,
    "Key": 80,
    "DurationMs": 293,
    "Vel": 80
  },
  {
    "TimeMs": 160435,
    "Key": 52,
    "DurationMs": 293,
    "Vel": 80
  },
  {
    "TimeMs": 160760,
    "Key": 71,
    "DurationMs": 293,
    "Vel": 80
  },
  {
    "TimeMs": 160762,
    "Key": 59,
    "DurationMs": 293,
    "Vel": 80
  },
  {
    "TimeMs": 161086,
    "Key": 80,
    "DurationMs": 146,
    "Vel": 80
  },
  {
    "TimeMs": 161088,
    "Key": 64,
    "DurationMs": 292,
    "Vel": 80
  },
  {
    "TimeMs": 161249,
    "Key": 71,
    "DurationMs": 146,
    "Vel": 80
  },
  {
    "TimeMs": 161412,
    "Key": 76,
    "DurationMs": 146,
    "Vel": 80
  },
  {
    "TimeMs": 161414,
    "Key": 59,
    "DurationMs": 292,
    "Vel": 80
  },
  {
    "TimeMs": 161575,
    "Key": 80,
    "DurationMs": 146,
    "Vel": 80
  },
  {
    "TimeMs": 161738,
    "Key": 82,
    "DurationMs": 146,
    "Vel": 80
  },
  {
    "TimeMs": 161740,
    "Key": 54,
    "DurationMs": 292,
    "Vel": 80
  },
  {
    "TimeMs": 161901,
    "Key": 73,
    "DurationMs": 146,
    "Vel": 80
  },
  {
    "TimeMs": 162064,
    "Key": 75,
    "DurationMs": 146,
    "Vel": 80
  },
  {
    "TimeMs": 162066,
    "Key": 61,
    "DurationMs": 292,
    "Vel": 80
  },
  {
    "TimeMs": 162228,
    "Key": 80,
    "DurationMs": 146,
    "Vel": 80
  },
  {
    "TimeMs": 162391,
    "Key": 82,
    "DurationMs": 146,
    "Vel": 80
  },
  {
    "TimeMs": 162392,
    "Key": 66,
    "DurationMs": 292,
    "Vel": 80
  },
  {
    "TimeMs": 162554,
    "Key": 73,
    "DurationMs": 146,
    "Vel": 80
  },
  {
    "TimeMs": 162717,
    "Key": 83,
    "DurationMs": 146,
    "Vel": 80
  },
  {
    "TimeMs": 162718,
    "Key": 61,
    "DurationMs": 292,
    "Vel": 80
  },
  {
    "TimeMs": 162880,
    "Key": 82,
    "DurationMs": 146,
    "Vel": 80
  },
  {
    "TimeMs": 163043,
    "Key": 80,
    "DurationMs": 2478,
    "Vel": 80
  },
  {
    "TimeMs": 163044,
    "Key": 56,
    "DurationMs": 2478,
    "Vel": 80
  },
  {
    "TimeMs": 165651,
    "Key": 80,
    "DurationMs": 146,
    "Vel": 80
  },
  {
    "TimeMs": 165653,
    "Key": 40,
    "DurationMs": 292,
    "Vel": 80
  },
  {
    "TimeMs": 165814,
    "Key": 68,
    "DurationMs": 146,
    "Vel": 80
  },
  {
    "TimeMs": 165978,
    "Key": 71,
    "DurationMs": 146,
    "Vel": 80
  },
  {
    "TimeMs": 165979,
    "Key": 47,
    "DurationMs": 292,
    "Vel": 80
  },
  {
    "TimeMs": 166141,
    "Key": 76,
    "DurationMs": 146,
    "Vel": 80
  },
  {
    "TimeMs": 166304,
    "Key": 80,
    "DurationMs": 146,
    "Vel": 80
  },
  {
    "TimeMs": 166305,
    "Key": 52,
    "DurationMs": 292,
    "Vel": 80
  },
  {
    "TimeMs": 166467,
    "Key": 71,
    "DurationMs": 146,
    "Vel": 80
  },
  {
    "TimeMs": 166630,
    "Key": 76,
    "DurationMs": 146,
    "Vel": 80
  },
  {
    "TimeMs": 166631,
    "Key": 47,
    "DurationMs": 292,
    "Vel": 80
  },
  {
    "TimeMs": 166793,
    "Key": 80,
    "DurationMs": 146,
    "Vel": 80
  },
  {
    "TimeMs": 166956,
    "Key": 82,
    "DurationMs": 146,
    "Vel": 80
  },
  {
    "TimeMs": 166957,
    "Key": 42,
    "DurationMs": 292,
    "Vel": 80
  },
  {
    "TimeMs": 167119,
    "Key": 73,
    "DurationMs": 146,
    "Vel": 80
  },
  {
    "TimeMs": 167282,
    "Key": 75,
    "DurationMs": 146,
    "Vel": 80
  },
  {
    "TimeMs": 167283,
    "Key": 49,
    "DurationMs": 292,
    "Vel": 80
  },
  {
    "TimeMs": 167445,
    "Key": 80,
    "DurationMs": 146,
    "Vel": 80
  },
  {
    "TimeMs": 167608,
    "Key": 82,
    "DurationMs": 146,
    "Vel": 80
  },
  {
    "TimeMs": 167609,
    "Key": 54,
    "DurationMs": 292,
    "Vel": 80
  },
  {
    "TimeMs": 167771,
    "Key": 73,
    "DurationMs": 146,
    "Vel": 80
  },
  {
    "TimeMs": 167934,
    "Key": 83,
    "DurationMs": 146,
    "Vel": 80
  },
  {
    "TimeMs": 167935,
    "Key": 49,
    "DurationMs": 292,
    "Vel": 80
  },
  {
    "TimeMs": 168097,
    "Key": 82,
    "DurationMs": 146,
    "Vel": 80
  },
  {
    "TimeMs": 168260,
    "Key": 82,
    "DurationMs": 146,
    "Vel": 80
  },
  {
    "TimeMs": 168261,
    "Key": 44,
    "DurationMs": 292,
    "Vel": 80
  },
  {
    "TimeMs": 168423,
    "Key": 75,
    "DurationMs": 146,
    "Vel": 80
  },
  {
    "TimeMs": 168586,
    "Key": 83,
    "DurationMs": 146,
    "Vel": 80
  },
  {
    "TimeMs": 168588,
    "Key": 51,
    "DurationMs": 292,
    "Vel": 80
  },
  {
    "TimeMs": 168749,
    "Key": 75,
    "DurationMs": 146,
    "Vel": 80
  },
  {
    "TimeMs": 168912,
    "Key": 82,
    "DurationMs": 146,
    "Vel": 80
  },
  {
    "TimeMs": 168914,
    "Key": 59,
    "DurationMs": 292,
    "Vel": 80
  },
  {
    "TimeMs": 169075,
    "Key": 75,
    "DurationMs": 146,
    "Vel": 80
  },
  {
    "TimeMs": 169238,
    "Key": 78,
    "DurationMs": 146,
    "Vel": 80
  },
  {
    "TimeMs": 169240,
    "Key": 54,
    "DurationMs": 292,
    "Vel": 80
  },
  {
    "TimeMs": 169401,
    "Key": 75,
    "DurationMs": 146,
    "Vel": 80
  },
  {
    "TimeMs": 169564,
    "Key": 80,
    "DurationMs": 146,
    "Vel": 80
  },
  {
    "TimeMs": 169566,
    "Key": 44,
    "DurationMs": 292,
    "Vel": 80
  },
  {
    "TimeMs": 169728,
    "Key": 71,
    "DurationMs": 146,
    "Vel": 80
  },
  {
    "TimeMs": 169891,
    "Key": 78,
    "DurationMs": 146,
    "Vel": 80
  },
  {
    "TimeMs": 169892,
    "Key": 56,
    "DurationMs": 292,
    "Vel": 80
  },
  {
    "TimeMs": 170054,
    "Key": 71,
    "DurationMs": 146,
    "Vel": 80
  },
  {
    "TimeMs": 170217,
    "Key": 75,
    "DurationMs": 146,
    "Vel": 80
  },
  {
    "TimeMs": 170218,
    "Key": 51,
    "DurationMs": 292,
    "Vel": 80
  },
  {
    "TimeMs": 170380,
    "Key": 71,
    "DurationMs": 146,
    "Vel": 80
  },
  {
    "TimeMs": 170543,
    "Key": 78,
    "DurationMs": 146,
    "Vel": 80
  },
  {
    "TimeMs": 170544,
    "Key": 54,
    "DurationMs": 292,
    "Vel": 80
  },
  {
    "TimeMs": 170706,
    "Key": 71,
    "DurationMs": 146,
    "Vel": 80
  },
  {
    "TimeMs": 170869,
    "Key": 80,
    "DurationMs": 146,
    "Vel": 80
  },
  {
    "TimeMs": 170870,
    "Key": 40,
    "DurationMs": 292,
    "Vel": 80
  },
  {
    "TimeMs": 171195,
    "Key": 71,
    "DurationMs": 146,
    "Vel": 80
  },
  {
    "TimeMs": 171196,
    "Key": 47,
    "DurationMs": 292,
    "Vel": 80
  },
  {
    "TimeMs": 171358,
    "Key": 76,
    "DurationMs": 146,
    "Vel": 80
  },
  {
    "TimeMs": 171521,
    "Key": 80,
    "DurationMs": 146,
    "Vel": 80
  },
  {
    "TimeMs": 171522,
    "Key": 52,
    "DurationMs": 292,
    "Vel": 80
  },
  {
    "TimeMs": 171684,
    "Key": 71,
    "DurationMs": 146,
    "Vel": 80
  },
  {
    "TimeMs": 171847,
    "Key": 76,
    "DurationMs": 146,
    "Vel": 80
  },
  {
    "TimeMs": 171848,
    "Key": 47,
    "DurationMs": 292,
    "Vel": 80
  },
  {
    "TimeMs": 172010,
    "Key": 80,
    "DurationMs": 146,
    "Vel": 80
  },
  {
    "TimeMs": 172173,
    "Key": 82,
    "DurationMs": 146,
    "Vel": 80
  },
  {
    "TimeMs": 172175,
    "Key": 42,
    "DurationMs": 292,
    "Vel": 80
  },
  {
    "TimeMs": 172499,
    "Key": 75,
    "DurationMs": 146,
    "Vel": 80
  },
  {
    "TimeMs": 172501,
    "Key": 49,
    "DurationMs": 292,
    "Vel": 80
  },
  {
    "TimeMs": 172662,
    "Key": 80,
    "DurationMs": 146,
    "Vel": 80
  },
  {
    "TimeMs": 172825,
    "Key": 82,
    "DurationMs": 146,
    "Vel": 80
  },
  {
    "TimeMs": 172827,
    "Key": 54,
    "DurationMs": 292,
    "Vel": 80
  },
  {
    "TimeMs": 172988,
    "Key": 73,
    "DurationMs": 146,
    "Vel": 80
  },
  {
    "TimeMs": 173151,
    "Key": 83,
    "DurationMs": 146,
    "Vel": 80
  },
  {
    "TimeMs": 173153,
    "Key": 49,
    "DurationMs": 292,
    "Vel": 80
  },
  {
    "TimeMs": 173314,
    "Key": 82,
    "DurationMs": 146,
    "Vel": 80
  },
  {
    "TimeMs": 173478,
    "Key": 80,
    "DurationMs": 146,
    "Vel": 80
  },
  {
    "TimeMs": 173479,
    "Key": 44,
    "DurationMs": 292,
    "Vel": 80
  },
  {
    "TimeMs": 173641,
    "Key": 71,
    "DurationMs": 146,
    "Vel": 80
  },
  {
    "TimeMs": 173804,
    "Key": 83,
    "DurationMs": 146,
    "Vel": 80
  },
  {
    "TimeMs": 173805,
    "Key": 51,
    "DurationMs": 292,
    "Vel": 80
  },
  {
    "TimeMs": 173967,
    "Key": 71,
    "DurationMs": 146,
    "Vel": 80
  },
  {
    "TimeMs": 174130,
    "Key": 85,
    "DurationMs": 146,
    "Vel": 80
  },
  {
    "TimeMs": 174131,
    "Key": 56,
    "DurationMs": 292,
    "Vel": 80
  },
  {
    "TimeMs": 174293,
    "Key": 73,
    "DurationMs": 146,
    "Vel": 80
  },
  {
    "TimeMs": 174456,
    "Key": 87,
    "DurationMs": 146,
    "Vel": 80
  },
  {
    "TimeMs": 174457,
    "Key": 58,
    "DurationMs": 292,
    "Vel": 80
  },
  {
    "TimeMs": 174619,
    "Key": 73,
    "DurationMs": 146,
    "Vel": 80
  },
  {
    "TimeMs": 174782,
    "Key": 85,
    "DurationMs": 146,
    "Vel": 80
  },
  {
    "TimeMs": 174783,
    "Key": 59,
    "DurationMs": 292,
    "Vel": 80
  },
  {
    "TimeMs": 174945,
    "Key": 73,
    "DurationMs": 146,
    "Vel": 80
  },
  {
    "TimeMs": 175108,
    "Key": 83,
    "DurationMs": 440,
    "Vel": 80
  },
  {
    "TimeMs": 175109,
    "Key": 51,
    "DurationMs": 292,
    "Vel": 80
  },
  {
    "TimeMs": 175434,
    "Key": 56,
    "DurationMs": 293,
    "Vel": 80
  },
  {
    "TimeMs": 175760,
    "Key": 80,
    "DurationMs": 293,
    "Vel": 80
  },
  {
    "TimeMs": 175761,
    "Key": 51,
    "DurationMs": 293,
    "Vel": 80
  },
  {
    "TimeMs": 176086,
    "Key": 80,
    "DurationMs": 146,
    "Vel": 80
  },
  {
    "TimeMs": 176088,
    "Key": 40,
    "DurationMs": 292,
    "Vel": 80
  },
  {
    "TimeMs": 176249,
    "Key": 68,
    "DurationMs": 146,
    "Vel": 80
  },
  {
    "TimeMs": 176412,
    "Key": 71,
    "DurationMs": 146,
    "Vel": 80
  },
  {
    "TimeMs": 176414,
    "Key": 47,
    "DurationMs": 292,
    "Vel": 80
  },
  {
    "TimeMs": 176575,
    "Key": 76,
    "DurationMs": 146,
    "Vel": 80
  },
  {
    "TimeMs": 176738,
    "Key": 80,
    "DurationMs": 146,
    "Vel": 80
  },
  {
    "TimeMs": 176740,
    "Key": 52,
    "DurationMs": 292,
    "Vel": 80
  },
  {
    "TimeMs": 176901,
    "Key": 71,
    "DurationMs": 146,
    "Vel": 80
  },
  {
    "TimeMs": 177064,
    "Key": 76,
    "DurationMs": 146,
    "Vel": 80
  },
  {
    "TimeMs": 177066,
    "Key": 47,
    "DurationMs": 292,
    "Vel": 80
  },
  {
    "TimeMs": 177228,
    "Key": 80,
    "DurationMs": 146,
    "Vel": 80
  },
  {
    "TimeMs": 177391,
    "Key": 82,
    "DurationMs": 146,
    "Vel": 80
  },
  {
    "TimeMs": 177392,
    "Key": 42,
    "DurationMs": 292,
    "Vel": 80
  },
  {
    "TimeMs": 177554,
    "Key": 73,
    "DurationMs": 146,
    "Vel": 80
  },
  {
    "TimeMs": 177717,
    "Key": 75,
    "DurationMs": 146,
    "Vel": 80
  },
  {
    "TimeMs": 177718,
    "Key": 49,
    "DurationMs": 292,
    "Vel": 80
  },
  {
    "TimeMs": 177880,
    "Key": 80,
    "DurationMs": 146,
    "Vel": 80
  },
  {
    "TimeMs": 178043,
    "Key": 82,
    "DurationMs": 146,
    "Vel": 80
  },
  {
    "TimeMs": 178044,
    "Key": 54,
    "DurationMs": 292,
    "Vel": 80
  },
  {
    "TimeMs": 178206,
    "Key": 73,
    "DurationMs": 146,
    "Vel": 80
  },
  {
    "TimeMs": 178369,
    "Key": 83,
    "DurationMs": 146,
    "Vel": 80
  },
  {
    "TimeMs": 178370,
    "Key": 49,
    "DurationMs": 292,
    "Vel": 80
  },
  {
    "TimeMs": 178532,
    "Key": 82,
    "DurationMs": 146,
    "Vel": 80
  },
  {
    "TimeMs": 178695,
    "Key": 82,
    "DurationMs": 146,
    "Vel": 80
  },
  {
    "TimeMs": 178696,
    "Key": 39,
    "DurationMs": 292,
    "Vel": 80
  },
  {
    "TimeMs": 178858,
    "Key": 75,
    "DurationMs": 146,
    "Vel": 80
  },
  {
    "TimeMs": 179021,
    "Key": 83,
    "DurationMs": 146,
    "Vel": 80
  },
  {
    "TimeMs": 179022,
    "Key": 43,
    "DurationMs": 292,
    "Vel": 80
  },
  {
    "TimeMs": 179184,
    "Key": 75,
    "DurationMs": 146,
    "Vel": 80
  },
  {
    "TimeMs": 179347,
    "Key": 82,
    "DurationMs": 146,
    "Vel": 80
  },
  {
    "TimeMs": 179348,
    "Key": 44,
    "DurationMs": 292,
    "Vel": 80
  },
  {
    "TimeMs": 179510,
    "Key": 75,
    "DurationMs": 146,
    "Vel": 80
  },
  {
    "TimeMs": 179673,
    "Key": 78,
    "DurationMs": 146,
    "Vel": 80
  },
  {
    "TimeMs": 179675,
    "Key": 46,
    "DurationMs": 292,
    "Vel": 80
  },
  {
    "TimeMs": 179836,
    "Key": 75,
    "DurationMs": 146,
    "Vel": 80
  },
  {
    "TimeMs": 179999,
    "Key": 80,
    "DurationMs": 146,
    "Vel": 80
  },
  {
    "TimeMs": 180001,
    "Key": 47,
    "DurationMs": 292,
    "Vel": 80
  },
  {
    "TimeMs": 180162,
    "Key": 71,
    "DurationMs": 146,
    "Vel": 80
  },
  {
    "TimeMs": 180325,
    "Key": 78,
    "DurationMs": 146,
    "Vel": 80
  },
  {
    "TimeMs": 180327,
    "Key": 46,
    "DurationMs": 292,
    "Vel": 80
  },
  {
    "TimeMs": 180488,
    "Key": 71,
    "DurationMs": 146,
    "Vel": 80
  },
  {
    "TimeMs": 180651,
    "Key": 75,
    "DurationMs": 146,
    "Vel": 80
  },
  {
    "TimeMs": 180653,
    "Key": 44,
    "DurationMs": 292,
    "Vel": 80
  },
  {
    "TimeMs": 180814,
    "Key": 71,
    "DurationMs": 146,
    "Vel": 80
  },
  {
    "TimeMs": 180978,
    "Key": 78,
    "DurationMs": 146,
    "Vel": 80
  },
  {
    "TimeMs": 180979,
    "Key": 42,
    "DurationMs": 292,
    "Vel": 80
  },
  {
    "TimeMs": 181141,
    "Key": 71,
    "DurationMs": 146,
    "Vel": 80
  },
  {
    "TimeMs": 181304,
    "Key": 80,
    "DurationMs": 293,
    "Vel": 80
  },
  {
    "TimeMs": 181305,
    "Key": 40,
    "DurationMs": 293,
    "Vel": 80
  },
  {
    "TimeMs": 181630,
    "Key": 71,
    "DurationMs": 293,
    "Vel": 80
  },
  {
    "TimeMs": 181631,
    "Key": 47,
    "DurationMs": 293,
    "Vel": 80
  },
  {
    "TimeMs": 181956,
    "Key": 80,
    "DurationMs": 146,
    "Vel": 80
  },
  {
    "TimeMs": 181957,
    "Key": 52,
    "DurationMs": 292,
    "Vel": 80
  },
  {
    "TimeMs": 182119,
    "Key": 71,
    "DurationMs": 146,
    "Vel": 80
  },
  {
    "TimeMs": 182282,
    "Key": 76,
    "DurationMs": 146,
    "Vel": 80
  },
  {
    "TimeMs": 182283,
    "Key": 47,
    "DurationMs": 292,
    "Vel": 80
  },
  {
    "TimeMs": 182445,
    "Key": 80,
    "DurationMs": 146,
    "Vel": 80
  },
  {
    "TimeMs": 182608,
    "Key": 82,
    "DurationMs": 146,
    "Vel": 80
  },
  {
    "TimeMs": 182609,
    "Key": 42,
    "DurationMs": 292,
    "Vel": 80
  },
  {
    "TimeMs": 182771,
    "Key": 73,
    "DurationMs": 146,
    "Vel": 80
  },
  {
    "TimeMs": 182934,
    "Key": 75,
    "DurationMs": 146,
    "Vel": 80
  },
  {
    "TimeMs": 182935,
    "Key": 49,
    "DurationMs": 292,
    "Vel": 80
  },
  {
    "TimeMs": 183097,
    "Key": 80,
    "DurationMs": 146,
    "Vel": 80
  },
  {
    "TimeMs": 183260,
    "Key": 82,
    "DurationMs": 146,
    "Vel": 80
  },
  {
    "TimeMs": 183261,
    "Key": 54,
    "DurationMs": 292,
    "Vel": 80
  },
  {
    "TimeMs": 183423,
    "Key": 73,
    "DurationMs": 146,
    "Vel": 80
  },
  {
    "TimeMs": 183586,
    "Key": 83,
    "DurationMs": 146,
    "Vel": 80
  },
  {
    "TimeMs": 183588,
    "Key": 49,
    "DurationMs": 292,
    "Vel": 80
  },
  {
    "TimeMs": 183749,
    "Key": 82,
    "DurationMs": 146,
    "Vel": 80
  },
  {
    "TimeMs": 183912,
    "Key": 80,
    "DurationMs": 586,
    "Vel": 80
  },
  {
    "TimeMs": 184075,
    "Key": 61,
    "DurationMs": 146,
    "Vel": 80
  },
  {
    "TimeMs": 184238,
    "Key": 63,
    "DurationMs": 146,
    "Vel": 80
  },
  {
    "TimeMs": 184401,
    "Key": 68,
    "DurationMs": 146,
    "Vel": 80
  },
  {
    "TimeMs": 184564,
    "Key": 61,
    "DurationMs": 146,
    "Vel": 80
  },
  {
    "TimeMs": 184728,
    "Key": 63,
    "DurationMs": 146,
    "Vel": 80
  },
  {
    "TimeMs": 184891,
    "Key": 68,
    "DurationMs": 146,
    "Vel": 80
  },
  {
    "TimeMs": 185054,
    "Key": 73,
    "DurationMs": 146,
    "Vel": 80
  },
  {
    "TimeMs": 185217,
    "Key": 75,
    "DurationMs": 146,
    "Vel": 80
  },
  {
    "TimeMs": 185380,
    "Key": 80,
    "DurationMs": 146,
    "Vel": 80
  },
  {
    "TimeMs": 185543,
    "Key": 85,
    "DurationMs": 146,
    "Vel": 80
  },
  {
    "TimeMs": 185706,
    "Key": 87,
    "DurationMs": 146,
    "Vel": 80
  },
  {
    "TimeMs": 185869,
    "Key": 99,
    "DurationMs": 586,
    "Vel": 80
  },
  {
    "TimeMs": 185870,
    "Key": 97,
    "DurationMs": 586,
    "Vel": 80
  },
  {
    "TimeMs": 185872,
    "Key": 92,
    "DurationMs": 586,
    "Vel": 80
  },
  {
    "TimeMs": 186521,
    "Key": 80,
    "DurationMs": 146,
    "Vel": 80
  },
  {
    "TimeMs": 186522,
    "Key": 40,
    "DurationMs": 292,
    "Vel": 80
  },
  {
    "TimeMs": 186684,
    "Key": 68,
    "DurationMs": 146,
    "Vel": 80
  },
  {
    "TimeMs": 186847,
    "Key": 71,
    "DurationMs": 146,
    "Vel": 80
  },
  {
    "TimeMs": 186848,
    "Key": 47,
    "DurationMs": 292,
    "Vel": 80
  },
  {
    "TimeMs": 187010,
    "Key": 76,
    "DurationMs": 146,
    "Vel": 80
  },
  {
    "TimeMs": 187173,
    "Key": 80,
    "DurationMs": 146,
    "Vel": 80
  },
  {
    "TimeMs": 187175,
    "Key": 52,
    "DurationMs": 292,
    "Vel": 80
  },
  {
    "TimeMs": 187336,
    "Key": 71,
    "DurationMs": 146,
    "Vel": 80
  },
  {
    "TimeMs": 187499,
    "Key": 76,
    "DurationMs": 146,
    "Vel": 80
  },
  {
    "TimeMs": 187501,
    "Key": 47,
    "DurationMs": 292,
    "Vel": 80
  },
  {
    "TimeMs": 187662,
    "Key": 80,
    "DurationMs": 146,
    "Vel": 80
  },
  {
    "TimeMs": 187825,
    "Key": 82,
    "DurationMs": 146,
    "Vel": 80
  },
  {
    "TimeMs": 187827,
    "Key": 42,
    "DurationMs": 292,
    "Vel": 80
  },
  {
    "TimeMs": 187988,
    "Key": 73,
    "DurationMs": 146,
    "Vel": 80
  },
  {
    "TimeMs": 188151,
    "Key": 75,
    "DurationMs": 146,
    "Vel": 80
  },
  {
    "TimeMs": 188153,
    "Key": 49,
    "DurationMs": 292,
    "Vel": 80
  },
  {
    "TimeMs": 188314,
    "Key": 80,
    "DurationMs": 146,
    "Vel": 80
  },
  {
    "TimeMs": 188477,
    "Key": 82,
    "DurationMs": 146,
    "Vel": 80
  },
  {
    "TimeMs": 188479,
    "Key": 54,
    "DurationMs": 292,
    "Vel": 80
  },
  {
    "TimeMs": 188641,
    "Key": 73,
    "DurationMs": 146,
    "Vel": 80
  },
  {
    "TimeMs": 188804,
    "Key": 83,
    "DurationMs": 146,
    "Vel": 80
  },
  {
    "TimeMs": 188805,
    "Key": 49,
    "DurationMs": 292,
    "Vel": 80
  },
  {
    "TimeMs": 188967,
    "Key": 82,
    "DurationMs": 146,
    "Vel": 80
  },
  {
    "TimeMs": 189130,
    "Key": 82,
    "DurationMs": 146,
    "Vel": 80
  },
  {
    "TimeMs": 189131,
    "Key": 44,
    "DurationMs": 292,
    "Vel": 80
  },
  {
    "TimeMs": 189293,
    "Key": 75,
    "DurationMs": 146,
    "Vel": 80
  },
  {
    "TimeMs": 189456,
    "Key": 83,
    "DurationMs": 146,
    "Vel": 80
  },
  {
    "TimeMs": 189457,
    "Key": 51,
    "DurationMs": 292,
    "Vel": 80
  },
  {
    "TimeMs": 189619,
    "Key": 75,
    "DurationMs": 146,
    "Vel": 80
  },
  {
    "TimeMs": 189782,
    "Key": 82,
    "DurationMs": 146,
    "Vel": 80
  },
  {
    "TimeMs": 189783,
    "Key": 59,
    "DurationMs": 292,
    "Vel": 80
  },
  {
    "TimeMs": 189945,
    "Key": 75,
    "DurationMs": 146,
    "Vel": 80
  },
  {
    "TimeMs": 190108,
    "Key": 78,
    "DurationMs": 146,
    "Vel": 80
  },
  {
    "TimeMs": 190109,
    "Key": 54,
    "DurationMs": 292,
    "Vel": 80
  },
  {
    "TimeMs": 190271,
    "Key": 75,
    "DurationMs": 146,
    "Vel": 80
  },
  {
    "TimeMs": 190434,
    "Key": 80,
    "DurationMs": 146,
    "Vel": 80
  },
  {
    "TimeMs": 190435,
    "Key": 44,
    "DurationMs": 292,
    "Vel": 80
  },
  {
    "TimeMs": 190597,
    "Key": 71,
    "DurationMs": 146,
    "Vel": 80
  },
  {
    "TimeMs": 190760,
    "Key": 78,
    "DurationMs": 146,
    "Vel": 80
  },
  {
    "TimeMs": 190761,
    "Key": 56,
    "DurationMs": 292,
    "Vel": 80
  },
  {
    "TimeMs": 190923,
    "Key": 71,
    "DurationMs": 146,
    "Vel": 80
  },
  {
    "TimeMs": 191086,
    "Key": 75,
    "DurationMs": 146,
    "Vel": 80
  },
  {
    "TimeMs": 191088,
    "Key": 51,
    "DurationMs": 292,
    "Vel": 80
  },
  {
    "TimeMs": 191249,
    "Key": 71,
    "DurationMs": 146,
    "Vel": 80
  },
  {
    "TimeMs": 191412,
    "Key": 78,
    "DurationMs": 146,
    "Vel": 80
  },
  {
    "TimeMs": 191414,
    "Key": 54,
    "DurationMs": 292,
    "Vel": 80
  },
  {
    "TimeMs": 191575,
    "Key": 71,
    "DurationMs": 146,
    "Vel": 80
  },
  {
    "TimeMs": 191738,
    "Key": 80,
    "DurationMs": 146,
    "Vel": 80
  },
  {
    "TimeMs": 191740,
    "Key": 40,
    "DurationMs": 292,
    "Vel": 80
  },
  {
    "TimeMs": 192064,
    "Key": 71,
    "DurationMs": 146,
    "Vel": 80
  },
  {
    "TimeMs": 192066,
    "Key": 47,
    "DurationMs": 292,
    "Vel": 80
  },
  {
    "TimeMs": 192227,
    "Key": 76,
    "DurationMs": 146,
    "Vel": 80
  },
  {
    "TimeMs": 192391,
    "Key": 80,
    "DurationMs": 146,
    "Vel": 80
  },
  {
    "TimeMs": 192392,
    "Key": 52,
    "DurationMs": 292,
    "Vel": 80
  },
  {
    "TimeMs": 192554,
    "Key": 71,
    "DurationMs": 146,
    "Vel": 80
  },
  {
    "TimeMs": 192717,
    "Key": 76,
    "DurationMs": 146,
    "Vel": 80
  },
  {
    "TimeMs": 192718,
    "Key": 47,
    "DurationMs": 292,
    "Vel": 80
  },
  {
    "TimeMs": 192880,
    "Key": 80,
    "DurationMs": 146,
    "Vel": 80
  },
  {
    "TimeMs": 193043,
    "Key": 82,
    "DurationMs": 146,
    "Vel": 80
  },
  {
    "TimeMs": 193044,
    "Key": 42,
    "DurationMs": 292,
    "Vel": 80
  },
  {
    "TimeMs": 193206,
    "Key": 73,
    "DurationMs": 146,
    "Vel": 80
  },
  {
    "TimeMs": 193369,
    "Key": 75,
    "DurationMs": 146,
    "Vel": 80
  },
  {
    "TimeMs": 193370,
    "Key": 49,
    "DurationMs": 292,
    "Vel": 80
  },
  {
    "TimeMs": 193532,
    "Key": 80,
    "DurationMs": 146,
    "Vel": 80
  },
  {
    "TimeMs": 193695,
    "Key": 82,
    "DurationMs": 146,
    "Vel": 80
  },
  {
    "TimeMs": 193696,
    "Key": 54,
    "DurationMs": 292,
    "Vel": 80
  },
  {
    "TimeMs": 193858,
    "Key": 73,
    "DurationMs": 146,
    "Vel": 80
  },
  {
    "TimeMs": 194021,
    "Key": 83,
    "DurationMs": 146,
    "Vel": 80
  },
  {
    "TimeMs": 194022,
    "Key": 49,
    "DurationMs": 292,
    "Vel": 80
  },
  {
    "TimeMs": 194184,
    "Key": 82,
    "DurationMs": 146,
    "Vel": 80
  },
  {
    "TimeMs": 194347,
    "Key": 80,
    "DurationMs": 146,
    "Vel": 80
  },
  {
    "TimeMs": 194348,
    "Key": 44,
    "DurationMs": 292,
    "Vel": 80
  },
  {
    "TimeMs": 194510,
    "Key": 71,
    "DurationMs": 146,
    "Vel": 80
  },
  {
    "TimeMs": 194673,
    "Key": 83,
    "DurationMs": 146,
    "Vel": 80
  },
  {
    "TimeMs": 194674,
    "Key": 51,
    "DurationMs": 292,
    "Vel": 80
  },
  {
    "TimeMs": 194836,
    "Key": 71,
    "DurationMs": 146,
    "Vel": 80
  },
  {
    "TimeMs": 194999,
    "Key": 85,
    "DurationMs": 146,
    "Vel": 80
  },
  {
    "TimeMs": 195001,
    "Key": 56,
    "DurationMs": 292,
    "Vel": 80
  },
  {
    "TimeMs": 195162,
    "Key": 73,
    "DurationMs": 146,
    "Vel": 80
  },
  {
    "TimeMs": 195325,
    "Key": 87,
    "DurationMs": 146,
    "Vel": 80
  },
  {
    "TimeMs": 195327,
    "Key": 58,
    "DurationMs": 292,
    "Vel": 80
  },
  {
    "TimeMs": 195488,
    "Key": 73,
    "DurationMs": 146,
    "Vel": 80
  },
  {
    "TimeMs": 195651,
    "Key": 87,
    "DurationMs": 146,
    "Vel": 80
  },
  {
    "TimeMs": 195653,
    "Key": 59,
    "DurationMs": 292,
    "Vel": 80
  },
  {
    "TimeMs": 195814,
    "Key": 75,
    "DurationMs": 146,
    "Vel": 80
  },
  {
    "TimeMs": 195977,
    "Key": 87,
    "DurationMs": 146,
    "Vel": 80
  },
  {
    "TimeMs": 195979,
    "Key": 51,
    "DurationMs": 292,
    "Vel": 80
  },
  {
    "TimeMs": 196141,
    "Key": 75,
    "DurationMs": 146,
    "Vel": 80
  },
  {
    "TimeMs": 196304,
    "Key": 87,
    "DurationMs": 146,
    "Vel": 80
  },
  {
    "TimeMs": 196305,
    "Key": 56,
    "DurationMs": 292,
    "Vel": 80
  },
  {
    "TimeMs": 196467,
    "Key": 75,
    "DurationMs": 146,
    "Vel": 80
  },
  {
    "TimeMs": 196630,
    "Key": 87,
    "DurationMs": 146,
    "Vel": 80
  },
  {
    "TimeMs": 196631,
    "Key": 51,
    "DurationMs": 292,
    "Vel": 80
  },
  {
    "TimeMs": 196793,
    "Key": 90,
    "DurationMs": 146,
    "Vel": 80
  },
  {
    "TimeMs": 196956,
    "Key": 92,
    "DurationMs": 146,
    "Vel": 80
  },
  {
    "TimeMs": 196957,
    "Key": 52,
    "DurationMs": 292,
    "Vel": 80
  },
  {
    "TimeMs": 197119,
    "Key": 80,
    "DurationMs": 146,
    "Vel": 80
  },
  {
    "TimeMs": 197282,
    "Key": 83,
    "DurationMs": 146,
    "Vel": 80
  },
  {
    "TimeMs": 197283,
    "Key": 59,
    "DurationMs": 292,
    "Vel": 80
  },
  {
    "TimeMs": 197445,
    "Key": 88,
    "DurationMs": 146,
    "Vel": 80
  },
  {
    "TimeMs": 197608,
    "Key": 92,
    "DurationMs": 146,
    "Vel": 80
  },
  {
    "TimeMs": 197609,
    "Key": 64,
    "DurationMs": 292,
    "Vel": 80
  },
  {
    "TimeMs": 197771,
    "Key": 83,
    "DurationMs": 146,
    "Vel": 80
  },
  {
    "TimeMs": 197934,
    "Key": 88,
    "DurationMs": 146,
    "Vel": 80
  },
  {
    "TimeMs": 197935,
    "Key": 59,
    "DurationMs": 292,
    "Vel": 80
  },
  {
    "TimeMs": 198097,
    "Key": 92,
    "DurationMs": 146,
    "Vel": 80
  },
  {
    "TimeMs": 198260,
    "Key": 94,
    "DurationMs": 146,
    "Vel": 80
  },
  {
    "TimeMs": 198261,
    "Key": 54,
    "DurationMs": 292,
    "Vel": 80
  },
  {
    "TimeMs": 198423,
    "Key": 85,
    "DurationMs": 146,
    "Vel": 80
  },
  {
    "TimeMs": 198586,
    "Key": 87,
    "DurationMs": 146,
    "Vel": 80
  },
  {
    "TimeMs": 198588,
    "Key": 61,
    "DurationMs": 292,
    "Vel": 80
  },
  {
    "TimeMs": 198749,
    "Key": 92,
    "DurationMs": 146,
    "Vel": 80
  },
  {
    "TimeMs": 198912,
    "Key": 94,
    "DurationMs": 146,
    "Vel": 80
  },
  {
    "TimeMs": 198914,
    "Key": 66,
    "DurationMs": 292,
    "Vel": 80
  },
  {
    "TimeMs": 199075,
    "Key": 85,
    "DurationMs": 146,
    "Vel": 80
  },
  {
    "TimeMs": 199238,
    "Key": 95,
    "DurationMs": 146,
    "Vel": 80
  },
  {
    "TimeMs": 199240,
    "Key": 61,
    "DurationMs": 292,
    "Vel": 80
  },
  {
    "TimeMs": 199401,
    "Key": 94,
    "DurationMs": 146,
    "Vel": 80
  },
  {
    "TimeMs": 199564,
    "Key": 92,
    "DurationMs": 146,
    "Vel": 80
  },
  {
    "TimeMs": 199566,
    "Key": 51,
    "DurationMs": 292,
    "Vel": 80
  },
  {
    "TimeMs": 199727,
    "Key": 83,
    "DurationMs": 146,
    "Vel": 80
  },
  {
    "TimeMs": 199891,
    "Key": 95,
    "DurationMs": 146,
    "Vel": 80
  },
  {
    "TimeMs": 199892,
    "Key": 55,
    "DurationMs": 292,
    "Vel": 80
  },
  {
    "TimeMs": 200054,
    "Key": 83,
    "DurationMs": 146,
    "Vel": 80
  },
  {
    "TimeMs": 200217,
    "Key": 94,
    "DurationMs": 146,
    "Vel": 80
  },
  {
    "TimeMs": 200218,
    "Key": 56,
    "DurationMs": 292,
    "Vel": 80
  },
  {
    "TimeMs": 200380,
    "Key": 83,
    "DurationMs": 146,
    "Vel": 80
  },
  {
    "TimeMs": 200543,
    "Key": 90,
    "DurationMs": 146,
    "Vel": 80
  },
  {
    "TimeMs": 200544,
    "Key": 58,
    "DurationMs": 292,
    "Vel": 80
  },
  {
    "TimeMs": 200706,
    "Key": 83,
    "DurationMs": 146,
    "Vel": 80
  },
  {
    "TimeMs": 200869,
    "Key": 92,
    "DurationMs": 146,
    "Vel": 80
  },
  {
    "TimeMs": 200870,
    "Key": 59,
    "DurationMs": 292,
    "Vel": 80
  },
  {
    "TimeMs": 201032,
    "Key": 83,
    "DurationMs": 146,
    "Vel": 80
  },
  {
    "TimeMs": 201195,
    "Key": 90,
    "DurationMs": 146,
    "Vel": 80
  },
  {
    "TimeMs": 201196,
    "Key": 58,
    "DurationMs": 292,
    "Vel": 80
  },
  {
    "TimeMs": 201358,
    "Key": 83,
    "DurationMs": 146,
    "Vel": 80
  },
  {
    "TimeMs": 201521,
    "Key": 87,
    "DurationMs": 146,
    "Vel": 80
  },
  {
    "TimeMs": 201522,
    "Key": 56,
    "DurationMs": 292,
    "Vel": 80
  },
  {
    "TimeMs": 201684,
    "Key": 83,
    "DurationMs": 146,
    "Vel": 80
  },
  {
    "TimeMs": 201847,
    "Key": 90,
    "DurationMs": 146,
    "Vel": 80
  },
  {
    "TimeMs": 201848,
    "Key": 54,
    "DurationMs": 292,
    "Vel": 80
  },
  {
    "TimeMs": 202010,
    "Key": 83,
    "DurationMs": 146,
    "Vel": 80
  },
  {
    "TimeMs": 202173,
    "Key": 92,
    "DurationMs": 146,
    "Vel": 80
  },
  {
    "TimeMs": 202174,
    "Key": 68,
    "DurationMs": 292,
    "Vel": 80
  },
  {
    "TimeMs": 202176,
    "Key": 52,
    "DurationMs": 292,
    "Vel": 80
  },
  {
    "TimeMs": 202336,
    "Key": 80,
    "DurationMs": 146,
    "Vel": 80
  },
  {
    "TimeMs": 202499,
    "Key": 83,
    "DurationMs": 146,
    "Vel": 80
  },
  {
    "TimeMs": 202501,
    "Key": 59,
    "DurationMs": 292,
    "Vel": 80
  },
  {
    "TimeMs": 202662,
    "Key": 88,
    "DurationMs": 146,
    "Vel": 80
  },
  {
    "TimeMs": 202825,
    "Key": 92,
    "DurationMs": 146,
    "Vel": 80
  },
  {
    "TimeMs": 202827,
    "Key": 75,
    "DurationMs": 292,
    "Vel": 80
  },
  {
    "TimeMs": 202828,
    "Key": 64,
    "DurationMs": 292,
    "Vel": 80
  },
  {
    "TimeMs": 202988,
    "Key": 83,
    "DurationMs": 146,
    "Vel": 80
  },
  {
    "TimeMs": 203151,
    "Key": 88,
    "DurationMs": 146,
    "Vel": 80
  },
  {
    "TimeMs": 203153,
    "Key": 59,
    "DurationMs": 292,
    "Vel": 80
  },
  {
    "TimeMs": 203314,
    "Key": 92,
    "DurationMs": 146,
    "Vel": 80
  },
  {
    "TimeMs": 203477,
    "Key": 94,
    "DurationMs": 146,
    "Vel": 80
  },
  {
    "TimeMs": 203479,
    "Key": 73,
    "DurationMs": 292,
    "Vel": 80
  },
  {
    "TimeMs": 203480,
    "Key": 54,
    "DurationMs": 292,
    "Vel": 80
  },
  {
    "TimeMs": 203641,
    "Key": 85,
    "DurationMs": 146,
    "Vel": 80
  },
  {
    "TimeMs": 203804,
    "Key": 87,
    "DurationMs": 146,
    "Vel": 80
  },
  {
    "TimeMs": 203805,
    "Key": 61,
    "DurationMs": 292,
    "Vel": 80
  },
  {
    "TimeMs": 203967,
    "Key": 92,
    "DurationMs": 146,
    "Vel": 80
  },
  {
    "TimeMs": 204130,
    "Key": 94,
    "DurationMs": 146,
    "Vel": 80
  },
  {
    "TimeMs": 204131,
    "Key": 70,
    "DurationMs": 292,
    "Vel": 80
  },
  {
    "TimeMs": 204132,
    "Key": 66,
    "DurationMs": 292,
    "Vel": 80
  },
  {
    "TimeMs": 204293,
    "Key": 85,
    "DurationMs": 146,
    "Vel": 80
  },
  {
    "TimeMs": 204456,
    "Key": 95,
    "DurationMs": 146,
    "Vel": 80
  },
  {
    "TimeMs": 204457,
    "Key": 61,
    "DurationMs": 292,
    "Vel": 80
  },
  {
    "TimeMs": 204619,
    "Key": 94,
    "DurationMs": 146,
    "Vel": 80
  },
  {
    "TimeMs": 204782,
    "Key": 92,
    "DurationMs": 586,
    "Vel": 80
  },
  {
    "TimeMs": 204783,
    "Key": 80,
    "DurationMs": 586,
    "Vel": 80
  },
  {
    "TimeMs": 204945,
    "Key": 61,
    "DurationMs": 146,
    "Vel": 80
  },
  {
    "TimeMs": 205108,
    "Key": 63,
    "DurationMs": 146,
    "Vel": 80
  },
  {
    "TimeMs": 205271,
    "Key": 68,
    "DurationMs": 146,
    "Vel": 80
  },
  {
    "TimeMs": 205434,
    "Key": 61,
    "DurationMs": 146,
    "Vel": 80
  },
  {
    "TimeMs": 205597,
    "Key": 63,
    "DurationMs": 146,
    "Vel": 80
  },
  {
    "TimeMs": 205760,
    "Key": 68,
    "DurationMs": 146,
    "Vel": 80
  },
  {
    "TimeMs": 205923,
    "Key": 73,
    "DurationMs": 146,
    "Vel": 80
  },
  {
    "TimeMs": 206086,
    "Key": 75,
    "DurationMs": 146,
    "Vel": 80
  },
  {
    "TimeMs": 206249,
    "Key": 80,
    "DurationMs": 146,
    "Vel": 80
  },
  {
    "TimeMs": 206412,
    "Key": 85,
    "DurationMs": 146,
    "Vel": 80
  },
  {
    "TimeMs": 206575,
    "Key": 87,
    "DurationMs": 146,
    "Vel": 80
  },
  {
    "TimeMs": 206738,
    "Key": 99,
    "DurationMs": 586,
    "Vel": 80
  },
  {
    "TimeMs": 206740,
    "Key": 97,
    "DurationMs": 586,
    "Vel": 80
  },
  {
    "TimeMs": 206741,
    "Key": 92,
    "DurationMs": 586,
    "Vel": 80
  },
  {
    "TimeMs": 208858,
    "Key": 73,
    "DurationMs": 146,
    "Vel": 80
  },
  {
    "TimeMs": 209021,
    "Key": 75,
    "DurationMs": 146,
    "Vel": 80
  },
  {
    "TimeMs": 209184,
    "Key": 83,
    "DurationMs": 146,
    "Vel": 80
  },
  {
    "TimeMs": 209347,
    "Key": 82,
    "DurationMs": 146,
    "Vel": 80
  },
  {
    "TimeMs": 209510,
    "Key": 80,
    "DurationMs": 146,
    "Vel": 80
  },
  {
    "TimeMs": 209673,
    "Key": 82,
    "DurationMs": 146,
    "Vel": 80
  },
  {
    "TimeMs": 209836,
    "Key": 79,
    "DurationMs": 146,
    "Vel": 80
  },
  {
    "TimeMs": 209999,
    "Key": 83,
    "DurationMs": 146,
    "Vel": 80
  },
  {
    "TimeMs": 210001,
    "Key": 56,
    "DurationMs": 292,
    "Vel": 80
  },
  {
    "TimeMs": 210162,
    "Key": 75,
    "DurationMs": 146,
    "Vel": 80
  },
  {
    "TimeMs": 210325,
    "Key": 82,
    "DurationMs": 146,
    "Vel": 80
  },
  {
    "TimeMs": 210327,
    "Key": 63,
    "DurationMs": 292,
    "Vel": 80
  },
  {
    "TimeMs": 210328,
    "Key": 59,
    "DurationMs": 292,
    "Vel": 80
  },
  {
    "TimeMs": 210488,
    "Key": 75,
    "DurationMs": 146,
    "Vel": 80
  },
  {
    "TimeMs": 210651,
    "Key": 83,
    "DurationMs": 146,
    "Vel": 80
  },
  {
    "TimeMs": 210653,
    "Key": 61,
    "DurationMs": 292,
    "Vel": 80
  },
  {
    "TimeMs": 210814,
    "Key": 75,
    "DurationMs": 146,
    "Vel": 80
  },
  {
    "TimeMs": 210977,
    "Key": 85,
    "DurationMs": 146,
    "Vel": 80
  },
  {
    "TimeMs": 210979,
    "Key": 66,
    "DurationMs": 292,
    "Vel": 80
  },
  {
    "TimeMs": 210980,
    "Key": 63,
    "DurationMs": 292,
    "Vel": 80
  },
  {
    "TimeMs": 211141,
    "Key": 75,
    "DurationMs": 146,
    "Vel": 80
  },
  {
    "TimeMs": 211304,
    "Key": 82,
    "DurationMs": 146,
    "Vel": 80
  },
  {
    "TimeMs": 211305,
    "Key": 66,
    "DurationMs": 292,
    "Vel": 80
  },
  {
    "TimeMs": 211306,
    "Key": 58,
    "DurationMs": 292,
    "Vel": 80
  },
  {
    "TimeMs": 211467,
    "Key": 70,
    "DurationMs": 146,
    "Vel": 80
  },
  {
    "TimeMs": 211630,
    "Key": 80,
    "DurationMs": 146,
    "Vel": 80
  },
  {
    "TimeMs": 211631,
    "Key": 65,
    "DurationMs": 292,
    "Vel": 80
  },
  {
    "TimeMs": 211632,
    "Key": 56,
    "DurationMs": 292,
    "Vel": 80
  },
  {
    "TimeMs": 211793,
    "Key": 70,
    "DurationMs": 146,
    "Vel": 80
  },
  {
    "TimeMs": 211956,
    "Key": 78,
    "DurationMs": 293,
    "Vel": 80
  },
  {
    "TimeMs": 211957,
    "Key": 63,
    "DurationMs": 585,
    "Vel": 80
  },
  {
    "TimeMs": 211958,
    "Key": 54,
    "DurationMs": 585,
    "Vel": 80
  },
  {
    "TimeMs": 212282,
    "Key": 75,
    "DurationMs": 146,
    "Vel": 80
  },
  {
    "TimeMs": 212445,
    "Key": 78,
    "DurationMs": 146,
    "Vel": 80
  },
  {
    "TimeMs": 212608,
    "Key": 80,
    "DurationMs": 146,
    "Vel": 80
  },
  {
    "TimeMs": 212609,
    "Key": 40,
    "DurationMs": 146,
    "Vel": 80
  },
  {
    "TimeMs": 212771,
    "Key": 71,
    "DurationMs": 146,
    "Vel": 80
  },
  {
    "TimeMs": 212772,
    "Key": 47,
    "DurationMs": 146,
    "Vel": 80
  },
  {
    "TimeMs": 212934,
    "Key": 78,
    "DurationMs": 146,
    "Vel": 80
  },
  {
    "TimeMs": 212935,
    "Key": 56,
    "DurationMs": 146,
    "Vel": 80
  },
  {
    "TimeMs": 213097,
    "Key": 71,
    "DurationMs": 146,
    "Vel": 80
  },
  {
    "TimeMs": 213098,
    "Key": 54,
    "DurationMs": 146,
    "Vel": 80
  },
  {
    "TimeMs": 213260,
    "Key": 80,
    "DurationMs": 146,
    "Vel": 80
  },
  {
    "TimeMs": 213261,
    "Key": 56,
    "DurationMs": 146,
    "Vel": 80
  },
  {
    "TimeMs": 213423,
    "Key": 71,
    "DurationMs": 146,
    "Vel": 80
  },
  {
    "TimeMs": 213424,
    "Key": 58,
    "DurationMs": 146,
    "Vel": 80
  },
  {
    "TimeMs": 213586,
    "Key": 83,
    "DurationMs": 146,
    "Vel": 80
  },
  {
    "TimeMs": 213588,
    "Key": 59,
    "DurationMs": 146,
    "Vel": 80
  },
  {
    "TimeMs": 213749,
    "Key": 71,
    "DurationMs": 146,
    "Vel": 80
  },
  {
    "TimeMs": 213751,
    "Key": 56,
    "DurationMs": 146,
    "Vel": 80
  },
  {
    "TimeMs": 213912,
    "Key": 78,
    "DurationMs": 146,
    "Vel": 80
  },
  {
    "TimeMs": 213914,
    "Key": 63,
    "DurationMs": 292,
    "Vel": 80
  },
  {
    "TimeMs": 213915,
    "Key": 59,
    "DurationMs": 292,
    "Vel": 80
  },
  {
    "TimeMs": 214075,
    "Key": 71,
    "DurationMs": 146,
    "Vel": 80
  },
  {
    "TimeMs": 214238,
    "Key": 76,
    "DurationMs": 146,
    "Vel": 80
  },
  {
    "TimeMs": 214240,
    "Key": 59,
    "DurationMs": 292,
    "Vel": 80
  },
  {
    "TimeMs": 214241,
    "Key": 54,
    "DurationMs": 292,
    "Vel": 80
  },
  {
    "TimeMs": 214401,
    "Key": 71,
    "DurationMs": 146,
    "Vel": 80
  },
  {
    "TimeMs": 214564,
    "Key": 75,
    "DurationMs": 293,
    "Vel": 80
  },
  {
    "TimeMs": 214566,
    "Key": 63,
    "DurationMs": 585,
    "Vel": 80
  },
  {
    "TimeMs": 214567,
    "Key": 54,
    "DurationMs": 585,
    "Vel": 80
  },
  {
    "TimeMs": 214891,
    "Key": 75,
    "DurationMs": 146,
    "Vel": 80
  },
  {
    "TimeMs": 215054,
    "Key": 78,
    "DurationMs": 146,
    "Vel": 80
  },
  {
    "TimeMs": 215217,
    "Key": 76,
    "DurationMs": 146,
    "Vel": 80
  },
  {
    "TimeMs": 215380,
    "Key": 68,
    "DurationMs": 146,
    "Vel": 80
  },
  {
    "TimeMs": 215543,
    "Key": 75,
    "DurationMs": 146,
    "Vel": 80
  },
  {
    "TimeMs": 215544,
    "Key": 66,
    "DurationMs": 146,
    "Vel": 80
  },
  {
    "TimeMs": 215706,
    "Key": 68,
    "DurationMs": 146,
    "Vel": 80
  },
  {
    "TimeMs": 215707,
    "Key": 64,
    "DurationMs": 146,
    "Vel": 80
  },
  {
    "TimeMs": 215869,
    "Key": 73,
    "DurationMs": 146,
    "Vel": 80
  },
  {
    "TimeMs": 215870,
    "Key": 63,
    "DurationMs": 146,
    "Vel": 80
  },
  {
    "TimeMs": 216032,
    "Key": 68,
    "DurationMs": 146,
    "Vel": 80
  },
  {
    "TimeMs": 216033,
    "Key": 61,
    "DurationMs": 146,
    "Vel": 80
  },
  {
    "TimeMs": 216195,
    "Key": 76,
    "DurationMs": 146,
    "Vel": 80
  },
  {
    "TimeMs": 216196,
    "Key": 59,
    "DurationMs": 292,
    "Vel": 80
  },
  {
    "TimeMs": 216358,
    "Key": 68,
    "DurationMs": 146,
    "Vel": 80
  },
  {
    "TimeMs": 216521,
    "Key": 75,
    "DurationMs": 146,
    "Vel": 80
  },
  {
    "TimeMs": 216684,
    "Key": 68,
    "DurationMs": 146,
    "Vel": 80
  },
  {
    "TimeMs": 216847,
    "Key": 73,
    "DurationMs": 146,
    "Vel": 80
  },
  {
    "TimeMs": 216848,
    "Key": 63,
    "DurationMs": 146,
    "Vel": 80
  },
  {
    "TimeMs": 217010,
    "Key": 68,
    "DurationMs": 146,
    "Vel": 80
  },
  {
    "TimeMs": 217011,
    "Key": 61,
    "DurationMs": 146,
    "Vel": 80
  },
  {
    "TimeMs": 217173,
    "Key": 71,
    "DurationMs": 146,
    "Vel": 80
  },
  {
    "TimeMs": 217174,
    "Key": 59,
    "DurationMs": 146,
    "Vel": 80
  },
  {
    "TimeMs": 217336,
    "Key": 68,
    "DurationMs": 146,
    "Vel": 80
  },
  {
    "TimeMs": 217338,
    "Key": 58,
    "DurationMs": 146,
    "Vel": 80
  },
  {
    "TimeMs": 217499,
    "Key": 75,
    "DurationMs": 146,
    "Vel": 80
  },
  {
    "TimeMs": 217501,
    "Key": 56,
    "DurationMs": 146,
    "Vel": 80
  },
  {
    "TimeMs": 217662,
    "Key": 68,
    "DurationMs": 146,
    "Vel": 80
  },
  {
    "TimeMs": 217664,
    "Key": 54,
    "DurationMs": 146,
    "Vel": 80
  },
  {
    "TimeMs": 217825,
    "Key": 73,
    "DurationMs": 146,
    "Vel": 80
  },
  {
    "TimeMs": 217827,
    "Key": 52,
    "DurationMs": 292,
    "Vel": 80
  },
  {
    "TimeMs": 217988,
    "Key": 64,
    "DurationMs": 146,
    "Vel": 80
  },
  {
    "TimeMs": 218151,
    "Key": 71,
    "DurationMs": 146,
    "Vel": 80
  },
  {
    "TimeMs": 218153,
    "Key": 52,
    "DurationMs": 146,
    "Vel": 80
  },
  {
    "TimeMs": 218314,
    "Key": 64,
    "DurationMs": 146,
    "Vel": 80
  },
  {
    "TimeMs": 218316,
    "Key": 54,
    "DurationMs": 146,
    "Vel": 80
  },
  {
    "TimeMs": 218477,
    "Key": 70,
    "DurationMs": 146,
    "Vel": 80
  },
  {
    "TimeMs": 218479,
    "Key": 56,
    "DurationMs": 146,
    "Vel": 80
  },
  {
    "TimeMs": 218640,
    "Key": 64,
    "DurationMs": 146,
    "Vel": 80
  },
  {
    "TimeMs": 218642,
    "Key": 58,
    "DurationMs": 146,
    "Vel": 80
  },
  {
    "TimeMs": 218804,
    "Key": 68,
    "DurationMs": 146,
    "Vel": 80
  },
  {
    "TimeMs": 218805,
    "Key": 59,
    "DurationMs": 146,
    "Vel": 80
  },
  {
    "TimeMs": 218967,
    "Key": 64,
    "DurationMs": 146,
    "Vel": 80
  },
  {
    "TimeMs": 218968,
    "Key": 64,
    "DurationMs": 145,
    "Vel": 80
  },
  {
    "TimeMs": 219130,
    "Key": 67,
    "DurationMs": 146,
    "Vel": 80
  },
  {
    "TimeMs": 219131,
    "Key": 61,
    "DurationMs": 292,
    "Vel": 80
  },
  {
    "TimeMs": 219132,
    "Key": 49,
    "DurationMs": 292,
    "Vel": 80
  },
  {
    "TimeMs": 219293,
    "Key": 63,
    "DurationMs": 146,
    "Vel": 80
  },
  {
    "TimeMs": 219456,
    "Key": 68,
    "DurationMs": 146,
    "Vel": 80
  },
  {
    "TimeMs": 219457,
    "Key": 59,
    "DurationMs": 292,
    "Vel": 80
  },
  {
    "TimeMs": 219458,
    "Key": 47,
    "DurationMs": 292,
    "Vel": 80
  },
  {
    "TimeMs": 219619,
    "Key": 63,
    "DurationMs": 146,
    "Vel": 80
  },
  {
    "TimeMs": 219782,
    "Key": 70,
    "DurationMs": 293,
    "Vel": 80
  },
  {
    "TimeMs": 219783,
    "Key": 58,
    "DurationMs": 585,
    "Vel": 80
  },
  {
    "TimeMs": 219785,
    "Key": 46,
    "DurationMs": 585,
    "Vel": 80
  },
  {
    "TimeMs": 220108,
    "Key": 63,
    "DurationMs": 293,
    "Vel": 80
  },
  {
    "TimeMs": 220434,
    "Key": 71,
    "DurationMs": 146,
    "Vel": 80
  },
  {
    "TimeMs": 220597,
    "Key": 63,
    "DurationMs": 146,
    "Vel": 80
  },
  {
    "TimeMs": 220760,
    "Key": 70,
    "DurationMs": 146,
    "Vel": 80
  },
  {
    "TimeMs": 220761,
    "Key": 51,
    "DurationMs": 146,
    "Vel": 80
  },
  {
    "TimeMs": 220923,
    "Key": 63,
    "DurationMs": 146,
    "Vel": 80
  },
  {
    "TimeMs": 220924,
    "Key": 51,
    "DurationMs": 146,
    "Vel": 80
  },
  {
    "TimeMs": 221086,
    "Key": 71,
    "DurationMs": 146,
    "Vel": 80
  },
  {
    "TimeMs": 221088,
    "Key": 47,
    "DurationMs": 292,
    "Vel": 80
  },
  {
    "TimeMs": 221249,
    "Key": 63,
    "DurationMs": 146,
    "Vel": 80
  },
  {
    "TimeMs": 221412,
    "Key": 73,
    "DurationMs": 146,
    "Vel": 80
  },
  {
    "TimeMs": 221414,
    "Key": 44,
    "DurationMs": 292,
    "Vel": 80
  },
  {
    "TimeMs": 221575,
    "Key": 63,
    "DurationMs": 146,
    "Vel": 80
  },
  {
    "TimeMs": 221738,
    "Key": 70,
    "DurationMs": 146,
    "Vel": 80
  },
  {
    "TimeMs": 221740,
    "Key": 42,
    "DurationMs": 292,
    "Vel": 80
  },
  {
    "TimeMs": 221901,
    "Key": 58,
    "DurationMs": 146,
    "Vel": 80
  },
  {
    "TimeMs": 222064,
    "Key": 68,
    "DurationMs": 146,
    "Vel": 80
  },
  {
    "TimeMs": 222066,
    "Key": 44,
    "DurationMs": 292,
    "Vel": 80
  },
  {
    "TimeMs": 222227,
    "Key": 58,
    "DurationMs": 146,
    "Vel": 80
  },
  {
    "TimeMs": 222390,
    "Key": 66,
    "DurationMs": 293,
    "Vel": 80
  },
  {
    "TimeMs": 222392,
    "Key": 46,
    "DurationMs": 585,
    "Vel": 80
  },
  {
    "TimeMs": 222717,
    "Key": 63,
    "DurationMs": 146,
    "Vel": 80
  },
  {
    "TimeMs": 222880,
    "Key": 66,
    "DurationMs": 146,
    "Vel": 80
  },
  {
    "TimeMs": 223043,
    "Key": 68,
    "DurationMs": 146,
    "Vel": 80
  },
  {
    "TimeMs": 223044,
    "Key": 40,
    "DurationMs": 146,
    "Vel": 80
  },
  {
    "TimeMs": 223206,
    "Key": 59,
    "DurationMs": 146,
    "Vel": 80
  },
  {
    "TimeMs": 223207,
    "Key": 47,
    "DurationMs": 146,
    "Vel": 80
  },
  {
    "TimeMs": 223369,
    "Key": 68,
    "DurationMs": 146,
    "Vel": 80
  },
  {
    "TimeMs": 223370,
    "Key": 52,
    "DurationMs": 146,
    "Vel": 80
  },
  {
    "TimeMs": 223532,
    "Key": 66,
    "DurationMs": 146,
    "Vel": 80
  },
  {
    "TimeMs": 223533,
    "Key": 47,
    "DurationMs": 146,
    "Vel": 80
  },
  {
    "TimeMs": 223695,
    "Key": 68,
    "DurationMs": 146,
    "Vel": 80
  },
  {
    "TimeMs": 223696,
    "Key": 52,
    "DurationMs": 146,
    "Vel": 80
  },
  {
    "TimeMs": 223858,
    "Key": 70,
    "DurationMs": 146,
    "Vel": 80
  },
  {
    "TimeMs": 223859,
    "Key": 47,
    "DurationMs": 146,
    "Vel": 80
  },
  {
    "TimeMs": 224021,
    "Key": 71,
    "DurationMs": 146,
    "Vel": 80
  },
  {
    "TimeMs": 224022,
    "Key": 52,
    "DurationMs": 146,
    "Vel": 80
  },
  {
    "TimeMs": 224184,
    "Key": 68,
    "DurationMs": 146,
    "Vel": 80
  },
  {
    "TimeMs": 224185,
    "Key": 54,
    "DurationMs": 146,
    "Vel": 80
  },
  {
    "TimeMs": 224347,
    "Key": 66,
    "DurationMs": 146,
    "Vel": 80
  },
  {
    "TimeMs": 224348,
    "Key": 42,
    "DurationMs": 146,
    "Vel": 80
  },
  {
    "TimeMs": 224510,
    "Key": 59,
    "DurationMs": 146,
    "Vel": 80
  },
  {
    "TimeMs": 224511,
    "Key": 47,
    "DurationMs": 146,
    "Vel": 80
  },
  {
    "TimeMs": 224673,
    "Key": 64,
    "DurationMs": 146,
    "Vel": 80
  },
  {
    "TimeMs": 224674,
    "Key": 52,
    "DurationMs": 146,
    "Vel": 80
  },
  {
    "TimeMs": 224836,
    "Key": 59,
    "DurationMs": 146,
    "Vel": 80
  },
  {
    "TimeMs": 224838,
    "Key": 47,
    "DurationMs": 146,
    "Vel": 80
  },
  {
    "TimeMs": 224999,
    "Key": 63,
    "DurationMs": 293,
    "Vel": 80
  },
  {
    "TimeMs": 225001,
    "Key": 51,
    "DurationMs": 293,
    "Vel": 80
  },
  {
    "TimeMs": 225325,
    "Key": 63,
    "DurationMs": 146,
    "Vel": 80
  },
  {
    "TimeMs": 225327,
    "Key": 47,
    "DurationMs": 292,
    "Vel": 80
  },
  {
    "TimeMs": 225488,
    "Key": 66,
    "DurationMs": 146,
    "Vel": 80
  },
  {
    "TimeMs": 225651,
    "Key": 64,
    "DurationMs": 293,
    "Vel": 80
  },
  {
    "TimeMs": 225653,
    "Key": 49,
    "DurationMs": 293,
    "Vel": 80
  },
  {
    "TimeMs": 225977,
    "Key": 76,
    "DurationMs": 146,
    "Vel": 80
  },
  {
    "TimeMs": 225979,
    "Key": 49,
    "DurationMs": 146,
    "Vel": 80
  },
  {
    "TimeMs": 226140,
    "Key": 75,
    "DurationMs": 146,
    "Vel": 80
  },
  {
    "TimeMs": 226142,
    "Key": 56,
    "DurationMs": 146,
    "Vel": 80
  },
  {
    "TimeMs": 226304,
    "Key": 73,
    "DurationMs": 146,
    "Vel": 80
  },
  {
    "TimeMs": 226305,
    "Key": 63,
    "DurationMs": 292,
    "Vel": 80
  },
  {
    "TimeMs": 226467,
    "Key": 71,
    "DurationMs": 146,
    "Vel": 80
  },
  {
    "TimeMs": 226630,
    "Key": 70,
    "DurationMs": 146,
    "Vel": 80
  },
  {
    "TimeMs": 226631,
    "Key": 64,
    "DurationMs": 292,
    "Vel": 80
  },
  {
    "TimeMs": 226956,
    "Key": 75,
    "DurationMs": 146,
    "Vel": 80
  },
  {
    "TimeMs": 226957,
    "Key": 56,
    "DurationMs": 146,
    "Vel": 80
  },
  {
    "TimeMs": 227119,
    "Key": 73,
    "DurationMs": 146,
    "Vel": 80
  },
  {
    "TimeMs": 227120,
    "Key": 51,
    "DurationMs": 146,
    "Vel": 80
  },
  {
    "TimeMs": 227282,
    "Key": 75,
    "DurationMs": 146,
    "Vel": 80
  },
  {
    "TimeMs": 227283,
    "Key": 56,
    "DurationMs": 146,
    "Vel": 80
  },
  {
    "TimeMs": 227445,
    "Key": 76,
    "DurationMs": 146,
    "Vel": 80
  },
  {
    "TimeMs": 227446,
    "Key": 58,
    "DurationMs": 146,
    "Vel": 80
  },
  {
    "TimeMs": 227608,
    "Key": 75,
    "DurationMs": 146,
    "Vel": 80
  },
  {
    "TimeMs": 227609,
    "Key": 59,
    "DurationMs": 292,
    "Vel": 80
  },
  {
    "TimeMs": 227771,
    "Key": 73,
    "DurationMs": 146,
    "Vel": 80
  },
  {
    "TimeMs": 227934,
    "Key": 71,
    "DurationMs": 146,
    "Vel": 80
  },
  {
    "TimeMs": 227935,
    "Key": 63,
    "DurationMs": 292,
    "Vel": 80
  },
  {
    "TimeMs": 228097,
    "Key": 70,
    "DurationMs": 146,
    "Vel": 80
  },
  {
    "TimeMs": 228260,
    "Key": 68,
    "DurationMs": 293,
    "Vel": 80
  },
  {
    "TimeMs": 228261,
    "Key": 61,
    "DurationMs": 293,
    "Vel": 80
  },
  {
    "TimeMs": 228586,
    "Key": 75,
    "DurationMs": 293,
    "Vel": 80
  },
  {
    "TimeMs": 228587,
    "Key": 59,
    "DurationMs": 293,
    "Vel": 80
  },
  {
    "TimeMs": 228912,
    "Key": 67,
    "DurationMs": 293,
    "Vel": 80
  },
  {
    "TimeMs": 228914,
    "Key": 58,
    "DurationMs": 438,
    "Vel": 80
  },
  {
    "TimeMs": 229238,
    "Key": 75,
    "DurationMs": 293,
    "Vel": 80
  },
  {
    "TimeMs": 229401,
    "Key": 56,
    "DurationMs": 146,
    "Vel": 80
  },
  {
    "TimeMs": 229564,
    "Key": 68,
    "DurationMs": 1173,
    "Vel": 80
  },
  {
    "TimeMs": 229566,
    "Key": 44,
    "DurationMs": 292,
    "Vel": 80
  },
  {
    "TimeMs": 229890,
    "Key": 51,
    "DurationMs": 293,
    "Vel": 80
  },
  {
    "TimeMs": 230217,
    "Key": 56,
    "DurationMs": 586,
    "Vel": 80
  },
  {
    "TimeMs": 230869,
    "Key": 71,
    "DurationMs": 146,
    "Vel": 80
  },
  {
    "TimeMs": 230870,
    "Key": 56,
    "DurationMs": 292,
    "Vel": 80
  },
  {
    "TimeMs": 231032,
    "Key": 63,
    "DurationMs": 146,
    "Vel": 80
  },
  {
    "TimeMs": 231195,
    "Key": 70,
    "DurationMs": 146,
    "Vel": 80
  },
  {
    "TimeMs": 231196,
    "Key": 63,
    "DurationMs": 292,
    "Vel": 80
  },
  {
    "TimeMs": 231198,
    "Key": 59,
    "DurationMs": 292,
    "Vel": 80
  },
  {
    "TimeMs": 231358,
    "Key": 63,
    "DurationMs": 130,
    "Vel": 80
  },
  {
    "TimeMs": 231521,
    "Key": 71,
    "DurationMs": 146,
    "Vel": 80
  },
  {
    "TimeMs": 231522,
    "Key": 61,
    "DurationMs": 292,
    "Vel": 80
  },
  {
    "TimeMs": 231684,
    "Key": 63,
    "DurationMs": 146,
    "Vel": 80
  },
  {
    "TimeMs": 231847,
    "Key": 73,
    "DurationMs": 146,
    "Vel": 80
  },
  {
    "TimeMs": 231848,
    "Key": 66,
    "DurationMs": 292,
    "Vel": 80
  },
  {
    "TimeMs": 231850,
    "Key": 63,
    "DurationMs": 292,
    "Vel": 80
  },
  {
    "TimeMs": 232010,
    "Key": 63,
    "DurationMs": 131,
    "Vel": 80
  },
  {
    "TimeMs": 232173,
    "Key": 70,
    "DurationMs": 146,
    "Vel": 80
  },
  {
    "TimeMs": 232174,
    "Key": 66,
    "DurationMs": 292,
    "Vel": 80
  },
  {
    "TimeMs": 232176,
    "Key": 58,
    "DurationMs": 292,
    "Vel": 80
  },
  {
    "TimeMs": 232336,
    "Key": 58,
    "DurationMs": 131,
    "Vel": 80
  },
  {
    "TimeMs": 232499,
    "Key": 75,
    "DurationMs": 146,
    "Vel": 80
  },
  {
    "TimeMs": 232501,
    "Key": 65,
    "DurationMs": 292,
    "Vel": 80
  },
  {
    "TimeMs": 232502,
    "Key": 56,
    "DurationMs": 292,
    "Vel": 80
  },
  {
    "TimeMs": 232662,
    "Key": 58,
    "DurationMs": 146,
    "Vel": 80
  },
  {
    "TimeMs": 232825,
    "Key": 66,
    "DurationMs": 293,
    "Vel": 80
  },
  {
    "TimeMs": 232827,
    "Key": 63,
    "DurationMs": 471,
    "Vel": 80
  },
  {
    "TimeMs": 232828,
    "Key": 54,
    "DurationMs": 585,
    "Vel": 80
  },
  {
    "TimeMs": 233151,
    "Key": 63,
    "DurationMs": 146,
    "Vel": 80
  },
  {
    "TimeMs": 233314,
    "Key": 66,
    "DurationMs": 146,
    "Vel": 80
  },
  {
    "TimeMs": 233477,
    "Key": 68,
    "DurationMs": 146,
    "Vel": 80
  },
  {
    "TimeMs": 233479,
    "Key": 40,
    "DurationMs": 146,
    "Vel": 80
  },
  {
    "TimeMs": 233640,
    "Key": 59,
    "DurationMs": 146,
    "Vel": 80
  },
  {
    "TimeMs": 233642,
    "Key": 47,
    "DurationMs": 146,
    "Vel": 80
  },
  {
    "TimeMs": 233804,
    "Key": 68,
    "DurationMs": 146,
    "Vel": 80
  },
  {
    "TimeMs": 233805,
    "Key": 54,
    "DurationMs": 146,
    "Vel": 80
  },
  {
    "TimeMs": 233967,
    "Key": 66,
    "DurationMs": 146,
    "Vel": 80
  },
  {
    "TimeMs": 233968,
    "Key": 52,
    "DurationMs": 146,
    "Vel": 80
  },
  {
    "TimeMs": 234130,
    "Key": 68,
    "DurationMs": 146,
    "Vel": 80
  },
  {
    "TimeMs": 234131,
    "Key": 54,
    "DurationMs": 146,
    "Vel": 80
  },
  {
    "TimeMs": 234293,
    "Key": 70,
    "DurationMs": 146,
    "Vel": 80
  },
  {
    "TimeMs": 234294,
    "Key": 56,
    "DurationMs": 146,
    "Vel": 80
  },
  {
    "TimeMs": 234456,
    "Key": 71,
    "DurationMs": 146,
    "Vel": 80
  },
  {
    "TimeMs": 234457,
    "Key": 59,
    "DurationMs": 146,
    "Vel": 80
  },
  {
    "TimeMs": 234619,
    "Key": 68,
    "DurationMs": 146,
    "Vel": 80
  },
  {
    "TimeMs": 234620,
    "Key": 56,
    "DurationMs": 146,
    "Vel": 80
  },
  {
    "TimeMs": 234782,
    "Key": 66,
    "DurationMs": 146,
    "Vel": 80
  },
  {
    "TimeMs": 234783,
    "Key": 39,
    "DurationMs": 146,
    "Vel": 80
  },
  {
    "TimeMs": 234945,
    "Key": 59,
    "DurationMs": 146,
    "Vel": 80
  },
  {
    "TimeMs": 234946,
    "Key": 47,
    "DurationMs": 146,
    "Vel": 80
  },
  {
    "TimeMs": 235108,
    "Key": 64,
    "DurationMs": 146,
    "Vel": 80
  },
  {
    "TimeMs": 235109,
    "Key": 51,
    "DurationMs": 146,
    "Vel": 80
  },
  {
    "TimeMs": 235271,
    "Key": 59,
    "DurationMs": 146,
    "Vel": 80
  },
  {
    "TimeMs": 235272,
    "Key": 47,
    "DurationMs": 146,
    "Vel": 80
  },
  {
    "TimeMs": 235434,
    "Key": 63,
    "DurationMs": 293,
    "Vel": 80
  },
  {
    "TimeMs": 235435,
    "Key": 51,
    "DurationMs": 585,
    "Vel": 80
  },
  {
    "TimeMs": 235760,
    "Key": 63,
    "DurationMs": 146,
    "Vel": 80
  },
  {
    "TimeMs": 235923,
    "Key": 66,
    "DurationMs": 146,
    "Vel": 80
  },
  {
    "TimeMs": 236086,
    "Key": 64,
    "DurationMs": 293,
    "Vel": 80
  },
  {
    "TimeMs": 236087,
    "Key": 37,
    "DurationMs": 293,
    "Vel": 80
  },
  {
    "TimeMs": 236412,
    "Key": 76,
    "DurationMs": 146,
    "Vel": 80
  },
  {
    "TimeMs": 236414,
    "Key": 44,
    "DurationMs": 292,
    "Vel": 80
  },
  {
    "TimeMs": 236575,
    "Key": 75,
    "DurationMs": 146,
    "Vel": 80
  },
  {
    "TimeMs": 236738,
    "Key": 73,
    "DurationMs": 146,
    "Vel": 80
  },
  {
    "TimeMs": 236740,
    "Key": 49,
    "DurationMs": 292,
    "Vel": 80
  },
  {
    "TimeMs": 236901,
    "Key": 71,
    "DurationMs": 146,
    "Vel": 80
  },
  {
    "TimeMs": 237064,
    "Key": 70,
    "DurationMs": 146,
    "Vel": 80
  },
  {
    "TimeMs": 237066,
    "Key": 51,
    "DurationMs": 292,
    "Vel": 80
  },
  {
    "TimeMs": 237390,
    "Key": 39,
    "DurationMs": 293,
    "Vel": 80
  },
  {
    "TimeMs": 237717,
    "Key": 75,
    "DurationMs": 146,
    "Vel": 80
  },
  {
    "TimeMs": 237718,
    "Key": 44,
    "DurationMs": 292,
    "Vel": 80
  },
  {
    "TimeMs": 237880,
    "Key": 73,
    "DurationMs": 146,
    "Vel": 80
  },
  {
    "TimeMs": 238043,
    "Key": 71,
    "DurationMs": 146,
    "Vel": 80
  },
  {
    "TimeMs": 238044,
    "Key": 47,
    "DurationMs": 292,
    "Vel": 80
  },
  {
    "TimeMs": 238206,
    "Key": 70,
    "DurationMs": 146,
    "Vel": 80
  },
  {
    "TimeMs": 238369,
    "Key": 68,
    "DurationMs": 293,
    "Vel": 80
  },
  {
    "TimeMs": 238370,
    "Key": 51,
    "DurationMs": 293,
    "Vel": 80
  },
  {
    "TimeMs": 238695,
    "Key": 40,
    "DurationMs": 1173,
    "Vel": 80
  },
  {
    "TimeMs": 238696,
    "Key": 52,
    "DurationMs": 1173,
    "Vel": 80
  },
  {
    "TimeMs": 239021,
    "Key": 88,
    "DurationMs": 146,
    "Vel": 80
  },
  {
    "TimeMs": 239184,
    "Key": 87,
    "DurationMs": 146,
    "Vel": 80
  },
  {
    "TimeMs": 239347,
    "Key": 85,
    "DurationMs": 146,
    "Vel": 80
  },
  {
    "TimeMs": 239510,
    "Key": 83,
    "DurationMs": 146,
    "Vel": 80
  },
  {
    "TimeMs": 239673,
    "Key": 82,
    "DurationMs": 146,
    "Vel": 80
  },
  {
    "TimeMs": 239836,
    "Key": 80,
    "DurationMs": 146,
    "Vel": 80
  },
  {
    "TimeMs": 239999,
    "Key": 79,
    "DurationMs": 146,
    "Vel": 80
  },
  {
    "TimeMs": 240001,
    "Key": 39,
    "DurationMs": 292,
    "Vel": 80
  },
  {
    "TimeMs": 240002,
    "Key": 51,
    "DurationMs": 292,
    "Vel": 80
  },
  {
    "TimeMs": 240162,
    "Key": 76,
    "DurationMs": 146,
    "Vel": 80
  },
  {
    "TimeMs": 240325,
    "Key": 75,
    "DurationMs": 146,
    "Vel": 80
  },
  {
    "TimeMs": 240327,
    "Key": 41,
    "DurationMs": 292,
    "Vel": 80
  },
  {
    "TimeMs": 240328,
    "Key": 53,
    "DurationMs": 292,
    "Vel": 80
  },
  {
    "TimeMs": 240488,
    "Key": 73,
    "DurationMs": 146,
    "Vel": 80
  },
  {
    "TimeMs": 240651,
    "Key": 71,
    "DurationMs": 146,
    "Vel": 80
  },
  {
    "TimeMs": 240653,
    "Key": 43,
    "DurationMs": 585,
    "Vel": 80
  },
  {
    "TimeMs": 240654,
    "Key": 55,
    "DurationMs": 585,
    "Vel": 80
  },
  {
    "TimeMs": 240814,
    "Key": 70,
    "DurationMs": 146,
    "Vel": 80
  },
  {
    "TimeMs": 240977,
    "Key": 68,
    "DurationMs": 146,
    "Vel": 80
  },
  {
    "TimeMs": 241140,
    "Key": 67,
    "DurationMs": 146,
    "Vel": 80
  },
  {
    "TimeMs": 241304,
    "Key": 71,
    "DurationMs": 146,
    "Vel": 80
  },
  {
    "TimeMs": 241305,
    "Key": 56,
    "DurationMs": 292,
    "Vel": 80
  },
  {
    "TimeMs": 241467,
    "Key": 63,
    "DurationMs": 146,
    "Vel": 80
  },
  {
    "TimeMs": 241630,
    "Key": 70,
    "DurationMs": 146,
    "Vel": 80
  },
  {
    "TimeMs": 241631,
    "Key": 63,
    "DurationMs": 292,
    "Vel": 80
  },
  {
    "TimeMs": 241632,
    "Key": 59,
    "DurationMs": 292,
    "Vel": 80
  },
  {
    "TimeMs": 241793,
    "Key": 63,
    "DurationMs": 130,
    "Vel": 80
  },
  {
    "TimeMs": 241956,
    "Key": 71,
    "DurationMs": 146,
    "Vel": 80
  },
  {
    "TimeMs": 241957,
    "Key": 61,
    "DurationMs": 292,
    "Vel": 80
  },
  {
    "TimeMs": 242119,
    "Key": 63,
    "DurationMs": 146,
    "Vel": 80
  },
  {
    "TimeMs": 242282,
    "Key": 73,
    "DurationMs": 146,
    "Vel": 80
  },
  {
    "TimeMs": 242283,
    "Key": 66,
    "DurationMs": 292,
    "Vel": 80
  },
  {
    "TimeMs": 242284,
    "Key": 63,
    "DurationMs": 292,
    "Vel": 80
  },
  {
    "TimeMs": 242445,
    "Key": 63,
    "DurationMs": 131,
    "Vel": 80
  },
  {
    "TimeMs": 242608,
    "Key": 70,
    "DurationMs": 146,
    "Vel": 80
  },
  {
    "TimeMs": 242609,
    "Key": 66,
    "DurationMs": 292,
    "Vel": 80
  },
  {
    "TimeMs": 242611,
    "Key": 58,
    "DurationMs": 292,
    "Vel": 80
  },
  {
    "TimeMs": 242771,
    "Key": 58,
    "DurationMs": 131,
    "Vel": 80
  },
  {
    "TimeMs": 242934,
    "Key": 75,
    "DurationMs": 146,
    "Vel": 80
  },
  {
    "TimeMs": 242935,
    "Key": 65,
    "DurationMs": 292,
    "Vel": 80
  },
  {
    "TimeMs": 242937,
    "Key": 56,
    "DurationMs": 292,
    "Vel": 80
  },
  {
    "TimeMs": 243097,
    "Key": 58,
    "DurationMs": 146,
    "Vel": 80
  },
  {
    "TimeMs": 243260,
    "Key": 66,
    "DurationMs": 293,
    "Vel": 80
  },
  {
    "TimeMs": 243261,
    "Key": 63,
    "DurationMs": 471,
    "Vel": 80
  },
  {
    "TimeMs": 243263,
    "Key": 54,
    "DurationMs": 585,
    "Vel": 80
  },
  {
    "TimeMs": 243586,
    "Key": 63,
    "DurationMs": 146,
    "Vel": 80
  },
  {
    "TimeMs": 243749,
    "Key": 66,
    "DurationMs": 146,
    "Vel": 80
  },
  {
    "TimeMs": 243912,
    "Key": 68,
    "DurationMs": 146,
    "Vel": 80
  },
  {
    "TimeMs": 243914,
    "Key": 40,
    "DurationMs": 146,
    "Vel": 80
  },
  {
    "TimeMs": 244075,
    "Key": 59,
    "DurationMs": 146,
    "Vel": 80
  },
  {
    "TimeMs": 244077,
    "Key": 47,
    "DurationMs": 146,
    "Vel": 80
  },
  {
    "TimeMs": 244238,
    "Key": 68,
    "DurationMs": 146,
    "Vel": 80
  },
  {
    "TimeMs": 244240,
    "Key": 54,
    "DurationMs": 146,
    "Vel": 80
  },
  {
    "TimeMs": 244401,
    "Key": 66,
    "DurationMs": 146,
    "Vel": 80
  },
  {
    "TimeMs": 244403,
    "Key": 52,
    "DurationMs": 146,
    "Vel": 80
  },
  {
    "TimeMs": 244564,
    "Key": 68,
    "DurationMs": 146,
    "Vel": 80
  },
  {
    "TimeMs": 244566,
    "Key": 54,
    "DurationMs": 146,
    "Vel": 80
  },
  {
    "TimeMs": 244727,
    "Key": 70,
    "DurationMs": 146,
    "Vel": 80
  },
  {
    "TimeMs": 244729,
    "Key": 56,
    "DurationMs": 146,
    "Vel": 80
  },
  {
    "TimeMs": 244890,
    "Key": 71,
    "DurationMs": 146,
    "Vel": 80
  },
  {
    "TimeMs": 244892,
    "Key": 59,
    "DurationMs": 146,
    "Vel": 80
  },
  {
    "TimeMs": 245054,
    "Key": 68,
    "DurationMs": 146,
    "Vel": 80
  },
  {
    "TimeMs": 245055,
    "Key": 56,
    "DurationMs": 146,
    "Vel": 80
  },
  {
    "TimeMs": 245217,
    "Key": 66,
    "DurationMs": 146,
    "Vel": 80
  },
  {
    "TimeMs": 245218,
    "Key": 39,
    "DurationMs": 146,
    "Vel": 80
  },
  {
    "TimeMs": 245380,
    "Key": 59,
    "DurationMs": 146,
    "Vel": 80
  },
  {
    "TimeMs": 245381,
    "Key": 47,
    "DurationMs": 146,
    "Vel": 80
  },
  {
    "TimeMs": 245543,
    "Key": 64,
    "DurationMs": 146,
    "Vel": 80
  },
  {
    "TimeMs": 245544,
    "Key": 51,
    "DurationMs": 146,
    "Vel": 80
  },
  {
    "TimeMs": 245706,
    "Key": 59,
    "DurationMs": 146,
    "Vel": 80
  },
  {
    "TimeMs": 245707,
    "Key": 47,
    "DurationMs": 146,
    "Vel": 80
  },
  {
    "TimeMs": 245869,
    "Key": 63,
    "DurationMs": 293,
    "Vel": 80
  },
  {
    "TimeMs": 245870,
    "Key": 51,
    "DurationMs": 585,
    "Vel": 80
  },
  {
    "TimeMs": 246195,
    "Key": 63,
    "DurationMs": 146,
    "Vel": 80
  },
  {
    "TimeMs": 246358,
    "Key": 66,
    "DurationMs": 146,
    "Vel": 80
  },
  {
    "TimeMs": 246521,
    "Key": 64,
    "DurationMs": 293,
    "Vel": 80
  },
  {
    "TimeMs": 246522,
    "Key": 37,
    "DurationMs": 293,
    "Vel": 80
  },
  {
    "TimeMs": 246847,
    "Key": 76,
    "DurationMs": 146,
    "Vel": 80
  },
  {
    "TimeMs": 246848,
    "Key": 44,
    "DurationMs": 292,
    "Vel": 80
  },
  {
    "TimeMs": 247010,
    "Key": 75,
    "DurationMs": 146,
    "Vel": 80
  },
  {
    "TimeMs": 247173,
    "Key": 73,
    "DurationMs": 146,
    "Vel": 80
  },
  {
    "TimeMs": 247174,
    "Key": 49,
    "DurationMs": 292,
    "Vel": 80
  },
  {
    "TimeMs": 247336,
    "Key": 71,
    "DurationMs": 146,
    "Vel": 80
  },
  {
    "TimeMs": 247499,
    "Key": 70,
    "DurationMs": 146,
    "Vel": 80
  },
  {
    "TimeMs": 247501,
    "Key": 51,
    "DurationMs": 292,
    "Vel": 80
  },
  {
    "TimeMs": 247825,
    "Key": 75,
    "DurationMs": 146,
    "Vel": 80
  },
  {
    "TimeMs": 247827,
    "Key": 56,
    "DurationMs": 146,
    "Vel": 80
  },
  {
    "TimeMs": 247988,
    "Key": 51,
    "DurationMs": 146,
    "Vel": 80
  },
  {
    "TimeMs": 248151,
    "Key": 73,
    "DurationMs": 146,
    "Vel": 80
  },
  {
    "TimeMs": 248153,
    "Key": 56,
    "DurationMs": 146,
    "Vel": 80
  },
  {
    "TimeMs": 248314,
    "Key": 76,
    "DurationMs": 146,
    "Vel": 80
  },
  {
    "TimeMs": 248316,
    "Key": 58,
    "DurationMs": 146,
    "Vel": 80
  },
  {
    "TimeMs": 248477,
    "Key": 75,
    "DurationMs": 146,
    "Vel": 80
  },
  {
    "TimeMs": 248479,
    "Key": 59,
    "DurationMs": 292,
    "Vel": 80
  },
  {
    "TimeMs": 248640,
    "Key": 73,
    "DurationMs": 146,
    "Vel": 80
  },
  {
    "TimeMs": 248803,
    "Key": 71,
    "DurationMs": 146,
    "Vel": 80
  },
  {
    "TimeMs": 248805,
    "Key": 63,
    "DurationMs": 292,
    "Vel": 80
  },
  {
    "TimeMs": 248967,
    "Key": 70,
    "DurationMs": 146,
    "Vel": 80
  },
  {
    "TimeMs": 249130,
    "Key": 68,
    "DurationMs": 293,
    "Vel": 80
  },
  {
    "TimeMs": 249131,
    "Key": 61,
    "DurationMs": 293,
    "Vel": 80
  },
  {
    "TimeMs": 249456,
    "Key": 75,
    "DurationMs": 293,
    "Vel": 80
  },
  {
    "TimeMs": 249457,
    "Key": 59,
    "DurationMs": 293,
    "Vel": 80
  },
  {
    "TimeMs": 249782,
    "Key": 67,
    "DurationMs": 293,
    "Vel": 80
  },
  {
    "TimeMs": 249783,
    "Key": 58,
    "DurationMs": 438,
    "Vel": 80
  },
  {
    "TimeMs": 250108,
    "Key": 75,
    "DurationMs": 293,
    "Vel": 80
  },
  {
    "TimeMs": 250271,
    "Key": 56,
    "DurationMs": 146,
    "Vel": 80
  },
  {
    "TimeMs": 250434,
    "Key": 68,
    "DurationMs": 1173,
    "Vel": 80
  },
  {
    "TimeMs": 250435,
    "Key": 44,
    "DurationMs": 292,
    "Vel": 80
  },
  {
    "TimeMs": 250760,
    "Key": 51,
    "DurationMs": 293,
    "Vel": 80
  },
  {
    "TimeMs": 251086,
    "Key": 56,
    "DurationMs": 586,
    "Vel": 80
  },
  {
    "TimeMs": 251738,
    "Key": 75,
    "DurationMs": 293,
    "Vel": 80
  },
  {
    "TimeMs": 251740,
    "Key": 52,
    "DurationMs": 293,
    "Vel": 80
  },
  {
    "TimeMs": 252064,
    "Key": 73,
    "DurationMs": 293,
    "Vel": 80
  },
  {
    "TimeMs": 252066,
    "Key": 59,
    "DurationMs": 293,
    "Vel": 80
  },
  {
    "TimeMs": 252390,
    "Key": 80,
    "DurationMs": 293,
    "Vel": 80
  },
  {
    "TimeMs": 252392,
    "Key": 64,
    "DurationMs": 293,
    "Vel": 80
  },
  {
    "TimeMs": 252717,
    "Key": 73,
    "DurationMs": 293,
    "Vel": 80
  },
  {
    "TimeMs": 252718,
    "Key": 66,
    "DurationMs": 293,
    "Vel": 80
  },
  {
    "TimeMs": 253043,
    "Key": 75,
    "DurationMs": 293,
    "Vel": 80
  },
  {
    "TimeMs": 253044,
    "Key": 68,
    "DurationMs": 944,
    "Vel": 80
  },
  {
    "TimeMs": 253369,
    "Key": 73,
    "DurationMs": 293,
    "Vel": 80
  },
  {
    "TimeMs": 253695,
    "Key": 68,
    "DurationMs": 293,
    "Vel": 80
  },
  {
    "TimeMs": 254021,
    "Key": 73,
    "DurationMs": 293,
    "Vel": 80
  },
  {
    "TimeMs": 254347,
    "Key": 75,
    "DurationMs": 293,
    "Vel": 80
  },
  {
    "TimeMs": 254348,
    "Key": 54,
    "DurationMs": 293,
    "Vel": 80
  },
  {
    "TimeMs": 254673,
    "Key": 73,
    "DurationMs": 293,
    "Vel": 80
  },
  {
    "TimeMs": 254674,
    "Key": 61,
    "DurationMs": 293,
    "Vel": 80
  },
  {
    "TimeMs": 254999,
    "Key": 80,
    "DurationMs": 293,
    "Vel": 80
  },
  {
    "TimeMs": 255001,
    "Key": 66,
    "DurationMs": 293,
    "Vel": 80
  },
  {
    "TimeMs": 255325,
    "Key": 73,
    "DurationMs": 293,
    "Vel": 80
  },
  {
    "TimeMs": 255327,
    "Key": 68,
    "DurationMs": 293,
    "Vel": 80
  },
  {
    "TimeMs": 255651,
    "Key": 75,
    "DurationMs": 293,
    "Vel": 80
  },
  {
    "TimeMs": 255653,
    "Key": 70,
    "DurationMs": 1172,
    "Vel": 80
  },
  {
    "TimeMs": 255977,
    "Key": 73,
    "DurationMs": 293,
    "Vel": 80
  },
  {
    "TimeMs": 256303,
    "Key": 68,
    "DurationMs": 293,
    "Vel": 80
  },
  {
    "TimeMs": 256630,
    "Key": 73,
    "DurationMs": 293,
    "Vel": 80
  },
  {
    "TimeMs": 256956,
    "Key": 56,
    "DurationMs": 293,
    "Vel": 80
  },
  {
    "TimeMs": 257119,
    "Key": 85,
    "DurationMs": 146,
    "Vel": 80
  },
  {
    "TimeMs": 257120,
    "Key": 82,
    "DurationMs": 146,
    "Vel": 80
  },
  {
    "TimeMs": 257282,
    "Key": 87,
    "DurationMs": 146,
    "Vel": 80
  },
  {
    "TimeMs": 257283,
    "Key": 85,
    "DurationMs": 146,
    "Vel": 80
  },
  {
    "TimeMs": 257284,
    "Key": 63,
    "DurationMs": 290,
    "Vel": 80
  },
  {
    "TimeMs": 257608,
    "Key": 80,
    "DurationMs": 293,
    "Vel": 80
  },
  {
    "TimeMs": 257609,
    "Key": 68,
    "DurationMs": 293,
    "Vel": 80
  },
  {
    "TimeMs": 257934,
    "Key": 73,
    "DurationMs": 293,
    "Vel": 80
  },
  {
    "TimeMs": 257935,
    "Key": 70,
    "DurationMs": 293,
    "Vel": 80
  },
  {
    "TimeMs": 258260,
    "Key": 75,
    "DurationMs": 293,
    "Vel": 80
  },
  {
    "TimeMs": 258261,
    "Key": 71,
    "DurationMs": 293,
    "Vel": 80
  },
  {
    "TimeMs": 258586,
    "Key": 73,
    "DurationMs": 293,
    "Vel": 80
  },
  {
    "TimeMs": 258587,
    "Key": 70,
    "DurationMs": 293,
    "Vel": 80
  },
  {
    "TimeMs": 258912,
    "Key": 68,
    "DurationMs": 293,
    "Vel": 80
  },
  {
    "TimeMs": 259238,
    "Key": 73,
    "DurationMs": 293,
    "Vel": 80
  },
  {
    "TimeMs": 259564,
    "Key": 75,
    "DurationMs": 293,
    "Vel": 80
  },
  {
    "TimeMs": 259890,
    "Key": 73,
    "DurationMs": 293,
    "Vel": 80
  },
  {
    "TimeMs": 260217,
    "Key": 80,
    "DurationMs": 293,
    "Vel": 80
  },
  {
    "TimeMs": 260543,
    "Key": 73,
    "DurationMs": 293,
    "Vel": 80
  },
  {
    "TimeMs": 260869,
    "Key": 75,
    "DurationMs": 293,
    "Vel": 80
  },
  {
    "TimeMs": 261195,
    "Key": 73,
    "DurationMs": 293,
    "Vel": 80
  },
  {
    "TimeMs": 261521,
    "Key": 68,
    "DurationMs": 293,
    "Vel": 80
  },
  {
    "TimeMs": 261847,
    "Key": 73,
    "DurationMs": 293,
    "Vel": 80
  },
  {
    "TimeMs": 262173,
    "Key": 75,
    "DurationMs": 293,
    "Vel": 80
  },
  {
    "TimeMs": 262174,
    "Key": 52,
    "DurationMs": 293,
    "Vel": 80
  },
  {
    "TimeMs": 262499,
    "Key": 73,
    "DurationMs": 293,
    "Vel": 80
  },
  {
    "TimeMs": 262500,
    "Key": 59,
    "DurationMs": 293,
    "Vel": 80
  },
  {
    "TimeMs": 262825,
    "Key": 80,
    "DurationMs": 293,
    "Vel": 80
  },
  {
    "TimeMs": 262827,
    "Key": 64,
    "DurationMs": 293,
    "Vel": 80
  },
  {
    "TimeMs": 263151,
    "Key": 73,
    "DurationMs": 293,
    "Vel": 80
  },
  {
    "TimeMs": 263153,
    "Key": 66,
    "DurationMs": 293,
    "Vel": 80
  },
  {
    "TimeMs": 263477,
    "Key": 75,
    "DurationMs": 293,
    "Vel": 80
  },
  {
    "TimeMs": 263479,
    "Key": 68,
    "DurationMs": 944,
    "Vel": 80
  },
  {
    "TimeMs": 263803,
    "Key": 73,
    "DurationMs": 293,
    "Vel": 80
  },
  {
    "TimeMs": 264130,
    "Key": 68,
    "DurationMs": 293,
    "Vel": 80
  },
  {
    "TimeMs": 264456,
    "Key": 73,
    "DurationMs": 293,
    "Vel": 80
  },
  {
    "TimeMs": 264782,
    "Key": 75,
    "DurationMs": 293,
    "Vel": 80
  },
  {
    "TimeMs": 264783,
    "Key": 54,
    "DurationMs": 293,
    "Vel": 80
  },
  {
    "TimeMs": 265108,
    "Key": 73,
    "DurationMs": 293,
    "Vel": 80
  },
  {
    "TimeMs": 265109,
    "Key": 61,
    "DurationMs": 293,
    "Vel": 80
  },
  {
    "TimeMs": 265434,
    "Key": 80,
    "DurationMs": 293,
    "Vel": 80
  },
  {
    "TimeMs": 265435,
    "Key": 66,
    "DurationMs": 293,
    "Vel": 80
  },
  {
    "TimeMs": 265760,
    "Key": 73,
    "DurationMs": 293,
    "Vel": 80
  },
  {
    "TimeMs": 265761,
    "Key": 68,
    "DurationMs": 293,
    "Vel": 80
  },
  {
    "TimeMs": 266086,
    "Key": 75,
    "DurationMs": 293,
    "Vel": 80
  },
  {
    "TimeMs": 266087,
    "Key": 70,
    "DurationMs": 1172,
    "Vel": 80
  },
  {
    "TimeMs": 266412,
    "Key": 73,
    "DurationMs": 293,
    "Vel": 80
  },
  {
    "TimeMs": 266738,
    "Key": 68,
    "DurationMs": 293,
    "Vel": 80
  },
  {
    "TimeMs": 267064,
    "Key": 73,
    "DurationMs": 293,
    "Vel": 80
  },
  {
    "TimeMs": 267390,
    "Key": 56,
    "DurationMs": 293,
    "Vel": 80
  },
  {
    "TimeMs": 267553,
    "Key": 85,
    "DurationMs": 146,
    "Vel": 80
  },
  {
    "TimeMs": 267555,
    "Key": 82,
    "DurationMs": 146,
    "Vel": 80
  },
  {
    "TimeMs": 267717,
    "Key": 87,
    "DurationMs": 146,
    "Vel": 80
  },
  {
    "TimeMs": 267718,
    "Key": 85,
    "DurationMs": 146,
    "Vel": 80
  },
  {
    "TimeMs": 267719,
    "Key": 63,
    "DurationMs": 290,
    "Vel": 80
  },
  {
    "TimeMs": 268043,
    "Key": 80,
    "DurationMs": 293,
    "Vel": 80
  },
  {
    "TimeMs": 268044,
    "Key": 68,
    "DurationMs": 293,
    "Vel": 80
  },
  {
    "TimeMs": 268369,
    "Key": 73,
    "DurationMs": 293,
    "Vel": 80
  },
  {
    "TimeMs": 268370,
    "Key": 70,
    "DurationMs": 293,
    "Vel": 80
  },
  {
    "TimeMs": 268695,
    "Key": 75,
    "DurationMs": 293,
    "Vel": 80
  },
  {
    "TimeMs": 268696,
    "Key": 71,
    "DurationMs": 1172,
    "Vel": 80
  },
  {
    "TimeMs": 269021,
    "Key": 73,
    "DurationMs": 293,
    "Vel": 80
  },
  {
    "TimeMs": 269347,
    "Key": 68,
    "DurationMs": 293,
    "Vel": 80
  },
  {
    "TimeMs": 269673,
    "Key": 73,
    "DurationMs": 293,
    "Vel": 80
  },
  {
    "TimeMs": 269999,
    "Key": 75,
    "DurationMs": 293,
    "Vel": 80
  },
  {
    "TimeMs": 270325,
    "Key": 73,
    "DurationMs": 293,
    "Vel": 80
  },
  {
    "TimeMs": 270651,
    "Key": 80,
    "DurationMs": 293,
    "Vel": 80
  },
  {
    "TimeMs": 270977,
    "Key": 73,
    "DurationMs": 293,
    "Vel": 80
  },
  {
    "TimeMs": 271303,
    "Key": 75,
    "DurationMs": 293,
    "Vel": 80
  },
  {
    "TimeMs": 271630,
    "Key": 73,
    "DurationMs": 293,
    "Vel": 80
  },
  {
    "TimeMs": 271956,
    "Key": 68,
    "DurationMs": 293,
    "Vel": 80
  },
  {
    "TimeMs": 272282,
    "Key": 73,
    "DurationMs": 293,
    "Vel": 80
  }
]