[
  {
    "TimeMs": 222,
    "Key": 94,
    "DurationMs": 210,
    "Vel": 49
  },
  {
    "TimeMs": 444,
    "Key": 96,
    "DurationMs": 421,
    "Vel": 49
  },
  {
    "TimeMs": 445,
    "Key": 79,
    "DurationMs": 1264,
    "Vel": 49
  },
  {
    "TimeMs": 888,
    "Key": 94,
    "DurationMs": 421,
    "Vel": 49
  },
  {
    "TimeMs": 1333,
    "Key": 93,
    "DurationMs": 210,
    "Vel": 49
  },
  {
    "TimeMs": 1555,
    "Key": 91,
    "DurationMs": 421,
    "Vel": 49
  },
  {
    "TimeMs": 1777,
    "Key": 82,
    "DurationMs": 421,
    "Vel": 49
  },
  {
    "TimeMs": 1999,
    "Key": 96,
    "DurationMs": 421,
    "Vel": 49
  },
  {
    "TimeMs": 2222,
    "Key": 75,
    "DurationMs": 1265,
    "Vel": 49
  },
  {
    "TimeMs": 2444,
    "Key": 94,
    "DurationMs": 421,
    "Vel": 49
  },
  {
    "TimeMs": 2888,
    "Key": 93,
    "DurationMs": 421,
    "Vel": 49
  },
  {
    "TimeMs": 3333,
    "Key": 91,
    "DurationMs": 421,
    "Vel": 49
  },
  {
    "TimeMs": 3555,
    "Key": 79,
    "DurationMs": 421,
    "Vel": 49
  },
  {
    "TimeMs": 3777,
    "Key": 91,
    "DurationMs": 210,
    "Vel": 49
  },
  {
    "TimeMs": 3999,
    "Key": 89,
    "DurationMs": 632,
    "Vel": 49
  },
  {
    "TimeMs": 4000,
    "Key": 77,
    "DurationMs": 1264,
    "Vel": 49
  },
  {
    "TimeMs": 4666,
    "Key": 87,
    "DurationMs": 210,
    "Vel": 49
  },
  {
    "TimeMs": 4888,
    "Key": 87,
    "DurationMs": 315,
    "Vel": 49
  },
  {
    "TimeMs": 5222,
    "Key": 89,
    "DurationMs": 315,
    "Vel": 49
  },
  {
    "TimeMs": 5333,
    "Key": 81,
    "DurationMs": 421,
    "Vel": 49
  },
  {
    "TimeMs": 5555,
    "Key": 86,
    "DurationMs": 1476,
    "Vel": 49
  },
  {
    "TimeMs": 5777,
    "Key": 79,
    "DurationMs": 1265,
    "Vel": 49
  },
  {
    "TimeMs": 7333,
    "Key": 74,
    "DurationMs": 210,
    "Vel": 80
  },
  {
    "TimeMs": 7334,
    "Key": 86,
    "DurationMs": 210,
    "Vel": 80
  },
  {
    "TimeMs": 7555,
    "Key": 74,
    "DurationMs": 421,
    "Vel": 80
  },
  {
    "TimeMs": 7556,
    "Key": 82,
    "DurationMs": 421,
    "Vel": 80
  },
  {
    "TimeMs": 7557,
    "Key": 86,
    "DurationMs": 421,
    "Vel": 80
  },
  {
    "TimeMs": 7558,
    "Key": 51,
    "DurationMs": 207,
    "Vel": 80
  },
  {
    "TimeMs": 7777,
    "Key": 58,
    "DurationMs": 210,
    "Vel": 80
  },
  {
    "TimeMs": 7999,
    "Key": 74,
    "DurationMs": 210,
    "Vel": 80
  },
  {
    "TimeMs": 8000,
    "Key": 86,
    "DurationMs": 210,
    "Vel": 80
  },
  {
    "TimeMs": 8001,
    "Key": 67,
    "DurationMs": 210,
    "Vel": 80
  },
  {
    "TimeMs": 8222,
    "Key": 74,
    "DurationMs": 421,
    "Vel": 80
  },
  {
    "TimeMs": 8223,
    "Key": 82,
    "DurationMs": 421,
    "Vel": 80
  },
  {
    "TimeMs": 8224,
    "Key": 86,
    "DurationMs": 421,
    "Vel": 80
  },
  {
    "TimeMs": 8224,
    "Key": 51,
    "DurationMs": 207,
    "Vel": 80
  },
  {
    "TimeMs": 8444,
    "Key": 58,
    "DurationMs": 210,
    "Vel": 80
  },
  {
    "TimeMs": 8666,
    "Key": 86,
    "DurationMs": 210,
    "Vel": 80
  },
  {
    "TimeMs": 8667,
    "Key": 98,
    "DurationMs": 210,
    "Vel": 80
  },
  {
    "TimeMs": 8668,
    "Key": 65,
    "DurationMs": 210,
    "Vel": 80
  },
  {
    "TimeMs": 8888,
    "Key": 86,
    "DurationMs": 632,
    "Vel": 80
  },
  {
    "TimeMs": 8889,
    "Key": 94,
    "DurationMs": 632,
    "Vel": 80
  },
  {
    "TimeMs": 8890,
    "Key": 98,
    "DurationMs": 632,
    "Vel": 80
  },
  {
    "TimeMs": 8891,
    "Key": 70,
    "DurationMs": 207,
    "Vel": 80
  },
  {
    "TimeMs": 9111,
    "Key": 74,
    "DurationMs": 210,
    "Vel": 80
  },
  {
    "TimeMs": 9333,
    "Key": 55,
    "DurationMs": 210,
    "Vel": 80
  },
  {
    "TimeMs": 9555,
    "Key": 84,
    "DurationMs": 210,
    "Vel": 80
  },
  {
    "TimeMs": 9556,
    "Key": 62,
    "DurationMs": 210,
    "Vel": 80
  },
  {
    "TimeMs": 9777,
    "Key": 86,
    "DurationMs": 210,
    "Vel": 80
  },
  {
    "TimeMs": 9778,
    "Key": 70,
    "DurationMs": 210,
    "Vel": 80
  },
  {
    "TimeMs": 9999,
    "Key": 55,
    "DurationMs": 210,
    "Vel": 80
  },
  {
    "TimeMs": 10222,
    "Key": 84,
    "DurationMs": 210,
    "Vel": 80
  },
  {
    "TimeMs": 10223,
    "Key": 62,
    "DurationMs": 210,
    "Vel": 80
  },
  {
    "TimeMs": 10444,
    "Key": 86,
    "DurationMs": 210,
    "Vel": 80
  },
  {
    "TimeMs": 10445,
    "Key": 70,
    "DurationMs": 210,
    "Vel": 80
  },
  {
    "TimeMs": 10666,
    "Key": 55,
    "DurationMs": 210,
    "Vel": 80
  },
  {
    "TimeMs": 10888,
    "Key": 82,
    "DurationMs": 210,
    "Vel": 80
  },
  {
    "TimeMs": 10889,
    "Key": 94,
    "DurationMs": 210,
    "Vel": 80
  },
  {
    "TimeMs": 10890,
    "Key": 62,
    "DurationMs": 210,
    "Vel": 80
  },
  {
    "TimeMs": 11111,
    "Key": 81,
    "DurationMs": 421,
    "Vel": 80
  },
  {
    "TimeMs": 11112,
    "Key": 84,
    "DurationMs": 421,
    "Vel": 80
  },
  {
    "TimeMs": 11112,
    "Key": 93,
    "DurationMs": 421,
    "Vel": 80
  },
  {
    "TimeMs": 11113,
    "Key": 53,
    "DurationMs": 207,
    "Vel": 80
  },
  {
    "TimeMs": 11333,
    "Key": 60,
    "DurationMs": 210,
    "Vel": 80
  },
  {
    "TimeMs": 11555,
    "Key": 81,
    "DurationMs": 210,
    "Vel": 80
  },
  {
    "TimeMs": 11556,
    "Key": 93,
    "DurationMs": 210,
    "Vel": 80
  },
  {
    "TimeMs": 11557,
    "Key": 69,
    "DurationMs": 210,
    "Vel": 80
  },
  {
    "TimeMs": 11777,
    "Key": 81,
    "DurationMs": 421,
    "Vel": 80
  },
  {
    "TimeMs": 11778,
    "Key": 84,
    "DurationMs": 421,
    "Vel": 80
  },
  {
    "TimeMs": 11779,
    "Key": 93,
    "DurationMs": 421,
    "Vel": 80
  },
  {
    "TimeMs": 11780,
    "Key": 53,
    "DurationMs": 207,
    "Vel": 80
  },
  {
    "TimeMs": 11999,
    "Key": 60,
    "DurationMs": 210,
    "Vel": 80
  },
  {
    "TimeMs": 12222,
    "Key": 82,
    "DurationMs": 210,
    "Vel": 80
  },
  {
    "TimeMs": 12223,
    "Key": 94,
    "DurationMs": 210,
    "Vel": 80
  },
  {
    "TimeMs": 12224,
    "Key": 65,
    "DurationMs": 210,
    "Vel": 80
  },
  {
    "TimeMs": 12444,
    "Key": 82,
    "DurationMs": 632,
    "Vel": 80
  },
  {
    "TimeMs": 12445,
    "Key": 94,
    "DurationMs": 632,
    "Vel": 80
  },
  {
    "TimeMs": 12446,
    "Key": 70,
    "DurationMs": 208,
    "Vel": 80
  },
  {
    "TimeMs": 12666,
    "Key": 72,
    "DurationMs": 210,
    "Vel": 80
  },
  {
    "TimeMs": 12888,
    "Key": 55,
    "DurationMs": 210,
    "Vel": 80
  },
  {
    "TimeMs": 13111,
    "Key": 81,
    "DurationMs": 210,
    "Vel": 80
  },
  {
    "TimeMs": 13112,
    "Key": 62,
    "DurationMs": 210,
    "Vel": 80
  },
  {
    "TimeMs": 13333,
    "Key": 82,
    "DurationMs": 210,
    "Vel": 80
  },
  {
    "TimeMs": 13334,
    "Key": 67,
    "DurationMs": 210,
    "Vel": 80
  },
  {
    "TimeMs": 13555,
    "Key": 55,
    "DurationMs": 210,
    "Vel": 80
  },
  {
    "TimeMs": 13777,
    "Key": 81,
    "DurationMs": 210,
    "Vel": 80
  },
  {
    "TimeMs": 13778,
    "Key": 62,
    "DurationMs": 210,
    "Vel": 80
  },
  {
    "TimeMs": 13999,
    "Key": 82,
    "DurationMs": 210,
    "Vel": 80
  },
  {
    "TimeMs": 14000,
    "Key": 67,
    "DurationMs": 210,
    "Vel": 80
  },
  {
    "TimeMs": 14222,
    "Key": 55,
    "DurationMs": 210,
    "Vel": 80
  },
  {
    "TimeMs": 14444,
    "Key": 94,
    "DurationMs": 210,
    "Vel": 80
  },
  {
    "TimeMs": 14445,
    "Key": 62,
    "DurationMs": 210,
    "Vel": 80
  },
  {
    "TimeMs": 14666,
    "Key": 96,
    "DurationMs": 421,
    "Vel": 80
  },
  {
    "TimeMs": 14667,
    "Key": 51,
    "DurationMs": 209,
    "Vel": 80
  },
  {
    "TimeMs": 14888,
    "Key": 84,
    "DurationMs": 210,
    "Vel": 80
  },
  {
    "TimeMs": 14889,
    "Key": 58,
    "DurationMs": 210,
    "Vel": 80
  },
  {
    "TimeMs": 15111,
    "Key": 94,
    "DurationMs": 421,
    "Vel": 80
  },
  {
    "TimeMs": 15112,
    "Key": 86,
    "DurationMs": 209,
    "Vel": 80
  },
  {
    "TimeMs": 15112,
    "Key": 67,
    "DurationMs": 209,
    "Vel": 80
  },
  {
    "TimeMs": 15333,
    "Key": 82,
    "DurationMs": 210,
    "Vel": 80
  },
  {
    "TimeMs": 15334,
    "Key": 51,
    "DurationMs": 210,
    "Vel": 80
  },
  {
    "TimeMs": 15555,
    "Key": 93,
    "DurationMs": 210,
    "Vel": 80
  },
  {
    "TimeMs": 15556,
    "Key": 81,
    "DurationMs": 210,
    "Vel": 80
  },
  {
    "TimeMs": 15557,
    "Key": 58,
    "DurationMs": 210,
    "Vel": 80
  },
  {
    "TimeMs": 15777,
    "Key": 91,
    "DurationMs": 421,
    "Vel": 80
  },
  {
    "TimeMs": 15778,
    "Key": 82,
    "DurationMs": 209,
    "Vel": 80
  },
  {
    "TimeMs": 15779,
    "Key": 67,
    "DurationMs": 209,
    "Vel": 80
  },
  {
    "TimeMs": 15999,
    "Key": 79,
    "DurationMs": 421,
    "Vel": 80
  },
  {
    "TimeMs": 16000,
    "Key": 51,
    "DurationMs": 209,
    "Vel": 80
  },
  {
    "TimeMs": 16222,
    "Key": 96,
    "DurationMs": 421,
    "Vel": 80
  },
  {
    "TimeMs": 16223,
    "Key": 58,
    "DurationMs": 209,
    "Vel": 80
  },
  {
    "TimeMs": 16444,
    "Key": 84,
    "DurationMs": 210,
    "Vel": 80
  },
  {
    "TimeMs": 16445,
    "Key": 55,
    "DurationMs": 210,
    "Vel": 80
  },
  {
    "TimeMs": 16666,
    "Key": 94,
    "DurationMs": 421,
    "Vel": 80
  },
  {
    "TimeMs": 16667,
    "Key": 86,
    "DurationMs": 209,
    "Vel": 80
  },
  {
    "TimeMs": 16668,
    "Key": 62,
    "DurationMs": 209,
    "Vel": 80
  },
  {
    "TimeMs": 16888,
    "Key": 82,
    "DurationMs": 210,
    "Vel": 80
  },
  {
    "TimeMs": 16889,
    "Key": 70,
    "DurationMs": 210,
    "Vel": 80
  },
  {
    "TimeMs": 17111,
    "Key": 93,
    "DurationMs": 421,
    "Vel": 80
  },
  {
    "TimeMs": 17112,
    "Key": 81,
    "DurationMs": 209,
    "Vel": 80
  },
  {
    "TimeMs": 17112,
    "Key": 55,
    "DurationMs": 209,
    "Vel": 80
  },
  {
    "TimeMs": 17333,
    "Key": 82,
    "DurationMs": 210,
    "Vel": 80
  },
  {
    "TimeMs": 17334,
    "Key": 62,
    "DurationMs": 210,
    "Vel": 80
  },
  {
    "TimeMs": 17555,
    "Key": 91,
    "DurationMs": 421,
    "Vel": 80
  },
  {
    "TimeMs": 17556,
    "Key": 79,
    "DurationMs": 421,
    "Vel": 80
  },
  {
    "TimeMs": 17557,
    "Key": 70,
    "DurationMs": 208,
    "Vel": 80
  },
  {
    "TimeMs": 17777,
    "Key": 55,
    "DurationMs": 210,
    "Vel": 80
  },
  {
    "TimeMs": 17999,
    "Key": 91,
    "DurationMs": 210,
    "Vel": 80
  },
  {
    "TimeMs": 18000,
    "Key": 62,
    "DurationMs": 210,
    "Vel": 80
  },
  {
    "TimeMs": 18222,
    "Key": 89,
    "DurationMs": 632,
    "Vel": 80
  },
  {
    "TimeMs": 18223,
    "Key": 81,
    "DurationMs": 209,
    "Vel": 80
  },
  {
    "TimeMs": 18224,
    "Key": 53,
    "DurationMs": 209,
    "Vel": 80
  },
  {
    "TimeMs": 18444,
    "Key": 82,
    "DurationMs": 210,
    "Vel": 80
  },
  {
    "TimeMs": 18445,
    "Key": 60,
    "DurationMs": 210,
    "Vel": 80
  },
  {
    "TimeMs": 18666,
    "Key": 77,
    "DurationMs": 210,
    "Vel": 80
  },
  {
    "TimeMs": 18667,
    "Key": 69,
    "DurationMs": 210,
    "Vel": 80
  },
  {
    "TimeMs": 18888,
    "Key": 87,
    "DurationMs": 210,
    "Vel": 80
  },
  {
    "TimeMs": 18889,
    "Key": 53,
    "DurationMs": 210,
    "Vel": 80
  },
  {
    "TimeMs": 19111,
    "Key": 81,
    "DurationMs": 315,
    "Vel": 80
  },
  {
    "TimeMs": 19112,
    "Key": 87,
    "DurationMs": 315,
    "Vel": 80
  },
  {
    "TimeMs": 19112,
    "Key": 60,
    "DurationMs": 208,
    "Vel": 80
  },
  {
    "TimeMs": 19333,
    "Key": 69,
    "DurationMs": 210,
    "Vel": 80
  },
  {
    "TimeMs": 19444,
    "Key": 82,
    "DurationMs": 315,
    "Vel": 80
  },
  {
    "TimeMs": 19445,
    "Key": 89,
    "DurationMs": 315,
    "Vel": 80
  },
  {
    "TimeMs": 19555,
    "Key": 53,
    "DurationMs": 210,
    "Vel": 80
  },
  {
    "TimeMs": 19777,
    "Key": 77,
    "DurationMs": 210,
    "Vel": 80
  },
  {
    "TimeMs": 19778,
    "Key": 86,
    "DurationMs": 1475,
    "Vel": 80
  },
  {
    "TimeMs": 19779,
    "Key": 60,
    "DurationMs": 209,
    "Vel": 80
  },
  {
    "TimeMs": 19999,
    "Key": 55,
    "DurationMs": 210,
    "Vel": 80
  },
  {
    "TimeMs": 20222,
    "Key": 81,
    "DurationMs": 210,
    "Vel": 80
  },
  {
    "TimeMs": 20223,
    "Key": 62,
    "DurationMs": 210,
    "Vel": 80
  },
  {
    "TimeMs": 20444,
    "Key": 82,
    "DurationMs": 210,
    "Vel": 80
  },
  {
    "TimeMs": 20445,
    "Key": 70,
    "DurationMs": 210,
    "Vel": 80
  },
  {
    "TimeMs": 20666,
    "Key": 55,
    "DurationMs": 210,
    "Vel": 80
  },
  {
    "TimeMs": 20888,
    "Key": 81,
    "DurationMs": 210,
    "Vel": 80
  },
  {
    "TimeMs": 20889,
    "Key": 62,
    "DurationMs": 210,
    "Vel": 80
  },
  {
    "TimeMs": 21111,
    "Key": 82,
    "DurationMs": 210,
    "Vel": 80
  },
  {
    "TimeMs": 21112,
    "Key": 70,
    "DurationMs": 210,
    "Vel": 80
  },
  {
    "TimeMs": 21333,
    "Key": 55,
    "DurationMs": 210,
    "Vel": 80
  },
  {
    "TimeMs": 21555,
    "Key": 74,
    "DurationMs": 210,
    "Vel": 80
  },
  {
    "TimeMs": 21556,
    "Key": 86,
    "DurationMs": 210,
    "Vel": 80
  },
  {
    "TimeMs": 21557,
    "Key": 62,
    "DurationMs": 210,
    "Vel": 80
  },
  {
    "TimeMs": 21777,
    "Key": 74,
    "DurationMs": 421,
    "Vel": 80
  },
  {
    "TimeMs": 21778,
    "Key": 82,
    "DurationMs": 421,
    "Vel": 80
  },
  {
    "TimeMs": 21779,
    "Key": 86,
    "DurationMs": 421,
    "Vel": 80
  },
  {
    "TimeMs": 21780,
    "Key": 51,
    "DurationMs": 207,
    "Vel": 80
  },
  {
    "TimeMs": 21999,
    "Key": 58,
    "DurationMs": 210,
    "Vel": 80
  },
  {
    "TimeMs": 22222,
    "Key": 74,
    "DurationMs": 210,
    "Vel": 80
  },
  {
    "TimeMs": 22223,
    "Key": 86,
    "DurationMs": 210,
    "Vel": 80
  },
  {
    "TimeMs": 22224,
    "Key": 67,
    "DurationMs": 210,
    "Vel": 80
  },
  {
    "TimeMs": 22444,
    "Key": 74,
    "DurationMs": 421,
    "Vel": 80
  },
  {
    "TimeMs": 22445,
    "Key": 82,
    "DurationMs": 421,
    "Vel": 80
  },
  {
    "TimeMs": 22446,
    "Key": 86,
    "DurationMs": 421,
    "Vel": 80
  },
  {
    "TimeMs": 22447,
    "Key": 51,
    "DurationMs": 207,
    "Vel": 80
  },
  {
    "TimeMs": 22666,
    "Key": 58,
    "DurationMs": 210,
    "Vel": 80
  },
  {
    "TimeMs": 22888,
    "Key": 86,
    "DurationMs": 210,
    "Vel": 80
  },
  {
    "TimeMs": 22889,
    "Key": 98,
    "DurationMs": 210,
    "Vel": 80
  },
  {
    "TimeMs": 22890,
    "Key": 67,
    "DurationMs": 210,
    "Vel": 80
  },
  {
    "TimeMs": 23111,
    "Key": 86,
    "DurationMs": 421,
    "Vel": 80
  },
  {
    "TimeMs": 23112,
    "Key": 98,
    "DurationMs": 421,
    "Vel": 80
  },
  {
    "TimeMs": 23112,
    "Key": 51,
    "DurationMs": 208,
    "Vel": 80
  },
  {
    "TimeMs": 23333,
    "Key": 58,
    "DurationMs": 210,
    "Vel": 80
  },
  {
    "TimeMs": 23555,
    "Key": 77,
    "DurationMs": 210,
    "Vel": 80
  },
  {
    "TimeMs": 23556,
    "Key": 55,
    "DurationMs": 210,
    "Vel": 80
  },
  {
    "TimeMs": 23777,
    "Key": 84,
    "DurationMs": 210,
    "Vel": 80
  },
  {
    "TimeMs": 23778,
    "Key": 62,
    "DurationMs": 210,
    "Vel": 80
  },
  {
    "TimeMs": 23999,
    "Key": 86,
    "DurationMs": 210,
    "Vel": 80
  },
  {
    "TimeMs": 24000,
    "Key": 70,
    "DurationMs": 210,
    "Vel": 80
  },
  {
    "TimeMs": 24222,
    "Key": 77,
    "DurationMs": 210,
    "Vel": 80
  },
  {
    "TimeMs": 24223,
    "Key": 55,
    "DurationMs": 210,
    "Vel": 80
  },
  {
    "TimeMs": 24444,
    "Key": 84,
    "DurationMs": 210,
    "Vel": 80
  },
  {
    "TimeMs": 24445,
    "Key": 62,
    "DurationMs": 210,
    "Vel": 80
  },
  {
    "TimeMs": 24666,
    "Key": 86,
    "DurationMs": 210,
    "Vel": 80
  },
  {
    "TimeMs": 24667,
    "Key": 70,
    "DurationMs": 210,
    "Vel": 80
  },
  {
    "TimeMs": 24888,
    "Key": 77,
    "DurationMs": 210,
    "Vel": 80
  },
  {
    "TimeMs": 24889,
    "Key": 55,
    "DurationMs": 210,
    "Vel": 80
  },
  {
    "TimeMs": 25111,
    "Key": 82,
    "DurationMs": 210,
    "Vel": 80
  },
  {
    "TimeMs": 25112,
    "Key": 94,
    "DurationMs": 210,
    "Vel": 80
  },
  {
    "TimeMs": 25112,
    "Key": 62,
    "DurationMs": 210,
    "Vel": 80
  },
  {
    "TimeMs": 25333,
    "Key": 81,
    "DurationMs": 421,
    "Vel": 80
  },
  {
    "TimeMs": 25334,
    "Key": 84,
    "DurationMs": 421,
    "Vel": 80
  },
  {
    "TimeMs": 25335,
    "Key": 93,
    "DurationMs": 421,
    "Vel": 80
  },
  {
    "TimeMs": 25336,
    "Key": 53,
    "DurationMs": 207,
    "Vel": 80
  },
  {
    "TimeMs": 25555,
    "Key": 60,
    "DurationMs": 210,
    "Vel": 80
  },
  {
    "TimeMs": 25777,
    "Key": 81,
    "DurationMs": 210,
    "Vel": 80
  },
  {
    "TimeMs": 25778,
    "Key": 93,
    "DurationMs": 210,
    "Vel": 80
  },
  {
    "TimeMs": 25779,
    "Key": 69,
    "DurationMs": 210,
    "Vel": 80
  },
  {
    "TimeMs": 25999,
    "Key": 81,
    "DurationMs": 421,
    "Vel": 80
  },
  {
    "TimeMs": 26000,
    "Key": 84,
    "DurationMs": 421,
    "Vel": 80
  },
  {
    "TimeMs": 26001,
    "Key": 93,
    "DurationMs": 421,
    "Vel": 80
  },
  {
    "TimeMs": 26002,
    "Key": 53,
    "DurationMs": 207,
    "Vel": 80
  },
  {
    "TimeMs": 26222,
    "Key": 60,
    "DurationMs": 210,
    "Vel": 80
  },
  {
    "TimeMs": 26444,
    "Key": 82,
    "DurationMs": 210,
    "Vel": 80
  },
  {
    "TimeMs": 26445,
    "Key": 94,
    "DurationMs": 210,
    "Vel": 80
  },
  {
    "TimeMs": 26446,
    "Key": 69,
    "DurationMs": 210,
    "Vel": 80
  },
  {
    "TimeMs": 26666,
    "Key": 82,
    "DurationMs": 421,
    "Vel": 80
  },
  {
    "TimeMs": 26667,
    "Key": 94,
    "DurationMs": 421,
    "Vel": 80
  },
  {
    "TimeMs": 26668,
    "Key": 53,
    "DurationMs": 208,
    "Vel": 80
  },
  {
    "TimeMs": 26888,
    "Key": 53,
    "DurationMs": 210,
    "Vel": 96
  },
  {
    "TimeMs": 27111,
    "Key": 62,
    "DurationMs": 157,
    "Vel": 112
  },
  {
    "TimeMs": 27112,
    "Key": 67,
    "DurationMs": 157,
    "Vel": 112
  },
  {
    "TimeMs": 27112,
    "Key": 55,
    "DurationMs": 102,
    "Vel": 112
  },
  {
    "TimeMs": 27222,
    "Key": 55,
    "DurationMs": 104,
    "Vel": 112
  },
  {
    "TimeMs": 27333,
    "Key": 55,
    "DurationMs": 104,
    "Vel": 112
  },
  {
    "TimeMs": 27444,
    "Key": 62,
    "DurationMs": 315,
    "Vel": 112
  },
  {
    "TimeMs": 27445,
    "Key": 67,
    "DurationMs": 315,
    "Vel": 112
  },
  {
    "TimeMs": 27555,
    "Key": 55,
    "DurationMs": 104,
    "Vel": 112
  },
  {
    "TimeMs": 27666,
    "Key": 55,
    "DurationMs": 104,
    "Vel": 112
  },
  {
    "TimeMs": 27777,
    "Key": 62,
    "DurationMs": 104,
    "Vel": 112
  },
  {
    "TimeMs": 27778,
    "Key": 67,
    "DurationMs": 104,
    "Vel": 112
  },
  {
    "TimeMs": 27888,
    "Key": 55,
    "DurationMs": 104,
    "Vel": 112
  },
  {
    "TimeMs": 27999,
    "Key": 62,
    "DurationMs": 315,
    "Vel": 112
  },
  {
    "TimeMs": 28000,
    "Key": 67,
    "DurationMs": 315,
    "Vel": 112
  },
  {
    "TimeMs": 28111,
    "Key": 55,
    "DurationMs": 104,
    "Vel": 112
  },
  {
    "TimeMs": 28222,
    "Key": 55,
    "DurationMs": 104,
    "Vel": 112
  },
  {
    "TimeMs": 28333,
    "Key": 62,
    "DurationMs": 104,
    "Vel": 112
  },
  {
    "TimeMs": 28334,
    "Key": 67,
    "DurationMs": 104,
    "Vel": 112
  },
  {
    "TimeMs": 28444,
    "Key": 62,
    "DurationMs": 421,
    "Vel": 112
  },
  {
    "TimeMs": 28445,
    "Key": 67,
    "DurationMs": 421,
    "Vel": 112
  },
  {
    "TimeMs": 28555,
    "Key": 55,
    "DurationMs": 104,
    "Vel": 112
  },
  {
    "TimeMs": 28666,
    "Key": 55,
    "DurationMs": 210,
    "Vel": 112
  },
  {
    "TimeMs": 28888,
    "Key": 86,
    "DurationMs": 104,
    "Vel": 96
  },
  {
    "TimeMs": 28889,
    "Key": 70,
    "DurationMs": 104,
    "Vel": 96
  },
  {
    "TimeMs": 28999,
    "Key": 74,
    "DurationMs": 104,
    "Vel": 96
  },
  {
    "TimeMs": 29000,
    "Key": 67,
    "DurationMs": 104,
    "Vel": 96
  },
  {
    "TimeMs": 29111,
    "Key": 79,
    "DurationMs": 104,
    "Vel": 96
  },
  {
    "TimeMs": 29112,
    "Key": 69,
    "DurationMs": 104,
    "Vel": 96
  },
  {
    "TimeMs": 29222,
    "Key": 84,
    "DurationMs": 104,
    "Vel": 96
  },
  {
    "TimeMs": 29223,
    "Key": 70,
    "DurationMs": 104,
    "Vel": 96
  },
  {
    "TimeMs": 29333,
    "Key": 74,
    "DurationMs": 104,
    "Vel": 96
  },
  {
    "TimeMs": 29334,
    "Key": 67,
    "DurationMs": 104,
    "Vel": 96
  },
  {
    "TimeMs": 29444,
    "Key": 79,
    "DurationMs": 104,
    "Vel": 96
  },
  {
    "TimeMs": 29445,
    "Key": 69,
    "DurationMs": 104,
    "Vel": 96
  },
  {
    "TimeMs": 29555,
    "Key": 82,
    "DurationMs": 104,
    "Vel": 96
  },
  {
    "TimeMs": 29556,
    "Key": 70,
    "DurationMs": 104,
    "Vel": 96
  },
  {
    "TimeMs": 29666,
    "Key": 74,
    "DurationMs": 104,
    "Vel": 96
  },
  {
    "TimeMs": 29667,
    "Key": 67,
    "DurationMs": 104,
    "Vel": 96
  },
  {
    "TimeMs": 29777,
    "Key": 86,
    "DurationMs": 104,
    "Vel": 96
  },
  {
    "TimeMs": 29778,
    "Key": 70,
    "DurationMs": 104,
    "Vel": 96
  },
  {
    "TimeMs": 29888,
    "Key": 74,
    "DurationMs": 104,
    "Vel": 96
  },
  {
    "TimeMs": 29889,
    "Key": 67,
    "DurationMs": 104,
    "Vel": 96
  },
  {
    "TimeMs": 29999,
    "Key": 79,
    "DurationMs": 104,
    "Vel": 96
  },
  {
    "TimeMs": 30000,
    "Key": 69,
    "DurationMs": 104,
    "Vel": 96
  },
  {
    "TimeMs": 30111,
    "Key": 84,
    "DurationMs": 104,
    "Vel": 96
  },
  {
    "TimeMs": 30112,
    "Key": 70,
    "DurationMs": 104,
    "Vel": 96
  },
  {
    "TimeMs": 30222,
    "Key": 74,
    "DurationMs": 104,
    "Vel": 96
  },
  {
    "TimeMs": 30223,
    "Key": 67,
    "DurationMs": 104,
    "Vel": 96
  },
  {
    "TimeMs": 30333,
    "Key": 79,
    "DurationMs": 104,
    "Vel": 96
  },
  {
    "TimeMs": 30334,
    "Key": 69,
    "DurationMs": 104,
    "Vel": 96
  },
  {
    "TimeMs": 30444,
    "Key": 82,
    "DurationMs": 210,
    "Vel": 96
  },
  {
    "TimeMs": 30445,
    "Key": 70,
    "DurationMs": 210,
    "Vel": 96
  },
  {
    "TimeMs": 30666,
    "Key": 57,
    "DurationMs": 104,
    "Vel": 96
  },
  {
    "TimeMs": 30667,
    "Key": 58,
    "DurationMs": 104,
    "Vel": 96
  },
  {
    "TimeMs": 30668,
    "Key": 62,
    "DurationMs": 104,
    "Vel": 96
  },
  {
    "TimeMs": 30669,
    "Key": 67,
    "DurationMs": 104,
    "Vel": 96
  },
  {
    "TimeMs": 30670,
    "Key": 43,
    "DurationMs": 104,
    "Vel": 96
  },
  {
    "TimeMs": 30671,
    "Key": 50,
    "DurationMs": 104,
    "Vel": 96
  },
  {
    "TimeMs": 30672,
    "Key": 55,
    "DurationMs": 104,
    "Vel": 96
  },
  {
    "TimeMs": 30777,
    "Key": 43,
    "DurationMs": 104,
    "Vel": 96
  },
  {
    "TimeMs": 30778,
    "Key": 50,
    "DurationMs": 104,
    "Vel": 96
  },
  {
    "TimeMs": 30779,
    "Key": 55,
    "DurationMs": 104,
    "Vel": 96
  },
  {
    "TimeMs": 30888,
    "Key": 43,
    "DurationMs": 104,
    "Vel": 96
  },
  {
    "TimeMs": 30889,
    "Key": 50,
    "DurationMs": 104,
    "Vel": 96
  },
  {
    "TimeMs": 30890,
    "Key": 55,
    "DurationMs": 104,
    "Vel": 96
  },
  {
    "TimeMs": 30999,
    "Key": 57,
    "DurationMs": 315,
    "Vel": 96
  },
  {
    "TimeMs": 31000,
    "Key": 58,
    "DurationMs": 315,
    "Vel": 96
  },
  {
    "TimeMs": 31001,
    "Key": 62,
    "DurationMs": 315,
    "Vel": 96
  },
  {
    "TimeMs": 31002,
    "Key": 67,
    "DurationMs": 315,
    "Vel": 96
  },
  {
    "TimeMs": 31111,
    "Key": 43,
    "DurationMs": 104,
    "Vel": 96
  },
  {
    "TimeMs": 31112,
    "Key": 50,
    "DurationMs": 104,
    "Vel": 96
  },
  {
    "TimeMs": 31112,
    "Key": 55,
    "DurationMs": 104,
    "Vel": 96
  },
  {
    "TimeMs": 31222,
    "Key": 43,
    "DurationMs": 104,
    "Vel": 96
  },
  {
    "TimeMs": 31223,
    "Key": 50,
    "DurationMs": 104,
    "Vel": 96
  },
  {
    "TimeMs": 31224,
    "Key": 55,
    "DurationMs": 104,
    "Vel": 96
  },
  {
    "TimeMs": 31333,
    "Key": 57,
    "DurationMs": 104,
    "Vel": 96
  },
  {
    "TimeMs": 31334,
    "Key": 58,
    "DurationMs": 104,
    "Vel": 96
  },
  {
    "TimeMs": 31335,
    "Key": 62,
    "DurationMs": 104,
    "Vel": 96
  },
  {
    "TimeMs": 31336,
    "Key": 67,
    "DurationMs": 104,
    "Vel": 96
  },
  {
    "TimeMs": 31444,
    "Key": 43,
    "DurationMs": 104,
    "Vel": 96
  },
  {
    "TimeMs": 31445,
    "Key": 50,
    "DurationMs": 104,
    "Vel": 96
  },
  {
    "TimeMs": 31446,
    "Key": 55,
    "DurationMs": 104,
    "Vel": 96
  },
  {
    "TimeMs": 31555,
    "Key": 57,
    "DurationMs": 315,
    "Vel": 96
  },
  {
    "TimeMs": 31556,
    "Key": 58,
    "DurationMs": 315,
    "Vel": 96
  },
  {
    "TimeMs": 31557,
    "Key": 62,
    "DurationMs": 315,
    "Vel": 96
  },
  {
    "TimeMs": 31558,
    "Key": 67,
    "DurationMs": 315,
    "Vel": 96
  },
  {
    "TimeMs": 31666,
    "Key": 43,
    "DurationMs": 104,
    "Vel": 96
  },
  {
    "TimeMs": 31667,
    "Key": 50,
    "DurationMs": 104,
    "Vel": 96
  },
  {
    "TimeMs": 31668,
    "Key": 55,
    "DurationMs": 104,
    "Vel": 96
  },
  {
    "TimeMs": 31777,
    "Key": 43,
    "DurationMs": 104,
    "Vel": 96
  },
  {
    "TimeMs": 31778,
    "Key": 50,
    "DurationMs": 104,
    "Vel": 96
  },
  {
    "TimeMs": 31779,
    "Key": 55,
    "DurationMs": 104,
    "Vel": 96
  },
  {
    "TimeMs": 31888,
    "Key": 57,
    "DurationMs": 104,
    "Vel": 96
  },
  {
    "TimeMs": 31889,
    "Key": 58,
    "DurationMs": 104,
    "Vel": 96
  },
  {
    "TimeMs": 31890,
    "Key": 62,
    "DurationMs": 104,
    "Vel": 96
  },
  {
    "TimeMs": 31891,
    "Key": 67,
    "DurationMs": 104,
    "Vel": 96
  },
  {
    "TimeMs": 31999,
    "Key": 57,
    "DurationMs": 421,
    "Vel": 96
  },
  {
    "TimeMs": 32000,
    "Key": 58,
    "DurationMs": 421,
    "Vel": 96
  },
  {
    "TimeMs": 32001,
    "Key": 62,
    "DurationMs": 421,
    "Vel": 96
  },
  {
    "TimeMs": 32002,
    "Key": 67,
    "DurationMs": 421,
    "Vel": 96
  },
  {
    "TimeMs": 32003,
    "Key": 43,
    "DurationMs": 100,
    "Vel": 96
  },
  {
    "TimeMs": 32004,
    "Key": 50,
    "DurationMs": 100,
    "Vel": 96
  },
  {
    "TimeMs": 32005,
    "Key": 55,
    "DurationMs": 100,
    "Vel": 96
  },
  {
    "TimeMs": 32111,
    "Key": 43,
    "DurationMs": 315,
    "Vel": 96
  },
  {
    "TimeMs": 32112,
    "Key": 50,
    "DurationMs": 315,
    "Vel": 96
  },
  {
    "TimeMs": 32112,
    "Key": 55,
    "DurationMs": 315,
    "Vel": 96
  },
  {
    "TimeMs": 32444,
    "Key": 74,
    "DurationMs": 104,
    "Vel": 80
  },
  {
    "TimeMs": 32445,
    "Key": 86,
    "DurationMs": 104,
    "Vel": 80
  },
  {
    "TimeMs": 32446,
    "Key": 31,
    "DurationMs": 208,
    "Vel": 80
  },
  {
    "TimeMs": 32447,
    "Key": 43,
    "DurationMs": 208,
    "Vel": 80
  },
  {
    "TimeMs": 32555,
    "Key": 82,
    "DurationMs": 221,
    "Vel": 108
  },
  {
    "TimeMs": 32556,
    "Key": 94,
    "DurationMs": 221,
    "Vel": 108
  },
  {
    "TimeMs": 32666,
    "Key": 55,
    "DurationMs": 104,
    "Vel": 80
  },
  {
    "TimeMs": 32778,
    "Key": 74,
    "DurationMs": 103,
    "Vel": 80
  },
  {
    "TimeMs": 32779,
    "Key": 86,
    "DurationMs": 103,
    "Vel": 80
  },
  {
    "TimeMs": 32780,
    "Key": 58,
    "DurationMs": 329,
    "Vel": 108
  },
  {
    "TimeMs": 32781,
    "Key": 62,
    "DurationMs": 330,
    "Vel": 108
  },
  {
    "TimeMs": 32782,
    "Key": 67,
    "DurationMs": 330,
    "Vel": 108
  },
  {
    "TimeMs": 32888,
    "Key": 79,
    "DurationMs": 110,
    "Vel": 108
  },
  {
    "TimeMs": 32889,
    "Key": 91,
    "DurationMs": 110,
    "Vel": 108
  },
  {
    "TimeMs": 33000,
    "Key": 86,
    "DurationMs": 103,
    "Vel": 80
  },
  {
    "TimeMs": 33111,
    "Key": 82,
    "DurationMs": 104,
    "Vel": 80
  },
  {
    "TimeMs": 33113,
    "Key": 43,
    "DurationMs": 102,
    "Vel": 80
  },
  {
    "TimeMs": 33222,
    "Key": 79,
    "DurationMs": 104,
    "Vel": 80
  },
  {
    "TimeMs": 33223,
    "Key": 50,
    "DurationMs": 104,
    "Vel": 80
  },
  {
    "TimeMs": 33224,
    "Key": 55,
    "DurationMs": 104,
    "Vel": 80
  },
  {
    "TimeMs": 33333,
    "Key": 41,
    "DurationMs": 104,
    "Vel": 80
  },
  {
    "TimeMs": 33334,
    "Key": 53,
    "DurationMs": 104,
    "Vel": 80
  },
  {
    "TimeMs": 33444,
    "Key": 41,
    "DurationMs": 210,
    "Vel": 80
  },
  {
    "TimeMs": 33445,
    "Key": 53,
    "DurationMs": 210,
    "Vel": 80
  },
  {
    "TimeMs": 33555,
    "Key": 62,
    "DurationMs": 210,
    "Vel": 80
  },
  {
    "TimeMs": 33556,
    "Key": 70,
    "DurationMs": 210,
    "Vel": 80
  },
  {
    "TimeMs": 33557,
    "Key": 74,
    "DurationMs": 210,
    "Vel": 80
  },
  {
    "TimeMs": 33666,
    "Key": 53,
    "DurationMs": 104,
    "Vel": 80
  },
  {
    "TimeMs": 33667,
    "Key": 60,
    "DurationMs": 104,
    "Vel": 80
  },
  {
    "TimeMs": 33777,
    "Key": 60,
    "DurationMs": 112,
    "Vel": 80
  },
  {
    "TimeMs": 33778,
    "Key": 70,
    "DurationMs": 209,
    "Vel": 80
  },
  {
    "TimeMs": 33779,
    "Key": 72,
    "DurationMs": 209,
    "Vel": 80
  },
  {
    "TimeMs": 33888,
    "Key": 53,
    "DurationMs": 105,
    "Vel": 80
  },
  {
    "TimeMs": 33890,
    "Key": 60,
    "DurationMs": 102,
    "Vel": 80
  },
  {
    "TimeMs": 33999,
    "Key": 62,
    "DurationMs": 210,
    "Vel": 80
  },
  {
    "TimeMs": 34000,
    "Key": 70,
    "DurationMs": 210,
    "Vel": 80
  },
  {
    "TimeMs": 34001,
    "Key": 74,
    "DurationMs": 210,
    "Vel": 80
  },
  {
    "TimeMs": 34111,
    "Key": 41,
    "DurationMs": 104,
    "Vel": 80
  },
  {
    "TimeMs": 34112,
    "Key": 53,
    "DurationMs": 104,
    "Vel": 80
  },
  {
    "TimeMs": 34222,
    "Key": 74,
    "DurationMs": 104,
    "Vel": 80
  },
  {
    "TimeMs": 34223,
    "Key": 86,
    "DurationMs": 104,
    "Vel": 80
  },
  {
    "TimeMs": 34224,
    "Key": 39,
    "DurationMs": 208,
    "Vel": 80
  },
  {
    "TimeMs": 34224,
    "Key": 51,
    "DurationMs": 208,
    "Vel": 80
  },
  {
    "TimeMs": 34333,
    "Key": 82,
    "DurationMs": 221,
    "Vel": 108
  },
  {
    "TimeMs": 34334,
    "Key": 94,
    "DurationMs": 221,
    "Vel": 108
  },
  {
    "TimeMs": 34444,
    "Key": 55,
    "DurationMs": 104,
    "Vel": 80
  },
  {
    "TimeMs": 34556,
    "Key": 74,
    "DurationMs": 103,
    "Vel": 80
  },
  {
    "TimeMs": 34557,
    "Key": 86,
    "DurationMs": 103,
    "Vel": 80
  },
  {
    "TimeMs": 34558,
    "Key": 58,
    "DurationMs": 329,
    "Vel": 108
  },
  {
    "TimeMs": 34559,
    "Key": 63,
    "DurationMs": 330,
    "Vel": 108
  },
  {
    "TimeMs": 34560,
    "Key": 67,
    "DurationMs": 330,
    "Vel": 108
  },
  {
    "TimeMs": 34666,
    "Key": 79,
    "DurationMs": 110,
    "Vel": 108
  },
  {
    "TimeMs": 34667,
    "Key": 91,
    "DurationMs": 110,
    "Vel": 108
  },
  {
    "TimeMs": 34778,
    "Key": 86,
    "DurationMs": 103,
    "Vel": 80
  },
  {
    "TimeMs": 34888,
    "Key": 82,
    "DurationMs": 104,
    "Vel": 80
  },
  {
    "TimeMs": 34891,
    "Key": 39,
    "DurationMs": 102,
    "Vel": 80
  },
  {
    "TimeMs": 34999,
    "Key": 79,
    "DurationMs": 104,
    "Vel": 80
  },
  {
    "TimeMs": 35000,
    "Key": 46,
    "DurationMs": 104,
    "Vel": 80
  },
  {
    "TimeMs": 35001,
    "Key": 51,
    "DurationMs": 104,
    "Vel": 80
  },
  {
    "TimeMs": 35111,
    "Key": 38,
    "DurationMs": 104,
    "Vel": 80
  },
  {
    "TimeMs": 35112,
    "Key": 50,
    "DurationMs": 104,
    "Vel": 80
  },
  {
    "TimeMs": 35222,
    "Key": 38,
    "DurationMs": 210,
    "Vel": 80
  },
  {
    "TimeMs": 35223,
    "Key": 50,
    "DurationMs": 210,
    "Vel": 80
  },
  {
    "TimeMs": 35333,
    "Key": 62,
    "DurationMs": 112,
    "Vel": 80
  },
  {
    "TimeMs": 35334,
    "Key": 66,
    "DurationMs": 209,
    "Vel": 80
  },
  {
    "TimeMs": 35335,
    "Key": 69,
    "DurationMs": 209,
    "Vel": 80
  },
  {
    "TimeMs": 35336,
    "Key": 74,
    "DurationMs": 209,
    "Vel": 80
  },
  {
    "TimeMs": 35444,
    "Key": 57,
    "DurationMs": 105,
    "Vel": 80
  },
  {
    "TimeMs": 35446,
    "Key": 62,
    "DurationMs": 102,
    "Vel": 80
  },
  {
    "TimeMs": 35555,
    "Key": 70,
    "DurationMs": 210,
    "Vel": 80
  },
  {
    "TimeMs": 35556,
    "Key": 74,
    "DurationMs": 210,
    "Vel": 80
  },
  {
    "TimeMs": 35557,
    "Key": 82,
    "DurationMs": 210,
    "Vel": 80
  },
  {
    "TimeMs": 35666,
    "Key": 57,
    "DurationMs": 104,
    "Vel": 80
  },
  {
    "TimeMs": 35667,
    "Key": 62,
    "DurationMs": 104,
    "Vel": 80
  },
  {
    "TimeMs": 35777,
    "Key": 69,
    "DurationMs": 210,
    "Vel": 80
  },
  {
    "TimeMs": 35778,
    "Key": 74,
    "DurationMs": 210,
    "Vel": 80
  },
  {
    "TimeMs": 35779,
    "Key": 81,
    "DurationMs": 210,
    "Vel": 80
  },
  {
    "TimeMs": 35888,
    "Key": 45,
    "DurationMs": 104,
    "Vel": 80
  },
  {
    "TimeMs": 35889,
    "Key": 57,
    "DurationMs": 104,
    "Vel": 80
  },
  {
    "TimeMs": 35999,
    "Key": 74,
    "DurationMs": 104,
    "Vel": 80
  },
  {
    "TimeMs": 36000,
    "Key": 86,
    "DurationMs": 104,
    "Vel": 80
  },
  {
    "TimeMs": 36001,
    "Key": 31,
    "DurationMs": 208,
    "Vel": 80
  },
  {
    "TimeMs": 36002,
    "Key": 43,
    "DurationMs": 208,
    "Vel": 80
  },
  {
    "TimeMs": 36111,
    "Key": 82,
    "DurationMs": 221,
    "Vel": 108
  },
  {
    "TimeMs": 36112,
    "Key": 94,
    "DurationMs": 221,
    "Vel": 108
  },
  {
    "TimeMs": 36222,
    "Key": 55,
    "DurationMs": 104,
    "Vel": 80
  },
  {
    "TimeMs": 36334,
    "Key": 74,
    "DurationMs": 103,
    "Vel": 80
  },
  {
    "TimeMs": 36335,
    "Key": 86,
    "DurationMs": 103,
    "Vel": 80
  },
  {
    "TimeMs": 36336,
    "Key": 58,
    "DurationMs": 329,
    "Vel": 108
  },
  {
    "TimeMs": 36337,
    "Key": 62,
    "DurationMs": 330,
    "Vel": 108
  },
  {
    "TimeMs": 36337,
    "Key": 67,
    "DurationMs": 330,
    "Vel": 108
  },
  {
    "TimeMs": 36444,
    "Key": 79,
    "DurationMs": 110,
    "Vel": 108
  },
  {
    "TimeMs": 36445,
    "Key": 91,
    "DurationMs": 110,
    "Vel": 108
  },
  {
    "TimeMs": 36556,
    "Key": 86,
    "DurationMs": 103,
    "Vel": 80
  },
  {
    "TimeMs": 36666,
    "Key": 82,
    "DurationMs": 104,
    "Vel": 80
  },
  {
    "TimeMs": 36669,
    "Key": 43,
    "DurationMs": 102,
    "Vel": 80
  },
  {
    "TimeMs": 36777,
    "Key": 79,
    "DurationMs": 104,
    "Vel": 80
  },
  {
    "TimeMs": 36778,
    "Key": 50,
    "DurationMs": 104,
    "Vel": 80
  },
  {
    "TimeMs": 36779,
    "Key": 55,
    "DurationMs": 104,
    "Vel": 80
  },
  {
    "TimeMs": 36888,
    "Key": 41,
    "DurationMs": 104,
    "Vel": 80
  },
  {
    "TimeMs": 36889,
    "Key": 53,
    "DurationMs": 104,
    "Vel": 80
  },
  {
    "TimeMs": 36999,
    "Key": 41,
    "DurationMs": 210,
    "Vel": 80
  },
  {
    "TimeMs": 37000,
    "Key": 53,
    "DurationMs": 210,
    "Vel": 80
  },
  {
    "TimeMs": 37111,
    "Key": 62,
    "DurationMs": 210,
    "Vel": 80
  },
  {
    "TimeMs": 37111,
    "Key": 70,
    "DurationMs": 210,
    "Vel": 80
  },
  {
    "TimeMs": 37112,
    "Key": 74,
    "DurationMs": 210,
    "Vel": 80
  },
  {
    "TimeMs": 37222,
    "Key": 53,
    "DurationMs": 104,
    "Vel": 80
  },
  {
    "TimeMs": 37223,
    "Key": 60,
    "DurationMs": 104,
    "Vel": 80
  },
  {
    "TimeMs": 37333,
    "Key": 60,
    "DurationMs": 112,
    "Vel": 80
  },
  {
    "TimeMs": 37334,
    "Key": 70,
    "DurationMs": 209,
    "Vel": 80
  },
  {
    "TimeMs": 37335,
    "Key": 72,
    "DurationMs": 209,
    "Vel": 80
  },
  {
    "TimeMs": 37444,
    "Key": 53,
    "DurationMs": 105,
    "Vel": 80
  },
  {
    "TimeMs": 37446,
    "Key": 60,
    "DurationMs": 102,
    "Vel": 80
  },
  {
    "TimeMs": 37555,
    "Key": 62,
    "DurationMs": 210,
    "Vel": 80
  },
  {
    "TimeMs": 37556,
    "Key": 70,
    "DurationMs": 210,
    "Vel": 80
  },
  {
    "TimeMs": 37557,
    "Key": 74,
    "DurationMs": 210,
    "Vel": 80
  },
  {
    "TimeMs": 37666,
    "Key": 41,
    "DurationMs": 104,
    "Vel": 80
  },
  {
    "TimeMs": 37667,
    "Key": 53,
    "DurationMs": 104,
    "Vel": 80
  },
  {
    "TimeMs": 37777,
    "Key": 74,
    "DurationMs": 104,
    "Vel": 80
  },
  {
    "TimeMs": 37778,
    "Key": 86,
    "DurationMs": 104,
    "Vel": 80
  },
  {
    "TimeMs": 37779,
    "Key": 39,
    "DurationMs": 208,
    "Vel": 80
  },
  {
    "TimeMs": 37780,
    "Key": 51,
    "DurationMs": 208,
    "Vel": 80
  },
  {
    "TimeMs": 37888,
    "Key": 82,
    "DurationMs": 221,
    "Vel": 108
  },
  {
    "TimeMs": 37889,
    "Key": 94,
    "DurationMs": 221,
    "Vel": 108
  },
  {
    "TimeMs": 37999,
    "Key": 55,
    "DurationMs": 104,
    "Vel": 80
  },
  {
    "TimeMs": 38111,
    "Key": 74,
    "DurationMs": 103,
    "Vel": 80
  },
  {
    "TimeMs": 38112,
    "Key": 86,
    "DurationMs": 103,
    "Vel": 80
  },
  {
    "TimeMs": 38113,
    "Key": 58,
    "DurationMs": 329,
    "Vel": 108
  },
  {
    "TimeMs": 38114,
    "Key": 63,
    "DurationMs": 330,
    "Vel": 108
  },
  {
    "TimeMs": 38115,
    "Key": 67,
    "DurationMs": 330,
    "Vel": 108
  },
  {
    "TimeMs": 38222,
    "Key": 79,
    "DurationMs": 110,
    "Vel": 108
  },
  {
    "TimeMs": 38223,
    "Key": 91,
    "DurationMs": 110,
    "Vel": 108
  },
  {
    "TimeMs": 38334,
    "Key": 86,
    "DurationMs": 103,
    "Vel": 80
  },
  {
    "TimeMs": 38444,
    "Key": 82,
    "DurationMs": 104,
    "Vel": 80
  },
  {
    "TimeMs": 38447,
    "Key": 39,
    "DurationMs": 102,
    "Vel": 80
  },
  {
    "TimeMs": 38555,
    "Key": 79,
    "DurationMs": 104,
    "Vel": 80
  },
  {
    "TimeMs": 38556,
    "Key": 46,
    "DurationMs": 104,
    "Vel": 80
  },
  {
    "TimeMs": 38557,
    "Key": 51,
    "DurationMs": 104,
    "Vel": 80
  },
  {
    "TimeMs": 38666,
    "Key": 38,
    "DurationMs": 104,
    "Vel": 80
  },
  {
    "TimeMs": 38667,
    "Key": 50,
    "DurationMs": 104,
    "Vel": 80
  },
  {
    "TimeMs": 38777,
    "Key": 38,
    "DurationMs": 210,
    "Vel": 80
  },
  {
    "TimeMs": 38778,
    "Key": 50,
    "DurationMs": 210,
    "Vel": 80
  },
  {
    "TimeMs": 38888,
    "Key": 62,
    "DurationMs": 112,
    "Vel": 80
  },
  {
    "TimeMs": 38889,
    "Key": 66,
    "DurationMs": 209,
    "Vel": 80
  },
  {
    "TimeMs": 38890,
    "Key": 69,
    "DurationMs": 209,
    "Vel": 80
  },
  {
    "TimeMs": 38891,
    "Key": 74,
    "DurationMs": 209,
    "Vel": 80
  },
  {
    "TimeMs": 38999,
    "Key": 57,
    "DurationMs": 105,
    "Vel": 80
  },
  {
    "TimeMs": 39001,
    "Key": 62,
    "DurationMs": 102,
    "Vel": 80
  },
  {
    "TimeMs": 39111,
    "Key": 70,
    "DurationMs": 210,
    "Vel": 80
  },
  {
    "TimeMs": 39111,
    "Key": 74,
    "DurationMs": 210,
    "Vel": 80
  },
  {
    "TimeMs": 39112,
    "Key": 82,
    "DurationMs": 210,
    "Vel": 80
  },
  {
    "TimeMs": 39222,
    "Key": 57,
    "DurationMs": 104,
    "Vel": 80
  },
  {
    "TimeMs": 39223,
    "Key": 62,
    "DurationMs": 104,
    "Vel": 80
  },
  {
    "TimeMs": 39333,
    "Key": 69,
    "DurationMs": 210,
    "Vel": 80
  },
  {
    "TimeMs": 39334,
    "Key": 74,
    "DurationMs": 210,
    "Vel": 80
  },
  {
    "TimeMs": 39335,
    "Key": 81,
    "DurationMs": 210,
    "Vel": 80
  },
  {
    "TimeMs": 39444,
    "Key": 45,
    "DurationMs": 104,
    "Vel": 80
  },
  {
    "TimeMs": 39445,
    "Key": 57,
    "DurationMs": 104,
    "Vel": 80
  },
  {
    "TimeMs": 39555,
    "Key": 67,
    "DurationMs": 315,
    "Vel": 80
  },
  {
    "TimeMs": 39556,
    "Key": 70,
    "DurationMs": 315,
    "Vel": 80
  },
  {
    "TimeMs": 39557,
    "Key": 62,
    "DurationMs": 102,
    "Vel": 80
  },
  {
    "TimeMs": 39558,
    "Key": 43,
    "DurationMs": 102,
    "Vel": 80
  },
  {
    "TimeMs": 39559,
    "Key": 55,
    "DurationMs": 102,
    "Vel": 80
  },
  {
    "TimeMs": 39666,
    "Key": 55,
    "DurationMs": 104,
    "Vel": 80
  },
  {
    "TimeMs": 39667,
    "Key": 62,
    "DurationMs": 104,
    "Vel": 80
  },
  {
    "TimeMs": 39888,
    "Key": 67,
    "DurationMs": 210,
    "Vel": 80
  },
  {
    "TimeMs": 39889,
    "Key": 55,
    "DurationMs": 103,
    "Vel": 80
  },
  {
    "TimeMs": 39890,
    "Key": 62,
    "DurationMs": 103,
    "Vel": 80
  },
  {
    "TimeMs": 39999,
    "Key": 55,
    "DurationMs": 104,
    "Vel": 80
  },
  {
    "TimeMs": 40000,
    "Key": 62,
    "DurationMs": 104,
    "Vel": 80
  },
  {
    "TimeMs": 40222,
    "Key": 72,
    "DurationMs": 210,
    "Vel": 80
  },
  {
    "TimeMs": 40223,
    "Key": 55,
    "DurationMs": 103,
    "Vel": 80
  },
  {
    "TimeMs": 40224,
    "Key": 62,
    "DurationMs": 103,
    "Vel": 80
  },
  {
    "TimeMs": 40444,
    "Key": 67,
    "DurationMs": 315,
    "Vel": 78
  },
  {
    "TimeMs": 40445,
    "Key": 70,
    "DurationMs": 315,
    "Vel": 78
  },
  {
    "TimeMs": 40446,
    "Key": 55,
    "DurationMs": 102,
    "Vel": 78
  },
  {
    "TimeMs": 40447,
    "Key": 62,
    "DurationMs": 102,
    "Vel": 78
  },
  {
    "TimeMs": 40555,
    "Key": 55,
    "DurationMs": 104,
    "Vel": 77
  },
  {
    "TimeMs": 40556,
    "Key": 62,
    "DurationMs": 104,
    "Vel": 77
  },
  {
    "TimeMs": 40777,
    "Key": 67,
    "DurationMs": 210,
    "Vel": 75
  },
  {
    "TimeMs": 40778,
    "Key": 55,
    "DurationMs": 103,
    "Vel": 75
  },
  {
    "TimeMs": 40779,
    "Key": 62,
    "DurationMs": 103,
    "Vel": 75
  },
  {
    "TimeMs": 40888,
    "Key": 55,
    "DurationMs": 104,
    "Vel": 74
  },
  {
    "TimeMs": 40889,
    "Key": 62,
    "DurationMs": 104,
    "Vel": 74
  },
  {
    "TimeMs": 41111,
    "Key": 72,
    "DurationMs": 210,
    "Vel": 72
  },
  {
    "TimeMs": 41111,
    "Key": 81,
    "DurationMs": 210,
    "Vel": 72
  },
  {
    "TimeMs": 41112,
    "Key": 55,
    "DurationMs": 102,
    "Vel": 72
  },
  {
    "TimeMs": 41113,
    "Key": 62,
    "DurationMs": 102,
    "Vel": 72
  },
  {
    "TimeMs": 41333,
    "Key": 82,
    "DurationMs": 315,
    "Vel": 64
  },
  {
    "TimeMs": 41334,
    "Key": 70,
    "DurationMs": 631,
    "Vel": 64
  },
  {
    "TimeMs": 41335,
    "Key": 74,
    "DurationMs": 631,
    "Vel": 64
  },
  {
    "TimeMs": 41336,
    "Key": 55,
    "DurationMs": 631,
    "Vel": 64
  },
  {
    "TimeMs": 41336,
    "Key": 62,
    "DurationMs": 631,
    "Vel": 64
  },
  {
    "TimeMs": 41337,
    "Key": 69,
    "DurationMs": 631,
    "Vel": 64
  },
  {
    "TimeMs": 41666,
    "Key": 82,
    "DurationMs": 315,
    "Vel": 64
  },
  {
    "TimeMs": 41999,
    "Key": 82,
    "DurationMs": 632,
    "Vel": 64
  },
  {
    "TimeMs": 42000,
    "Key": 69,
    "DurationMs": 420,
    "Vel": 64
  },
  {
    "TimeMs": 42001,
    "Key": 70,
    "DurationMs": 420,
    "Vel": 64
  },
  {
    "TimeMs": 42002,
    "Key": 74,
    "DurationMs": 420,
    "Vel": 64
  },
  {
    "TimeMs": 42444,
    "Key": 67,
    "DurationMs": 210,
    "Vel": 64
  },
  {
    "TimeMs": 42666,
    "Key": 82,
    "DurationMs": 210,
    "Vel": 64
  },
  {
    "TimeMs": 42667,
    "Key": 70,
    "DurationMs": 420,
    "Vel": 64
  },
  {
    "TimeMs": 42668,
    "Key": 74,
    "DurationMs": 420,
    "Vel": 64
  },
  {
    "TimeMs": 42888,
    "Key": 86,
    "DurationMs": 210,
    "Vel": 64
  },
  {
    "TimeMs": 43111,
    "Key": 86,
    "DurationMs": 315,
    "Vel": 64
  },
  {
    "TimeMs": 43111,
    "Key": 74,
    "DurationMs": 631,
    "Vel": 64
  },
  {
    "TimeMs": 43112,
    "Key": 75,
    "DurationMs": 631,
    "Vel": 64
  },
  {
    "TimeMs": 43113,
    "Key": 79,
    "DurationMs": 631,
    "Vel": 64
  },
  {
    "TimeMs": 43114,
    "Key": 51,
    "DurationMs": 631,
    "Vel": 64
  },
  {
    "TimeMs": 43115,
    "Key": 58,
    "DurationMs": 631,
    "Vel": 64
  },
  {
    "TimeMs": 43444,
    "Key": 84,
    "DurationMs": 315,
    "Vel": 64
  },
  {
    "TimeMs": 43777,
    "Key": 84,
    "DurationMs": 843,
    "Vel": 64
  },
  {
    "TimeMs": 43778,
    "Key": 74,
    "DurationMs": 420,
    "Vel": 64
  },
  {
    "TimeMs": 43779,
    "Key": 75,
    "DurationMs": 420,
    "Vel": 64
  },
  {
    "TimeMs": 43780,
    "Key": 79,
    "DurationMs": 420,
    "Vel": 64
  },
  {
    "TimeMs": 43781,
    "Key": 70,
    "DurationMs": 420,
    "Vel": 64
  },
  {
    "TimeMs": 44222,
    "Key": 63,
    "DurationMs": 210,
    "Vel": 64
  },
  {
    "TimeMs": 44444,
    "Key": 67,
    "DurationMs": 421,
    "Vel": 64
  },
  {
    "TimeMs": 44445,
    "Key": 70,
    "DurationMs": 421,
    "Vel": 64
  },
  {
    "TimeMs": 44666,
    "Key": 82,
    "DurationMs": 210,
    "Vel": 64
  },
  {
    "TimeMs": 44888,
    "Key": 84,
    "DurationMs": 315,
    "Vel": 64
  },
  {
    "TimeMs": 44889,
    "Key": 72,
    "DurationMs": 631,
    "Vel": 64
  },
  {
    "TimeMs": 44890,
    "Key": 77,
    "DurationMs": 631,
    "Vel": 64
  },
  {
    "TimeMs": 44891,
    "Key": 53,
    "DurationMs": 631,
    "Vel": 64
  },
  {
    "TimeMs": 44892,
    "Key": 60,
    "DurationMs": 631,
    "Vel": 64
  },
  {
    "TimeMs": 45222,
    "Key": 82,
    "DurationMs": 315,
    "Vel": 64
  },
  {
    "TimeMs": 45555,
    "Key": 81,
    "DurationMs": 421,
    "Vel": 64
  },
  {
    "TimeMs": 45556,
    "Key": 70,
    "DurationMs": 421,
    "Vel": 64
  },
  {
    "TimeMs": 45557,
    "Key": 72,
    "DurationMs": 421,
    "Vel": 64
  },
  {
    "TimeMs": 45558,
    "Key": 77,
    "DurationMs": 421,
    "Vel": 64
  },
  {
    "TimeMs": 45999,
    "Key": 77,
    "DurationMs": 421,
    "Vel": 64
  },
  {
    "TimeMs": 46000,
    "Key": 65,
    "DurationMs": 209,
    "Vel": 64
  },
  {
    "TimeMs": 46222,
    "Key": 70,
    "DurationMs": 421,
    "Vel": 64
  },
  {
    "TimeMs": 46223,
    "Key": 72,
    "DurationMs": 421,
    "Vel": 64
  },
  {
    "TimeMs": 46444,
    "Key": 74,
    "DurationMs": 1476,
    "Vel": 64
  },
  {
    "TimeMs": 46666,
    "Key": 69,
    "DurationMs": 632,
    "Vel": 64
  },
  {
    "TimeMs": 46667,
    "Key": 70,
    "DurationMs": 632,
    "Vel": 64
  },
  {
    "TimeMs": 46668,
    "Key": 65,
    "DurationMs": 632,
    "Vel": 64
  },
  {
    "TimeMs": 46669,
    "Key": 58,
    "DurationMs": 1262,
    "Vel": 64
  },
  {
    "TimeMs": 47333,
    "Key": 69,
    "DurationMs": 632,
    "Vel": 64
  },
  {
    "TimeMs": 47334,
    "Key": 70,
    "DurationMs": 632,
    "Vel": 64
  },
  {
    "TimeMs": 47335,
    "Key": 65,
    "DurationMs": 632,
    "Vel": 64
  },
  {
    "TimeMs": 47999,
    "Key": 57,
    "DurationMs": 421,
    "Vel": 64
  },
  {
    "TimeMs": 48222,
    "Key": 81,
    "DurationMs": 210,
    "Vel": 64
  },
  {
    "TimeMs": 48444,
    "Key": 82,
    "DurationMs": 210,
    "Vel": 64
  },
  {
    "TimeMs": 48445,
    "Key": 70,
    "DurationMs": 631,
    "Vel": 64
  },
  {
    "TimeMs": 48446,
    "Key": 74,
    "DurationMs": 631,
    "Vel": 64
  },
  {
    "TimeMs": 48447,
    "Key": 55,
    "DurationMs": 631,
    "Vel": 64
  },
  {
    "TimeMs": 48448,
    "Key": 62,
    "DurationMs": 631,
    "Vel": 64
  },
  {
    "TimeMs": 48449,
    "Key": 69,
    "DurationMs": 631,
    "Vel": 64
  },
  {
    "TimeMs": 48666,
    "Key": 82,
    "DurationMs": 104,
    "Vel": 64
  },
  {
    "TimeMs": 48777,
    "Key": 82,
    "DurationMs": 737,
    "Vel": 64
  },
  {
    "TimeMs": 49111,
    "Key": 69,
    "DurationMs": 421,
    "Vel": 64
  },
  {
    "TimeMs": 49111,
    "Key": 70,
    "DurationMs": 421,
    "Vel": 64
  },
  {
    "TimeMs": 49112,
    "Key": 74,
    "DurationMs": 421,
    "Vel": 64
  },
  {
    "TimeMs": 49555,
    "Key": 82,
    "DurationMs": 421,
    "Vel": 64
  },
  {
    "TimeMs": 49556,
    "Key": 67,
    "DurationMs": 209,
    "Vel": 64
  },
  {
    "TimeMs": 49777,
    "Key": 70,
    "DurationMs": 421,
    "Vel": 64
  },
  {
    "TimeMs": 49778,
    "Key": 74,
    "DurationMs": 421,
    "Vel": 64
  },
  {
    "TimeMs": 49999,
    "Key": 86,
    "DurationMs": 210,
    "Vel": 64
  },
  {
    "TimeMs": 50222,
    "Key": 86,
    "DurationMs": 315,
    "Vel": 64
  },
  {
    "TimeMs": 50223,
    "Key": 74,
    "DurationMs": 631,
    "Vel": 64
  },
  {
    "TimeMs": 50224,
    "Key": 75,
    "DurationMs": 631,
    "Vel": 64
  },
  {
    "TimeMs": 50224,
    "Key": 79,
    "DurationMs": 631,
    "Vel": 64
  },
  {
    "TimeMs": 50225,
    "Key": 51,
    "DurationMs": 631,
    "Vel": 64
  },
  {
    "TimeMs": 50226,
    "Key": 58,
    "DurationMs": 631,
    "Vel": 64
  },
  {
    "TimeMs": 50555,
    "Key": 84,
    "DurationMs": 315,
    "Vel": 64
  },
  {
    "TimeMs": 50888,
    "Key": 74,
    "DurationMs": 421,
    "Vel": 64
  },
  {
    "TimeMs": 50889,
    "Key": 75,
    "DurationMs": 421,
    "Vel": 64
  },
  {
    "TimeMs": 50890,
    "Key": 79,
    "DurationMs": 421,
    "Vel": 64
  },
  {
    "TimeMs": 50891,
    "Key": 84,
    "DurationMs": 421,
    "Vel": 64
  },
  {
    "TimeMs": 50892,
    "Key": 70,
    "DurationMs": 421,
    "Vel": 64
  },
  {
    "TimeMs": 51333,
    "Key": 82,
    "DurationMs": 632,
    "Vel": 64
  },
  {
    "TimeMs": 51334,
    "Key": 63,
    "DurationMs": 209,
    "Vel": 64
  },
  {
    "TimeMs": 51555,
    "Key": 67,
    "DurationMs": 421,
    "Vel": 64
  },
  {
    "TimeMs": 51556,
    "Key": 70,
    "DurationMs": 421,
    "Vel": 64
  },
  {
    "TimeMs": 51999,
    "Key": 86,
    "DurationMs": 421,
    "Vel": 64
  },
  {
    "TimeMs": 52000,
    "Key": 74,
    "DurationMs": 631,
    "Vel": 64
  },
  {
    "TimeMs": 52001,
    "Key": 77,
    "DurationMs": 631,
    "Vel": 64
  },
  {
    "TimeMs": 52002,
    "Key": 82,
    "DurationMs": 631,
    "Vel": 64
  },
  {
    "TimeMs": 52003,
    "Key": 53,
    "DurationMs": 631,
    "Vel": 64
  },
  {
    "TimeMs": 52004,
    "Key": 60,
    "DurationMs": 631,
    "Vel": 64
  },
  {
    "TimeMs": 52444,
    "Key": 84,
    "DurationMs": 210,
    "Vel": 64
  },
  {
    "TimeMs": 52666,
    "Key": 84,
    "DurationMs": 632,
    "Vel": 64
  },
  {
    "TimeMs": 52667,
    "Key": 74,
    "DurationMs": 420,
    "Vel": 64
  },
  {
    "TimeMs": 52668,
    "Key": 77,
    "DurationMs": 420,
    "Vel": 64
  },
  {
    "TimeMs": 52669,
    "Key": 69,
    "DurationMs": 420,
    "Vel": 64
  },
  {
    "TimeMs": 52670,
    "Key": 72,
    "DurationMs": 420,
    "Vel": 64
  },
  {
    "TimeMs": 53111,
    "Key": 65,
    "DurationMs": 210,
    "Vel": 64
  },
  {
    "TimeMs": 53333,
    "Key": 81,
    "DurationMs": 210,
    "Vel": 64
  },
  {
    "TimeMs": 53334,
    "Key": 69,
    "DurationMs": 420,
    "Vel": 64
  },
  {
    "TimeMs": 53335,
    "Key": 72,
    "DurationMs": 420,
    "Vel": 64
  },
  {
    "TimeMs": 53555,
    "Key": 82,
    "DurationMs": 843,
    "Vel": 64
  },
  {
    "TimeMs": 53777,
    "Key": 65,
    "DurationMs": 632,
    "Vel": 64
  },
  {
    "TimeMs": 53778,
    "Key": 70,
    "DurationMs": 632,
    "Vel": 64
  },
  {
    "TimeMs": 53779,
    "Key": 74,
    "DurationMs": 632,
    "Vel": 64
  },
  {
    "TimeMs": 53780,
    "Key": 58,
    "DurationMs": 1262,
    "Vel": 64
  },
  {
    "TimeMs": 54444,
    "Key": 62,
    "DurationMs": 210,
    "Vel": 64
  },
  {
    "TimeMs": 54666,
    "Key": 60,
    "DurationMs": 421,
    "Vel": 64
  },
  {
    "TimeMs": 55111,
    "Key": 57,
    "DurationMs": 421,
    "Vel": 64
  },
  {
    "TimeMs": 55333,
    "Key": 65,
    "DurationMs": 210,
    "Vel": 64
  },
  {
    "TimeMs": 55555,
    "Key": 65,
    "DurationMs": 210,
    "Vel": 70
  },
  {
    "TimeMs": 55556,
    "Key": 43,
    "DurationMs": 103,
    "Vel": 70
  },
  {
    "TimeMs": 55666,
    "Key": 55,
    "DurationMs": 104,
    "Vel": 70
  },
  {
    "TimeMs": 55777,
    "Key": 62,
    "DurationMs": 104,
    "Vel": 70
  },
  {
    "TimeMs": 55778,
    "Key": 53,
    "DurationMs": 104,
    "Vel": 70
  },
  {
    "TimeMs": 55888,
    "Key": 62,
    "DurationMs": 104,
    "Vel": 70
  },
  {
    "TimeMs": 55889,
    "Key": 55,
    "DurationMs": 104,
    "Vel": 70
  },
  {
    "TimeMs": 55999,
    "Key": 50,
    "DurationMs": 104,
    "Vel": 70
  },
  {
    "TimeMs": 56111,
    "Key": 53,
    "DurationMs": 104,
    "Vel": 70
  },
  {
    "TimeMs": 56222,
    "Key": 62,
    "DurationMs": 210,
    "Vel": 70
  },
  {
    "TimeMs": 56223,
    "Key": 69,
    "DurationMs": 210,
    "Vel": 70
  },
  {
    "TimeMs": 56224,
    "Key": 55,
    "DurationMs": 102,
    "Vel": 70
  },
  {
    "TimeMs": 56333,
    "Key": 57,
    "DurationMs": 104,
    "Vel": 70
  },
  {
    "TimeMs": 56444,
    "Key": 60,
    "DurationMs": 210,
    "Vel": 70
  },
  {
    "TimeMs": 56445,
    "Key": 70,
    "DurationMs": 210,
    "Vel": 70
  },
  {
    "TimeMs": 56446,
    "Key": 58,
    "DurationMs": 102,
    "Vel": 70
  },
  {
    "TimeMs": 56555,
    "Key": 55,
    "DurationMs": 104,
    "Vel": 70
  },
  {
    "TimeMs": 56666,
    "Key": 62,
    "DurationMs": 104,
    "Vel": 70
  },
  {
    "TimeMs": 56667,
    "Key": 69,
    "DurationMs": 104,
    "Vel": 70
  },
  {
    "TimeMs": 56668,
    "Key": 53,
    "DurationMs": 104,
    "Vel": 70
  },
  {
    "TimeMs": 56777,
    "Key": 62,
    "DurationMs": 104,
    "Vel": 70
  },
  {
    "TimeMs": 56778,
    "Key": 69,
    "DurationMs": 104,
    "Vel": 70
  },
  {
    "TimeMs": 56779,
    "Key": 55,
    "DurationMs": 104,
    "Vel": 70
  },
  {
    "TimeMs": 56888,
    "Key": 50,
    "DurationMs": 104,
    "Vel": 70
  },
  {
    "TimeMs": 56999,
    "Key": 55,
    "DurationMs": 104,
    "Vel": 70
  },
  {
    "TimeMs": 57111,
    "Key": 65,
    "DurationMs": 210,
    "Vel": 70
  },
  {
    "TimeMs": 57111,
    "Key": 53,
    "DurationMs": 103,
    "Vel": 70
  },
  {
    "TimeMs": 57222,
    "Key": 55,
    "DurationMs": 104,
    "Vel": 70
  },
  {
    "TimeMs": 57333,
    "Key": 65,
    "DurationMs": 210,
    "Vel": 70
  },
  {
    "TimeMs": 57334,
    "Key": 43,
    "DurationMs": 103,
    "Vel": 70
  },
  {
    "TimeMs": 57444,
    "Key": 55,
    "DurationMs": 104,
    "Vel": 70
  },
  {
    "TimeMs": 57555,
    "Key": 62,
    "DurationMs": 104,
    "Vel": 70
  },
  {
    "TimeMs": 57556,
    "Key": 53,
    "DurationMs": 104,
    "Vel": 70
  },
  {
    "TimeMs": 57666,
    "Key": 62,
    "DurationMs": 104,
    "Vel": 70
  },
  {
    "TimeMs": 57667,
    "Key": 55,
    "DurationMs": 104,
    "Vel": 70
  },
  {
    "TimeMs": 57777,
    "Key": 50,
    "DurationMs": 104,
    "Vel": 70
  },
  {
    "TimeMs": 57888,
    "Key": 53,
    "DurationMs": 104,
    "Vel": 70
  },
  {
    "TimeMs": 57999,
    "Key": 62,
    "DurationMs": 210,
    "Vel": 70
  },
  {
    "TimeMs": 58000,
    "Key": 69,
    "DurationMs": 210,
    "Vel": 70
  },
  {
    "TimeMs": 58001,
    "Key": 55,
    "DurationMs": 102,
    "Vel": 70
  },
  {
    "TimeMs": 58111,
    "Key": 57,
    "DurationMs": 104,
    "Vel": 70
  },
  {
    "TimeMs": 58222,
    "Key": 60,
    "DurationMs": 210,
    "Vel": 70
  },
  {
    "TimeMs": 58223,
    "Key": 70,
    "DurationMs": 210,
    "Vel": 70
  },
  {
    "TimeMs": 58224,
    "Key": 58,
    "DurationMs": 102,
    "Vel": 70
  },
  {
    "TimeMs": 58333,
    "Key": 55,
    "DurationMs": 104,
    "Vel": 70
  },
  {
    "TimeMs": 58444,
    "Key": 62,
    "DurationMs": 104,
    "Vel": 70
  },
  {
    "TimeMs": 58445,
    "Key": 69,
    "DurationMs": 104,
    "Vel": 70
  },
  {
    "TimeMs": 58446,
    "Key": 53,
    "DurationMs": 104,
    "Vel": 70
  },
  {
    "TimeMs": 58555,
    "Key": 62,
    "DurationMs": 104,
    "Vel": 70
  },
  {
    "TimeMs": 58556,
    "Key": 69,
    "DurationMs": 104,
    "Vel": 70
  },
  {
    "TimeMs": 58557,
    "Key": 55,
    "DurationMs": 104,
    "Vel": 70
  },
  {
    "TimeMs": 58666,
    "Key": 50,
    "DurationMs": 104,
    "Vel": 70
  },
  {
    "TimeMs": 58777,
    "Key": 55,
    "DurationMs": 104,
    "Vel": 70
  },
  {
    "TimeMs": 58888,
    "Key": 65,
    "DurationMs": 210,
    "Vel": 70
  },
  {
    "TimeMs": 58889,
    "Key": 53,
    "DurationMs": 103,
    "Vel": 70
  },
  {
    "TimeMs": 58999,
    "Key": 55,
    "DurationMs": 104,
    "Vel": 70
  },
  {
    "TimeMs": 59111,
    "Key": 65,
    "DurationMs": 210,
    "Vel": 70
  },
  {
    "TimeMs": 59111,
    "Key": 43,
    "DurationMs": 103,
    "Vel": 70
  },
  {
    "TimeMs": 59222,
    "Key": 55,
    "DurationMs": 104,
    "Vel": 70
  },
  {
    "TimeMs": 59333,
    "Key": 62,
    "DurationMs": 104,
    "Vel": 70
  },
  {
    "TimeMs": 59334,
    "Key": 53,
    "DurationMs": 104,
    "Vel": 70
  },
  {
    "TimeMs": 59444,
    "Key": 62,
    "DurationMs": 104,
    "Vel": 70
  },
  {
    "TimeMs": 59445,
    "Key": 55,
    "DurationMs": 104,
    "Vel": 70
  },
  {
    "TimeMs": 59555,
    "Key": 50,
    "DurationMs": 104,
    "Vel": 70
  },
  {
    "TimeMs": 59666,
    "Key": 53,
    "DurationMs": 104,
    "Vel": 70
  },
  {
    "TimeMs": 59777,
    "Key": 62,
    "DurationMs": 210,
    "Vel": 70
  },
  {
    "TimeMs": 59778,
    "Key": 65,
    "DurationMs": 210,
    "Vel": 70
  },
  {
    "TimeMs": 59779,
    "Key": 69,
    "DurationMs": 210,
    "Vel": 70
  },
  {
    "TimeMs": 59780,
    "Key": 74,
    "DurationMs": 210,
    "Vel": 70
  },
  {
    "TimeMs": 59781,
    "Key": 55,
    "DurationMs": 100,
    "Vel": 70
  },
  {
    "TimeMs": 59888,
    "Key": 57,
    "DurationMs": 104,
    "Vel": 70
  },
  {
    "TimeMs": 59999,
    "Key": 60,
    "DurationMs": 210,
    "Vel": 70
  },
  {
    "TimeMs": 60000,
    "Key": 65,
    "DurationMs": 210,
    "Vel": 70
  },
  {
    "TimeMs": 60001,
    "Key": 70,
    "DurationMs": 210,
    "Vel": 70
  },
  {
    "TimeMs": 60002,
    "Key": 72,
    "DurationMs": 210,
    "Vel": 70
  },
  {
    "TimeMs": 60003,
    "Key": 58,
    "DurationMs": 210,
    "Vel": 70
  },
  {
    "TimeMs": 60333,
    "Key": 62,
    "DurationMs": 210,
    "Vel": 96
  },
  {
    "TimeMs": 60334,
    "Key": 65,
    "DurationMs": 210,
    "Vel": 96
  },
  {
    "TimeMs": 60335,
    "Key": 69,
    "DurationMs": 210,
    "Vel": 96
  },
  {
    "TimeMs": 60336,
    "Key": 74,
    "DurationMs": 210,
    "Vel": 96
  },
  {
    "TimeMs": 60336,
    "Key": 43,
    "DurationMs": 210,
    "Vel": 70
  },
  {
    "TimeMs": 60337,
    "Key": 55,
    "DurationMs": 210,
    "Vel": 70
  },
  {
    "TimeMs": 60666,
    "Key": 62,
    "DurationMs": 632,
    "Vel": 96
  },
  {
    "TimeMs": 60667,
    "Key": 65,
    "DurationMs": 632,
    "Vel": 96
  },
  {
    "TimeMs": 60668,
    "Key": 69,
    "DurationMs": 632,
    "Vel": 96
  },
  {
    "TimeMs": 60669,
    "Key": 74,
    "DurationMs": 632,
    "Vel": 96
  },
  {
    "TimeMs": 60670,
    "Key": 43,
    "DurationMs": 632,
    "Vel": 70
  },
  {
    "TimeMs": 60671,
    "Key": 55,
    "DurationMs": 632,
    "Vel": 70
  },
  {
    "TimeMs": 61666,
    "Key": 74,
    "DurationMs": 550,
    "Vel": 112
  },
  {
    "TimeMs": 61667,
    "Key": 55,
    "DurationMs": 553,
    "Vel": 112
  },
  {
    "TimeMs": 61712,
    "Key": 77,
    "DurationMs": 501,
    "Vel": 112
  },
  {
    "TimeMs": 61713,
    "Key": 62,
    "DurationMs": 504,
    "Vel": 112
  },
  {
    "TimeMs": 61761,
    "Key": 82,
    "DurationMs": 454,
    "Vel": 112
  },
  {
    "TimeMs": 61761,
    "Key": 65,
    "DurationMs": 457,
    "Vel": 112
  },
  {
    "TimeMs": 61808,
    "Key": 86,
    "DurationMs": 408,
    "Vel": 112
  },
  {
    "TimeMs": 61809,
    "Key": 70,
    "DurationMs": 411,
    "Vel": 112
  },
  {
    "TimeMs": 62222,
    "Key": 72,
    "DurationMs": 421,
    "Vel": 108
  },
  {
    "TimeMs": 62223,
    "Key": 77,
    "DurationMs": 421,
    "Vel": 108
  },
  {
    "TimeMs": 62224,
    "Key": 81,
    "DurationMs": 421,
    "Vel": 108
  },
  {
    "TimeMs": 62224,
    "Key": 84,
    "DurationMs": 421,
    "Vel": 108
  },
  {
    "TimeMs": 62225,
    "Key": 41,
    "DurationMs": 421,
    "Vel": 96
  },
  {
    "TimeMs": 62226,
    "Key": 53,
    "DurationMs": 421,
    "Vel": 96
  },
  {
    "TimeMs": 62666,
    "Key": 74,
    "DurationMs": 315,
    "Vel": 96
  },
  {
    "TimeMs": 62667,
    "Key": 77,
    "DurationMs": 315,
    "Vel": 96
  },
  {
    "TimeMs": 62668,
    "Key": 82,
    "DurationMs": 315,
    "Vel": 96
  },
  {
    "TimeMs": 62669,
    "Key": 86,
    "DurationMs": 315,
    "Vel": 96
  },
  {
    "TimeMs": 62670,
    "Key": 27,
    "DurationMs": 206,
    "Vel": 96
  },
  {
    "TimeMs": 62671,
    "Key": 39,
    "DurationMs": 206,
    "Vel": 96
  },
  {
    "TimeMs": 62888,
    "Key": 39,
    "DurationMs": 104,
    "Vel": 96
  },
  {
    "TimeMs": 62999,
    "Key": 72,
    "DurationMs": 315,
    "Vel": 96
  },
  {
    "TimeMs": 63000,
    "Key": 75,
    "DurationMs": 315,
    "Vel": 96
  },
  {
    "TimeMs": 63001,
    "Key": 79,
    "DurationMs": 315,
    "Vel": 96
  },
  {
    "TimeMs": 63002,
    "Key": 84,
    "DurationMs": 315,
    "Vel": 96
  },
  {
    "TimeMs": 63003,
    "Key": 46,
    "DurationMs": 206,
    "Vel": 96
  },
  {
    "TimeMs": 63004,
    "Key": 51,
    "DurationMs": 206,
    "Vel": 96
  },
  {
    "TimeMs": 63222,
    "Key": 39,
    "DurationMs": 104,
    "Vel": 96
  },
  {
    "TimeMs": 63333,
    "Key": 72,
    "DurationMs": 210,
    "Vel": 96
  },
  {
    "TimeMs": 63334,
    "Key": 75,
    "DurationMs": 210,
    "Vel": 96
  },
  {
    "TimeMs": 63335,
    "Key": 79,
    "DurationMs": 210,
    "Vel": 96
  },
  {
    "TimeMs": 63336,
    "Key": 84,
    "DurationMs": 210,
    "Vel": 96
  },
  {
    "TimeMs": 63336,
    "Key": 46,
    "DurationMs": 210,
    "Vel": 96
  },
  {
    "TimeMs": 63337,
    "Key": 51,
    "DurationMs": 210,
    "Vel": 96
  },
  {
    "TimeMs": 63555,
    "Key": 72,
    "DurationMs": 315,
    "Vel": 96
  },
  {
    "TimeMs": 63556,
    "Key": 75,
    "DurationMs": 315,
    "Vel": 96
  },
  {
    "TimeMs": 63557,
    "Key": 79,
    "DurationMs": 315,
    "Vel": 96
  },
  {
    "TimeMs": 63558,
    "Key": 84,
    "DurationMs": 315,
    "Vel": 96
  },
  {
    "TimeMs": 63559,
    "Key": 63,
    "DurationMs": 100,
    "Vel": 96
  },
  {
    "TimeMs": 63666,
    "Key": 58,
    "DurationMs": 104,
    "Vel": 96
  },
  {
    "TimeMs": 63777,
    "Key": 55,
    "DurationMs": 104,
    "Vel": 96
  },
  {
    "TimeMs": 63888,
    "Key": 70,
    "DurationMs": 315,
    "Vel": 96
  },
  {
    "TimeMs": 63889,
    "Key": 74,
    "DurationMs": 315,
    "Vel": 96
  },
  {
    "TimeMs": 63890,
    "Key": 79,
    "DurationMs": 315,
    "Vel": 96
  },
  {
    "TimeMs": 63891,
    "Key": 82,
    "DurationMs": 315,
    "Vel": 96
  },
  {
    "TimeMs": 63892,
    "Key": 51,
    "DurationMs": 100,
    "Vel": 96
  },
  {
    "TimeMs": 63999,
    "Key": 46,
    "DurationMs": 104,
    "Vel": 96
  },
  {
    "TimeMs": 64111,
    "Key": 39,
    "DurationMs": 104,
    "Vel": 96
  },
  {
    "TimeMs": 64222,
    "Key": 69,
    "DurationMs": 421,
    "Vel": 96
  },
  {
    "TimeMs": 64223,
    "Key": 72,
    "DurationMs": 421,
    "Vel": 96
  },
  {
    "TimeMs": 64224,
    "Key": 77,
    "DurationMs": 421,
    "Vel": 96
  },
  {
    "TimeMs": 64224,
    "Key": 81,
    "DurationMs": 421,
    "Vel": 96
  },
  {
    "TimeMs": 64225,
    "Key": 27,
    "DurationMs": 206,
    "Vel": 96
  },
  {
    "TimeMs": 64444,
    "Key": 29,
    "DurationMs": 210,
    "Vel": 96
  },
  {
    "TimeMs": 64445,
    "Key": 41,
    "DurationMs": 210,
    "Vel": 96
  },
  {
    "TimeMs": 64666,
    "Key": 70,
    "DurationMs": 421,
    "Vel": 96
  },
  {
    "TimeMs": 64667,
    "Key": 74,
    "DurationMs": 421,
    "Vel": 96
  },
  {
    "TimeMs": 64668,
    "Key": 77,
    "DurationMs": 421,
    "Vel": 96
  },
  {
    "TimeMs": 64669,
    "Key": 82,
    "DurationMs": 421,
    "Vel": 96
  },
  {
    "TimeMs": 64670,
    "Key": 41,
    "DurationMs": 100,
    "Vel": 96
  },
  {
    "TimeMs": 64777,
    "Key": 48,
    "DurationMs": 210,
    "Vel": 96
  },
  {
    "TimeMs": 64778,
    "Key": 53,
    "DurationMs": 210,
    "Vel": 96
  },
  {
    "TimeMs": 64999,
    "Key": 41,
    "DurationMs": 104,
    "Vel": 96
  },
  {
    "TimeMs": 65111,
    "Key": 69,
    "DurationMs": 421,
    "Vel": 96
  },
  {
    "TimeMs": 65111,
    "Key": 72,
    "DurationMs": 421,
    "Vel": 96
  },
  {
    "TimeMs": 65112,
    "Key": 77,
    "DurationMs": 421,
    "Vel": 96
  },
  {
    "TimeMs": 65113,
    "Key": 81,
    "DurationMs": 421,
    "Vel": 96
  },
  {
    "TimeMs": 65114,
    "Key": 48,
    "DurationMs": 206,
    "Vel": 96
  },
  {
    "TimeMs": 65115,
    "Key": 53,
    "DurationMs": 206,
    "Vel": 96
  },
  {
    "TimeMs": 65333,
    "Key": 65,
    "DurationMs": 104,
    "Vel": 96
  },
  {
    "TimeMs": 65444,
    "Key": 60,
    "DurationMs": 104,
    "Vel": 96
  },
  {
    "TimeMs": 65555,
    "Key": 69,
    "DurationMs": 632,
    "Vel": 96
  },
  {
    "TimeMs": 65556,
    "Key": 72,
    "DurationMs": 632,
    "Vel": 96
  },
  {
    "TimeMs": 65557,
    "Key": 77,
    "DurationMs": 632,
    "Vel": 96
  },
  {
    "TimeMs": 65558,
    "Key": 57,
    "DurationMs": 101,
    "Vel": 96
  },
  {
    "TimeMs": 65666,
    "Key": 53,
    "DurationMs": 104,
    "Vel": 96
  },
  {
    "TimeMs": 65777,
    "Key": 48,
    "DurationMs": 104,
    "Vel": 96
  },
  {
    "TimeMs": 65888,
    "Key": 41,
    "DurationMs": 104,
    "Vel": 96
  },
  {
    "TimeMs": 65999,
    "Key": 29,
    "DurationMs": 210,
    "Vel": 96
  },
  {
    "TimeMs": 66222,
    "Key": 74,
    "DurationMs": 315,
    "Vel": 96
  },
  {
    "TimeMs": 66223,
    "Key": 77,
    "DurationMs": 315,
    "Vel": 96
  },
  {
    "TimeMs": 66224,
    "Key": 82,
    "DurationMs": 315,
    "Vel": 96
  },
  {
    "TimeMs": 66224,
    "Key": 86,
    "DurationMs": 315,
    "Vel": 96
  },
  {
    "TimeMs": 66225,
    "Key": 31,
    "DurationMs": 206,
    "Vel": 96
  },
  {
    "TimeMs": 66226,
    "Key": 43,
    "DurationMs": 206,
    "Vel": 96
  },
  {
    "TimeMs": 66444,
    "Key": 43,
    "DurationMs": 104,
    "Vel": 96
  },
  {
    "TimeMs": 66555,
    "Key": 72,
    "DurationMs": 315,
    "Vel": 96
  },
  {
    "TimeMs": 66556,
    "Key": 75,
    "DurationMs": 315,
    "Vel": 96
  },
  {
    "TimeMs": 66557,
    "Key": 79,
    "DurationMs": 315,
    "Vel": 96
  },
  {
    "TimeMs": 66558,
    "Key": 84,
    "DurationMs": 315,
    "Vel": 96
  },
  {
    "TimeMs": 66559,
    "Key": 50,
    "DurationMs": 206,
    "Vel": 96
  },
  {
    "TimeMs": 66560,
    "Key": 55,
    "DurationMs": 206,
    "Vel": 96
  },
  {
    "TimeMs": 66777,
    "Key": 43,
    "DurationMs": 104,
    "Vel": 96
  },
  {
    "TimeMs": 66888,
    "Key": 72,
    "DurationMs": 421,
    "Vel": 96
  },
  {
    "TimeMs": 66889,
    "Key": 75,
    "DurationMs": 421,
    "Vel": 96
  },
  {
    "TimeMs": 66890,
    "Key": 79,
    "DurationMs": 421,
    "Vel": 96
  },
  {
    "TimeMs": 66891,
    "Key": 84,
    "DurationMs": 421,
    "Vel": 96
  },
  {
    "TimeMs": 66892,
    "Key": 50,
    "DurationMs": 206,
    "Vel": 96
  },
  {
    "TimeMs": 66893,
    "Key": 55,
    "DurationMs": 206,
    "Vel": 96
  },
  {
    "TimeMs": 67111,
    "Key": 67,
    "DurationMs": 104,
    "Vel": 96
  },
  {
    "TimeMs": 67222,
    "Key": 62,
    "DurationMs": 104,
    "Vel": 96
  },
  {
    "TimeMs": 67333,
    "Key": 70,
    "DurationMs": 421,
    "Vel": 96
  },
  {
    "TimeMs": 67334,
    "Key": 74,
    "DurationMs": 421,
    "Vel": 96
  },
  {
    "TimeMs": 67335,
    "Key": 79,
    "DurationMs": 421,
    "Vel": 96
  },
  {
    "TimeMs": 67336,
    "Key": 82,
    "DurationMs": 421,
    "Vel": 96
  },
  {
    "TimeMs": 67336,
    "Key": 58,
    "DurationMs": 100,
    "Vel": 96
  },
  {
    "TimeMs": 67444,
    "Key": 55,
    "DurationMs": 104,
    "Vel": 96
  },
  {
    "TimeMs": 67555,
    "Key": 50,
    "DurationMs": 104,
    "Vel": 96
  },
  {
    "TimeMs": 67666,
    "Key": 43,
    "DurationMs": 104,
    "Vel": 96
  },
  {
    "TimeMs": 67777,
    "Key": 70,
    "DurationMs": 210,
    "Vel": 96
  },
  {
    "TimeMs": 67778,
    "Key": 82,
    "DurationMs": 210,
    "Vel": 96
  },
  {
    "TimeMs": 67779,
    "Key": 31,
    "DurationMs": 210,
    "Vel": 96
  },
  {
    "TimeMs": 67999,
    "Key": 69,
    "DurationMs": 315,
    "Vel": 96
  },
  {
    "TimeMs": 68000,
    "Key": 72,
    "DurationMs": 315,
    "Vel": 96
  },
  {
    "TimeMs": 68001,
    "Key": 77,
    "DurationMs": 315,
    "Vel": 96
  },
  {
    "TimeMs": 68002,
    "Key": 81,
    "DurationMs": 315,
    "Vel": 96
  },
  {
    "TimeMs": 68003,
    "Key": 26,
    "DurationMs": 206,
    "Vel": 96
  },
  {
    "TimeMs": 68004,
    "Key": 38,
    "DurationMs": 206,
    "Vel": 96
  },
  {
    "TimeMs": 68222,
    "Key": 38,
    "DurationMs": 104,
    "Vel": 96
  },
  {
    "TimeMs": 68333,
    "Key": 70,
    "DurationMs": 315,
    "Vel": 96
  },
  {
    "TimeMs": 68334,
    "Key": 74,
    "DurationMs": 315,
    "Vel": 96
  },
  {
    "TimeMs": 68335,
    "Key": 77,
    "DurationMs": 315,
    "Vel": 96
  },
  {
    "TimeMs": 68336,
    "Key": 82,
    "DurationMs": 315,
    "Vel": 96
  },
  {
    "TimeMs": 68336,
    "Key": 45,
    "DurationMs": 206,
    "Vel": 96
  },
  {
    "TimeMs": 68337,
    "Key": 50,
    "DurationMs": 206,
    "Vel": 96
  },
  {
    "TimeMs": 68555,
    "Key": 38,
    "DurationMs": 104,
    "Vel": 96
  },
  {
    "TimeMs": 68666,
    "Key": 77,
    "DurationMs": 421,
    "Vel": 96
  },
  {
    "TimeMs": 68667,
    "Key": 81,
    "DurationMs": 421,
    "Vel": 96
  },
  {
    "TimeMs": 68668,
    "Key": 86,
    "DurationMs": 421,
    "Vel": 96
  },
  {
    "TimeMs": 68669,
    "Key": 89,
    "DurationMs": 421,
    "Vel": 96
  },
  {
    "TimeMs": 68670,
    "Key": 45,
    "DurationMs": 206,
    "Vel": 96
  },
  {
    "TimeMs": 68671,
    "Key": 50,
    "DurationMs": 206,
    "Vel": 96
  },
  {
    "TimeMs": 68888,
    "Key": 62,
    "DurationMs": 104,
    "Vel": 96
  },
  {
    "TimeMs": 68999,
    "Key": 57,
    "DurationMs": 104,
    "Vel": 96
  },
  {
    "TimeMs": 69111,
    "Key": 69,
    "DurationMs": 421,
    "Vel": 96
  },
  {
    "TimeMs": 69111,
    "Key": 74,
    "DurationMs": 421,
    "Vel": 96
  },
  {
    "TimeMs": 69112,
    "Key": 77,
    "DurationMs": 421,
    "Vel": 96
  },
  {
    "TimeMs": 69113,
    "Key": 81,
    "DurationMs": 421,
    "Vel": 96
  },
  {
    "TimeMs": 69114,
    "Key": 53,
    "DurationMs": 100,
    "Vel": 96
  },
  {
    "TimeMs": 69222,
    "Key": 50,
    "DurationMs": 104,
    "Vel": 96
  },
  {
    "TimeMs": 69333,
    "Key": 45,
    "DurationMs": 104,
    "Vel": 96
  },
  {
    "TimeMs": 69444,
    "Key": 38,
    "DurationMs": 104,
    "Vel": 96
  },
  {
    "TimeMs": 69555,
    "Key": 70,
    "DurationMs": 210,
    "Vel": 96
  },
  {
    "TimeMs": 69556,
    "Key": 82,
    "DurationMs": 210,
    "Vel": 96
  },
  {
    "TimeMs": 69557,
    "Key": 26,
    "DurationMs": 210,
    "Vel": 96
  },
  {
    "TimeMs": 69777,
    "Key": 79,
    "DurationMs": 315,
    "Vel": 96
  },
  {
    "TimeMs": 69778,
    "Key": 82,
    "DurationMs": 315,
    "Vel": 96
  },
  {
    "TimeMs": 69779,
    "Key": 87,
    "DurationMs": 315,
    "Vel": 96
  },
  {
    "TimeMs": 69780,
    "Key": 91,
    "DurationMs": 315,
    "Vel": 96
  },
  {
    "TimeMs": 69781,
    "Key": 27,
    "DurationMs": 206,
    "Vel": 96
  },
  {
    "TimeMs": 69782,
    "Key": 39,
    "DurationMs": 206,
    "Vel": 96
  },
  {
    "TimeMs": 69999,
    "Key": 39,
    "DurationMs": 104,
    "Vel": 96
  },
  {
    "TimeMs": 70111,
    "Key": 77,
    "DurationMs": 315,
    "Vel": 96
  },
  {
    "TimeMs": 70111,
    "Key": 82,
    "DurationMs": 315,
    "Vel": 96
  },
  {
    "TimeMs": 70112,
    "Key": 86,
    "DurationMs": 315,
    "Vel": 96
  },
  {
    "TimeMs": 70113,
    "Key": 89,
    "DurationMs": 315,
    "Vel": 96
  },
  {
    "TimeMs": 70114,
    "Key": 46,
    "DurationMs": 206,
    "Vel": 96
  },
  {
    "TimeMs": 70115,
    "Key": 51,
    "DurationMs": 206,
    "Vel": 96
  },
  {
    "TimeMs": 70333,
    "Key": 39,
    "DurationMs": 104,
    "Vel": 96
  },
  {
    "TimeMs": 70444,
    "Key": 74,
    "DurationMs": 421,
    "Vel": 96
  },
  {
    "TimeMs": 70445,
    "Key": 77,
    "DurationMs": 421,
    "Vel": 96
  },
  {
    "TimeMs": 70446,
    "Key": 82,
    "DurationMs": 421,
    "Vel": 96
  },
  {
    "TimeMs": 70447,
    "Key": 86,
    "DurationMs": 421,
    "Vel": 96
  },
  {
    "TimeMs": 70448,
    "Key": 46,
    "DurationMs": 206,
    "Vel": 96
  },
  {
    "TimeMs": 70449,
    "Key": 51,
    "DurationMs": 206,
    "Vel": 96
  },
  {
    "TimeMs": 70666,
    "Key": 63,
    "DurationMs": 104,
    "Vel": 96
  },
  {
    "TimeMs": 70777,
    "Key": 58,
    "DurationMs": 104,
    "Vel": 96
  },
  {
    "TimeMs": 70888,
    "Key": 70,
    "DurationMs": 421,
    "Vel": 96
  },
  {
    "TimeMs": 70889,
    "Key": 74,
    "DurationMs": 421,
    "Vel": 96
  },
  {
    "TimeMs": 70890,
    "Key": 77,
    "DurationMs": 421,
    "Vel": 96
  },
  {
    "TimeMs": 70891,
    "Key": 82,
    "DurationMs": 421,
    "Vel": 96
  },
  {
    "TimeMs": 70892,
    "Key": 55,
    "DurationMs": 100,
    "Vel": 96
  },
  {
    "TimeMs": 70999,
    "Key": 51,
    "DurationMs": 104,
    "Vel": 96
  },
  {
    "TimeMs": 71111,
    "Key": 46,
    "DurationMs": 104,
    "Vel": 96
  },
  {
    "TimeMs": 71222,
    "Key": 39,
    "DurationMs": 104,
    "Vel": 96
  },
  {
    "TimeMs": 71333,
    "Key": 70,
    "DurationMs": 210,
    "Vel": 96
  },
  {
    "TimeMs": 71334,
    "Key": 82,
    "DurationMs": 210,
    "Vel": 96
  },
  {
    "TimeMs": 71335,
    "Key": 27,
    "DurationMs": 210,
    "Vel": 96
  },
  {
    "TimeMs": 71555,
    "Key": 70,
    "DurationMs": 421,
    "Vel": 96
  },
  {
    "TimeMs": 71556,
    "Key": 72,
    "DurationMs": 421,
    "Vel": 96
  },
  {
    "TimeMs": 71557,
    "Key": 77,
    "DurationMs": 421,
    "Vel": 96
  },
  {
    "TimeMs": 71558,
    "Key": 82,
    "DurationMs": 421,
    "Vel": 96
  },
  {
    "TimeMs": 71559,
    "Key": 29,
    "DurationMs": 206,
    "Vel": 96
  },
  {
    "TimeMs": 71560,
    "Key": 41,
    "DurationMs": 206,
    "Vel": 96
  },
  {
    "TimeMs": 71777,
    "Key": 41,
    "DurationMs": 104,
    "Vel": 96
  },
  {
    "TimeMs": 71888,
    "Key": 48,
    "DurationMs": 210,
    "Vel": 96
  },
  {
    "TimeMs": 71889,
    "Key": 53,
    "DurationMs": 210,
    "Vel": 96
  },
  {
    "TimeMs": 71999,
    "Key": 69,
    "DurationMs": 210,
    "Vel": 96
  },
  {
    "TimeMs": 72000,
    "Key": 81,
    "DurationMs": 210,
    "Vel": 96
  },
  {
    "TimeMs": 72111,
    "Key": 41,
    "DurationMs": 104,
    "Vel": 96
  },
  {
    "TimeMs": 72222,
    "Key": 67,
    "DurationMs": 421,
    "Vel": 96
  },
  {
    "TimeMs": 72223,
    "Key": 72,
    "DurationMs": 421,
    "Vel": 96
  },
  {
    "TimeMs": 72224,
    "Key": 77,
    "DurationMs": 421,
    "Vel": 96
  },
  {
    "TimeMs": 72224,
    "Key": 79,
    "DurationMs": 421,
    "Vel": 96
  },
  {
    "TimeMs": 72225,
    "Key": 48,
    "DurationMs": 206,
    "Vel": 96
  },
  {
    "TimeMs": 72226,
    "Key": 53,
    "DurationMs": 206,
    "Vel": 96
  },
  {
    "TimeMs": 72444,
    "Key": 65,
    "DurationMs": 104,
    "Vel": 96
  },
  {
    "TimeMs": 72555,
    "Key": 60,
    "DurationMs": 104,
    "Vel": 96
  },
  {
    "TimeMs": 72666,
    "Key": 69,
    "DurationMs": 421,
    "Vel": 96
  },
  {
    "TimeMs": 72667,
    "Key": 81,
    "DurationMs": 421,
    "Vel": 96
  },
  {
    "TimeMs": 72668,
    "Key": 57,
    "DurationMs": 102,
    "Vel": 96
  },
  {
    "TimeMs": 72777,
    "Key": 53,
    "DurationMs": 104,
    "Vel": 96
  },
  {
    "TimeMs": 72888,
    "Key": 48,
    "DurationMs": 104,
    "Vel": 96
  },
  {
    "TimeMs": 72999,
    "Key": 41,
    "DurationMs": 104,
    "Vel": 96
  },
  {
    "TimeMs": 73111,
    "Key": 70,
    "DurationMs": 1476,
    "Vel": 96
  },
  {
    "TimeMs": 73111,
    "Key": 74,
    "DurationMs": 1476,
    "Vel": 96
  },
  {
    "TimeMs": 73112,
    "Key": 79,
    "DurationMs": 1476,
    "Vel": 96
  },
  {
    "TimeMs": 73113,
    "Key": 82,
    "DurationMs": 1476,
    "Vel": 96
  },
  {
    "TimeMs": 73114,
    "Key": 29,
    "DurationMs": 206,
    "Vel": 96
  },
  {
    "TimeMs": 73333,
    "Key": 31,
    "DurationMs": 210,
    "Vel": 96
  },
  {
    "TimeMs": 73334,
    "Key": 43,
    "DurationMs": 210,
    "Vel": 96
  },
  {
    "TimeMs": 73555,
    "Key": 43,
    "DurationMs": 104,
    "Vel": 96
  },
  {
    "TimeMs": 73666,
    "Key": 50,
    "DurationMs": 210,
    "Vel": 96
  },
  {
    "TimeMs": 73667,
    "Key": 55,
    "DurationMs": 210,
    "Vel": 96
  },
  {
    "TimeMs": 73888,
    "Key": 43,
    "DurationMs": 104,
    "Vel": 96
  },
  {
    "TimeMs": 73999,
    "Key": 50,
    "DurationMs": 210,
    "Vel": 96
  },
  {
    "TimeMs": 74000,
    "Key": 55,
    "DurationMs": 210,
    "Vel": 96
  },
  {
    "TimeMs": 74222,
    "Key": 67,
    "DurationMs": 104,
    "Vel": 96
  },
  {
    "TimeMs": 74333,
    "Key": 62,
    "DurationMs": 104,
    "Vel": 96
  },
  {
    "TimeMs": 74444,
    "Key": 58,
    "DurationMs": 104,
    "Vel": 96
  },
  {
    "TimeMs": 74555,
    "Key": 55,
    "DurationMs": 104,
    "Vel": 96
  },
  {
    "TimeMs": 74666,
    "Key": 50,
    "DurationMs": 104,
    "Vel": 96
  },
  {
    "TimeMs": 74777,
    "Key": 43,
    "DurationMs": 104,
    "Vel": 96
  },
  {
    "TimeMs": 74888,
    "Key": 70,
    "DurationMs": 210,
    "Vel": 96
  },
  {
    "TimeMs": 74889,
    "Key": 31,
    "DurationMs": 210,
    "Vel": 96
  },
  {
    "TimeMs": 75111,
    "Key": 69,
    "DurationMs": 315,
    "Vel": 96
  },
  {
    "TimeMs": 75111,
    "Key": 38,
    "DurationMs": 209,
    "Vel": 96
  },
  {
    "TimeMs": 75112,
    "Key": 50,
    "DurationMs": 209,
    "Vel": 96
  },
  {
    "TimeMs": 75222,
    "Key": 65,
    "DurationMs": 104,
    "Vel": 96
  },
  {
    "TimeMs": 75333,
    "Key": 62,
    "DurationMs": 104,
    "Vel": 96
  },
  {
    "TimeMs": 75334,
    "Key": 50,
    "DurationMs": 104,
    "Vel": 96
  },
  {
    "TimeMs": 75444,
    "Key": 70,
    "DurationMs": 315,
    "Vel": 96
  },
  {
    "TimeMs": 75445,
    "Key": 57,
    "DurationMs": 209,
    "Vel": 96
  },
  {
    "TimeMs": 75555,
    "Key": 65,
    "DurationMs": 104,
    "Vel": 96
  },
  {
    "TimeMs": 75666,
    "Key": 62,
    "DurationMs": 104,
    "Vel": 96
  },
  {
    "TimeMs": 75667,
    "Key": 50,
    "DurationMs": 104,
    "Vel": 96
  },
  {
    "TimeMs": 75777,
    "Key": 69,
    "DurationMs": 421,
    "Vel": 96
  },
  {
    "TimeMs": 75778,
    "Key": 57,
    "DurationMs": 209,
    "Vel": 96
  },
  {
    "TimeMs": 75888,
    "Key": 65,
    "DurationMs": 104,
    "Vel": 96
  },
  {
    "TimeMs": 75999,
    "Key": 62,
    "DurationMs": 104,
    "Vel": 96
  },
  {
    "TimeMs": 76111,
    "Key": 57,
    "DurationMs": 104,
    "Vel": 96
  },
  {
    "TimeMs": 76222,
    "Key": 65,
    "DurationMs": 421,
    "Vel": 96
  },
  {
    "TimeMs": 76223,
    "Key": 53,
    "DurationMs": 103,
    "Vel": 96
  },
  {
    "TimeMs": 76333,
    "Key": 50,
    "DurationMs": 104,
    "Vel": 96
  },
  {
    "TimeMs": 76444,
    "Key": 45,
    "DurationMs": 104,
    "Vel": 96
  },
  {
    "TimeMs": 76555,
    "Key": 41,
    "DurationMs": 104,
    "Vel": 96
  },
  {
    "TimeMs": 76666,
    "Key": 62,
    "DurationMs": 210,
    "Vel": 96
  },
  {
    "TimeMs": 76667,
    "Key": 74,
    "DurationMs": 210,
    "Vel": 96
  },
  {
    "TimeMs": 76668,
    "Key": 38,
    "DurationMs": 210,
    "Vel": 96
  },
  {
    "TimeMs": 76888,
    "Key": 74,
    "DurationMs": 210,
    "Vel": 96
  },
  {
    "TimeMs": 76889,
    "Key": 79,
    "DurationMs": 210,
    "Vel": 96
  },
  {
    "TimeMs": 76890,
    "Key": 82,
    "DurationMs": 210,
    "Vel": 96
  },
  {
    "TimeMs": 76891,
    "Key": 86,
    "DurationMs": 210,
    "Vel": 96
  },
  {
    "TimeMs": 76892,
    "Key": 39,
    "DurationMs": 100,
    "Vel": 96
  },
  {
    "TimeMs": 76999,
    "Key": 51,
    "DurationMs": 104,
    "Vel": 96
  },
  {
    "TimeMs": 77111,
    "Key": 72,
    "DurationMs": 104,
    "Vel": 96
  },
  {
    "TimeMs": 77111,
    "Key": 84,
    "DurationMs": 104,
    "Vel": 96
  },
  {
    "TimeMs": 77112,
    "Key": 46,
    "DurationMs": 104,
    "Vel": 96
  },
  {
    "TimeMs": 77222,
    "Key": 72,
    "DurationMs": 315,
    "Vel": 96
  },
  {
    "TimeMs": 77223,
    "Key": 75,
    "DurationMs": 315,
    "Vel": 96
  },
  {
    "TimeMs": 77223,
    "Key": 79,
    "DurationMs": 315,
    "Vel": 96
  },
  {
    "TimeMs": 77224,
    "Key": 84,
    "DurationMs": 315,
    "Vel": 96
  },
  {
    "TimeMs": 77225,
    "Key": 39,
    "DurationMs": 100,
    "Vel": 96
  },
  {
    "TimeMs": 77333,
    "Key": 27,
    "DurationMs": 104,
    "Vel": 96
  },
  {
    "TimeMs": 77444,
    "Key": 39,
    "DurationMs": 104,
    "Vel": 96
  },
  {
    "TimeMs": 77555,
    "Key": 72,
    "DurationMs": 210,
    "Vel": 96
  },
  {
    "TimeMs": 77556,
    "Key": 84,
    "DurationMs": 210,
    "Vel": 96
  },
  {
    "TimeMs": 77557,
    "Key": 46,
    "DurationMs": 102,
    "Vel": 96
  },
  {
    "TimeMs": 77666,
    "Key": 51,
    "DurationMs": 104,
    "Vel": 96
  },
  {
    "TimeMs": 77777,
    "Key": 72,
    "DurationMs": 210,
    "Vel": 96
  },
  {
    "TimeMs": 77778,
    "Key": 75,
    "DurationMs": 210,
    "Vel": 96
  },
  {
    "TimeMs": 77779,
    "Key": 79,
    "DurationMs": 210,
    "Vel": 96
  },
  {
    "TimeMs": 77780,
    "Key": 84,
    "DurationMs": 210,
    "Vel": 96
  },
  {
    "TimeMs": 77781,
    "Key": 39,
    "DurationMs": 100,
    "Vel": 96
  },
  {
    "TimeMs": 77888,
    "Key": 51,
    "DurationMs": 104,
    "Vel": 96
  },
  {
    "TimeMs": 77999,
    "Key": 70,
    "DurationMs": 104,
    "Vel": 96
  },
  {
    "TimeMs": 78000,
    "Key": 82,
    "DurationMs": 104,
    "Vel": 96
  },
  {
    "TimeMs": 78001,
    "Key": 46,
    "DurationMs": 104,
    "Vel": 96
  },
  {
    "TimeMs": 78111,
    "Key": 70,
    "DurationMs": 315,
    "Vel": 96
  },
  {
    "TimeMs": 78111,
    "Key": 75,
    "DurationMs": 315,
    "Vel": 96
  },
  {
    "TimeMs": 78112,
    "Key": 79,
    "DurationMs": 315,
    "Vel": 96
  },
  {
    "TimeMs": 78113,
    "Key": 82,
    "DurationMs": 315,
    "Vel": 96
  },
  {
    "TimeMs": 78114,
    "Key": 39,
    "DurationMs": 100,
    "Vel": 96
  },
  {
    "TimeMs": 78222,
    "Key": 27,
    "DurationMs": 104,
    "Vel": 96
  },
  {
    "TimeMs": 78333,
    "Key": 39,
    "DurationMs": 104,
    "Vel": 96
  },
  {
    "TimeMs": 78444,
    "Key": 70,
    "DurationMs": 210,
    "Vel": 96
  },
  {
    "TimeMs": 78445,
    "Key": 82,
    "DurationMs": 210,
    "Vel": 96
  },
  {
    "TimeMs": 78446,
    "Key": 46,
    "DurationMs": 102,
    "Vel": 96
  },
  {
    "TimeMs": 78555,
    "Key": 51,
    "DurationMs": 104,
    "Vel": 96
  },
  {
    "TimeMs": 78666,
    "Key": 69,
    "DurationMs": 315,
    "Vel": 96
  },
  {
    "TimeMs": 78667,
    "Key": 72,
    "DurationMs": 315,
    "Vel": 96
  },
  {
    "TimeMs": 78668,
    "Key": 77,
    "DurationMs": 315,
    "Vel": 96
  },
  {
    "TimeMs": 78669,
    "Key": 81,
    "DurationMs": 315,
    "Vel": 96
  },
  {
    "TimeMs": 78670,
    "Key": 41,
    "DurationMs": 100,
    "Vel": 96
  },
  {
    "TimeMs": 78777,
    "Key": 53,
    "DurationMs": 104,
    "Vel": 96
  },
  {
    "TimeMs": 78888,
    "Key": 48,
    "DurationMs": 104,
    "Vel": 96
  },
  {
    "TimeMs": 78999,
    "Key": 70,
    "DurationMs": 315,
    "Vel": 96
  },
  {
    "TimeMs": 79000,
    "Key": 82,
    "DurationMs": 315,
    "Vel": 96
  },
  {
    "TimeMs": 79001,
    "Key": 41,
    "DurationMs": 102,
    "Vel": 96
  },
  {
    "TimeMs": 79111,
    "Key": 29,
    "DurationMs": 104,
    "Vel": 96
  },
  {
    "TimeMs": 79222,
    "Key": 41,
    "DurationMs": 104,
    "Vel": 96
  },
  {
    "TimeMs": 79333,
    "Key": 69,
    "DurationMs": 421,
    "Vel": 96
  },
  {
    "TimeMs": 79334,
    "Key": 72,
    "DurationMs": 421,
    "Vel": 96
  },
  {
    "TimeMs": 79335,
    "Key": 77,
    "DurationMs": 421,
    "Vel": 96
  },
  {
    "TimeMs": 79336,
    "Key": 81,
    "DurationMs": 421,
    "Vel": 96
  },
  {
    "TimeMs": 79336,
    "Key": 48,
    "DurationMs": 100,
    "Vel": 96
  },
  {
    "TimeMs": 79444,
    "Key": 53,
    "DurationMs": 104,
    "Vel": 96
  },
  {
    "TimeMs": 79555,
    "Key": 41,
    "DurationMs": 104,
    "Vel": 96
  },
  {
    "TimeMs": 79666,
    "Key": 53,
    "DurationMs": 104,
    "Vel": 96
  },
  {
    "TimeMs": 79777,
    "Key": 65,
    "DurationMs": 421,
    "Vel": 96
  },
  {
    "TimeMs": 79778,
    "Key": 69,
    "DurationMs": 421,
    "Vel": 96
  },
  {
    "TimeMs": 79779,
    "Key": 72,
    "DurationMs": 421,
    "Vel": 96
  },
  {
    "TimeMs": 79780,
    "Key": 77,
    "DurationMs": 421,
    "Vel": 96
  },
  {
    "TimeMs": 79781,
    "Key": 48,
    "DurationMs": 100,
    "Vel": 96
  },
  {
    "TimeMs": 79888,
    "Key": 41,
    "DurationMs": 104,
    "Vel": 96
  },
  {
    "TimeMs": 79999,
    "Key": 29,
    "DurationMs": 104,
    "Vel": 96
  },
  {
    "TimeMs": 80111,
    "Key": 41,
    "DurationMs": 104,
    "Vel": 96
  },
  {
    "TimeMs": 80222,
    "Key": 62,
    "DurationMs": 210,
    "Vel": 96
  },
  {
    "TimeMs": 80223,
    "Key": 74,
    "DurationMs": 210,
    "Vel": 96
  },
  {
    "TimeMs": 80223,
    "Key": 48,
    "DurationMs": 102,
    "Vel": 96
  },
  {
    "TimeMs": 80333,
    "Key": 53,
    "DurationMs": 104,
    "Vel": 96
  },
  {
    "TimeMs": 80444,
    "Key": 74,
    "DurationMs": 210,
    "Vel": 96
  },
  {
    "TimeMs": 80445,
    "Key": 79,
    "DurationMs": 210,
    "Vel": 96
  },
  {
    "TimeMs": 80446,
    "Key": 82,
    "DurationMs": 210,
    "Vel": 96
  },
  {
    "TimeMs": 80447,
    "Key": 86,
    "DurationMs": 210,
    "Vel": 96
  },
  {
    "TimeMs": 80448,
    "Key": 43,
    "DurationMs": 100,
    "Vel": 96
  },
  {
    "TimeMs": 80555,
    "Key": 55,
    "DurationMs": 104,
    "Vel": 96
  },
  {
    "TimeMs": 80666,
    "Key": 72,
    "DurationMs": 104,
    "Vel": 96
  },
  {
    "TimeMs": 80667,
    "Key": 84,
    "DurationMs": 104,
    "Vel": 96
  },
  {
    "TimeMs": 80668,
    "Key": 50,
    "DurationMs": 104,
    "Vel": 96
  },
  {
    "TimeMs": 80777,
    "Key": 72,
    "DurationMs": 315,
    "Vel": 96
  },
  {
    "TimeMs": 80778,
    "Key": 75,
    "DurationMs": 315,
    "Vel": 96
  },
  {
    "TimeMs": 80779,
    "Key": 79,
    "DurationMs": 315,
    "Vel": 96
  },
  {
    "TimeMs": 80780,
    "Key": 84,
    "DurationMs": 315,
    "Vel": 96
  },
  {
    "TimeMs": 80781,
    "Key": 43,
    "DurationMs": 100,
    "Vel": 96
  },
  {
    "TimeMs": 80888,
    "Key": 31,
    "DurationMs": 104,
    "Vel": 96
  },
  {
    "TimeMs": 80999,
    "Key": 43,
    "DurationMs": 104,
    "Vel": 96
  },
  {
    "TimeMs": 81111,
    "Key": 72,
    "DurationMs": 210,
    "Vel": 96
  },
  {
    "TimeMs": 81111,
    "Key": 84,
    "DurationMs": 210,
    "Vel": 96
  },
  {
    "TimeMs": 81112,
    "Key": 50,
    "DurationMs": 102,
    "Vel": 96
  },
  {
    "TimeMs": 81222,
    "Key": 55,
    "DurationMs": 104,
    "Vel": 96
  },
  {
    "TimeMs": 81333,
    "Key": 72,
    "DurationMs": 210,
    "Vel": 96
  },
  {
    "TimeMs": 81334,
    "Key": 75,
    "DurationMs": 210,
    "Vel": 96
  },
  {
    "TimeMs": 81335,
    "Key": 79,
    "DurationMs": 210,
    "Vel": 96
  },
  {
    "TimeMs": 81336,
    "Key": 84,
    "DurationMs": 210,
    "Vel": 96
  },
  {
    "TimeMs": 81336,
    "Key": 43,
    "DurationMs": 100,
    "Vel": 96
  },
  {
    "TimeMs": 81444,
    "Key": 55,
    "DurationMs": 104,
    "Vel": 96
  },
  {
    "TimeMs": 81555,
    "Key": 70,
    "DurationMs": 104,
    "Vel": 96
  },
  {
    "TimeMs": 81556,
    "Key": 82,
    "DurationMs": 104,
    "Vel": 96
  },
  {
    "TimeMs": 81557,
    "Key": 50,
    "DurationMs": 104,
    "Vel": 96
  },
  {
    "TimeMs": 81666,
    "Key": 70,
    "DurationMs": 315,
    "Vel": 96
  },
  {
    "TimeMs": 81667,
    "Key": 75,
    "DurationMs": 315,
    "Vel": 96
  },
  {
    "TimeMs": 81668,
    "Key": 79,
    "DurationMs": 315,
    "Vel": 96
  },
  {
    "TimeMs": 81669,
    "Key": 82,
    "DurationMs": 315,
    "Vel": 96
  },
  {
    "TimeMs": 81670,
    "Key": 43,
    "DurationMs": 100,
    "Vel": 96
  },
  {
    "TimeMs": 81777,
    "Key": 31,
    "DurationMs": 104,
    "Vel": 96
  },
  {
    "TimeMs": 81888,
    "Key": 43,
    "DurationMs": 104,
    "Vel": 96
  },
  {
    "TimeMs": 81999,
    "Key": 70,
    "DurationMs": 210,
    "Vel": 96
  },
  {
    "TimeMs": 82000,
    "Key": 82,
    "DurationMs": 210,
    "Vel": 96
  },
  {
    "TimeMs": 82001,
    "Key": 50,
    "DurationMs": 102,
    "Vel": 96
  },
  {
    "TimeMs": 82111,
    "Key": 55,
    "DurationMs": 104,
    "Vel": 96
  },
  {
    "TimeMs": 82222,
    "Key": 69,
    "DurationMs": 315,
    "Vel": 96
  },
  {
    "TimeMs": 82223,
    "Key": 74,
    "DurationMs": 315,
    "Vel": 96
  },
  {
    "TimeMs": 82223,
    "Key": 77,
    "DurationMs": 315,
    "Vel": 96
  },
  {
    "TimeMs": 82224,
    "Key": 81,
    "DurationMs": 315,
    "Vel": 96
  },
  {
    "TimeMs": 82225,
    "Key": 38,
    "DurationMs": 100,
    "Vel": 96
  },
  {
    "TimeMs": 82333,
    "Key": 50,
    "DurationMs": 104,
    "Vel": 96
  },
  {
    "TimeMs": 82444,
    "Key": 45,
    "DurationMs": 104,
    "Vel": 96
  },
  {
    "TimeMs": 82555,
    "Key": 70,
    "DurationMs": 315,
    "Vel": 96
  },
  {
    "TimeMs": 82556,
    "Key": 82,
    "DurationMs": 315,
    "Vel": 96
  },
  {
    "TimeMs": 82557,
    "Key": 38,
    "DurationMs": 102,
    "Vel": 96
  },
  {
    "TimeMs": 82666,
    "Key": 26,
    "DurationMs": 104,
    "Vel": 96
  },
  {
    "TimeMs": 82777,
    "Key": 38,
    "DurationMs": 104,
    "Vel": 96
  },
  {
    "TimeMs": 82888,
    "Key": 77,
    "DurationMs": 443,
    "Vel": 115
  },
  {
    "TimeMs": 82889,
    "Key": 81,
    "DurationMs": 443,
    "Vel": 115
  },
  {
    "TimeMs": 82890,
    "Key": 86,
    "DurationMs": 443,
    "Vel": 115
  },
  {
    "TimeMs": 82891,
    "Key": 89,
    "DurationMs": 443,
    "Vel": 115
  },
  {
    "TimeMs": 82892,
    "Key": 45,
    "DurationMs": 100,
    "Vel": 96
  },
  {
    "TimeMs": 82999,
    "Key": 50,
    "DurationMs": 104,
    "Vel": 96
  },
  {
    "TimeMs": 83111,
    "Key": 38,
    "DurationMs": 104,
    "Vel": 96
  },
  {
    "TimeMs": 83222,
    "Key": 50,
    "DurationMs": 104,
    "Vel": 96
  },
  {
    "TimeMs": 83336,
    "Key": 69,
    "DurationMs": 418,
    "Vel": 96
  },
  {
    "TimeMs": 83336,
    "Key": 74,
    "DurationMs": 418,
    "Vel": 96
  },
  {
    "TimeMs": 83337,
    "Key": 77,
    "DurationMs": 418,
    "Vel": 96
  },
  {
    "TimeMs": 83338,
    "Key": 81,
    "DurationMs": 418,
    "Vel": 96
  },
  {
    "TimeMs": 83339,
    "Key": 45,
    "DurationMs": 98,
    "Vel": 96
  },
  {
    "TimeMs": 83444,
    "Key": 38,
    "DurationMs": 104,
    "Vel": 96
  },
  {
    "TimeMs": 83555,
    "Key": 26,
    "DurationMs": 104,
    "Vel": 96
  },
  {
    "TimeMs": 83666,
    "Key": 38,
    "DurationMs": 104,
    "Vel": 96
  },
  {
    "TimeMs": 83777,
    "Key": 70,
    "DurationMs": 210,
    "Vel": 96
  },
  {
    "TimeMs": 83778,
    "Key": 82,
    "DurationMs": 210,
    "Vel": 96
  },
  {
    "TimeMs": 83779,
    "Key": 45,
    "DurationMs": 102,
    "Vel": 96
  },
  {
    "TimeMs": 83888,
    "Key": 50,
    "DurationMs": 104,
    "Vel": 96
  },
  {
    "TimeMs": 83999,
    "Key": 79,
    "DurationMs": 315,
    "Vel": 96
  },
  {
    "TimeMs": 84000,
    "Key": 82,
    "DurationMs": 315,
    "Vel": 96
  },
  {
    "TimeMs": 84001,
    "Key": 87,
    "DurationMs": 315,
    "Vel": 96
  },
  {
    "TimeMs": 84002,
    "Key": 91,
    "DurationMs": 315,
    "Vel": 96
  },
  {
    "TimeMs": 84003,
    "Key": 27,
    "DurationMs": 100,
    "Vel": 96
  },
  {
    "TimeMs": 84111,
    "Key": 39,
    "DurationMs": 104,
    "Vel": 96
  },
  {
    "TimeMs": 84222,
    "Key": 27,
    "DurationMs": 104,
    "Vel": 96
  },
  {
    "TimeMs": 84333,
    "Key": 77,
    "DurationMs": 315,
    "Vel": 96
  },
  {
    "TimeMs": 84334,
    "Key": 82,
    "DurationMs": 315,
    "Vel": 96
  },
  {
    "TimeMs": 84335,
    "Key": 86,
    "DurationMs": 315,
    "Vel": 96
  },
  {
    "TimeMs": 84336,
    "Key": 89,
    "DurationMs": 315,
    "Vel": 96
  },
  {
    "TimeMs": 84336,
    "Key": 39,
    "DurationMs": 100,
    "Vel": 96
  },
  {
    "TimeMs": 84444,
    "Key": 46,
    "DurationMs": 104,
    "Vel": 96
  },
  {
    "TimeMs": 84555,
    "Key": 51,
    "DurationMs": 104,
    "Vel": 96
  },
  {
    "TimeMs": 84666,
    "Key": 74,
    "DurationMs": 210,
    "Vel": 96
  },
  {
    "TimeMs": 84667,
    "Key": 86,
    "DurationMs": 210,
    "Vel": 96
  },
  {
    "TimeMs": 84668,
    "Key": 58,
    "DurationMs": 102,
    "Vel": 96
  },
  {
    "TimeMs": 84777,
    "Key": 63,
    "DurationMs": 104,
    "Vel": 96
  },
  {
    "TimeMs": 84888,
    "Key": 70,
    "DurationMs": 632,
    "Vel": 96
  },
  {
    "TimeMs": 84889,
    "Key": 74,
    "DurationMs": 632,
    "Vel": 96
  },
  {
    "TimeMs": 84890,
    "Key": 77,
    "DurationMs": 632,
    "Vel": 96
  },
  {
    "TimeMs": 84891,
    "Key": 82,
    "DurationMs": 632,
    "Vel": 96
  },
  {
    "TimeMs": 84892,
    "Key": 67,
    "DurationMs": 100,
    "Vel": 96
  },
  {
    "TimeMs": 84999,
    "Key": 63,
    "DurationMs": 104,
    "Vel": 96
  },
  {
    "TimeMs": 85111,
    "Key": 58,
    "DurationMs": 104,
    "Vel": 96
  },
  {
    "TimeMs": 85222,
    "Key": 51,
    "DurationMs": 104,
    "Vel": 96
  },
  {
    "TimeMs": 85333,
    "Key": 39,
    "DurationMs": 421,
    "Vel": 96
  },
  {
    "TimeMs": 85555,
    "Key": 70,
    "DurationMs": 210,
    "Vel": 70
  },
  {
    "TimeMs": 85556,
    "Key": 82,
    "DurationMs": 210,
    "Vel": 70
  },
  {
    "TimeMs": 85777,
    "Key": 70,
    "DurationMs": 421,
    "Vel": 70
  },
  {
    "TimeMs": 85778,
    "Key": 72,
    "DurationMs": 421,
    "Vel": 70
  },
  {
    "TimeMs": 85779,
    "Key": 77,
    "DurationMs": 421,
    "Vel": 70
  },
  {
    "TimeMs": 85780,
    "Key": 82,
    "DurationMs": 421,
    "Vel": 70
  },
  {
    "TimeMs": 85781,
    "Key": 29,
    "DurationMs": 628,
    "Vel": 70
  },
  {
    "TimeMs": 85782,
    "Key": 41,
    "DurationMs": 628,
    "Vel": 70
  },
  {
    "TimeMs": 86222,
    "Key": 69,
    "DurationMs": 210,
    "Vel": 68
  },
  {
    "TimeMs": 86223,
    "Key": 81,
    "DurationMs": 210,
    "Vel": 68
  },
  {
    "TimeMs": 86444,
    "Key": 67,
    "DurationMs": 421,
    "Vel": 67
  },
  {
    "TimeMs": 86445,
    "Key": 72,
    "DurationMs": 421,
    "Vel": 67
  },
  {
    "TimeMs": 86446,
    "Key": 77,
    "DurationMs": 421,
    "Vel": 67
  },
  {
    "TimeMs": 86447,
    "Key": 79,
    "DurationMs": 421,
    "Vel": 67
  },
  {
    "TimeMs": 86448,
    "Key": 57,
    "DurationMs": 628,
    "Vel": 67
  },
  {
    "TimeMs": 86448,
    "Key": 60,
    "DurationMs": 628,
    "Vel": 67
  },
  {
    "TimeMs": 86449,
    "Key": 65,
    "DurationMs": 628,
    "Vel": 67
  },
  {
    "TimeMs": 86888,
    "Key": 69,
    "DurationMs": 421,
    "Vel": 66
  },
  {
    "TimeMs": 86889,
    "Key": 81,
    "DurationMs": 421,
    "Vel": 66
  },
  {
    "TimeMs": 87111,
    "Key": 41,
    "DurationMs": 421,
    "Vel": 65
  },
  {
    "TimeMs": 87111,
    "Key": 53,
    "DurationMs": 421,
    "Vel": 65
  },
  {
    "TimeMs": 87333,
    "Key": 70,
    "DurationMs": 315,
    "Vel": 64
  },
  {
    "TimeMs": 87334,
    "Key": 74,
    "DurationMs": 315,
    "Vel": 64
  },
  {
    "TimeMs": 87335,
    "Key": 79,
    "DurationMs": 315,
    "Vel": 64
  },
  {
    "TimeMs": 87336,
    "Key": 82,
    "DurationMs": 315,
    "Vel": 64
  },
  {
    "TimeMs": 87555,
    "Key": 39,
    "DurationMs": 315,
    "Vel": 75
  },
  {
    "TimeMs": 87556,
    "Key": 51,
    "DurationMs": 315,
    "Vel": 75
  },
  {
    "TimeMs": 87666,
    "Key": 62,
    "DurationMs": 104,
    "Vel": 75
  },
  {
    "TimeMs": 87777,
    "Key": 67,
    "DurationMs": 104,
    "Vel": 75
  },
  {
    "TimeMs": 87888,
    "Key": 62,
    "DurationMs": 104,
    "Vel": 75
  },
  {
    "TimeMs": 87889,
    "Key": 51,
    "DurationMs": 314,
    "Vel": 75
  },
  {
    "TimeMs": 87999,
    "Key": 67,
    "DurationMs": 104,
    "Vel": 75
  },
  {
    "TimeMs": 88111,
    "Key": 62,
    "DurationMs": 104,
    "Vel": 75
  },
  {
    "TimeMs": 88222,
    "Key": 67,
    "DurationMs": 104,
    "Vel": 75
  },
  {
    "TimeMs": 88223,
    "Key": 51,
    "DurationMs": 209,
    "Vel": 75
  },
  {
    "TimeMs": 88333,
    "Key": 62,
    "DurationMs": 104,
    "Vel": 75
  },
  {
    "TimeMs": 88444,
    "Key": 74,
    "DurationMs": 104,
    "Vel": 75
  },
  {
    "TimeMs": 88445,
    "Key": 55,
    "DurationMs": 842,
    "Vel": 75
  },
  {
    "TimeMs": 88446,
    "Key": 58,
    "DurationMs": 842,
    "Vel": 75
  },
  {
    "TimeMs": 88555,
    "Key": 62,
    "DurationMs": 104,
    "Vel": 75
  },
  {
    "TimeMs": 88666,
    "Key": 67,
    "DurationMs": 104,
    "Vel": 75
  },
  {
    "TimeMs": 88777,
    "Key": 70,
    "DurationMs": 104,
    "Vel": 75
  },
  {
    "TimeMs": 88888,
    "Key": 62,
    "DurationMs": 104,
    "Vel": 75
  },
  {
    "TimeMs": 88999,
    "Key": 67,
    "DurationMs": 104,
    "Vel": 75
  },
  {
    "TimeMs": 89111,
    "Key": 70,
    "DurationMs": 104,
    "Vel": 75
  },
  {
    "TimeMs": 89222,
    "Key": 62,
    "DurationMs": 104,
    "Vel": 75
  },
  {
    "TimeMs": 89333,
    "Key": 74,
    "DurationMs": 104,
    "Vel": 75
  },
  {
    "TimeMs": 89334,
    "Key": 43,
    "DurationMs": 314,
    "Vel": 75
  },
  {
    "TimeMs": 89335,
    "Key": 55,
    "DurationMs": 314,
    "Vel": 75
  },
  {
    "TimeMs": 89444,
    "Key": 62,
    "DurationMs": 104,
    "Vel": 75
  },
  {
    "TimeMs": 89555,
    "Key": 65,
    "DurationMs": 104,
    "Vel": 75
  },
  {
    "TimeMs": 89666,
    "Key": 70,
    "DurationMs": 104,
    "Vel": 75
  },
  {
    "TimeMs": 89667,
    "Key": 55,
    "DurationMs": 314,
    "Vel": 75
  },
  {
    "TimeMs": 89777,
    "Key": 62,
    "DurationMs": 104,
    "Vel": 75
  },
  {
    "TimeMs": 89888,
    "Key": 65,
    "DurationMs": 104,
    "Vel": 75
  },
  {
    "TimeMs": 89999,
    "Key": 70,
    "DurationMs": 104,
    "Vel": 75
  },
  {
    "TimeMs": 90000,
    "Key": 55,
    "DurationMs": 209,
    "Vel": 75
  },
  {
    "TimeMs": 90111,
    "Key": 62,
    "DurationMs": 104,
    "Vel": 75
  },
  {
    "TimeMs": 90222,
    "Key": 74,
    "DurationMs": 104,
    "Vel": 75
  },
  {
    "TimeMs": 90223,
    "Key": 58,
    "DurationMs": 104,
    "Vel": 75
  },
  {
    "TimeMs": 90223,
    "Key": 62,
    "DurationMs": 104,
    "Vel": 75
  },
  {
    "TimeMs": 90333,
    "Key": 62,
    "DurationMs": 104,
    "Vel": 75
  },
  {
    "TimeMs": 90444,
    "Key": 65,
    "DurationMs": 104,
    "Vel": 75
  },
  {
    "TimeMs": 90555,
    "Key": 70,
    "DurationMs": 104,
    "Vel": 75
  },
  {
    "TimeMs": 90666,
    "Key": 62,
    "DurationMs": 104,
    "Vel": 75
  },
  {
    "TimeMs": 90777,
    "Key": 65,
    "DurationMs": 104,
    "Vel": 75
  },
  {
    "TimeMs": 90888,
    "Key": 70,
    "DurationMs": 104,
    "Vel": 75
  },
  {
    "TimeMs": 90999,
    "Key": 62,
    "DurationMs": 104,
    "Vel": 75
  },
  {
    "TimeMs": 91111,
    "Key": 72,
    "DurationMs": 104,
    "Vel": 75
  },
  {
    "TimeMs": 91111,
    "Key": 41,
    "DurationMs": 314,
    "Vel": 75
  },
  {
    "TimeMs": 91112,
    "Key": 53,
    "DurationMs": 314,
    "Vel": 75
  },
  {
    "TimeMs": 91222,
    "Key": 60,
    "DurationMs": 104,
    "Vel": 75
  },
  {
    "TimeMs": 91333,
    "Key": 65,
    "DurationMs": 104,
    "Vel": 75
  },
  {
    "TimeMs": 91444,
    "Key": 70,
    "DurationMs": 104,
    "Vel": 75
  },
  {
    "TimeMs": 91445,
    "Key": 53,
    "DurationMs": 314,
    "Vel": 75
  },
  {
    "TimeMs": 91555,
    "Key": 60,
    "DurationMs": 104,
    "Vel": 75
  },
  {
    "TimeMs": 91666,
    "Key": 65,
    "DurationMs": 104,
    "Vel": 75
  },
  {
    "TimeMs": 91777,
    "Key": 70,
    "DurationMs": 104,
    "Vel": 75
  },
  {
    "TimeMs": 91778,
    "Key": 53,
    "DurationMs": 209,
    "Vel": 75
  },
  {
    "TimeMs": 91888,
    "Key": 60,
    "DurationMs": 104,
    "Vel": 75
  },
  {
    "TimeMs": 91999,
    "Key": 72,
    "DurationMs": 104,
    "Vel": 75
  },
  {
    "TimeMs": 92000,
    "Key": 57,
    "DurationMs": 104,
    "Vel": 75
  },
  {
    "TimeMs": 92001,
    "Key": 60,
    "DurationMs": 104,
    "Vel": 75
  },
  {
    "TimeMs": 92111,
    "Key": 60,
    "DurationMs": 104,
    "Vel": 75
  },
  {
    "TimeMs": 92222,
    "Key": 65,
    "DurationMs": 104,
    "Vel": 75
  },
  {
    "TimeMs": 92333,
    "Key": 70,
    "DurationMs": 104,
    "Vel": 75
  },
  {
    "TimeMs": 92444,
    "Key": 60,
    "DurationMs": 104,
    "Vel": 75
  },
  {
    "TimeMs": 92555,
    "Key": 65,
    "DurationMs": 104,
    "Vel": 75
  },
  {
    "TimeMs": 92666,
    "Key": 70,
    "DurationMs": 210,
    "Vel": 75
  },
  {
    "TimeMs": 92667,
    "Key": 82,
    "DurationMs": 210,
    "Vel": 75
  },
  {
    "TimeMs": 92888,
    "Key": 86,
    "DurationMs": 315,
    "Vel": 75
  },
  {
    "TimeMs": 92889,
    "Key": 43,
    "DurationMs": 315,
    "Vel": 75
  },
  {
    "TimeMs": 92890,
    "Key": 55,
    "DurationMs": 315,
    "Vel": 75
  },
  {
    "TimeMs": 92999,
    "Key": 77,
    "DurationMs": 104,
    "Vel": 75
  },
  {
    "TimeMs": 93111,
    "Key": 74,
    "DurationMs": 104,
    "Vel": 75
  },
  {
    "TimeMs": 93222,
    "Key": 84,
    "DurationMs": 315,
    "Vel": 75
  },
  {
    "TimeMs": 93223,
    "Key": 55,
    "DurationMs": 315,
    "Vel": 75
  },
  {
    "TimeMs": 93333,
    "Key": 77,
    "DurationMs": 104,
    "Vel": 75
  },
  {
    "TimeMs": 93444,
    "Key": 74,
    "DurationMs": 104,
    "Vel": 75
  },
  {
    "TimeMs": 93555,
    "Key": 84,
    "DurationMs": 421,
    "Vel": 75
  },
  {
    "TimeMs": 93556,
    "Key": 55,
    "DurationMs": 209,
    "Vel": 75
  },
  {
    "TimeMs": 93666,
    "Key": 77,
    "DurationMs": 104,
    "Vel": 75
  },
  {
    "TimeMs": 93777,
    "Key": 74,
    "DurationMs": 104,
    "Vel": 75
  },
  {
    "TimeMs": 93778,
    "Key": 58,
    "DurationMs": 842,
    "Vel": 75
  },
  {
    "TimeMs": 93779,
    "Key": 62,
    "DurationMs": 842,
    "Vel": 75
  },
  {
    "TimeMs": 93888,
    "Key": 77,
    "DurationMs": 104,
    "Vel": 75
  },
  {
    "TimeMs": 93999,
    "Key": 81,
    "DurationMs": 421,
    "Vel": 75
  },
  {
    "TimeMs": 94111,
    "Key": 77,
    "DurationMs": 104,
    "Vel": 75
  },
  {
    "TimeMs": 94222,
    "Key": 74,
    "DurationMs": 104,
    "Vel": 75
  },
  {
    "TimeMs": 94333,
    "Key": 77,
    "DurationMs": 104,
    "Vel": 75
  },
  {
    "TimeMs": 94444,
    "Key": 82,
    "DurationMs": 210,
    "Vel": 75
  },
  {
    "TimeMs": 94555,
    "Key": 79,
    "DurationMs": 104,
    "Vel": 75
  },
  {
    "TimeMs": 94666,
    "Key": 82,
    "DurationMs": 843,
    "Vel": 75
  },
  {
    "TimeMs": 94667,
    "Key": 74,
    "DurationMs": 103,
    "Vel": 75
  },
  {
    "TimeMs": 94668,
    "Key": 39,
    "DurationMs": 313,
    "Vel": 75
  },
  {
    "TimeMs": 94669,
    "Key": 51,
    "DurationMs": 313,
    "Vel": 75
  },
  {
    "TimeMs": 94777,
    "Key": 79,
    "DurationMs": 104,
    "Vel": 75
  },
  {
    "TimeMs": 94888,
    "Key": 74,
    "DurationMs": 104,
    "Vel": 75
  },
  {
    "TimeMs": 94999,
    "Key": 79,
    "DurationMs": 104,
    "Vel": 75
  },
  {
    "TimeMs": 95000,
    "Key": 51,
    "DurationMs": 314,
    "Vel": 75
  },
  {
    "TimeMs": 95111,
    "Key": 74,
    "DurationMs": 104,
    "Vel": 75
  },
  {
    "TimeMs": 95222,
    "Key": 79,
    "DurationMs": 104,
    "Vel": 75
  },
  {
    "TimeMs": 95333,
    "Key": 74,
    "DurationMs": 104,
    "Vel": 75
  },
  {
    "TimeMs": 95334,
    "Key": 51,
    "DurationMs": 209,
    "Vel": 75
  },
  {
    "TimeMs": 95444,
    "Key": 79,
    "DurationMs": 104,
    "Vel": 75
  },
  {
    "TimeMs": 95555,
    "Key": 86,
    "DurationMs": 104,
    "Vel": 75
  },
  {
    "TimeMs": 95556,
    "Key": 58,
    "DurationMs": 842,
    "Vel": 75
  },
  {
    "TimeMs": 95557,
    "Key": 67,
    "DurationMs": 842,
    "Vel": 75
  },
  {
    "TimeMs": 95666,
    "Key": 74,
    "DurationMs": 104,
    "Vel": 75
  },
  {
    "TimeMs": 95777,
    "Key": 79,
    "DurationMs": 104,
    "Vel": 75
  },
  {
    "TimeMs": 95888,
    "Key": 82,
    "DurationMs": 104,
    "Vel": 75
  },
  {
    "TimeMs": 95999,
    "Key": 74,
    "DurationMs": 104,
    "Vel": 75
  },
  {
    "TimeMs": 96111,
    "Key": 79,
    "DurationMs": 104,
    "Vel": 75
  },
  {
    "TimeMs": 96222,
    "Key": 82,
    "DurationMs": 104,
    "Vel": 75
  },
  {
    "TimeMs": 96333,
    "Key": 74,
    "DurationMs": 104,
    "Vel": 75
  },
  {
    "TimeMs": 96444,
    "Key": 86,
    "DurationMs": 104,
    "Vel": 75
  },
  {
    "TimeMs": 96445,
    "Key": 43,
    "DurationMs": 314,
    "Vel": 75
  },
  {
    "TimeMs": 96446,
    "Key": 55,
    "DurationMs": 314,
    "Vel": 75
  },
  {
    "TimeMs": 96555,
    "Key": 74,
    "DurationMs": 104,
    "Vel": 75
  },
  {
    "TimeMs": 96666,
    "Key": 77,
    "DurationMs": 104,
    "Vel": 75
  },
  {
    "TimeMs": 96777,
    "Key": 82,
    "DurationMs": 104,
    "Vel": 75
  },
  {
    "TimeMs": 96778,
    "Key": 55,
    "DurationMs": 314,
    "Vel": 75
  },
  {
    "TimeMs": 96888,
    "Key": 74,
    "DurationMs": 104,
    "Vel": 75
  },
  {
    "TimeMs": 96999,
    "Key": 77,
    "DurationMs": 104,
    "Vel": 75
  },
  {
    "TimeMs": 97111,
    "Key": 82,
    "DurationMs": 104,
    "Vel": 75
  },
  {
    "TimeMs": 97111,
    "Key": 55,
    "DurationMs": 209,
    "Vel": 75
  },
  {
    "TimeMs": 97222,
    "Key": 74,
    "DurationMs": 104,
    "Vel": 75
  },
  {
    "TimeMs": 97333,
    "Key": 86,
    "DurationMs": 104,
    "Vel": 75
  },
  {
    "TimeMs": 97334,
    "Key": 62,
    "DurationMs": 842,
    "Vel": 75
  },
  {
    "TimeMs": 97335,
    "Key": 70,
    "DurationMs": 842,
    "Vel": 75
  },
  {
    "TimeMs": 97444,
    "Key": 74,
    "DurationMs": 104,
    "Vel": 75
  },
  {
    "TimeMs": 97555,
    "Key": 77,
    "DurationMs": 104,
    "Vel": 75
  },
  {
    "TimeMs": 97666,
    "Key": 82,
    "DurationMs": 104,
    "Vel": 75
  },
  {
    "TimeMs": 97777,
    "Key": 74,
    "DurationMs": 104,
    "Vel": 75
  },
  {
    "TimeMs": 97888,
    "Key": 77,
    "DurationMs": 104,
    "Vel": 75
  },
  {
    "TimeMs": 97999,
    "Key": 82,
    "DurationMs": 104,
    "Vel": 75
  },
  {
    "TimeMs": 98111,
    "Key": 74,
    "DurationMs": 104,
    "Vel": 75
  },
  {
    "TimeMs": 98222,
    "Key": 84,
    "DurationMs": 104,
    "Vel": 75
  },
  {
    "TimeMs": 98223,
    "Key": 41,
    "DurationMs": 314,
    "Vel": 75
  },
  {
    "TimeMs": 98223,
    "Key": 53,
    "DurationMs": 314,
    "Vel": 75
  },
  {
    "TimeMs": 98333,
    "Key": 72,
    "DurationMs": 104,
    "Vel": 75
  },
  {
    "TimeMs": 98444,
    "Key": 77,
    "DurationMs": 104,
    "Vel": 75
  },
  {
    "TimeMs": 98555,
    "Key": 82,
    "DurationMs": 104,
    "Vel": 75
  },
  {
    "TimeMs": 98556,
    "Key": 53,
    "DurationMs": 314,
    "Vel": 75
  },
  {
    "TimeMs": 98666,
    "Key": 72,
    "DurationMs": 104,
    "Vel": 75
  },
  {
    "TimeMs": 98777,
    "Key": 77,
    "DurationMs": 104,
    "Vel": 75
  },
  {
    "TimeMs": 98888,
    "Key": 82,
    "DurationMs": 104,
    "Vel": 75
  },
  {
    "TimeMs": 98889,
    "Key": 53,
    "DurationMs": 209,
    "Vel": 75
  },
  {
    "TimeMs": 98999,
    "Key": 72,
    "DurationMs": 104,
    "Vel": 75
  },
  {
    "TimeMs": 99111,
    "Key": 84,
    "DurationMs": 104,
    "Vel": 75
  },
  {
    "TimeMs": 99111,
    "Key": 60,
    "DurationMs": 842,
    "Vel": 75
  },
  {
    "TimeMs": 99112,
    "Key": 69,
    "DurationMs": 842,
    "Vel": 75
  },
  {
    "TimeMs": 99222,
    "Key": 72,
    "DurationMs": 104,
    "Vel": 75
  },
  {
    "TimeMs": 99333,
    "Key": 77,
    "DurationMs": 104,
    "Vel": 75
  },
  {
    "TimeMs": 99444,
    "Key": 82,
    "DurationMs": 104,
    "Vel": 75
  },
  {
    "TimeMs": 99555,
    "Key": 72,
    "DurationMs": 104,
    "Vel": 75
  },
  {
    "TimeMs": 99666,
    "Key": 77,
    "DurationMs": 104,
    "Vel": 75
  },
  {
    "TimeMs": 99777,
    "Key": 82,
    "DurationMs": 104,
    "Vel": 75
  },
  {
    "TimeMs": 99888,
    "Key": 72,
    "DurationMs": 104,
    "Vel": 75
  },
  {
    "TimeMs": 99999,
    "Key": 81,
    "DurationMs": 104,
    "Vel": 75
  },
  {
    "TimeMs": 100000,
    "Key": 43,
    "DurationMs": 314,
    "Vel": 75
  },
  {
    "TimeMs": 100001,
    "Key": 55,
    "DurationMs": 314,
    "Vel": 75
  },
  {
    "TimeMs": 100111,
    "Key": 74,
    "DurationMs": 104,
    "Vel": 75
  },
  {
    "TimeMs": 100222,
    "Key": 70,
    "DurationMs": 104,
    "Vel": 75
  },
  {
    "TimeMs": 100333,
    "Key": 74,
    "DurationMs": 104,
    "Vel": 75
  },
  {
    "TimeMs": 100334,
    "Key": 55,
    "DurationMs": 314,
    "Vel": 75
  },
  {
    "TimeMs": 100444,
    "Key": 70,
    "DurationMs": 104,
    "Vel": 75
  },
  {
    "TimeMs": 100555,
    "Key": 74,
    "DurationMs": 104,
    "Vel": 75
  },
  {
    "TimeMs": 100666,
    "Key": 70,
    "DurationMs": 104,
    "Vel": 75
  },
  {
    "TimeMs": 100667,
    "Key": 55,
    "DurationMs": 209,
    "Vel": 75
  },
  {
    "TimeMs": 100777,
    "Key": 74,
    "DurationMs": 104,
    "Vel": 75
  },
  {
    "TimeMs": 100888,
    "Key": 82,
    "DurationMs": 421,
    "Vel": 64
  },
  {
    "TimeMs": 100889,
    "Key": 67,
    "DurationMs": 103,
    "Vel": 64
  },
  {
    "TimeMs": 100999,
    "Key": 69,
    "DurationMs": 104,
    "Vel": 64
  },
  {
    "TimeMs": 101111,
    "Key": 70,
    "DurationMs": 104,
    "Vel": 64
  },
  {
    "TimeMs": 101222,
    "Key": 74,
    "DurationMs": 104,
    "Vel": 64
  },
  {
    "TimeMs": 101333,
    "Key": 79,
    "DurationMs": 421,
    "Vel": 64
  },
  {
    "TimeMs": 101555,
    "Key": 82,
    "DurationMs": 210,
    "Vel": 64
  },
  {
    "TimeMs": 101556,
    "Key": 94,
    "DurationMs": 210,
    "Vel": 64
  },
  {
    "TimeMs": 101777,
    "Key": 84,
    "DurationMs": 210,
    "Vel": 64
  },
  {
    "TimeMs": 101778,
    "Key": 96,
    "DurationMs": 210,
    "Vel": 64
  },
  {
    "TimeMs": 101779,
    "Key": 51,
    "DurationMs": 102,
    "Vel": 64
  },
  {
    "TimeMs": 101888,
    "Key": 65,
    "DurationMs": 104,
    "Vel": 64
  },
  {
    "TimeMs": 101999,
    "Key": 82,
    "DurationMs": 104,
    "Vel": 64
  },
  {
    "TimeMs": 102000,
    "Key": 94,
    "DurationMs": 104,
    "Vel": 64
  },
  {
    "TimeMs": 102001,
    "Key": 63,
    "DurationMs": 104,
    "Vel": 64
  },
  {
    "TimeMs": 102111,
    "Key": 84,
    "DurationMs": 315,
    "Vel": 64
  },
  {
    "TimeMs": 102111,
    "Key": 96,
    "DurationMs": 315,
    "Vel": 64
  },
  {
    "TimeMs": 102112,
    "Key": 65,
    "DurationMs": 102,
    "Vel": 64
  },
  {
    "TimeMs": 102222,
    "Key": 58,
    "DurationMs": 104,
    "Vel": 64
  },
  {
    "TimeMs": 102333,
    "Key": 67,
    "DurationMs": 104,
    "Vel": 64
  },
  {
    "TimeMs": 102444,
    "Key": 82,
    "DurationMs": 210,
    "Vel": 64
  },
  {
    "TimeMs": 102445,
    "Key": 94,
    "DurationMs": 210,
    "Vel": 64
  },
  {
    "TimeMs": 102446,
    "Key": 69,
    "DurationMs": 102,
    "Vel": 64
  },
  {
    "TimeMs": 102555,
    "Key": 70,
    "DurationMs": 104,
    "Vel": 64
  },
  {
    "TimeMs": 102666,
    "Key": 84,
    "DurationMs": 210,
    "Vel": 64
  },
  {
    "TimeMs": 102667,
    "Key": 96,
    "DurationMs": 210,
    "Vel": 64
  },
  {
    "TimeMs": 102668,
    "Key": 77,
    "DurationMs": 102,
    "Vel": 64
  },
  {
    "TimeMs": 102777,
    "Key": 74,
    "DurationMs": 104,
    "Vel": 64
  },
  {
    "TimeMs": 102888,
    "Key": 82,
    "DurationMs": 104,
    "Vel": 64
  },
  {
    "TimeMs": 102889,
    "Key": 94,
    "DurationMs": 104,
    "Vel": 64
  },
  {
    "TimeMs": 102890,
    "Key": 72,
    "DurationMs": 104,
    "Vel": 64
  },
  {
    "TimeMs": 102999,
    "Key": 84,
    "DurationMs": 315,
    "Vel": 64
  },
  {
    "TimeMs": 103000,
    "Key": 96,
    "DurationMs": 315,
    "Vel": 64
  },
  {
    "TimeMs": 103001,
    "Key": 74,
    "DurationMs": 102,
    "Vel": 64
  },
  {
    "TimeMs": 103111,
    "Key": 63,
    "DurationMs": 104,
    "Vel": 64
  },
  {
    "TimeMs": 103222,
    "Key": 70,
    "DurationMs": 104,
    "Vel": 64
  },
  {
    "TimeMs": 103333,
    "Key": 82,
    "DurationMs": 210,
    "Vel": 64
  },
  {
    "TimeMs": 103334,
    "Key": 94,
    "DurationMs": 210,
    "Vel": 64
  },
  {
    "TimeMs": 103335,
    "Key": 69,
    "DurationMs": 102,
    "Vel": 64
  },
  {
    "TimeMs": 103444,
    "Key": 70,
    "DurationMs": 104,
    "Vel": 64
  },
  {
    "TimeMs": 103555,
    "Key": 81,
    "DurationMs": 210,
    "Vel": 64
  },
  {
    "TimeMs": 103556,
    "Key": 93,
    "DurationMs": 210,
    "Vel": 64
  },
  {
    "TimeMs": 103557,
    "Key": 55,
    "DurationMs": 102,
    "Vel": 64
  },
  {
    "TimeMs": 103666,
    "Key": 65,
    "DurationMs": 104,
    "Vel": 64
  },
  {
    "TimeMs": 103777,
    "Key": 81,
    "DurationMs": 104,
    "Vel": 64
  },
  {
    "TimeMs": 103778,
    "Key": 93,
    "DurationMs": 104,
    "Vel": 64
  },
  {
    "TimeMs": 103779,
    "Key": 62,
    "DurationMs": 104,
    "Vel": 64
  },
  {
    "TimeMs": 103888,
    "Key": 81,
    "DurationMs": 315,
    "Vel": 64
  },
  {
    "TimeMs": 103889,
    "Key": 93,
    "DurationMs": 315,
    "Vel": 64
  },
  {
    "TimeMs": 103890,
    "Key": 65,
    "DurationMs": 102,
    "Vel": 64
  },
  {
    "TimeMs": 103999,
    "Key": 58,
    "DurationMs": 104,
    "Vel": 64
  },
  {
    "TimeMs": 104111,
    "Key": 67,
    "DurationMs": 104,
    "Vel": 64
  },
  {
    "TimeMs": 104222,
    "Key": 81,
    "DurationMs": 210,
    "Vel": 64
  },
  {
    "TimeMs": 104223,
    "Key": 93,
    "DurationMs": 210,
    "Vel": 64
  },
  {
    "TimeMs": 104223,
    "Key": 69,
    "DurationMs": 102,
    "Vel": 64
  },
  {
    "TimeMs": 104333,
    "Key": 70,
    "DurationMs": 104,
    "Vel": 64
  },
  {
    "TimeMs": 104444,
    "Key": 81,
    "DurationMs": 210,
    "Vel": 64
  },
  {
    "TimeMs": 104445,
    "Key": 93,
    "DurationMs": 210,
    "Vel": 64
  },
  {
    "TimeMs": 104446,
    "Key": 77,
    "DurationMs": 102,
    "Vel": 64
  },
  {
    "TimeMs": 104555,
    "Key": 74,
    "DurationMs": 104,
    "Vel": 64
  },
  {
    "TimeMs": 104666,
    "Key": 81,
    "DurationMs": 104,
    "Vel": 64
  },
  {
    "TimeMs": 104667,
    "Key": 93,
    "DurationMs": 104,
    "Vel": 64
  },
  {
    "TimeMs": 104668,
    "Key": 72,
    "DurationMs": 104,
    "Vel": 64
  },
  {
    "TimeMs": 104777,
    "Key": 81,
    "DurationMs": 315,
    "Vel": 64
  },
  {
    "TimeMs": 104778,
    "Key": 93,
    "DurationMs": 315,
    "Vel": 64
  },
  {
    "TimeMs": 104779,
    "Key": 74,
    "DurationMs": 102,
    "Vel": 64
  },
  {
    "TimeMs": 104888,
    "Key": 67,
    "DurationMs": 104,
    "Vel": 64
  },
  {
    "TimeMs": 104999,
    "Key": 70,
    "DurationMs": 104,
    "Vel": 64
  },
  {
    "TimeMs": 105111,
    "Key": 82,
    "DurationMs": 210,
    "Vel": 64
  },
  {
    "TimeMs": 105111,
    "Key": 94,
    "DurationMs": 210,
    "Vel": 64
  },
  {
    "TimeMs": 105112,
    "Key": 69,
    "DurationMs": 102,
    "Vel": 64
  },
  {
    "TimeMs": 105222,
    "Key": 70,
    "DurationMs": 104,
    "Vel": 64
  },
  {
    "TimeMs": 105333,
    "Key": 84,
    "DurationMs": 210,
    "Vel": 64
  },
  {
    "TimeMs": 105334,
    "Key": 96,
    "DurationMs": 210,
    "Vel": 64
  },
  {
    "TimeMs": 105335,
    "Key": 53,
    "DurationMs": 102,
    "Vel": 64
  },
  {
    "TimeMs": 105444,
    "Key": 65,
    "DurationMs": 104,
    "Vel": 64
  },
  {
    "TimeMs": 105555,
    "Key": 82,
    "DurationMs": 104,
    "Vel": 64
  },
  {
    "TimeMs": 105556,
    "Key": 94,
    "DurationMs": 104,
    "Vel": 64
  },
  {
    "TimeMs": 105557,
    "Key": 60,
    "DurationMs": 104,
    "Vel": 64
  },
  {
    "TimeMs": 105666,
    "Key": 84,
    "DurationMs": 315,
    "Vel": 64
  },
  {
    "TimeMs": 105667,
    "Key": 96,
    "DurationMs": 315,
    "Vel": 64
  },
  {
    "TimeMs": 105668,
    "Key": 65,
    "DurationMs": 102,
    "Vel": 64
  },
  {
    "TimeMs": 105777,
    "Key": 58,
    "DurationMs": 104,
    "Vel": 64
  },
  {
    "TimeMs": 105888,
    "Key": 65,
    "DurationMs": 104,
    "Vel": 64
  },
  {
    "TimeMs": 105999,
    "Key": 82,
    "DurationMs": 210,
    "Vel": 64
  },
  {
    "TimeMs": 106000,
    "Key": 94,
    "DurationMs": 210,
    "Vel": 64
  },
  {
    "TimeMs": 106001,
    "Key": 70,
    "DurationMs": 102,
    "Vel": 64
  },
  {
    "TimeMs": 106111,
    "Key": 72,
    "DurationMs": 104,
    "Vel": 64
  },
  {
    "TimeMs": 106222,
    "Key": 84,
    "DurationMs": 210,
    "Vel": 64
  },
  {
    "TimeMs": 106223,
    "Key": 96,
    "DurationMs": 210,
    "Vel": 64
  },
  {
    "TimeMs": 106223,
    "Key": 77,
    "DurationMs": 102,
    "Vel": 64
  },
  {
    "TimeMs": 106333,
    "Key": 72,
    "DurationMs": 104,
    "Vel": 64
  },
  {
    "TimeMs": 106444,
    "Key": 82,
    "DurationMs": 104,
    "Vel": 64
  },
  {
    "TimeMs": 106445,
    "Key": 94,
    "DurationMs": 104,
    "Vel": 64
  },
  {
    "TimeMs": 106446,
    "Key": 70,
    "DurationMs": 104,
    "Vel": 64
  },
  {
    "TimeMs": 106555,
    "Key": 84,
    "DurationMs": 315,
    "Vel": 64
  },
  {
    "TimeMs": 106556,
    "Key": 96,
    "DurationMs": 315,
    "Vel": 64
  },
  {
    "TimeMs": 106557,
    "Key": 72,
    "DurationMs": 102,
    "Vel": 64
  },
  {
    "TimeMs": 106666,
    "Key": 65,
    "DurationMs": 104,
    "Vel": 64
  },
  {
    "TimeMs": 106777,
    "Key": 70,
    "DurationMs": 104,
    "Vel": 64
  },
  {
    "TimeMs": 106888,
    "Key": 82,
    "DurationMs": 210,
    "Vel": 64
  },
  {
    "TimeMs": 106889,
    "Key": 94,
    "DurationMs": 210,
    "Vel": 64
  },
  {
    "TimeMs": 106890,
    "Key": 69,
    "DurationMs": 102,
    "Vel": 64
  },
  {
    "TimeMs": 106999,
    "Key": 70,
    "DurationMs": 104,
    "Vel": 64
  },
  {
    "TimeMs": 107111,
    "Key": 81,
    "DurationMs": 210,
    "Vel": 64
  },
  {
    "TimeMs": 107111,
    "Key": 93,
    "DurationMs": 210,
    "Vel": 64
  },
  {
    "TimeMs": 107112,
    "Key": 55,
    "DurationMs": 102,
    "Vel": 64
  },
  {
    "TimeMs": 107222,
    "Key": 65,
    "DurationMs": 104,
    "Vel": 64
  },
  {
    "TimeMs": 107333,
    "Key": 81,
    "DurationMs": 104,
    "Vel": 64
  },
  {
    "TimeMs": 107334,
    "Key": 93,
    "DurationMs": 104,
    "Vel": 64
  },
  {
    "TimeMs": 107335,
    "Key": 62,
    "DurationMs": 104,
    "Vel": 64
  },
  {
    "TimeMs": 107444,
    "Key": 81,
    "DurationMs": 315,
    "Vel": 64
  },
  {
    "TimeMs": 107445,
    "Key": 93,
    "DurationMs": 315,
    "Vel": 64
  },
  {
    "TimeMs": 107446,
    "Key": 65,
    "DurationMs": 102,
    "Vel": 64
  },
  {
    "TimeMs": 107555,
    "Key": 58,
    "DurationMs": 104,
    "Vel": 64
  },
  {
    "TimeMs": 107666,
    "Key": 67,
    "DurationMs": 104,
    "Vel": 64
  },
  {
    "TimeMs": 107777,
    "Key": 81,
    "DurationMs": 210,
    "Vel": 64
  },
  {
    "TimeMs": 107778,
    "Key": 93,
    "DurationMs": 210,
    "Vel": 64
  },
  {
    "TimeMs": 107779,
    "Key": 69,
    "DurationMs": 102,
    "Vel": 64
  },
  {
    "TimeMs": 107888,
    "Key": 70,
    "DurationMs": 104,
    "Vel": 64
  },
  {
    "TimeMs": 107999,
    "Key": 81,
    "DurationMs": 210,
    "Vel": 64
  },
  {
    "TimeMs": 108000,
    "Key": 93,
    "DurationMs": 210,
    "Vel": 64
  },
  {
    "TimeMs": 108001,
    "Key": 77,
    "DurationMs": 102,
    "Vel": 64
  },
  {
    "TimeMs": 108111,
    "Key": 74,
    "DurationMs": 104,
    "Vel": 64
  },
  {
    "TimeMs": 108222,
    "Key": 81,
    "DurationMs": 104,
    "Vel": 64
  },
  {
    "TimeMs": 108223,
    "Key": 93,
    "DurationMs": 104,
    "Vel": 64
  },
  {
    "TimeMs": 108223,
    "Key": 72,
    "DurationMs": 104,
    "Vel": 64
  },
  {
    "TimeMs": 108333,
    "Key": 81,
    "DurationMs": 315,
    "Vel": 64
  },
  {
    "TimeMs": 108334,
    "Key": 93,
    "DurationMs": 315,
    "Vel": 64
  },
  {
    "TimeMs": 108335,
    "Key": 74,
    "DurationMs": 102,
    "Vel": 64
  },
  {
    "TimeMs": 108444,
    "Key": 67,
    "DurationMs": 104,
    "Vel": 64
  },
  {
    "TimeMs": 108555,
    "Key": 70,
    "DurationMs": 104,
    "Vel": 64
  },
  {
    "TimeMs": 108666,
    "Key": 82,
    "DurationMs": 210,
    "Vel": 64
  },
  {
    "TimeMs": 108667,
    "Key": 69,
    "DurationMs": 103,
    "Vel": 64
  },
  {
    "TimeMs": 108777,
    "Key": 70,
    "DurationMs": 104,
    "Vel": 64
  },
  {
    "TimeMs": 108888,
    "Key": 72,
    "DurationMs": 210,
    "Vel": 80
  },
  {
    "TimeMs": 108889,
    "Key": 75,
    "DurationMs": 210,
    "Vel": 80
  },
  {
    "TimeMs": 108890,
    "Key": 79,
    "DurationMs": 210,
    "Vel": 80
  },
  {
    "TimeMs": 108891,
    "Key": 84,
    "DurationMs": 210,
    "Vel": 80
  },
  {
    "TimeMs": 108892,
    "Key": 51,
    "DurationMs": 100,
    "Vel": 80
  },
  {
    "TimeMs": 108999,
    "Key": 63,
    "DurationMs": 104,
    "Vel": 80
  },
  {
    "TimeMs": 109111,
    "Key": 70,
    "DurationMs": 104,
    "Vel": 80
  },
  {
    "TimeMs": 109111,
    "Key": 82,
    "DurationMs": 104,
    "Vel": 80
  },
  {
    "TimeMs": 109112,
    "Key": 55,
    "DurationMs": 104,
    "Vel": 80
  },
  {
    "TimeMs": 109113,
    "Key": 58,
    "DurationMs": 104,
    "Vel": 80
  },
  {
    "TimeMs": 109222,
    "Key": 72,
    "DurationMs": 315,
    "Vel": 80
  },
  {
    "TimeMs": 109223,
    "Key": 75,
    "DurationMs": 315,
    "Vel": 80
  },
  {
    "TimeMs": 109223,
    "Key": 79,
    "DurationMs": 315,
    "Vel": 80
  },
  {
    "TimeMs": 109224,
    "Key": 84,
    "DurationMs": 315,
    "Vel": 80
  },
  {
    "TimeMs": 109225,
    "Key": 51,
    "DurationMs": 100,
    "Vel": 80
  },
  {
    "TimeMs": 109333,
    "Key": 39,
    "DurationMs": 104,
    "Vel": 80
  },
  {
    "TimeMs": 109444,
    "Key": 51,
    "DurationMs": 104,
    "Vel": 80
  },
  {
    "TimeMs": 109555,
    "Key": 82,
    "DurationMs": 210,
    "Vel": 80
  },
  {
    "TimeMs": 109556,
    "Key": 94,
    "DurationMs": 210,
    "Vel": 80
  },
  {
    "TimeMs": 109557,
    "Key": 55,
    "DurationMs": 102,
    "Vel": 80
  },
  {
    "TimeMs": 109558,
    "Key": 58,
    "DurationMs": 102,
    "Vel": 80
  },
  {
    "TimeMs": 109666,
    "Key": 63,
    "DurationMs": 104,
    "Vel": 80
  },
  {
    "TimeMs": 109777,
    "Key": 84,
    "DurationMs": 210,
    "Vel": 80
  },
  {
    "TimeMs": 109778,
    "Key": 87,
    "DurationMs": 210,
    "Vel": 80
  },
  {
    "TimeMs": 109779,
    "Key": 91,
    "DurationMs": 210,
    "Vel": 80
  },
  {
    "TimeMs": 109780,
    "Key": 96,
    "DurationMs": 210,
    "Vel": 80
  },
  {
    "TimeMs": 109781,
    "Key": 51,
    "DurationMs": 100,
    "Vel": 80
  },
  {
    "TimeMs": 109888,
    "Key": 63,
    "DurationMs": 104,
    "Vel": 80
  },
  {
    "TimeMs": 109999,
    "Key": 82,
    "DurationMs": 104,
    "Vel": 80
  },
  {
    "TimeMs": 110000,
    "Key": 94,
    "DurationMs": 104,
    "Vel": 80
  },
  {
    "TimeMs": 110001,
    "Key": 55,
    "DurationMs": 104,
    "Vel": 80
  },
  {
    "TimeMs": 110002,
    "Key": 58,
    "DurationMs": 104,
    "Vel": 80
  },
  {
    "TimeMs": 110111,
    "Key": 84,
    "DurationMs": 315,
    "Vel": 80
  },
  {
    "TimeMs": 110111,
    "Key": 87,
    "DurationMs": 315,
    "Vel": 80
  },
  {
    "TimeMs": 110112,
    "Key": 91,
    "DurationMs": 315,
    "Vel": 80
  },
  {
    "TimeMs": 110113,
    "Key": 96,
    "DurationMs": 315,
    "Vel": 80
  },
  {
    "TimeMs": 110114,
    "Key": 51,
    "DurationMs": 100,
    "Vel": 80
  },
  {
    "TimeMs": 110222,
    "Key": 39,
    "DurationMs": 104,
    "Vel": 80
  },
  {
    "TimeMs": 110333,
    "Key": 51,
    "DurationMs": 104,
    "Vel": 80
  },
  {
    "TimeMs": 110444,
    "Key": 70,
    "DurationMs": 210,
    "Vel": 80
  },
  {
    "TimeMs": 110445,
    "Key": 82,
    "DurationMs": 210,
    "Vel": 80
  },
  {
    "TimeMs": 110446,
    "Key": 55,
    "DurationMs": 102,
    "Vel": 80
  },
  {
    "TimeMs": 110447,
    "Key": 58,
    "DurationMs": 102,
    "Vel": 80
  },
  {
    "TimeMs": 110555,
    "Key": 63,
    "DurationMs": 104,
    "Vel": 80
  },
  {
    "TimeMs": 110666,
    "Key": 72,
    "DurationMs": 210,
    "Vel": 80
  },
  {
    "TimeMs": 110667,
    "Key": 77,
    "DurationMs": 210,
    "Vel": 80
  },
  {
    "TimeMs": 110668,
    "Key": 84,
    "DurationMs": 210,
    "Vel": 80
  },
  {
    "TimeMs": 110669,
    "Key": 55,
    "DurationMs": 101,
    "Vel": 80
  },
  {
    "TimeMs": 110777,
    "Key": 67,
    "DurationMs": 104,
    "Vel": 80
  },
  {
    "TimeMs": 110888,
    "Key": 70,
    "DurationMs": 104,
    "Vel": 80
  },
  {
    "TimeMs": 110889,
    "Key": 82,
    "DurationMs": 104,
    "Vel": 80
  },
  {
    "TimeMs": 110890,
    "Key": 58,
    "DurationMs": 104,
    "Vel": 80
  },
  {
    "TimeMs": 110891,
    "Key": 62,
    "DurationMs": 104,
    "Vel": 80
  },
  {
    "TimeMs": 110999,
    "Key": 72,
    "DurationMs": 315,
    "Vel": 80
  },
  {
    "TimeMs": 111000,
    "Key": 77,
    "DurationMs": 315,
    "Vel": 80
  },
  {
    "TimeMs": 111001,
    "Key": 84,
    "DurationMs": 315,
    "Vel": 80
  },
  {
    "TimeMs": 111002,
    "Key": 55,
    "DurationMs": 101,
    "Vel": 80
  },
  {
    "TimeMs": 111111,
    "Key": 43,
    "DurationMs": 104,
    "Vel": 80
  },
  {
    "TimeMs": 111222,
    "Key": 55,
    "DurationMs": 104,
    "Vel": 80
  },
  {
    "TimeMs": 111333,
    "Key": 82,
    "DurationMs": 210,
    "Vel": 80
  },
  {
    "TimeMs": 111334,
    "Key": 94,
    "DurationMs": 210,
    "Vel": 80
  },
  {
    "TimeMs": 111335,
    "Key": 58,
    "DurationMs": 102,
    "Vel": 80
  },
  {
    "TimeMs": 111335,
    "Key": 62,
    "DurationMs": 102,
    "Vel": 80
  },
  {
    "TimeMs": 111444,
    "Key": 67,
    "DurationMs": 104,
    "Vel": 80
  },
  {
    "TimeMs": 111555,
    "Key": 84,
    "DurationMs": 210,
    "Vel": 80
  },
  {
    "TimeMs": 111556,
    "Key": 89,
    "DurationMs": 210,
    "Vel": 80
  },
  {
    "TimeMs": 111557,
    "Key": 96,
    "DurationMs": 210,
    "Vel": 80
  },
  {
    "TimeMs": 111558,
    "Key": 55,
    "DurationMs": 101,
    "Vel": 80
  },
  {
    "TimeMs": 111666,
    "Key": 67,
    "DurationMs": 104,
    "Vel": 80
  },
  {
    "TimeMs": 111777,
    "Key": 82,
    "DurationMs": 104,
    "Vel": 80
  },
  {
    "TimeMs": 111778,
    "Key": 94,
    "DurationMs": 104,
    "Vel": 80
  },
  {
    "TimeMs": 111779,
    "Key": 58,
    "DurationMs": 104,
    "Vel": 80
  },
  {
    "TimeMs": 111780,
    "Key": 62,
    "DurationMs": 104,
    "Vel": 80
  },
  {
    "TimeMs": 111888,
    "Key": 84,
    "DurationMs": 315,
    "Vel": 80
  },
  {
    "TimeMs": 111889,
    "Key": 89,
    "DurationMs": 315,
    "Vel": 80
  },
  {
    "TimeMs": 111890,
    "Key": 96,
    "DurationMs": 315,
    "Vel": 80
  },
  {
    "TimeMs": 111891,
    "Key": 55,
    "DurationMs": 101,
    "Vel": 80
  },
  {
    "TimeMs": 111999,
    "Key": 43,
    "DurationMs": 104,
    "Vel": 80
  },
  {
    "TimeMs": 112110,
    "Key": 55,
    "DurationMs": 104,
    "Vel": 80
  },
  {
    "TimeMs": 112222,
    "Key": 70,
    "DurationMs": 210,
    "Vel": 80
  },
  {
    "TimeMs": 112223,
    "Key": 82,
    "DurationMs": 210,
    "Vel": 80
  },
  {
    "TimeMs": 112223,
    "Key": 58,
    "DurationMs": 102,
    "Vel": 80
  },
  {
    "TimeMs": 112224,
    "Key": 62,
    "DurationMs": 102,
    "Vel": 80
  },
  {
    "TimeMs": 112333,
    "Key": 67,
    "DurationMs": 104,
    "Vel": 80
  },
  {
    "TimeMs": 112444,
    "Key": 72,
    "DurationMs": 210,
    "Vel": 80
  },
  {
    "TimeMs": 112445,
    "Key": 77,
    "DurationMs": 210,
    "Vel": 80
  },
  {
    "TimeMs": 112446,
    "Key": 84,
    "DurationMs": 210,
    "Vel": 80
  },
  {
    "TimeMs": 112447,
    "Key": 53,
    "DurationMs": 101,
    "Vel": 80
  },
  {
    "TimeMs": 112555,
    "Key": 65,
    "DurationMs": 104,
    "Vel": 80
  },
  {
    "TimeMs": 112666,
    "Key": 70,
    "DurationMs": 104,
    "Vel": 80
  },
  {
    "TimeMs": 112667,
    "Key": 82,
    "DurationMs": 104,
    "Vel": 80
  },
  {
    "TimeMs": 112668,
    "Key": 57,
    "DurationMs": 104,
    "Vel": 80
  },
  {
    "TimeMs": 112669,
    "Key": 60,
    "DurationMs": 104,
    "Vel": 80
  },
  {
    "TimeMs": 112777,
    "Key": 72,
    "DurationMs": 315,
    "Vel": 80
  },
  {
    "TimeMs": 112778,
    "Key": 77,
    "DurationMs": 315,
    "Vel": 80
  },
  {
    "TimeMs": 112779,
    "Key": 84,
    "DurationMs": 315,
    "Vel": 80
  },
  {
    "TimeMs": 112780,
    "Key": 53,
    "DurationMs": 101,
    "Vel": 80
  },
  {
    "TimeMs": 112888,
    "Key": 41,
    "DurationMs": 104,
    "Vel": 80
  },
  {
    "TimeMs": 112999,
    "Key": 53,
    "DurationMs": 104,
    "Vel": 80
  },
  {
    "TimeMs": 113110,
    "Key": 82,
    "DurationMs": 210,
    "Vel": 80
  },
  {
    "TimeMs": 113111,
    "Key": 94,
    "DurationMs": 210,
    "Vel": 80
  },
  {
    "TimeMs": 113112,
    "Key": 57,
    "DurationMs": 102,
    "Vel": 80
  },
  {
    "TimeMs": 113113,
    "Key": 60,
    "DurationMs": 102,
    "Vel": 80
  },
  {
    "TimeMs": 113222,
    "Key": 65,
    "DurationMs": 104,
    "Vel": 80
  },
  {
    "TimeMs": 113333,
    "Key": 84,
    "DurationMs": 315,
    "Vel": 80
  },
  {
    "TimeMs": 113334,
    "Key": 89,
    "DurationMs": 315,
    "Vel": 80
  },
  {
    "TimeMs": 113335,
    "Key": 96,
    "DurationMs": 315,
    "Vel": 80
  },
  {
    "TimeMs": 113335,
    "Key": 53,
    "DurationMs": 101,
    "Vel": 80
  },
  {
    "TimeMs": 113444,
    "Key": 65,
    "DurationMs": 104,
    "Vel": 80
  },
  {
    "TimeMs": 113555,
    "Key": 57,
    "DurationMs": 104,
    "Vel": 80
  },
  {
    "TimeMs": 113556,
    "Key": 60,
    "DurationMs": 104,
    "Vel": 80
  },
  {
    "TimeMs": 113666,
    "Key": 82,
    "DurationMs": 315,
    "Vel": 80
  },
  {
    "TimeMs": 113667,
    "Key": 94,
    "DurationMs": 315,
    "Vel": 80
  },
  {
    "TimeMs": 113668,
    "Key": 53,
    "DurationMs": 102,
    "Vel": 80
  },
  {
    "TimeMs": 113777,
    "Key": 41,
    "DurationMs": 104,
    "Vel": 80
  },
  {
    "TimeMs": 113888,
    "Key": 53,
    "DurationMs": 104,
    "Vel": 80
  },
  {
    "TimeMs": 113999,
    "Key": 84,
    "DurationMs": 421,
    "Vel": 80
  },
  {
    "TimeMs": 114000,
    "Key": 89,
    "DurationMs": 421,
    "Vel": 80
  },
  {
    "TimeMs": 114001,
    "Key": 96,
    "DurationMs": 421,
    "Vel": 80
  },
  {
    "TimeMs": 114002,
    "Key": 57,
    "DurationMs": 101,
    "Vel": 80
  },
  {
    "TimeMs": 114003,
    "Key": 60,
    "DurationMs": 101,
    "Vel": 80
  },
  {
    "TimeMs": 114110,
    "Key": 65,
    "DurationMs": 104,
    "Vel": 80
  },
  {
    "TimeMs": 114222,
    "Key": 55,
    "DurationMs": 104,
    "Vel": 80
  },
  {
    "TimeMs": 114333,
    "Key": 67,
    "DurationMs": 104,
    "Vel": 80
  },
  {
    "TimeMs": 114444,
    "Key": 82,
    "DurationMs": 632,
    "Vel": 80
  },
  {
    "TimeMs": 114445,
    "Key": 94,
    "DurationMs": 632,
    "Vel": 80
  },
  {
    "TimeMs": 114446,
    "Key": 58,
    "DurationMs": 102,
    "Vel": 80
  },
  {
    "TimeMs": 114447,
    "Key": 62,
    "DurationMs": 102,
    "Vel": 80
  },
  {
    "TimeMs": 114555,
    "Key": 55,
    "DurationMs": 104,
    "Vel": 80
  },
  {
    "TimeMs": 114666,
    "Key": 43,
    "DurationMs": 421,
    "Vel": 80
  },
  {
    "TimeMs": 115110,
    "Key": 79,
    "DurationMs": 315,
    "Vel": 80
  },
  {
    "TimeMs": 115111,
    "Key": 81,
    "DurationMs": 315,
    "Vel": 80
  },
  {
    "TimeMs": 115112,
    "Key": 82,
    "DurationMs": 315,
    "Vel": 80
  },
  {
    "TimeMs": 115113,
    "Key": 86,
    "DurationMs": 315,
    "Vel": 80
  },
  {
    "TimeMs": 115114,
    "Key": 91,
    "DurationMs": 315,
    "Vel": 80
  },
  {
    "TimeMs": 115115,
    "Key": 55,
    "DurationMs": 315,
    "Vel": 80
  },
  {
    "TimeMs": 115116,
    "Key": 58,
    "DurationMs": 315,
    "Vel": 80
  },
  {
    "TimeMs": 115117,
    "Key": 62,
    "DurationMs": 315,
    "Vel": 80
  },
  {
    "TimeMs": 115444,
    "Key": 79,
    "DurationMs": 315,
    "Vel": 80
  },
  {
    "TimeMs": 115445,
    "Key": 81,
    "DurationMs": 315,
    "Vel": 80
  },
  {
    "TimeMs": 115446,
    "Key": 82,
    "DurationMs": 315,
    "Vel": 80
  },
  {
    "TimeMs": 115447,
    "Key": 86,
    "DurationMs": 315,
    "Vel": 80
  },
  {
    "TimeMs": 115448,
    "Key": 91,
    "DurationMs": 315,
    "Vel": 80
  },
  {
    "TimeMs": 115448,
    "Key": 55,
    "DurationMs": 315,
    "Vel": 80
  },
  {
    "TimeMs": 115449,
    "Key": 58,
    "DurationMs": 315,
    "Vel": 80
  },
  {
    "TimeMs": 115450,
    "Key": 62,
    "DurationMs": 315,
    "Vel": 80
  },
  {
    "TimeMs": 115777,
    "Key": 79,
    "DurationMs": 378,
    "Vel": 80
  },
  {
    "TimeMs": 115778,
    "Key": 81,
    "DurationMs": 378,
    "Vel": 80
  },
  {
    "TimeMs": 115779,
    "Key": 82,
    "DurationMs": 378,
    "Vel": 80
  },
  {
    "TimeMs": 115780,
    "Key": 86,
    "DurationMs": 378,
    "Vel": 80
  },
  {
    "TimeMs": 115781,
    "Key": 91,
    "DurationMs": 378,
    "Vel": 80
  },
  {
    "TimeMs": 115782,
    "Key": 55,
    "DurationMs": 205,
    "Vel": 80
  },
  {
    "TimeMs": 115783,
    "Key": 58,
    "DurationMs": 205,
    "Vel": 80
  },
  {
    "TimeMs": 115784,
    "Key": 62,
    "DurationMs": 205,
    "Vel": 80
  },
  {
    "TimeMs": 115999,
    "Key": 27,
    "DurationMs": 315,
    "Vel": 80
  },
  {
    "TimeMs": 116000,
    "Key": 39,
    "DurationMs": 315,
    "Vel": 80
  },
  {
    "TimeMs": 116177,
    "Key": 50,
    "DurationMs": 83,
    "Vel": 80
  },
  {
    "TimeMs": 116266,
    "Key": 55,
    "DurationMs": 83,
    "Vel": 80
  },
  {
    "TimeMs": 116333,
    "Key": 39,
    "DurationMs": 315,
    "Vel": 80
  },
  {
    "TimeMs": 116355,
    "Key": 57,
    "DurationMs": 83,
    "Vel": 81
  },
  {
    "TimeMs": 116444,
    "Key": 58,
    "DurationMs": 83,
    "Vel": 82
  },
  {
    "TimeMs": 116533,
    "Key": 62,
    "DurationMs": 83,
    "Vel": 83
  },
  {
    "TimeMs": 116622,
    "Key": 67,
    "DurationMs": 83,
    "Vel": 84
  },
  {
    "TimeMs": 116666,
    "Key": 39,
    "DurationMs": 210,
    "Vel": 80
  },
  {
    "TimeMs": 116710,
    "Key": 69,
    "DurationMs": 83,
    "Vel": 85
  },
  {
    "TimeMs": 116799,
    "Key": 70,
    "DurationMs": 83,
    "Vel": 86
  },
  {
    "TimeMs": 116888,
    "Key": 74,
    "DurationMs": 69,
    "Vel": 87
  },
  {
    "TimeMs": 116889,
    "Key": 46,
    "DurationMs": 314,
    "Vel": 80
  },
  {
    "TimeMs": 116890,
    "Key": 51,
    "DurationMs": 314,
    "Vel": 80
  },
  {
    "TimeMs": 116891,
    "Key": 55,
    "DurationMs": 314,
    "Vel": 80
  },
  {
    "TimeMs": 116962,
    "Key": 62,
    "DurationMs": 69,
    "Vel": 87
  },
  {
    "TimeMs": 117036,
    "Key": 67,
    "DurationMs": 69,
    "Vel": 88
  },
  {
    "TimeMs": 117110,
    "Key": 69,
    "DurationMs": 69,
    "Vel": 89
  },
  {
    "TimeMs": 117185,
    "Key": 70,
    "DurationMs": 69,
    "Vel": 90
  },
  {
    "TimeMs": 117222,
    "Key": 39,
    "DurationMs": 315,
    "Vel": 80
  },
  {
    "TimeMs": 117259,
    "Key": 74,
    "DurationMs": 69,
    "Vel": 90
  },
  {
    "TimeMs": 117333,
    "Key": 79,
    "DurationMs": 69,
    "Vel": 91
  },
  {
    "TimeMs": 117407,
    "Key": 81,
    "DurationMs": 69,
    "Vel": 92
  },
  {
    "TimeMs": 117481,
    "Key": 82,
    "DurationMs": 69,
    "Vel": 93
  },
  {
    "TimeMs": 117555,
    "Key": 86,
    "DurationMs": 69,
    "Vel": 93
  },
  {
    "TimeMs": 117556,
    "Key": 39,
    "DurationMs": 209,
    "Vel": 80
  },
  {
    "TimeMs": 117629,
    "Key": 91,
    "DurationMs": 69,
    "Vel": 94
  },
  {
    "TimeMs": 117703,
    "Key": 93,
    "DurationMs": 69,
    "Vel": 95
  },
  {
    "TimeMs": 117777,
    "Key": 94,
    "DurationMs": 83,
    "Vel": 96
  },
  {
    "TimeMs": 117778,
    "Key": 29,
    "DurationMs": 314,
    "Vel": 80
  },
  {
    "TimeMs": 117779,
    "Key": 41,
    "DurationMs": 314,
    "Vel": 80
  },
  {
    "TimeMs": 117866,
    "Key": 96,
    "DurationMs": 83,
    "Vel": 96
  },
  {
    "TimeMs": 117955,
    "Key": 94,
    "DurationMs": 83,
    "Vel": 96
  },
  {
    "TimeMs": 118044,
    "Key": 89,
    "DurationMs": 83,
    "Vel": 96
  },
  {
    "TimeMs": 118110,
    "Key": 41,
    "DurationMs": 315,
    "Vel": 80
  },
  {
    "TimeMs": 118133,
    "Key": 84,
    "DurationMs": 83,
    "Vel": 95
  },
  {
    "TimeMs": 118222,
    "Key": 82,
    "DurationMs": 83,
    "Vel": 94
  },
  {
    "TimeMs": 118310,
    "Key": 84,
    "DurationMs": 83,
    "Vel": 93
  },
  {
    "TimeMs": 118399,
    "Key": 82,
    "DurationMs": 83,
    "Vel": 92
  },
  {
    "TimeMs": 118444,
    "Key": 41,
    "DurationMs": 210,
    "Vel": 80
  },
  {
    "TimeMs": 118488,
    "Key": 77,
    "DurationMs": 83,
    "Vel": 91
  },
  {
    "TimeMs": 118577,
    "Key": 72,
    "DurationMs": 83,
    "Vel": 90
  },
  {
    "TimeMs": 118666,
    "Key": 81,
    "DurationMs": 83,
    "Vel": 89
  },
  {
    "TimeMs": 118667,
    "Key": 53,
    "DurationMs": 314,
    "Vel": 80
  },
  {
    "TimeMs": 118668,
    "Key": 57,
    "DurationMs": 314,
    "Vel": 80
  },
  {
    "TimeMs": 118669,
    "Key": 60,
    "DurationMs": 314,
    "Vel": 80
  },
  {
    "TimeMs": 118755,
    "Key": 77,
    "DurationMs": 83,
    "Vel": 88
  },
  {
    "TimeMs": 118844,
    "Key": 72,
    "DurationMs": 83,
    "Vel": 87
  },
  {
    "TimeMs": 118933,
    "Key": 70,
    "DurationMs": 83,
    "Vel": 86
  },
  {
    "TimeMs": 118999,
    "Key": 41,
    "DurationMs": 315,
    "Vel": 80
  },
  {
    "TimeMs": 119022,
    "Key": 69,
    "DurationMs": 83,
    "Vel": 85
  },
  {
    "TimeMs": 119110,
    "Key": 65,
    "DurationMs": 83,
    "Vel": 84
  },
  {
    "TimeMs": 119199,
    "Key": 60,
    "DurationMs": 83,
    "Vel": 83
  },
  {
    "TimeMs": 119288,
    "Key": 58,
    "DurationMs": 83,
    "Vel": 82
  },
  {
    "TimeMs": 119333,
    "Key": 41,
    "DurationMs": 210,
    "Vel": 80
  },
  {
    "TimeMs": 119377,
    "Key": 57,
    "DurationMs": 83,
    "Vel": 81
  },
  {
    "TimeMs": 119555,
    "Key": 74,
    "DurationMs": 167,
    "Vel": 112
  },
  {
    "TimeMs": 119556,
    "Key": 79,
    "DurationMs": 167,
    "Vel": 112
  },
  {
    "TimeMs": 119557,
    "Key": 82,
    "DurationMs": 167,
    "Vel": 112
  },
  {
    "TimeMs": 119558,
    "Key": 86,
    "DurationMs": 167,
    "Vel": 112
  },
  {
    "TimeMs": 119559,
    "Key": 31,
    "DurationMs": 312,
    "Vel": 80
  },
  {
    "TimeMs": 119560,
    "Key": 43,
    "DurationMs": 312,
    "Vel": 80
  },
  {
    "TimeMs": 119733,
    "Key": 50,
    "DurationMs": 83,
    "Vel": 80
  },
  {
    "TimeMs": 119822,
    "Key": 55,
    "DurationMs": 83,
    "Vel": 80
  },
  {
    "TimeMs": 119888,
    "Key": 43,
    "DurationMs": 315,
    "Vel": 80
  },
  {
    "TimeMs": 119910,
    "Key": 57,
    "DurationMs": 83,
    "Vel": 80
  },
  {
    "TimeMs": 119999,
    "Key": 58,
    "DurationMs": 83,
    "Vel": 81
  },
  {
    "TimeMs": 120088,
    "Key": 62,
    "DurationMs": 83,
    "Vel": 82
  },
  {
    "TimeMs": 120177,
    "Key": 67,
    "DurationMs": 83,
    "Vel": 83
  },
  {
    "TimeMs": 120222,
    "Key": 43,
    "DurationMs": 210,
    "Vel": 80
  },
  {
    "TimeMs": 120266,
    "Key": 69,
    "DurationMs": 83,
    "Vel": 84
  },
  {
    "TimeMs": 120355,
    "Key": 70,
    "DurationMs": 83,
    "Vel": 85
  },
  {
    "TimeMs": 120444,
    "Key": 74,
    "DurationMs": 69,
    "Vel": 86
  },
  {
    "TimeMs": 120445,
    "Key": 50,
    "DurationMs": 314,
    "Vel": 80
  },
  {
    "TimeMs": 120446,
    "Key": 55,
    "DurationMs": 314,
    "Vel": 80
  },
  {
    "TimeMs": 120447,
    "Key": 58,
    "DurationMs": 314,
    "Vel": 80
  },
  {
    "TimeMs": 120518,
    "Key": 62,
    "DurationMs": 69,
    "Vel": 87
  },
  {
    "TimeMs": 120592,
    "Key": 67,
    "DurationMs": 69,
    "Vel": 88
  },
  {
    "TimeMs": 120666,
    "Key": 69,
    "DurationMs": 69,
    "Vel": 88
  },
  {
    "TimeMs": 120740,
    "Key": 70,
    "DurationMs": 69,
    "Vel": 89
  },
  {
    "TimeMs": 120777,
    "Key": 43,
    "DurationMs": 315,
    "Vel": 80
  },
  {
    "TimeMs": 120814,
    "Key": 74,
    "DurationMs": 69,
    "Vel": 90
  },
  {
    "TimeMs": 120888,
    "Key": 79,
    "DurationMs": 69,
    "Vel": 91
  },
  {
    "TimeMs": 120962,
    "Key": 81,
    "DurationMs": 69,
    "Vel": 92
  },
  {
    "TimeMs": 121036,
    "Key": 82,
    "DurationMs": 69,
    "Vel": 92
  },
  {
    "TimeMs": 121110,
    "Key": 86,
    "DurationMs": 69,
    "Vel": 93
  },
  {
    "TimeMs": 121111,
    "Key": 43,
    "DurationMs": 209,
    "Vel": 80
  },
  {
    "TimeMs": 121185,
    "Key": 91,
    "DurationMs": 69,
    "Vel": 94
  },
  {
    "TimeMs": 121259,
    "Key": 93,
    "DurationMs": 69,
    "Vel": 95
  },
  {
    "TimeMs": 121333,
    "Key": 96,
    "DurationMs": 83,
    "Vel": 96
  },
  {
    "TimeMs": 121334,
    "Key": 29,
    "DurationMs": 314,
    "Vel": 80
  },
  {
    "TimeMs": 121335,
    "Key": 41,
    "DurationMs": 314,
    "Vel": 80
  },
  {
    "TimeMs": 121422,
    "Key": 98,
    "DurationMs": 83,
    "Vel": 96
  },
  {
    "TimeMs": 121510,
    "Key": 96,
    "DurationMs": 83,
    "Vel": 96
  },
  {
    "TimeMs": 121599,
    "Key": 94,
    "DurationMs": 83,
    "Vel": 96
  },
  {
    "TimeMs": 121666,
    "Key": 41,
    "DurationMs": 315,
    "Vel": 80
  },
  {
    "TimeMs": 121688,
    "Key": 89,
    "DurationMs": 83,
    "Vel": 95
  },
  {
    "TimeMs": 121777,
    "Key": 84,
    "DurationMs": 83,
    "Vel": 94
  },
  {
    "TimeMs": 121866,
    "Key": 86,
    "DurationMs": 83,
    "Vel": 93
  },
  {
    "TimeMs": 121955,
    "Key": 84,
    "DurationMs": 83,
    "Vel": 92
  },
  {
    "TimeMs": 121999,
    "Key": 41,
    "DurationMs": 210,
    "Vel": 80
  },
  {
    "TimeMs": 122044,
    "Key": 82,
    "DurationMs": 83,
    "Vel": 91
  },
  {
    "TimeMs": 122133,
    "Key": 77,
    "DurationMs": 83,
    "Vel": 90
  },
  {
    "TimeMs": 122222,
    "Key": 84,
    "DurationMs": 83,
    "Vel": 89
  },
  {
    "TimeMs": 122223,
    "Key": 53,
    "DurationMs": 314,
    "Vel": 80
  },
  {
    "TimeMs": 122223,
    "Key": 57,
    "DurationMs": 314,
    "Vel": 80
  },
  {
    "TimeMs": 122224,
    "Key": 60,
    "DurationMs": 314,
    "Vel": 80
  },
  {
    "TimeMs": 122310,
    "Key": 82,
    "DurationMs": 83,
    "Vel": 88
  },
  {
    "TimeMs": 122399,
    "Key": 81,
    "DurationMs": 83,
    "Vel": 87
  },
  {
    "TimeMs": 122488,
    "Key": 77,
    "DurationMs": 83,
    "Vel": 86
  },
  {
    "TimeMs": 122555,
    "Key": 41,
    "DurationMs": 315,
    "Vel": 80
  },
  {
    "TimeMs": 122577,
    "Key": 72,
    "DurationMs": 83,
    "Vel": 85
  },
  {
    "TimeMs": 122666,
    "Key": 70,
    "DurationMs": 83,
    "Vel": 84
  },
  {
    "TimeMs": 122755,
    "Key": 69,
    "DurationMs": 83,
    "Vel": 83
  },
  {
    "TimeMs": 122844,
    "Key": 65,
    "DurationMs": 83,
    "Vel": 82
  },
  {
    "TimeMs": 122888,
    "Key": 41,
    "DurationMs": 210,
    "Vel": 80
  },
  {
    "TimeMs": 122933,
    "Key": 60,
    "DurationMs": 83,
    "Vel": 81
  },
  {
    "TimeMs": 123110,
    "Key": 79,
    "DurationMs": 167,
    "Vel": 112
  },
  {
    "TimeMs": 123111,
    "Key": 81,
    "DurationMs": 167,
    "Vel": 112
  },
  {
    "TimeMs": 123112,
    "Key": 82,
    "DurationMs": 167,
    "Vel": 112
  },
  {
    "TimeMs": 123113,
    "Key": 86,
    "DurationMs": 167,
    "Vel": 112
  },
  {
    "TimeMs": 123114,
    "Key": 91,
    "DurationMs": 167,
    "Vel": 112
  },
  {
    "TimeMs": 123115,
    "Key": 27,
    "DurationMs": 311,
    "Vel": 80
  },
  {
    "TimeMs": 123116,
    "Key": 39,
    "DurationMs": 311,
    "Vel": 80
  },
  {
    "TimeMs": 123288,
    "Key": 50,
    "DurationMs": 83,
    "Vel": 80
  },
  {
    "TimeMs": 123377,
    "Key": 55,
    "DurationMs": 83,
    "Vel": 80
  },
  {
    "TimeMs": 123444,
    "Key": 39,
    "DurationMs": 315,
    "Vel": 80
  },
  {
    "TimeMs": 123466,
    "Key": 57,
    "DurationMs": 83,
    "Vel": 80
  },
  {
    "TimeMs": 123555,
    "Key": 58,
    "DurationMs": 83,
    "Vel": 81
  },
  {
    "TimeMs": 123644,
    "Key": 62,
    "DurationMs": 83,
    "Vel": 82
  },
  {
    "TimeMs": 123733,
    "Key": 67,
    "DurationMs": 83,
    "Vel": 83
  },
  {
    "TimeMs": 123777,
    "Key": 39,
    "DurationMs": 210,
    "Vel": 80
  },
  {
    "TimeMs": 123822,
    "Key": 69,
    "DurationMs": 83,
    "Vel": 84
  },
  {
    "TimeMs": 123910,
    "Key": 70,
    "DurationMs": 83,
    "Vel": 85
  },
  {
    "TimeMs": 123999,
    "Key": 74,
    "DurationMs": 69,
    "Vel": 86
  },
  {
    "TimeMs": 124000,
    "Key": 46,
    "DurationMs": 314,
    "Vel": 80
  },
  {
    "TimeMs": 124001,
    "Key": 51,
    "DurationMs": 314,
    "Vel": 80
  },
  {
    "TimeMs": 124002,
    "Key": 55,
    "DurationMs": 314,
    "Vel": 80
  },
  {
    "TimeMs": 124073,
    "Key": 62,
    "DurationMs": 69,
    "Vel": 87
  },
  {
    "TimeMs": 124148,
    "Key": 67,
    "DurationMs": 69,
    "Vel": 88
  },
  {
    "TimeMs": 124222,
    "Key": 69,
    "DurationMs": 69,
    "Vel": 88
  },
  {
    "TimeMs": 124296,
    "Key": 70,
    "DurationMs": 69,
    "Vel": 89
  },
  {
    "TimeMs": 124333,
    "Key": 39,
    "DurationMs": 315,
    "Vel": 80
  },
  {
    "TimeMs": 124370,
    "Key": 74,
    "DurationMs": 69,
    "Vel": 90
  },
  {
    "TimeMs": 124444,
    "Key": 79,
    "DurationMs": 69,
    "Vel": 91
  },
  {
    "TimeMs": 124518,
    "Key": 81,
    "DurationMs": 69,
    "Vel": 92
  },
  {
    "TimeMs": 124592,
    "Key": 82,
    "DurationMs": 69,
    "Vel": 92
  },
  {
    "TimeMs": 124666,
    "Key": 86,
    "DurationMs": 69,
    "Vel": 93
  },
  {
    "TimeMs": 124667,
    "Key": 39,
    "DurationMs": 209,
    "Vel": 80
  },
  {
    "TimeMs": 124740,
    "Key": 91,
    "DurationMs": 69,
    "Vel": 94
  },
  {
    "TimeMs": 124814,
    "Key": 93,
    "DurationMs": 69,
    "Vel": 95
  },
  {
    "TimeMs": 124888,
    "Key": 94,
    "DurationMs": 83,
    "Vel": 96
  },
  {
    "TimeMs": 124889,
    "Key": 29,
    "DurationMs": 314,
    "Vel": 80
  },
  {
    "TimeMs": 124890,
    "Key": 41,
    "DurationMs": 314,
    "Vel": 80
  },
  {
    "TimeMs": 124977,
    "Key": 96,
    "DurationMs": 83,
    "Vel": 96
  },
  {
    "TimeMs": 125066,
    "Key": 94,
    "DurationMs": 83,
    "Vel": 96
  },
  {
    "TimeMs": 125155,
    "Key": 89,
    "DurationMs": 83,
    "Vel": 96
  },
  {
    "TimeMs": 125222,
    "Key": 41,
    "DurationMs": 315,
    "Vel": 80
  },
  {
    "TimeMs": 125244,
    "Key": 84,
    "DurationMs": 83,
    "Vel": 95
  },
  {
    "TimeMs": 125333,
    "Key": 82,
    "DurationMs": 83,
    "Vel": 94
  },
  {
    "TimeMs": 125422,
    "Key": 84,
    "DurationMs": 83,
    "Vel": 93
  },
  {
    "TimeMs": 125510,
    "Key": 82,
    "DurationMs": 83,
    "Vel": 92
  },
  {
    "TimeMs": 125555,
    "Key": 41,
    "DurationMs": 210,
    "Vel": 80
  },
  {
    "TimeMs": 125599,
    "Key": 77,
    "DurationMs": 83,
    "Vel": 91
  },
  {
    "TimeMs": 125688,
    "Key": 72,
    "DurationMs": 83,
    "Vel": 90
  },
  {
    "TimeMs": 125777,
    "Key": 81,
    "DurationMs": 83,
    "Vel": 89
  },
  {
    "TimeMs": 125778,
    "Key": 53,
    "DurationMs": 314,
    "Vel": 80
  },
  {
    "TimeMs": 125779,
    "Key": 57,
    "DurationMs": 314,
    "Vel": 80
  },
  {
    "TimeMs": 125780,
    "Key": 60,
    "DurationMs": 314,
    "Vel": 80
  },
  {
    "TimeMs": 125866,
    "Key": 77,
    "DurationMs": 83,
    "Vel": 88
  },
  {
    "TimeMs": 125955,
    "Key": 72,
    "DurationMs": 83,
    "Vel": 87
  },
  {
    "TimeMs": 126044,
    "Key": 70,
    "DurationMs": 83,
    "Vel": 86
  },
  {
    "TimeMs": 126110,
    "Key": 41,
    "DurationMs": 315,
    "Vel": 80
  },
  {
    "TimeMs": 126133,
    "Key": 69,
    "DurationMs": 83,
    "Vel": 85
  },
  {
    "TimeMs": 126222,
    "Key": 65,
    "DurationMs": 83,
    "Vel": 84
  },
  {
    "TimeMs": 126310,
    "Key": 60,
    "DurationMs": 83,
    "Vel": 83
  },
  {
    "TimeMs": 126399,
    "Key": 58,
    "DurationMs": 83,
    "Vel": 82
  },
  {
    "TimeMs": 126444,
    "Key": 41,
    "DurationMs": 210,
    "Vel": 80
  },
  {
    "TimeMs": 126488,
    "Key": 57,
    "DurationMs": 83,
    "Vel": 81
  },
  {
    "TimeMs": 126666,
    "Key": 74,
    "DurationMs": 167,
    "Vel": 112
  },
  {
    "TimeMs": 126667,
    "Key": 79,
    "DurationMs": 167,
    "Vel": 112
  },
  {
    "TimeMs": 126668,
    "Key": 82,
    "DurationMs": 167,
    "Vel": 112
  },
  {
    "TimeMs": 126669,
    "Key": 86,
    "DurationMs": 167,
    "Vel": 112
  },
  {
    "TimeMs": 126670,
    "Key": 31,
    "DurationMs": 312,
    "Vel": 80
  },
  {
    "TimeMs": 126671,
    "Key": 43,
    "DurationMs": 312,
    "Vel": 80
  },
  {
    "TimeMs": 126844,
    "Key": 50,
    "DurationMs": 83,
    "Vel": 80
  },
  {
    "TimeMs": 126933,
    "Key": 55,
    "DurationMs": 83,
    "Vel": 80
  },
  {
    "TimeMs": 126999,
    "Key": 43,
    "DurationMs": 315,
    "Vel": 80
  },
  {
    "TimeMs": 127022,
    "Key": 57,
    "DurationMs": 83,
    "Vel": 80
  },
  {
    "TimeMs": 127110,
    "Key": 58,
    "DurationMs": 83,
    "Vel": 81
  },
  {
    "TimeMs": 127199,
    "Key": 62,
    "DurationMs": 83,
    "Vel": 82
  },
  {
    "TimeMs": 127288,
    "Key": 67,
    "DurationMs": 83,
    "Vel": 83
  },
  {
    "TimeMs": 127333,
    "Key": 43,
    "DurationMs": 210,
    "Vel": 80
  },
  {
    "TimeMs": 127377,
    "Key": 69,
    "DurationMs": 83,
    "Vel": 84
  },
  {
    "TimeMs": 127466,
    "Key": 70,
    "DurationMs": 83,
    "Vel": 85
  },
  {
    "TimeMs": 127555,
    "Key": 74,
    "DurationMs": 69,
    "Vel": 86
  },
  {
    "TimeMs": 127556,
    "Key": 50,
    "DurationMs": 314,
    "Vel": 80
  },
  {
    "TimeMs": 127557,
    "Key": 55,
    "DurationMs": 314,
    "Vel": 80
  },
  {
    "TimeMs": 127558,
    "Key": 58,
    "DurationMs": 314,
    "Vel": 80
  },
  {
    "TimeMs": 127629,
    "Key": 62,
    "DurationMs": 69,
    "Vel": 87
  },
  {
    "TimeMs": 127703,
    "Key": 67,
    "DurationMs": 69,
    "Vel": 88
  },
  {
    "TimeMs": 127777,
    "Key": 69,
    "DurationMs": 69,
    "Vel": 88
  },
  {
    "TimeMs": 127851,
    "Key": 70,
    "DurationMs": 69,
    "Vel": 89
  },
  {
    "TimeMs": 127888,
    "Key": 43,
    "DurationMs": 315,
    "Vel": 80
  },
  {
    "TimeMs": 127925,
    "Key": 74,
    "DurationMs": 69,
    "Vel": 90
  },
  {
    "TimeMs": 127999,
    "Key": 79,
    "DurationMs": 69,
    "Vel": 91
  },
  {
    "TimeMs": 128073,
    "Key": 81,
    "DurationMs": 69,
    "Vel": 92
  },
  {
    "TimeMs": 128148,
    "Key": 82,
    "DurationMs": 69,
    "Vel": 92
  },
  {
    "TimeMs": 128222,
    "Key": 86,
    "DurationMs": 69,
    "Vel": 93
  },
  {
    "TimeMs": 128223,
    "Key": 43,
    "DurationMs": 209,
    "Vel": 80
  },
  {
    "TimeMs": 128296,
    "Key": 91,
    "DurationMs": 69,
    "Vel": 94
  },
  {
    "TimeMs": 128370,
    "Key": 93,
    "DurationMs": 69,
    "Vel": 95
  },
  {
    "TimeMs": 128444,
    "Key": 96,
    "DurationMs": 83,
    "Vel": 96
  },
  {
    "TimeMs": 128445,
    "Key": 29,
    "DurationMs": 314,
    "Vel": 80
  },
  {
    "TimeMs": 128446,
    "Key": 41,
    "DurationMs": 314,
    "Vel": 80
  },
  {
    "TimeMs": 128533,
    "Key": 98,
    "DurationMs": 83,
    "Vel": 96
  },
  {
    "TimeMs": 128622,
    "Key": 96,
    "DurationMs": 83,
    "Vel": 96
  },
  {
    "TimeMs": 128710,
    "Key": 94,
    "DurationMs": 83,
    "Vel": 96
  },
  {
    "TimeMs": 128777,
    "Key": 41,
    "DurationMs": 315,
    "Vel": 80
  },
  {
    "TimeMs": 128799,
    "Key": 89,
    "DurationMs": 83,
    "Vel": 94
  },
  {
    "TimeMs": 128888,
    "Key": 84,
    "DurationMs": 83,
    "Vel": 92
  },
  {
    "TimeMs": 128977,
    "Key": 86,
    "DurationMs": 83,
    "Vel": 90
  },
  {
    "TimeMs": 129066,
    "Key": 84,
    "DurationMs": 83,
    "Vel": 88
  },
  {
    "TimeMs": 129110,
    "Key": 41,
    "DurationMs": 210,
    "Vel": 80
  },
  {
    "TimeMs": 129155,
    "Key": 82,
    "DurationMs": 83,
    "Vel": 86
  },
  {
    "TimeMs": 129244,
    "Key": 77,
    "DurationMs": 83,
    "Vel": 84
  },
  {
    "TimeMs": 129333,
    "Key": 84,
    "DurationMs": 83,
    "Vel": 82
  },
  {
    "TimeMs": 129334,
    "Key": 53,
    "DurationMs": 314,
    "Vel": 80
  },
  {
    "TimeMs": 129335,
    "Key": 57,
    "DurationMs": 314,
    "Vel": 80
  },
  {
    "TimeMs": 129335,
    "Key": 60,
    "DurationMs": 314,
    "Vel": 80
  },
  {
    "TimeMs": 129422,
    "Key": 82,
    "DurationMs": 83,
    "Vel": 80
  },
  {
    "TimeMs": 129510,
    "Key": 81,
    "DurationMs": 83,
    "Vel": 78
  },
  {
    "TimeMs": 129599,
    "Key": 77,
    "DurationMs": 83,
    "Vel": 76
  },
  {
    "TimeMs": 129666,
    "Key": 41,
    "DurationMs": 315,
    "Vel": 80
  },
  {
    "TimeMs": 129688,
    "Key": 72,
    "DurationMs": 83,
    "Vel": 74
  },
  {
    "TimeMs": 129777,
    "Key": 70,
    "DurationMs": 83,
    "Vel": 72
  },
  {
    "TimeMs": 129866,
    "Key": 69,
    "DurationMs": 83,
    "Vel": 70
  },
  {
    "TimeMs": 129955,
    "Key": 65,
    "DurationMs": 83,
    "Vel": 68
  },
  {
    "TimeMs": 129999,
    "Key": 41,
    "DurationMs": 210,
    "Vel": 80
  },
  {
    "TimeMs": 130044,
    "Key": 60,
    "DurationMs": 83,
    "Vel": 66
  },
  {
    "TimeMs": 130222,
    "Key": 86,
    "DurationMs": 315,
    "Vel": 64
  },
  {
    "TimeMs": 130223,
    "Key": 39,
    "DurationMs": 103,
    "Vel": 64
  },
  {
    "TimeMs": 130333,
    "Key": 79,
    "DurationMs": 104,
    "Vel": 64
  },
  {
    "TimeMs": 130334,
    "Key": 46,
    "DurationMs": 104,
    "Vel": 64
  },
  {
    "TimeMs": 130444,
    "Key": 74,
    "DurationMs": 104,
    "Vel": 64
  },
  {
    "TimeMs": 130445,
    "Key": 53,
    "DurationMs": 104,
    "Vel": 64
  },
  {
    "TimeMs": 130555,
    "Key": 82,
    "DurationMs": 315,
    "Vel": 64
  },
  {
    "TimeMs": 130556,
    "Key": 55,
    "DurationMs": 103,
    "Vel": 64
  },
  {
    "TimeMs": 130666,
    "Key": 79,
    "DurationMs": 104,
    "Vel": 64
  },
  {
    "TimeMs": 130667,
    "Key": 51,
    "DurationMs": 104,
    "Vel": 64
  },
  {
    "TimeMs": 130777,
    "Key": 74,
    "DurationMs": 104,
    "Vel": 64
  },
  {
    "TimeMs": 130778,
    "Key": 55,
    "DurationMs": 104,
    "Vel": 64
  },
  {
    "TimeMs": 130888,
    "Key": 79,
    "DurationMs": 210,
    "Vel": 64
  },
  {
    "TimeMs": 130889,
    "Key": 58,
    "DurationMs": 103,
    "Vel": 64
  },
  {
    "TimeMs": 130999,
    "Key": 74,
    "DurationMs": 104,
    "Vel": 64
  },
  {
    "TimeMs": 131000,
    "Key": 62,
    "DurationMs": 104,
    "Vel": 64
  },
  {
    "TimeMs": 131110,
    "Key": 86,
    "DurationMs": 315,
    "Vel": 64
  },
  {
    "TimeMs": 131111,
    "Key": 39,
    "DurationMs": 103,
    "Vel": 64
  },
  {
    "TimeMs": 131222,
    "Key": 79,
    "DurationMs": 104,
    "Vel": 64
  },
  {
    "TimeMs": 131223,
    "Key": 46,
    "DurationMs": 104,
    "Vel": 64
  },
  {
    "TimeMs": 131333,
    "Key": 74,
    "DurationMs": 104,
    "Vel": 64
  },
  {
    "TimeMs": 131334,
    "Key": 53,
    "DurationMs": 104,
    "Vel": 64
  },
  {
    "TimeMs": 131444,
    "Key": 82,
    "DurationMs": 315,
    "Vel": 64
  },
  {
    "TimeMs": 131445,
    "Key": 55,
    "DurationMs": 103,
    "Vel": 64
  },
  {
    "TimeMs": 131555,
    "Key": 79,
    "DurationMs": 104,
    "Vel": 64
  },
  {
    "TimeMs": 131556,
    "Key": 51,
    "DurationMs": 104,
    "Vel": 64
  },
  {
    "TimeMs": 131666,
    "Key": 74,
    "DurationMs": 104,
    "Vel": 64
  },
  {
    "TimeMs": 131667,
    "Key": 55,
    "DurationMs": 104,
    "Vel": 64
  },
  {
    "TimeMs": 131777,
    "Key": 79,
    "DurationMs": 210,
    "Vel": 64
  },
  {
    "TimeMs": 131778,
    "Key": 58,
    "DurationMs": 103,
    "Vel": 64
  },
  {
    "TimeMs": 131888,
    "Key": 74,
    "DurationMs": 104,
    "Vel": 64
  },
  {
    "TimeMs": 131889,
    "Key": 62,
    "DurationMs": 104,
    "Vel": 64
  },
  {
    "TimeMs": 131999,
    "Key": 84,
    "DurationMs": 315,
    "Vel": 64
  },
  {
    "TimeMs": 132000,
    "Key": 41,
    "DurationMs": 103,
    "Vel": 64
  },
  {
    "TimeMs": 132110,
    "Key": 77,
    "DurationMs": 104,
    "Vel": 64
  },
  {
    "TimeMs": 132111,
    "Key": 48,
    "DurationMs": 104,
    "Vel": 64
  },
  {
    "TimeMs": 132222,
    "Key": 72,
    "DurationMs": 104,
    "Vel": 64
  },
  {
    "TimeMs": 132223,
    "Key": 55,
    "DurationMs": 104,
    "Vel": 64
  },
  {
    "TimeMs": 132333,
    "Key": 81,
    "DurationMs": 315,
    "Vel": 64
  },
  {
    "TimeMs": 132334,
    "Key": 57,
    "DurationMs": 103,
    "Vel": 64
  },
  {
    "TimeMs": 132444,
    "Key": 77,
    "DurationMs": 104,
    "Vel": 64
  },
  {
    "TimeMs": 132445,
    "Key": 53,
    "DurationMs": 104,
    "Vel": 64
  },
  {
    "TimeMs": 132555,
    "Key": 72,
    "DurationMs": 104,
    "Vel": 64
  },
  {
    "TimeMs": 132556,
    "Key": 57,
    "DurationMs": 104,
    "Vel": 64
  },
  {
    "TimeMs": 132666,
    "Key": 77,
    "DurationMs": 210,
    "Vel": 64
  },
  {
    "TimeMs": 132667,
    "Key": 58,
    "DurationMs": 103,
    "Vel": 64
  },
  {
    "TimeMs": 132777,
    "Key": 72,
    "DurationMs": 104,
    "Vel": 64
  },
  {
    "TimeMs": 132778,
    "Key": 60,
    "DurationMs": 104,
    "Vel": 64
  },
  {
    "TimeMs": 132888,
    "Key": 84,
    "DurationMs": 315,
    "Vel": 64
  },
  {
    "TimeMs": 132889,
    "Key": 41,
    "DurationMs": 103,
    "Vel": 64
  },
  {
    "TimeMs": 132999,
    "Key": 77,
    "DurationMs": 104,
    "Vel": 64
  },
  {
    "TimeMs": 133000,
    "Key": 48,
    "DurationMs": 104,
    "Vel": 64
  },
  {
    "TimeMs": 133110,
    "Key": 72,
    "DurationMs": 104,
    "Vel": 64
  },
  {
    "TimeMs": 133111,
    "Key": 55,
    "DurationMs": 104,
    "Vel": 64
  },
  {
    "TimeMs": 133222,
    "Key": 81,
    "DurationMs": 315,
    "Vel": 64
  },
  {
    "TimeMs": 133223,
    "Key": 57,
    "DurationMs": 103,
    "Vel": 64
  },
  {
    "TimeMs": 133333,
    "Key": 77,
    "DurationMs": 104,
    "Vel": 64
  },
  {
    "TimeMs": 133334,
    "Key": 53,
    "DurationMs": 104,
    "Vel": 64
  },
  {
    "TimeMs": 133444,
    "Key": 72,
    "DurationMs": 104,
    "Vel": 64
  },
  {
    "TimeMs": 133445,
    "Key": 57,
    "DurationMs": 104,
    "Vel": 64
  },
  {
    "TimeMs": 133555,
    "Key": 77,
    "DurationMs": 210,
    "Vel": 64
  },
  {
    "TimeMs": 133556,
    "Key": 58,
    "DurationMs": 103,
    "Vel": 64
  },
  {
    "TimeMs": 133666,
    "Key": 72,
    "DurationMs": 104,
    "Vel": 64
  },
  {
    "TimeMs": 133667,
    "Key": 60,
    "DurationMs": 104,
    "Vel": 64
  },
  {
    "TimeMs": 133777,
    "Key": 94,
    "DurationMs": 315,
    "Vel": 64
  },
  {
    "TimeMs": 133778,
    "Key": 43,
    "DurationMs": 103,
    "Vel": 64
  },
  {
    "TimeMs": 133888,
    "Key": 86,
    "DurationMs": 104,
    "Vel": 64
  },
  {
    "TimeMs": 133889,
    "Key": 50,
    "DurationMs": 104,
    "Vel": 64
  },
  {
    "TimeMs": 133999,
    "Key": 82,
    "DurationMs": 104,
    "Vel": 64
  },
  {
    "TimeMs": 134000,
    "Key": 57,
    "DurationMs": 104,
    "Vel": 64
  },
  {
    "TimeMs": 134110,
    "Key": 94,
    "DurationMs": 315,
    "Vel": 64
  },
  {
    "TimeMs": 134111,
    "Key": 58,
    "DurationMs": 103,
    "Vel": 64
  },
  {
    "TimeMs": 134222,
    "Key": 86,
    "DurationMs": 104,
    "Vel": 64
  },
  {
    "TimeMs": 134223,
    "Key": 55,
    "DurationMs": 104,
    "Vel": 64
  },
  {
    "TimeMs": 134333,
    "Key": 82,
    "DurationMs": 104,
    "Vel": 64
  },
  {
    "TimeMs": 134334,
    "Key": 58,
    "DurationMs": 104,
    "Vel": 64
  },
  {
    "TimeMs": 134444,
    "Key": 94,
    "DurationMs": 210,
    "Vel": 64
  },
  {
    "TimeMs": 134445,
    "Key": 60,
    "DurationMs": 103,
    "Vel": 64
  },
  {
    "TimeMs": 134555,
    "Key": 82,
    "DurationMs": 104,
    "Vel": 64
  },
  {
    "TimeMs": 134556,
    "Key": 62,
    "DurationMs": 104,
    "Vel": 64
  },
  {
    "TimeMs": 134666,
    "Key": 94,
    "DurationMs": 315,
    "Vel": 64
  },
  {
    "TimeMs": 134667,
    "Key": 43,
    "DurationMs": 103,
    "Vel": 64
  },
  {
    "TimeMs": 134777,
    "Key": 86,
    "DurationMs": 104,
    "Vel": 64
  },
  {
    "TimeMs": 134778,
    "Key": 50,
    "DurationMs": 104,
    "Vel": 64
  },
  {
    "TimeMs": 134888,
    "Key": 82,
    "DurationMs": 104,
    "Vel": 64
  },
  {
    "TimeMs": 134889,
    "Key": 57,
    "DurationMs": 104,
    "Vel": 64
  },
  {
    "TimeMs": 134999,
    "Key": 93,
    "DurationMs": 315,
    "Vel": 64
  },
  {
    "TimeMs": 135000,
    "Key": 58,
    "DurationMs": 103,
    "Vel": 64
  },
  {
    "TimeMs": 135110,
    "Key": 86,
    "DurationMs": 104,
    "Vel": 64
  },
  {
    "TimeMs": 135111,
    "Key": 55,
    "DurationMs": 104,
    "Vel": 64
  },
  {
    "TimeMs": 135222,
    "Key": 82,
    "DurationMs": 104,
    "Vel": 64
  },
  {
    "TimeMs": 135223,
    "Key": 58,
    "DurationMs": 104,
    "Vel": 64
  },
  {
    "TimeMs": 135333,
    "Key": 89,
    "DurationMs": 210,
    "Vel": 64
  },
  {
    "TimeMs": 135334,
    "Key": 60,
    "DurationMs": 103,
    "Vel": 64
  },
  {
    "TimeMs": 135444,
    "Key": 82,
    "DurationMs": 104,
    "Vel": 64
  },
  {
    "TimeMs": 135445,
    "Key": 62,
    "DurationMs": 104,
    "Vel": 64
  },
  {
    "TimeMs": 135555,
    "Key": 86,
    "DurationMs": 315,
    "Vel": 64
  },
  {
    "TimeMs": 135556,
    "Key": 38,
    "DurationMs": 103,
    "Vel": 64
  },
  {
    "TimeMs": 135666,
    "Key": 77,
    "DurationMs": 104,
    "Vel": 64
  },
  {
    "TimeMs": 135667,
    "Key": 45,
    "DurationMs": 104,
    "Vel": 64
  },
  {
    "TimeMs": 135777,
    "Key": 74,
    "DurationMs": 104,
    "Vel": 64
  },
  {
    "TimeMs": 135778,
    "Key": 50,
    "DurationMs": 104,
    "Vel": 64
  },
  {
    "TimeMs": 135888,
    "Key": 86,
    "DurationMs": 315,
    "Vel": 64
  },
  {
    "TimeMs": 135889,
    "Key": 53,
    "DurationMs": 103,
    "Vel": 64
  },
  {
    "TimeMs": 135999,
    "Key": 77,
    "DurationMs": 104,
    "Vel": 64
  },
  {
    "TimeMs": 136000,
    "Key": 50,
    "DurationMs": 104,
    "Vel": 64
  },
  {
    "TimeMs": 136110,
    "Key": 74,
    "DurationMs": 104,
    "Vel": 64
  },
  {
    "TimeMs": 136111,
    "Key": 53,
    "DurationMs": 104,
    "Vel": 64
  },
  {
    "TimeMs": 136222,
    "Key": 86,
    "DurationMs": 210,
    "Vel": 64
  },
  {
    "TimeMs": 136223,
    "Key": 57,
    "DurationMs": 103,
    "Vel": 64
  },
  {
    "TimeMs": 136333,
    "Key": 74,
    "DurationMs": 104,
    "Vel": 64
  },
  {
    "TimeMs": 136334,
    "Key": 62,
    "DurationMs": 104,
    "Vel": 64
  },
  {
    "TimeMs": 136444,
    "Key": 86,
    "DurationMs": 315,
    "Vel": 64
  },
  {
    "TimeMs": 136445,
    "Key": 38,
    "DurationMs": 103,
    "Vel": 64
  },
  {
    "TimeMs": 136555,
    "Key": 77,
    "DurationMs": 104,
    "Vel": 64
  },
  {
    "TimeMs": 136556,
    "Key": 45,
    "DurationMs": 104,
    "Vel": 64
  },
  {
    "TimeMs": 136666,
    "Key": 74,
    "DurationMs": 104,
    "Vel": 64
  },
  {
    "TimeMs": 136667,
    "Key": 50,
    "DurationMs": 104,
    "Vel": 64
  },
  {
    "TimeMs": 136777,
    "Key": 84,
    "DurationMs": 315,
    "Vel": 64
  },
  {
    "TimeMs": 136778,
    "Key": 53,
    "DurationMs": 103,
    "Vel": 64
  },
  {
    "TimeMs": 136888,
    "Key": 77,
    "DurationMs": 104,
    "Vel": 64
  },
  {
    "TimeMs": 136889,
    "Key": 50,
    "DurationMs": 104,
    "Vel": 64
  },
  {
    "TimeMs": 136999,
    "Key": 74,
    "DurationMs": 104,
    "Vel": 64
  },
  {
    "TimeMs": 137000,
    "Key": 57,
    "DurationMs": 104,
    "Vel": 64
  },
  {
    "TimeMs": 137110,
    "Key": 86,
    "DurationMs": 210,
    "Vel": 64
  },
  {
    "TimeMs": 137111,
    "Key": 62,
    "DurationMs": 210,
    "Vel": 64
  },
  {
    "TimeMs": 137222,
    "Key": 74,
    "DurationMs": 104,
    "Vel": 64
  },
  {
    "TimeMs": 137333,
    "Key": 82,
    "DurationMs": 50,
    "Vel": 80
  },
  {
    "TimeMs": 137334,
    "Key": 86,
    "DurationMs": 50,
    "Vel": 80
  },
  {
    "TimeMs": 137335,
    "Key": 27,
    "DurationMs": 208,
    "Vel": 80
  },
  {
    "TimeMs": 137335,
    "Key": 39,
    "DurationMs": 208,
    "Vel": 80
  },
  {
    "TimeMs": 137388,
    "Key": 94,
    "DurationMs": 50,
    "Vel": 80
  },
  {
    "TimeMs": 137444,
    "Key": 82,
    "DurationMs": 50,
    "Vel": 80
  },
  {
    "TimeMs": 137445,
    "Key": 86,
    "DurationMs": 50,
    "Vel": 80
  },
  {
    "TimeMs": 137499,
    "Key": 94,
    "DurationMs": 50,
    "Vel": 80
  },
  {
    "TimeMs": 137555,
    "Key": 82,
    "DurationMs": 50,
    "Vel": 80
  },
  {
    "TimeMs": 137556,
    "Key": 86,
    "DurationMs": 50,
    "Vel": 80
  },
  {
    "TimeMs": 137557,
    "Key": 39,
    "DurationMs": 208,
    "Vel": 80
  },
  {
    "TimeMs": 137558,
    "Key": 51,
    "DurationMs": 208,
    "Vel": 80
  },
  {
    "TimeMs": 137610,
    "Key": 94,
    "DurationMs": 50,
    "Vel": 80
  },
  {
    "TimeMs": 137666,
    "Key": 82,
    "DurationMs": 50,
    "Vel": 80
  },
  {
    "TimeMs": 137667,
    "Key": 86,
    "DurationMs": 50,
    "Vel": 80
  },
  {
    "TimeMs": 137722,
    "Key": 94,
    "DurationMs": 50,
    "Vel": 80
  },
  {
    "TimeMs": 137777,
    "Key": 82,
    "DurationMs": 50,
    "Vel": 80
  },
  {
    "TimeMs": 137778,
    "Key": 86,
    "DurationMs": 50,
    "Vel": 80
  },
  {
    "TimeMs": 137779,
    "Key": 39,
    "DurationMs": 208,
    "Vel": 80
  },
  {
    "TimeMs": 137780,
    "Key": 51,
    "DurationMs": 208,
    "Vel": 80
  },
  {
    "TimeMs": 137833,
    "Key": 94,
    "DurationMs": 50,
    "Vel": 80
  },
  {
    "TimeMs": 137888,
    "Key": 82,
    "DurationMs": 50,
    "Vel": 80
  },
  {
    "TimeMs": 137889,
    "Key": 86,
    "DurationMs": 50,
    "Vel": 80
  },
  {
    "TimeMs": 137944,
    "Key": 94,
    "DurationMs": 50,
    "Vel": 80
  },
  {
    "TimeMs": 137999,
    "Key": 82,
    "DurationMs": 50,
    "Vel": 80
  },
  {
    "TimeMs": 138000,
    "Key": 86,
    "DurationMs": 50,
    "Vel": 80
  },
  {
    "TimeMs": 138001,
    "Key": 39,
    "DurationMs": 208,
    "Vel": 80
  },
  {
    "TimeMs": 138002,
    "Key": 51,
    "DurationMs": 208,
    "Vel": 80
  },
  {
    "TimeMs": 138055,
    "Key": 94,
    "DurationMs": 50,
    "Vel": 80
  },
  {
    "TimeMs": 138110,
    "Key": 82,
    "DurationMs": 50,
    "Vel": 80
  },
  {
    "TimeMs": 138111,
    "Key": 86,
    "DurationMs": 50,
    "Vel": 80
  },
  {
    "TimeMs": 138166,
    "Key": 94,
    "DurationMs": 50,
    "Vel": 80
  },
  {
    "TimeMs": 138222,
    "Key": 94,
    "DurationMs": 51,
    "Vel": 80
  },
  {
    "TimeMs": 138223,
    "Key": 39,
    "DurationMs": 209,
    "Vel": 80
  },
  {
    "TimeMs": 138223,
    "Key": 51,
    "DurationMs": 209,
    "Vel": 80
  },
  {
    "TimeMs": 138277,
    "Key": 87,
    "DurationMs": 51,
    "Vel": 80
  },
  {
    "TimeMs": 138333,
    "Key": 86,
    "DurationMs": 51,
    "Vel": 80
  },
  {
    "TimeMs": 138388,
    "Key": 82,
    "DurationMs": 51,
    "Vel": 80
  },
  {
    "TimeMs": 138444,
    "Key": 82,
    "DurationMs": 51,
    "Vel": 80
  },
  {
    "TimeMs": 138499,
    "Key": 75,
    "DurationMs": 51,
    "Vel": 80
  },
  {
    "TimeMs": 138555,
    "Key": 74,
    "DurationMs": 51,
    "Vel": 80
  },
  {
    "TimeMs": 138610,
    "Key": 70,
    "DurationMs": 51,
    "Vel": 80
  },
  {
    "TimeMs": 138666,
    "Key": 70,
    "DurationMs": 51,
    "Vel": 80
  },
  {
    "TimeMs": 138722,
    "Key": 63,
    "DurationMs": 51,
    "Vel": 80
  },
  {
    "TimeMs": 138777,
    "Key": 62,
    "DurationMs": 51,
    "Vel": 80
  },
  {
    "TimeMs": 138833,
    "Key": 58,
    "DurationMs": 51,
    "Vel": 80
  },
  {
    "TimeMs": 138888,
    "Key": 58,
    "DurationMs": 51,
    "Vel": 80
  },
  {
    "TimeMs": 138944,
    "Key": 51,
    "DurationMs": 51,
    "Vel": 80
  },
  {
    "TimeMs": 138999,
    "Key": 50,
    "DurationMs": 51,
    "Vel": 80
  },
  {
    "TimeMs": 139055,
    "Key": 46,
    "DurationMs": 51,
    "Vel": 80
  },
  {
    "TimeMs": 139110,
    "Key": 82,
    "DurationMs": 50,
    "Vel": 80
  },
  {
    "TimeMs": 139111,
    "Key": 86,
    "DurationMs": 50,
    "Vel": 80
  },
  {
    "TimeMs": 139112,
    "Key": 29,
    "DurationMs": 208,
    "Vel": 80
  },
  {
    "TimeMs": 139113,
    "Key": 41,
    "DurationMs": 208,
    "Vel": 80
  },
  {
    "TimeMs": 139166,
    "Key": 94,
    "DurationMs": 50,
    "Vel": 80
  },
  {
    "TimeMs": 139222,
    "Key": 82,
    "DurationMs": 50,
    "Vel": 80
  },
  {
    "TimeMs": 139223,
    "Key": 86,
    "DurationMs": 50,
    "Vel": 80
  },
  {
    "TimeMs": 139277,
    "Key": 94,
    "DurationMs": 50,
    "Vel": 80
  },
  {
    "TimeMs": 139333,
    "Key": 82,
    "DurationMs": 50,
    "Vel": 80
  },
  {
    "TimeMs": 139334,
    "Key": 86,
    "DurationMs": 50,
    "Vel": 80
  },
  {
    "TimeMs": 139335,
    "Key": 41,
    "DurationMs": 208,
    "Vel": 80
  },
  {
    "TimeMs": 139335,
    "Key": 53,
    "DurationMs": 208,
    "Vel": 80
  },
  {
    "TimeMs": 139388,
    "Key": 94,
    "DurationMs": 50,
    "Vel": 80
  },
  {
    "TimeMs": 139444,
    "Key": 82,
    "DurationMs": 50,
    "Vel": 80
  },
  {
    "TimeMs": 139445,
    "Key": 86,
    "DurationMs": 50,
    "Vel": 80
  },
  {
    "TimeMs": 139499,
    "Key": 94,
    "DurationMs": 50,
    "Vel": 80
  },
  {
    "TimeMs": 139555,
    "Key": 82,
    "DurationMs": 50,
    "Vel": 80
  },
  {
    "TimeMs": 139556,
    "Key": 86,
    "DurationMs": 50,
    "Vel": 80
  },
  {
    "TimeMs": 139557,
    "Key": 41,
    "DurationMs": 208,
    "Vel": 80
  },
  {
    "TimeMs": 139558,
    "Key": 53,
    "DurationMs": 208,
    "Vel": 80
  },
  {
    "TimeMs": 139610,
    "Key": 94,
    "DurationMs": 50,
    "Vel": 80
  },
  {
    "TimeMs": 139666,
    "Key": 82,
    "DurationMs": 50,
    "Vel": 80
  },
  {
    "TimeMs": 139667,
    "Key": 86,
    "DurationMs": 50,
    "Vel": 80
  },
  {
    "TimeMs": 139722,
    "Key": 94,
    "DurationMs": 50,
    "Vel": 80
  },
  {
    "TimeMs": 139777,
    "Key": 82,
    "DurationMs": 50,
    "Vel": 80
  },
  {
    "TimeMs": 139778,
    "Key": 86,
    "DurationMs": 50,
    "Vel": 80
  },
  {
    "TimeMs": 139779,
    "Key": 41,
    "DurationMs": 208,
    "Vel": 80
  },
  {
    "TimeMs": 139780,
    "Key": 53,
    "DurationMs": 208,
    "Vel": 80
  },
  {
    "TimeMs": 139833,
    "Key": 94,
    "DurationMs": 50,
    "Vel": 80
  },
  {
    "TimeMs": 139888,
    "Key": 82,
    "DurationMs": 50,
    "Vel": 80
  },
  {
    "TimeMs": 139889,
    "Key": 86,
    "DurationMs": 50,
    "Vel": 80
  },
  {
    "TimeMs": 139944,
    "Key": 94,
    "DurationMs": 50,
    "Vel": 80
  },
  {
    "TimeMs": 139999,
    "Key": 94,
    "DurationMs": 51,
    "Vel": 80
  },
  {
    "TimeMs": 140000,
    "Key": 41,
    "DurationMs": 209,
    "Vel": 80
  },
  {
    "TimeMs": 140001,
    "Key": 53,
    "DurationMs": 209,
    "Vel": 80
  },
  {
    "TimeMs": 140055,
    "Key": 87,
    "DurationMs": 51,
    "Vel": 80
  },
  {
    "TimeMs": 140110,
    "Key": 86,
    "DurationMs": 51,
    "Vel": 80
  },
  {
    "TimeMs": 140166,
    "Key": 82,
    "DurationMs": 51,
    "Vel": 80
  },
  {
    "TimeMs": 140222,
    "Key": 82,
    "DurationMs": 51,
    "Vel": 80
  },
  {
    "TimeMs": 140277,
    "Key": 75,
    "DurationMs": 51,
    "Vel": 80
  },
  {
    "TimeMs": 140333,
    "Key": 74,
    "DurationMs": 51,
    "Vel": 80
  },
  {
    "TimeMs": 140388,
    "Key": 70,
    "DurationMs": 51,
    "Vel": 80
  },
  {
    "TimeMs": 140444,
    "Key": 70,
    "DurationMs": 51,
    "Vel": 80
  },
  {
    "TimeMs": 140499,
    "Key": 63,
    "DurationMs": 51,
    "Vel": 80
  },
  {
    "TimeMs": 140555,
    "Key": 62,
    "DurationMs": 51,
    "Vel": 80
  },
  {
    "TimeMs": 140610,
    "Key": 58,
    "DurationMs": 51,
    "Vel": 80
  },
  {
    "TimeMs": 140666,
    "Key": 58,
    "DurationMs": 51,
    "Vel": 80
  },
  {
    "TimeMs": 140722,
    "Key": 51,
    "DurationMs": 51,
    "Vel": 80
  },
  {
    "TimeMs": 140777,
    "Key": 50,
    "DurationMs": 51,
    "Vel": 80
  },
  {
    "TimeMs": 140833,
    "Key": 46,
    "DurationMs": 51,
    "Vel": 80
  },
  {
    "TimeMs": 140888,
    "Key": 82,
    "DurationMs": 50,
    "Vel": 80
  },
  {
    "TimeMs": 140889,
    "Key": 86,
    "DurationMs": 50,
    "Vel": 80
  },
  {
    "TimeMs": 140890,
    "Key": 31,
    "DurationMs": 208,
    "Vel": 80
  },
  {
    "TimeMs": 140891,
    "Key": 43,
    "DurationMs": 208,
    "Vel": 80
  },
  {
    "TimeMs": 140944,
    "Key": 94,
    "DurationMs": 50,
    "Vel": 80
  },
  {
    "TimeMs": 140999,
    "Key": 82,
    "DurationMs": 50,
    "Vel": 80
  },
  {
    "TimeMs": 141000,
    "Key": 86,
    "DurationMs": 50,
    "Vel": 80
  },
  {
    "TimeMs": 141055,
    "Key": 94,
    "DurationMs": 50,
    "Vel": 80
  },
  {
    "TimeMs": 141110,
    "Key": 82,
    "DurationMs": 50,
    "Vel": 80
  },
  {
    "TimeMs": 141111,
    "Key": 86,
    "DurationMs": 50,
    "Vel": 80
  },
  {
    "TimeMs": 141112,
    "Key": 43,
    "DurationMs": 208,
    "Vel": 80
  },
  {
    "TimeMs": 141113,
    "Key": 55,
    "DurationMs": 208,
    "Vel": 80
  },
  {
    "TimeMs": 141166,
    "Key": 94,
    "DurationMs": 50,
    "Vel": 80
  },
  {
    "TimeMs": 141222,
    "Key": 82,
    "DurationMs": 50,
    "Vel": 80
  },
  {
    "TimeMs": 141223,
    "Key": 86,
    "DurationMs": 50,
    "Vel": 80
  },
  {
    "TimeMs": 141277,
    "Key": 94,
    "DurationMs": 50,
    "Vel": 80
  },
  {
    "TimeMs": 141333,
    "Key": 82,
    "DurationMs": 50,
    "Vel": 80
  },
  {
    "TimeMs": 141334,
    "Key": 86,
    "DurationMs": 50,
    "Vel": 80
  },
  {
    "TimeMs": 141335,
    "Key": 43,
    "DurationMs": 208,
    "Vel": 80
  },
  {
    "TimeMs": 141335,
    "Key": 55,
    "DurationMs": 208,
    "Vel": 80
  },
  {
    "TimeMs": 141388,
    "Key": 94,
    "DurationMs": 50,
    "Vel": 80
  },
  {
    "TimeMs": 141444,
    "Key": 82,
    "DurationMs": 50,
    "Vel": 80
  },
  {
    "TimeMs": 141445,
    "Key": 86,
    "DurationMs": 50,
    "Vel": 80
  },
  {
    "TimeMs": 141499,
    "Key": 94,
    "DurationMs": 50,
    "Vel": 80
  },
  {
    "TimeMs": 141555,
    "Key": 82,
    "DurationMs": 50,
    "Vel": 80
  },
  {
    "TimeMs": 141556,
    "Key": 86,
    "DurationMs": 50,
    "Vel": 80
  },
  {
    "TimeMs": 141557,
    "Key": 43,
    "DurationMs": 208,
    "Vel": 80
  },
  {
    "TimeMs": 141558,
    "Key": 55,
    "DurationMs": 208,
    "Vel": 80
  },
  {
    "TimeMs": 141610,
    "Key": 94,
    "DurationMs": 50,
    "Vel": 80
  },
  {
    "TimeMs": 141666,
    "Key": 82,
    "DurationMs": 50,
    "Vel": 80
  },
  {
    "TimeMs": 141667,
    "Key": 86,
    "DurationMs": 50,
    "Vel": 80
  },
  {
    "TimeMs": 141722,
    "Key": 94,
    "DurationMs": 50,
    "Vel": 80
  },
  {
    "TimeMs": 141777,
    "Key": 94,
    "DurationMs": 51,
    "Vel": 80
  },
  {
    "TimeMs": 141778,
    "Key": 43,
    "DurationMs": 209,
    "Vel": 80
  },
  {
    "TimeMs": 141779,
    "Key": 55,
    "DurationMs": 209,
    "Vel": 80
  },
  {
    "TimeMs": 141833,
    "Key": 87,
    "DurationMs": 51,
    "Vel": 80
  },
  {
    "TimeMs": 141888,
    "Key": 86,
    "DurationMs": 51,
    "Vel": 80
  },
  {
    "TimeMs": 141944,
    "Key": 82,
    "DurationMs": 51,
    "Vel": 80
  },
  {
    "TimeMs": 141999,
    "Key": 82,
    "DurationMs": 51,
    "Vel": 80
  },
  {
    "TimeMs": 142055,
    "Key": 75,
    "DurationMs": 51,
    "Vel": 80
  },
  {
    "TimeMs": 142110,
    "Key": 74,
    "DurationMs": 51,
    "Vel": 80
  },
  {
    "TimeMs": 142166,
    "Key": 70,
    "DurationMs": 51,
    "Vel": 80
  },
  {
    "TimeMs": 142222,
    "Key": 70,
    "DurationMs": 51,
    "Vel": 80
  },
  {
    "TimeMs": 142277,
    "Key": 63,
    "DurationMs": 51,
    "Vel": 80
  },
  {
    "TimeMs": 142333,
    "Key": 62,
    "DurationMs": 51,
    "Vel": 80
  },
  {
    "TimeMs": 142388,
    "Key": 58,
    "DurationMs": 51,
    "Vel": 80
  },
  {
    "TimeMs": 142444,
    "Key": 58,
    "DurationMs": 51,
    "Vel": 80
  },
  {
    "TimeMs": 142499,
    "Key": 51,
    "DurationMs": 51,
    "Vel": 80
  },
  {
    "TimeMs": 142555,
    "Key": 50,
    "DurationMs": 51,
    "Vel": 80
  },
  {
    "TimeMs": 142610,
    "Key": 46,
    "DurationMs": 51,
    "Vel": 80
  },
  {
    "TimeMs": 142666,
    "Key": 84,
    "DurationMs": 50,
    "Vel": 108
  },
  {
    "TimeMs": 142667,
    "Key": 89,
    "DurationMs": 50,
    "Vel": 108
  },
  {
    "TimeMs": 142668,
    "Key": 26,
    "DurationMs": 208,
    "Vel": 80
  },
  {
    "TimeMs": 142669,
    "Key": 38,
    "DurationMs": 208,
    "Vel": 80
  },
  {
    "TimeMs": 142722,
    "Key": 96,
    "DurationMs": 50,
    "Vel": 108
  },
  {
    "TimeMs": 142777,
    "Key": 84,
    "DurationMs": 50,
    "Vel": 108
  },
  {
    "TimeMs": 142778,
    "Key": 89,
    "DurationMs": 50,
    "Vel": 108
  },
  {
    "TimeMs": 142833,
    "Key": 96,
    "DurationMs": 50,
    "Vel": 108
  },
  {
    "TimeMs": 142888,
    "Key": 84,
    "DurationMs": 50,
    "Vel": 108
  },
  {
    "TimeMs": 142889,
    "Key": 89,
    "DurationMs": 50,
    "Vel": 108
  },
  {
    "TimeMs": 142890,
    "Key": 38,
    "DurationMs": 208,
    "Vel": 80
  },
  {
    "TimeMs": 142891,
    "Key": 50,
    "DurationMs": 208,
    "Vel": 80
  },
  {
    "TimeMs": 142944,
    "Key": 96,
    "DurationMs": 50,
    "Vel": 108
  },
  {
    "TimeMs": 142999,
    "Key": 84,
    "DurationMs": 50,
    "Vel": 108
  },
  {
    "TimeMs": 143000,
    "Key": 89,
    "DurationMs": 50,
    "Vel": 108
  },
  {
    "TimeMs": 143055,
    "Key": 96,
    "DurationMs": 50,
    "Vel": 108
  },
  {
    "TimeMs": 143110,
    "Key": 84,
    "DurationMs": 50,
    "Vel": 108
  },
  {
    "TimeMs": 143111,
    "Key": 89,
    "DurationMs": 50,
    "Vel": 108
  },
  {
    "TimeMs": 143112,
    "Key": 38,
    "DurationMs": 208,
    "Vel": 80
  },
  {
    "TimeMs": 143113,
    "Key": 50,
    "DurationMs": 208,
    "Vel": 80
  },
  {
    "TimeMs": 143166,
    "Key": 96,
    "DurationMs": 50,
    "Vel": 108
  },
  {
    "TimeMs": 143222,
    "Key": 84,
    "DurationMs": 50,
    "Vel": 108
  },
  {
    "TimeMs": 143223,
    "Key": 89,
    "DurationMs": 50,
    "Vel": 108
  },
  {
    "TimeMs": 143277,
    "Key": 96,
    "DurationMs": 50,
    "Vel": 108
  },
  {
    "TimeMs": 143333,
    "Key": 84,
    "DurationMs": 50,
    "Vel": 108
  },
  {
    "TimeMs": 143334,
    "Key": 89,
    "DurationMs": 50,
    "Vel": 108
  },
  {
    "TimeMs": 143335,
    "Key": 38,
    "DurationMs": 208,
    "Vel": 80
  },
  {
    "TimeMs": 143335,
    "Key": 50,
    "DurationMs": 208,
    "Vel": 80
  },
  {
    "TimeMs": 143388,
    "Key": 96,
    "DurationMs": 50,
    "Vel": 108
  },
  {
    "TimeMs": 143444,
    "Key": 84,
    "DurationMs": 50,
    "Vel": 108
  },
  {
    "TimeMs": 143445,
    "Key": 89,
    "DurationMs": 50,
    "Vel": 108
  },
  {
    "TimeMs": 143499,
    "Key": 96,
    "DurationMs": 50,
    "Vel": 108
  },
  {
    "TimeMs": 143555,
    "Key": 96,
    "DurationMs": 51,
    "Vel": 108
  },
  {
    "TimeMs": 143556,
    "Key": 38,
    "DurationMs": 209,
    "Vel": 80
  },
  {
    "TimeMs": 143557,
    "Key": 50,
    "DurationMs": 209,
    "Vel": 80
  },
  {
    "TimeMs": 143610,
    "Key": 94,
    "DurationMs": 51,
    "Vel": 80
  },
  {
    "TimeMs": 143666,
    "Key": 89,
    "DurationMs": 51,
    "Vel": 80
  },
  {
    "TimeMs": 143722,
    "Key": 84,
    "DurationMs": 51,
    "Vel": 80
  },
  {
    "TimeMs": 143777,
    "Key": 84,
    "DurationMs": 51,
    "Vel": 80
  },
  {
    "TimeMs": 143833,
    "Key": 82,
    "DurationMs": 51,
    "Vel": 80
  },
  {
    "TimeMs": 143888,
    "Key": 77,
    "DurationMs": 51,
    "Vel": 80
  },
  {
    "TimeMs": 143944,
    "Key": 72,
    "DurationMs": 51,
    "Vel": 80
  },
  {
    "TimeMs": 143999,
    "Key": 72,
    "DurationMs": 51,
    "Vel": 80
  },
  {
    "TimeMs": 144055,
    "Key": 70,
    "DurationMs": 51,
    "Vel": 80
  },
  {
    "TimeMs": 144110,
    "Key": 65,
    "DurationMs": 51,
    "Vel": 80
  },
  {
    "TimeMs": 144166,
    "Key": 60,
    "DurationMs": 51,
    "Vel": 80
  },
  {
    "TimeMs": 144222,
    "Key": 65,
    "DurationMs": 210,
    "Vel": 80
  },
  {
    "TimeMs": 144223,
    "Key": 60,
    "DurationMs": 50,
    "Vel": 80
  },
  {
    "TimeMs": 144277,
    "Key": 58,
    "DurationMs": 51,
    "Vel": 80
  },
  {
    "TimeMs": 144333,
    "Key": 53,
    "DurationMs": 51,
    "Vel": 80
  },
  {
    "TimeMs": 144388,
    "Key": 48,
    "DurationMs": 51,
    "Vel": 80
  },
  {
    "TimeMs": 144444,
    "Key": 65,
    "DurationMs": 210,
    "Vel": 64
  },
  {
    "TimeMs": 144445,
    "Key": 43,
    "DurationMs": 103,
    "Vel": 64
  },
  {
    "TimeMs": 144555,
    "Key": 55,
    "DurationMs": 104,
    "Vel": 64
  },
  {
    "TimeMs": 144666,
    "Key": 62,
    "DurationMs": 104,
    "Vel": 64
  },
  {
    "TimeMs": 144667,
    "Key": 53,
    "DurationMs": 104,
    "Vel": 64
  },
  {
    "TimeMs": 144777,
    "Key": 62,
    "DurationMs": 104,
    "Vel": 64
  },
  {
    "TimeMs": 144778,
    "Key": 55,
    "DurationMs": 104,
    "Vel": 64
  },
  {
    "TimeMs": 144888,
    "Key": 50,
    "DurationMs": 104,
    "Vel": 64
  },
  {
    "TimeMs": 144999,
    "Key": 53,
    "DurationMs": 104,
    "Vel": 64
  },
  {
    "TimeMs": 145110,
    "Key": 62,
    "DurationMs": 210,
    "Vel": 64
  },
  {
    "TimeMs": 145111,
    "Key": 69,
    "DurationMs": 210,
    "Vel": 64
  },
  {
    "TimeMs": 145112,
    "Key": 55,
    "DurationMs": 102,
    "Vel": 64
  },
  {
    "TimeMs": 145222,
    "Key": 57,
    "DurationMs": 104,
    "Vel": 64
  },
  {
    "TimeMs": 145333,
    "Key": 60,
    "DurationMs": 210,
    "Vel": 64
  },
  {
    "TimeMs": 145334,
    "Key": 70,
    "DurationMs": 210,
    "Vel": 64
  },
  {
    "TimeMs": 145335,
    "Key": 58,
    "DurationMs": 102,
    "Vel": 64
  },
  {
    "TimeMs": 145444,
    "Key": 55,
    "DurationMs": 104,
    "Vel": 64
  },
  {
    "TimeMs": 145555,
    "Key": 62,
    "DurationMs": 104,
    "Vel": 64
  },
  {
    "TimeMs": 145556,
    "Key": 69,
    "DurationMs": 104,
    "Vel": 64
  },
  {
    "TimeMs": 145557,
    "Key": 53,
    "DurationMs": 104,
    "Vel": 64
  },
  {
    "TimeMs": 145666,
    "Key": 62,
    "DurationMs": 104,
    "Vel": 64
  },
  {
    "TimeMs": 145667,
    "Key": 69,
    "DurationMs": 104,
    "Vel": 64
  },
  {
    "TimeMs": 145668,
    "Key": 55,
    "DurationMs": 104,
    "Vel": 64
  },
  {
    "TimeMs": 145777,
    "Key": 50,
    "DurationMs": 104,
    "Vel": 64
  },
  {
    "TimeMs": 145888,
    "Key": 55,
    "DurationMs": 104,
    "Vel": 64
  },
  {
    "TimeMs": 145999,
    "Key": 65,
    "DurationMs": 210,
    "Vel": 64
  },
  {
    "TimeMs": 146000,
    "Key": 53,
    "DurationMs": 103,
    "Vel": 64
  },
  {
    "TimeMs": 146110,
    "Key": 55,
    "DurationMs": 104,
    "Vel": 64
  },
  {
    "TimeMs": 146222,
    "Key": 65,
    "DurationMs": 210,
    "Vel": 64
  },
  {
    "TimeMs": 146223,
    "Key": 43,
    "DurationMs": 103,
    "Vel": 64
  },
  {
    "TimeMs": 146333,
    "Key": 55,
    "DurationMs": 104,
    "Vel": 64
  },
  {
    "TimeMs": 146444,
    "Key": 62,
    "DurationMs": 104,
    "Vel": 64
  },
  {
    "TimeMs": 146445,
    "Key": 53,
    "DurationMs": 104,
    "Vel": 64
  },
  {
    "TimeMs": 146555,
    "Key": 62,
    "DurationMs": 104,
    "Vel": 64
  },
  {
    "TimeMs": 146556,
    "Key": 55,
    "DurationMs": 104,
    "Vel": 64
  },
  {
    "TimeMs": 146666,
    "Key": 50,
    "DurationMs": 104,
    "Vel": 64
  },
  {
    "TimeMs": 146777,
    "Key": 53,
    "DurationMs": 104,
    "Vel": 64
  },
  {
    "TimeMs": 146888,
    "Key": 62,
    "DurationMs": 210,
    "Vel": 64
  },
  {
    "TimeMs": 146889,
    "Key": 69,
    "DurationMs": 210,
    "Vel": 64
  },
  {
    "TimeMs": 146890,
    "Key": 55,
    "DurationMs": 102,
    "Vel": 64
  },
  {
    "TimeMs": 146999,
    "Key": 57,
    "DurationMs": 104,
    "Vel": 64
  },
  {
    "TimeMs": 147110,
    "Key": 60,
    "DurationMs": 210,
    "Vel": 64
  },
  {
    "TimeMs": 147111,
    "Key": 70,
    "DurationMs": 210,
    "Vel": 64
  },
  {
    "TimeMs": 147112,
    "Key": 58,
    "DurationMs": 102,
    "Vel": 64
  },
  {
    "TimeMs": 147222,
    "Key": 55,
    "DurationMs": 104,
    "Vel": 64
  },
  {
    "TimeMs": 147333,
    "Key": 62,
    "DurationMs": 104,
    "Vel": 64
  },
  {
    "TimeMs": 147334,
    "Key": 69,
    "DurationMs": 104,
    "Vel": 64
  },
  {
    "TimeMs": 147335,
    "Key": 53,
    "DurationMs": 104,
    "Vel": 64
  },
  {
    "TimeMs": 147444,
    "Key": 62,
    "DurationMs": 104,
    "Vel": 64
  },
  {
    "TimeMs": 147445,
    "Key": 69,
    "DurationMs": 104,
    "Vel": 64
  },
  {
    "TimeMs": 147446,
    "Key": 55,
    "DurationMs": 104,
    "Vel": 64
  },
  {
    "TimeMs": 147555,
    "Key": 50,
    "DurationMs": 104,
    "Vel": 64
  },
  {
    "TimeMs": 147666,
    "Key": 55,
    "DurationMs": 104,
    "Vel": 64
  },
  {
    "TimeMs": 147777,
    "Key": 65,
    "DurationMs": 210,
    "Vel": 64
  },
  {
    "TimeMs": 147778,
    "Key": 53,
    "DurationMs": 103,
    "Vel": 64
  },
  {
    "TimeMs": 147888,
    "Key": 55,
    "DurationMs": 104,
    "Vel": 64
  },
  {
    "TimeMs": 147999,
    "Key": 65,
    "DurationMs": 210,
    "Vel": 64
  },
  {
    "TimeMs": 148000,
    "Key": 43,
    "DurationMs": 103,
    "Vel": 64
  },
  {
    "TimeMs": 148110,
    "Key": 55,
    "DurationMs": 104,
    "Vel": 64
  },
  {
    "TimeMs": 148222,
    "Key": 62,
    "DurationMs": 104,
    "Vel": 64
  },
  {
    "TimeMs": 148222,
    "Key": 53,
    "DurationMs": 104,
    "Vel": 64
  },
  {
    "TimeMs": 148333,
    "Key": 62,
    "DurationMs": 104,
    "Vel": 64
  },
  {
    "TimeMs": 148334,
    "Key": 55,
    "DurationMs": 104,
    "Vel": 64
  },
  {
    "TimeMs": 148444,
    "Key": 50,
    "DurationMs": 104,
    "Vel": 64
  },
  {
    "TimeMs": 148555,
    "Key": 53,
    "DurationMs": 104,
    "Vel": 64
  },
  {
    "TimeMs": 148666,
    "Key": 62,
    "DurationMs": 210,
    "Vel": 64
  },
  {
    "TimeMs": 148667,
    "Key": 69,
    "DurationMs": 210,
    "Vel": 64
  },
  {
    "TimeMs": 148668,
    "Key": 55,
    "DurationMs": 102,
    "Vel": 64
  },
  {
    "TimeMs": 148777,
    "Key": 57,
    "DurationMs": 104,
    "Vel": 64
  },
  {
    "TimeMs": 148888,
    "Key": 60,
    "DurationMs": 210,
    "Vel": 64
  },
  {
    "TimeMs": 148889,
    "Key": 70,
    "DurationMs": 210,
    "Vel": 64
  },
  {
    "TimeMs": 148890,
    "Key": 58,
    "DurationMs": 102,
    "Vel": 64
  },
  {
    "TimeMs": 148999,
    "Key": 55,
    "DurationMs": 104,
    "Vel": 64
  },
  {
    "TimeMs": 149110,
    "Key": 62,
    "DurationMs": 104,
    "Vel": 64
  },
  {
    "TimeMs": 149111,
    "Key": 69,
    "DurationMs": 104,
    "Vel": 64
  },
  {
    "TimeMs": 149112,
    "Key": 53,
    "DurationMs": 104,
    "Vel": 64
  },
  {
    "TimeMs": 149222,
    "Key": 62,
    "DurationMs": 104,
    "Vel": 64
  },
  {
    "TimeMs": 149222,
    "Key": 69,
    "DurationMs": 104,
    "Vel": 64
  },
  {
    "TimeMs": 149223,
    "Key": 55,
    "DurationMs": 104,
    "Vel": 64
  },
  {
    "TimeMs": 149333,
    "Key": 50,
    "DurationMs": 104,
    "Vel": 64
  },
  {
    "TimeMs": 149444,
    "Key": 55,
    "DurationMs": 104,
    "Vel": 64
  },
  {
    "TimeMs": 149555,
    "Key": 65,
    "DurationMs": 210,
    "Vel": 64
  },
  {
    "TimeMs": 149556,
    "Key": 53,
    "DurationMs": 103,
    "Vel": 64
  },
  {
    "TimeMs": 149666,
    "Key": 55,
    "DurationMs": 104,
    "Vel": 64
  },
  {
    "TimeMs": 149777,
    "Key": 65,
    "DurationMs": 210,
    "Vel": 64
  },
  {
    "TimeMs": 149778,
    "Key": 43,
    "DurationMs": 103,
    "Vel": 64
  },
  {
    "TimeMs": 149888,
    "Key": 55,
    "DurationMs": 104,
    "Vel": 64
  },
  {
    "TimeMs": 149999,
    "Key": 62,
    "DurationMs": 104,
    "Vel": 64
  },
  {
    "TimeMs": 150000,
    "Key": 53,
    "DurationMs": 104,
    "Vel": 64
  },
  {
    "TimeMs": 150110,
    "Key": 62,
    "DurationMs": 104,
    "Vel": 64
  },
  {
    "TimeMs": 150111,
    "Key": 55,
    "DurationMs": 104,
    "Vel": 64
  },
  {
    "TimeMs": 150222,
    "Key": 50,
    "DurationMs": 104,
    "Vel": 64
  },
  {
    "TimeMs": 150333,
    "Key": 53,
    "DurationMs": 104,
    "Vel": 64
  },
  {
    "TimeMs": 150444,
    "Key": 62,
    "DurationMs": 210,
    "Vel": 64
  },
  {
    "TimeMs": 150445,
    "Key": 69,
    "DurationMs": 210,
    "Vel": 64
  },
  {
    "TimeMs": 150446,
    "Key": 55,
    "DurationMs": 102,
    "Vel": 64
  },
  {
    "TimeMs": 150555,
    "Key": 57,
    "DurationMs": 104,
    "Vel": 64
  },
  {
    "TimeMs": 150666,
    "Key": 60,
    "DurationMs": 210,
    "Vel": 64
  },
  {
    "TimeMs": 150667,
    "Key": 70,
    "DurationMs": 210,
    "Vel": 64
  },
  {
    "TimeMs": 150668,
    "Key": 58,
    "DurationMs": 102,
    "Vel": 64
  },
  {
    "TimeMs": 150777,
    "Key": 55,
    "DurationMs": 104,
    "Vel": 64
  },
  {
    "TimeMs": 150888,
    "Key": 62,
    "DurationMs": 104,
    "Vel": 64
  },
  {
    "TimeMs": 150889,
    "Key": 69,
    "DurationMs": 104,
    "Vel": 64
  },
  {
    "TimeMs": 150890,
    "Key": 53,
    "DurationMs": 104,
    "Vel": 64
  },
  {
    "TimeMs": 150999,
    "Key": 62,
    "DurationMs": 104,
    "Vel": 64
  },
  {
    "TimeMs": 151000,
    "Key": 69,
    "DurationMs": 104,
    "Vel": 64
  },
  {
    "TimeMs": 151001,
    "Key": 55,
    "DurationMs": 104,
    "Vel": 64
  },
  {
    "TimeMs": 151110,
    "Key": 50,
    "DurationMs": 104,
    "Vel": 64
  },
  {
    "TimeMs": 151222,
    "Key": 55,
    "DurationMs": 104,
    "Vel": 64
  },
  {
    "TimeMs": 151333,
    "Key": 65,
    "DurationMs": 210,
    "Vel": 64
  },
  {
    "TimeMs": 151334,
    "Key": 53,
    "DurationMs": 103,
    "Vel": 64
  },
  {
    "TimeMs": 151444,
    "Key": 55,
    "DurationMs": 104,
    "Vel": 64
  },
  {
    "TimeMs": 151555,
    "Key": 74,
    "DurationMs": 104,
    "Vel": 64
  },
  {
    "TimeMs": 151556,
    "Key": 62,
    "DurationMs": 209,
    "Vel": 64
  },
  {
    "TimeMs": 151557,
    "Key": 65,
    "DurationMs": 209,
    "Vel": 64
  },
  {
    "TimeMs": 151558,
    "Key": 43,
    "DurationMs": 102,
    "Vel": 64
  },
  {
    "TimeMs": 151666,
    "Key": 69,
    "DurationMs": 104,
    "Vel": 64
  },
  {
    "TimeMs": 151667,
    "Key": 55,
    "DurationMs": 104,
    "Vel": 64
  },
  {
    "TimeMs": 151777,
    "Key": 70,
    "DurationMs": 104,
    "Vel": 64
  },
  {
    "TimeMs": 151778,
    "Key": 58,
    "DurationMs": 104,
    "Vel": 64
  },
  {
    "TimeMs": 151779,
    "Key": 62,
    "DurationMs": 104,
    "Vel": 64
  },
  {
    "TimeMs": 151888,
    "Key": 65,
    "DurationMs": 104,
    "Vel": 64
  },
  {
    "TimeMs": 151889,
    "Key": 58,
    "DurationMs": 104,
    "Vel": 64
  },
  {
    "TimeMs": 151890,
    "Key": 62,
    "DurationMs": 104,
    "Vel": 64
  },
  {
    "TimeMs": 151999,
    "Key": 55,
    "DurationMs": 104,
    "Vel": 64
  },
  {
    "TimeMs": 152110,
    "Key": 57,
    "DurationMs": 104,
    "Vel": 64
  },
  {
    "TimeMs": 152222,
    "Key": 74,
    "DurationMs": 104,
    "Vel": 64
  },
  {
    "TimeMs": 152222,
    "Key": 58,
    "DurationMs": 104,
    "Vel": 64
  },
  {
    "TimeMs": 152223,
    "Key": 62,
    "DurationMs": 208,
    "Vel": 64
  },
  {
    "TimeMs": 152333,
    "Key": 69,
    "DurationMs": 104,
    "Vel": 64
  },
  {
    "TimeMs": 152334,
    "Key": 55,
    "DurationMs": 104,
    "Vel": 64
  },
  {
    "TimeMs": 152444,
    "Key": 70,
    "DurationMs": 104,
    "Vel": 64
  },
  {
    "TimeMs": 152445,
    "Key": 57,
    "DurationMs": 104,
    "Vel": 64
  },
  {
    "TimeMs": 152446,
    "Key": 60,
    "DurationMs": 208,
    "Vel": 64
  },
  {
    "TimeMs": 152555,
    "Key": 65,
    "DurationMs": 104,
    "Vel": 64
  },
  {
    "TimeMs": 152556,
    "Key": 55,
    "DurationMs": 104,
    "Vel": 64
  },
  {
    "TimeMs": 152666,
    "Key": 58,
    "DurationMs": 104,
    "Vel": 64
  },
  {
    "TimeMs": 152667,
    "Key": 62,
    "DurationMs": 104,
    "Vel": 64
  },
  {
    "TimeMs": 152777,
    "Key": 58,
    "DurationMs": 104,
    "Vel": 64
  },
  {
    "TimeMs": 152778,
    "Key": 62,
    "DurationMs": 104,
    "Vel": 64
  },
  {
    "TimeMs": 152888,
    "Key": 74,
    "DurationMs": 104,
    "Vel": 64
  },
  {
    "TimeMs": 152889,
    "Key": 55,
    "DurationMs": 104,
    "Vel": 64
  },
  {
    "TimeMs": 152999,
    "Key": 69,
    "DurationMs": 104,
    "Vel": 64
  },
  {
    "TimeMs": 153000,
    "Key": 57,
    "DurationMs": 104,
    "Vel": 64
  },
  {
    "TimeMs": 153110,
    "Key": 70,
    "DurationMs": 210,
    "Vel": 64
  },
  {
    "TimeMs": 153111,
    "Key": 62,
    "DurationMs": 103,
    "Vel": 64
  },
  {
    "TimeMs": 153112,
    "Key": 65,
    "DurationMs": 209,
    "Vel": 64
  },
  {
    "TimeMs": 153222,
    "Key": 55,
    "DurationMs": 104,
    "Vel": 64
  },
  {
    "TimeMs": 153333,
    "Key": 74,
    "DurationMs": 104,
    "Vel": 64
  },
  {
    "TimeMs": 153334,
    "Key": 62,
    "DurationMs": 209,
    "Vel": 64
  },
  {
    "TimeMs": 153335,
    "Key": 65,
    "DurationMs": 209,
    "Vel": 64
  },
  {
    "TimeMs": 153335,
    "Key": 39,
    "DurationMs": 102,
    "Vel": 64
  },
  {
    "TimeMs": 153444,
    "Key": 69,
    "DurationMs": 104,
    "Vel": 64
  },
  {
    "TimeMs": 153445,
    "Key": 51,
    "DurationMs": 104,
    "Vel": 64
  },
  {
    "TimeMs": 153555,
    "Key": 70,
    "DurationMs": 104,
    "Vel": 64
  },
  {
    "TimeMs": 153556,
    "Key": 58,
    "DurationMs": 104,
    "Vel": 64
  },
  {
    "TimeMs": 153557,
    "Key": 62,
    "DurationMs": 104,
    "Vel": 64
  },
  {
    "TimeMs": 153666,
    "Key": 65,
    "DurationMs": 104,
    "Vel": 64
  },
  {
    "TimeMs": 153667,
    "Key": 58,
    "DurationMs": 104,
    "Vel": 64
  },
  {
    "TimeMs": 153668,
    "Key": 62,
    "DurationMs": 104,
    "Vel": 64
  },
  {
    "TimeMs": 153777,
    "Key": 55,
    "DurationMs": 104,
    "Vel": 64
  },
  {
    "TimeMs": 153888,
    "Key": 57,
    "DurationMs": 104,
    "Vel": 64
  },
  {
    "TimeMs": 153999,
    "Key": 74,
    "DurationMs": 104,
    "Vel": 64
  },
  {
    "TimeMs": 154000,
    "Key": 58,
    "DurationMs": 104,
    "Vel": 64
  },
  {
    "TimeMs": 154001,
    "Key": 62,
    "DurationMs": 208,
    "Vel": 64
  },
  {
    "TimeMs": 154110,
    "Key": 69,
    "DurationMs": 104,
    "Vel": 64
  },
  {
    "TimeMs": 154111,
    "Key": 55,
    "DurationMs": 104,
    "Vel": 64
  },
  {
    "TimeMs": 154222,
    "Key": 70,
    "DurationMs": 104,
    "Vel": 64
  },
  {
    "TimeMs": 154222,
    "Key": 57,
    "DurationMs": 104,
    "Vel": 64
  },
  {
    "TimeMs": 154223,
    "Key": 60,
    "DurationMs": 208,
    "Vel": 64
  },
  {
    "TimeMs": 154333,
    "Key": 65,
    "DurationMs": 104,
    "Vel": 64
  },
  {
    "TimeMs": 154334,
    "Key": 55,
    "DurationMs": 104,
    "Vel": 64
  },
  {
    "TimeMs": 154444,
    "Key": 58,
    "DurationMs": 104,
    "Vel": 64
  },
  {
    "TimeMs": 154445,
    "Key": 62,
    "DurationMs": 104,
    "Vel": 64
  },
  {
    "TimeMs": 154555,
    "Key": 58,
    "DurationMs": 104,
    "Vel": 64
  },
  {
    "TimeMs": 154556,
    "Key": 62,
    "DurationMs": 104,
    "Vel": 64
  },
  {
    "TimeMs": 154666,
    "Key": 74,
    "DurationMs": 104,
    "Vel": 64
  },
  {
    "TimeMs": 154667,
    "Key": 55,
    "DurationMs": 104,
    "Vel": 64
  },
  {
    "TimeMs": 154777,
    "Key": 69,
    "DurationMs": 104,
    "Vel": 64
  },
  {
    "TimeMs": 154778,
    "Key": 57,
    "DurationMs": 104,
    "Vel": 64
  },
  {
    "TimeMs": 154888,
    "Key": 70,
    "DurationMs": 210,
    "Vel": 64
  },
  {
    "TimeMs": 154889,
    "Key": 62,
    "DurationMs": 103,
    "Vel": 64
  },
  {
    "TimeMs": 154890,
    "Key": 65,
    "DurationMs": 209,
    "Vel": 64
  },
  {
    "TimeMs": 154999,
    "Key": 55,
    "DurationMs": 104,
    "Vel": 64
  },
  {
    "TimeMs": 155110,
    "Key": 74,
    "DurationMs": 104,
    "Vel": 64
  },
  {
    "TimeMs": 155111,
    "Key": 62,
    "DurationMs": 209,
    "Vel": 64
  },
  {
    "TimeMs": 155112,
    "Key": 65,
    "DurationMs": 209,
    "Vel": 64
  },
  {
    "TimeMs": 155113,
    "Key": 41,
    "DurationMs": 102,
    "Vel": 64
  },
  {
    "TimeMs": 155222,
    "Key": 69,
    "DurationMs": 104,
    "Vel": 64
  },
  {
    "TimeMs": 155222,
    "Key": 53,
    "DurationMs": 104,
    "Vel": 64
  },
  {
    "TimeMs": 155333,
    "Key": 70,
    "DurationMs": 104,
    "Vel": 64
  },
  {
    "TimeMs": 155334,
    "Key": 58,
    "DurationMs": 104,
    "Vel": 64
  },
  {
    "TimeMs": 155335,
    "Key": 62,
    "DurationMs": 104,
    "Vel": 64
  },
  {
    "TimeMs": 155444,
    "Key": 65,
    "DurationMs": 104,
    "Vel": 64
  },
  {
    "TimeMs": 155445,
    "Key": 58,
    "DurationMs": 104,
    "Vel": 64
  },
  {
    "TimeMs": 155446,
    "Key": 62,
    "DurationMs": 104,
    "Vel": 64
  },
  {
    "TimeMs": 155555,
    "Key": 55,
    "DurationMs": 104,
    "Vel": 64
  },
  {
    "TimeMs": 155666,
    "Key": 57,
    "DurationMs": 104,
    "Vel": 64
  },
  {
    "TimeMs": 155777,
    "Key": 74,
    "DurationMs": 210,
    "Vel": 64
  },
  {
    "TimeMs": 155778,
    "Key": 58,
    "DurationMs": 103,
    "Vel": 64
  },
  {
    "TimeMs": 155779,
    "Key": 62,
    "DurationMs": 209,
    "Vel": 64
  },
  {
    "TimeMs": 155888,
    "Key": 69,
    "DurationMs": 104,
    "Vel": 64
  },
  {
    "TimeMs": 155889,
    "Key": 55,
    "DurationMs": 104,
    "Vel": 64
  },
  {
    "TimeMs": 155999,
    "Key": 72,
    "DurationMs": 315,
    "Vel": 64
  },
  {
    "TimeMs": 156000,
    "Key": 70,
    "DurationMs": 103,
    "Vel": 64
  },
  {
    "TimeMs": 156001,
    "Key": 60,
    "DurationMs": 314,
    "Vel": 64
  },
  {
    "TimeMs": 156002,
    "Key": 57,
    "DurationMs": 207,
    "Vel": 64
  },
  {
    "TimeMs": 156110,
    "Key": 65,
    "DurationMs": 526,
    "Vel": 64
  },
  {
    "TimeMs": 156222,
    "Key": 55,
    "DurationMs": 315,
    "Vel": 64
  },
  {
    "TimeMs": 156333,
    "Key": 74,
    "DurationMs": 315,
    "Vel": 64
  },
  {
    "TimeMs": 156334,
    "Key": 58,
    "DurationMs": 315,
    "Vel": 64
  },
  {
    "TimeMs": 156335,
    "Key": 62,
    "DurationMs": 315,
    "Vel": 64
  },
  {
    "TimeMs": 156555,
    "Key": 43,
    "DurationMs": 526,
    "Vel": 64
  },
  {
    "TimeMs": 156666,
    "Key": 62,
    "DurationMs": 421,
    "Vel": 64
  },
  {
    "TimeMs": 156667,
    "Key": 65,
    "DurationMs": 209,
    "Vel": 64
  },
  {
    "TimeMs": 156668,
    "Key": 70,
    "DurationMs": 420,
    "Vel": 64
  },
  {
    "TimeMs": 156669,
    "Key": 74,
    "DurationMs": 420,
    "Vel": 64
  },
  {
    "TimeMs": 156670,
    "Key": 55,
    "DurationMs": 420,
    "Vel": 64
  },
  {
    "TimeMs": 157110,
    "Key": 75,
    "DurationMs": 210,
    "Vel": 96
  },
  {
    "TimeMs": 157111,
    "Key": 87,
    "DurationMs": 210,
    "Vel": 96
  },
  {
    "TimeMs": 157333,
    "Key": 74,
    "DurationMs": 399,
    "Vel": 96
  },
  {
    "TimeMs": 157334,
    "Key": 86,
    "DurationMs": 420,
    "Vel": 96
  },
  {
    "TimeMs": 157555,
    "Key": 67,
    "DurationMs": 669,
    "Vel": 96
  },
  {
    "TimeMs": 157613,
    "Key": 69,
    "DurationMs": 607,
    "Vel": 96
  },
  {
    "TimeMs": 157672,
    "Key": 70,
    "DurationMs": 550,
    "Vel": 96
  },
  {
    "TimeMs": 157733,
    "Key": 74,
    "DurationMs": 487,
    "Vel": 96
  },
  {
    "TimeMs": 157777,
    "Key": 86,
    "DurationMs": 421,
    "Vel": 96
  },
  {
    "TimeMs": 157778,
    "Key": 98,
    "DurationMs": 421,
    "Vel": 96
  },
  {
    "TimeMs": 158222,
    "Key": 84,
    "DurationMs": 421,
    "Vel": 96
  },
  {
    "TimeMs": 158222,
    "Key": 96,
    "DurationMs": 421,
    "Vel": 96
  },
  {
    "TimeMs": 158666,
    "Key": 98,
    "DurationMs": 315,
    "Vel": 80
  },
  {
    "TimeMs": 158667,
    "Key": 51,
    "DurationMs": 315,
    "Vel": 80
  },
  {
    "TimeMs": 158668,
    "Key": 58,
    "DurationMs": 315,
    "Vel": 80
  },
  {
    "TimeMs": 158669,
    "Key": 63,
    "DurationMs": 315,
    "Vel": 80
  },
  {
    "TimeMs": 158777,
    "Key": 91,
    "DurationMs": 104,
    "Vel": 80
  },
  {
    "TimeMs": 158888,
    "Key": 86,
    "DurationMs": 104,
    "Vel": 80
  },
  {
    "TimeMs": 158999,
    "Key": 96,
    "DurationMs": 315,
    "Vel": 80
  },
  {
    "TimeMs": 159000,
    "Key": 63,
    "DurationMs": 315,
    "Vel": 80
  },
  {
    "TimeMs": 159110,
    "Key": 91,
    "DurationMs": 104,
    "Vel": 80
  },
  {
    "TimeMs": 159222,
    "Key": 86,
    "DurationMs": 104,
    "Vel": 80
  },
  {
    "TimeMs": 159333,
    "Key": 96,
    "DurationMs": 210,
    "Vel": 80
  },
  {
    "TimeMs": 159334,
    "Key": 63,
    "DurationMs": 210,
    "Vel": 80
  },
  {
    "TimeMs": 159444,
    "Key": 86,
    "DurationMs": 104,
    "Vel": 80
  },
  {
    "TimeMs": 159555,
    "Key": 96,
    "DurationMs": 315,
    "Vel": 80
  },
  {
    "TimeMs": 159556,
    "Key": 70,
    "DurationMs": 842,
    "Vel": 80
  },
  {
    "TimeMs": 159557,
    "Key": 75,
    "DurationMs": 842,
    "Vel": 80
  },
  {
    "TimeMs": 159558,
    "Key": 79,
    "DurationMs": 842,
    "Vel": 80
  },
  {
    "TimeMs": 159666,
    "Key": 91,
    "DurationMs": 104,
    "Vel": 80
  },
  {
    "TimeMs": 159777,
    "Key": 86,
    "DurationMs": 104,
    "Vel": 80
  },
  {
    "TimeMs": 159888,
    "Key": 94,
    "DurationMs": 315,
    "Vel": 80
  },
  {
    "TimeMs": 159999,
    "Key": 91,
    "DurationMs": 104,
    "Vel": 80
  },
  {
    "TimeMs": 160110,
    "Key": 86,
    "DurationMs": 104,
    "Vel": 80
  },
  {
    "TimeMs": 160222,
    "Key": 94,
    "DurationMs": 210,
    "Vel": 80
  },
  {
    "TimeMs": 160333,
    "Key": 86,
    "DurationMs": 104,
    "Vel": 80
  },
  {
    "TimeMs": 160444,
    "Key": 93,
    "DurationMs": 315,
    "Vel": 80
  },
  {
    "TimeMs": 160445,
    "Key": 53,
    "DurationMs": 315,
    "Vel": 80
  },
  {
    "TimeMs": 160446,
    "Key": 60,
    "DurationMs": 315,
    "Vel": 80
  },
  {
    "TimeMs": 160447,
    "Key": 65,
    "DurationMs": 315,
    "Vel": 80
  },
  {
    "TimeMs": 160555,
    "Key": 89,
    "DurationMs": 104,
    "Vel": 80
  },
  {
    "TimeMs": 160666,
    "Key": 84,
    "DurationMs": 104,
    "Vel": 80
  },
  {
    "TimeMs": 160777,
    "Key": 94,
    "DurationMs": 315,
    "Vel": 80
  },
  {
    "TimeMs": 160778,
    "Key": 65,
    "DurationMs": 315,
    "Vel": 80
  },
  {
    "TimeMs": 160888,
    "Key": 89,
    "DurationMs": 104,
    "Vel": 80
  },
  {
    "TimeMs": 160999,
    "Key": 84,
    "DurationMs": 104,
    "Vel": 80
  },
  {
    "TimeMs": 161110,
    "Key": 93,
    "DurationMs": 421,
    "Vel": 80
  },
  {
    "TimeMs": 161111,
    "Key": 65,
    "DurationMs": 209,
    "Vel": 80
  },
  {
    "TimeMs": 161222,
    "Key": 84,
    "DurationMs": 104,
    "Vel": 80
  },
  {
    "TimeMs": 161333,
    "Key": 84,
    "DurationMs": 104,
    "Vel": 80
  },
  {
    "TimeMs": 161334,
    "Key": 72,
    "DurationMs": 842,
    "Vel": 80
  },
  {
    "TimeMs": 161335,
    "Key": 77,
    "DurationMs": 842,
    "Vel": 80
  },
  {
    "TimeMs": 161335,
    "Key": 81,
    "DurationMs": 842,
    "Vel": 80
  },
  {
    "TimeMs": 161444,
    "Key": 84,
    "DurationMs": 104,
    "Vel": 80
  },
  {
    "TimeMs": 161555,
    "Key": 89,
    "DurationMs": 421,
    "Vel": 80
  },
  {
    "TimeMs": 161666,
    "Key": 84,
    "DurationMs": 104,
    "Vel": 80
  },
  {
    "TimeMs": 161777,
    "Key": 84,
    "DurationMs": 104,
    "Vel": 80
  },
  {
    "TimeMs": 161888,
    "Key": 84,
    "DurationMs": 104,
    "Vel": 80
  },
  {
    "TimeMs": 161999,
    "Key": 89,
    "DurationMs": 104,
    "Vel": 80
  },
  {
    "TimeMs": 162110,
    "Key": 93,
    "DurationMs": 104,
    "Vel": 80
  },
  {
    "TimeMs": 162222,
    "Key": 98,
    "DurationMs": 315,
    "Vel": 80
  },
  {
    "TimeMs": 162222,
    "Key": 55,
    "DurationMs": 315,
    "Vel": 80
  },
  {
    "TimeMs": 162223,
    "Key": 62,
    "DurationMs": 315,
    "Vel": 80
  },
  {
    "TimeMs": 162224,
    "Key": 67,
    "DurationMs": 315,
    "Vel": 80
  },
  {
    "TimeMs": 162333,
    "Key": 91,
    "DurationMs": 104,
    "Vel": 80
  },
  {
    "TimeMs": 162444,
    "Key": 86,
    "DurationMs": 104,
    "Vel": 80
  },
  {
    "TimeMs": 162555,
    "Key": 96,
    "DurationMs": 315,
    "Vel": 80
  },
  {
    "TimeMs": 162556,
    "Key": 67,
    "DurationMs": 315,
    "Vel": 80
  },
  {
    "TimeMs": 162666,
    "Key": 91,
    "DurationMs": 104,
    "Vel": 80
  },
  {
    "TimeMs": 162777,
    "Key": 86,
    "DurationMs": 104,
    "Vel": 80
  },
  {
    "TimeMs": 162888,
    "Key": 96,
    "DurationMs": 210,
    "Vel": 80
  },
  {
    "TimeMs": 162889,
    "Key": 67,
    "DurationMs": 210,
    "Vel": 80
  },
  {
    "TimeMs": 162999,
    "Key": 86,
    "DurationMs": 104,
    "Vel": 80
  },
  {
    "TimeMs": 163110,
    "Key": 96,
    "DurationMs": 315,
    "Vel": 80
  },
  {
    "TimeMs": 163111,
    "Key": 74,
    "DurationMs": 842,
    "Vel": 80
  },
  {
    "TimeMs": 163112,
    "Key": 79,
    "DurationMs": 842,
    "Vel": 80
  },
  {
    "TimeMs": 163113,
    "Key": 82,
    "DurationMs": 842,
    "Vel": 80
  },
  {
    "TimeMs": 163222,
    "Key": 91,
    "DurationMs": 104,
    "Vel": 80
  },
  {
    "TimeMs": 163333,
    "Key": 86,
    "DurationMs": 104,
    "Vel": 80
  },
  {
    "TimeMs": 163444,
    "Key": 94,
    "DurationMs": 315,
    "Vel": 80
  },
  {
    "TimeMs": 163555,
    "Key": 91,
    "DurationMs": 104,
    "Vel": 80
  },
  {
    "TimeMs": 163666,
    "Key": 86,
    "DurationMs": 104,
    "Vel": 80
  },
  {
    "TimeMs": 163777,
    "Key": 94,
    "DurationMs": 210,
    "Vel": 80
  },
  {
    "TimeMs": 163888,
    "Key": 86,
    "DurationMs": 104,
    "Vel": 80
  },
  {
    "TimeMs": 163999,
    "Key": 93,
    "DurationMs": 315,
    "Vel": 80
  },
  {
    "TimeMs": 164000,
    "Key": 50,
    "DurationMs": 315,
    "Vel": 80
  },
  {
    "TimeMs": 164001,
    "Key": 57,
    "DurationMs": 315,
    "Vel": 80
  },
  {
    "TimeMs": 164002,
    "Key": 62,
    "DurationMs": 315,
    "Vel": 80
  },
  {
    "TimeMs": 164110,
    "Key": 89,
    "DurationMs": 104,
    "Vel": 80
  },
  {
    "TimeMs": 164222,
    "Key": 86,
    "DurationMs": 104,
    "Vel": 80
  },
  {
    "TimeMs": 164333,
    "Key": 94,
    "DurationMs": 315,
    "Vel": 80
  },
  {
    "TimeMs": 164334,
    "Key": 62,
    "DurationMs": 315,
    "Vel": 80
  },
  {
    "TimeMs": 164444,
    "Key": 89,
    "DurationMs": 104,
    "Vel": 80
  },
  {
    "TimeMs": 164555,
    "Key": 86,
    "DurationMs": 104,
    "Vel": 80
  },
  {
    "TimeMs": 164666,
    "Key": 101,
    "DurationMs": 421,
    "Vel": 80
  },
  {
    "TimeMs": 164667,
    "Key": 62,
    "DurationMs": 209,
    "Vel": 80
  },
  {
    "TimeMs": 164777,
    "Key": 86,
    "DurationMs": 104,
    "Vel": 80
  },
  {
    "TimeMs": 164888,
    "Key": 86,
    "DurationMs": 104,
    "Vel": 80
  },
  {
    "TimeMs": 164889,
    "Key": 74,
    "DurationMs": 842,
    "Vel": 80
  },
  {
    "TimeMs": 164890,
    "Key": 77,
    "DurationMs": 842,
    "Vel": 80
  },
  {
    "TimeMs": 164891,
    "Key": 81,
    "DurationMs": 842,
    "Vel": 80
  },
  {
    "TimeMs": 164999,
    "Key": 86,
    "DurationMs": 104,
    "Vel": 80
  },
  {
    "TimeMs": 165110,
    "Key": 93,
    "DurationMs": 421,
    "Vel": 80
  },
  {
    "TimeMs": 165222,
    "Key": 86,
    "DurationMs": 104,
    "Vel": 80
  },
  {
    "TimeMs": 165333,
    "Key": 86,
    "DurationMs": 104,
    "Vel": 80
  },
  {
    "TimeMs": 165444,
    "Key": 86,
    "DurationMs": 104,
    "Vel": 80
  },
  {
    "TimeMs": 165555,
    "Key": 89,
    "DurationMs": 104,
    "Vel": 80
  },
  {
    "TimeMs": 165666,
    "Key": 94,
    "DurationMs": 104,
    "Vel": 80
  },
  {
    "TimeMs": 165777,
    "Key": 103,
    "DurationMs": 315,
    "Vel": 80
  },
  {
    "TimeMs": 165778,
    "Key": 51,
    "DurationMs": 315,
    "Vel": 80
  },
  {
    "TimeMs": 165779,
    "Key": 58,
    "DurationMs": 315,
    "Vel": 80
  },
  {
    "TimeMs": 165780,
    "Key": 63,
    "DurationMs": 315,
    "Vel": 80
  },
  {
    "TimeMs": 165888,
    "Key": 94,
    "DurationMs": 104,
    "Vel": 80
  },
  {
    "TimeMs": 165999,
    "Key": 89,
    "DurationMs": 104,
    "Vel": 80
  },
  {
    "TimeMs": 166110,
    "Key": 101,
    "DurationMs": 315,
    "Vel": 80
  },
  {
    "TimeMs": 166111,
    "Key": 63,
    "DurationMs": 315,
    "Vel": 80
  },
  {
    "TimeMs": 166222,
    "Key": 94,
    "DurationMs": 104,
    "Vel": 80
  },
  {
    "TimeMs": 166333,
    "Key": 89,
    "DurationMs": 104,
    "Vel": 80
  },
  {
    "TimeMs": 166444,
    "Key": 98,
    "DurationMs": 421,
    "Vel": 80
  },
  {
    "TimeMs": 166445,
    "Key": 63,
    "DurationMs": 209,
    "Vel": 80
  },
  {
    "TimeMs": 166555,
    "Key": 87,
    "DurationMs": 104,
    "Vel": 80
  },
  {
    "TimeMs": 166666,
    "Key": 87,
    "DurationMs": 104,
    "Vel": 80
  },
  {
    "TimeMs": 166667,
    "Key": 70,
    "DurationMs": 842,
    "Vel": 80
  },
  {
    "TimeMs": 166668,
    "Key": 75,
    "DurationMs": 842,
    "Vel": 80
  },
  {
    "TimeMs": 166669,
    "Key": 79,
    "DurationMs": 842,
    "Vel": 80
  },
  {
    "TimeMs": 166777,
    "Key": 87,
    "DurationMs": 104,
    "Vel": 80
  },
  {
    "TimeMs": 166888,
    "Key": 94,
    "DurationMs": 421,
    "Vel": 80
  },
  {
    "TimeMs": 166999,
    "Key": 87,
    "DurationMs": 104,
    "Vel": 80
  },
  {
    "TimeMs": 167110,
    "Key": 87,
    "DurationMs": 104,
    "Vel": 80
  },
  {
    "TimeMs": 167222,
    "Key": 87,
    "DurationMs": 104,
    "Vel": 80
  },
  {
    "TimeMs": 167333,
    "Key": 94,
    "DurationMs": 210,
    "Vel": 80
  },
  {
    "TimeMs": 167444,
    "Key": 87,
    "DurationMs": 104,
    "Vel": 80
  },
  {
    "TimeMs": 167555,
    "Key": 94,
    "DurationMs": 421,
    "Vel": 80
  },
  {
    "TimeMs": 167556,
    "Key": 53,
    "DurationMs": 314,
    "Vel": 80
  },
  {
    "TimeMs": 167557,
    "Key": 60,
    "DurationMs": 314,
    "Vel": 80
  },
  {
    "TimeMs": 167558,
    "Key": 65,
    "DurationMs": 314,
    "Vel": 80
  },
  {
    "TimeMs": 167666,
    "Key": 89,
    "DurationMs": 104,
    "Vel": 80
  },
  {
    "TimeMs": 167777,
    "Key": 84,
    "DurationMs": 104,
    "Vel": 80
  },
  {
    "TimeMs": 167888,
    "Key": 84,
    "DurationMs": 104,
    "Vel": 80
  },
  {
    "TimeMs": 167889,
    "Key": 65,
    "DurationMs": 314,
    "Vel": 80
  },
  {
    "TimeMs": 167999,
    "Key": 93,
    "DurationMs": 210,
    "Vel": 80
  },
  {
    "TimeMs": 168110,
    "Key": 84,
    "DurationMs": 104,
    "Vel": 80
  },
  {
    "TimeMs": 168222,
    "Key": 91,
    "DurationMs": 421,
    "Vel": 80
  },
  {
    "TimeMs": 168222,
    "Key": 65,
    "DurationMs": 209,
    "Vel": 80
  },
  {
    "TimeMs": 168333,
    "Key": 84,
    "DurationMs": 104,
    "Vel": 80
  },
  {
    "TimeMs": 168444,
    "Key": 84,
    "DurationMs": 104,
    "Vel": 80
  },
  {
    "TimeMs": 168445,
    "Key": 72,
    "DurationMs": 842,
    "Vel": 80
  },
  {
    "TimeMs": 168446,
    "Key": 77,
    "DurationMs": 842,
    "Vel": 80
  },
  {
    "TimeMs": 168447,
    "Key": 81,
    "DurationMs": 842,
    "Vel": 80
  },
  {
    "TimeMs": 168555,
    "Key": 84,
    "DurationMs": 104,
    "Vel": 80
  },
  {
    "TimeMs": 168666,
    "Key": 93,
    "DurationMs": 421,
    "Vel": 80
  },
  {
    "TimeMs": 168777,
    "Key": 84,
    "DurationMs": 104,
    "Vel": 80
  },
  {
    "TimeMs": 168888,
    "Key": 84,
    "DurationMs": 104,
    "Vel": 80
  },
  {
    "TimeMs": 168999,
    "Key": 84,
    "DurationMs": 104,
    "Vel": 80
  },
  {
    "TimeMs": 169110,
    "Key": 82,
    "DurationMs": 1476,
    "Vel": 80
  },
  {
    "TimeMs": 169111,
    "Key": 86,
    "DurationMs": 1476,
    "Vel": 80
  },
  {
    "TimeMs": 169112,
    "Key": 94,
    "DurationMs": 1476,
    "Vel": 80
  },
  {
    "TimeMs": 169333,
    "Key": 55,
    "DurationMs": 104,
    "Vel": 64
  },
  {
    "TimeMs": 169334,
    "Key": 62,
    "DurationMs": 104,
    "Vel": 64
  },
  {
    "TimeMs": 169444,
    "Key": 67,
    "DurationMs": 104,
    "Vel": 64
  },
  {
    "TimeMs": 169555,
    "Key": 70,
    "DurationMs": 104,
    "Vel": 64
  },
  {
    "TimeMs": 169666,
    "Key": 62,
    "DurationMs": 104,
    "Vel": 64
  },
  {
    "TimeMs": 169777,
    "Key": 67,
    "DurationMs": 104,
    "Vel": 64
  },
  {
    "TimeMs": 169888,
    "Key": 70,
    "DurationMs": 104,
    "Vel": 64
  },
  {
    "TimeMs": 169999,
    "Key": 62,
    "DurationMs": 104,
    "Vel": 64
  },
  {
    "TimeMs": 170110,
    "Key": 67,
    "DurationMs": 104,
    "Vel": 64
  },
  {
    "TimeMs": 170222,
    "Key": 74,
    "DurationMs": 104,
    "Vel": 64
  },
  {
    "TimeMs": 170333,
    "Key": 62,
    "DurationMs": 104,
    "Vel": 64
  },
  {
    "TimeMs": 170444,
    "Key": 67,
    "DurationMs": 104,
    "Vel": 64
  },
  {
    "TimeMs": 170555,
    "Key": 70,
    "DurationMs": 104,
    "Vel": 64
  },
  {
    "TimeMs": 170666,
    "Key": 62,
    "DurationMs": 104,
    "Vel": 64
  },
  {
    "TimeMs": 170777,
    "Key": 67,
    "DurationMs": 104,
    "Vel": 64
  },
  {
    "TimeMs": 170888,
    "Key": 82,
    "DurationMs": 210,
    "Vel": 64
  },
  {
    "TimeMs": 170889,
    "Key": 70,
    "DurationMs": 103,
    "Vel": 64
  },
  {
    "TimeMs": 170999,
    "Key": 62,
    "DurationMs": 104,
    "Vel": 64
  },
  {
    "TimeMs": 171110,
    "Key": 74,
    "DurationMs": 315,
    "Vel": 64
  },
  {
    "TimeMs": 171111,
    "Key": 77,
    "DurationMs": 315,
    "Vel": 64
  },
  {
    "TimeMs": 171112,
    "Key": 81,
    "DurationMs": 315,
    "Vel": 64
  },
  {
    "TimeMs": 171113,
    "Key": 50,
    "DurationMs": 101,
    "Vel": 64
  },
  {
    "TimeMs": 171114,
    "Key": 57,
    "DurationMs": 101,
    "Vel": 64
  },
  {
    "TimeMs": 171222,
    "Key": 62,
    "DurationMs": 104,
    "Vel": 64
  },
  {
    "TimeMs": 171333,
    "Key": 65,
    "DurationMs": 104,
    "Vel": 64
  },
  {
    "TimeMs": 171444,
    "Key": 82,
    "DurationMs": 315,
    "Vel": 64
  },
  {
    "TimeMs": 171445,
    "Key": 57,
    "DurationMs": 103,
    "Vel": 64
  },
  {
    "TimeMs": 171555,
    "Key": 62,
    "DurationMs": 104,
    "Vel": 64
  },
  {
    "TimeMs": 171666,
    "Key": 65,
    "DurationMs": 104,
    "Vel": 64
  },
  {
    "TimeMs": 171777,
    "Key": 81,
    "DurationMs": 421,
    "Vel": 64
  },
  {
    "TimeMs": 171778,
    "Key": 57,
    "DurationMs": 103,
    "Vel": 64
  },
  {
    "TimeMs": 171888,
    "Key": 62,
    "DurationMs": 104,
    "Vel": 64
  },
  {
    "TimeMs": 171999,
    "Key": 74,
    "DurationMs": 104,
    "Vel": 64
  },
  {
    "TimeMs": 172110,
    "Key": 69,
    "DurationMs": 104,
    "Vel": 64
  },
  {
    "TimeMs": 172222,
    "Key": 77,
    "DurationMs": 421,
    "Vel": 64
  },
  {
    "TimeMs": 172222,
    "Key": 65,
    "DurationMs": 103,
    "Vel": 64
  },
  {
    "TimeMs": 172333,
    "Key": 62,
    "DurationMs": 104,
    "Vel": 64
  },
  {
    "TimeMs": 172444,
    "Key": 57,
    "DurationMs": 104,
    "Vel": 64
  },
  {
    "TimeMs": 172555,
    "Key": 53,
    "DurationMs": 104,
    "Vel": 64
  },
  {
    "TimeMs": 172666,
    "Key": 74,
    "DurationMs": 210,
    "Vel": 64
  },
  {
    "TimeMs": 172667,
    "Key": 50,
    "DurationMs": 210,
    "Vel": 64
  },
  {
    "TimeMs": 172888,
    "Key": 75,
    "DurationMs": 210,
    "Vel": 64
  },
  {
    "TimeMs": 172889,
    "Key": 79,
    "DurationMs": 210,
    "Vel": 64
  },
  {
    "TimeMs": 172890,
    "Key": 86,
    "DurationMs": 210,
    "Vel": 64
  },
  {
    "TimeMs": 172891,
    "Key": 51,
    "DurationMs": 101,
    "Vel": 64
  },
  {
    "TimeMs": 172892,
    "Key": 58,
    "DurationMs": 101,
    "Vel": 64
  },
  {
    "TimeMs": 172999,
    "Key": 63,
    "DurationMs": 104,
    "Vel": 64
  },
  {
    "TimeMs": 173110,
    "Key": 84,
    "DurationMs": 104,
    "Vel": 64
  },
  {
    "TimeMs": 173111,
    "Key": 63,
    "DurationMs": 104,
    "Vel": 64
  },
  {
    "TimeMs": 173222,
    "Key": 75,
    "DurationMs": 315,
    "Vel": 64
  },
  {
    "TimeMs": 173222,
    "Key": 79,
    "DurationMs": 315,
    "Vel": 64
  },
  {
    "TimeMs": 173223,
    "Key": 84,
    "DurationMs": 315,
    "Vel": 64
  },
  {
    "TimeMs": 173224,
    "Key": 63,
    "DurationMs": 101,
    "Vel": 64
  },
  {
    "TimeMs": 173333,
    "Key": 67,
    "DurationMs": 104,
    "Vel": 64
  },
  {
    "TimeMs": 173334,
    "Key": 70,
    "DurationMs": 104,
    "Vel": 64
  },
  {
    "TimeMs": 173444,
    "Key": 63,
    "DurationMs": 104,
    "Vel": 64
  },
  {
    "TimeMs": 173555,
    "Key": 84,
    "DurationMs": 210,
    "Vel": 64
  },
  {
    "TimeMs": 173556,
    "Key": 63,
    "DurationMs": 103,
    "Vel": 64
  },
  {
    "TimeMs": 173666,
    "Key": 63,
    "DurationMs": 104,
    "Vel": 64
  },
  {
    "TimeMs": 173777,
    "Key": 75,
    "DurationMs": 210,
    "Vel": 64
  },
  {
    "TimeMs": 173778,
    "Key": 79,
    "DurationMs": 210,
    "Vel": 64
  },
  {
    "TimeMs": 173779,
    "Key": 84,
    "DurationMs": 210,
    "Vel": 64
  },
  {
    "TimeMs": 173780,
    "Key": 51,
    "DurationMs": 101,
    "Vel": 64
  },
  {
    "TimeMs": 173781,
    "Key": 58,
    "DurationMs": 101,
    "Vel": 64
  },
  {
    "TimeMs": 173888,
    "Key": 63,
    "DurationMs": 104,
    "Vel": 64
  },
  {
    "TimeMs": 173999,
    "Key": 82,
    "DurationMs": 104,
    "Vel": 64
  },
  {
    "TimeMs": 174000,
    "Key": 63,
    "DurationMs": 104,
    "Vel": 64
  },
  {
    "TimeMs": 174110,
    "Key": 75,
    "DurationMs": 315,
    "Vel": 64
  },
  {
    "TimeMs": 174111,
    "Key": 79,
    "DurationMs": 315,
    "Vel": 64
  },
  {
    "TimeMs": 174112,
    "Key": 82,
    "DurationMs": 315,
    "Vel": 64
  },
  {
    "TimeMs": 174113,
    "Key": 63,
    "DurationMs": 101,
    "Vel": 64
  },
  {
    "TimeMs": 174222,
    "Key": 67,
    "DurationMs": 104,
    "Vel": 64
  },
  {
    "TimeMs": 174222,
    "Key": 70,
    "DurationMs": 104,
    "Vel": 64
  },
  {
    "TimeMs": 174333,
    "Key": 63,
    "DurationMs": 104,
    "Vel": 64
  },
  {
    "TimeMs": 174444,
    "Key": 82,
    "DurationMs": 210,
    "Vel": 64
  },
  {
    "TimeMs": 174445,
    "Key": 63,
    "DurationMs": 103,
    "Vel": 64
  },
  {
    "TimeMs": 174555,
    "Key": 63,
    "DurationMs": 104,
    "Vel": 64
  },
  {
    "TimeMs": 174666,
    "Key": 72,
    "DurationMs": 315,
    "Vel": 80
  },
  {
    "TimeMs": 174667,
    "Key": 77,
    "DurationMs": 315,
    "Vel": 80
  },
  {
    "TimeMs": 174668,
    "Key": 81,
    "DurationMs": 315,
    "Vel": 80
  },
  {
    "TimeMs": 174669,
    "Key": 53,
    "DurationMs": 101,
    "Vel": 80
  },
  {
    "TimeMs": 174670,
    "Key": 60,
    "DurationMs": 101,
    "Vel": 80
  },
  {
    "TimeMs": 174777,
    "Key": 65,
    "DurationMs": 104,
    "Vel": 80
  },
  {
    "TimeMs": 174888,
    "Key": 65,
    "DurationMs": 104,
    "Vel": 80
  },
  {
    "TimeMs": 174999,
    "Key": 82,
    "DurationMs": 315,
    "Vel": 80
  },
  {
    "TimeMs": 175000,
    "Key": 65,
    "DurationMs": 103,
    "Vel": 80
  },
  {
    "TimeMs": 175110,
    "Key": 69,
    "DurationMs": 104,
    "Vel": 80
  },
  {
    "TimeMs": 175111,
    "Key": 72,
    "DurationMs": 104,
    "Vel": 80
  },
  {
    "TimeMs": 175222,
    "Key": 65,
    "DurationMs": 104,
    "Vel": 80
  },
  {
    "TimeMs": 175333,
    "Key": 72,
    "DurationMs": 421,
    "Vel": 80
  },
  {
    "TimeMs": 175334,
    "Key": 77,
    "DurationMs": 421,
    "Vel": 80
  },
  {
    "TimeMs": 175335,
    "Key": 81,
    "DurationMs": 421,
    "Vel": 80
  },
  {
    "TimeMs": 175335,
    "Key": 65,
    "DurationMs": 101,
    "Vel": 80
  },
  {
    "TimeMs": 175444,
    "Key": 65,
    "DurationMs": 104,
    "Vel": 80
  },
  {
    "TimeMs": 175555,
    "Key": 53,
    "DurationMs": 104,
    "Vel": 80
  },
  {
    "TimeMs": 175556,
    "Key": 60,
    "DurationMs": 104,
    "Vel": 80
  },
  {
    "TimeMs": 175666,
    "Key": 65,
    "DurationMs": 104,
    "Vel": 80
  },
  {
    "TimeMs": 175777,
    "Key": 77,
    "DurationMs": 421,
    "Vel": 80
  },
  {
    "TimeMs": 175778,
    "Key": 65,
    "DurationMs": 103,
    "Vel": 80
  },
  {
    "TimeMs": 175888,
    "Key": 65,
    "DurationMs": 104,
    "Vel": 80
  },
  {
    "TimeMs": 175999,
    "Key": 69,
    "DurationMs": 104,
    "Vel": 80
  },
  {
    "TimeMs": 176000,
    "Key": 72,
    "DurationMs": 104,
    "Vel": 80
  },
  {
    "TimeMs": 176110,
    "Key": 65,
    "DurationMs": 104,
    "Vel": 80
  },
  {
    "TimeMs": 176222,
    "Key": 74,
    "DurationMs": 210,
    "Vel": 80
  },
  {
    "TimeMs": 176222,
    "Key": 65,
    "DurationMs": 103,
    "Vel": 80
  },
  {
    "TimeMs": 176333,
    "Key": 65,
    "DurationMs": 104,
    "Vel": 80
  },
  {
    "TimeMs": 176444,
    "Key": 79,
    "DurationMs": 210,
    "Vel": 88
  },
  {
    "TimeMs": 176445,
    "Key": 82,
    "DurationMs": 210,
    "Vel": 88
  },
  {
    "TimeMs": 176446,
    "Key": 86,
    "DurationMs": 210,
    "Vel": 88
  },
  {
    "TimeMs": 176447,
    "Key": 55,
    "DurationMs": 101,
    "Vel": 88
  },
  {
    "TimeMs": 176447,
    "Key": 62,
    "DurationMs": 101,
    "Vel": 88
  },
  {
    "TimeMs": 176555,
    "Key": 67,
    "DurationMs": 104,
    "Vel": 88
  },
  {
    "TimeMs": 176666,
    "Key": 84,
    "DurationMs": 104,
    "Vel": 88
  },
  {
    "TimeMs": 176667,
    "Key": 67,
    "DurationMs": 104,
    "Vel": 88
  },
  {
    "TimeMs": 176777,
    "Key": 79,
    "DurationMs": 315,
    "Vel": 88
  },
  {
    "TimeMs": 176778,
    "Key": 82,
    "DurationMs": 315,
    "Vel": 88
  },
  {
    "TimeMs": 176779,
    "Key": 84,
    "DurationMs": 315,
    "Vel": 88
  },
  {
    "TimeMs": 176780,
    "Key": 67,
    "DurationMs": 101,
    "Vel": 88
  },
  {
    "TimeMs": 176888,
    "Key": 70,
    "DurationMs": 104,
    "Vel": 88
  },
  {
    "TimeMs": 176889,
    "Key": 74,
    "DurationMs": 104,
    "Vel": 88
  },
  {
    "TimeMs": 176999,
    "Key": 67,
    "DurationMs": 104,
    "Vel": 88
  },
  {
    "TimeMs": 177110,
    "Key": 84,
    "DurationMs": 210,
    "Vel": 88
  },
  {
    "TimeMs": 177111,
    "Key": 67,
    "DurationMs": 103,
    "Vel": 88
  },
  {
    "TimeMs": 177222,
    "Key": 67,
    "DurationMs": 104,
    "Vel": 88
  },
  {
    "TimeMs": 177333,
    "Key": 79,
    "DurationMs": 210,
    "Vel": 88
  },
  {
    "TimeMs": 177334,
    "Key": 82,
    "DurationMs": 210,
    "Vel": 88
  },
  {
    "TimeMs": 177335,
    "Key": 84,
    "DurationMs": 210,
    "Vel": 88
  },
  {
    "TimeMs": 177335,
    "Key": 55,
    "DurationMs": 101,
    "Vel": 88
  },
  {
    "TimeMs": 177336,
    "Key": 62,
    "DurationMs": 101,
    "Vel": 88
  },
  {
    "TimeMs": 177444,
    "Key": 67,
    "DurationMs": 104,
    "Vel": 88
  },
  {
    "TimeMs": 177555,
    "Key": 82,
    "DurationMs": 104,
    "Vel": 88
  },
  {
    "TimeMs": 177556,
    "Key": 67,
    "DurationMs": 104,
    "Vel": 88
  },
  {
    "TimeMs": 177666,
    "Key": 79,
    "DurationMs": 315,
    "Vel": 88
  },
  {
    "TimeMs": 177667,
    "Key": 82,
    "DurationMs": 315,
    "Vel": 88
  },
  {
    "TimeMs": 177668,
    "Key": 67,
    "DurationMs": 102,
    "Vel": 88
  },
  {
    "TimeMs": 177777,
    "Key": 70,
    "DurationMs": 104,
    "Vel": 88
  },
  {
    "TimeMs": 177778,
    "Key": 74,
    "DurationMs": 104,
    "Vel": 88
  },
  {
    "TimeMs": 177888,
    "Key": 67,
    "DurationMs": 104,
    "Vel": 88
  },
  {
    "TimeMs": 177999,
    "Key": 82,
    "DurationMs": 210,
    "Vel": 88
  },
  {
    "TimeMs": 178000,
    "Key": 67,
    "DurationMs": 103,
    "Vel": 88
  },
  {
    "TimeMs": 178110,
    "Key": 67,
    "DurationMs": 104,
    "Vel": 96
  },
  {
    "TimeMs": 178222,
    "Key": 74,
    "DurationMs": 315,
    "Vel": 96
  },
  {
    "TimeMs": 178222,
    "Key": 77,
    "DurationMs": 315,
    "Vel": 96
  },
  {
    "TimeMs": 178223,
    "Key": 81,
    "DurationMs": 315,
    "Vel": 96
  },
  {
    "TimeMs": 178224,
    "Key": 50,
    "DurationMs": 101,
    "Vel": 96
  },
  {
    "TimeMs": 178225,
    "Key": 57,
    "DurationMs": 101,
    "Vel": 96
  },
  {
    "TimeMs": 178333,
    "Key": 62,
    "DurationMs": 104,
    "Vel": 96
  },
  {
    "TimeMs": 178444,
    "Key": 62,
    "DurationMs": 104,
    "Vel": 96
  },
  {
    "TimeMs": 178555,
    "Key": 82,
    "DurationMs": 315,
    "Vel": 96
  },
  {
    "TimeMs": 178556,
    "Key": 62,
    "DurationMs": 103,
    "Vel": 96
  },
  {
    "TimeMs": 178666,
    "Key": 65,
    "DurationMs": 104,
    "Vel": 96
  },
  {
    "TimeMs": 178667,
    "Key": 69,
    "DurationMs": 104,
    "Vel": 96
  },
  {
    "TimeMs": 178777,
    "Key": 62,
    "DurationMs": 104,
    "Vel": 96
  },
  {
    "TimeMs": 178888,
    "Key": 81,
    "DurationMs": 421,
    "Vel": 96
  },
  {
    "TimeMs": 178889,
    "Key": 86,
    "DurationMs": 421,
    "Vel": 96
  },
  {
    "TimeMs": 178890,
    "Key": 89,
    "DurationMs": 421,
    "Vel": 96
  },
  {
    "TimeMs": 178891,
    "Key": 62,
    "DurationMs": 101,
    "Vel": 96
  },
  {
    "TimeMs": 178999,
    "Key": 62,
    "DurationMs": 104,
    "Vel": 96
  },
  {
    "TimeMs": 179110,
    "Key": 50,
    "DurationMs": 104,
    "Vel": 96
  },
  {
    "TimeMs": 179111,
    "Key": 57,
    "DurationMs": 104,
    "Vel": 96
  },
  {
    "TimeMs": 179222,
    "Key": 62,
    "DurationMs": 104,
    "Vel": 96
  },
  {
    "TimeMs": 179333,
    "Key": 81,
    "DurationMs": 421,
    "Vel": 96
  },
  {
    "TimeMs": 179334,
    "Key": 62,
    "DurationMs": 103,
    "Vel": 96
  },
  {
    "TimeMs": 179444,
    "Key": 62,
    "DurationMs": 104,
    "Vel": 96
  },
  {
    "TimeMs": 179555,
    "Key": 65,
    "DurationMs": 104,
    "Vel": 96
  },
  {
    "TimeMs": 179556,
    "Key": 69,
    "DurationMs": 104,
    "Vel": 96
  },
  {
    "TimeMs": 179666,
    "Key": 62,
    "DurationMs": 104,
    "Vel": 96
  },
  {
    "TimeMs": 179777,
    "Key": 82,
    "DurationMs": 210,
    "Vel": 96
  },
  {
    "TimeMs": 179778,
    "Key": 62,
    "DurationMs": 103,
    "Vel": 96
  },
  {
    "TimeMs": 179888,
    "Key": 62,
    "DurationMs": 104,
    "Vel": 96
  },
  {
    "TimeMs": 179999,
    "Key": 82,
    "DurationMs": 315,
    "Vel": 112
  },
  {
    "TimeMs": 180000,
    "Key": 87,
    "DurationMs": 315,
    "Vel": 112
  },
  {
    "TimeMs": 180001,
    "Key": 91,
    "DurationMs": 315,
    "Vel": 112
  },
  {
    "TimeMs": 180002,
    "Key": 51,
    "DurationMs": 101,
    "Vel": 96
  },
  {
    "TimeMs": 180003,
    "Key": 58,
    "DurationMs": 101,
    "Vel": 96
  },
  {
    "TimeMs": 180110,
    "Key": 63,
    "DurationMs": 104,
    "Vel": 96
  },
  {
    "TimeMs": 180222,
    "Key": 63,
    "DurationMs": 104,
    "Vel": 96
  },
  {
    "TimeMs": 180333,
    "Key": 89,
    "DurationMs": 315,
    "Vel": 127
  },
  {
    "TimeMs": 180334,
    "Key": 63,
    "DurationMs": 103,
    "Vel": 96
  },
  {
    "TimeMs": 180444,
    "Key": 67,
    "DurationMs": 104,
    "Vel": 96
  },
  {
    "TimeMs": 180445,
    "Key": 70,
    "DurationMs": 104,
    "Vel": 96
  },
  {
    "TimeMs": 180555,
    "Key": 63,
    "DurationMs": 104,
    "Vel": 96
  },
  {
    "TimeMs": 180666,
    "Key": 82,
    "DurationMs": 421,
    "Vel": 96
  },
  {
    "TimeMs": 180667,
    "Key": 86,
    "DurationMs": 421,
    "Vel": 96
  },
  {
    "TimeMs": 180668,
    "Key": 63,
    "DurationMs": 102,
    "Vel": 96
  },
  {
    "TimeMs": 180777,
    "Key": 63,
    "DurationMs": 104,
    "Vel": 96
  },
  {
    "TimeMs": 180888,
    "Key": 51,
    "DurationMs": 104,
    "Vel": 96
  },
  {
    "TimeMs": 180889,
    "Key": 58,
    "DurationMs": 104,
    "Vel": 96
  },
  {
    "TimeMs": 180999,
    "Key": 63,
    "DurationMs": 104,
    "Vel": 96
  },
  {
    "TimeMs": 181110,
    "Key": 79,
    "DurationMs": 421,
    "Vel": 96
  },
  {
    "TimeMs": 181111,
    "Key": 82,
    "DurationMs": 421,
    "Vel": 96
  },
  {
    "TimeMs": 181112,
    "Key": 63,
    "DurationMs": 102,
    "Vel": 96
  },
  {
    "TimeMs": 181222,
    "Key": 63,
    "DurationMs": 104,
    "Vel": 96
  },
  {
    "TimeMs": 181333,
    "Key": 67,
    "DurationMs": 104,
    "Vel": 96
  },
  {
    "TimeMs": 181334,
    "Key": 70,
    "DurationMs": 104,
    "Vel": 96
  },
  {
    "TimeMs": 181444,
    "Key": 63,
    "DurationMs": 104,
    "Vel": 96
  },
  {
    "TimeMs": 181555,
    "Key": 82,
    "DurationMs": 210,
    "Vel": 96
  },
  {
    "TimeMs": 181556,
    "Key": 63,
    "DurationMs": 103,
    "Vel": 96
  },
  {
    "TimeMs": 181666,
    "Key": 63,
    "DurationMs": 104,
    "Vel": 96
  },
  {
    "TimeMs": 181777,
    "Key": 72,
    "DurationMs": 421,
    "Vel": 96
  },
  {
    "TimeMs": 181778,
    "Key": 77,
    "DurationMs": 421,
    "Vel": 96
  },
  {
    "TimeMs": 181779,
    "Key": 82,
    "DurationMs": 421,
    "Vel": 96
  },
  {
    "TimeMs": 181780,
    "Key": 53,
    "DurationMs": 101,
    "Vel": 96
  },
  {
    "TimeMs": 181888,
    "Key": 60,
    "DurationMs": 104,
    "Vel": 96
  },
  {
    "TimeMs": 181999,
    "Key": 65,
    "DurationMs": 104,
    "Vel": 96
  },
  {
    "TimeMs": 182110,
    "Key": 67,
    "DurationMs": 104,
    "Vel": 96
  },
  {
    "TimeMs": 182222,
    "Key": 81,
    "DurationMs": 210,
    "Vel": 96
  },
  {
    "TimeMs": 182222,
    "Key": 69,
    "DurationMs": 103,
    "Vel": 96
  },
  {
    "TimeMs": 182333,
    "Key": 72,
    "DurationMs": 104,
    "Vel": 96
  },
  {
    "TimeMs": 182444,
    "Key": 79,
    "DurationMs": 421,
    "Vel": 96
  },
  {
    "TimeMs": 182445,
    "Key": 77,
    "DurationMs": 103,
    "Vel": 96
  },
  {
    "TimeMs": 182555,
    "Key": 72,
    "DurationMs": 104,
    "Vel": 96
  },
  {
    "TimeMs": 182666,
    "Key": 69,
    "DurationMs": 104,
    "Vel": 96
  },
  {
    "TimeMs": 182777,
    "Key": 67,
    "DurationMs": 104,
    "Vel": 93
  },
  {
    "TimeMs": 182888,
    "Key": 81,
    "DurationMs": 421,
    "Vel": 90
  },
  {
    "TimeMs": 182889,
    "Key": 65,
    "DurationMs": 103,
    "Vel": 90
  },
  {
    "TimeMs": 182999,
    "Key": 60,
    "DurationMs": 104,
    "Vel": 87
  },
  {
    "TimeMs": 183110,
    "Key": 53,
    "DurationMs": 421,
    "Vel": 84
  },
  {
    "TimeMs": 183333,
    "Key": 70,
    "DurationMs": 315,
    "Vel": 78
  },
  {
    "TimeMs": 183334,
    "Key": 74,
    "DurationMs": 315,
    "Vel": 78
  },
  {
    "TimeMs": 183335,
    "Key": 79,
    "DurationMs": 315,
    "Vel": 78
  },
  {
    "TimeMs": 183335,
    "Key": 82,
    "DurationMs": 315,
    "Vel": 78
  },
  {
    "TimeMs": 183555,
    "Key": 39,
    "DurationMs": 315,
    "Vel": 72
  },
  {
    "TimeMs": 183556,
    "Key": 51,
    "DurationMs": 315,
    "Vel": 72
  },
  {
    "TimeMs": 183666,
    "Key": 62,
    "DurationMs": 104,
    "Vel": 72
  },
  {
    "TimeMs": 183777,
    "Key": 67,
    "DurationMs": 104,
    "Vel": 72
  },
  {
    "TimeMs": 183888,
    "Key": 70,
    "DurationMs": 104,
    "Vel": 72
  },
  {
    "TimeMs": 183889,
    "Key": 51,
    "DurationMs": 314,
    "Vel": 72
  },
  {
    "TimeMs": 183999,
    "Key": 62,
    "DurationMs": 104,
    "Vel": 72
  },
  {
    "TimeMs": 184110,
    "Key": 67,
    "DurationMs": 104,
    "Vel": 72
  },
  {
    "TimeMs": 184222,
    "Key": 70,
    "DurationMs": 104,
    "Vel": 72
  },
  {
    "TimeMs": 184222,
    "Key": 51,
    "DurationMs": 209,
    "Vel": 72
  },
  {
    "TimeMs": 184333,
    "Key": 62,
    "DurationMs": 104,
    "Vel": 72
  },
  {
    "TimeMs": 184444,
    "Key": 74,
    "DurationMs": 104,
    "Vel": 72
  },
  {
    "TimeMs": 184445,
    "Key": 55,
    "DurationMs": 842,
    "Vel": 72
  },
  {
    "TimeMs": 184446,
    "Key": 58,
    "DurationMs": 842,
    "Vel": 72
  },
  {
    "TimeMs": 184555,
    "Key": 62,
    "DurationMs": 104,
    "Vel": 72
  },
  {
    "TimeMs": 184666,
    "Key": 67,
    "DurationMs": 104,
    "Vel": 72
  },
  {
    "TimeMs": 184777,
    "Key": 70,
    "DurationMs": 104,
    "Vel": 72
  },
  {
    "TimeMs": 184888,
    "Key": 62,
    "DurationMs": 104,
    "Vel": 72
  },
  {
    "TimeMs": 184999,
    "Key": 67,
    "DurationMs": 104,
    "Vel": 72
  },
  {
    "TimeMs": 185110,
    "Key": 70,
    "DurationMs": 104,
    "Vel": 72
  },
  {
    "TimeMs": 185222,
    "Key": 62,
    "DurationMs": 104,
    "Vel": 72
  },
  {
    "TimeMs": 185333,
    "Key": 72,
    "DurationMs": 104,
    "Vel": 72
  },
  {
    "TimeMs": 185334,
    "Key": 41,
    "DurationMs": 314,
    "Vel": 72
  },
  {
    "TimeMs": 185334,
    "Key": 53,
    "DurationMs": 314,
    "Vel": 72
  },
  {
    "TimeMs": 185444,
    "Key": 60,
    "DurationMs": 104,
    "Vel": 72
  },
  {
    "TimeMs": 185555,
    "Key": 65,
    "DurationMs": 104,
    "Vel": 72
  },
  {
    "TimeMs": 185666,
    "Key": 70,
    "DurationMs": 104,
    "Vel": 72
  },
  {
    "TimeMs": 185667,
    "Key": 53,
    "DurationMs": 314,
    "Vel": 72
  },
  {
    "TimeMs": 185777,
    "Key": 60,
    "DurationMs": 104,
    "Vel": 72
  },
  {
    "TimeMs": 185888,
    "Key": 65,
    "DurationMs": 104,
    "Vel": 72
  },
  {
    "TimeMs": 185999,
    "Key": 70,
    "DurationMs": 104,
    "Vel": 72
  },
  {
    "TimeMs": 186000,
    "Key": 53,
    "DurationMs": 209,
    "Vel": 72
  },
  {
    "TimeMs": 186110,
    "Key": 60,
    "DurationMs": 104,
    "Vel": 72
  },
  {
    "TimeMs": 186222,
    "Key": 72,
    "DurationMs": 104,
    "Vel": 72
  },
  {
    "TimeMs": 186222,
    "Key": 57,
    "DurationMs": 104,
    "Vel": 72
  },
  {
    "TimeMs": 186223,
    "Key": 60,
    "DurationMs": 104,
    "Vel": 72
  },
  {
    "TimeMs": 186333,
    "Key": 60,
    "DurationMs": 104,
    "Vel": 72
  },
  {
    "TimeMs": 186444,
    "Key": 65,
    "DurationMs": 104,
    "Vel": 72
  },
  {
    "TimeMs": 186555,
    "Key": 70,
    "DurationMs": 104,
    "Vel": 72
  },
  {
    "TimeMs": 186666,
    "Key": 60,
    "DurationMs": 104,
    "Vel": 72
  },
  {
    "TimeMs": 186777,
    "Key": 65,
    "DurationMs": 104,
    "Vel": 72
  },
  {
    "TimeMs": 186888,
    "Key": 70,
    "DurationMs": 210,
    "Vel": 72
  },
  {
    "TimeMs": 186889,
    "Key": 82,
    "DurationMs": 210,
    "Vel": 72
  },
  {
    "TimeMs": 187110,
    "Key": 84,
    "DurationMs": 315,
    "Vel": 72
  },
  {
    "TimeMs": 187111,
    "Key": 43,
    "DurationMs": 315,
    "Vel": 72
  },
  {
    "TimeMs": 187112,
    "Key": 55,
    "DurationMs": 315,
    "Vel": 72
  },
  {
    "TimeMs": 187222,
    "Key": 77,
    "DurationMs": 104,
    "Vel": 72
  },
  {
    "TimeMs": 187333,
    "Key": 74,
    "DurationMs": 104,
    "Vel": 72
  },
  {
    "TimeMs": 187444,
    "Key": 82,
    "DurationMs": 315,
    "Vel": 72
  },
  {
    "TimeMs": 187445,
    "Key": 55,
    "DurationMs": 315,
    "Vel": 72
  },
  {
    "TimeMs": 187555,
    "Key": 77,
    "DurationMs": 104,
    "Vel": 72
  },
  {
    "TimeMs": 187666,
    "Key": 74,
    "DurationMs": 104,
    "Vel": 72
  },
  {
    "TimeMs": 187777,
    "Key": 84,
    "DurationMs": 421,
    "Vel": 72
  },
  {
    "TimeMs": 187778,
    "Key": 55,
    "DurationMs": 209,
    "Vel": 72
  },
  {
    "TimeMs": 187888,
    "Key": 77,
    "DurationMs": 104,
    "Vel": 72
  },
  {
    "TimeMs": 187999,
    "Key": 74,
    "DurationMs": 104,
    "Vel": 72
  },
  {
    "TimeMs": 188000,
    "Key": 58,
    "DurationMs": 842,
    "Vel": 72
  },
  {
    "TimeMs": 188001,
    "Key": 62,
    "DurationMs": 842,
    "Vel": 72
  },
  {
    "TimeMs": 188110,
    "Key": 77,
    "DurationMs": 104,
    "Vel": 72
  },
  {
    "TimeMs": 188222,
    "Key": 82,
    "DurationMs": 421,
    "Vel": 72
  },
  {
    "TimeMs": 188333,
    "Key": 77,
    "DurationMs": 104,
    "Vel": 72
  },
  {
    "TimeMs": 188444,
    "Key": 74,
    "DurationMs": 104,
    "Vel": 72
  },
  {
    "TimeMs": 188555,
    "Key": 77,
    "DurationMs": 104,
    "Vel": 72
  },
  {
    "TimeMs": 188666,
    "Key": 84,
    "DurationMs": 421,
    "Vel": 72
  },
  {
    "TimeMs": 188777,
    "Key": 77,
    "DurationMs": 104,
    "Vel": 72
  },
  {
    "TimeMs": 188888,
    "Key": 74,
    "DurationMs": 104,
    "Vel": 72
  },
  {
    "TimeMs": 188889,
    "Key": 38,
    "DurationMs": 314,
    "Vel": 72
  },
  {
    "TimeMs": 188890,
    "Key": 50,
    "DurationMs": 314,
    "Vel": 72
  },
  {
    "TimeMs": 188999,
    "Key": 77,
    "DurationMs": 104,
    "Vel": 72
  },
  {
    "TimeMs": 189110,
    "Key": 86,
    "DurationMs": 1265,
    "Vel": 72
  },
  {
    "TimeMs": 189222,
    "Key": 77,
    "DurationMs": 104,
    "Vel": 72
  },
  {
    "TimeMs": 189222,
    "Key": 50,
    "DurationMs": 314,
    "Vel": 72
  },
  {
    "TimeMs": 189333,
    "Key": 74,
    "DurationMs": 104,
    "Vel": 72
  },
  {
    "TimeMs": 189444,
    "Key": 77,
    "DurationMs": 104,
    "Vel": 72
  },
  {
    "TimeMs": 189555,
    "Key": 74,
    "DurationMs": 104,
    "Vel": 72
  },
  {
    "TimeMs": 189556,
    "Key": 50,
    "DurationMs": 209,
    "Vel": 72
  },
  {
    "TimeMs": 189666,
    "Key": 77,
    "DurationMs": 104,
    "Vel": 72
  },
  {
    "TimeMs": 189777,
    "Key": 74,
    "DurationMs": 104,
    "Vel": 88
  },
  {
    "TimeMs": 189778,
    "Key": 53,
    "DurationMs": 842,
    "Vel": 88
  },
  {
    "TimeMs": 189779,
    "Key": 57,
    "DurationMs": 842,
    "Vel": 88
  },
  {
    "TimeMs": 189780,
    "Key": 60,
    "DurationMs": 842,
    "Vel": 88
  },
  {
    "TimeMs": 189888,
    "Key": 77,
    "DurationMs": 104,
    "Vel": 87
  },
  {
    "TimeMs": 189999,
    "Key": 74,
    "DurationMs": 104,
    "Vel": 86
  },
  {
    "TimeMs": 190110,
    "Key": 77,
    "DurationMs": 104,
    "Vel": 84
  },
  {
    "TimeMs": 190222,
    "Key": 74,
    "DurationMs": 104,
    "Vel": 83
  },
  {
    "TimeMs": 190333,
    "Key": 77,
    "DurationMs": 104,
    "Vel": 82
  },
  {
    "TimeMs": 190444,
    "Key": 82,
    "DurationMs": 210,
    "Vel": 80
  },
  {
    "TimeMs": 190666,
    "Key": 82,
    "DurationMs": 315,
    "Vel": 88
  },
  {
    "TimeMs": 190667,
    "Key": 86,
    "DurationMs": 315,
    "Vel": 88
  },
  {
    "TimeMs": 190668,
    "Key": 91,
    "DurationMs": 315,
    "Vel": 88
  },
  {
    "TimeMs": 190669,
    "Key": 39,
    "DurationMs": 315,
    "Vel": 88
  },
  {
    "TimeMs": 190670,
    "Key": 51,
    "DurationMs": 315,
    "Vel": 88
  },
  {
    "TimeMs": 190777,
    "Key": 79,
    "DurationMs": 104,
    "Vel": 74
  },
  {
    "TimeMs": 190888,
    "Key": 79,
    "DurationMs": 104,
    "Vel": 72
  },
  {
    "TimeMs": 190999,
    "Key": 82,
    "DurationMs": 315,
    "Vel": 83
  },
  {
    "TimeMs": 191000,
    "Key": 86,
    "DurationMs": 315,
    "Vel": 83
  },
  {
    "TimeMs": 191001,
    "Key": 89,
    "DurationMs": 315,
    "Vel": 83
  },
  {
    "TimeMs": 191002,
    "Key": 51,
    "DurationMs": 315,
    "Vel": 83
  },
  {
    "TimeMs": 191110,
    "Key": 77,
    "DurationMs": 104,
    "Vel": 69
  },
  {
    "TimeMs": 191222,
    "Key": 77,
    "DurationMs": 104,
    "Vel": 68
  },
  {
    "TimeMs": 191333,
    "Key": 77,
    "DurationMs": 421,
    "Vel": 78
  },
  {
    "TimeMs": 191334,
    "Key": 82,
    "DurationMs": 421,
    "Vel": 78
  },
  {
    "TimeMs": 191334,
    "Key": 89,
    "DurationMs": 421,
    "Vel": 78
  },
  {
    "TimeMs": 191335,
    "Key": 51,
    "DurationMs": 207,
    "Vel": 78
  },
  {
    "TimeMs": 191444,
    "Key": 74,
    "DurationMs": 104,
    "Vel": 64
  },
  {
    "TimeMs": 191555,
    "Key": 74,
    "DurationMs": 104,
    "Vel": 63
  },
  {
    "TimeMs": 191556,
    "Key": 58,
    "DurationMs": 209,
    "Vel": 75
  },
  {
    "TimeMs": 191557,
    "Key": 63,
    "DurationMs": 209,
    "Vel": 75
  },
  {
    "TimeMs": 191558,
    "Key": 67,
    "DurationMs": 209,
    "Vel": 75
  },
  {
    "TimeMs": 191666,
    "Key": 74,
    "DurationMs": 104,
    "Vel": 62
  },
  {
    "TimeMs": 191777,
    "Key": 74,
    "DurationMs": 421,
    "Vel": 71
  },
  {
    "TimeMs": 191778,
    "Key": 77,
    "DurationMs": 421,
    "Vel": 71
  },
  {
    "TimeMs": 191779,
    "Key": 82,
    "DurationMs": 421,
    "Vel": 71
  },
  {
    "TimeMs": 191780,
    "Key": 63,
    "DurationMs": 101,
    "Vel": 71
  },
  {
    "TimeMs": 191888,
    "Key": 70,
    "DurationMs": 104,
    "Vel": 59
  },
  {
    "TimeMs": 191889,
    "Key": 58,
    "DurationMs": 104,
    "Vel": 70
  },
  {
    "TimeMs": 191999,
    "Key": 70,
    "DurationMs": 104,
    "Vel": 58
  },
  {
    "TimeMs": 192000,
    "Key": 55,
    "DurationMs": 104,
    "Vel": 68
  },
  {
    "TimeMs": 192110,
    "Key": 70,
    "DurationMs": 104,
    "Vel": 56
  },
  {
    "TimeMs": 192111,
    "Key": 51,
    "DurationMs": 104,
    "Vel": 66
  },
  {
    "TimeMs": 192222,
    "Key": 74,
    "DurationMs": 210,
    "Vel": 64
  },
  {
    "TimeMs": 192222,
    "Key": 77,
    "DurationMs": 210,
    "Vel": 64
  },
  {
    "TimeMs": 192223,
    "Key": 82,
    "DurationMs": 210,
    "Vel": 64
  },
  {
    "TimeMs": 192224,
    "Key": 46,
    "DurationMs": 101,
    "Vel": 64
  },
  {
    "TimeMs": 192333,
    "Key": 39,
    "DurationMs": 104,
    "Vel": 64
  },
  {
    "TimeMs": 192444,
    "Key": 82,
    "DurationMs": 315,
    "Vel": 88
  },
  {
    "TimeMs": 192445,
    "Key": 86,
    "DurationMs": 315,
    "Vel": 88
  },
  {
    "TimeMs": 192446,
    "Key": 91,
    "DurationMs": 315,
    "Vel": 88
  },
  {
    "TimeMs": 192447,
    "Key": 41,
    "DurationMs": 315,
    "Vel": 88
  },
  {
    "TimeMs": 192447,
    "Key": 53,
    "DurationMs": 315,
    "Vel": 88
  },
  {
    "TimeMs": 192555,
    "Key": 79,
    "DurationMs": 104,
    "Vel": 74
  },
  {
    "TimeMs": 192666,
    "Key": 79,
    "DurationMs": 104,
    "Vel": 73
  },
  {
    "TimeMs": 192777,
    "Key": 82,
    "DurationMs": 315,
    "Vel": 85
  },
  {
    "TimeMs": 192778,
    "Key": 86,
    "DurationMs": 315,
    "Vel": 85
  },
  {
    "TimeMs": 192779,
    "Key": 89,
    "DurationMs": 315,
    "Vel": 85
  },
  {
    "TimeMs": 192780,
    "Key": 53,
    "DurationMs": 315,
    "Vel": 85
  },
  {
    "TimeMs": 192888,
    "Key": 77,
    "DurationMs": 104,
    "Vel": 71
  },
  {
    "TimeMs": 192999,
    "Key": 77,
    "DurationMs": 104,
    "Vel": 70
  },
  {
    "TimeMs": 193110,
    "Key": 77,
    "DurationMs": 421,
    "Vel": 82
  },
  {
    "TimeMs": 193111,
    "Key": 82,
    "DurationMs": 421,
    "Vel": 82
  },
  {
    "TimeMs": 193112,
    "Key": 89,
    "DurationMs": 421,
    "Vel": 82
  },
  {
    "TimeMs": 193113,
    "Key": 53,
    "DurationMs": 207,
    "Vel": 82
  },
  {
    "TimeMs": 193222,
    "Key": 74,
    "DurationMs": 104,
    "Vel": 68
  },
  {
    "TimeMs": 193333,
    "Key": 74,
    "DurationMs": 104,
    "Vel": 67
  },
  {
    "TimeMs": 193334,
    "Key": 60,
    "DurationMs": 209,
    "Vel": 79
  },
  {
    "TimeMs": 193334,
    "Key": 65,
    "DurationMs": 209,
    "Vel": 79
  },
  {
    "TimeMs": 193335,
    "Key": 69,
    "DurationMs": 209,
    "Vel": 79
  },
  {
    "TimeMs": 193444,
    "Key": 74,
    "DurationMs": 104,
    "Vel": 66
  },
  {
    "TimeMs": 193555,
    "Key": 74,
    "DurationMs": 421,
    "Vel": 77
  },
  {
    "TimeMs": 193556,
    "Key": 77,
    "DurationMs": 421,
    "Vel": 77
  },
  {
    "TimeMs": 193557,
    "Key": 82,
    "DurationMs": 421,
    "Vel": 77
  },
  {
    "TimeMs": 193558,
    "Key": 65,
    "DurationMs": 101,
    "Vel": 77
  },
  {
    "TimeMs": 193666,
    "Key": 70,
    "DurationMs": 104,
    "Vel": 64
  },
  {
    "TimeMs": 193667,
    "Key": 60,
    "DurationMs": 104,
    "Vel": 76
  },
  {
    "TimeMs": 193777,
    "Key": 70,
    "DurationMs": 104,
    "Vel": 63
  },
  {
    "TimeMs": 193778,
    "Key": 57,
    "DurationMs": 104,
    "Vel": 75
  },
  {
    "TimeMs": 193888,
    "Key": 70,
    "DurationMs": 104,
    "Vel": 63
  },
  {
    "TimeMs": 193889,
    "Key": 53,
    "DurationMs": 104,
    "Vel": 74
  },
  {
    "TimeMs": 193999,
    "Key": 74,
    "DurationMs": 210,
    "Vel": 72
  },
  {
    "TimeMs": 194000,
    "Key": 77,
    "DurationMs": 210,
    "Vel": 72
  },
  {
    "TimeMs": 194001,
    "Key": 82,
    "DurationMs": 210,
    "Vel": 72
  },
  {
    "TimeMs": 194002,
    "Key": 48,
    "DurationMs": 101,
    "Vel": 72
  },
  {
    "TimeMs": 194110,
    "Key": 41,
    "DurationMs": 104,
    "Vel": 72
  },
  {
    "TimeMs": 194222,
    "Key": 82,
    "DurationMs": 315,
    "Vel": 96
  },
  {
    "TimeMs": 194222,
    "Key": 86,
    "DurationMs": 315,
    "Vel": 96
  },
  {
    "TimeMs": 194223,
    "Key": 91,
    "DurationMs": 315,
    "Vel": 96
  },
  {
    "TimeMs": 194224,
    "Key": 43,
    "DurationMs": 315,
    "Vel": 96
  },
  {
    "TimeMs": 194225,
    "Key": 55,
    "DurationMs": 315,
    "Vel": 96
  },
  {
    "TimeMs": 194333,
    "Key": 79,
    "DurationMs": 104,
    "Vel": 80
  },
  {
    "TimeMs": 194444,
    "Key": 79,
    "DurationMs": 104,
    "Vel": 79
  },
  {
    "TimeMs": 194555,
    "Key": 82,
    "DurationMs": 315,
    "Vel": 93
  },
  {
    "TimeMs": 194556,
    "Key": 86,
    "DurationMs": 315,
    "Vel": 93
  },
  {
    "TimeMs": 194557,
    "Key": 89,
    "DurationMs": 315,
    "Vel": 93
  },
  {
    "TimeMs": 194558,
    "Key": 55,
    "DurationMs": 315,
    "Vel": 93
  },
  {
    "TimeMs": 194666,
    "Key": 77,
    "DurationMs": 104,
    "Vel": 78
  },
  {
    "TimeMs": 194777,
    "Key": 77,
    "DurationMs": 104,
    "Vel": 77
  },
  {
    "TimeMs": 194888,
    "Key": 77,
    "DurationMs": 421,
    "Vel": 90
  },
  {
    "TimeMs": 194889,
    "Key": 82,
    "DurationMs": 421,
    "Vel": 90
  },
  {
    "TimeMs": 194890,
    "Key": 89,
    "DurationMs": 421,
    "Vel": 90
  },
  {
    "TimeMs": 194891,
    "Key": 55,
    "DurationMs": 207,
    "Vel": 90
  },
  {
    "TimeMs": 194999,
    "Key": 74,
    "DurationMs": 104,
    "Vel": 74
  },
  {
    "TimeMs": 195110,
    "Key": 74,
    "DurationMs": 104,
    "Vel": 74
  },
  {
    "TimeMs": 195111,
    "Key": 62,
    "DurationMs": 209,
    "Vel": 87
  },
  {
    "TimeMs": 195112,
    "Key": 67,
    "DurationMs": 209,
    "Vel": 87
  },
  {
    "TimeMs": 195113,
    "Key": 70,
    "DurationMs": 209,
    "Vel": 87
  },
  {
    "TimeMs": 195222,
    "Key": 74,
    "DurationMs": 104,
    "Vel": 73
  },
  {
    "TimeMs": 195333,
    "Key": 74,
    "DurationMs": 421,
    "Vel": 85
  },
  {
    "TimeMs": 195334,
    "Key": 77,
    "DurationMs": 421,
    "Vel": 85
  },
  {
    "TimeMs": 195334,
    "Key": 82,
    "DurationMs": 421,
    "Vel": 85
  },
  {
    "TimeMs": 195335,
    "Key": 67,
    "DurationMs": 101,
    "Vel": 85
  },
  {
    "TimeMs": 195444,
    "Key": 70,
    "DurationMs": 104,
    "Vel": 71
  },
  {
    "TimeMs": 195445,
    "Key": 62,
    "DurationMs": 104,
    "Vel": 84
  },
  {
    "TimeMs": 195555,
    "Key": 70,
    "DurationMs": 104,
    "Vel": 70
  },
  {
    "TimeMs": 195556,
    "Key": 58,
    "DurationMs": 104,
    "Vel": 83
  },
  {
    "TimeMs": 195666,
    "Key": 70,
    "DurationMs": 104,
    "Vel": 69
  },
  {
    "TimeMs": 195667,
    "Key": 55,
    "DurationMs": 104,
    "Vel": 82
  },
  {
    "TimeMs": 195777,
    "Key": 74,
    "DurationMs": 210,
    "Vel": 80
  },
  {
    "TimeMs": 195778,
    "Key": 77,
    "DurationMs": 210,
    "Vel": 80
  },
  {
    "TimeMs": 195779,
    "Key": 82,
    "DurationMs": 210,
    "Vel": 80
  },
  {
    "TimeMs": 195780,
    "Key": 50,
    "DurationMs": 101,
    "Vel": 80
  },
  {
    "TimeMs": 195888,
    "Key": 43,
    "DurationMs": 104,
    "Vel": 80
  },
  {
    "TimeMs": 195999,
    "Key": 82,
    "DurationMs": 315,
    "Vel": 108
  },
  {
    "TimeMs": 196000,
    "Key": 86,
    "DurationMs": 315,
    "Vel": 108
  },
  {
    "TimeMs": 196001,
    "Key": 91,
    "DurationMs": 315,
    "Vel": 108
  },
  {
    "TimeMs": 196002,
    "Key": 38,
    "DurationMs": 315,
    "Vel": 108
  },
  {
    "TimeMs": 196003,
    "Key": 50,
    "DurationMs": 315,
    "Vel": 108
  },
  {
    "TimeMs": 196110,
    "Key": 79,
    "DurationMs": 104,
    "Vel": 90
  },
  {
    "TimeMs": 196222,
    "Key": 79,
    "DurationMs": 104,
    "Vel": 88
  },
  {
    "TimeMs": 196333,
    "Key": 82,
    "DurationMs": 315,
    "Vel": 102
  },
  {
    "TimeMs": 196334,
    "Key": 86,
    "DurationMs": 315,
    "Vel": 102
  },
  {
    "TimeMs": 196334,
    "Key": 89,
    "DurationMs": 315,
    "Vel": 102
  },
  {
    "TimeMs": 196335,
    "Key": 50,
    "DurationMs": 315,
    "Vel": 102
  },
  {
    "TimeMs": 196444,
    "Key": 77,
    "DurationMs": 104,
    "Vel": 84
  },
  {
    "TimeMs": 196555,
    "Key": 77,
    "DurationMs": 104,
    "Vel": 83
  },
  {
    "TimeMs": 196666,
    "Key": 77,
    "DurationMs": 421,
    "Vel": 96
  },
  {
    "TimeMs": 196667,
    "Key": 82,
    "DurationMs": 421,
    "Vel": 96
  },
  {
    "TimeMs": 196668,
    "Key": 89,
    "DurationMs": 421,
    "Vel": 96
  },
  {
    "TimeMs": 196669,
    "Key": 50,
    "DurationMs": 207,
    "Vel": 96
  },
  {
    "TimeMs": 196777,
    "Key": 74,
    "DurationMs": 104,
    "Vel": 79
  },
  {
    "TimeMs": 196888,
    "Key": 74,
    "DurationMs": 104,
    "Vel": 77
  },
  {
    "TimeMs": 196889,
    "Key": 57,
    "DurationMs": 209,
    "Vel": 91
  },
  {
    "TimeMs": 196890,
    "Key": 62,
    "DurationMs": 209,
    "Vel": 91
  },
  {
    "TimeMs": 196891,
    "Key": 65,
    "DurationMs": 209,
    "Vel": 91
  },
  {
    "TimeMs": 196999,
    "Key": 74,
    "DurationMs": 104,
    "Vel": 75
  },
  {
    "TimeMs": 197110,
    "Key": 74,
    "DurationMs": 421,
    "Vel": 87
  },
  {
    "TimeMs": 197111,
    "Key": 77,
    "DurationMs": 421,
    "Vel": 87
  },
  {
    "TimeMs": 197112,
    "Key": 82,
    "DurationMs": 421,
    "Vel": 87
  },
  {
    "TimeMs": 197113,
    "Key": 62,
    "DurationMs": 101,
    "Vel": 87
  },
  {
    "TimeMs": 197222,
    "Key": 70,
    "DurationMs": 104,
    "Vel": 72
  },
  {
    "TimeMs": 197222,
    "Key": 57,
    "DurationMs": 104,
    "Vel": 85
  },
  {
    "TimeMs": 197333,
    "Key": 70,
    "DurationMs": 104,
    "Vel": 70
  },
  {
    "TimeMs": 197334,
    "Key": 53,
    "DurationMs": 104,
    "Vel": 83
  },
  {
    "TimeMs": 197444,
    "Key": 70,
    "DurationMs": 104,
    "Vel": 68
  },
  {
    "TimeMs": 197445,
    "Key": 50,
    "DurationMs": 104,
    "Vel": 80
  },
  {
    "TimeMs": 197555,
    "Key": 62,
    "DurationMs": 210,
    "Vel": 96
  },
  {
    "TimeMs": 197556,
    "Key": 74,
    "DurationMs": 210,
    "Vel": 96
  },
  {
    "TimeMs": 197557,
    "Key": 45,
    "DurationMs": 102,
    "Vel": 96
  },
  {
    "TimeMs": 197666,
    "Key": 38,
    "DurationMs": 104,
    "Vel": 96
  },
  {
    "TimeMs": 197777,
    "Key": 74,
    "DurationMs": 315,
    "Vel": 96
  },
  {
    "TimeMs": 197778,
    "Key": 79,
    "DurationMs": 315,
    "Vel": 96
  },
  {
    "TimeMs": 197779,
    "Key": 82,
    "DurationMs": 315,
    "Vel": 96
  },
  {
    "TimeMs": 197780,
    "Key": 86,
    "DurationMs": 315,
    "Vel": 96
  },
  {
    "TimeMs": 197781,
    "Key": 27,
    "DurationMs": 206,
    "Vel": 96
  },
  {
    "TimeMs": 197782,
    "Key": 39,
    "DurationMs": 206,
    "Vel": 96
  },
  {
    "TimeMs": 197999,
    "Key": 58,
    "DurationMs": 210,
    "Vel": 96
  },
  {
    "TimeMs": 198000,
    "Key": 63,
    "DurationMs": 210,
    "Vel": 96
  },
  {
    "TimeMs": 198001,
    "Key": 67,
    "DurationMs": 210,
    "Vel": 96
  },
  {
    "TimeMs": 198110,
    "Key": 72,
    "DurationMs": 315,
    "Vel": 96
  },
  {
    "TimeMs": 198111,
    "Key": 75,
    "DurationMs": 315,
    "Vel": 96
  },
  {
    "TimeMs": 198112,
    "Key": 79,
    "DurationMs": 315,
    "Vel": 96
  },
  {
    "TimeMs": 198113,
    "Key": 84,
    "DurationMs": 315,
    "Vel": 96
  },
  {
    "TimeMs": 198222,
    "Key": 39,
    "DurationMs": 210,
    "Vel": 96
  },
  {
    "TimeMs": 198222,
    "Key": 51,
    "DurationMs": 210,
    "Vel": 96
  },
  {
    "TimeMs": 198444,
    "Key": 72,
    "DurationMs": 210,
    "Vel": 96
  },
  {
    "TimeMs": 198445,
    "Key": 75,
    "DurationMs": 210,
    "Vel": 96
  },
  {
    "TimeMs": 198446,
    "Key": 79,
    "DurationMs": 210,
    "Vel": 96
  },
  {
    "TimeMs": 198447,
    "Key": 84,
    "DurationMs": 210,
    "Vel": 96
  },
  {
    "TimeMs": 198447,
    "Key": 58,
    "DurationMs": 210,
    "Vel": 96
  },
  {
    "TimeMs": 198448,
    "Key": 63,
    "DurationMs": 210,
    "Vel": 96
  },
  {
    "TimeMs": 198449,
    "Key": 67,
    "DurationMs": 210,
    "Vel": 96
  },
  {
    "TimeMs": 198666,
    "Key": 72,
    "DurationMs": 315,
    "Vel": 96
  },
  {
    "TimeMs": 198667,
    "Key": 75,
    "DurationMs": 315,
    "Vel": 96
  },
  {
    "TimeMs": 198668,
    "Key": 79,
    "DurationMs": 315,
    "Vel": 96
  },
  {
    "TimeMs": 198669,
    "Key": 84,
    "DurationMs": 315,
    "Vel": 96
  },
  {
    "TimeMs": 198670,
    "Key": 39,
    "DurationMs": 206,
    "Vel": 96
  },
  {
    "TimeMs": 198671,
    "Key": 51,
    "DurationMs": 206,
    "Vel": 96
  },
  {
    "TimeMs": 198888,
    "Key": 58,
    "DurationMs": 210,
    "Vel": 96
  },
  {
    "TimeMs": 198889,
    "Key": 63,
    "DurationMs": 210,
    "Vel": 96
  },
  {
    "TimeMs": 198890,
    "Key": 67,
    "DurationMs": 210,
    "Vel": 96
  },
  {
    "TimeMs": 198999,
    "Key": 70,
    "DurationMs": 315,
    "Vel": 96
  },
  {
    "TimeMs": 199000,
    "Key": 75,
    "DurationMs": 315,
    "Vel": 96
  },
  {
    "TimeMs": 199001,
    "Key": 79,
    "DurationMs": 315,
    "Vel": 96
  },
  {
    "TimeMs": 199002,
    "Key": 82,
    "DurationMs": 315,
    "Vel": 96
  },
  {
    "TimeMs": 199110,
    "Key": 39,
    "DurationMs": 210,
    "Vel": 96
  },
  {
    "TimeMs": 199111,
    "Key": 51,
    "DurationMs": 210,
    "Vel": 96
  },
  {
    "TimeMs": 199333,
    "Key": 70,
    "DurationMs": 210,
    "Vel": 96
  },
  {
    "TimeMs": 199334,
    "Key": 75,
    "DurationMs": 210,
    "Vel": 96
  },
  {
    "TimeMs": 199334,
    "Key": 79,
    "DurationMs": 210,
    "Vel": 96
  },
  {
    "TimeMs": 199335,
    "Key": 82,
    "DurationMs": 210,
    "Vel": 96
  },
  {
    "TimeMs": 199336,
    "Key": 58,
    "DurationMs": 210,
    "Vel": 96
  },
  {
    "TimeMs": 199337,
    "Key": 63,
    "DurationMs": 210,
    "Vel": 96
  },
  {
    "TimeMs": 199338,
    "Key": 67,
    "DurationMs": 210,
    "Vel": 96
  },
  {
    "TimeMs": 199555,
    "Key": 69,
    "DurationMs": 224,
    "Vel": 96
  },
  {
    "TimeMs": 199556,
    "Key": 72,
    "DurationMs": 314,
    "Vel": 96
  },
  {
    "TimeMs": 199557,
    "Key": 77,
    "DurationMs": 314,
    "Vel": 96
  },
  {
    "TimeMs": 199558,
    "Key": 81,
    "DurationMs": 314,
    "Vel": 96
  },
  {
    "TimeMs": 199559,
    "Key": 29,
    "DurationMs": 206,
    "Vel": 96
  },
  {
    "TimeMs": 199559,
    "Key": 41,
    "DurationMs": 206,
    "Vel": 96
  },
  {
    "TimeMs": 199777,
    "Key": 60,
    "DurationMs": 211,
    "Vel": 96
  },
  {
    "TimeMs": 199778,
    "Key": 65,
    "DurationMs": 211,
    "Vel": 96
  },
  {
    "TimeMs": 199780,
    "Key": 69,
    "DurationMs": 207,
    "Vel": 96
  },
  {
    "TimeMs": 199888,
    "Key": 70,
    "DurationMs": 315,
    "Vel": 96
  },
  {
    "TimeMs": 199889,
    "Key": 82,
    "DurationMs": 315,
    "Vel": 96
  },
  {
    "TimeMs": 199999,
    "Key": 41,
    "DurationMs": 210,
    "Vel": 96
  },
  {
    "TimeMs": 200000,
    "Key": 53,
    "DurationMs": 210,
    "Vel": 96
  },
  {
    "TimeMs": 200222,
    "Key": 69,
    "DurationMs": 5,
    "Vel": 96
  },
  {
    "TimeMs": 200222,
    "Key": 72,
    "DurationMs": 421,
    "Vel": 96
  },
  {
    "TimeMs": 200223,
    "Key": 77,
    "DurationMs": 421,
    "Vel": 96
  },
  {
    "TimeMs": 200224,
    "Key": 81,
    "DurationMs": 421,
    "Vel": 96
  },
  {
    "TimeMs": 200225,
    "Key": 60,
    "DurationMs": 206,
    "Vel": 96
  },
  {
    "TimeMs": 200226,
    "Key": 65,
    "DurationMs": 206,
    "Vel": 96
  },
  {
    "TimeMs": 200228,
    "Key": 69,
    "DurationMs": 414,
    "Vel": 96
  },
  {
    "TimeMs": 200444,
    "Key": 41,
    "DurationMs": 210,
    "Vel": 96
  },
  {
    "TimeMs": 200445,
    "Key": 53,
    "DurationMs": 210,
    "Vel": 96
  },
  {
    "TimeMs": 200666,
    "Key": 69,
    "DurationMs": 4,
    "Vel": 96
  },
  {
    "TimeMs": 200667,
    "Key": 72,
    "DurationMs": 421,
    "Vel": 96
  },
  {
    "TimeMs": 200668,
    "Key": 77,
    "DurationMs": 421,
    "Vel": 96
  },
  {
    "TimeMs": 200669,
    "Key": 60,
    "DurationMs": 207,
    "Vel": 96
  },
  {
    "TimeMs": 200670,
    "Key": 65,
    "DurationMs": 207,
    "Vel": 96
  },
  {
    "TimeMs": 200672,
    "Key": 69,
    "DurationMs": 415,
    "Vel": 96
  },
  {
    "TimeMs": 200888,
    "Key": 41,
    "DurationMs": 210,
    "Vel": 96
  },
  {
    "TimeMs": 200889,
    "Key": 53,
    "DurationMs": 210,
    "Vel": 96
  },
  {
    "TimeMs": 201110,
    "Key": 74,
    "DurationMs": 210,
    "Vel": 96
  },
  {
    "TimeMs": 201111,
    "Key": 60,
    "DurationMs": 210,
    "Vel": 96
  },
  {
    "TimeMs": 201112,
    "Key": 65,
    "DurationMs": 210,
    "Vel": 96
  },
  {
    "TimeMs": 201113,
    "Key": 69,
    "DurationMs": 210,
    "Vel": 96
  },
  {
    "TimeMs": 201333,
    "Key": 74,
    "DurationMs": 315,
    "Vel": 96
  },
  {
    "TimeMs": 201334,
    "Key": 79,
    "DurationMs": 315,
    "Vel": 96
  },
  {
    "TimeMs": 201334,
    "Key": 82,
    "DurationMs": 315,
    "Vel": 96
  },
  {
    "TimeMs": 201335,
    "Key": 86,
    "DurationMs": 315,
    "Vel": 96
  },
  {
    "TimeMs": 201336,
    "Key": 31,
    "DurationMs": 206,
    "Vel": 96
  },
  {
    "TimeMs": 201337,
    "Key": 43,
    "DurationMs": 206,
    "Vel": 96
  },
  {
    "TimeMs": 201555,
    "Key": 62,
    "DurationMs": 210,
    "Vel": 96
  },
  {
    "TimeMs": 201556,
    "Key": 67,
    "DurationMs": 210,
    "Vel": 96
  },
  {
    "TimeMs": 201557,
    "Key": 70,
    "DurationMs": 210,
    "Vel": 96
  },
  {
    "TimeMs": 201666,
    "Key": 72,
    "DurationMs": 315,
    "Vel": 96
  },
  {
    "TimeMs": 201667,
    "Key": 75,
    "DurationMs": 315,
    "Vel": 96
  },
  {
    "TimeMs": 201668,
    "Key": 79,
    "DurationMs": 315,
    "Vel": 96
  },
  {
    "TimeMs": 201669,
    "Key": 84,
    "DurationMs": 315,
    "Vel": 96
  },
  {
    "TimeMs": 201777,
    "Key": 43,
    "DurationMs": 210,
    "Vel": 96
  },
  {
    "TimeMs": 201778,
    "Key": 55,
    "DurationMs": 210,
    "Vel": 96
  },
  {
    "TimeMs": 201999,
    "Key": 72,
    "DurationMs": 210,
    "Vel": 96
  },
  {
    "TimeMs": 202000,
    "Key": 75,
    "DurationMs": 210,
    "Vel": 96
  },
  {
    "TimeMs": 202001,
    "Key": 79,
    "DurationMs": 210,
    "Vel": 96
  },
  {
    "TimeMs": 202002,
    "Key": 84,
    "DurationMs": 210,
    "Vel": 96
  },
  {
    "TimeMs": 202003,
    "Key": 62,
    "DurationMs": 210,
    "Vel": 96
  },
  {
    "TimeMs": 202004,
    "Key": 67,
    "DurationMs": 210,
    "Vel": 96
  },
  {
    "TimeMs": 202005,
    "Key": 70,
    "DurationMs": 210,
    "Vel": 96
  },
  {
    "TimeMs": 202222,
    "Key": 72,
    "DurationMs": 315,
    "Vel": 96
  },
  {
    "TimeMs": 202222,
    "Key": 75,
    "DurationMs": 315,
    "Vel": 96
  },
  {
    "TimeMs": 202223,
    "Key": 79,
    "DurationMs": 315,
    "Vel": 96
  },
  {
    "TimeMs": 202224,
    "Key": 84,
    "DurationMs": 315,
    "Vel": 96
  },
  {
    "TimeMs": 202225,
    "Key": 43,
    "DurationMs": 206,
    "Vel": 96
  },
  {
    "TimeMs": 202226,
    "Key": 55,
    "DurationMs": 206,
    "Vel": 96
  },
  {
    "TimeMs": 202444,
    "Key": 62,
    "DurationMs": 210,
    "Vel": 96
  },
  {
    "TimeMs": 202445,
    "Key": 67,
    "DurationMs": 210,
    "Vel": 96
  },
  {
    "TimeMs": 202446,
    "Key": 70,
    "DurationMs": 109,
    "Vel": 96
  },
  {
    "TimeMs": 202556,
    "Key": 70,
    "DurationMs": 317,
    "Vel": 96
  },
  {
    "TimeMs": 202557,
    "Key": 75,
    "DurationMs": 313,
    "Vel": 96
  },
  {
    "TimeMs": 202558,
    "Key": 79,
    "DurationMs": 313,
    "Vel": 96
  },
  {
    "TimeMs": 202559,
    "Key": 82,
    "DurationMs": 313,
    "Vel": 96
  },
  {
    "TimeMs": 202666,
    "Key": 43,
    "DurationMs": 210,
    "Vel": 96
  },
  {
    "TimeMs": 202667,
    "Key": 55,
    "DurationMs": 210,
    "Vel": 96
  },
  {
    "TimeMs": 202888,
    "Key": 70,
    "DurationMs": 5,
    "Vel": 96
  },
  {
    "TimeMs": 202889,
    "Key": 75,
    "DurationMs": 209,
    "Vel": 96
  },
  {
    "TimeMs": 202890,
    "Key": 79,
    "DurationMs": 209,
    "Vel": 96
  },
  {
    "TimeMs": 202891,
    "Key": 82,
    "DurationMs": 209,
    "Vel": 96
  },
  {
    "TimeMs": 202892,
    "Key": 62,
    "DurationMs": 210,
    "Vel": 96
  },
  {
    "TimeMs": 202893,
    "Key": 67,
    "DurationMs": 210,
    "Vel": 96
  },
  {
    "TimeMs": 202895,
    "Key": 70,
    "DurationMs": 206,
    "Vel": 96
  },
  {
    "TimeMs": 203110,
    "Key": 69,
    "DurationMs": 315,
    "Vel": 96
  },
  {
    "TimeMs": 203111,
    "Key": 72,
    "DurationMs": 315,
    "Vel": 96
  },
  {
    "TimeMs": 203112,
    "Key": 77,
    "DurationMs": 315,
    "Vel": 96
  },
  {
    "TimeMs": 203113,
    "Key": 81,
    "DurationMs": 315,
    "Vel": 96
  },
  {
    "TimeMs": 203114,
    "Key": 26,
    "DurationMs": 206,
    "Vel": 96
  },
  {
    "TimeMs": 203115,
    "Key": 38,
    "DurationMs": 206,
    "Vel": 96
  },
  {
    "TimeMs": 203333,
    "Key": 57,
    "DurationMs": 210,
    "Vel": 96
  },
  {
    "TimeMs": 203334,
    "Key": 62,
    "DurationMs": 210,
    "Vel": 96
  },
  {
    "TimeMs": 203334,
    "Key": 65,
    "DurationMs": 210,
    "Vel": 96
  },
  {
    "TimeMs": 203444,
    "Key": 70,
    "DurationMs": 315,
    "Vel": 96
  },
  {
    "TimeMs": 203445,
    "Key": 82,
    "DurationMs": 315,
    "Vel": 96
  },
  {
    "TimeMs": 203555,
    "Key": 38,
    "DurationMs": 210,
    "Vel": 96
  },
  {
    "TimeMs": 203556,
    "Key": 50,
    "DurationMs": 210,
    "Vel": 96
  },
  {
    "TimeMs": 203777,
    "Key": 77,
    "DurationMs": 443,
    "Vel": 127
  },
  {
    "TimeMs": 203778,
    "Key": 81,
    "DurationMs": 443,
    "Vel": 127
  },
  {
    "TimeMs": 203779,
    "Key": 86,
    "DurationMs": 443,
    "Vel": 127
  },
  {
    "TimeMs": 203780,
    "Key": 89,
    "DurationMs": 443,
    "Vel": 127
  },
  {
    "TimeMs": 203781,
    "Key": 57,
    "DurationMs": 206,
    "Vel": 96
  },
  {
    "TimeMs": 203782,
    "Key": 62,
    "DurationMs": 206,
    "Vel": 96
  },
  {
    "TimeMs": 203783,
    "Key": 65,
    "DurationMs": 206,
    "Vel": 96
  },
  {
    "TimeMs": 203999,
    "Key": 38,
    "DurationMs": 210,
    "Vel": 96
  },
  {
    "TimeMs": 204000,
    "Key": 50,
    "DurationMs": 210,
    "Vel": 96
  },
  {
    "TimeMs": 204224,
    "Key": 69,
    "DurationMs": 418,
    "Vel": 73
  },
  {
    "TimeMs": 204225,
    "Key": 74,
    "DurationMs": 418,
    "Vel": 73
  },
  {
    "TimeMs": 204226,
    "Key": 77,
    "DurationMs": 418,
    "Vel": 73
  },
  {
    "TimeMs": 204227,
    "Key": 81,
    "DurationMs": 418,
    "Vel": 73
  },
  {
    "TimeMs": 204228,
    "Key": 57,
    "DurationMs": 203,
    "Vel": 73
  },
  {
    "TimeMs": 204229,
    "Key": 62,
    "DurationMs": 203,
    "Vel": 73
  },
  {
    "TimeMs": 204230,
    "Key": 65,
    "DurationMs": 203,
    "Vel": 73
  },
  {
    "TimeMs": 204444,
    "Key": 38,
    "DurationMs": 210,
    "Vel": 96
  },
  {
    "TimeMs": 204445,
    "Key": 50,
    "DurationMs": 210,
    "Vel": 96
  },
  {
    "TimeMs": 204666,
    "Key": 70,
    "DurationMs": 210,
    "Vel": 89
  },
  {
    "TimeMs": 204667,
    "Key": 82,
    "DurationMs": 210,
    "Vel": 89
  },
  {
    "TimeMs": 204668,
    "Key": 57,
    "DurationMs": 210,
    "Vel": 89
  },
  {
    "TimeMs": 204669,
    "Key": 62,
    "DurationMs": 210,
    "Vel": 89
  },
  {
    "TimeMs": 204670,
    "Key": 65,
    "DurationMs": 210,
    "Vel": 89
  },
  {
    "TimeMs": 204888,
    "Key": 79,
    "DurationMs": 315,
    "Vel": 96
  },
  {
    "TimeMs": 204889,
    "Key": 82,
    "DurationMs": 315,
    "Vel": 96
  },
  {
    "TimeMs": 204890,
    "Key": 87,
    "DurationMs": 315,
    "Vel": 96
  },
  {
    "TimeMs": 204891,
    "Key": 91,
    "DurationMs": 315,
    "Vel": 96
  },
  {
    "TimeMs": 204892,
    "Key": 27,
    "DurationMs": 206,
    "Vel": 96
  },
  {
    "TimeMs": 204893,
    "Key": 39,
    "DurationMs": 206,
    "Vel": 96
  },
  {
    "TimeMs": 205110,
    "Key": 39,
    "DurationMs": 210,
    "Vel": 96
  },
  {
    "TimeMs": 205111,
    "Key": 51,
    "DurationMs": 210,
    "Vel": 96
  },
  {
    "TimeMs": 205222,
    "Key": 77,
    "DurationMs": 315,
    "Vel": 96
  },
  {
    "TimeMs": 205222,
    "Key": 82,
    "DurationMs": 315,
    "Vel": 96
  },
  {
    "TimeMs": 205223,
    "Key": 86,
    "DurationMs": 315,
    "Vel": 96
  },
  {
    "TimeMs": 205224,
    "Key": 89,
    "DurationMs": 315,
    "Vel": 96
  },
  {
    "TimeMs": 205333,
    "Key": 39,
    "DurationMs": 210,
    "Vel": 96
  },
  {
    "TimeMs": 205334,
    "Key": 51,
    "DurationMs": 210,
    "Vel": 96
  },
  {
    "TimeMs": 205555,
    "Key": 74,
    "DurationMs": 210,
    "Vel": 96
  },
  {
    "TimeMs": 205556,
    "Key": 86,
    "DurationMs": 210,
    "Vel": 96
  },
  {
    "TimeMs": 205557,
    "Key": 39,
    "DurationMs": 210,
    "Vel": 96
  },
  {
    "TimeMs": 205558,
    "Key": 51,
    "DurationMs": 210,
    "Vel": 96
  },
  {
    "TimeMs": 205777,
    "Key": 70,
    "DurationMs": 632,
    "Vel": 96
  },
  {
    "TimeMs": 205778,
    "Key": 74,
    "DurationMs": 632,
    "Vel": 96
  },
  {
    "TimeMs": 205779,
    "Key": 77,
    "DurationMs": 632,
    "Vel": 96
  },
  {
    "TimeMs": 205780,
    "Key": 82,
    "DurationMs": 632,
    "Vel": 96
  },
  {
    "TimeMs": 205781,
    "Key": 58,
    "DurationMs": 417,
    "Vel": 96
  },
  {
    "TimeMs": 205782,
    "Key": 63,
    "DurationMs": 417,
    "Vel": 96
  },
  {
    "TimeMs": 205783,
    "Key": 67,
    "DurationMs": 417,
    "Vel": 96
  },
  {
    "TimeMs": 206222,
    "Key": 39,
    "DurationMs": 421,
    "Vel": 96
  },
  {
    "TimeMs": 206222,
    "Key": 51,
    "DurationMs": 421,
    "Vel": 96
  },
  {
    "TimeMs": 206444,
    "Key": 70,
    "DurationMs": 210,
    "Vel": 96
  },
  {
    "TimeMs": 206445,
    "Key": 82,
    "DurationMs": 210,
    "Vel": 96
  },
  {
    "TimeMs": 206666,
    "Key": 70,
    "DurationMs": 421,
    "Vel": 96
  },
  {
    "TimeMs": 206667,
    "Key": 72,
    "DurationMs": 421,
    "Vel": 96
  },
  {
    "TimeMs": 206668,
    "Key": 77,
    "DurationMs": 421,
    "Vel": 96
  },
  {
    "TimeMs": 206669,
    "Key": 82,
    "DurationMs": 421,
    "Vel": 96
  },
  {
    "TimeMs": 206670,
    "Key": 29,
    "DurationMs": 628,
    "Vel": 96
  },
  {
    "TimeMs": 206671,
    "Key": 41,
    "DurationMs": 628,
    "Vel": 96
  },
  {
    "TimeMs": 207110,
    "Key": 69,
    "DurationMs": 210,
    "Vel": 96
  },
  {
    "TimeMs": 207111,
    "Key": 81,
    "DurationMs": 210,
    "Vel": 96
  },
  {
    "TimeMs": 207333,
    "Key": 67,
    "DurationMs": 421,
    "Vel": 96
  },
  {
    "TimeMs": 207334,
    "Key": 72,
    "DurationMs": 421,
    "Vel": 96
  },
  {
    "TimeMs": 207334,
    "Key": 77,
    "DurationMs": 421,
    "Vel": 96
  },
  {
    "TimeMs": 207335,
    "Key": 79,
    "DurationMs": 421,
    "Vel": 96
  },
  {
    "TimeMs": 207336,
    "Key": 57,
    "DurationMs": 628,
    "Vel": 96
  },
  {
    "TimeMs": 207337,
    "Key": 60,
    "DurationMs": 628,
    "Vel": 96
  },
  {
    "TimeMs": 207338,
    "Key": 65,
    "DurationMs": 628,
    "Vel": 96
  },
  {
    "TimeMs": 207777,
    "Key": 69,
    "DurationMs": 421,
    "Vel": 80
  },
  {
    "TimeMs": 207778,
    "Key": 81,
    "DurationMs": 421,
    "Vel": 80
  },
  {
    "TimeMs": 207999,
    "Key": 41,
    "DurationMs": 421,
    "Vel": 72
  },
  {
    "TimeMs": 208000,
    "Key": 53,
    "DurationMs": 421,
    "Vel": 72
  },
  {
    "TimeMs": 208222,
    "Key": 70,
    "DurationMs": 421,
    "Vel": 64
  },
  {
    "TimeMs": 208222,
    "Key": 74,
    "DurationMs": 421,
    "Vel": 64
  },
  {
    "TimeMs": 208223,
    "Key": 79,
    "DurationMs": 421,
    "Vel": 64
  },
  {
    "TimeMs": 208224,
    "Key": 82,
    "DurationMs": 421,
    "Vel": 64
  },
  {
    "TimeMs": 208444,
    "Key": 39,
    "DurationMs": 632,
    "Vel": 49
  },
  {
    "TimeMs": 208445,
    "Key": 51,
    "DurationMs": 632,
    "Vel": 49
  },
  {
    "TimeMs": 208666,
    "Key": 67,
    "DurationMs": 210,
    "Vel": 49
  },
  {
    "TimeMs": 208888,
    "Key": 70,
    "DurationMs": 210,
    "Vel": 49
  },
  {
    "TimeMs": 209110,
    "Key": 74,
    "DurationMs": 210,
    "Vel": 49
  },
  {
    "TimeMs": 209111,
    "Key": 58,
    "DurationMs": 631,
    "Vel": 49
  },
  {
    "TimeMs": 209112,
    "Key": 63,
    "DurationMs": 631,
    "Vel": 49
  },
  {
    "TimeMs": 209333,
    "Key": 67,
    "DurationMs": 210,
    "Vel": 49
  },
  {
    "TimeMs": 209555,
    "Key": 70,
    "DurationMs": 210,
    "Vel": 49
  },
  {
    "TimeMs": 209777,
    "Key": 74,
    "DurationMs": 210,
    "Vel": 49
  },
  {
    "TimeMs": 209778,
    "Key": 58,
    "DurationMs": 420,
    "Vel": 49
  },
  {
    "TimeMs": 209779,
    "Key": 63,
    "DurationMs": 420,
    "Vel": 49
  },
  {
    "TimeMs": 209999,
    "Key": 67,
    "DurationMs": 210,
    "Vel": 49
  },
  {
    "TimeMs": 210222,
    "Key": 72,
    "DurationMs": 210,
    "Vel": 49
  },
  {
    "TimeMs": 210222,
    "Key": 43,
    "DurationMs": 631,
    "Vel": 49
  },
  {
    "TimeMs": 210223,
    "Key": 55,
    "DurationMs": 631,
    "Vel": 49
  },
  {
    "TimeMs": 210444,
    "Key": 65,
    "DurationMs": 210,
    "Vel": 49
  },
  {
    "TimeMs": 210666,
    "Key": 70,
    "DurationMs": 210,
    "Vel": 49
  },
  {
    "TimeMs": 210888,
    "Key": 72,
    "DurationMs": 210,
    "Vel": 49
  },
  {
    "TimeMs": 210889,
    "Key": 58,
    "DurationMs": 631,
    "Vel": 49
  },
  {
    "TimeMs": 210890,
    "Key": 62,
    "DurationMs": 631,
    "Vel": 49
  },
  {
    "TimeMs": 211110,
    "Key": 65,
    "DurationMs": 210,
    "Vel": 49
  },
  {
    "TimeMs": 211333,
    "Key": 70,
    "DurationMs": 210,
    "Vel": 49
  },
  {
    "TimeMs": 211555,
    "Key": 72,
    "DurationMs": 210,
    "Vel": 49
  },
  {
    "TimeMs": 211556,
    "Key": 58,
    "DurationMs": 420,
    "Vel": 49
  },
  {
    "TimeMs": 211557,
    "Key": 62,
    "DurationMs": 420,
    "Vel": 49
  },
  {
    "TimeMs": 211777,
    "Key": 65,
    "DurationMs": 210,
    "Vel": 49
  },
  {
    "TimeMs": 211999,
    "Key": 72,
    "DurationMs": 210,
    "Vel": 49
  },
  {
    "TimeMs": 212000,
    "Key": 41,
    "DurationMs": 631,
    "Vel": 49
  },
  {
    "TimeMs": 212001,
    "Key": 53,
    "DurationMs": 631,
    "Vel": 49
  },
  {
    "TimeMs": 212222,
    "Key": 65,
    "DurationMs": 210,
    "Vel": 49
  },
  {
    "TimeMs": 212444,
    "Key": 69,
    "DurationMs": 210,
    "Vel": 49
  },
  {
    "TimeMs": 212666,
    "Key": 70,
    "DurationMs": 210,
    "Vel": 49
  },
  {
    "TimeMs": 212667,
    "Key": 60,
    "DurationMs": 631,
    "Vel": 49
  },
  {
    "TimeMs": 212668,
    "Key": 65,
    "DurationMs": 220,
    "Vel": 49
  },
  {
    "TimeMs": 212889,
    "Key": 65,
    "DurationMs": 410,
    "Vel": 49
  },
  {
    "TimeMs": 213110,
    "Key": 69,
    "DurationMs": 210,
    "Vel": 49
  },
  {
    "TimeMs": 213333,
    "Key": 70,
    "DurationMs": 210,
    "Vel": 49
  },
  {
    "TimeMs": 213334,
    "Key": 60,
    "DurationMs": 420,
    "Vel": 49
  },
  {
    "TimeMs": 213334,
    "Key": 65,
    "DurationMs": 220,
    "Vel": 49
  },
  {
    "TimeMs": 213556,
    "Key": 65,
    "DurationMs": 209,
    "Vel": 49
  },
  {
    "TimeMs": 213777,
    "Key": 72,
    "DurationMs": 210,
    "Vel": 49
  },
  {
    "TimeMs": 213778,
    "Key": 43,
    "DurationMs": 631,
    "Vel": 49
  },
  {
    "TimeMs": 213779,
    "Key": 55,
    "DurationMs": 631,
    "Vel": 49
  },
  {
    "TimeMs": 213999,
    "Key": 67,
    "DurationMs": 210,
    "Vel": 49
  },
  {
    "TimeMs": 214222,
    "Key": 69,
    "DurationMs": 210,
    "Vel": 49
  },
  {
    "TimeMs": 214444,
    "Key": 72,
    "DurationMs": 210,
    "Vel": 49
  },
  {
    "TimeMs": 214445,
    "Key": 58,
    "DurationMs": 631,
    "Vel": 49
  },
  {
    "TimeMs": 214446,
    "Key": 62,
    "DurationMs": 631,
    "Vel": 49
  },
  {
    "TimeMs": 214666,
    "Key": 69,
    "DurationMs": 210,
    "Vel": 49
  },
  {
    "TimeMs": 214888,
    "Key": 70,
    "DurationMs": 210,
    "Vel": 49
  },
  {
    "TimeMs": 215110,
    "Key": 74,
    "DurationMs": 210,
    "Vel": 49
  },
  {
    "TimeMs": 215111,
    "Key": 58,
    "DurationMs": 420,
    "Vel": 49
  },
  {
    "TimeMs": 215112,
    "Key": 62,
    "DurationMs": 420,
    "Vel": 49
  },
  {
    "TimeMs": 215333,
    "Key": 82,
    "DurationMs": 210,
    "Vel": 49
  },
  {
    "TimeMs": 215555,
    "Key": 74,
    "DurationMs": 421,
    "Vel": 49
  },
  {
    "TimeMs": 215556,
    "Key": 77,
    "DurationMs": 421,
    "Vel": 49
  },
  {
    "TimeMs": 215557,
    "Key": 84,
    "DurationMs": 421,
    "Vel": 49
  },
  {
    "TimeMs": 215558,
    "Key": 51,
    "DurationMs": 207,
    "Vel": 49
  },
  {
    "TimeMs": 215777,
    "Key": 58,
    "DurationMs": 210,
    "Vel": 49
  },
  {
    "TimeMs": 215999,
    "Key": 82,
    "DurationMs": 421,
    "Vel": 49
  },
  {
    "TimeMs": 216000,
    "Key": 67,
    "DurationMs": 209,
    "Vel": 49
  },
  {
    "TimeMs": 216222,
    "Key": 51,
    "DurationMs": 210,
    "Vel": 49
  },
  {
    "TimeMs": 216444,
    "Key": 81,
    "DurationMs": 843,
    "Vel": 49
  },
  {
    "TimeMs": 216445,
    "Key": 58,
    "DurationMs": 209,
    "Vel": 49
  },
  {
    "TimeMs": 216666,
    "Key": 67,
    "DurationMs": 210,
    "Vel": 49
  },
  {
    "TimeMs": 216888,
    "Key": 70,
    "DurationMs": 210,
    "Vel": 49
  },
  {
    "TimeMs": 216889,
    "Key": 51,
    "DurationMs": 210,
    "Vel": 49
  },
  {
    "TimeMs": 217110,
    "Key": 74,
    "DurationMs": 210,
    "Vel": 49
  },
  {
    "TimeMs": 217111,
    "Key": 58,
    "DurationMs": 210,
    "Vel": 49
  },
  {
    "TimeMs": 217333,
    "Key": 65,
    "DurationMs": 210,
    "Vel": 49
  },
  {
    "TimeMs": 217334,
    "Key": 55,
    "DurationMs": 210,
    "Vel": 49
  },
  {
    "TimeMs": 217555,
    "Key": 72,
    "DurationMs": 210,
    "Vel": 49
  },
  {
    "TimeMs": 217556,
    "Key": 62,
    "DurationMs": 210,
    "Vel": 49
  },
  {
    "TimeMs": 217777,
    "Key": 74,
    "DurationMs": 210,
    "Vel": 49
  },
  {
    "TimeMs": 217778,
    "Key": 70,
    "DurationMs": 210,
    "Vel": 49
  },
  {
    "TimeMs": 217999,
    "Key": 65,
    "DurationMs": 210,
    "Vel": 49
  },
  {
    "TimeMs": 218000,
    "Key": 55,
    "DurationMs": 210,
    "Vel": 49
  },
  {
    "TimeMs": 218222,
    "Key": 72,
    "DurationMs": 210,
    "Vel": 49
  },
  {
    "TimeMs": 218222,
    "Key": 62,
    "DurationMs": 210,
    "Vel": 49
  },
  {
    "TimeMs": 218444,
    "Key": 74,
    "DurationMs": 210,
    "Vel": 49
  },
  {
    "TimeMs": 218445,
    "Key": 70,
    "DurationMs": 210,
    "Vel": 49
  },
  {
    "TimeMs": 218666,
    "Key": 65,
    "DurationMs": 210,
    "Vel": 49
  },
  {
    "TimeMs": 218667,
    "Key": 55,
    "DurationMs": 210,
    "Vel": 49
  },
  {
    "TimeMs": 218888,
    "Key": 82,
    "DurationMs": 210,
    "Vel": 49
  },
  {
    "TimeMs": 218889,
    "Key": 62,
    "DurationMs": 210,
    "Vel": 49
  },
  {
    "TimeMs": 219110,
    "Key": 74,
    "DurationMs": 421,
    "Vel": 49
  },
  {
    "TimeMs": 219111,
    "Key": 77,
    "DurationMs": 421,
    "Vel": 49
  },
  {
    "TimeMs": 219112,
    "Key": 84,
    "DurationMs": 421,
    "Vel": 49
  },
  {
    "TimeMs": 219113,
    "Key": 53,
    "DurationMs": 207,
    "Vel": 49
  },
  {
    "TimeMs": 219333,
    "Key": 60,
    "DurationMs": 210,
    "Vel": 49
  },
  {
    "TimeMs": 219555,
    "Key": 82,
    "DurationMs": 421,
    "Vel": 49
  },
  {
    "TimeMs": 219556,
    "Key": 69,
    "DurationMs": 209,
    "Vel": 49
  },
  {
    "TimeMs": 219777,
    "Key": 53,
    "DurationMs": 210,
    "Vel": 49
  },
  {
    "TimeMs": 219999,
    "Key": 81,
    "DurationMs": 843,
    "Vel": 49
  },
  {
    "TimeMs": 220000,
    "Key": 60,
    "DurationMs": 209,
    "Vel": 49
  },
  {
    "TimeMs": 220222,
    "Key": 69,
    "DurationMs": 210,
    "Vel": 49
  },
  {
    "TimeMs": 220444,
    "Key": 70,
    "DurationMs": 210,
    "Vel": 49
  },
  {
    "TimeMs": 220445,
    "Key": 53,
    "DurationMs": 210,
    "Vel": 49
  },
  {
    "TimeMs": 220666,
    "Key": 72,
    "DurationMs": 210,
    "Vel": 49
  },
  {
    "TimeMs": 220667,
    "Key": 60,
    "DurationMs": 210,
    "Vel": 49
  },
  {
    "TimeMs": 220888,
    "Key": 65,
    "DurationMs": 210,
    "Vel": 49
  },
  {
    "TimeMs": 220889,
    "Key": 55,
    "DurationMs": 210,
    "Vel": 49
  },
  {
    "TimeMs": 221110,
    "Key": 69,
    "DurationMs": 210,
    "Vel": 49
  },
  {
    "TimeMs": 221111,
    "Key": 62,
    "DurationMs": 210,
    "Vel": 49
  },
  {
    "TimeMs": 221333,
    "Key": 70,
    "DurationMs": 210,
    "Vel": 49
  },
  {
    "TimeMs": 221334,
    "Key": 67,
    "DurationMs": 210,
    "Vel": 49
  },
  {
    "TimeMs": 221555,
    "Key": 65,
    "DurationMs": 210,
    "Vel": 49
  },
  {
    "TimeMs": 221556,
    "Key": 55,
    "DurationMs": 210,
    "Vel": 49
  },
  {
    "TimeMs": 221777,
    "Key": 69,
    "DurationMs": 210,
    "Vel": 49
  },
  {
    "TimeMs": 221778,
    "Key": 62,
    "DurationMs": 210,
    "Vel": 49
  },
  {
    "TimeMs": 221999,
    "Key": 70,
    "DurationMs": 210,
    "Vel": 49
  },
  {
    "TimeMs": 222000,
    "Key": 67,
    "DurationMs": 210,
    "Vel": 49
  },
  {
    "TimeMs": 222222,
    "Key": 65,
    "DurationMs": 210,
    "Vel": 49
  },
  {
    "TimeMs": 222222,
    "Key": 55,
    "DurationMs": 210,
    "Vel": 49
  },
  {
    "TimeMs": 222444,
    "Key": 72,
    "DurationMs": 210,
    "Vel": 49
  },
  {
    "TimeMs": 222445,
    "Key": 62,
    "DurationMs": 210,
    "Vel": 49
  },
  {
    "TimeMs": 222666,
    "Key": 70,
    "DurationMs": 421,
    "Vel": 49
  },
  {
    "TimeMs": 222667,
    "Key": 74,
    "DurationMs": 421,
    "Vel": 49
  },
  {
    "TimeMs": 222668,
    "Key": 51,
    "DurationMs": 208,
    "Vel": 49
  },
  {
    "TimeMs": 222888,
    "Key": 58,
    "DurationMs": 210,
    "Vel": 49
  },
  {
    "TimeMs": 223110,
    "Key": 74,
    "DurationMs": 210,
    "Vel": 49
  },
  {
    "TimeMs": 223111,
    "Key": 67,
    "DurationMs": 210,
    "Vel": 49
  },
  {
    "TimeMs": 223333,
    "Key": 74,
    "DurationMs": 421,
    "Vel": 49
  },
  {
    "TimeMs": 223334,
    "Key": 51,
    "DurationMs": 209,
    "Vel": 49
  },
  {
    "TimeMs": 223555,
    "Key": 58,
    "DurationMs": 210,
    "Vel": 49
  },
  {
    "TimeMs": 223777,
    "Key": 86,
    "DurationMs": 210,
    "Vel": 49
  },
  {
    "TimeMs": 223778,
    "Key": 67,
    "DurationMs": 210,
    "Vel": 49
  },
  {
    "TimeMs": 223999,
    "Key": 86,
    "DurationMs": 1265,
    "Vel": 49
  },
  {
    "TimeMs": 224000,
    "Key": 51,
    "DurationMs": 209,
    "Vel": 49
  },
  {
    "TimeMs": 224221,
    "Key": 58,
    "DurationMs": 210,
    "Vel": 49
  },
  {
    "TimeMs": 224444,
    "Key": 65,
    "DurationMs": 210,
    "Vel": 49
  },
  {
    "TimeMs": 224445,
    "Key": 55,
    "DurationMs": 210,
    "Vel": 49
  },
  {
    "TimeMs": 224666,
    "Key": 72,
    "DurationMs": 210,
    "Vel": 49
  },
  {
    "TimeMs": 224667,
    "Key": 62,
    "DurationMs": 210,
    "Vel": 49
  },
  {
    "TimeMs": 224888,
    "Key": 74,
    "DurationMs": 210,
    "Vel": 49
  },
  {
    "TimeMs": 224889,
    "Key": 70,
    "DurationMs": 210,
    "Vel": 49
  },
  {
    "TimeMs": 225110,
    "Key": 65,
    "DurationMs": 210,
    "Vel": 49
  },
  {
    "TimeMs": 225111,
    "Key": 55,
    "DurationMs": 210,
    "Vel": 49
  },
  {
    "TimeMs": 225333,
    "Key": 72,
    "DurationMs": 210,
    "Vel": 49
  },
  {
    "TimeMs": 225334,
    "Key": 62,
    "DurationMs": 210,
    "Vel": 49
  },
  {
    "TimeMs": 225555,
    "Key": 74,
    "DurationMs": 210,
    "Vel": 49
  },
  {
    "TimeMs": 225556,
    "Key": 70,
    "DurationMs": 210,
    "Vel": 49
  },
  {
    "TimeMs": 225777,
    "Key": 65,
    "DurationMs": 210,
    "Vel": 49
  },
  {
    "TimeMs": 225778,
    "Key": 55,
    "DurationMs": 210,
    "Vel": 49
  },
  {
    "TimeMs": 225999,
    "Key": 82,
    "DurationMs": 210,
    "Vel": 49
  },
  {
    "TimeMs": 226000,
    "Key": 62,
    "DurationMs": 210,
    "Vel": 49
  },
  {
    "TimeMs": 226221,
    "Key": 81,
    "DurationMs": 421,
    "Vel": 49
  },
  {
    "TimeMs": 226666,
    "Key": 81,
    "DurationMs": 210,
    "Vel": 49
  },
  {
    "TimeMs": 226888,
    "Key": 81,
    "DurationMs": 421,
    "Vel": 49
  },
  {
    "TimeMs": 227333,
    "Key": 82,
    "DurationMs": 210,
    "Vel": 49
  },
  {
    "TimeMs": 227555,
    "Key": 82,
    "DurationMs": 421,
    "Vel": 49
  },
  {
    "TimeMs": 227999,
    "Key": 98,
    "DurationMs": 315,
    "Vel": 33
  },
  {
    "TimeMs": 228000,
    "Key": 55,
    "DurationMs": 103,
    "Vel": 33
  },
  {
    "TimeMs": 228110,
    "Key": 91,
    "DurationMs": 104,
    "Vel": 33
  },
  {
    "TimeMs": 228111,
    "Key": 62,
    "DurationMs": 104,
    "Vel": 33
  },
  {
    "TimeMs": 228221,
    "Key": 86,
    "DurationMs": 104,
    "Vel": 33
  },
  {
    "TimeMs": 228222,
    "Key": 67,
    "DurationMs": 104,
    "Vel": 33
  },
  {
    "TimeMs": 228333,
    "Key": 96,
    "DurationMs": 315,
    "Vel": 33
  },
  {
    "TimeMs": 228334,
    "Key": 69,
    "DurationMs": 103,
    "Vel": 33
  },
  {
    "TimeMs": 228444,
    "Key": 91,
    "DurationMs": 104,
    "Vel": 33
  },
  {
    "TimeMs": 228445,
    "Key": 67,
    "DurationMs": 104,
    "Vel": 33
  },
  {
    "TimeMs": 228555,
    "Key": 86,
    "DurationMs": 104,
    "Vel": 33
  },
  {
    "TimeMs": 228556,
    "Key": 69,
    "DurationMs": 104,
    "Vel": 33
  },
  {
    "TimeMs": 228666,
    "Key": 94,
    "DurationMs": 1054,
    "Vel": 33
  },
  {
    "TimeMs": 228667,
    "Key": 70,
    "DurationMs": 103,
    "Vel": 33
  },
  {
    "TimeMs": 228777,
    "Key": 74,
    "DurationMs": 104,
    "Vel": 33
  },
  {
    "TimeMs": 228888,
    "Key": 79,
    "DurationMs": 104,
    "Vel": 33
  },
  {
    "TimeMs": 228999,
    "Key": 82,
    "DurationMs": 104,
    "Vel": 33
  },
  {
    "TimeMs": 229110,
    "Key": 81,
    "DurationMs": 104,
    "Vel": 33
  },
  {
    "TimeMs": 229221,
    "Key": 82,
    "DurationMs": 104,
    "Vel": 33
  },
  {
    "TimeMs": 229333,
    "Key": 84,
    "DurationMs": 104,
    "Vel": 33
  },
  {
    "TimeMs": 229444,
    "Key": 82,
    "DurationMs": 104,
    "Vel": 33
  },
  {
    "TimeMs": 229555,
    "Key": 81,
    "DurationMs": 104,
    "Vel": 33
  },
  {
    "TimeMs": 229666,
    "Key": 82,
    "DurationMs": 104,
    "Vel": 33
  },
  {
    "TimeMs": 229777,
    "Key": 98,
    "DurationMs": 315,
    "Vel": 33
  },
  {
    "TimeMs": 229778,
    "Key": 55,
    "DurationMs": 103,
    "Vel": 33
  },
  {
    "TimeMs": 229888,
    "Key": 91,
    "DurationMs": 104,
    "Vel": 33
  },
  {
    "TimeMs": 229889,
    "Key": 62,
    "DurationMs": 104,
    "Vel": 33
  },
  {
    "TimeMs": 229999,
    "Key": 86,
    "DurationMs": 104,
    "Vel": 33
  },
  {
    "TimeMs": 230000,
    "Key": 67,
    "DurationMs": 104,
    "Vel": 33
  },
  {
    "TimeMs": 230110,
    "Key": 96,
    "DurationMs": 315,
    "Vel": 33
  },
  {
    "TimeMs": 230111,
    "Key": 69,
    "DurationMs": 103,
    "Vel": 33
  },
  {
    "TimeMs": 230221,
    "Key": 91,
    "DurationMs": 104,
    "Vel": 33
  },
  {
    "TimeMs": 230222,
    "Key": 67,
    "DurationMs": 104,
    "Vel": 33
  },
  {
    "TimeMs": 230333,
    "Key": 86,
    "DurationMs": 104,
    "Vel": 33
  },
  {
    "TimeMs": 230334,
    "Key": 69,
    "DurationMs": 104,
    "Vel": 33
  },
  {
    "TimeMs": 230444,
    "Key": 94,
    "DurationMs": 1054,
    "Vel": 33
  },
  {
    "TimeMs": 230445,
    "Key": 70,
    "DurationMs": 103,
    "Vel": 33
  },
  {
    "TimeMs": 230555,
    "Key": 74,
    "DurationMs": 104,
    "Vel": 33
  },
  {
    "TimeMs": 230666,
    "Key": 79,
    "DurationMs": 2532,
    "Vel": 33
  },
  {
    "TimeMs": 230777,
    "Key": 82,
    "DurationMs": 104,
    "Vel": 33
  },
  {
    "TimeMs": 230888,
    "Key": 81,
    "DurationMs": 104,
    "Vel": 33
  },
  {
    "TimeMs": 230999,
    "Key": 82,
    "DurationMs": 104,
    "Vel": 33
  },
  {
    "TimeMs": 231110,
    "Key": 84,
    "DurationMs": 104,
    "Vel": 33
  },
  {
    "TimeMs": 231221,
    "Key": 82,
    "DurationMs": 104,
    "Vel": 33
  },
  {
    "TimeMs": 231333,
    "Key": 81,
    "DurationMs": 104,
    "Vel": 33
  },
  {
    "TimeMs": 231444,
    "Key": 82,
    "DurationMs": 1793,
    "Vel": 33
  }
]